<?xml version="1.0" encoding="utf-8"?>
<!-- Generator: Adobe Illustrator 16.0.0, SVG Export Plug-In . SVG Version: 6.00 Build 0)  -->
<!DOCTYPE svg PUBLIC "-//W3C//DTD SVG 1.1//EN" "http://www.w3.org/Graphics/SVG/1.1/DTD/svg11.dtd">
<svg version="1.1" id="Layer_1" xmlns="http://www.w3.org/2000/svg" xmlns:xlink="http://www.w3.org/1999/xlink" x="0px" y="0px"
	 width="800px" height="600px" viewBox="0 0 800 600" enable-background="new 0 0 800 600" xml:space="preserve">
<path fill="#FFFFFF" d="M569.997,289.063c0,96.712-78.401,175.113-175.115,175.113c-96.712,0-175.113-78.4-175.113-175.113
	c0-96.713,78.401-175.114,175.113-175.114C491.596,113.949,569.997,192.35,569.997,289.063z M479.679,410.406
	c-9.082-11.037-18.182-22.061-27.272-33.092c-6.996-8.49-13.995-16.977-20.965-25.488c-0.664-0.814-1.236-1.051-2.274-0.656
	c-3.654,1.387-7.337,2.711-11.04,3.957c-1.08,0.367-1.464,0.881-1.492,2.025c-0.286,11.393-0.641,22.785-0.956,34.174
	c-0.426,15.416-0.824,30.832-1.269,46.246c-0.039,1.348,0.307,1.873,1.781,1.824c5.297-0.18,10.397-1.375,15.443-2.834
	c0.448-0.131,0.969-1.029,0.957-1.561c-0.084-4.078-0.294-8.15-0.462-12.227c-0.127-3.086-0.066-2.902,2.843-3.834
	c7.013-2.242,13.981-4.625,20.924-7.076c1.283-0.451,1.994-0.332,2.854,0.686c2.841,3.373,5.747,6.695,8.693,9.975
	c0.4,0.447,1.34,0.934,1.763,0.76c5.013-2.084,9.627-4.867,14.007-8.338C481.994,413.377,480.877,411.859,479.679,410.406z
	 M432.648,375.932c5.117,7.104,10.213,14.221,15.361,21.301c0.766,1.049,0.795,1.607-0.414,2.332
	c-4.674,2.799-9.688,4.506-15.094,5.113c-1.068,0.121-1.637-0.043-1.646-1.359c-0.062-9.65-0.198-19.301-0.302-28.953
	c-0.002-0.15,0.089-0.303,0.285-0.924C431.576,374.453,432.115,375.191,432.648,375.932z M489.072,411.061
	c4.357-3.76,8.438-7.283,12.646-10.912c-2.542-3.539-4.996-6.98-7.478-10.4c-2.885-3.973-5.822-7.91-8.66-11.916
	c-0.329-0.463-0.482-1.492-0.198-1.889c4.883-6.764,13.096-6.742,17.616-2.764c1.626,1.432,3.426,2.744,5.337,3.746
	c2.594,1.361,5.331,2.477,8.085,3.49c1.509,0.555,2.771-0.152,3.72-1.52c2.802-4.033,5.685-8.01,8.5-12.031
	c0.351-0.504,0.484-1.16,0.721-1.746c-0.643-0.25-1.27-0.555-1.93-0.73c-0.419-0.109-0.89-0.018-1.337-0.031
	c-4.467-0.145-8.709-1.006-12.649-3.314c-5.529-3.24-11.449-4.297-17.74-2.564c-0.293,0.078-0.629,0.01-0.705,0.01
	c-0.419-2.918-0.519-5.793-1.285-8.479c-1.491-5.232-4.753-9.33-8.834-12.934c-5.855-5.172-12.504-6.625-19.945-4.928
	c-9.019,2.057-15.243,8.535-22.333,14.207C458.151,368.008,473.56,389.463,489.072,411.061z M477.588,365.664
	c-1.287,0.977-2.143,0.924-3.15-0.443c-3.842-5.205-7.784-10.334-11.675-15.504c-1.413-1.879-1.369-1.861,0.613-3.174
	c7.393-4.902,14.786,0.121,17.071,6.07c0.671,1.746,0.964,3.639,1.208,4.598C481.555,361.342,480.104,363.76,477.588,365.664z
	 M403.871,386.145c1.842,0,3.686-0.049,5.525,0.018c1.113,0.039,1.562-0.398,1.438-1.473c-0.172-1.496-0.273-3.008-0.543-4.488
	c-0.857-4.684-1.873-9.328-4.706-13.311c-5.329-7.484-12.985-10.754-21.793-10.859c-10.47-0.127-17.9,5.506-23.074,14.242
	c-5.531,9.338-7.672,19.701-8.562,30.367c-0.756,9.049,0.774,17.727,4.938,25.824c3.74,7.275,9.506,12.379,17.335,14.869
	c9.564,3.041,21.005-1.262,27.17-9.916c3.896-5.475,6.281-11.539,7.531-18.107c0.248-1.301-0.383-1.373-1.324-1.475
	c-3.723-0.404-7.446-0.783-11.15-1.318c-1.275-0.184-1.655,0.256-2.197,1.336c-1.539,3.072-2.942,6.334-5.087,8.961
	c-5.329,6.527-15.025,5.32-18.755-2.219c-1.249-2.523-2.208-5.277-2.773-8.031c-1.949-9.486-0.678-18.672,3.184-27.512
	c1.5-3.436,3.211-6.752,5.932-9.441c4.548-4.496,14.003-4.424,16.841,2.551c1.11,2.725,1.956,5.561,2.804,8.381
	c0.271,0.9,0.595,1.334,1.568,1.309c1.897-0.051,3.799-0.016,5.696-0.016C403.869,385.939,403.871,386.041,403.871,386.145z
	 M302.694,404.668c4.782-8.387,9.562-16.771,14.338-25.162c7.344-12.902,14.677-25.807,22.042-38.697
	c0.485-0.85,0.441-1.387-0.348-1.973c-2.506-1.867-5.079-3.668-7.438-5.709c-1.742-1.508-3.376-1.562-5.479-0.902
	c-19.223,6.045-38.476,12-57.716,17.99c-2.965,0.924-5.911,1.908-8.923,2.885c0.113,0.398,0.14,0.621,0.235,0.805
	c2.361,4.559,4.756,9.1,7.071,13.684c0.455,0.9,0.92,1.068,1.836,0.785c3.949-1.217,7.937-2.309,11.862-3.592
	c1.27-0.416,2.036-0.197,2.915,0.754c4.433,4.797,8.877,9.586,13.435,14.26c1.138,1.17,1.164,1.912,0.261,3.195
	c-2.789,3.961-5.441,8.014-8.271,12.219c4.429,3.6,8.782,7.141,13.32,10.832C302.233,405.408,302.479,405.047,302.694,404.668z
	 M309.841,363.896c-1.079,1.689-2.171,3.373-3.219,5.084c-0.426,0.693-0.811,1.062-1.525,0.322
	c-3.367-3.49-6.747-6.967-10.112-10.461c-0.093-0.096-0.061-0.314-0.124-0.701c8.286-3.502,16.602-7.016,24.919-10.531
	c0.07,0.131,0.142,0.264,0.212,0.396C316.608,353.303,313.224,358.598,309.841,363.896z M294.135,330.467
	c4.767,1.674,9.424,1.557,13.521-2.039c3.219-2.822,4.212-6.539,4.231-10.539c0.043-8.809-3.853-16.146-9.038-22.921
	c-0.317-0.416-1.17-0.64-1.75-0.602c-3.789,0.248-7.572,0.588-11.355,0.905c-15.914,1.333-31.827,2.681-47.744,3.981
	c-1.33,0.109-1.775,0.544-1.477,1.875c0.792,3.54,1.473,7.103,2.27,10.64c1.424,6.326,3.051,12.576,6.299,18.287
	c5.471,9.619,14.958,14.885,25.857,11.572c4.989-1.52,8.706-4.502,10.445-9.553c0.626-1.818,0.985-3.729,1.406-5.365
	C289.242,327.986,291.57,329.566,294.135,330.467z M261.062,312.994c3.477-0.485,6.963-0.896,10.432-1.432
	c1.489-0.23,2.397,0.177,2.647,1.706c0.366,2.241,0.99,4.487,1.005,6.733c0.044,6.553-5.988,8.213-10.199,6.383
	c-1.524-0.664-2.96-1.814-4.082-3.064c-2.388-2.654-3.538-5.975-4.523-9.572C258.022,313.479,259.538,313.207,261.062,312.994z
	 M296.078,319.107c-2.138,1.1-4.387,0.971-6.369-0.406c-2.92-2.027-4.167-5.148-5.021-8.441c-0.068-0.26,0.411-0.929,0.713-0.982
	c3.458-0.632,6.929-1.212,10.409-1.715c0.417-0.059,1.155,0.307,1.329,0.674c0.894,1.884,1.652,3.832,2.458,5.758
	c-0.133,0.053-0.266,0.106-0.4,0.158C299.274,316.508,298.019,318.107,296.078,319.107z M504.327,294.779
	c-2.958,0.059-5.934,0.019-8.869,0.32c-9.345,0.96-15.018,7.275-16.608,15.895c-1.533,8.299,1.483,15.404,7.193,21.369
	c6.021,6.291,13.633,9.939,21.745,12.756c7.691,2.672,15.396,3.074,23.175,0.6c8.388-2.666,14.688-10.598,14.952-18.717
	c0.141-4.273-0.247-8.494-1.809-12.514c-2.801-7.212-8.057-11.894-15.244-14.516c-0.979-0.357-1.521-0.127-1.731,1.04
	c-0.561,3.125-1.065,6.283-1.956,9.32c-0.505,1.727,0.199,2.295,1.37,3.178c1.63,1.229,3.227,2.607,4.49,4.199
	c4.013,5.045,1.124,13.914-5.314,14.898c-1.972,0.303-4.006,0.428-5.998,0.326c-4.561-0.23-8.932-1.422-13.121-3.209
	c-4.625-1.973-9.078-4.17-12.913-7.605c-4.342-3.891-3.308-13.387,4.171-14.932c1.637-0.336,3.32-0.442,4.947-0.811
	c0.57-0.129,1.377-0.646,1.492-1.126c0.771-3.253,1.385-6.546,2.105-10.102C505.607,295,504.964,294.766,504.327,294.779z
	 M493.039,260.049c-0.318,0.083-0.655,0.719-0.703,1.131c-0.907,8.042-1.697,16.099-2.709,24.127
	c-0.23,1.825,0.278,2.129,1.897,2.236c5.908,0.389,11.804,0.927,17.704,1.4c12.692,1.015,25.386,2.012,38.074,3.061
	c1.232,0.102,1.582-0.301,1.556-1.462c-0.037-1.562,0.093-3.126,0.106-4.689c0.111-12.911-1.328-25.632-4.605-38.136
	c-0.286-1.094-0.707-1.544-1.861-1.2c-2.513,0.751-5.06,1.396-7.55,2.21c-0.402,0.132-0.916,0.975-0.836,1.379
	c1.651,8.251,2.105,16.603,2.319,24.985c0.034,1.323-0.369,1.684-1.622,1.54c-2.772-0.321-5.55-0.655-8.335-0.789
	c-1.48-0.072-1.747-0.604-1.835-2.014c-0.416-6.733-1.008-13.458-1.539-20.186c-0.104-1.312-0.613-1.724-1.972-1.179
	c-2.019,0.81-4.099,1.481-6.193,2.071c-1.328,0.374-1.639,1.064-1.616,2.404c0.097,5.805,0.009,11.613,0.08,17.418
	c0.019,1.495-0.56,1.804-1.911,1.669c-2.277-0.226-4.567-0.356-6.856-0.416c-1.357-0.036-1.796-0.53-1.774-1.924
	c0.086-5.183,0.035-10.368,0.035-15.99C499.187,258.566,496.101,259.259,493.039,260.049z M353.516,347.918
	c-3.078-1.51-3.03-1.482-4.851,1.355c-6.841,10.668-13.716,21.314-20.574,31.971c-6.162,9.576-12.3,19.166-18.5,28.717
	c-0.704,1.084-0.651,1.596,0.438,2.379c9.636,6.934,20.228,12.047,31.151,16.541c1.886,0.775,3.814,1.449,5.873,2.227
	c0.062-0.623,0.129-0.994,0.129-1.367c0.002-3.91-0.088-7.822,0.027-11.73c0.046-1.576-0.53-2.418-1.864-3.148
	c-4.065-2.227-8.052-4.592-12.095-6.861c-0.912-0.51-1.152-0.98-0.602-1.977c1.591-2.879,3.061-5.826,4.607-8.73
	c8.021-15.078,16.051-30.152,24.218-45.49C358.713,350.457,356.113,349.193,353.516,347.918z"/>
</svg>
