<?xml version="1.0" encoding="utf-8"?>
<!-- Generator: Adobe Illustrator 16.0.0, SVG Export Plug-In . SVG Version: 6.00 Build 0)  -->
<!DOCTYPE svg PUBLIC "-//W3C//DTD SVG 1.1//EN" "http://www.w3.org/Graphics/SVG/1.1/DTD/svg11.dtd">
<svg version="1.1" id="Layer_1" xmlns="http://www.w3.org/2000/svg" xmlns:xlink="http://www.w3.org/1999/xlink" x="0px" y="0px"
	 width="800px" height="600px" viewBox="0 0 800 600" enable-background="new 0 0 800 600" xml:space="preserve">
<g>
	<path fill="#FFFFFF" d="M448.619,353.121c8.238,0.736,16.463-0.252,23.502-3.166c13.567-5.615,23.838-20.855,13.975-34.824
		c-5.796-8.207-16.477-11.479-26.029-12.393c-15.84-1.516-31.191-1.646-43.68-12.94c-1.797-1.625-3.897-2.086-6.199-2.11
		c-3.832-0.041-7.671-0.056-11.503-0.159c-2.978-0.079-3.698-1.208-2.08-3.746c0.936-1.473,2.469-2.621,3.887-3.715
		c1.448-1.115,3.142-1.91,4.6-3.011c0.363-0.274,0.512-1.312,0.299-1.8c-6.746-15.513-3.354-28.843,4.686-42.902
		c4.707-8.234,11.956-12.806,20.533-16.374c14.527-6.042,33.253-3.886,47.477,2.213c3.338,1.431,6.464,3.374,9.624,5.194
		c1.557,0.897,2.954,0.343,3.961-0.584c1.504-1.383,2.727-3.092,3.961-4.743c0.942-1.264,1.763-2.158,3.558-1.259
		c1.555,0.778-1.273,11.21-2.38,15.282c-0.157,0.579-0.106,1.285,0.062,1.869c0.729,2.541,1.466,5.083,2.34,7.575
		c0.729,2.078,2.628,2.537,4.607,1.757c1.662-0.656,3.55-1.065,5.327-1.034c2.063,0.037,3.264,2.932,2.21,5.141
		c-1.519,3.184-4.378,4.834-7.582,5.804c-0.847,0.256-1.997-0.294-2.954-0.632c-2.125-0.753-4.144-1.392-6.374-0.103
		c-1.982,1.146-4.138,0.65-6.306,0.214c-3.032-0.612-7.903-2.967-8.841-6.181c-1.438-4.938,5.418-2.54,7.66-1.953
		c0.782,0.205,1.623,0.176,2.437,0.252c-0.09-0.733-0.175-1.468-0.278-2.2c-0.021-0.153-0.148-0.289-0.183-0.443
		c-1.332-6.111-5.637-10.1-10.248-13.661c-12.603-9.729-46.817-8.188-51.231,10.87c-2.838,12.253,3.501,24.903,15.649,28.561
		c16.464,4.96,33.768,2.655,48.458,13.229c2.621,1.888,5.682,1.294,8.538,1.832c3.428,0.646,6.873,1.215,10.29,1.927
		c0.473,0.098,0.821,0.814,1.227,1.244c-0.473,0.227-0.958,0.432-1.418,0.686c-2.02,1.119-4.112,2.139-6,3.452
		c-0.547,0.381-0.89,1.76-0.643,2.434c0.626,1.716,1.478,3.401,2.522,4.901c6.763,9.717,6.589,22.319,4.47,33.385
		c-1.446,7.537-5.75,14.176-11.954,18.67c-10.45,7.576-24.45,13.775-37.532,13.189c-14.32-0.643-29.73-1.777-42.145-9.639
		c-4.196-2.658-7.605-0.166-10.988,1.811c-2.338,1.369-4.417,3.164-6.719,4.604c-0.669,0.416-1.703,0.25-2.569,0.354
		c0.044-0.986-0.263-2.201,0.201-2.91c1.131-1.732,2.765-3.131,3.929-4.846c1.557-2.285,2.959-4.693,4.207-7.164
		c0.262-0.514-0.314-1.59-0.717-2.283c-2.274-3.936-4.747-7.758-6.86-11.775c-0.878-1.67-1.678-1.518-3.015-0.912
		c-3.646,1.656-8.373,0.064-7.402-4.375c1.842-8.428,11.662-4.473,17.003-3.238c0.659,0.154,1.564,0.145,2.093-0.193
		c4.108-2.662,10.064-3.207,13.53,0.822c3.148,3.656,0.331,9.758-4.737,7.041c-2.059-1.105-3.957-1.471-6.1-0.199
		c-1.192,0.711-1.39,1.238-0.61,2.432C418.053,344.443,433.357,351.754,448.619,353.121z"/>
	<path fill="#FFFFFF" d="M269.054,360.346c-3.144-0.072-6.142-0.254-8.652-2.463c-0.45-0.398-1.678-0.328-2.326-0.014
		c-3.577,1.729-7.506,2.938-11.243,2.297c-3.494-0.6-7.332-1.924-9.081-5.838c-0.621-1.387-0.458-2.59,0.587-3.758
		c1.101-1.23,2.185-1.896,3.953-1.281c2.099,0.736,4.296,1.191,6.464,1.719c0.324,0.08,0.951,0.016,1.025-0.154
		c0.493-1.158,21.419-55.658,22.123-56.982c1.148-2.16-10.205-8.17-10.586-8.52c0.486-0.216,0.953-0.521,1.463-0.632
		c3.442-0.755,6.858-1.667,10.343-2.181c5.354-0.791,17.494-42.507,21.508-59.542c0.316-1.346-0.271-2.144-1.597-1.968
		c-2.255,0.301-4.11,0.405-6.288,1.05c-2.051,0.608-6.756,1.5-6.183-1.94c0.287-1.725,3.026-3.659,4.372-4.563
		c4.247-2.855,8.567-4.168,13.648-3.338c0.237,0.038,0.482,0.176,0.701,0.138c5.552-0.947,9.679,2.225,13.887,4.949
		c1.943,1.256,3.141,0.96,5.104-0.209c4.313-2.568,8.758-5.528,14.127-4.792c2.759,0.378,5.574,1.364,8.029,2.692
		c2.79,1.507,2.416,6.354-0.393,7.843c-0.431,0.228-1.185-0.122-1.78-0.242c-2.017-0.406-4.015-1.013-6.049-1.189
		c-1.746-0.152-2.418,1.101-2.009,2.83c1.076,4.562,1.981,9.167,3.142,13.708c0.745,2.915,1.792,5.756,2.753,8.615
		c1.725,5.136,3.59,10.227,5.193,15.4c1.083,3.499,1.719,7.133,2.747,10.649c0.598,2.051,1.551,4.002,2.402,5.973
		c0.137,0.317,0.55,0.584,0.895,0.729c3.933,1.655,23.434,8.201,15.176,7.728c-8.257-0.473-12.487,6.223-10.402,11.057
		c0.942,2.183,1.724,4.439,2.457,6.701c1.474,4.541,2.795,9.131,4.309,13.656c2.407,7.197,4.92,14.361,7.394,21.537
		c0.799,2.316,1.612,4.631,2.419,6.943c0.789,2.268,4.838,4.242,7.801,3.947c1.898-0.188,3.82-0.111,5.728-0.221
		c2.292-0.129,3.382,1.32,3.997,3.156c1.248,3.738-1.553,7.367-5.491,7.447c-1.878,0.037-3.753,0.457-5.627,0.619
		c-9.618,0.834-13.419-1.516-16.075-2.881c-0.41-0.209-0.687-0.668-1.055-0.975c-2.829-2.355-3.152-2.146-6.151-0.26
		c-2.022,1.271-4.488,1.859-6.785,2.672c-1.246,0.438-2.546,0.738-3.838,1.031c-5.999,1.373-11.765,0.031-17.43-1.734
		c-2.237-0.699-4.439-1.77-6.389-3.072c-2.247-1.504-1.783-6.168,0.538-7.492c0.265-0.15,0.613-0.301,0.893-0.258
		c2.747,0.43,5.475,1,8.234,1.332c2.351,0.279,4.734,0.35,7.104,0.355c0.317,0,0.969-0.988,0.897-1.43
		c-2.518-15.598-7.53-30.768-11.921-45.915c-0.663-2.29-1.48-4.533-2.225-6.8c-0.501-1.52-1.108-1.482-2.418-0.571
		c-14.822,3.825-13.422,33.989-15.486,33.989c-2.063,0-2.933-29.545-18.766-34.67c-1.374-0.445-1.649,0.46-1.931,1.378
		c-1.212,3.958-17.344,50.387-17.456,50.936c-0.178,0.869-0.6,2.443-0.434,2.508c1.271,0.512,2.664,0.979,4.015,0.971
		c1.483-0.01,2.983-0.854,4.438-0.758c1.432,0.094,2.94,0.715,4.165,1.494c0.62,0.395,0.997,1.672,0.944,2.52
		c-0.141,2.354-3.733,5.721-6.095,5.932C270.912,360.295,269.947,360.303,269.054,360.346z M313.496,289.713
		c0.207-0.013,0.413-0.027,0.62-0.037c2.303-0.118,4.231-0.024,3.406-2.949c-2.545-9.03-5.881-17.805-8.749-26.73
		c-1.442-4.49-2.784-9.013-3.839-13.61c-0.238-1.037-3.263-10.496-3.56-10.132c-0.453,0.552-1.127,1.036-1.322,1.67
		c-0.874,2.819-1.596,5.685-2.399,8.526c-1.934,6.834-3.805,13.692-5.857,20.492c-1.289,4.271-2.946,8.43-4.275,12.69
		c-0.947,3.035-1.606,6.156-2.434,9.229c-0.351,1.304,0.32,1.531,1.381,1.526c5.837-0.039,11.675,0.241,17.508,0.172
		C307.151,290.522,310.323,289.928,313.496,289.713z"/>
	<path fill="#FFFFFF" d="M162.649,252.183c-0.005,5.679,0.106,11.368-0.176,17.019c-0.135,2.693,0.353,4.958,2.132,6.824
		c2.34,2.455,11.413,6.504,11.413,8.222c-5.311-1.134-9.405,0.495-12.159,5.436c-0.368,0.66-1.084,1.581-1.062,2.383
		c0.221,8.072,0.567,16.076,0.311,24.148c-0.236,7.432-0.485,15.443,3.092,22.213c3.568,6.754,10.108,10.492,17.605,10.816
		c7.091,0.309,16.826-2.197,22.077-7.283c2.337-2.262,5.184-4.023,7-6.814c2.16-3.32,9.276-17.211,1.136-17.615
		c-3.164-0.16-6.324-0.635-9.439-1.219c-0.568-0.104-1.391-1.453-1.294-2.111c0.69-4.664,3.051-6.627,7.913-5.994
		c3.968,0.516,7.917,3.127,11.861,3.053c2.494-0.047,4.569-1.779,6.997-2.164c2.335-0.371,4.872,0.156,7.005,1.088
		c3.725,1.623,4.776,4.869,2.845,7.953c-0.92,1.469-2.173,1.539-3.747,1.393c-1.922-0.18-3.9-0.127-5.812,0.135
		c-0.691,0.094-1.601,0.975-1.822,1.682c-1.044,3.328-1.01,6.406-2.629,9.596c-3.385,6.672-2.061,11.703,0.264,18.584
		c0.744,2.197,1.398,4.443,1.86,6.715c0.169,0.826-0.192,1.867-0.606,2.656c-0.17,0.322-1.296,0.527-1.673,0.291
		c-1.183-0.748-2.188-1.77-3.308-2.621c-2.849-2.17-5.691-4.354-8.621-6.412c-0.415-0.291-1.41-0.125-1.943,0.176
		c-3.342,1.885-6.696,3.766-9.925,5.842c-7.182,4.609-15.135,5.291-23.114,3.736c-17.934-3.492-32.941-13.406-40.71-30.459
		c-3.362-7.379-5.495-15.334-6.689-23.338c-0.549-3.679-0.294-7.659-1.062-11.266c-0.674-3.175-1.67-5.604-4.183-7.266
		c-1.865-1.234-5.732-1.863-8.306-1.435c-0.078,0.013,4.09-6.874,10.854-7.968c1.692-0.272,2.071-1.951,2.283-3.634
		c1.675-13.239,4.17-27.174,11.444-38.589c5.466-8.577,12.235-17.06,21.185-22.183c7.909-4.528,16.968-5.579,25.893-4.278
		c6.093,0.89,12.324,2.113,17.934,4.75c2.882,1.353,4.826,2.685,8.116,2.317c3.208-0.358,12.071-3.685,13.311-4.003
		c2.601-0.669-5.201,9.511-5.365,10.48c-0.241,1.455,1.343,2.967,1.879,4.244c1.847,4.406,1.018,9.38,1.668,14.005
		c0.751,5.34,9.212,1.078,11.897,5.192c4.49,6.882-9.604,10.219-13.841,6.804c-0.914-0.735-2.025-1.251-3.105-1.732
		c-0.326-0.146-0.915,0.06-1.279,0.277c-1.621,0.965-3.085,2.399-4.826,2.918c-4.456,1.325-9.058,2.543-13.333-0.668
		c-2.376-1.785-2.408-5.079-1.049-8.058c0.796-1.744,3.699-2.646,5.702-1.92c0.574,0.208,1.202,0.548,1.563,1.016
		c0.75,0.97,1.338,2.094,2.859,1.57c1.732-0.596,3.184-1.785,3.013-3.617c-0.539-5.765-2.616-11.783-7.264-15.487
		c-5.011-3.993-12.467-6.28-18.708-7.127c-4.416-0.601-10.604-0.734-14.821,0.952c-7.218,2.888-9.971,9.414-10.688,16.726
		C162.738,242.792,162.652,247.485,162.649,252.183z"/>
	<path fill="#FFFFFF" d="M546.489,360.346c-3.146-0.072-6.141-0.254-8.651-2.463c-0.451-0.398-1.679-0.328-2.326-0.014
		c-3.579,1.729-7.51,2.938-11.243,2.297c-3.495-0.6-7.332-1.924-9.082-5.838c-0.62-1.387-0.459-2.59,0.588-3.758
		c1.101-1.23,2.183-1.896,3.952-1.281c2.099,0.736,4.297,1.191,6.464,1.719c0.323,0.08,0.95,0.016,1.024-0.154
		c0.494-1.158,21.42-55.658,22.125-56.982c1.148-2.16-10.207-8.17-10.588-8.52c0.487-0.216,0.953-0.521,1.464-0.632
		c3.44-0.755,6.856-1.667,10.342-2.181c5.354-0.791,17.492-42.507,21.507-59.542c0.316-1.346-0.27-2.144-1.596-1.968
		c-2.256,0.301-4.11,0.405-6.287,1.05c-2.052,0.608-6.758,1.5-6.183-1.94c0.286-1.725,3.024-3.659,4.372-4.563
		c4.247-2.855,8.566-4.168,13.647-3.338c0.236,0.038,0.482,0.176,0.701,0.138c5.552-0.947,9.681,2.225,13.89,4.949
		c1.94,1.256,3.14,0.96,5.104-0.209c4.312-2.568,8.758-5.528,14.128-4.792c2.759,0.378,5.573,1.364,8.027,2.692
		c2.79,1.507,2.416,6.354-0.394,7.843c-0.43,0.228-1.183-0.122-1.78-0.242c-2.016-0.406-4.013-1.013-6.049-1.189
		c-1.744-0.152-2.418,1.101-2.009,2.83c1.075,4.562,1.979,9.167,3.142,13.708c0.744,2.915,1.791,5.756,2.753,8.615
		c1.725,5.136,3.591,10.227,5.192,15.4c1.084,3.499,1.72,7.133,2.747,10.649c0.598,2.051,1.551,4.002,2.403,5.973
		c0.137,0.317,0.548,0.584,0.894,0.729c3.933,1.655,23.435,8.201,15.177,7.728c-8.259-0.473-12.487,6.223-10.401,11.057
		c0.941,2.183,1.723,4.439,2.456,6.701c1.475,4.541,2.795,9.131,4.308,13.656c2.408,7.197,4.922,14.361,7.396,21.537
		c0.796,2.316,1.61,4.631,2.417,6.943c0.79,2.268,4.839,4.242,7.8,3.947c1.898-0.188,3.821-0.111,5.729-0.221
		c2.292-0.129,3.383,1.32,3.998,3.156c1.25,3.738-1.553,7.367-5.491,7.447c-1.877,0.037-3.754,0.457-5.629,0.619
		c-9.617,0.834-13.419-1.516-16.073-2.881c-0.411-0.209-0.688-0.668-1.055-0.975c-2.829-2.355-3.154-2.146-6.152-0.26
		c-2.021,1.271-4.488,1.859-6.783,2.672c-1.249,0.438-2.549,0.738-3.841,1.031c-5.998,1.373-11.765,0.031-17.429-1.734
		c-2.239-0.699-4.439-1.77-6.388-3.072c-2.248-1.504-1.786-6.168,0.538-7.492c0.264-0.15,0.613-0.301,0.892-0.258
		c2.747,0.43,5.476,1,8.234,1.332c2.35,0.279,4.734,0.35,7.104,0.355c0.315,0,0.968-0.988,0.896-1.43
		c-2.517-15.598-7.529-30.768-11.921-45.915c-0.664-2.29-1.48-4.533-2.227-6.8c-0.5-1.52-1.107-1.482-2.416-0.571
		c-14.822,3.825-13.422,33.989-15.485,33.989c-2.066,0-2.936-29.545-18.768-34.67c-1.375-0.445-1.65,0.46-1.932,1.378
		c-1.213,3.958-17.343,50.387-17.455,50.936c-0.177,0.869-0.601,2.443-0.435,2.508c1.272,0.512,2.664,0.979,4.016,0.971
		c1.482-0.01,2.985-0.854,4.439-0.758c1.43,0.094,2.938,0.715,4.164,1.494c0.62,0.395,0.998,1.672,0.946,2.52
		c-0.142,2.354-3.734,5.721-6.098,5.932C548.347,360.295,547.382,360.303,546.489,360.346z M590.933,289.713
		c0.206-0.013,0.412-0.027,0.619-0.037c2.302-0.118,4.231-0.024,3.407-2.949c-2.546-9.03-5.884-17.805-8.749-26.73
		c-1.441-4.49-2.783-9.013-3.839-13.61c-0.238-1.037-3.264-10.496-3.562-10.132c-0.455,0.552-1.126,1.036-1.321,1.67
		c-0.873,2.819-1.596,5.685-2.398,8.526c-1.936,6.834-3.806,13.692-5.857,20.492c-1.29,4.271-2.945,8.43-4.276,12.69
		c-0.948,3.035-1.604,6.156-2.434,9.229c-0.352,1.304,0.319,1.531,1.38,1.526c5.838-0.039,11.676,0.241,17.51,0.172
		C584.586,290.522,587.759,289.928,590.933,289.713z"/>
</g>
</svg>
