<?xml version="1.0" encoding="utf-8"?>
<!-- Generator: Adobe Illustrator 16.0.0, SVG Export Plug-In . SVG Version: 6.00 Build 0)  -->
<!DOCTYPE svg PUBLIC "-//W3C//DTD SVG 1.1//EN" "http://www.w3.org/Graphics/SVG/1.1/DTD/svg11.dtd">
<svg version="1.1" id="Layer_1" xmlns="http://www.w3.org/2000/svg" xmlns:xlink="http://www.w3.org/1999/xlink" x="0px" y="0px"
	 width="800px" height="600px" viewBox="0 0 800 600" enable-background="new 0 0 800 600" xml:space="preserve">
<g id="j8JDt0_1_">
	<g>
		<path fill="#FFFFFF" d="M300.266,322.208c-4.277,1.3-8.545,2.634-12.835,3.89c-2.996,0.879-5.997,1.786-9.052,2.375
			c-0.8,0.154-2.156-0.595-2.677-1.335c-2.253-3.204-4.469-6.458-6.364-9.879c-2.748-4.964-4.749-10.368-8.835-14.519
			c-0.458-0.465-0.847-1.025-1.16-1.602c-1.791-3.287-1.894-3.29-4.582-0.543c-1.24,1.266-2.822,2.281-3.799,3.711
			c-1.908,2.804-3.531,5.803-5.213,8.756c-3.318,5.818-6.481,11.732-9.947,17.464c-1.497,2.474-4.014,2.757-6.868,2.234
			c-3.584-0.655-7.275-0.692-10.892-1.197c-2.893-0.406-5.776-0.997-8.579-1.796c-0.525-0.151-1.185-1.945-0.888-2.511
			c1.98-3.772,3.907-7.566,7.45-10.31c2.002-1.551,3.525-3.723,5.251-5.627c6.061-6.683,12.1-13.387,18.181-20.051
			c1.985-2.175,1.883-2.692-0.819-3.931c-0.903-0.416-1.676-1.129-2.478-1.746c-4.663-3.58-9.556-6.91-13.903-10.839
			c-3.997-3.613-7.651-7.683-10.977-11.929c-1.982-2.528-3.093-5.756-4.447-8.735c-0.171-0.376,0.419-1.471,0.907-1.698
			c1.17-0.543,2.47-0.942,3.753-1.088c3.102-0.353,6.243-0.401,9.337-0.805c4.321-0.564,8.634-1.243,12.917-2.057
			c3.758-0.716,5.018,0.271,7.303,4.374c2.068,3.712,4.725,7.119,7.316,10.51c1.259,1.646,2.936,2.982,4.484,4.393
			c1.009,0.918,1.754,0.983,2.82-0.347c2.172-2.713,4.575-5.28,7.126-7.641c2.096-1.938,4.446-3.653,6.865-5.181
			c3.34-2.112,6.396-4.409,9.149-7.333c1.153-1.224,4.245-1.092,6.366-0.841c5.672,0.671,11.301,1.72,16.937,2.677
			c0.771,0.131,1.685,0.422,2.165,0.965c0.389,0.438,0.561,1.73,0.25,2.018c-1.966,1.818-4.037,3.537-6.184,5.142
			c-1.877,1.403-4.091,2.394-5.822,3.942c-5.969,5.35-11.791,10.863-17.666,16.317c-0.296,0.275-0.502,0.696-0.841,0.871
			c-3.249,1.697-2.095,5.12-0.022,7.238c5.728,5.856,11.433,11.72,16.146,18.501c2.047,2.948,4.938,5.303,7.402,7.968
			c2.456,2.659,4.909,5.323,7.207,8.116c0.272,0.328-0.239,1.905-0.75,2.149c-1.042,0.507-2.332,0.495-3.52,0.698
			C300.411,322.722,300.337,322.467,300.266,322.208z"/>
		<path fill="#FFFFFF" d="M69.269,328.73c0,2.077,0.002,4.148-0.001,6.224c-0.002,1.546-0.671,2.276-2.333,2.261
			c-6.069-0.058-12.142-0.028-18.213-0.005c-1.816,0.008-2.653-1.111-2.707-2.646c-0.123-3.527-0.027-7.056-0.031-10.583
			c-0.011-7.107-0.117-14.217-0.005-21.327c0.058-3.63,0.507-7.251,0.776-10.877c0.029-0.407,0.053-0.813,0.045-1.217
			c-0.085-3.976-0.274-7.949-0.25-11.921c0.034-5.277,0.226-10.556,0.361-15.833c0.044-1.711,0.13-3.424,0.198-5.136
			c0.067-1.688,1.032-1.96,2.226-1.147c2.212,1.507,4.346,3.141,6.46,4.788c4.819,3.755,9.552,7.627,14.471,11.246
			c0.722,0.531,2.561,0.37,3.392-0.195c7.194-4.883,14.285-9.922,21.389-14.938c4.742-3.348,9.437-6.761,14.202-10.076
			c0.724-0.504,1.715-0.623,2.583-0.918c0.148,0.771,0.34,1.538,0.438,2.315c0.691,5.521,1.533,11.027,2,16.567
			c0.601,7.119,0.956,14.261,1.31,21.398c0.411,8.341,0.685,16.689,1.061,25.035c0.167,3.698,0.51,7.386,0.646,11.083
			c0.097,2.6,0.035,5.209-0.06,7.812c-0.053,1.438-0.793,2.182-2.395,2.359c-5.525,0.623-11.033,1.414-16.546,2.139
			c-1.373,0.183-2.263,0.023-2.45-1.768c-0.664-6.393-1.524-12.765-2.278-19.149c-0.358-3.023-0.687-6.049-0.953-9.08
			c-0.423-4.833-0.81-9.672-1.149-14.511c-0.07-1.004,0.224-2.028,0.182-3.035c-0.025-0.584-0.236-1.439-0.639-1.654
			c-0.445-0.235-1.336-0.071-1.806,0.251c-3.624,2.503-7.326,4.917-10.722,7.705c-1.729,1.42-3.312,1.668-5.135,0.887
			c-1.424-0.611-2.661-1.646-4.072-2.293c-0.938-0.427-2.113-0.828-3.032-0.612c-0.5,0.12-1.018,1.577-0.965,2.392
			c0.345,5.227,0.718,10.46,1.327,15.662c0.647,5.526,1.573,11.017,2.364,16.525c0.108,0.749,0.15,1.508,0.223,2.262
			C69.211,328.723,69.239,328.729,69.269,328.73z"/>
		<path fill="#FFFFFF" d="M634.092,253.085c3.914,0,7.824-0.018,11.74,0.006c2.006,0.013,3.141,0.728,3.152,3.075
			c0.035,8.621,0.059,17.249,0.455,25.859c0.277,6,1.203,11.969,1.754,17.957c0.588,6.408,1.076,12.824,1.619,19.238
			c0.283,3.378,0.617,6.756,0.871,10.135c0.123,1.597-0.494,2.448-2.168,1.562c-5.119-2.711-10.363-5.225-15.287-8.253
			c-6.016-3.698-11.963-7.579-17.549-11.88c-4.752-3.658-9-7.981-13.367-12.116c-0.943-0.896-1.391-2.299-2.172-3.395
			c-0.242-0.336-0.836-0.422-1.268-0.623c-0.168,0.451-0.549,0.947-0.465,1.346c2.223,10.479-0.371,21.335,2.512,31.767
			c0.381,1.371-0.242,2.346-1.783,2.617c-6.09,1.071-12.188,1.171-18.297,0.261c-1.947-0.287-2.344-1.382-2.166-3.379
			c0.434-4.898,0.496-9.834,0.66-14.757c0.148-4.468-0.061-8.966,0.418-13.391c0.881-8.171-0.244-16.278-0.262-24.415
			c-0.012-5.064,0.084-10.142,0.432-15.193c0.264-3.838,2.586-4.669,5.846-2.557c8.266,5.36,15.191,12.293,22.346,18.945
			c4.191,3.893,8.215,7.957,12.332,11.926c0.43,0.416,0.953,0.812,1.506,1.006c0.975,0.344,2.01,0.525,3.018,0.772
			c-0.035-1.066,0.178-2.213-0.143-3.185c-2.309-6.926-4.105-13.906-3.824-21.32c0.107-2.756-0.307-5.547-0.631-8.306
			c-0.221-1.904,0.07-2.979,2.371-2.974c2.779,0.005,5.562-0.354,8.346-0.555C634.088,253.201,634.088,253.142,634.092,253.085z"/>
		<path fill="#FFFFFF" d="M398.627,293.341c0.438,3.851,0.336,6.675,1.141,9.214c1.338,4.208,2.683,8.635,6.23,11.598
			c1.932,1.611,4.435,2.537,6.676,3.783c5.557,3.09,10.965,0.929,16.113-0.93c5.781-2.091,11.227-5.053,15.862-9.281
			c0.792-0.722,1.88-1.149,2.888-1.584c0.221-0.095,0.798,0.294,1.02,0.595c2.726,3.741,5.376,7.537,8.133,11.255
			c1.045,1.415,0.821,2.944-0.686,3.978c-0.994,0.684-1.76,1.721-2.789,2.323c-4.688,2.737-9.355,5.524-14.189,7.978
			c-1.564,0.793-3.627,0.59-5.447,0.902c-2.366,0.411-4.706,0.969-7.084,1.297c-3.477,0.481-6.967,0.86-10.459,1.191
			c-1.307,0.126-2.652,0.131-3.947-0.047c-4.307-0.596-8.633-1.139-12.885-2.028c-2.788-0.585-5.771-1.239-8.119-2.727
			c-5.479-3.469-11.556-6.555-13.417-13.655c-0.054-0.194-0.077-0.44-0.208-0.568c-3.01-2.926-2.511-6.954-3.076-10.547
			c-0.497-3.158-0.319-6.474-0.063-9.688c0.271-3.402,0.741-6.833,1.558-10.143c1.588-6.432,4.945-11.879,9.831-16.41
			c2.891-2.682,5.271-6.042,8.48-8.217c4.477-3.036,9.387-5.535,14.34-7.745c7.855-3.503,16.209-3.063,24.463-1.881
			c3.852,0.553,7.627,1.782,11.363,2.948c1.495,0.469,2.888,1.458,4.154,2.435c3.543,2.729,7.059,5.508,10.416,8.46
			c0.445,0.391,0.275,2.17-0.232,2.838c-1.922,2.533-4.09,4.883-6.19,7.282c-0.399,0.455-0.966,0.767-1.345,1.232
			c-1.576,1.927-3.195,1.858-5.469,0.915c-4.867-2.018-9.943-3.504-14.887-5.338c-3.916-1.452-7.824-2.077-12.047-1.608
			c-4.047,0.448-7.506,2.022-10.987,3.926c-3.551,1.942-5.144,5.073-6.221,8.691C400.508,287.284,399.416,290.769,398.627,293.341z"
			/>
		<path fill="#FFFFFF" d="M133.241,326.508c0.359-5.506,0.892-11.005,1.026-16.517c0.136-5.605-0.179-11.224-0.191-16.835
			c-0.011-4.949,0.403-9.914,0.116-14.843c-0.28-4.792-1.24-9.543-1.852-14.319c-0.391-3.065-0.838-6.136-0.921-9.215
			c-0.019-0.66,1.364-1.858,2.203-1.957c5.668-0.672,11.353-1.315,17.05-1.577c6.054-0.278,12.128-0.105,18.192-0.165
			c3.953-0.038,7.908-0.075,11.856-0.225c3.953-0.151,4.146-0.266,5.145,3.469c0.658,2.461,0.853,5.095,0.889,7.658
			c0.032,2.392-1.558,3.681-4.536,3.699c-3.528,0.021-7.058-0.386-10.587-0.414c-4.052-0.031-8.12-0.003-12.148,0.365
			c-0.797,0.074-1.957,1.748-2.074,2.781c-0.51,4.542-0.728,9.116-0.948,13.683c-0.016,0.325,0.819,1.002,1.233,0.981
			c3.932-0.197,7.858-0.512,11.787-0.792c1.668-0.119,3.267,0.43,3.178,2.215c-0.177,3.511-0.654,7.034-1.37,10.475
			c-0.167,0.8-1.75,1.759-2.752,1.849c-3.373,0.305-6.789,0.139-10.167,0.418c-0.779,0.064-1.957,1.078-2.12,1.833
			c-0.559,2.604-0.845,5.279-1.048,7.941c-0.103,1.357,0.608,2.044,2.202,1.956c3.116-0.175,6.256,0.049,9.368-0.165
			c3.454-0.237,6.879-0.866,10.332-1.15c3.977-0.326,7.971-0.553,11.959-0.587c0.656-0.005,1.864,1.176,1.889,1.841
			c0.105,2.815-0.151,5.646-0.255,8.468c-0.083,2.214-0.029,4.438-0.235,6.637c-0.171,1.838-0.447,3.709-1.045,5.438
			c-0.271,0.785-1.351,1.614-2.204,1.809c-2.258,0.514-4.588,0.749-6.899,0.993c-4.319,0.456-8.643,0.881-12.972,1.226
			c-1.439,0.114-2.902-0.109-4.35-0.07c-5.746,0.14-11.489,0.401-17.234,0.469c-3.18,0.037-6.363-0.278-9.545-0.315
			c-1.652-0.021-2.602-0.508-2.594-2.327c0.006-1.57-0.129-3.143-0.201-4.714C133.359,326.519,133.299,326.514,133.241,326.508z"/>
		<path fill="#FFFFFF" d="M558.672,331.341c-5.969,0-11.936-0.005-17.906,0.009c-0.396,0.003-0.799,0.143-1.191,0.24
			c-3.057,0.776-4.068,0.039-4.812-3.012c-0.635-2.602-1.445-5.183-2.459-7.66c-0.303-0.742-1.562-1.598-2.359-1.569
			c-6.643,0.24-13.273,0.715-19.916,1.017c-2.107,0.095-2.871,1.174-2.906,3.086c-0.039,2.03-0.057,4.062-0.143,6.088
			c-0.096,2.206-1.648,3.897-3.846,3.947c-5.215,0.125-10.438,0.112-15.656,0.164c-2.576,0.023-5.154,0.081-7.73,0.115
			c-1.939,0.025-2.57-0.863-2.562-2.85c0.014-2.982,1.679-5.051,3.076-7.416c3.201-5.428,6.25-10.956,9.061-16.596
			c2.549-5.109,4.525-10.507,7.066-15.622c3.234-6.505,6.627-12.941,10.252-19.232c2.57-4.46,5.508-8.731,8.547-12.892
			c1.473-2.011,3.486-3.666,5.436-5.259c0.418-0.343,1.941-0.02,2.4,0.494c1.811,2.021,3.727,4.061,5.006,6.419
			c3.734,6.886,7.295,13.876,10.693,20.938c1.572,3.258,2.531,6.807,3.896,10.171c1.881,4.626,3.432,9.478,5.971,13.721
			c2.652,4.436,6.35,8.236,9.506,12.377c1.857,2.433,3.717,4.889,5.258,7.519c1.629,2.77-0.053,5.215-3.303,5.157
			c-0.455-0.011-0.916-0.002-1.371-0.002C558.676,330.909,558.674,331.122,558.672,331.341z M520.762,302.192
			c0-0.011,0-0.021,0-0.03c0.811,0,1.627,0.011,2.438,0c0.863-0.013,1.732,0.014,2.588-0.07c2.018-0.201,2.691-1.669,1.482-3.25
			c-1.441-1.891-2.77-3.916-4.492-5.509c-0.588-0.545-2.758-0.42-3.27,0.185c-1.65,1.957-2.977,4.217-4.199,6.482
			c-0.672,1.246-0.529,2.424,1.494,2.219C518.111,302.083,519.441,302.192,520.762,302.192z"/>
		<path fill="#FFFFFF" d="M751.463,297.156c-0.438,6.773-2.207,12.945-5.553,18.661c-2.951,5.04-6.725,9.419-11.668,12.534
			c-2.258,1.422-4.969,2.196-7.557,2.996c-2.525,0.775-5.139,1.571-7.742,1.706c-3.795,0.195-7.617-0.14-11.422-0.361
			c-1.969-0.114-3.961-0.304-5.873-0.747c-2.74-0.636-5.484-1.367-8.105-2.374c-2.684-1.028-5.521-2.041-7.77-3.75
			c-5.68-4.322-11.27-8.611-13.473-16.188c-1.439-4.953-2.363-9.868-2.242-14.887c0.104-4.161,1.076-8.322,1.885-12.439
			c0.678-3.455,1.631-6.859,2.559-10.261c0.365-1.354,0.887-2.69,1.502-3.955c2.754-5.664,6.469-10.603,11.395-14.573
			c2.738-2.207,5.908-1.652,9.025-1.24c4.908,0.65,9.885,1.001,14.699,2.073c5.314,1.183,10.887,1.879,15.41,5.438
			c3.986,3.14,8.385,5.862,11.949,9.422c5.154,5.151,9.854,10.767,10.85,18.529C749.738,290.916,750.734,294.019,751.463,297.156z
			 M737.061,297.498c-0.258-1.385-0.293-2.864-0.812-4.145c-1.318-3.248-2.531-6.614-4.4-9.542
			c-1.529-2.396-3.578-5.072-6.039-6.138c-5.672-2.46-11.715-4.082-17.652-5.901c-1.926-0.591-3.98-0.81-5.994-1.06
			c-0.924-0.115-2.141-0.241-2.797,0.233c-2.977,2.16-5.879,4.439-8.637,6.871c-1.092,0.964-2.002,2.333-2.533,3.699
			c-1.955,5.016-1.902,10.242-0.871,15.419c1.439,7.24,4.336,13.523,11.537,16.993c3.84,1.854,7.715,3.244,11.975,3.8
			c2.574,0.339,4.965-0.077,7.465-0.256c4.686-0.336,8.814-2.229,11.752-5.134C733.949,308.487,736.822,303.492,737.061,297.498z"/>
		<path fill="#FFFFFF" d="M324.647,313.859c0-4.847,0.075-9.696-0.018-14.54c-0.113-5.807-0.323-11.613-0.586-17.415
			c-0.082-1.812-0.592-3.604-0.688-5.417c-0.111-2.061-0.038-4.138,0.06-6.202c0.214-4.596,0.603-9.188,0.7-13.787
			c0.051-2.403,1.608-3.611,3.358-3.934c5.312-0.981,10.681-1.732,16.059-2.229c3.725-0.342,4.529,0.833,4.273,4.501
			c-0.515,7.365-1.175,14.731-1.305,22.105c-0.11,6.418,0.278,12.858,0.714,19.269c0.561,8.255,1.416,16.488,2.068,24.737
			c0.099,1.241-0.029,2.571-0.402,3.749c-0.217,0.688-1.04,1.502-1.737,1.677c-3.56,0.887-7.339,1.152-10.711,2.476
			c-3.401,1.335-5.874-0.094-8.463-1.499c-2.716-1.475-3.695-4.164-3.22-7.276c0.312-2.05,0.426-4.128,0.629-6.19
			C325.135,313.872,324.89,313.864,324.647,313.859z"/>
	</g>
</g>
</svg>
