<?xml version="1.0" encoding="utf-8"?>
<!-- Generator: Adobe Illustrator 16.0.0, SVG Export Plug-In . SVG Version: 6.00 Build 0)  -->
<!DOCTYPE svg PUBLIC "-//W3C//DTD SVG 1.1//EN" "http://www.w3.org/Graphics/SVG/1.1/DTD/svg11.dtd">
<svg version="1.1" id="Layer_1" xmlns="http://www.w3.org/2000/svg" xmlns:xlink="http://www.w3.org/1999/xlink" x="0px" y="0px"
	 width="800px" height="600px" viewBox="0 0 800 600" enable-background="new 0 0 800 600" xml:space="preserve">
<g id="qg8DX1_1_">
	<g>
		<path fill="#FFFFFF" d="M472.006,287.186c-1.077,0.585-2.168,1.039-3.021,1.668c-2.582,1.903-5.143,3.831-7.555,5.854
			c-0.584,0.494-0.784,1.389-0.777,2.097c0.032,4.024,0.182,8.047,0.287,12.073c0.07,2.713,2.297,4.519,6.137,4.772
			c2.65,0.177,5.328,0.119,7.986,0.233c2.834,0.125,3.012,0.578,2.856,2.666c-0.198,2.676,0.128,5.373,0.14,8.061
			c0.016,3.332-0.583,3.527-5.137,3.354c-5.051-0.195-10.135,0.117-15.184-0.07c-5.277-0.195-10.428-0.969-13.708-4.518
			c-1.04-1.125-1.647-2.477-2.409-3.736c-0.305-0.51-0.314-1.164-0.768-1.562c-0.512-0.455-1.336-0.9-2.078-0.957
			c-0.463-0.031-1.184,0.605-1.498,1.055c-0.465,0.656-0.701,1.406-0.989,2.127c-1.831,4.594-6.312,6.949-12.411,7.545
			c-3.621,0.352-7.346,0.102-11.027,0.145c-2.094,0.025-2.986-0.768-2.998-2.252c-0.023-3.1-0.066-6.199-0.104-9.299
			c-0.02-1.559,0.945-2.347,3.093-2.647c2.995-0.423,4.302-1.491,4.409-3.561c0.248-4.765,0.275-9.536,0.525-14.3
			c0.08-1.532-0.516-2.296-2.698-2.301c-5.579-0.017-11.159-0.161-16.735-0.11c-3.148,0.028-3.69,0.479-3.731,2.628
			c-0.068,3.748-0.068,7.497,0.003,11.246c0.023,1.021,0.411,2.037,0.616,3.059c0.385,1.904,1.777,3.119,4.422,3.303
			c2.282,0.16,2.914,1.004,2.816,2.635c-0.156,2.771-0.043,5.553,0.033,8.328c0.074,2.74-0.347,3.209-3.94,3.133
			c-4.4-0.092-8.813-0.238-13.181-0.617c-5.299-0.459-7.958-3.307-9.908-6.625c-0.152-0.254-0.139-0.572-0.328-0.807
			c-0.714-0.898-1.34-2.418-2.252-2.525c-2.057-0.242-1.955,1.408-2.221,2.434c-1.051,4.064-4.711,6.348-9.646,7.625
			c-1.873,0.482-3.992,0.578-6.003,0.605c-5.709,0.078-11.422,0.055-17.132,0.027c-2.957-0.016-3.52-0.445-3.568-2.674
			c-0.067-2.908-0.085-5.818-0.056-8.73c0.025-2.229,0.492-2.575,3.525-2.753c2.151-0.123,4.313-0.149,6.461-0.281
			c4.72-0.294,6.842-1.897,7.07-5.378c0.166-2.526-0.028-5.076,0.38-7.578c0.865-5.313-3.089-8.633-8.183-11.576
			c-1.138-0.657-2.231-1.355-2.947-1.792c2.929-2.377,5.718-4.418,8.118-6.685c1.179-1.114,2.171-2.614,2.314-3.994
			c0.351-3.352,0.361-6.744,0.117-10.104c-0.196-2.706-1.499-3.584-5.236-3.907c-3.499-0.301-7.035-0.357-11.002-0.542
			c-0.126-2.759-0.251-5.435-0.374-8.112c-0.027-0.56,0.024-1.128-0.077-1.682c-0.54-2.959-0.024-3.673,3.866-3.771
			c6.708-0.17,13.45-0.351,20.135-0.028c6.907,0.333,11.044,3.497,12.516,8.727c0.279,0.994,0.643,2.037,2.23,1.797
			c0.763-0.115,1.753-1.054,1.851-1.688c0.924-5.954,5.787-8.216,12.983-8.862c3.5-0.315,7.093-0.153,10.641-0.09
			c2.363,0.044,3.646,0.846,3.51,2.85c-0.204,2.9-0.074,5.814-0.018,8.723c0.029,1.446-0.676,2.187-2.74,2.48
			c-3.543,0.503-4.451,1.221-4.625,3.979c-0.236,3.837-0.084,7.685-0.146,11.527c-0.023,1.294,0.871,2.005,2.484,2.007
			c6.075,0.006,12.154-0.044,18.229-0.143c1.543-0.025,2.132-0.87,2.112-1.953c-0.08-3.927-0.132-7.854-0.245-11.781
			c-0.062-2.18-1.521-3.556-4.518-3.828c-2.076-0.189-2.767-1.076-2.767-2.499c0.003-2.818-0.146-5.638-0.062-8.454
			c0.072-2.468,1.167-3.146,4.516-3.011c3.645,0.148,7.321,0.165,10.919,0.564c5.856,0.651,10.249,3.955,11.466,8.28
			c0.264,0.94,0.359,1.998,2.141,1.876c1.538-0.103,2.418-0.747,2.757-1.961c1.535-5.483,4.673-7.975,12.131-8.407
			c7.164-0.416,14.409-0.101,21.616-0.101c1.761,0,2.539,0.771,2.529,1.969c-0.02,3.273-0.105,6.547-0.182,9.819
			c-0.037,1.66-1.577,1.972-3.378,1.992c-2.53,0.028-5.09-0.137-7.596,0.072c-4.488,0.373-5.315,1.071-5.618,4.42
			c-0.268,2.984-0.236,5.986-0.602,8.962c-0.191,1.551,0.342,2.706,1.756,3.804C465.45,281.877,468.486,284.365,472.006,287.186z
			 M345.424,286.208c2.034,1.359,3.395,2.186,4.626,3.109c2.609,1.951,5.151,4.077,5.246,6.939
			c0.147,4.406-0.085,8.824-0.346,13.231c-0.242,4.079-3.128,6.421-8.535,7.065c-1.868,0.223-3.825,0.061-5.67,0.334
			c-0.888,0.133-1.61,0.877-2.41,1.344c0.798,0.459,1.603,1.316,2.388,1.307c2.895-0.031,5.814-0.219,8.667-0.596
			c3.594-0.473,6.405-1.924,7.518-4.604c0.92-2.217,1.877-4.496,2.094-6.783c0.333-3.543-0.14-7.126,0.106-10.68
			c0.132-1.902-0.278-3.531-1.813-5.012c-1.233-1.189-2.445-2.398-3.789-3.516c-2.582-2.149-2.4-1.998-0.041-4.222
			c2.226-2.099,4.989-4.357,5.606-6.808c0.933-3.709,0.332-7.651,0.11-11.486c-0.059-1.014-0.995-2.058-1.79-2.961
			c-0.264-0.302-1.479-0.42-2.013-0.235c-0.495,0.171-0.952,0.871-0.925,1.322c0.196,3.362,0.419,6.725,0.827,10.076
			c0.403,3.322-0.894,6.117-4.171,8.393C349.384,283.622,347.594,284.767,345.424,286.208z M425.074,274.579
			c0.008,0,0.017,0,0.024,0c0-2.722,0.097-5.447-0.048-8.162c-0.059-1.087-0.427-2.242-1.092-3.202
			c-0.321-0.466-1.771-0.857-2.486-0.708c-0.547,0.115-0.844,1.119-1.062,1.763c-0.107,0.321,0.305,0.719,0.312,1.084
			c0.168,5.143,0.346,10.284,0.428,15.429c0.02,1.338-1.15,2.037-2.919,2.109c-1.388,0.058-2.786,0.046-4.176,0.053
			c-4.434,0.024-8.872-0.029-13.299,0.122c-0.836,0.029-1.625,0.859-2.437,1.319c0.774,0.472,1.532,1.344,2.314,1.356
			c7.097,0.097,14.193,0.046,21.292,0.031c2.201-0.006,3.188-0.847,3.162-2.474C425.041,280.393,425.074,277.486,425.074,274.579z
			 M372.587,281.02c-5.573-0.034-8.003,1.462-8.173,4.904c-0.145,2.937,2.152,5.936,7.585,5.799c5.885-0.149,8.89-2.013,8.904-5.885
			C380.913,282.587,378.268,281.054,372.587,281.02z M438.178,280.93c-0.422,0.06-1.689,0.159-2.888,0.426
			c-3.331,0.744-4.504,1.983-4.438,4.53c0.089,3.382,1.449,5.156,4.762,5.648c1.554,0.232,3.268,0.062,4.874-0.104
			c4.729-0.49,6.456-2.44,5.899-6.505C446.035,282.35,443.164,280.784,438.178,280.93z M372.324,264.271
			c-2.071,3.116-4.005,5.718-5.543,8.443c-1.067,1.895-0.038,3.646,2.121,4.644c2.494,1.152,6.535,0.887,8.497-0.559
			c1.868-1.375,2.038-3.217,0.651-5.145c-1.365-1.893-2.565-3.85-3.9-5.755C373.83,265.445,373.258,265.089,372.324,264.271z
			 M438.791,309.036c2.305-3.24,4.38-5.876,6.022-8.65c0.503-0.85,0.224-2.257-0.419-3.112c-1.732-2.309-6.123-2.791-9.271-1.281
			c-1.568,0.752-3.238,1.758-2.518,3.113C434.346,302.383,436.565,305.523,438.791,309.036z M438.971,263.889
			c-2.27,3.371-4.135,6.103-5.936,8.86c-0.26,0.397-0.379,0.936-0.26,1.362c0.488,1.739,1.658,3.164,4.045,3.766
			c2.582,0.651,5.395,0.077,6.895-1.342c1.617-1.532,2.068-3.164,0.69-4.952c-1.064-1.38-2.056-2.793-3.051-4.2
			C440.629,266.36,439.945,265.319,438.971,263.889z M372.333,308.51c2.115-2.629,4.174-4.978,5.929-7.441
			c1.423-1.997,0.775-3.505-1.628-4.953c-2.148-1.296-5.438-1.388-7.826-0.219c-2.203,1.078-3.218,3.096-2.034,4.954
			C368.366,303.35,370.297,305.73,372.333,308.51z M425.559,302.935c-0.193-0.013-0.391-0.028-0.586-0.044
			c0-1.967,0.1-3.941-0.033-5.906c-0.083-1.194,1.545-3.213-1.661-3.254c-2.981-0.038-1.997,1.995-2.032,3.238
			c-0.118,3.932,0.117,7.873-0.111,11.801c-0.189,3.235-0.883,6.391-5.715,7.947c-0.646,0.207-0.711,1.396-1.047,2.133
			c1.009,0.061,2.189,0.406,2.995,0.135c3.243-1.1,5.837-2.904,6.501-5.525C424.74,309.992,425.021,306.447,425.559,302.935z"/>
		<path fill="#FFFFFF" d="M115.625,327.139c0-3.732,0.006-6.902-0.001-10.072c-0.007-3.107,0.352-3.404,4.413-3.604
			c0.252-0.012,0.508,0.008,0.762-0.006c5.77-0.326,7.538-2.832,4.493-6.507c-3.103-3.743-6.241-7.476-9.552-11.12
			c-0.657-0.721-2.136-1.384-3.293-1.441c-3.28-0.16-6.598-0.082-9.885,0.07c-3.27,0.15-3.756,0.781-3.642,3.145
			c0.16,3.283,0.158,6.57,0.12,9.857c-0.037,3.027,1.818,5.117,5.723,5.844c2.863,0.533,3.517,1.661,3.351,3.641
			c-0.237,2.809-0.138,5.633-0.188,8.451c-0.021,1.146-0.467,2.178-2.302,2.092c-5.267-0.242-10.554,0.85-15.83-0.615
			c-5.208-1.445-9.121-3.572-10.467-7.746c-0.175-0.543-0.158-1.236-0.613-1.588c-0.514-0.395-1.66-0.803-2.176-0.631
			c-0.762,0.258-1.736,1.039-1.708,1.57c0.179,3.107-2.145,5.115-5.137,6.834c-2.922,1.676-6.362,2.199-10.006,2.201
			c-5.32,0.004-10.639,0.08-15.958,0.084c-4.127,0.006-4.483-0.287-4.522-3.346c-0.032-2.619-0.195-5.244-0.07-7.861
			c0.113-2.355,0.681-2.7,3.854-2.838c1.77-0.076,3.557,0.039,5.325-0.049c5.513-0.271,7.412-1.701,7.65-5.73
			c0.227-3.832,0.922-7.708,0.388-11.484c-0.283-2.01-2.51-3.975-4.278-5.727c-1.244-1.233-3.155-2.113-4.843-3.078
			c-2.021-1.156-2.105-1.859-0.132-3.089c0.675-0.422,1.489-0.723,2.174-1.139c4.211-2.556,7.919-5.313,7.527-9.826
			c-0.221-2.521-0.05-5.074-0.489-7.571c-0.47-2.67-1.932-3.634-5.45-3.9c-2.363-0.18-4.771-0.084-7.157-0.037
			c-3.151,0.064-4.226-0.568-4.309-2.85c-0.111-3.004-0.073-6.011-0.176-9.017c-0.059-1.707,1.119-2.404,3.254-2.38
			c6.45,0.072,12.904,0.059,19.344,0.286c6.712,0.234,11.986,3.422,13.98,8.137c0.19,0.449,0.19,0.979,0.53,1.342
			c0.449,0.478,1.322,1.239,1.704,1.15c0.815-0.191,1.8-0.754,2.068-1.328c3.324-7.145,8.005-9.664,18.152-9.554
			c2.402,0.027,4.811,0.139,7.198,0.333c1.352,0.11,2.222,0.588,2.133,1.872c-0.224,3.259-0.286,6.526-0.258,9.789
			c0.011,1.206-0.346,2.171-2.047,2.27c-4.539,0.266-5.642,2.701-5.814,5.312c-0.287,4.372-0.078,8.761-0.078,13.359
			c3.9,0,7.348,0.494,10.335-0.16c2.258-0.497,4.104-2.346,5.822-3.796c3.739-3.157,7.215-6.482,10.917-9.666
			c3.004-2.584,2.452-4.068-2.011-4.874c-0.613-0.11-1.223-0.266-1.848-0.312c-4.864-0.36-4.874-0.4-4.689-3.82
			c0.125-2.333,0.117-4.674,0.102-7.011c-0.016-2.267,0.573-2.821,3.611-3.038c5.212-0.369,10.338-0.43,15.237,1.398
			c4.27,1.594,6.878,4.02,7.811,7.452c0.304,1.115,0.265,2.388,2.062,2.088c1.84-2.525,3.267-4.895,5.193-7.013
			c1.993-2.191,5.155-3.503,8.643-3.721c4.912-0.307,9.875-0.17,14.814-0.213c2.351-0.021,3.442,0.758,3.334,2.588
			c-0.178,2.994-0.239,5.996-0.19,8.991c0.03,1.826-1.033,2.533-3.433,2.504c-1.891-0.024-3.914-0.125-5.648,0.309
			c-1.847,0.465-3.721,1.309-5.066,2.354c-4.184,3.249-8.101,6.688-12.169,10.019c-1.699,1.388-3.479,2.729-5.306,4.027
			c-2.558,1.815-2.752,2.449-0.664,4.513c3.336,3.3,6.807,6.528,10.153,9.821c5.255,5.172,10.411,10.402,15.701,15.557
			c3.144,3.063,7.225,4.881,12.62,4.979c3.298,0.061,3.87,0.711,3.797,3.143c-0.076,2.51-0.092,5.021-0.097,7.531
			c-0.004,2.58-1.042,3.363-4.47,3.359c-5.192-0.008-10.386,0.057-15.575,0.004c-7.786-0.086-14.2-3.078-16.093-8.807
			c-0.276-0.84-1.429-1.521-2.176-2.275c-0.807,0.734-2.232,1.43-2.322,2.211c-0.504,4.402-8.209,8.473-13.46,8.631
			c-5.45,0.164-10.908,0.195-16.363,0.203C117.021,327.633,116.087,327.242,115.625,327.139z M60.058,302.13
			c-0.046,0-0.092-0.001-0.139-0.001c0,2.161,0.128,4.326-0.025,6.479c-0.351,4.976-3.951,7.503-10.647,7.644
			c-1.648,0.033-3.365-0.055-4.913,0.266c-0.826,0.176-1.361,1.109-2.028,1.699c0.839,0.43,1.688,1.234,2.516,1.225
			c2.653-0.033,5.299-0.361,7.946-0.584c5.501-0.463,10.125-4.273,10.429-8.453c0.286-3.932,0.152-7.889,0.603-11.811
			c0.485-4.229-1.294-7.6-5.384-10.543c-2.729-1.965-2.385-2.03,0.145-4.3c2.133-1.913,5.098-3.539,5.281-6.333
			c0.247-3.75,0.466-7.506,0.493-11.259c0.007-1.075-0.489-2.23-1.154-3.199c-0.367-0.533-1.562-0.753-2.386-1.114
			c-0.358,0.627-1.051,1.267-1.016,1.884c0.142,2.518,0.509,5.033,0.786,7.548c0.505,4.6-0.522,8.593-5.845,11.821
			c-3.938,2.39-4.252,2.701-0.324,5.476c0.458,0.324,0.848,0.7,1.288,1.039c3.112,2.396,5.25,5.026,4.425,8.579
			C59.81,299.47,60.058,300.815,60.058,302.13z M69.608,285.207c-0.032,4.204,2.299,6.145,7.421,6.185
			c5.346,0.04,8.921-2.263,8.905-5.74c-0.012-2.777-3.398-5.079-7.774-4.929C72.051,280.931,69.778,281.352,69.608,285.207z
			 M108.38,283.97c-1.033,0-1.903-0.175-2.533,0.041c-1.022,0.347-2.55,0.867-2.683,1.46c-0.313,1.387,1.375,1.58,2.838,1.553
			c1.633-0.028,3.298-0.365,4.887-0.211c2.309,0.222,3.804-0.359,5.23-1.662c4.065-3.72,8.293-7.341,12.443-11.011
			c2.349-2.078,4.91-4.057,6.898-6.31c0.994-1.127,1.156-2.768,1.189-4.183c0.01-0.463-1.571-0.947-2.424-1.421
			c-0.519,0.541-1.171,1.035-1.529,1.628c-0.907,1.501-1.267,3.287-2.583,4.533c-4.681,4.428-9.697,8.661-14.527,13.005
			C113.619,283.158,111.468,284.487,108.38,283.97z M120.663,294.156c-0.191,0.216-0.382,0.432-0.572,0.648
			c0.705,0.957,1.385,1.926,2.117,2.873c2.575,3.321,5.378,6.559,7.704,9.977c2.891,4.242,0.115,7.887-6.163,8.547
			c-0.873,0.088-1.9,0.098-2.546,0.453c-0.68,0.373-1.281,1.102-1.333,1.703c-0.027,0.307,1.216,0.967,1.896,0.973
			c10.135,0.107,15.977-5.41,12.652-11.314c-2.545-4.522-6.439-8.643-9.986-12.823C123.865,294.523,121.953,294.484,120.663,294.156
			z M77.939,263.778c-2.27,3.168-4.166,5.674-5.877,8.248c-1.098,1.651-0.902,3.256,1.057,4.601
			c1.829,1.254,5.228,1.776,7.412,0.988c2.219-0.802,3.832-2.2,3.368-4.005C83.008,270.143,80.326,267.221,77.939,263.778z
			 M76.948,308.34c0.418-0.277,0.792-0.418,0.95-0.644c1.741-2.464,3.514-4.917,5.117-7.433c0.453-0.711,0.907-1.925,0.436-2.355
			c-1.272-1.162-2.848-2.443-4.66-2.9c-2.309-0.581-4.815,0.037-6.328,1.686c-1.271,1.383-1.575,2.947-0.516,4.506
			C73.522,303.512,75.165,305.8,76.948,308.34z"/>
		<path fill="#FFFFFF" d="M610.166,286.867c2.299-1.654,4.291-3.044,6.219-4.483c3.377-2.523,5.137-5.583,6.613-8.988
			c1.676-3.863,4.383-7.579,7.383-11.004c3.752-4.285,9.166-7.554,15.02-10.178c5.846-2.624,12.361-4.179,19.098-5.286
			c10.295-1.691,20.59-1.583,30.947-0.645c16.992,1.538,31.328,6.85,41.891,16.929c3.762,3.592,6.506,7.741,8.064,12.317
			c1.363,4.016,5.137,7.065,9.541,9.556c3.428,1.939,3.406,2.351,0.152,4.243c-4.652,2.706-8.375,5.857-8.648,10.645
			c-0.094,1.621-1.09,3.254-1.934,4.804c-6.309,11.586-17.568,19.311-33.535,23.254c-18.115,4.471-36.33,4.064-54.201-0.396
			c-15.178-3.789-26.516-11.117-32.617-22.369c-0.939-1.734-1.922-3.529-2.252-5.358
			C620.898,294.298,616.961,290.185,610.166,286.867z M688.715,286.962c3.229-2.423,6.113-4.502,8.854-6.679
			c1.598-1.269,2.541-2.662,1.539-4.585c-0.805-1.551-0.902-3.299-1.418-4.942c-2.354-7.508-8.936-9.691-17.555-8.962
			c-2.678,0.227-4.938,1.168-6.799,2.786c-4.156,3.608-4.646,7.993-5.219,12.383c-0.057,0.428,0.248,0.924,0.541,1.328
			c1.879,2.581,3.986,5.021,7.551,6.546c0.764,0.328,1.484,0.725,2.17,1.139c1.33,0.803,1.279,1.705-0.248,2.196
			c-4.037,1.299-6.402,3.871-9.098,6.217c-1.459,1.269-1.652,2.647-1.217,4.21c0.539,1.92,1.061,3.85,1.373,5.796
			c1.289,7.995,8.982,12.136,19.555,10.295c4.529-0.79,7.613-3.104,8.65-6.398c1.119-3.549,1.596-7.21,2.217-10.835
			c0.137-0.778,0.043-1.801-0.543-2.383c-1.703-1.701-3.65-3.279-5.619-4.823C692,289.109,690.365,288.097,688.715,286.962z
			 M620.908,286.657c1.176-0.663,2.178-1.005,2.742-1.583c1.918-1.963,4.041-3.884,5.422-6.054c1.658-2.607,2.385-5.535,3.967-8.176
			c3.143-5.26,8.043-9.592,14.559-12.687c9.637-4.577,20.455-6.397,31.811-6.643c0.633-0.013,1.346,0.105,1.875-0.075
			c0.605-0.202,1.516-0.716,1.465-1.009c-0.096-0.531-0.676-1.196-1.309-1.443c-0.721-0.281-1.742-0.275-2.602-0.201
			c-3.631,0.312-7.25,0.696-10.873,1.049c-14.67,1.434-26.482,6.416-35.318,15.295c-3.787,3.806-4.805,8.405-7.322,12.563
			c-1.213,2.004-2.955,3.883-4.807,5.611c-1.217,1.134-3.064,1.896-4.934,3.004c1.516,1.06,2.35,1.593,3.104,2.18
			c2.988,2.308,5.455,4.67,6.266,8.09c1.535,6.469,5.623,12.187,11.266,17.269c1.461,1.31,3.184,1.712,5.998,0.725
			c-1.721-1.777-3.236-3.437-4.883-5.021c-4.146-3.991-7.23-8.355-8.438-13.344c-0.541-2.244-1.23-4.428-3.238-6.198
			C624.455,288.952,622.953,288.083,620.908,286.657z M694.998,286.857c2.332,1.937,4.434,3.684,6.535,5.43
			c1.957,1.632,2.926,3.564,2.582,5.708c-0.443,2.784-0.912,5.595-1.838,8.306c-2.105,6.163-5.822,11.299-15.744,11.828
			c-0.123,0.008-0.283,0.02-0.363,0.072c-0.604,0.42-1.188,0.854-1.775,1.283c0.705,0.439,1.342,0.977,2.141,1.285
			c0.498,0.193,1.254,0.104,1.873,0.033c6.631-0.762,11.793-3.33,14.281-7.872c2.021-3.69,2.787-7.754,4.195-11.637
			c1.742-4.812,0.238-8.824-4.836-12.198c-2.688-1.784-2.463-2.287-0.041-4.4c3.467-3.028,6.098-6.249,4.217-10.509
			c-0.625-1.414-0.527-3.023-1.285-4.381c-1.289-2.311-2.777-4.597-4.619-6.685c-0.885-1.004-2.475-2.166-4.945-1.294
			c0.367,0.543,0.537,1.012,0.926,1.334c3.807,3.115,5.393,6.967,6.621,10.923c0.859,2.778,0.506,5.42-2.129,7.697
			C698.916,283.404,697.064,285.043,694.998,286.857z M655.941,287.103c0.146-3.896-2.17-5.501-8.035-5.562
			c-4.867-0.049-8.166,2.023-8.207,5.155c-0.041,3.475,3.199,5.519,8.879,5.604C653.32,292.369,655.811,290.613,655.941,287.103z
			 M720.746,281.765c0.617,0,0.367-0.005,0.111,0c-5.744,0.148-7.598,1.754-7.238,6.276c0.223,2.797,3.688,4.57,8.234,4.217
			c0.879-0.069,1.756-0.156,2.633-0.212c2.438-0.153,3.85-1.175,4.609-2.843C731.154,284.701,728.08,281.619,720.746,281.765z
			 M653.973,264.853c-0.322-0.135-0.643-0.27-0.965-0.403c-3.023,2.76-6.1,5.491-9.014,8.309c-0.438,0.422-0.305,1.279-0.156,1.9
			c0.736,3.052,3.105,3.968,8.316,3.291c2.602-0.336,4.137-1.555,3.826-3.475C655.459,271.254,654.658,268.059,653.973,264.853z
			 M653.4,308.99c0.4-0.082,0.795-0.162,1.191-0.244c0.529-3.177,1.369-6.348,1.469-9.532c0.057-1.794-2.139-3.005-4.432-3.449
			c-2.586-0.501-4.648,0.552-6.334,1.927c-1.414,1.152-1.973,2.717-0.746,3.887C647.277,304.176,650.424,306.535,653.4,308.99z
			 M716.078,264.569c-0.359,0.08-0.719,0.159-1.08,0.24c-0.426,3.3-0.953,6.596-1.238,9.903c-0.154,1.771,0.992,3.021,3.527,3.443
			c3.047,0.508,6.305-0.315,7.686-2.025c1.113-1.382,0.771-3.29-0.867-4.657c-1.67-1.395-3.383-2.762-5.033-4.167
			C718.031,266.419,717.072,265.483,716.078,264.569z M715.514,308.903c0.262,0.077,0.527,0.155,0.789,0.231
			c2.639-2.035,5.303-4.053,7.904-6.114c2.191-1.74,2.334-3.28,0.584-5.01c-1.9-1.884-5.535-2.575-8.104-1.542
			c-2.684,1.08-3.555,2.992-2.707,5.18c0.615,1.594,0.867,3.27,1.229,4.914C715.375,307.336,715.418,308.121,715.514,308.903z"/>
		<path fill="#FFFFFF" d="M209.443,285.779c1.221-0.606,2.435-1.502,3.895-1.885c9.076-2.39,13.436-7.591,15.744-14.091
			c0.388-1.087,0.881-2.158,1.359-3.227c1.095-2.44,0.227-3.776-3.269-4.193c-2.731-0.327-5.557-0.263-8.342-0.29
			c-3.433-0.033-3.432-0.15-3.255-2.715c0.194-2.807-0.083-5.629-0.029-8.445c0.044-2.366,0.597-2.92,3.702-2.957
			c7.232-0.085,14.47-0.089,21.7,0.063c5.326,0.111,9.725,2.75,10.388,7.173c0.194,1.288-0.427,3.383,2.053,3.458
			c2.481,0.079,1.951-2.082,2.507-3.327c1.847-4.136,5.354-6.883,11.477-7.015c8.23-0.177,16.47-0.121,24.704-0.138
			c2.784-0.005,5.58,0.195,8.353,0.071c2.351-0.106,3.496,0.793,3.522,2.232c0.066,3.364-0.073,6.74-0.459,10.091
			c-0.068,0.582-1.66,1.26-2.716,1.532c-1.02,0.262-2.264-0.004-3.395,0.064c-3.923,0.24-5.776,2.048-3.928,4.611
			c1.686,2.338,2.598,4.802,3.465,7.253c1.375,3.884,4.932,6.231,9.135,8.271c1.799,0.873,3.718,1.609,5.562,2.432
			c2.488,1.109,2.607,1.909,0.627,3.458c-4.17,3.268-5.928,6.787-3.039,11.227c1.798,2.76,2.765,5.811,4.256,8.687
			c2.047,3.951,5.89,5.929,11.746,5.752c3.584-0.108,3.644,0.06,3.587,2.61c-0.066,2.906-0.059,5.818-0.106,8.725
			c-0.025,1.479-0.603,2.557-3.038,2.545c-5.824-0.023-11.656,0.188-17.469,0c-7.885-0.25-12.925-3.385-15.064-8.955
			c-0.105-0.271-0.121-0.611-0.356-0.793c-0.638-0.498-1.374-0.928-2.071-1.383c-0.604,0.541-1.638,1.039-1.742,1.627
			c-0.716,4.082-4.463,6.42-8.766,8.318c-1.649,0.729-3.819,1.006-5.788,1.107c-4.503,0.229-9.034,0.295-13.759-0.281
			c0-4.154,0.01-7.984-0.005-11.813c-0.005-1.3,0.994-1.726,2.571-1.979c4.785-0.777,6.313-2.624,5.197-6.109
			c-0.525-1.641-1.217-3.258-1.662-4.914c-0.421-1.562-1.564-2.22-3.696-2.195c-5.075,0.057-10.152,0.041-15.229,0.059
			c-0.763,0.002-1.525,0.071-2.284,0.041c-5.602-0.209-5.618-0.218-6.93,3.653c-0.523,1.542-1.045,3.093-1.403,4.661
			c-0.547,2.386,1.186,4.141,4.464,4.587c1.241,0.169,2.528,0.147,3.772,0.304c1.695,0.211,2.782,0.934,2.765,2.281
			c-0.036,3-0.022,6.004-0.224,8.998c-0.17,2.516-0.818,2.91-4.264,2.754c-3.271-0.152-6.571-0.291-9.785-0.727
			c-6.03-0.816-8.771-4.041-10.124-8.135c-0.314-0.951-0.144-2.441-2.094-2.145c-0.931,0.146-1.899,1.357-2.237,2.217
			c-2.085,5.318-7.913,8.592-15.484,8.609c-2.407,0.006-4.816,0.135-7.219,0.256c-2.225,0.117-3.319-0.574-3.362-2.252
			c-0.087-3.287-0.193-6.574-0.385-9.857c-0.084-1.438,0.814-2.287,2.623-2.143c9.068,0.721,13.511-2.963,16.002-8.807
			c1.253-2.939,3.006-5.76,4.386-8.673c1.793-3.789,1.087-5.345-3.218-7.745c-1.005-0.561-2.019-1.113-2.999-1.698
			C209.655,286.521,209.653,286.275,209.443,285.779z M216.753,287.338c0.224,0.263,0.548,0.893,1.146,1.302
			c3.415,2.338,4.021,5.26,2.598,8.275c-2.336,4.954-4.966,9.84-7.72,14.681c-1.861,3.273-5.638,4.661-10.304,4.837
			c-0.633,0.025-1.271,0.021-1.901,0.057c-1.356,0.078-2.702,0.324-2.493,1.59c0.215,1.307,1.605,1.588,3.142,1.395
			c1.243-0.156,2.462-0.637,3.683-0.617c5.797,0.102,9.334-2.385,11.408-5.891c2.988-5.051,5.342-10.306,8.063-15.445
			c1.526-2.883,1.03-5.605-1.307-8.021c-1.641-1.696-0.752-2.483,0.911-3.738c2.897-2.185,5.925-4.454,7.873-7.103
			c2.275-3.094,3.497-6.62,5.084-9.982c0.626-1.324,1.118-2.696,1.475-4.074c0.328-1.258-0.252-2.327-2.213-2.404
			c-1.795-0.07-1.791,1.013-1.877,1.983c-0.52,5.76-3.564,10.958-7.595,15.694C224.385,282.63,220.456,284.64,216.753,287.338z
			 M244.503,286.642c5.419,0,10.197,0.09,14.962-0.041c2.238-0.062,2.404-1.302,1.951-2.692c-1.511-4.625-2.953-9.264-4.441-13.891
			c-0.409-1.273-0.678-2.606-1.411-3.775c-0.398-0.634-1.586-1.254-2.52-1.351c-0.554-0.059-1.406,0.861-1.931,1.438
			c-0.327,0.36-0.276,0.901-0.419,1.357c-1.144,3.638-2.269,7.281-3.448,10.913C246.437,281.1,245.55,283.583,244.503,286.642z
			 M259.677,292.416c0-0.016,0-0.029,0-0.045c1.647,0,3.292,0.012,4.939-0.001c6.942-0.056,6.773-0.029,5.256-4.943
			c-2.309-7.478-4.37-14.999-6.499-22.507c-0.33-1.158-1.069-2.072-2.729-1.847c-1.895,0.256-1.166,1.451-0.91,2.303
			c2.123,7.044,4.244,14.086,6.475,21.112c0.881,2.78,0.625,3.14-3.164,3.16c-4.061,0.022-8.126-0.028-12.178,0.131
			c-0.812,0.032-1.569,0.869-2.351,1.334c0.808,0.433,1.583,1.196,2.428,1.241C253.842,292.511,256.764,292.416,259.677,292.416z
			 M283.545,291.637c0.79-0.119,2.327-0.229,3.743-0.594c3.214-0.828,5.115-2.729,4.973-4.744c-0.192-2.717-2.49-5.237-5.819-5.575
			c-1.98-0.199-4.198,0.312-6.179,0.799c-4.042,0.993-5.319,2.763-4.59,5.84C276.37,290.316,278.651,291.68,283.545,291.637z
			 M276.341,264.044c-0.895,3.728-1.765,7.064-2.471,10.422c-0.339,1.621,0.328,2.906,2.726,3.53
			c2.891,0.751,5.911,0.438,7.694-1.047c1.634-1.363,2.631-3.018,1.087-4.603C282.698,269.599,279.646,267.049,276.341,264.044z
			 M290.688,308.465c0.326-0.056,0.649-0.111,0.975-0.167c0.21-0.94,0.633-1.886,0.581-2.818c-0.111-2.062-0.269-4.041,1.307-5.954
			c0.984-1.193,0.488-2.49-0.912-3.576c-2.844-2.205-8.664-1.672-10.206,1.166c-0.506,0.93-0.136,2.41,0.557,3.346
			c1.301,1.756,3.137,3.293,4.737,4.928C288.727,306.409,289.704,307.439,290.688,308.465z M269.934,300.779
			c0.82,1.881,1.905,3.51,2.185,5.211c0.389,2.371,0.521,4.827,0.121,7.187c-0.354,2.075-3.092,2.792-5.419,3.558
			c-0.114,0.037-0.261,0.08-0.316,0.15c-0.398,0.523-1.274,1.309-1.066,1.533c0.478,0.51,1.487,1.033,2.289,1.043
			c3.551,0.037,6.931-2.285,7.898-4.818c1.628-4.254,0.36-8.314-1.044-12.391C274.046,300.704,272.692,300.158,269.934,300.779z"/>
		<path fill="#FFFFFF" d="M490.785,285.994c2.098-1.31,4.172-2.634,6.293-3.922c3.473-2.105,5.244-4.689,4.844-8.117
			c-0.281-2.425-0.008-4.884-0.123-7.324c-0.139-2.848-2.098-4.276-5.969-4.409c-2.66-0.093-5.33-0.098-7.994-0.113
			c-2.02-0.012-2.959-0.624-2.938-2.227c0.039-3.087-0.18-6.175-0.227-9.263c-0.021-1.631,1.209-2.391,3.375-2.355
			c6.969,0.117,13.943,0.138,20.904,0.385c5.195,0.185,10.719,3.407,11.971,8.159c0.219,0.833,1.482,1.516,2.262,2.267
			c0.768-0.751,1.924-1.423,2.24-2.267c2.016-5.354,7.33-8.518,14.992-8.586c6.33-0.059,12.658,0.052,18.988,0.005
			c1.955-0.013,2.848,0.638,2.947,1.967c0.166,2.246,0.25,4.498,0.357,6.747c0.039,0.836-0.076,1.687,0.092,2.506
			c0.49,2.386-0.039,2.852-3.166,2.844c-3.033-0.01-6.068,0.05-9.1,0.146c-3.289,0.103-5.035,1.18-5.174,3.613
			c-0.207,3.563-0.154,7.141,0.043,10.705c0.051,0.948,0.756,2.052,1.633,2.765c2.539,2.061,5.326,3.952,7.992,5.924
			c0.496,0.366,0.898,0.803,1.535,1.383c-4.256,1.753-7.59,3.979-9.932,6.919c-0.619,0.777-1.275,1.691-1.305,2.553
			c-0.164,4.879-0.172,9.762-0.156,14.641c0.006,0.817,0.402,1.633,0.699,2.757c2.74,0,5.385,0.179,7.969-0.042
			c4.123-0.352,8.301-0.707,12.271-1.537c4.988-1.045,8.396-3.508,10.303-7.253c2.361-4.635,3.387-9.422,3.99-14.29
			c0.369-2.959,0.492-3.098,4.574-3.192c4.688-0.107,9.375-0.236,14.066-0.299c1.26-0.018,2.52,0.208,3.785,0.261
			c2.354,0.101,3.4,1.084,3.441,2.737c0.068,2.722,0.104,5.444,0.131,8.167c0.094,9.006,0.217,18.012,0.238,27.02
			c0.004,2.898-0.377,3.188-4.102,2.941c-4.516-0.297-9.057,0.219-13.572-0.912c-4.67-1.17-7.398-3.428-9.051-6.652
			c-0.311-0.611-0.297-1.346-0.736-1.883c-0.525-0.643-1.379-1.139-2.09-1.699c-0.779,0.549-1.592,1.078-2.32,1.662
			c-0.225,0.186-0.299,0.535-0.285,0.805c0.242,4.674-6.934,8.373-12.59,8.418c-6.982,0.059-13.994,0.332-20.939-0.045
			c-7.619-0.414-13.016-1.576-15.496-8.758c-0.256-0.748-1.422-1.697-2.369-1.85c-1.686-0.268-1.723,0.938-1.988,1.885
			c-1.562,5.562-7.846,9.006-15.441,8.787c-5.443-0.154-10.902,0.004-16.352,0.004c-3.941,0-4.336-0.396-4.301-3.236
			c0.025-2.248-0.232-4.498-0.422-6.742c-0.312-3.629,0.637-4.285,5.443-4.234c2.627,0.026,5.279-0.236,7.885-0.528
			c2.121-0.235,3.383-1.278,3.482-2.903c0.203-3.281-0.088-6.611,0.58-9.836c1.256-6.039-2.896-9.74-9.018-12.803
			c-0.523-0.262-1.055-0.524-1.514-0.842C491.184,286.671,491.066,286.378,490.785,285.994z M496.805,286.105
			c2.299,1.95,4.686,3.748,6.682,5.755c1.15,1.155,2.264,2.628,2.373,4.003c0.34,4.396,0.416,8.818,0.188,13.218
			c-0.213,4.246-3.689,7.876-11.055,7.683c-1.615-0.043-3.27,0.189-4.85,0.465c-0.564,0.098-1.449,0.805-1.352,1.045
			c0.211,0.514,0.893,1.189,1.521,1.281c1.338,0.197,2.758,0.037,4.145,0.066c9.301,0.193,14.184-3,15.033-9.857
			c0.074-0.561,0.084-1.126,0.09-1.688c0.049-4.222,0.223-8.444,0.043-12.661c-0.049-1.204-0.889-2.507-1.814-3.542
			c-1.246-1.392-2.914-2.582-4.43-3.838c-2.107-1.744-2.01-1.821,0.273-3.592c2.422-1.878,5.334-3.664,5.592-6.488
			c0.34-3.733,0.404-7.481,0.412-11.226c0-1.098-0.357-2.282-1.004-3.263c-0.371-0.559-1.66-0.786-2.539-1.163
			c-0.396,0.6-1.174,1.213-1.137,1.797c0.234,3.822,0.682,7.638,0.982,11.458c0.197,2.488-1.123,4.552-3.486,6.292
			C500.611,283.222,498.785,284.619,496.805,286.105z M523.279,291.59c5.664,0.012,8.25-1.669,8.113-5.275
			c-0.148-3.88-3.143-5.66-8.869-5.261c-0.629,0.042-1.258,0.098-1.879,0.179c-3.457,0.451-5.543,2.354-5.393,4.908
			C515.477,289.935,517.896,291.577,523.279,291.59z M523.885,264.526c-0.348-0.183-0.691-0.365-1.035-0.548
			c-0.338,0.463-0.707,0.917-1.014,1.393c-1.184,1.835-2.391,3.664-3.496,5.525c-0.502,0.849-0.924,1.753-1.145,2.664
			c-0.43,1.787,0.807,3.587,2.742,4.241c2.303,0.78,6.193,0.374,7.855-0.848c2.092-1.541,2.076-3.39,0.98-5.195
			C527.281,269.303,525.527,266.933,523.885,264.526z M523.111,308.822c1.912-2.438,3.922-4.806,5.662-7.277
			c1.67-2.373,0.932-4.403-1.717-5.648c-2.309-1.082-6.35-0.886-8.215,0.398c-1.898,1.311-2.164,3.275-0.686,5.42
			C519.752,304.033,521.377,306.338,523.111,308.822z M579.744,307.033c3.18,0.381,3.828,0.293,4.5-1.868
			c1.35-4.348,2.35-8.757,3.361-13.156c0.102-0.446-0.682-1.417-1.094-1.429c-0.85-0.024-1.832,0.328-2.543,0.734
			c-0.365,0.207-0.305,0.859-0.369,1.317c-0.525,3.8-0.904,7.612-2.896,11.218C580.156,304.84,580.055,305.963,579.744,307.033z"/>
	</g>
</g>
</svg>
