<?xml version="1.0" encoding="utf-8"?>
<!-- Generator: Adobe Illustrator 16.0.0, SVG Export Plug-In . SVG Version: 6.00 Build 0)  -->
<!DOCTYPE svg PUBLIC "-//W3C//DTD SVG 1.1//EN" "http://www.w3.org/Graphics/SVG/1.1/DTD/svg11.dtd">
<svg version="1.1" xmlns="http://www.w3.org/2000/svg" xmlns:xlink="http://www.w3.org/1999/xlink" x="0px" y="0px" width="800px"
	 height="600px" viewBox="0 0 800 600" enable-background="new 0 0 800 600" xml:space="preserve">
<g id="Layer_1" display="none">
	
		<image display="inline" overflow="visible" width="2592" height="1936" xlink:href="../../../../../Pictures/iPhoto Library/Originals/2015/iPhone South America/IMG_2692_2.JPG"  transform="matrix(0.4375 0 0 0.4375 -166.6401 -123.543)">
	</image>
</g>
<g id="Layer_2">
	<g>
		<g>
			<g>
				<g>
					<g>
						<g>
							<path fill="#FFFFFF" d="M75.989,227.673c-0.381,0.25-0.462,0.754-0.565,1.227C75.797,228.569,75.98,228.195,75.989,227.673z"
								/>
							<polygon fill="#FFFFFF" points="75.415,228.908 75.419,228.917 75.424,228.9 							"/>
							<path fill="#FFFFFF" d="M92.084,319.619c-0.009-0.118-0.019-0.253-0.028-0.39C92.047,319.359,92.048,319.492,92.084,319.619z
								"/>
							<path fill="#FFFFFF" d="M73.025,252.074l0.591,0.079c0.012,1.126-0.675,0.321-0.526,1.365
								c0.837,0.413-0.082,1.73,0.363,2.092c-0.066-0.008-0.09,0.502-0.352,0.469c0.454,0.156,0.107,0.525,0.224,0.847
								c0.126,0.116,0.135-0.086,0.272-0.173l0.162,0.736c-0.145,0.289-0.412,0.361-0.462,0.048
								c-0.062,0.957-0.257,3.772-0.273,6.562c-0.016,2.789,0.017,5.598,0.162,6.622c0.334-0.276,0.083-0.903,0.615-1.161
								c0.319,0.533-0.081,0.803,0.244,1.032c-0.794,0.235-0.155,1.2-0.954,1.64l0.458,0.14l-0.27,0.28
								c0.551,2.369,0.234,0.546,0.218,2.652c0.125,1.212,0.78,1.763,0.579,2.448c0-0.101,0.266-0.38,0.396-0.071
								c-0.396,0.071,0.324,0.825-0.071,0.996c0.064,0.306,0.058,1.306,0.587,0.944c-0.264,0.181-0.335,1.076-0.595,0.557
								c-0.002,0.301-0.069,0.596,0.061,0.807l0.134-0.393c0.125,1.011-0.271,1.583,0.251,2.221l0.199-0.385
								c0.062,0.604,0.126,1.109-0.402,1.373l-0.194-0.615c0.06,1.005,0.123,1.61,0.447,2.435l0.001-0.3
								c0.586,1.043,1.299,6.556,2.019,7.503l0.396-0.469l0.393,0.823c0-0.1-1.377-0.342-1.245-0.432
								c0.153,1.814,0.842,11.105,0.615,12.761c-0.206,0.674-0.659,0.143-0.726,0.137c0.187,0.805,0.457,0.335,0.447,1.024
								c-0.068,0.19-0.33-0.028-0.393-0.132c0.061,0.3-0.073,0.585,0.123,0.602c0.137-0.382,0.662-0.239,0.993-0.41l-0.011,0.889
								l-0.329-0.029c-0.004,0.197,0.919,0.476,0.768,1.351c-0.119,1.465,0.021,3.05-0.033,4.521
								c-0.197-0.02-0.318-0.325-0.438-0.633c-0.007,0.197,0.048,0.496-0.09,0.68c0.342-0.36,0.241,0.613,0.383,0.333
								c0.818,1.065,0.108,2.468,0.667,3.414c0.722,0.06,12.413,1.997,13.27,2.013c-0.011,0.306-0.021,0.609-0.091,0.703
								c0.2-0.079,0.288-0.68,0.167-0.999l-0.46-0.054c-0.172-0.732,0.27-0.173,0.228-0.889c0.375-0.04,0.466,0.619,0.511,1.201
								c0.036-0.523,0.301-1.047-0.113-1.258c0.149-0.493,0.46,0.053,0.612-0.542c-0.117-0.422-0.494-0.973-0.279-1.46l0.066,0.008
								c0.37-1.186-0.598-1.797-0.231-2.88l0.128,0.114c0.211-0.385-0.093-1.13,0.128-1.821c-0.073,0.197-0.342,0.373-0.394-0.039
								c0.225-0.795-0.021-1.328,0.263-1.913l-0.376-0.544c-0.016-2.73-0.937-13.477-1.155-16.148l0.063,0.104
								c-0.19-2.056-0.383-5.211-0.61-8.361c-0.222-3.136-0.485-6.288-0.834-8.393c0.332-0.669,0.206-1.568,0.276-2.254
								c-0.133,0.386-0.396,0.266-0.395-0.031c-0.021-2.067-0.254-0.129-0.473-2.213c-0.205-1.197-0.281-4.103-0.277-6.976
								c-0.033-2.883,0.213-5.68,0.34-6.746c-0.537-1.137-0.138-2.56-0.479-3.677l0.126,0.113c-0.077-0.594-0.094-2.609,0.091-4.603
								c0.151-2.001,0.302-4.023,0.233-4.718l-0.083,0.183c-0.287-1.219,0.292-1.03,0.508-1.968
								c-0.604,0.097-0.905-0.954-0.935-1.352l0.13,0.022c-0.07-0.597-0.576-1.983-0.538-2.959l0.324,0.06
								c-0.277-0.835,0.009-2.354,0.028-2.94c0.257-1.328,1.012-3.322,0.742-5.15l1.032-1.042l-0.077-0.179
								c0,0-2.759-0.796-5.84-1.353c-3.077-0.552-6.49-0.853-7.797,0.271l-0.321-0.078l-0.004,0.503
								c-0.215,0.581,0.137,0.899-0.184,0.823l0.115-0.816c-0.149,0.591-0.283,0.152-0.446-0.099
								c-0.055,0.248-0.116,0.488-0.234,0.677c0.114,0.133,0.143-0.072,0.222-0.158c0.085,0.337,0.349,0.821,0.163,1.199
								c-0.087,0.613-0.53-0.016-0.632,0.702c-0.567,3.772-1.413,7.46-1.395,11.288c-0.139,0.081-0.13-0.023-0.187-0.137
								c0.098,1.162,0.008,2.186,0.115,3.243c-0.157,0.287-0.362,0.36-0.5,0.441c0.139-0.082,0.159,1.374,0.135,2.86
								c-0.019,0.743-0.037,1.493-0.051,2.064C73.054,251.663,73.043,252.051,73.025,252.074z"/>
						</g>
					</g>
				</g>
			</g>
		</g>
		<g>
			<g>
				<g>
					<g>
						<g>
							<path fill="#FFFFFF" d="M118.655,315.296c-0.147-0.356-0.399-0.391-0.639-0.45
								C118.2,315.188,118.396,315.336,118.655,315.296z"/>
							<polygon fill="#FFFFFF" points="118.011,314.838 118.007,314.843 118.016,314.846 							"/>
							<path fill="#FFFFFF" d="M71.578,330.803c0.06-0.007,0.128-0.015,0.197-0.022C71.708,330.77,71.642,330.769,71.578,330.803z"
								/>
							<path fill="#FFFFFF" d="M106.419,313.813l-0.037,0.591c-0.568,0.009-0.166-0.676-0.69-0.53
								c-0.205,0.836-0.872-0.086-1.053,0.357c0.004-0.065-0.253-0.091-0.237-0.353c-0.079,0.453-0.264,0.105-0.426,0.221
								c-0.059,0.126,0.043,0.136,0.087,0.272l-0.371,0.16c-0.146-0.146-0.181-0.412-0.023-0.462
								c-0.97-0.162-5.63-0.598-6.675-0.371c0.134,0.343,0.457,0.111,0.58,0.65c-0.276,0.302-0.407-0.105-0.529,0.212
								c-0.106-0.802-0.607-0.192-0.817-1.004l-0.079,0.454l-0.137-0.278c-1.216,0.473-0.278,0.231-1.355,0.124
								c-0.624,0.069-0.92,0.7-1.267,0.468c0.051,0.005,0.189,0.282,0.027,0.398c-0.027-0.398-0.43,0.286-0.509-0.116
								c-0.158,0.05-0.671-0.002-0.497,0.544c-0.087-0.272-0.544-0.384-0.272-0.62c-0.154-0.016-0.304-0.096-0.415,0.024
								l0.198,0.152c-0.521,0.079-0.805-0.343-1.145,0.15l0.193,0.216c-0.312,0.035-0.572,0.076-0.695-0.464l0.32-0.165
								c-0.517,0.014-0.829,0.049-1.259,0.336l0.154,0.015c-0.549,0.539-3.419,0.983-3.924,1.658l0.233,0.419l-0.435,0.353
								c0.052,0.005,0.21-1.359,0.253-1.223c-0.932,0.039-5.777,0.363-6.638,0.081c-0.347-0.231-0.062-0.664-0.059-0.73
								c-0.422,0.156-0.182,0.444-0.542,0.408c-0.098-0.075,0.021-0.328,0.076-0.389c-0.158,0.05-0.304-0.095-0.315,0.101
								c0.197,0.151,0.113,0.671,0.197,1.008l-0.462-0.045l0.021-0.327c-0.103-0.011-0.261,0.896-0.715,0.72
								c-0.766-0.142-1.597-0.026-2.367-0.103c0.012-0.196,0.173-0.312,0.335-0.429c-0.103-0.01-0.26,0.041-0.355-0.101
								c0.186,0.348-0.323,0.231-0.178,0.378c-0.564,0.801-1.293,0.069-1.792,0.613c-0.043,0.721-1.066,12.381-1.066,13.237
								c-0.155-0.016-0.308-0.03-0.355-0.102c0.04,0.201,0.344,0.298,0.505,0.183l0.028-0.459c0.371-0.161,0.087,0.272,0.449,0.241
								c0.02,0.376-0.314,0.456-0.608,0.492c0.265,0.044,0.528,0.317,0.636-0.094c0.249,0.156-0.028,0.459,0.272,0.62
								c0.213-0.11,0.494-0.479,0.739-0.256l-0.004,0.066c0.596,0.388,0.912-0.57,1.456-0.187l-0.059,0.126
								c0.192,0.217,0.571-0.075,0.918,0.156c-0.099-0.075-0.185-0.348,0.023-0.392c0.399,0.236,0.671,0,0.963,0.292l0.28-0.368
								c1.39,0.072,6.879-0.451,8.275-0.51l-0.055,0.059c2.127-0.184,6.494-0.155,8.692-0.662c0.34,0.362,0.809,0.277,1.164,0.378
								c-0.197-0.15-0.13-0.407,0.024-0.393c1.081,0.042,0.073-0.251,1.166-0.405c1.258-0.337,6.075,0.047,7.192,0.355
								c0.6-0.534,1.349-0.131,1.937-0.468l-0.059,0.126c0.631-0.201,4.206,0.294,4.94,0.103l-0.099-0.076
								c0.64-0.332,0.553,0.253,1.057,0.435c-0.066-0.6,0.482-0.939,0.691-0.984l-0.008,0.131c0.315-0.101,1.03-0.621,1.551-0.701
								l-0.021,0.327c0.435-0.352,1.251-0.205,1.563-0.24c0.714,0.136,1.815,0.706,2.77,0.273l0.617,0.935l0.09-0.093
								c0,0,0.993-11.281-0.268-13.685l0.02-0.327l-0.25,0.042c-0.299-0.161-0.438,0.219-0.417-0.108l0.41,0.04
								c-0.3-0.095-0.091-0.269,0.024-0.453c-0.125-0.031-0.247-0.071-0.347-0.171c-0.059,0.125,0.044,0.136,0.09,0.206
								c-0.162,0.115-0.387,0.423-0.583,0.272c-0.308-0.031-0.02-0.53-0.378-0.565c-1.894-0.253-3.729-0.633-5.643-0.559
								c-0.044-0.136,0.008-0.131,0.063-0.191c-0.577,0.141-1.089,0.09-1.614,0.236c-0.146-0.146-0.186-0.349-0.229-0.484
								C109.453,313.859,106.467,313.884,106.419,313.813z"/>
						</g>
					</g>
				</g>
			</g>
		</g>
		<g>
			<g>
				<g>
					<g>
						<g>
							<path fill="#FFFFFF" d="M150.627,232.522c-0.335,0.303-0.337,0.747-0.365,1.171
								C150.578,233.337,150.7,232.973,150.627,232.522z"/>
							<polygon fill="#FFFFFF" points="150.255,233.702 150.261,233.708 150.262,233.693 							"/>
							<path fill="#FFFFFF" d="M149.59,326.127c-0.001-0.107-0.003-0.229-0.006-0.353
								C149.568,325.893,149.562,326.013,149.59,326.127z"/>
							<path fill="#FFFFFF" d="M147.698,254.932l0.567,0.178c-0.199,1.085-0.724,0.189-0.772,1.215
								c0.744,0.555-0.399,1.643-0.034,2.079c-0.063-0.021-0.2,0.467-0.448,0.381c0.409,0.246-0.012,0.53,0.03,0.866
								c0.098,0.14,0.151-0.054,0.304-0.11l-0.005,0.749c-0.206,0.249-0.482,0.259-0.461-0.055
								c-0.526,1.822-3.153,10.697-3.542,12.819c0.401-0.174,0.345-0.863,0.93-0.965c0.148,0.616-0.314,0.767-0.07,1.086
								c-0.83,0.001-0.501,1.137-1.395,1.335l0.397,0.272l-0.34,0.196c-0.179,2.497,0.086,0.594-0.595,2.685
								c-0.269,1.246,0.18,1.995-0.231,2.616c0.032-0.1,0.375-0.297,0.399,0.051c-0.399-0.051,0.044,0.922-0.386,0.971
								c-0.037,0.325-0.363,1.32,0.257,1.123c-0.31,0.1-0.663,0.97-0.745,0.372c-0.098,0.298-0.257,0.576-0.2,0.828l0.253-0.354
								c-0.205,1.057-0.766,1.511-0.474,2.315l0.313-0.326c-0.135,0.628-0.236,1.157-0.823,1.259l0.013-0.68
								c-0.266,1.031-0.4,1.66-0.356,2.591l0.098-0.302c0.212,1.214-0.854,7.119-0.461,8.293l0.524-0.367l0.125,0.965
								c0.03-0.103-1.216-0.757-1.062-0.812c-0.204,0.956-0.838,3.92-1.468,6.864c-0.572,2.991-1.212,5.93-1.466,6.84
								c-0.353,0.696-0.676,0.016-0.74-0.005c0.001,0.928,0.372,0.466,0.207,1.223c-0.109,0.196-0.316-0.099-0.355-0.226
								c-0.008,0.344-0.204,0.631-0.015,0.688c0.22-0.395,0.702-0.13,1.064-0.25l-0.209,0.969l-0.316-0.096
								c-0.047,0.218,0.792,0.695,0.457,1.623c-0.421,1.59-0.449,3.434-0.731,5.08c-0.192-0.046-0.269-0.407-0.343-0.771
								c-0.036,0.224-0.024,0.569-0.188,0.763c0.391-0.369,0.151,0.723,0.333,0.422c0.619,1.271-0.138,2.848,0.35,3.976
								c0.358,0.066,3.425,0.788,6.515,1.389c3.089,0.612,6.197,1.105,6.625,1.108c-0.029,0.278-0.058,0.555-0.132,0.64
								c0.205-0.072,0.327-0.615,0.225-0.907l-0.457-0.058c-0.131-0.675,0.28-0.151,0.278-0.806
								c0.377-0.022,0.431,0.576,0.442,1.102c0.066-0.474,0.361-0.935-0.042-1.14c0.176-0.438,0.457,0.063,0.641-0.462
								c-0.095-0.381-0.441-0.9-0.202-1.324l0.066,0.013c0.403-1.017-0.458-1.689,0.039-2.659l0.113,0.12
								c0.257-0.331,0.046-1.059,0.349-1.67c-0.096,0.172-0.384,0.3-0.385-0.091c0.318-0.706,0.139-1.239,0.488-1.736
								c0,0-0.278-0.578-0.278-0.578c0.291-1.311,0.608-4.535,1.242-7.869c0.516-3.301,1.267-6.684,1.537-8.032l0.032,0.12
								c0.835-4.163,3.178-12.671,3.9-17.19c0.534-0.578,0.705-1.528,0.995-2.204c-0.252,0.351-0.464,0.149-0.366-0.151
								c0.618-2.146-0.202-0.21,0.231-2.435c0.377-2.568,3.216-12.202,3.973-14.489c-0.241-1.348,0.509-2.8,0.397-4.111l0.1,0.149
								c0.026-0.683,0.528-2.865,1.015-5.09c0.408-2.267,0.818-4.568,0.836-5.367l-0.106,0.202c-0.125-1.407,0.404-1.16,0.691-2.25
								c-0.609,0.082-0.842-1.152-0.848-1.611l0.129,0.029c-0.041-0.701-0.426-2.295-0.411-3.426l0.323,0.062
								c-0.324-0.98-0.162-2.788-0.186-3.483c0.07-0.794,0.283-1.799,0.363-2.891c0.023-1.106-0.034-2.288-0.338-3.355l0.813-1.511
								l-0.11-0.198c0,0-2.848-0.231-5.955,0.003c-3.116,0.22-6.479,0.861-7.596,2.101h-0.328l0.075,0.436
								c-0.12,0.542,0.278,0.753-0.051,0.745l-0.016-0.726c-0.054,0.539-0.255,0.184-0.454,0.003
								c-0.015,0.222-0.038,0.438-0.124,0.621c0.133,0.092,0.129-0.088,0.193-0.176c0.137,0.271,0.475,0.643,0.353,1
								c0.014,0.542-0.526,0.07-0.51,0.695c-0.008,0.417,0.03,0.812-0.018,1.239l-0.126,1.271c-0.076,0.842-0.152,1.681-0.228,2.521
								c-0.035,0.827-0.194,1.699-0.294,2.564c-0.105,0.867-0.191,1.74-0.247,2.625c-0.142,0.066-0.129-0.029-0.181-0.138
								c0.08,1.07-0.15,2.038-0.142,3.042c-0.185,0.255-0.396,0.301-0.542,0.363c0.146-0.063,0.021,1.308-0.148,2.706
								c-0.074,0.696-0.24,1.419-0.336,1.958C147.803,254.542,147.72,254.913,147.698,254.932z"/>
						</g>
					</g>
				</g>
			</g>
		</g>
		<g>
			<g>
				<g>
					<g>
						<g>
							<path fill="#FFFFFF" d="M151.016,233.91c-0.22,0.52-0.045,1.241,0.095,1.932C151.286,235.224,151.267,234.627,151.016,233.91
								z"/>
							<polygon fill="#FFFFFF" points="151.107,235.856 151.114,235.866 151.11,235.841 							"/>
							<path fill="#FFFFFF" d="M206.376,350.443c-0.089,0.009-0.191,0.019-0.294,0.029
								C206.181,350.479,206.283,350.478,206.376,350.443z"/>
							<path fill="#FFFFFF" d="M158.95,270.023l0.6-0.032c0.412,1.676-0.54,0.647-0.025,2.164c0.958,0.411,0.535,2.596,1.096,3.029
								c-0.067,0.003,0.09,0.769-0.176,0.781c0.498,0.128,0.291,0.757,0.519,1.209c0.164,0.145,0.101-0.159,0.203-0.32l0.42,1.061
								c-0.041,0.462-0.278,0.629-0.434,0.174c0.25,1.451,1.06,5.639,1.918,9.839c0.769,4.146,1.669,8.406,1.962,9.722
								c0.271-0.43-0.114-1.274,0.355-1.715c0.432,0.708,0.096,1.144,0.468,1.424c-0.737,0.432,0.112,1.713-0.586,2.412l0.489,0.15
								l-0.207,0.418c1.002,3.498,0.352,0.778,0.698,4.017c0.325,1.862,1.078,2.704,0.993,3.788
								c-0.017-0.158,0.201-0.616,0.383-0.139c-0.383,0.139,0.464,1.273,0.098,1.569c0.112,0.472,0.29,2.058,0.753,1.447
								c-0.23,0.306-0.134,1.732-0.491,0.927c0.053,0.478,0.042,0.951,0.21,1.276l0.061-0.634c0.317,1.597,0.016,2.53,0.673,3.511
								l0.119-0.631c0.188,0.961,0.361,1.764-0.11,2.229l-0.325-0.969c0.274,1.605,0.467,2.571,0.968,3.861l-0.063-0.48
								c0.395,0.806,1.147,3.441,1.91,6.037c0.849,2.611,1.669,5.182,2.244,5.89l0.216-0.826l0.696,1.265
								c-0.036-0.159-1.489-0.319-1.392-0.489c0.204,0.727,0.621,2.215,1.145,4.081c0.307,0.924,0.646,1.94,1,3.003
								c0.177,0.531,0.358,1.074,0.541,1.622l0.138,0.414l0.183,0.474l0.37,0.949c2.043,5.075,5.231,9.057,6.132,10.333
								c0.626,1.114-0.361,0.604-0.425,0.632c1.118,1.084,0.745,0.235,1.613,1.219c0.19,0.312-0.292,0.17-0.476,0.061
								c0.433,0.389,0.698,0.88,0.869,0.776c-0.387-0.63,0.202-0.764,0.242-1.212l1.108,1.233l-0.282,0.18
								c0.266,0.272,1.312,0.007,2.382,1.232c1.998,1.911,4.589,3.572,7.176,4.926c-0.13,0.161-0.75,0.007-1.33-0.207
								c0.331,0.209,0.883,0.444,1.168,0.715c-0.502-0.611,1.237,0.312,0.787-0.056c0.583,0.034,1.129,0.197,1.715,0.351
								c0.589,0.148,1.175,0.345,1.753,0.543c1.148,0.402,2.383,0.634,3.371,0.581c0.15-0.34,1.676-3.304,2.553-6.349
								c0.458-1.499,0.785-3.083,0.964-4.322c0.182-1.235,0.237-2.127,0.231-2.342c0.243,0.006,0.486,0.025,0.569,0.098
								c-0.089-0.204-0.558-0.302-0.805-0.166l-0.041,0.462c-0.614,0.205-0.138-0.26-0.733-0.273
								c0.001-0.375,0.537-0.374,0.967-0.474c-0.201-0.021-0.394-0.062-0.564-0.095c-0.173-0.048-0.315-0.029-0.417,0.167
								c-0.373-0.189,0.078-0.459-0.351-0.649c-0.319,0.118-0.86,0.293-1.205,0.029l0.023-0.062
								c-0.43-0.302-0.843-0.343-1.271-0.308c-0.427-0.006-0.871-0.089-1.268-0.456l0.158-0.069
								c-0.234-0.321-1.032-0.488-1.525-1.028c0.129,0.18,0.141,0.505-0.252,0.302c-0.565-0.688-1.197-0.791-1.509-1.456
								l-0.717-0.101c-0.588-0.511-1.618-1.435-2.791-2.685c-1.161-1.257-2.407-2.894-3.396-4.571
								c-0.27-0.418-0.481-0.837-0.685-1.251c-0.229-0.409-0.406-0.824-0.568-1.233c-0.087-0.216-0.17-0.376-0.263-0.631
								c-0.093-0.27-0.186-0.536-0.277-0.799c-0.183-0.525-0.36-1.034-0.53-1.522c-0.72-1.937-1.145-3.611-1.422-4.562l0.097,0.135
								c-0.898-2.872-1.877-7.493-2.781-12.226c-0.885-4.742-1.669-9.645-2.379-12.929c0.218-1.065-0.063-2.494-0.11-3.586
								c-0.067,0.622-0.35,0.451-0.4-0.021c-0.205-1.649-0.274-1.696-0.369-1.744c-0.1-0.054-0.188-0.068-0.585-1.83
								c-0.265-0.996-0.603-2.734-0.992-4.787c-0.425-1.966-0.889-4.27-1.331-6.566c-0.907-4.57-1.791-9.044-2.018-10.769
								c-0.941-1.679-1.094-4.009-1.843-5.691l0.165,0.148c-0.624-1.849-2.788-12.639-3.529-14.78l-0.001,0.313
								c-0.796-1.829-0.165-1.711-0.378-3.261c-0.53,0.346-1.281-1.205-1.486-1.816l0.132-0.009
								c-0.34-0.915-1.394-2.913-1.872-4.443l0.333-0.022c-0.665-1.204-1.185-3.677-1.471-4.599c-0.456-2.17-0.745-5.58-2.047-8.383
								l0.345-2.147l-0.169-0.248c0,0-2.916,0.08-5.968,0.755c-3.059,0.671-6.25,1.918-6.883,4.047l-0.33,0.039l0.246,0.691
								c0.092,0.89,0.57,1.173,0.24,1.208l-0.3-1.167c0.157,0.875-0.183,0.332-0.454,0.063c0.073,0.362,0.136,0.716,0.122,1.025
								c0.169,0.131,0.094-0.161,0.124-0.312c0.244,0.422,0.725,0.971,0.742,1.568c0.224,0.877-0.492,0.195-0.233,1.224
								c0.614,2.794,1.22,5.547,1.826,8.305c0.597,2.778,1.234,5.551,1.997,8.355c-0.098,0.161-0.133,0.008-0.234-0.14
								c0.581,1.657,0.896,3.187,1.427,4.699c-0.035,0.466-0.201,0.632-0.301,0.792c0.1-0.161,0.705,1.959,1.28,4.14
								c0.287,1.09,0.573,2.194,0.768,3.039C158.832,269.404,158.959,269.984,158.95,270.023z"/>
						</g>
					</g>
				</g>
			</g>
		</g>
		<g>
			<g>
				<g>
					<g>
						<g>
							<path fill="#FFFFFF" d="M152.835,299.33c0.113,0.357,0.308,0.393,0.492,0.453C153.185,299.44,153.034,299.291,152.835,299.33
								z"/>
							<polygon fill="#FFFFFF" points="153.33,299.791 153.333,299.786 153.327,299.783 							"/>
							<path fill="#FFFFFF" d="M188.291,282.699c-0.042,0.012-0.089,0.025-0.137,0.04
								C188.202,282.743,188.25,282.739,188.291,282.699z"/>
							<path fill="#FFFFFF" d="M162.312,300.883l0.034-0.59c0.449-0.006,0.125,0.676,0.541,0.533
								c0.169-0.834,0.689,0.091,0.835-0.352c-0.004,0.066,0.199,0.093,0.185,0.354c0.065-0.453,0.21-0.104,0.339-0.219
								c0.047-0.125-0.034-0.136-0.067-0.273l0.294-0.158c0.114,0.147,0.141,0.414,0.016,0.462c0.749,0.179,4.479,0.605,5.324,0.37
								c-0.11-0.342-0.368-0.109-0.469-0.647c0.219-0.303,0.327,0.104,0.421-0.214c0.091,0.801,0.488,0.189,0.664,1l0.059-0.455
								l0.113,0.278c0.972-0.48,0.215-0.225,1.091-0.136c0.507-0.081,0.735-0.717,1.021-0.491c-0.042-0.003-0.158-0.279-0.03-0.398
								c0.03,0.398,0.343-0.294,0.415,0.107c0.127-0.053,0.543-0.011,0.391-0.553c0.076,0.271,0.45,0.373,0.235,0.615
								c0.125,0.013,0.249,0.09,0.335-0.032l-0.165-0.148c0.42-0.089,0.662,0.327,0.923-0.172l-0.162-0.213
								c0.251-0.041,0.46-0.086,0.576,0.45l-0.254,0.172c0.419-0.023,0.67-0.065,1.009-0.36l-0.125-0.012
								c0.429-0.549,2.751-1.118,3.121-1.809l-0.211-0.409l0.332-0.37c-0.042-0.003-0.096,1.366-0.138,1.231
								c0.749-0.036,4.683-0.685,5.413-0.472c0.306,0.207,0.114,0.657,0.116,0.724c0.333-0.185,0.108-0.455,0.406-0.444
								c0.088,0.068,0.015,0.328-0.024,0.391c0.125-0.06,0.259,0.074,0.25-0.122c-0.176-0.137-0.159-0.66-0.26-0.99l0.381,0.013
								l0.016,0.328c0.086,0,0.123-0.904,0.51-0.772c0.641,0.062,1.308-0.137,1.946-0.141c0.014,0.196-0.104,0.329-0.223,0.459
								c0.086,0,0.209-0.066,0.304,0.064c-0.195-0.326,0.236-0.264,0.099-0.394c0.359-0.853,1.049-0.203,1.382-0.793
								c-0.037-0.722-0.91-12.363-1.061-13.207c0.112,0.002,0.225,0.003,0.269,0.069c-0.059-0.196-0.289-0.264-0.388-0.136
								l0.046,0.457c-0.243,0.192-0.102-0.262-0.356-0.199c-0.066-0.37,0.16-0.479,0.363-0.541c-0.195-0.02-0.42-0.268-0.439,0.149
								c-0.199-0.132-0.045-0.457-0.28-0.589c-0.135,0.128-0.285,0.518-0.489,0.319l-0.005-0.066
								c-0.472-0.332-0.574,0.646-1.01,0.315l0.026-0.13c-0.163-0.198-0.396,0.125-0.669-0.073c0.079,0.066,0.172,0.329,0.028,0.392
								c-0.311-0.199-0.477,0.061-0.716-0.204l-0.159,0.392c-1.006,0.019-4.933,0.909-5.988,0.976l0.037-0.061
								c-0.783,0.128-1.977,0.235-3.189,0.363c-1.223,0.107-2.453,0.255-3.276,0.528c-0.262-0.356-0.613-0.262-0.881-0.357
								c0.15,0.147,0.103,0.406-0.013,0.394c-0.824-0.037-0.052,0.251-0.885,0.41c-0.957,0.343-4.638-0.023-5.511-0.351
								c-0.466,0.531-1.042,0.124-1.499,0.458l0.047-0.125c-0.48,0.201-3.267-0.321-3.844-0.136l0.077,0.077
								c-0.503,0.327-0.43-0.257-0.822-0.443c0.046,0.6-0.385,0.936-0.549,0.979l0.007-0.131c-0.248,0.099-0.808,0.612-1.222,0.692
								l0.019-0.328c-0.345,0.351-0.988,0.201-1.235,0.234c-0.562-0.139-1.43-0.713-2.185-0.284l-0.486-0.937l-0.071,0.093
								c0,0-0.773,11.277,0.199,13.685l-0.016,0.327l0.192-0.041c0.23,0.162,0.337-0.216,0.321,0.11l-0.315-0.042
								c0.231,0.096,0.069,0.269-0.019,0.453c0.096,0.032,0.19,0.072,0.267,0.173c0.046-0.125-0.033-0.136-0.069-0.207
								c0.125-0.115,0.298-0.421,0.45-0.27c0.237,0.032,0.014,0.53,0.29,0.567c1.46,0.262,2.852,0.643,4.353,0.586
								c0.033,0.136-0.007,0.131-0.051,0.191c0.45-0.137,0.849-0.082,1.26-0.225c0.112,0.147,0.142,0.35,0.174,0.486
								C159.943,300.815,162.264,300.813,162.312,300.883z"/>
						</g>
					</g>
				</g>
			</g>
		</g>
		<g>
			<g>
				<g>
					<g>
						<g>
							<path fill="#FFFFFF" d="M257.845,256.574c0.511-1,0.71-2.833,0.744-4.537C258.262,253.354,258.05,254.723,257.845,256.574z"
								/>
							<path fill="#FFFFFF" d="M258.597,252.004c-0.001-0.007-0.003-0.019-0.005-0.026c-0.001,0.023-0.001,0.041-0.002,0.06
								C258.592,252.024,258.595,252.015,258.597,252.004z"/>
							<path fill="#FFFFFF" d="M208.392,325.289c0.008,0.34,0.018,0.728,0.027,1.12
								C208.429,326.034,208.428,325.652,208.392,325.289z"/>
							<path fill="#FFFFFF" d="M207.83,253.363l0.588,0.25c-0.023,1.863-0.13,2.143-0.291,2.386
								c-0.144,0.243-0.289,0.454-0.091,2.201c0.472,0.653,0.591,2.093,0.75,3.546c0.157,1.45,0.374,2.929,0.745,3.494
								c-0.09-0.017,0.393,1.762,0.111,1.726c0.602,0.415,0.677,1.809,1.278,2.932c0.285,0.368,0.001-0.357,0.006-0.717
								c0,0,0.285,0.636,0.614,1.277c0.35,0.643,0.7,1.287,0.7,1.287c0.445,1.117,0.375,1.526-0.32,0.382
								c0.249,0.46,0.512,0.999,0.927,1.674c0.221,0.339,0.458,0.704,0.711,1.09c0.26,0.389,0.468,0.607,0.727,0.942
								c1.006,1.232,2.188,2.784,3.694,4.146c1.449,1.499,3.169,2.821,4.961,4.2c0.904,0.617,1.829,1.248,2.763,1.885
								c0.93,0.591,1.863,1.134,2.803,1.703c3.737,2.158,7.27,3.915,10.016,5.386c1.336,0.73,2.571,1.382,3.484,1.941
								c0.478,0.274,0.912,0.522,1.294,0.741c0.354,0.221,0.661,0.413,0.913,0.571c-0.274-0.642-1.741-1.234-1.983-2
								c1.319,0.425,1.65,1.093,2.265,1.149c-0.017,0.473,0.529,0.902,1.127,1.359c0.589,0.461,1.109,1.003,1.216,1.586l0.555-0.141
								l0.284,0.574c0.965,0.771,1.511,1.198,1.842,1.446c0.339,0.243,0.376,0.357,0.45,0.434c0.102,0.18,0.172,0.32,1.414,2.018
								c1.424,1.927,2.401,2.855,2.843,4.213c-0.083-0.188-0.087-0.81,0.321-0.253c-0.329,0.263,0.872,1.48,0.573,1.98
								c0.113,0.327,0.316,1.022,0.522,1.547c0.182,0.557,0.388,0.917,0.567,0.46c-0.172,0.457,0.16,2.562-0.334,1.365
								c0.131,0.707,0.149,1.443,0.364,1.942l-0.008-0.962c0.122,0.614,0.206,1.161,0.267,1.665
								c0.039,0.516,0.074,0.981,0.107,1.419c0.088,0.868,0.17,1.636,0.484,2.461l0.134-0.979c0.179,1.547,0.313,2.856-0.209,3.501
								c0,0-0.062-0.397-0.123-0.796c-0.056-0.399-0.135-0.791-0.135-0.791c0.183,2.573,0.257,4.136,0.542,6.308
								c0,0,0.007-0.194,0.014-0.388c0.002-0.193,0.004-0.388,0.004-0.388c0.268,1.371,0.484,5.747,0.179,9.952
								c-0.12,2.113-0.403,4.121-0.653,5.714c-0.163,0.745-0.249,1.483-0.378,1.994c-0.121,0.522-0.192,0.946-0.207,1.229
								l0.74-0.775c0,0-0.084,0.473-0.169,0.945c-0.102,0.473-0.246,0.945-0.246,0.945c0.106-0.22-0.827-1.383-0.667-1.489
								c-0.157,0.452-0.511,1.128-0.896,1.982c-0.232,0.401-0.489,0.843-0.765,1.319c-0.29,0.468-0.661,0.934-1.007,1.453
								c-1.476,2.022-3.81,4.062-6.4,5.426c-2.591,1.414-5.416,1.873-7.608,1.771c-2.21-0.119-3.838-0.79-4.537-1.169
								c-1.107-0.732,0.074-0.667,0.099-0.743c-1.493-0.584-0.817,0.06-2.056-0.631c-0.307-0.245,0.247-0.241,0.464-0.192
								c-0.142-0.062-0.276-0.133-0.399-0.2c-0.107-0.086-0.207-0.165-0.293-0.234c-0.173-0.135-0.302-0.212-0.376-0.146
								c0.523,0.57-0.02,0.817,0.068,1.301c0,0-0.373-0.287-0.746-0.573c-0.377-0.278-0.755-0.557-0.755-0.557l0.272-0.21
								c-0.18-0.105-0.483-0.131-0.947-0.271c-0.44-0.16-1.104-0.392-1.615-1.197c-0.239-0.314-0.506-0.606-0.746-0.931
								c-0.223-0.341-0.448-0.685-0.675-1.03c-0.113-0.173-0.239-0.335-0.347-0.516l-0.299-0.565l-0.617-1.127
								c-0.705-1.609-1.394-3.273-1.756-5.074c0.213,0.001,0.492,0.72,0.82,1.387c-0.142-0.439-0.348-1.152-0.331-1.606
								c-0.124,0.927-0.598-1.405-0.574-0.715c-1.402-2.46-1.07-6.243-1.724-8.777c-0.379-0.082-3.516-1.324-6.679-2.708
								c-3.138-1.367-6.291-2.83-6.713-2.818c0.012-0.878,0.023-1.752,0.093-2.02c-0.199,0.229-0.294,1.946-0.166,2.878l0.462,0.155
								c0.203,2.151-0.273,0.5-0.187,2.619c-0.381,0.119-0.504-1.833-0.558-3.523c-0.023,1.525-0.279,3.063,0.166,3.699
								c-0.101,1.482-0.465-0.15-0.558,1.641c0.07,0.626,0.256,1.385,0.379,2.148c0.12,0.763,0.222,1.562,0.196,2.337l-0.068-0.021
								c-0.002,3.757,1.253,5.625,1.778,9.225l-0.221-0.35c0.098,1.309,1.08,3.716,1.865,6.089
								c-0.211-0.687-0.198-1.347,0.428,0.002c0.234,0.675,0.449,1.289,0.717,1.855c0.284,0.565,0.565,1.087,0.835,1.585
								c0.509,1.007,1.099,1.887,1.611,2.875c0,0,0.376,0.378,0.753,0.757c0.183,0.19,0.379,0.371,0.542,0.498
								c0.155,0.13,0.259,0.217,0.259,0.217c1.582,2.058,4.946,5.444,9.767,7.906c4.845,2.701,12.109,4.013,18.493,2.548
								c1.624-0.288,3.146-0.824,4.654-1.342c1.46-0.608,2.9-1.227,4.201-2c0.67-0.359,1.316-0.737,1.914-1.163
								c0.606-0.415,1.215-0.814,1.787-1.238c1.097-0.902,2.199-1.737,3.109-2.686c3.794-3.645,5.978-7.501,7.042-9.717
								l-0.116,0.375c0.385-0.865,0.856-1.737,1.219-2.756c0.379-1.006,0.791-2.079,1.061-3.135c0.15-0.534,0.303-1.08,0.459-1.636
								c0.119-0.537,0.239-1.084,0.361-1.641c0.267-1.122,0.432-2.233,0.623-3.384c0.712-4.579,1.002-9.438,0.924-14.314
								c-0.08-4.876-0.511-9.754-1.39-14.344c-0.185-1.135-0.503-2.291-0.754-3.388c-0.277-1.108-0.646-2.221-0.965-3.269
								c-0.425-1.075-0.782-2.159-1.252-3.085c-0.476-0.923-0.928-1.802-1.355-2.63c-0.287-1.139-1.031-2.336-1.756-3.546
								c-0.378-0.595-0.727-1.22-1.142-1.764c-0.42-0.54-0.826-1.062-1.203-1.546c0.751,1.147,0.25,0.942-0.409,0.124
								c-0.593-0.706-1.026-1.267-1.401-1.633c-0.377-0.365-0.642-0.609-0.83-0.776c-0.376-0.332-0.449-0.349-0.527-0.364
								c-0.078-0.015-0.162-0.027-0.562-0.344c-0.4-0.317-1.099-0.973-2.523-2.012c-0.409-0.304-0.891-0.662-1.435-1.066
								c-0.541-0.412-1.161-0.773-1.824-1.223c-1.333-0.92-2.875-1.81-4.557-2.794c-3.344-1.886-7.168-3.772-10.596-5.658
								c-3.444-1.881-6.422-3.855-8.504-5.707c-0.481-0.482-0.939-0.941-1.37-1.373c-0.207-0.218-0.442-0.411-0.608-0.626
								c-0.165-0.215-0.323-0.421-0.474-0.619c-0.306-0.39-0.584-0.745-0.83-1.058c-0.062-0.078-0.122-0.153-0.179-0.226
								c-0.024-0.049-0.047-0.096-0.069-0.142c-0.046-0.087-0.089-0.167-0.128-0.239c-0.67-0.539-1.229-1.75-1.618-3.063
								c-0.4-1.326-0.656-2.783-0.99-4.079l0.163,0.248c-0.136-0.695-0.338-2.244-0.318-4.259c0.015-2.005,0.228-4.467,0.763-6.786
								c0.5-2.333,1.335-4.474,2.16-5.964c0.831-1.505,1.607-2.349,1.958-2.771c-0.002-0.008-0.27,0.148-0.267,0.161
								c0.577-0.813,0.938-0.988,1.274-1.058c0.166-0.024,0.323-0.046,0.521-0.074c0.21,0.009,0.39-0.063,0.711-0.117
								c-0.096-0.126-0.096-0.266-0.024-0.417c0.082-0.149,0.178-0.322,0.458-0.475c0.513-0.345,1.12-0.553,1.46-0.644l-0.005,0.132
								c0.498-0.103,1.301-0.366,2.191-0.42c0.888-0.066,1.887,0.067,2.697,0.419l-0.201,0.272c0.708,0.136,1.675,0.657,2.511,1.389
								c0.843,0.717,1.536,1.612,1.931,2.099c0.804,1.199,1.631,2.937,2.227,4.916c0.627,1.967,1.034,4.139,1.355,6.144
								c0,0-0.048,0.166-0.119,0.414c-0.085,0.241-0.199,0.562-0.313,0.883c-0.251,0.628-0.521,1.213-0.521,1.213l0.058,0.359
								c0,0,0.687,0.301,1.729,0.759c1.037,0.448,2.445,1.08,3.944,1.601c1.49,0.512,3.094,0.879,4.549,0.614
								c1.451-0.284,2.837-1.307,3.524-3.502l0.321,0.155c0,0,0.006-0.441,0.013-0.883c-0.014-0.438-0.028-0.875-0.028-0.875
								c0.126-2.111-0.398-3.029-0.051-2.918c0,0,0.017,0.177,0.041,0.444c0.013,0.269,0.031,0.626,0.048,0.985
								c0.045,0.714,0.03,1.437,0.03,1.437c0.036-2.112,0.267-0.656,0.455,0.166c0.038-0.898,0.01-1.759,0.066-2.478
								c-0.153-0.409-0.115,0.32-0.166,0.655c-0.167-1.145-0.675-2.657-0.759-4.028c-0.417-2.104,0.535-0.243-0.029-2.713
								c-0.387-1.628-0.89-3.227-1.52-4.792c-0.615-1.568-1.36-3.102-2.246-4.591c-0.873-1.492-1.892-2.94-3.089-4.31
								c-1.19-1.369-2.532-2.678-4.099-3.825c-1.556-1.15-3.295-2.163-5.199-2.929c-1.91-0.753-3.958-1.25-6.027-1.457
								c-2.077-0.218-4.135-0.073-6.1,0.252l-1.454,0.296c-0.472,0.111-0.908,0.249-1.363,0.377l-0.675,0.201
								c-0.233,0.075-0.499,0.178-0.746,0.269c-0.502,0.193-1.004,0.373-1.5,0.6c-0.417,0.06,0.012-0.175,0.456-0.4
								c-2.436,1.096-4.521,2.554-6.209,4.124c-1.709,1.576-3.025,3.283-4.072,5.044c-0.757,0.88-1.043,1.051-1.334,1.273
								c0.143-0.111-0.497,1.06-1.275,2.889c-0.773,1.828-1.6,4.305-2.162,6.788c-0.576,2.483-0.903,4.975-1.06,6.869
								C207.869,251.986,207.849,253.284,207.83,253.363z"/>
						</g>
					</g>
				</g>
			</g>
		</g>
		<g>
			<g>
				<g>
					<g>
						<g>
							<path fill="#FFFFFF" d="M317.387,242.717c0.198,0.352,0.539,0.379,0.862,0.431
								C317.998,242.812,317.734,242.669,317.387,242.717z"/>
							<polygon fill="#FFFFFF" points="318.255,243.155 318.26,243.15 318.249,243.147 							"/>
							<path fill="#FFFFFF" d="M377.892,222.91c-0.081,0.009-0.173,0.019-0.267,0.029
								C377.714,222.947,377.805,222.946,377.892,222.91z"/>
							<path fill="#FFFFFF" d="M333.833,243.437v-0.593c0.744-0.076,0.272,0.654,0.949,0.446c0.199-0.857,1.151-0.017,1.352-0.481
								c0,0.066,0.339,0.062,0.341,0.324c0.063-0.461,0.337-0.136,0.54-0.271c0.066-0.133-0.069-0.13-0.139-0.261l0.473-0.204
								c0.203,0.128,0.274,0.39,0.072,0.458c0.638,0.019,2.52,0.015,4.361-0.075c1.841-0.09,3.689-0.229,4.354-0.413
								c-0.209-0.323-0.602-0.049-0.816-0.568c0.326-0.338,0.536,0.05,0.661-0.282c0.22,0.783,0.804,0.109,1.159,0.889l0.055-0.462
								l0.207,0.258c1.517-0.632,0.343-0.267,1.729-0.304c0.787-0.152,1.099-0.817,1.565-0.633
								c-0.066,0.002-0.271-0.256-0.077-0.393c0.077,0.393,0.519-0.342,0.661,0.048c0.196-0.071,0.854-0.087,0.578-0.607
								c0.139,0.259,0.733,0.31,0.41,0.581c0.198-0.004,0.397,0.056,0.526-0.079l-0.268-0.125c0.656-0.147,1.061,0.235,1.443-0.301
								l-0.268-0.19c0.394-0.076,0.722-0.151,0.932,0.37l-0.391,0.207c0.657-0.082,1.05-0.159,1.57-0.501l-0.197,0.005
								c0.645-0.61,4.217-1.372,4.801-2.105l-0.331-0.391l0.52-0.401c-0.066,0.001-0.147,1.378-0.214,1.247
								c0.582-0.058,2.415-0.362,4.202-0.51c1.793-0.166,3.58-0.291,4.126-0.185c0.447,0.204,0.114,0.659,0.114,0.725
								c0.519-0.19,0.203-0.458,0.654-0.451c0.126,0.067-0.008,0.33-0.074,0.394c0.194-0.062,0.383,0.071,0.388-0.125
								c-0.253-0.136-0.176-0.661-0.298-0.991l0.582,0.007l-0.01,0.329c0.128,0.005,0.285-0.923,0.861-0.771
								c0.959,0.12,1.99-0.02,2.951,0.033c-0.01,0.197-0.208,0.318-0.405,0.438c0.128,0.007,0.323-0.048,0.444,0.09
								c-0.24-0.342,0.395-0.241,0.211-0.383c0.684-0.818,1.607-0.109,2.22-0.668c0.018-0.722,1.268-12.414,1.293-13.271
								c0.209,0.011,0.417,0.021,0.48,0.091c-0.054-0.2-0.465-0.287-0.683-0.167l-0.036,0.46c-0.5,0.173-0.119-0.27-0.608-0.228
								c-0.029-0.375,0.422-0.466,0.82-0.511c-0.358-0.036-0.718-0.301-0.861,0.114c-0.338-0.148,0.034-0.46-0.375-0.611
								c-0.289,0.118-0.664,0.494-1,0.28l0.005-0.066c-0.817-0.369-1.225,0.599-1.971,0.234l0.076-0.128
								c-0.268-0.21-0.773,0.094-1.251-0.126c0.137,0.072,0.263,0.341-0.019,0.393c-0.55-0.224-0.91,0.022-1.317-0.26l-0.364,0.377
								c-1.866,0.027-9.168,0.987-10.951,1.267l0.066-0.065c-1.382,0.22-3.515,0.443-5.631,0.728
								c-2.099,0.298-4.206,0.637-5.598,1.036c-0.476-0.314-1.073-0.167-1.542-0.22c0.271,0.124,0.21,0.388,0.01,0.394
								c-1.383,0.102-0.066,0.259-1.444,0.558c-1.573,0.506-7.757,0.763-9.172,0.555c-0.708,0.6-1.689,0.284-2.402,0.687
								l0.064-0.132c-0.796,0.31-5.299,0.107-6.198,0.349l0.128,0.068c-0.779,0.382-0.706-0.208-1.344-0.349
								c0.117,0.593-0.551,0.977-0.811,1.039l0.003-0.131c-0.388,0.123-1.261,0.717-1.904,0.797l0.011-0.328
								c-0.525,0.365-1.547,0.243-1.934,0.287c-0.895-0.114-2.268-0.651-3.447-0.189l-0.769-0.915l-0.111,0.096
								c0,0-0.3,2.828-0.418,5.952c-0.115,3.121-0.04,6.544,0.814,7.724l-0.026,0.328l0.335-0.05
								c0.404,0.152,0.586-0.232,0.562,0.095l-0.551-0.027c0.405,0.085,0.124,0.266-0.03,0.454c0.169,0.027,0.334,0.063,0.47,0.16
								c0.079-0.127-0.06-0.134-0.124-0.204c0.217-0.121,0.517-0.435,0.784-0.291c0.415,0.021,0.033,0.529,0.519,0.553
								c2.553,0.176,5.085,0.559,7.617,0.279c0.065,0.132-0.004,0.131-0.074,0.197c0.762-0.19,1.448-0.183,2.139-0.374
								c0.204,0.134,0.271,0.332,0.337,0.463c-0.066-0.132,0.896-0.268,1.884-0.363
								C332.805,243.485,333.802,243.408,333.833,243.437z"/>
						</g>
					</g>
				</g>
			</g>
		</g>
		<g>
			<g>
				<g>
					<g>
						<g>
							<path fill="#FFFFFF" d="M323.657,237.396c-0.327,0.306-0.315,0.76-0.331,1.193
								C323.632,238.222,323.744,237.854,323.657,237.396z"/>
							<polygon fill="#FFFFFF" points="323.32,238.598 323.325,238.604 323.326,238.589 							"/>
							<path fill="#FFFFFF" d="M340.179,324.583c-0.02-0.104-0.042-0.223-0.065-0.343
								C340.118,324.358,340.131,324.476,340.179,324.583z"/>
							<path fill="#FFFFFF" d="M323.215,259.636l0.589,0.073c-0.008,1.05-0.681,0.298-0.55,1.27c0.83,0.392-0.112,1.609,0.327,1.953
								c-0.066-0.009-0.099,0.466-0.36,0.43c0.451,0.156,0.098,0.491,0.208,0.793c0.123,0.112,0.138-0.077,0.275-0.155l0.141,0.695
								c-0.154,0.267-0.423,0.327-0.463,0.031c-0.198,1.793-0.96,10.481-0.844,12.494c0.354-0.239,0.15-0.86,0.699-1.068
								c0.278,0.537-0.141,0.766,0.167,1.01c-0.81,0.165-0.244,1.141-1.073,1.501l0.447,0.17l-0.29,0.248
								c0.368,2.324,0.206,0.531,0.008,2.576c0.017,1.193,0.621,1.787,0.36,2.438c0.009-0.098,0.298-0.349,0.4-0.035
								c-0.4,0.035,0.25,0.833-0.159,0.965c0.037,0.304-0.058,1.28,0.501,0.972c-0.279,0.154-0.429,1.022-0.642,0.493
								c-0.03,0.292-0.119,0.579-0.007,0.796l0.166-0.375c0.042,1.004-0.4,1.535,0.068,2.206l0.23-0.362
								c0.012,0.6,0.034,1.102-0.514,1.317l-0.143-0.621c-0.023,0.994-0.01,1.595,0.246,2.433l0.026-0.295
								c0.497,1.072,0.795,6.635,1.473,7.625l0.422-0.445l0.346,0.847c0.006-0.099-1.356-0.425-1.219-0.507
								c-0.011,1.805,0.344,11.244,0.249,12.969c-0.2,0.694-0.658,0.153-0.725,0.147c0.195,0.828,0.46,0.34,0.457,1.05
								c-0.066,0.197-0.33-0.023-0.395-0.13c0.064,0.309-0.067,0.604,0.129,0.618c0.133-0.396,0.66-0.259,0.989-0.44l-0.002,0.91
								l-0.329-0.022c0,0.204,0.917,0.462,0.787,1.362c-0.019,1.517,0.231,3.146,0.282,4.667c-0.197-0.005-0.339-0.312-0.481-0.622
								c0.007,0.205,0.083,0.511-0.042,0.712c0.315-0.399,0.283,0.615,0.405,0.314c0.883,1.027,0.373,2.545,1.024,3.46
								c0.363,0.011,3.496,0.105,6.644,0.201c3.146,0.072,6.299,0.078,6.723,0.017c0.019,0.274,0.037,0.548-0.023,0.642
								c0.19-0.101,0.22-0.648,0.07-0.916l-0.461,0.015c-0.241-0.634,0.251-0.191,0.141-0.826c0.368-0.083,0.521,0.492,0.621,1.003
								c-0.015-0.472,0.2-0.969-0.231-1.104c0.1-0.457,0.461-0.013,0.555-0.557c-0.156-0.358-0.583-0.805-0.416-1.261h0.067
								c0.253-1.083-0.778-1.532-0.464-2.545l0.134,0.092c0.188-0.361-0.158-1.009,0.022-1.646
								c-0.061,0.183-0.319,0.358-0.395-0.009c0.177-0.729-0.099-1.196,0.149-1.735l-0.409-0.474
								c-0.038-0.618-0.087-1.712-0.195-3.028c-0.103-1.318-0.247-2.865-0.317-4.44c-0.212-3.125-0.316-6.307-0.335-7.595
								l0.058,0.102c-0.161-3.924,0.151-12.067-0.144-16.267c0.39-0.626,0.344-1.513,0.475-2.18
								c-0.168,0.367-0.419,0.228-0.391-0.064c0.135-2.053-0.244-0.15-0.305-2.235c-0.209-2.382,0.537-11.6,0.889-13.762
								c-0.488-1.166-0.077-2.618-0.392-3.762l0.124,0.117c-0.145-1.212,0.345-8.188,0.104-9.634l-0.07,0.195
								c-0.371-1.25,0.219-1.092,0.369-2.091c-0.595,0.147-0.969-0.918-1.027-1.326l0.131,0.011
								c-0.125-0.617-0.668-1.991-0.833-3.01l0.33,0.022c-0.406-0.835-0.364-2.447-0.438-3.058c0.076-1.406,0.399-3.64-0.226-5.482
								l0.801-1.328l-0.111-0.168c0,0-2.852-0.154-5.965,0.064c-3.118,0.213-6.492,0.783-7.572,2.048l-0.329,0.002l0.088,0.441
								c-0.105,0.553,0.297,0.759-0.031,0.758l-0.036-0.737c-0.039,0.548-0.25,0.191-0.455,0.008
								c-0.008,0.227-0.025,0.449-0.106,0.637c0.136,0.092,0.127-0.092,0.189-0.183c0.145,0.275,0.492,0.646,0.378,1.013
								c0.026,0.552-0.524,0.088-0.493,0.73c0.079,1.687-0.014,3.388-0.013,5.071c0.016,1.678-0.024,3.385,0.068,5.12
								c-0.133,0.083-0.131-0.011-0.195-0.11c0.167,1.044,0.172,1.965,0.312,2.928c-0.145,0.27-0.346,0.345-0.481,0.425
								C323.248,254.076,323.324,259.534,323.215,259.636z"/>
						</g>
					</g>
				</g>
			</g>
		</g>
		<g>
			<g>
				<g>
					<g>
						<g>
							<path fill="#FFFFFF" d="M316.86,280.232c0.073,0.368,0.286,0.428,0.483,0.511
								C317.232,280.385,317.086,280.219,316.86,280.232z"/>
							<polygon fill="#FFFFFF" points="317.346,280.75 317.35,280.746 317.343,280.743 							"/>
							<path fill="#FFFFFF" d="M354.581,264.79c-0.049,0.007-0.105,0.016-0.162,0.025
								C354.473,264.824,354.528,264.825,354.581,264.79z"/>
							<path fill="#FFFFFF" d="M327.204,282.557l0.045-0.59c0.474-0.005,0.123,0.677,0.565,0.535
								c0.188-0.834,0.729,0.092,0.887-0.351c-0.004,0.066,0.21,0.093,0.194,0.354c0.071-0.453,0.223-0.104,0.359-0.219
								c0.05-0.125-0.035-0.136-0.07-0.273l0.311-0.158c0.12,0.146,0.149,0.414,0.017,0.462c0.399,0.077,1.598,0.258,2.76,0.332
								c1.16,0.072,2.33,0.093,2.754-0.031c-0.12-0.34-0.377-0.102-0.492-0.638c0.217-0.308,0.335,0.097,0.425-0.223
								c0.11,0.799,0.5,0.179,0.698,0.986l0.05-0.456l0.122,0.275c0.973-0.501,0.228-0.23,1.094-0.159
								c0.494-0.092,0.705-0.732,0.99-0.512c-0.042-0.003-0.162-0.276-0.038-0.397c0.038,0.397,0.33-0.301,0.409,0.099
								c0.124-0.056,0.533-0.022,0.372-0.561c0.081,0.269,0.449,0.364,0.243,0.609c0.124,0.01,0.246,0.085,0.329-0.039l-0.164-0.145
								c0.41-0.098,0.655,0.314,0.902-0.191l-0.163-0.209c0.246-0.045,0.451-0.096,0.573,0.439l-0.247,0.177
								c0.41-0.032,0.656-0.079,0.985-0.38l-0.123-0.01c0.411-0.557,2.61-1.112,2.974-1.805l-0.201-0.409l0.321-0.369
								c-0.04-0.003-0.098,1.366-0.138,1.231c0.742-0.086,4.429-0.56,5.09-0.302c0.272,0.221,0.07,0.662,0.07,0.729
								c0.316-0.169,0.124-0.449,0.398-0.424c0.077,0.073-0.004,0.329-0.044,0.39c0.118-0.054,0.234,0.086,0.237-0.11
								c-0.155-0.146-0.108-0.667-0.184-1.001l0.354,0.031l-0.005,0.329c0.078,0.008,0.173-0.907,0.521-0.739
								c0.58,0.133,1.201,0.008,1.781,0.074c-0.005,0.197-0.125,0.315-0.244,0.432c0.078,0.009,0.194-0.043,0.268,0.097
								c-0.146-0.345,0.238-0.235,0.126-0.38c0.412-0.808,0.97-0.085,1.339-0.636c0.042-0.721,0.729-12.394,0.779-13.251
								c0.127,0.013,0.253,0.027,0.292,0.097c-0.033-0.201-0.283-0.293-0.415-0.176l-0.021,0.46
								c-0.304,0.166-0.072-0.271-0.37-0.236c-0.018-0.375,0.256-0.46,0.498-0.5c-0.218-0.041-0.437-0.311-0.523,0.102
								c-0.206-0.153,0.021-0.459-0.228-0.616c-0.176,0.113-0.403,0.485-0.607,0.266l0.003-0.066
								c-0.497-0.38-0.744,0.582-1.198,0.206l0.046-0.126c-0.163-0.214-0.47,0.083-0.761-0.145c0.083,0.075,0.16,0.345-0.011,0.393
								c-0.334-0.231-0.553,0.01-0.801-0.279l-0.221,0.372c-1.125-0.037-5.53,0.659-6.583,0.781l0.04-0.061
								c-0.825,0.132-2.103,0.236-3.363,0.375c-1.244,0.134-2.494,0.31-3.325,0.601c-0.275-0.35-0.63-0.249-0.905-0.338
								c0.156,0.145,0.114,0.403-0.004,0.394c-0.811-0.021-0.045,0.251-0.86,0.427c-0.939,0.368-4.57,0.076-5.358-0.277
								c-0.443,0.531-0.99,0.124-1.427,0.458l0.045-0.125c-0.49,0.236-3.037-0.398-3.566-0.241l0.066,0.08
								c-0.479,0.307-0.382-0.273-0.729-0.474c0.008,0.601-0.41,0.919-0.565,0.956l0.016-0.13c-0.234,0.087-0.796,0.589-1.17,0.613
								l0.043-0.325c-0.339,0.315-0.907,0.102-1.131,0.11c-0.497-0.194-1.2-0.849-1.931-0.496l-0.302-0.974l-0.076,0.085
								c0,0-0.583,2.771-1.118,5.849c-0.531,3.076-1.002,6.466-0.632,7.718l-0.063,0.322l0.219-0.017
								c0.233,0.189,0.403-0.172,0.341,0.149l-0.345-0.081c0.244,0.124,0.041,0.275-0.083,0.447
								c0.104,0.044,0.203,0.095,0.275,0.205c0.068-0.118-0.019-0.139-0.05-0.214c0.155-0.098,0.388-0.38,0.537-0.211
								c0.26,0.061-0.052,0.527,0.253,0.599c1.595,0.422,3.179,1.049,4.811,1.023c0.028,0.137-0.016,0.13-0.067,0.188
								c0.503-0.114,0.939-0.039,1.396-0.161c0.117,0.153,0.142,0.356,0.171,0.494c-0.03-0.138,0.596-0.178,1.232-0.176
								C326.549,282.504,327.188,282.527,327.204,282.557z"/>
						</g>
					</g>
				</g>
			</g>
		</g>
		<g>
			<g>
				<g>
					<g>
						<g>
							<path fill="#FFFFFF" d="M386.703,237.735c-0.296,0.322-0.247,0.723-0.225,1.109
								C386.749,238.478,386.827,238.131,386.703,237.735z"/>
							<polygon fill="#FFFFFF" points="386.473,238.854 386.478,238.858 386.479,238.844 							"/>
							<path fill="#FFFFFF" d="M403.745,323.333c-0.008-0.112-0.018-0.24-0.027-0.369
								C403.708,323.086,403.708,323.212,403.745,323.333z"/>
							<path fill="#FFFFFF" d="M386.836,258.229l0.588,0.085c-0.027,1.018-0.686,0.272-0.574,1.216
								c0.819,0.406-0.136,1.544,0.285,1.912c-0.066-0.011-0.115,0.462-0.375,0.42c0.446,0.166,0.081,0.493,0.182,0.797
								c0.121,0.114,0.14-0.073,0.28-0.148l0.126,0.693c-0.159,0.261-0.429,0.314-0.464,0.021c-0.126,0.884-0.406,3.467-0.623,6.196
								c-0.051,0.675-0.103,1.351-0.153,2c-0.026,0.672-0.051,1.318-0.074,1.908c-0.035,1.182-0.037,2.144,0.01,2.66
								c0.348-0.263,0.128-0.901,0.671-1.135c0.292,0.546-0.121,0.798,0.192,1.04c-0.807,0.206-0.217,1.197-1.013,1.574l0.456,0.148
								l-0.275,0.258c0.502,2.278,0.237,0.52,0.157,2.54c0.085,1.169,0.723,1.721,0.499,2.373c0.003-0.097,0.278-0.355,0.398-0.054
								c-0.398,0.054,0.296,0.804-0.104,0.954c0.054,0.296,0.015,1.257,0.556,0.928c-0.27,0.165-0.37,1.022-0.613,0.514
								c-0.012,0.289-0.089,0.57,0.035,0.777l0.147-0.372c0.092,0.976-0.323,1.511,0.178,2.143l0.212-0.363
								c0.042,0.583,0.089,1.07-0.447,1.305l-0.173-0.598c0.026,0.968,0.069,1.552,0.367,2.355l0.011-0.288
								c0.552,1.022,1.067,6.388,1.754,7.321l0.413-0.442l0.363,0.807c0.004-0.096-1.364-0.369-1.229-0.452
								c0.062,1.774,0.504,10.715,0.243,12.318c-0.223,0.646-0.663,0.123-0.729,0.117c0.167,0.779,0.449,0.332,0.421,0.997
								c-0.073,0.183-0.329-0.034-0.39-0.136c0.054,0.291-0.088,0.562,0.108,0.583c0.147-0.366,0.668-0.218,1.003-0.375
								l-0.034,0.855l-0.329-0.034c-0.007,0.19,0.903,0.475,0.738,1.317c-0.123,1.419,0.012,2.958-0.045,4.385
								c-0.197-0.021-0.317-0.32-0.437-0.619c-0.007,0.191,0.046,0.482-0.092,0.659c0.343-0.347,0.24,0.597,0.382,0.327
								c0.815,1.04,0.101,2.396,0.657,3.315c0.722,0.073,12.407,1.963,13.264,1.968c-0.012,0.29-0.023,0.577-0.093,0.666
								c0.2-0.074,0.289-0.644,0.17-0.946l-0.46-0.052c-0.171-0.695,0.271-0.163,0.23-0.843c0.375-0.036,0.464,0.589,0.507,1.14
								c0.037-0.496,0.305-0.99-0.109-1.191c0.15-0.467,0.46,0.051,0.613-0.511c-0.115-0.4-0.49-0.925-0.273-1.385l0.065,0.009
								c0.374-1.119-0.592-1.707-0.222-2.729l0.127,0.109c0.213-0.362-0.089-1.07,0.135-1.723c-0.073,0.186-0.343,0.349-0.393-0.042
								c0.227-0.75-0.017-1.258,0.269-1.808l-0.375-0.521c0.038-2.592-0.621-12.915-0.713-15.463l0.06,0.1
								c-0.235-3.93-0.312-12.001-0.874-16.065c0.354-0.63,0.258-1.497,0.351-2.153c-0.146,0.365-0.405,0.241-0.395-0.044
								c0.016-1.999-0.252-0.134-0.434-2.156c-0.167-1.173-0.119-3.799,0.073-6.528c0.106-1.367,0.233-2.723,0.357-3.864
								c0.132-1.168,0.262-2.121,0.364-2.639c-0.48-1.154,0.005-2.511-0.3-3.669l0.122,0.119c-0.082-0.612,0.073-2.616,0.206-4.667
								c0.082-2.091,0.161-4.214,0.066-4.934l-0.077,0.195c-0.341-1.256,0.214-1.109,0.357-2.132
								c-0.593,0.155-0.987-0.93-1.054-1.344l0.132,0.008c-0.147-0.632-0.693-2.011-0.894-3.049l0.332,0.012
								c-0.457-0.846-0.513-2.504-0.627-3.13c-0.045-0.73,0.087-1.669-0.036-2.673c-0.106-1.002-0.301-2.062-0.725-2.981
								l0.628-1.483l-0.131-0.163c0,0-2.842,0.204-5.887,0.866c-3.055,0.651-6.307,1.718-7.267,2.998l-0.324,0.048l0.125,0.382
								c-0.056,0.506,0.361,0.639,0.036,0.68l-0.1-0.652c0.009,0.494-0.231,0.203-0.449,0.069c0.012,0.202,0.014,0.401-0.051,0.578
								c0.143,0.064,0.118-0.098,0.171-0.187c0.167,0.224,0.543,0.512,0.463,0.852c0.076,0.486-0.512,0.139-0.424,0.7
								c0.339,3.007,0.247,6.009,0.44,9.225c-0.132,0.078-0.132-0.009-0.197-0.099c0.093,0.479,0.148,0.928,0.184,1.378
								c0.021,0.459,0.043,0.908,0.115,1.362c-0.147,0.254-0.349,0.323-0.485,0.398c0.136-0.076,0.206,1.176,0.236,2.459
								c0.026,0.63-0.016,1.323-0.031,1.826C386.879,257.859,386.854,258.208,386.836,258.229z"/>
						</g>
					</g>
				</g>
			</g>
		</g>
		<g>
			<g>
				<g>
					<g>
						<g>
							<path fill="#FFFFFF" d="M382.609,330.801c0.141,0.358,0.384,0.396,0.615,0.457
								C383.047,330.915,382.858,330.764,382.609,330.801z"/>
							<polygon fill="#FFFFFF" points="383.229,331.266 383.232,331.261 383.225,331.258 							"/>
							<path fill="#FFFFFF" d="M428.012,315.311c-0.057,0.008-0.12,0.018-0.185,0.027
								C427.89,315.347,427.954,315.347,428.012,315.311z"/>
							<path fill="#FFFFFF" d="M394.39,332.411l0.045-0.591c0.555,0.001,0.151,0.679,0.666,0.541
								c0.214-0.832,0.851,0.101,1.035-0.341c-0.005,0.066,0.246,0.096,0.226,0.357c0.084-0.452,0.26-0.102,0.42-0.215
								c0.059-0.125-0.04-0.136-0.081-0.273l0.365-0.154c0.14,0.148,0.17,0.415,0.016,0.462c0.945,0.179,5.489,0.687,6.514,0.477
								c-0.127-0.345-0.445-0.118-0.558-0.659c0.274-0.297,0.396,0.112,0.52-0.203c0.093,0.803,0.591,0.201,0.784,1.017l0.083-0.453
								l0.131,0.28c1.195-0.455,0.269-0.221,1.333-0.109c0.619-0.067,0.918-0.696,1.259-0.463c-0.051-0.005-0.184-0.284-0.023-0.399
								c0.023,0.399,0.428-0.284,0.502,0.118c0.157-0.05,0.664,0.004,0.496-0.542c0.084,0.272,0.535,0.386,0.265,0.62
								c0.152,0.017,0.3,0.098,0.41-0.022l-0.194-0.152c0.516-0.078,0.794,0.346,1.132-0.146l-0.189-0.218
								c0.309-0.033,0.565-0.073,0.685,0.467l-0.316,0.164c0.511-0.012,0.819-0.046,1.245-0.332l-0.151-0.016
								c0.544-0.536,3.377-0.973,3.87-1.646l-0.231-0.42l0.427-0.351c-0.051-0.005-0.199,1.358-0.243,1.222
								c0.464-0.03,1.873-0.076,3.308-0.179c1.433-0.093,2.854-0.146,3.288-0.018c0.353,0.221,0.079,0.662,0.077,0.729
								c0.419-0.169,0.17-0.45,0.53-0.425c0.101,0.073-0.011,0.329-0.064,0.391c0.156-0.055,0.307,0.086,0.312-0.109
								c-0.201-0.146-0.133-0.668-0.226-1.002l0.462,0.031l-0.011,0.328c0.104,0.007,0.233-0.904,0.69-0.741
								c0.768,0.118,1.591-0.021,2.36,0.031c-0.003,0.197-0.159,0.318-0.316,0.438c0.104,0.008,0.258-0.048,0.358,0.091
								c-0.199-0.342,0.312-0.241,0.161-0.383c0.527-0.817,1.286-0.108,1.755-0.667c0.021-0.722,0.41-12.396,0.351-13.251
								c0.147,0.012,0.293,0.022,0.342,0.092c-0.049-0.2-0.341-0.288-0.486-0.168l-0.002,0.459c-0.343,0.172-0.097-0.27-0.438-0.229
								c-0.037-0.375,0.273-0.465,0.548-0.509c-0.252-0.036-0.514-0.303-0.595,0.111c-0.241-0.149,0.003-0.459-0.286-0.611
								c-0.195,0.116-0.441,0.491-0.683,0.276l0.001-0.066c-0.577-0.371-0.832,0.595-1.361,0.227l0.05-0.128
								c-0.189-0.211-0.534,0.091-0.87-0.131c0.097,0.073,0.188,0.343-0.007,0.393c-0.385-0.226-0.632,0.019-0.917-0.266
								l-0.251,0.376c-1.313-0.045-6.454,0.684-7.826,0.678l0.052-0.059c-2.04,0.177-6.229,0.135-8.347,0.635
								c-0.322-0.362-0.773-0.278-1.112-0.381c0.188,0.151,0.119,0.408-0.028,0.393c-1.047-0.055-0.073,0.25-1.138,0.389
								c-1.228,0.317-5.905-0.143-6.985-0.469c-0.592,0.524-1.313,0.108-1.891,0.438l0.06-0.125
								c-0.604,0.185-4.104-0.351-4.835-0.164l0.096,0.077c-0.633,0.325-0.541-0.258-1.035-0.445
								c0.059,0.601-0.484,0.935-0.69,0.978l0.009-0.13c-0.311,0.097-1.018,0.61-1.53,0.686l0.022-0.328
								c-0.43,0.349-1.231,0.193-1.538,0.226c-0.7-0.144-1.781-0.725-2.721-0.301l-0.605-0.94l-0.089,0.092
								c0,0-0.966,11.271,0.251,13.687l-0.02,0.327l0.24-0.04c0.288,0.164,0.422-0.214,0.402,0.112l-0.395-0.044
								c0.29,0.098,0.087,0.27-0.024,0.453c0.121,0.033,0.238,0.073,0.334,0.175c0.058-0.125-0.042-0.136-0.086-0.207
								c0.156-0.114,0.374-0.42,0.563-0.267c0.296,0.034,0.018,0.53,0.363,0.569c1.823,0.271,3.585,0.669,5.427,0.613
								c0.041,0.137-0.009,0.131-0.063,0.191c0.556-0.136,1.048-0.079,1.556-0.221c0.138,0.147,0.174,0.35,0.213,0.486
								C391.458,332.329,394.333,332.333,394.39,332.411z"/>
						</g>
					</g>
				</g>
			</g>
		</g>
		<g>
			<g>
				<g>
					<g>
						<g>
							<path fill="#FFFFFF" d="M468.424,236.99c-0.884,0.083-2.229,0.666-3.392,1.36
								C466.083,238.071,467.146,237.707,468.424,236.99z"/>
							<path fill="#FFFFFF" d="M465.006,238.358l-0.016,0.015c0.017-0.009,0.028-0.015,0.042-0.022
								C465.022,238.354,465.015,238.355,465.006,238.358z"/>
							<path fill="#FFFFFF" d="M467.396,253.671c0.153-0.046,0.312-0.093,0.475-0.142c0.171-0.052,0.335-0.104,0.416-0.137
								c0.21-0.078,0.427-0.159,0.645-0.24C468.417,253.326,467.9,253.501,467.396,253.671z"/>
							<path fill="#FFFFFF" d="M436.792,292.624l0.595,0.181c0.093,2.982-0.667,0.887-0.39,3.666
								c0.866,1.024,0.278,4.667,0.882,5.612c-0.073-0.015,0.091,1.378-0.172,1.331c0.518,0.36,0.319,1.42,0.609,2.29
								c0.184,0.298,0.09-0.261,0.18-0.523c0,0,0.134,0.498,0.268,0.995c0.127,0.496,0.287,0.996,0.287,0.996
								c0.03,0.823-0.186,1.083-0.424,0.225c0.248,1.339,0.768,3.971,1.979,7.306c1.189,3.307,3.179,7.417,6.45,11.077
								c1.633,1.815,3.572,3.467,5.625,4.771c0.975,0.649,2.177,1.262,3.304,1.803c0.979,0.377,1.949,0.757,2.85,1.057
								c3.479,1.159,6.652,1.608,8.387,1.652c-0.868-0.372-2.945-0.47-3.613-1.134c1.771-0.011,2.529,0.513,3.354,0.247
								c0.61,0.913,3.926,0.396,5.416,1.015l0.493-0.494l0.966,0.146c4.095-0.92,4.461-1.363,4.822-1.401
								c0.327-0.128,0.664,0.042,4.015-1.487c1.891-0.981,3.057-2.003,4.016-2.85c0.934-0.871,1.687-1.581,2.561-2.235
								c-0.247,0.217-1.068,0.58-0.394-0.182c0.193,0.091,0.656-0.412,1.118-0.95c0.444-0.549,0.905-1.123,1.221-1.159
								c0.323-0.365,0.978-1.134,1.434-1.747c0.428-0.625,0.633-1.096,0.105-0.864c0.261-0.116,0.845-0.685,1.233-1.062
								c0.383-0.378,0.612-0.55,0.243,0.17c0.531-0.728,1.133-1.395,1.366-2.005c0,0-0.188,0.219-0.376,0.438
								c-0.198,0.216-0.397,0.431-0.397,0.431c1.637-2.535,2.771-3.753,3.225-5.668l-0.697,0.85c0.809-1.549,1.36-2.861,2.138-3.253
								c0,0-0.14,0.421-0.301,0.84c-0.157,0.42-0.314,0.84-0.314,0.84c1.252-2.603,1.859-4.212,2.392-6.502l-0.3,0.777
								c0.309-1.486,1.547-5.909,2.251-10.31c0.732-4.402,0.998-8.77,0.785-10.099l-0.554,1.14c0,0-0.023-0.563-0.047-1.126
								c-0.03-0.562-0.06-1.123-0.06-1.123c-0.023,0.257,1.243,1.211,1.078,1.42c0.283-2.395,0.848-9.838,0.165-17.302
								c-0.327-3.733-0.906-7.468-1.656-10.572c-0.722-3.102-1.595-5.571-1.984-6.739c-0.555-1.938,0.475-0.592,0.548-0.588
								c-0.539-1.112-0.771-1.312-0.944-1.479c-0.182-0.167-0.291-0.298-0.765-1.27c-0.22-0.563,0.358-0.042,0.555,0.232
								c-0.48-0.832-0.799-1.695-1.001-1.662c0.446,1.137-0.255,0.936-0.314,1.534c0,0-0.304-0.611-0.648-1.221
								c-0.362-0.609-0.725-1.217-0.725-1.217l0.342-0.072c-0.162-0.274-0.605-0.496-1.164-0.936
								c-0.271-0.221-0.616-0.494-0.993-0.856c-0.362-0.365-0.791-0.813-1.3-1.387c-1.483-1.596-3.508-3.133-6.002-4.071
								l0.562,0.244c-2.39-1.15-4.983-2.091-7.625-2.664c0.107-0.177,1.093-0.067,2.093,0.063c-0.617-0.161-1.563-0.348-2.114-0.603
								c1.07,0.527-2.021-0.082-1.155,0.207c-1.767,0.096-3.735,0.086-5.656,0.165c-1.906,0.144-3.756,0.43-5.081,1.073
								c-0.062,0.374-0.69,3.776-0.742,7.106c-0.047,3.356-0.094,6.708-0.101,7.151c-0.257,0.084-0.513,0.168-0.758,0.249
								c-0.369,0.107-0.725,0.201-1.047,0.277c-0.08,0.019-0.159,0.037-0.235,0.054c-0.138,0.024-0.271,0.048-0.399,0.07
								c-0.285,0.044-0.551,0.076-0.792,0.097c-0.482,0.042-0.86,0.044-1.1,0.034c0.201,0.043,0.747,0.072,1.507,0.001
								c0.961-0.104,1.179-0.183,1.757-0.316c0.129-0.034,0.26-0.069,0.392-0.105l0.272-0.085c0.167-0.058,0.335-0.116,0.498-0.173
								c0.357-0.13,0.566-0.228,0.744-0.326l-0.03-0.479c0.44-0.211,0.624-0.281,0.758-0.312c0.131-0.03,0.187-0.01,0.242,0.014
								c0.102,0.055,0.254,0.095,0.887-0.135c0.085,0.172-0.126,0.356-0.562,0.593c-0.434,0.233-1.028,0.498-1.896,0.834
								c0.788-0.263,1.359-0.404,1.803-0.541c0.469-0.156,0.747-0.276,0.881-0.543c0.902-0.136,0.072,0.45,1.086,0.308
								c0.636-0.311,1.398-0.847,2.14-0.723l-0.004,0.067c0.863,0.097,1.456-0.075,2.083-0.181c0.616-0.13,1.26-0.181,2,0.151
								l-0.191,0.079c0.251,0.181,0.653,0.266,1.121,0.348c0.469,0.155,1.003,0.298,1.467,0.605
								c-0.258-0.191-0.422-0.544,0.218-0.331c0.427,0.299,0.822,0.496,1.195,0.662l0.843,0.366
								c0.075,0.079,0.208,0.076,0.268,0.363c0,0,0.124-0.028,0.249-0.057c0.143,0.008,0.285,0.016,0.285,0.016
								c0.399,0.361,1.46,1.466,2.562,3.822c1.098,2.313,2.104,5.659,2.732,9.208c0.631,3.556,0.931,7.294,0.974,10.49
								c0.059,3.2-0.1,5.858-0.232,7.382l-0.036-0.245c-0.307,4.633-1.406,11.783-3.806,18.232
								c-1.188,3.211-2.658,6.229-4.257,8.623c-1.585,2.422-3.27,4.181-4.668,5.355c-1.112,0.398-2.335,1.152-3.373,1.425
								c0.604-0.084,0.521,0.226,0.071,0.396c-1.573,0.524-1.64,0.5-1.674,0.626c-0.048,0.085-0.052,0.291-1.8,0.549
								c-1.004,0.183-2.819,0.232-5.144-0.301c-0.577-0.11-1.188-0.298-1.817-0.493c-0.647-0.178-1.18-0.433-1.801-0.638
								c-0.783-0.383-1.856-1.062-2.685-1.835c-1.719-1.558-3.09-3.793-3.944-6.013c-0.892-2.184-1.315-4.246-1.515-5.36
								c-1.1-2.277-1.159-5.541-1.676-8.076l0.146,0.249c-0.234-1.356-0.412-6.02-0.09-10.839c0.079-1.203,0.168-2.411,0.278-3.573
								c0.056-0.581,0.096-1.084,0.163-1.579c0.079-0.465,0.157-0.915,0.23-1.343c0.108-0.845,0.332-1.666,0.47-2.337
								c0.132-0.677,0.256-1.22,0.354-1.587l-0.189,0.37c0.217-1.309,0.425-1.849,0.697-2.285c0.293-0.433,0.622-0.774,1.055-1.717
								c-0.696,0.041-0.114-2.205,0.199-3.04l0.106,0.085c0.223-0.63,0.589-1.668,0.992-2.808c0.483-1.106,0.961-2.363,1.573-3.299
								l0.229,0.25c0.642-1.801,2.956-4.456,3.8-5.474c1.054-1.103,2.521-2.365,4.095-3.648c0.798-0.621,1.619-1.259,2.438-1.896
								c0.849-0.578,1.612-1.291,2.411-1.862c0,0,0.66-0.134,1.319-0.269c0.324-0.071,0.649-0.13,0.9-0.151
								c0.247-0.029,0.412-0.049,0.412-0.049l0.275-0.248c0,0-0.114-0.736-0.337-1.856c-0.226-1.119-0.548-2.628-1.029-4.136
								c-0.973-2.992-2.604-6.034-6.363-5.401l-0.062-0.337c0,0-0.301,0.182-0.593,0.377c-0.292,0.193-0.585,0.386-0.585,0.386
								c-1.52,0.748-1.967,1.48-2.046,1.154c0,0,0.489-0.305,0.984-0.601c0.495-0.295,0.99-0.591,0.99-0.591
								c-1.488,0.81-0.579,0.042-0.119-0.459c-0.622,0.347-1.231,0.679-1.769,0.896c-0.217,0.284,0.284-0.018,0.548-0.098
								c-0.74,0.559-1.557,1.58-2.548,2.092c-1.406,1-0.437-0.394-2.029,0.85c-4.235,3.25-7.921,6.994-11.058,11.164
								c-3.14,4.167-5.704,8.794-7.541,13.867c-0.211,0.184-0.107-0.09-0.058-0.405c-0.251,0.777-0.495,1.531-0.733,2.27
								c-0.236,0.74-0.419,1.486-0.625,2.211c-0.432,1.442-0.695,2.911-0.953,4.385c-0.331,0.773-0.531,1.014-0.717,1.235
								c0.089-0.117-0.023,0.902-0.218,2.498c-0.142,1.604-0.235,3.414-0.329,5.341c-0.086,1.917-0.141,3.865-0.148,5.359
								C436.8,291.531,436.806,292.561,436.792,292.624z"/>
						</g>
					</g>
				</g>
			</g>
		</g>
		<g>
			<g>
				<g>
					<g>
						<g>
							<path fill="#FFFFFF" d="M517.159,245.182c0.376,0.351,1.041,0.385,1.647,0.428
								C518.335,245.283,517.821,245.133,517.159,245.182z"/>
							<polygon fill="#FFFFFF" points="518.819,245.617 518.828,245.612 518.806,245.609 							"/>
							<path fill="#FFFFFF" d="M531.957,291.38c0.155-0.008,0.331-0.018,0.51-0.027C532.295,291.344,532.122,291.345,531.957,291.38
								z"/>
							<path fill="#FFFFFF" d="M544.812,246.377l0.156-0.574c1.079,0.16,0.223,0.698,1.197,0.741c0.26-0.37,0.669-0.283,1.03-0.123
								c0.358,0.164,0.693,0.369,0.908,0.192c-0.018,0.056,0.41,0.201,0.305,0.45c0.254-0.396,0.461,0.033,0.76,0.001
								c0.136-0.091-0.029-0.15-0.061-0.303c-0.001,0,0.668,0.032,0.658,0.043c0.181,0.225,0.143,0.495-0.116,0.45
								c0.18,0.09,0.445,0.216,0.777,0.364c0.309,0.163,0.677,0.357,1.085,0.573c0.757,0.47,1.616,1.025,2.332,1.676
								c1.45,1.267,2.5,2.958,2.985,3.611c0.099-0.173,0.042-0.345,0.002-0.521c-0.052-0.163-0.079-0.339,0.094-0.564
								c0.5,0.176,0.251,0.573,0.612,0.584c-0.627,0.554,0.324,0.911-0.287,1.602l0.462-0.08l-0.161,0.318
								c0.641,0.768,0.691,0.926,0.721,0.995c0.016,0.091-0.041,0.172,0.224,1.049c0.364,1.029,1.167,1.392,1.04,2.021
								c-0.014-0.085,0.206-0.382,0.378-0.136c-0.381,0.131,0.442,0.669,0.08,0.882c0.104,0.255,0.148,1.08,0.656,0.728
								c-0.25,0.186-0.247,0.93-0.55,0.519c0.036,0.255-0.057,0.473,0.076,0.632l0.14-0.31c0.054,0.392-0.013,0.701-0.026,0.969
								c-0.018,0.268-0.036,0.465,0.211,0.72l0.227-0.269c0.015,0.449,0.062,0.849-0.519,0.935c0.012,0.005-0.111-0.427-0.127-0.435
								c-0.054,0.677-0.049,1.062,0.088,1.63l0.059-0.18c0.205,0.401,0.158,1.483-0.17,2.572c-0.316,1.085-0.966,2.22-1.063,2.733
								l0.575,0.039l-0.292,0.753c0.074-0.064-0.677-1.231-0.538-1.172c-0.439,0.522-2.228,2.118-4.729,3.312
								c-2.45,1.218-5.345,2.005-6.249,2.069c-0.75-0.043-0.281-0.613-0.292-0.679c-0.807,0.358-0.264,0.519-1,0.65
								c-0.216-0.029-0.029-0.33,0.068-0.413c-0.308,0.12-0.633,0.045-0.616,0.242c0.431,0.058,0.372,0.604,0.615,0.895
								c0,0-0.24,0.043-0.481,0.085c-0.244,0.037-0.487,0.075-0.487,0.075l-0.021-0.33c-0.216,0.027-0.372,0.991-1.373,0.99
								c-1.651,0.147-3.442,0.484-5.137,0.571c0.007-0.2,0.352-0.339,0.689-0.497c-0.224,0.018-0.562,0.097-0.782-0.026
								c0.438,0.31-0.685,0.293-0.354,0.411c-1.172,0.918-2.843,0.271-3.921,0.862c-0.033,0.363-0.514,3.471-1.074,6.6
								c-0.553,3.133-1.184,6.257-1.181,6.689c-0.398-0.012-0.795-0.024-0.917-0.094c0.103,0.201,0.889,0.29,1.304,0.171l0.065-0.46
								c0.952-0.172,0.229,0.271,1.162,0.218c0.061,0.374-0.802,0.482-1.562,0.52c0.685,0.042,1.376,0.296,1.645-0.124
								c0.649,0.138-0.06,0.461,0.725,0.6c0.553-0.125,1.265-0.534,1.912-0.34l-0.008,0.067c1.582,0.297,2.334-0.719,3.784-0.468
								l-0.141,0.139c0.523,0.18,1.488-0.231,2.426-0.101c-0.27-0.046-0.526-0.291,0.014-0.396c1.08,0.089,1.76-0.227,2.576-0.068
								l0.681-0.484c1.832-0.266,6.373-1.197,10.961-3.064c2.289-0.915,4.586-2.096,6.5-3.342c0.959-0.592,1.82-1.258,2.548-1.808
								c0.721-0.606,1.324-1.077,1.746-1.491l-0.096,0.169c1.291-1.215,2.889-2.897,4.321-5.121c1.445-2.207,2.585-5.001,3.13-7.796
								c0.555-2.8,0.561-5.557,0.279-7.914c-0.17-1.157-0.35-2.267-0.599-3.236c-0.268-0.953-0.488-1.868-0.781-2.6
								c0.065-1.037-0.367-2.315-0.673-3.338c0.062,0.602-0.251,0.497-0.395,0.068c-0.531-1.498-0.627-1.522-0.732-1.542
								c-0.106-0.019-0.23-0.039-0.983-1.481c-0.219-0.409-0.565-0.959-0.959-1.621c-0.198-0.331-0.411-0.688-0.639-1.068
								c-0.252-0.372-0.519-0.766-0.798-1.177c-0.527-0.836-1.249-1.672-1.942-2.563c-0.771-0.839-1.548-1.734-2.439-2.514
								c-3.473-3.303-7.698-5.198-9.175-5.896c-1.854-0.146-3.815-1.078-5.512-1.093l0.188-0.091
								c-0.888-0.092-3.752-0.706-6.563-0.987c-2.816-0.309-5.581-0.402-6.508-0.299l0.251,0.077
								c-1.628,0.326-1.396-0.241-2.678-0.408c0.174,0.591-1.177,0.972-1.69,1.034l0.016-0.131c-0.78,0.124-2.502,0.72-3.749,0.867
								l0.032-0.33c-1.034,0.404-2.983,0.37-3.717,0.446c-1.696-0.041-4.279-0.464-6.396,0.025c0,0-0.35-0.224-0.7-0.448
								c-0.341-0.229-0.681-0.458-0.681-0.458l-0.195,0.095c0,0-0.517,2.826-0.736,5.949c-0.209,3.121-0.09,6.544,1.556,7.728
								l-0.046,0.327l0.633-0.055c0.759,0.141,1.096-0.249,1.055,0.079l-1.035-0.011c0.761,0.074,0.236,0.262-0.05,0.455
								c0.318,0.023,0.628,0.054,0.884,0.147c0.146-0.13-0.114-0.133-0.234-0.2c0.407-0.126,0.964-0.45,1.453-0.321
								c0.765,0,0.07,0.528,0.964,0.526c4.679,0.038,8.958,0.09,13.179-0.069c0.099,0.134-0.016,0.131-0.135,0.194
								c1.266-0.167,2.375-0.121,3.493-0.248c0.306,0.154,0.385,0.357,0.472,0.495c-0.087-0.14,1.449-0.187,2.939-0.099
								c0.754,0.033,1.484,0.112,2.037,0.18C544.44,246.274,544.787,246.363,544.812,246.377z"/>
						</g>
					</g>
				</g>
			</g>
		</g>
		<g>
			<g>
				<g>
					<g>
						<g>
							<path fill="#FFFFFF" d="M519.529,239.93c-0.335,0.264-0.336,0.634-0.362,0.989
								C519.481,240.616,519.601,240.307,519.529,239.93z"/>
							<polygon fill="#FFFFFF" points="519.16,240.927 519.165,240.932 519.167,240.919 							"/>
							<path fill="#FFFFFF" d="M533.097,324.591c-0.006-0.104-0.012-0.221-0.018-0.34
								C533.067,324.365,533.064,324.481,533.097,324.591z"/>
							<path fill="#FFFFFF" d="M518.345,261.034l0.589,0.079c-0.018,1.023-0.684,0.282-0.562,1.231
								c0.826,0.39-0.127,1.568,0.309,1.906c-0.066-0.009-0.104,0.453-0.364,0.417c0.45,0.154,0.094,0.479,0.201,0.774
								c0.124,0.109,0.138-0.074,0.276-0.149l0.144,0.673c-0.153,0.258-0.422,0.314-0.464,0.029
								c-0.199,1.74-0.918,10.145-0.77,12.048c0.352-0.23,0.142-0.823,0.688-1.025c0.283,0.511-0.133,0.732,0.176,0.965
								c-0.808,0.162-0.231,1.092-1.057,1.44l0.448,0.161l-0.287,0.238c0.39,2.219,0.212,0.512,0.028,2.46
								c0.024,1.133,0.633,1.695,0.376,2.315c0.009-0.093,0.296-0.332,0.4-0.034c-0.4,0.034,0.255,0.792-0.153,0.918
								c0.039,0.289-0.05,1.216,0.508,0.924c-0.278,0.147-0.423,0.972-0.639,0.468c-0.027,0.279-0.118,0.547-0.007,0.753
								l0.167-0.354c0.04,0.949-0.403,1.448,0.063,2.084l0.231-0.341c0.011,0.567,0.032,1.042-0.516,1.242l-0.142-0.587
								c-0.025,0.938-0.014,1.505,0.241,2.299l0.026-0.278c0.497,1.016,0.722,6.253,1.356,7.201l0.437-0.406l0.318,0.805
								c0.01-0.093-1.342-0.439-1.202-0.511c-0.035,1.691-0.073,10.531-0.412,12.095c-0.257,0.625-0.669,0.089-0.734,0.079
								c0.126,0.777,0.431,0.35,0.368,1.004c-0.082,0.176-0.326-0.05-0.382-0.152c0.038,0.289-0.116,0.552,0.079,0.581
								c0.164-0.355,0.677-0.184,1.02-0.323l-0.074,0.845l-0.326-0.05c-0.017,0.188,0.879,0.511,0.674,1.335
								c-0.189,1.398-0.135,2.918-0.243,4.342c-0.196-0.027-0.305-0.329-0.411-0.632c-0.016,0.19,0.026,0.482-0.119,0.653
								c0.356-0.333,0.215,0.604,0.369,0.339c0.776,1.067-0.006,2.375,0.535,3.334c0.358,0.06,3.448,0.576,6.555,1.096
								c3.106,0.504,6.23,0.958,6.658,0.96c-0.019,0.267-0.037,0.532-0.109,0.614c0.202-0.069,0.306-0.594,0.193-0.873l-0.458-0.051
								c-0.153-0.645,0.274-0.148,0.251-0.776c0.376-0.029,0.449,0.548,0.479,1.055c0.049-0.457,0.328-0.907-0.08-1.099
								c0.161-0.427,0.458,0.053,0.625-0.46c-0.104-0.372-0.473-0.849-0.236-1.285l0.066,0.009c0.417-1.05-0.526-1.636-0.116-2.596
								l0.123,0.108c0.228-0.338-0.05-1.016,0.203-1.633c-0.082,0.176-0.359,0.322-0.391-0.055c0.262-0.711,0.042-1.209,0.353-1.724
								l-0.35-0.517c0.145-2.482,0.036-12.463,0.086-15.004l0.055,0.102c-0.022-3.873,0.346-11.815-0.007-15.847
								c0.386-0.605,0.335-1.464,0.462-2.106c-0.165,0.354-0.417,0.221-0.392-0.06c0.12-1.969-0.243-0.142-0.323-2.143
								c-0.244-2.306,0.44-11.09,0.798-13.133c-0.506-1.115-0.066-2.478-0.376-3.564l0.123,0.111
								c-0.158-1.156,0.454-7.724,0.261-9.095l-0.077,0.182c-0.326-1.189,0.257-1.023,0.443-1.959
								c-0.6,0.121-0.936-0.896-0.979-1.283l0.131,0.015c-0.091-0.58-0.622-1.912-0.721-2.887l0.329,0.034
								c-0.364-0.809-0.239-2.339-0.282-2.923c0.048-0.68,0.181-1.565,0.247-2.503c0.066-0.933,0.067-1.919-0.268-2.937l0.801-1.406
								l-0.111-0.182c0,0-2.852-0.168-5.956,0.117c-3.111,0.269-6.471,0.938-7.584,2.001l-0.327,0.007l0.076,0.364
								c-0.118,0.457,0.281,0.628-0.048,0.625l-0.019-0.607c-0.052,0.452-0.255,0.158-0.455,0.011
								c-0.014,0.186-0.035,0.366-0.121,0.519c0.134,0.075,0.129-0.075,0.193-0.149c0.136,0.227,0.48,0.522,0.354,0.84
								c-0.009,0.52-0.527,0.067-0.537,0.671c-0.057,1.589-0.137,3.139-0.251,4.801c-0.086,1.624-0.151,3.269-0.134,4.98
								c-0.136,0.077-0.131-0.016-0.19-0.114c0.136,1.024,0.081,1.934,0.223,2.868c-0.15,0.26-0.354,0.329-0.49,0.404
								C518.484,255.6,518.417,260.951,518.345,261.034z"/>
						</g>
					</g>
				</g>
			</g>
		</g>
		<g>
			<g>
				<g>
					<g>
						<g>
							<path fill="#FFFFFF" d="M531.537,291.771c0.36,0.336,0.935,0.336,1.481,0.362
								C532.583,291.818,532.124,291.697,531.537,291.771z"/>
							<polygon fill="#FFFFFF" points="533.029,292.141 533.037,292.136 533.018,292.134 							"/>
							<path fill="#FFFFFF" d="M598.763,360.348c-0.097-0.017-0.207-0.035-0.318-0.055
								C598.547,360.329,598.655,360.356,598.763,360.348z"/>
							<path fill="#FFFFFF" d="M554.46,298.818l0.442-0.395c0.758,0.707-0.229,0.676,0.534,1.245c0.424-0.158,0.69,0.149,0.909,0.48
								c0.204,0.356,0.364,0.729,0.646,0.716c-0.055,0.035,0.234,0.417,0.005,0.561c0.444-0.161,0.381,0.335,0.658,0.508
								c0.169,0.014,0.06-0.146,0.118-0.294c0,0,0.563,0.468,0.556,0.48c0.039,0.321-0.144,0.528-0.354,0.304
								c0.232,0.406,0.694,1.194,1.234,2.23c0.515,1.067,1.133,2.353,1.666,3.758c1.101,2.771,1.961,5.885,2.396,7.003
								c0.251-0.396-0.183-1.03,0.251-1.451c0.474,0.516,0.168,0.916,0.546,1.103c-0.708,0.456,0.199,1.397-0.473,2.084l0.485,0.064
								l-0.189,0.379c1.139,2.651,0.389,0.566,0.861,3.073c0.396,1.43,1.148,2.016,1.095,2.882
								c-0.021-0.123,0.184-0.505,0.377-0.145c-0.375,0.142,0.485,0.976,0.129,1.243c0.127,0.366,0.312,1.618,0.768,1.096
								c-0.228,0.263-0.127,1.394-0.483,0.776c0.055,0.379,0.045,0.753,0.213,1.004l0.06-0.511c0.313,1.261,0.026,2.027,0.662,2.782
								l0.127-0.516c0.173,0.766,0.328,1.403-0.147,1.801l-0.306-0.762c0.243,1.272,0.416,2.052,0.891,3.079l-0.054-0.39
								c0.75,1.25,2.551,8.514,3.536,9.703l0.283-0.688l0.586,1.047c-0.024-0.132-1.448-0.255-1.34-0.397
								c0.284,1.203,1.162,4.945,2.414,8.76c1.199,3.811,2.998,7.651,3.551,8.864c0.29,1.043-0.492,0.488-0.559,0.506
								c0.772,1.073,0.665,0.277,1.197,1.261c0.092,0.302-0.313,0.116-0.453-0.004c0.297,0.4,0.404,0.873,0.6,0.8
								c-0.2-0.61,0.384-0.66,0.537-1.056c0,0,0.16,0.311,0.354,0.615c0.191,0.306,0.382,0.611,0.382,0.611l-0.309,0.13
								c0.185,0.277,1.165,0.181,1.899,1.402c1.361,1.995,3.39,3.85,5.419,5.367c-0.146,0.138-0.649-0.083-1.157-0.315
								c0.272,0.215,0.727,0.483,0.905,0.786c-0.304-0.646,1.009,0.438,0.696,0.034c1.015,0.16,1.897,0.721,2.819,1.172
								c0.898,0.501,1.813,0.896,2.647,0.942c0.194-0.29,2.074-2.939,3.548-5.736c1.499-2.767,2.662-5.766,2.752-6.167
								c0.248,0.075,0.494,0.153,0.558,0.243c-0.027-0.216-0.491-0.432-0.781-0.378l-0.161,0.435
								c-0.657,0.005-0.073-0.299-0.646-0.442c0.09-0.371,0.592-0.265,1.083-0.21c-0.428-0.127-0.722-0.522-1.005-0.183
								c-0.319-0.264,0.181-0.427-0.199-0.71c-0.32-0.006-0.847,0.176-1.085-0.166l0.033-0.057c-0.551-0.718-1.426-0.091-1.85-0.879
								l0.14-0.054c-0.043-0.171-0.218-0.261-0.409-0.385c-0.181-0.141-0.388-0.298-0.5-0.537c0.056,0.143-0.025,0.428-0.291,0.269
								c-0.255-0.591-0.723-0.703-0.793-1.256c0,0-0.574-0.08-0.571-0.094c-0.326-0.476-0.97-1.22-1.663-2.396
								c-0.703-1.153-1.481-2.683-2.175-4.378c-1.4-3.377-2.446-7.348-2.832-8.967l0.086,0.115
								c-0.646-2.446-1.421-6.349-2.217-10.411c-0.795-4.057-1.688-8.257-2.546-11.058c0.172-0.955-0.186-2.164-0.303-3.116
								c-0.023,0.553-0.316,0.432-0.397,0.025c-0.641-2.841-0.27-0.13-1.149-2.958c-0.602-1.606-1.656-5.607-3.203-9.614
								c-1.468-4.012-3.623-7.948-4.494-9.433c-0.715-0.617-1.381-1.414-2.009-2.231c-0.676-0.79-1.304-1.616-2.076-2.154
								l0.22,0.048c-0.725-0.659-2.982-3.082-5.727-5.054c-2.708-2.026-5.796-3.447-6.874-3.804l0.252,0.194
								c-1.957-0.406-1.491-0.871-2.914-1.539c0.002,0.628-1.681,0.462-2.289,0.339l0.057-0.121
								c-0.469-0.063-1.251-0.093-2.096-0.137c-0.846-0.042-1.751-0.025-2.499-0.127l0.111-0.313
								c-1.298,0.133-3.591-0.287-4.475-0.291c-2.001-0.34-5.102-0.919-7.738-0.394l-1.755-0.831l-0.245,0.107
								c0,0-0.493,2.856-0.468,5.98c0.013,3.128,0.504,6.52,2.011,7.636l-0.026,0.329l0.567-0.077
								c0.691,0.112,0.988-0.267,0.954,0.062c0,0-0.229-0.012-0.466-0.003c-0.233,0.004-0.468,0.009-0.468,0.009
								c0.69,0.053,0.218,0.256-0.032,0.457c0.286,0.015,0.564,0.033,0.793,0.125c0.127-0.128-0.102-0.136-0.212-0.197
								c0.359-0.134,0.855-0.44,1.303-0.301c0.691,0.018,0.054,0.529,0.854,0.549c4.201,0.243,7.973,1.084,11.442,2.141
								c0.038,0.153-0.057,0.12-0.177,0.148c1.082,0.208,1.94,0.614,2.871,0.886c0.187,0.235,0.146,0.464,0.156,0.618
								c-0.012-0.154,1.187,0.356,2.292,1.053C553.454,297.866,554.463,298.75,554.46,298.818z"/>
						</g>
					</g>
				</g>
			</g>
		</g>
		<g>
			<g>
				<g>
					<g>
						<g>
							<path fill="#FFFFFF" d="M598.482,248.508c0.233,0.309,0.458,0.288,0.68,0.292
								C598.906,248.514,598.693,248.415,598.482,248.508z"/>
							<polygon fill="#FFFFFF" points="599.167,248.807 599.169,248.802 599.162,248.801 							"/>
							<path fill="#FFFFFF" d="M644.393,230.296c-0.062,0.004-0.133,0.009-0.204,0.014
								C644.256,230.324,644.326,230.328,644.393,230.296z"/>
							<path fill="#FFFFFF" d="M609.607,247.793l-0.038-0.59c0.534-0.063,0.237,0.655,0.712,0.46
								c0.098-0.851,0.828,0.001,0.949-0.458c0.003,0.066,0.247,0.066,0.26,0.328c0.026-0.459,0.237-0.131,0.377-0.262
								c0.043-0.131-0.054-0.131-0.109-0.263l0.334-0.196c0.151,0.131,0.21,0.393,0.067,0.458c0.474,0.054,1.772-0.003,3.156,0.053
								c1.367,0.026,2.737,0.001,3.233-0.141c-0.146-0.335-0.444-0.086-0.59-0.618c0.251-0.316,0.397,0.083,0.499-0.24
								c0.141,0.795,0.596,0.159,0.832,0.958l0.057-0.458l0.144,0.271c1.152-0.532,0.252-0.262,1.306-0.178
								c0.606-0.081,0.878-0.716,1.225-0.491c-0.051-0.003-0.193-0.279-0.038-0.398c0.038,0.398,0.415-0.294,0.502,0.107
								c0.154-0.053,0.658-0.011,0.476-0.553c0.092,0.27,0.542,0.373,0.28,0.614c0.151,0.013,0.3,0.091,0.406-0.032l-0.197-0.148
								c0.51-0.089,0.795,0.327,1.12-0.172l-0.192-0.213c0.306-0.041,0.562-0.086,0.688,0.45l-0.312,0.172
								c0.507-0.024,0.811-0.065,1.231-0.361l-0.151-0.012c0.527-0.565,3.387-0.965,3.896-1.644l-0.229-0.42l0.438-0.349
								c-0.052-0.006-0.222,1.357-0.263,1.221c0.465-0.012,1.899-0.106,3.336-0.126c1.439-0.011,2.87,0.017,3.297,0.17
								c0.341,0.241,0.043,0.666,0.037,0.732c0.428-0.145,0.196-0.439,0.555-0.393c0.096,0.078-0.031,0.328-0.088,0.386
								c0.159-0.045,0.301,0.104,0.318-0.092c-0.191-0.157-0.093-0.673-0.166-1.013l0.463,0.058l-0.031,0.327
								c0.103,0.013,0.291-0.889,0.741-0.701c0.765,0.165,1.61,0.089,2.385,0.194c-0.02,0.196-0.188,0.306-0.355,0.415
								c0.104,0.014,0.265-0.03,0.355,0.115c-0.175-0.355,0.335-0.218,0.193-0.371c0.601-0.778,1.309-0.018,1.834-0.541
								c0.067-0.719,1.603-12.327,1.645-13.183c0.159,0.022,0.317,0.043,0.362,0.116c-0.032-0.203-0.342-0.312-0.513-0.203
								l-0.049,0.458c-0.39,0.146-0.078-0.276-0.453-0.26c-0.004-0.376,0.344-0.443,0.648-0.467
								c-0.271-0.054-0.532-0.339-0.66,0.068c-0.25-0.167,0.048-0.458-0.255-0.631c-0.226,0.102-0.529,0.458-0.773,0.226
								l0.007-0.066c-0.6-0.412-0.963,0.532-1.511,0.126l0.065-0.123c-0.19-0.225-0.593,0.051-0.942-0.195
								c0.1,0.08,0.179,0.355-0.039,0.392c-0.403-0.253-0.692-0.028-0.983-0.332l-0.303,0.357c-1.448-0.111-7.171,0.242-8.649,0.326
								l0.059-0.059c-1.12,0.091-2.814,0.092-4.537,0.193c-1.726,0.112-3.459,0.266-4.611,0.542c-0.37-0.355-0.863-0.26-1.241-0.354
								c0.214,0.146,0.151,0.405-0.012,0.394c-1.151,0.015-0.069,0.252-1.225,0.47c-1.322,0.415-6.444,0.279-7.704,0.178
								c-0.594,0.599-1.44,0.281-2.036,0.683l0.05-0.132c-0.33,0.142-1.463,0.167-2.624,0.242c-1.171,0.12-2.361,0.244-2.746,0.405
								l0.12,0.057c-0.642,0.445-0.645-0.147-1.23-0.232c0.178,0.578-0.356,1.013-0.573,1.096l-0.016-0.13
								c-0.326,0.161-0.994,0.792-1.539,0.983l-0.046-0.326c-0.402,0.465-1.322,0.551-1.656,0.673
								c-0.806,0.067-2.172-0.167-3.099,0.525l-0.952-0.714l-0.072,0.115c0,0,0.565,2.765,1.426,5.761
								c0.854,3.001,1.98,6.231,2.873,7.246l0.078,0.317l0.203-0.095c0.303,0.089,0.314-0.305,0.389,0.013l-0.363,0.051
								c0.286,0.025,0.154,0.237,0.11,0.439c0.116,0.003,0.231,0.015,0.345,0.089c0.015-0.133-0.076-0.121-0.136-0.179
								c0.104-0.146,0.212-0.49,0.423-0.388c0.271-0.038,0.161,0.505,0.475,0.461c0.836-0.084,1.658-0.135,2.466-0.229
								c0.791-0.113,1.705-0.113,2.542-0.314c0.063,0.127,0.016,0.13-0.023,0.198c0.493-0.226,0.963-0.254,1.412-0.479
								c0.154,0.122,0.222,0.315,0.281,0.443c-0.061-0.127,0.578-0.312,1.239-0.458
								C608.853,247.799,609.587,247.771,609.607,247.793z"/>
						</g>
					</g>
				</g>
			</g>
		</g>
		<g>
			<g>
				<g>
					<g>
						<g>
							<path fill="#FFFFFF" d="M595.814,242.067c-0.353,0.273-0.381,0.745-0.435,1.192
								C595.716,242.914,595.86,242.549,595.814,242.067z"/>
							<polygon fill="#FFFFFF" points="595.373,243.268 595.376,243.274 595.379,243.259 							"/>
							<path fill="#FFFFFF" d="M611.28,329.336c0.005-0.114,0.01-0.245,0.016-0.378C611.272,329.083,611.258,329.21,611.28,329.336z
								"/>
							<path fill="#FFFFFF" d="M594.891,264.825l0.594,0.043c0.052,1.041-0.663,0.331-0.478,1.288
								c0.851,0.343-0.02,1.603,0.438,1.917c-0.066-0.005-0.072,0.468-0.334,0.449c0.459,0.126,0.125,0.48,0.253,0.773
								c0.131,0.103,0.133-0.084,0.266-0.17l0.188,0.674c-0.135,0.272-0.398,0.349-0.46,0.062
								c-0.078,1.81-0.185,10.313,0.107,12.193c0.334-0.256,0.08-0.835,0.61-1.077c0.32,0.492-0.078,0.744,0.248,0.954
								c-0.794,0.221-0.15,1.111-0.947,1.519l0.459,0.129l-0.269,0.259c0.552,2.191,0.26,0.503,0.207,2.454
								c0.094,1.121,0.735,1.638,0.517,2.27c0.003-0.093,0.275-0.348,0.397-0.06c-0.397,0.06,0.303,0.769-0.097,0.921
								c0.057,0.285,0.025,1.21,0.563,0.885c-0.269,0.164-0.361,0.991-0.608,0.505c-0.01,0.278-0.084,0.55,0.04,0.748l0.145-0.36
								c0.1,0.939-0.311,1.458,0.195,2.063l0.209-0.352c0.047,0.562,0.099,1.032-0.436,1.261l-0.179-0.575
								c0.034,0.932,0.082,1.493,0.386,2.267l0.009-0.278c0.577,0.986,0.958,6.124,1.638,7.045l0.421-0.415l0.348,0.787
								c0.006-0.094-1.357-0.393-1.22-0.469c0.01,0.419,0.029,1.277,0.055,2.353c0.029,1.077,0.063,2.373,0.008,3.648
								c-0.068,2.559-0.175,5.103-0.351,5.861c-0.26,0.604-0.669,0.072-0.734,0.062c0.122,0.76,0.429,0.351,0.363,0.986
								c-0.083,0.17-0.326-0.056-0.381-0.157c0.036,0.282-0.12,0.532,0.074,0.566c0.167-0.341,0.679-0.16,1.021-0.287l-0.082,0.821
								l-0.325-0.059c-0.022,0.182,0.88,0.527,0.652,1.324c-0.277,1.343-0.31,2.82-0.521,4.175c-0.193-0.04-0.28-0.337-0.367-0.633
								c-0.028,0.182-0.006,0.463-0.163,0.617c0.379-0.295,0.174,0.592,0.346,0.35c0.697,1.077-0.158,2.292,0.295,3.233
								c0.713,0.124,12.101,3.41,12.946,3.554c-0.045,0.292-0.09,0.583-0.169,0.663c0.207-0.049,0.361-0.616,0.278-0.938
								l-0.451-0.109c-0.089-0.727,0.288-0.133,0.326-0.826c0.377,0.008,0.393,0.654,0.372,1.22c0.094-0.499,0.416-0.97,0.028-1.225
								c0.203-0.456,0.451,0.107,0.668-0.446c-0.069-0.422-0.381-0.998-0.113-1.441l0.065,0.016c0.499-1.1-0.394-1.801,0.092-2.801
								l0.113,0.124c0.253-0.348,0.034-1.099,0.33-1.742c-0.094,0.184-0.381,0.323-0.386-0.078c0.311-0.743,0.126-1.282,0.473-1.816
								l-0.314-0.562c0.224-2.638,0.253-13.083,0.079-15.671l0.059,0.104c-0.046-1.997-0.116-5.04-0.188-8.102
								c-0.145-3.036-0.331-6.087-0.63-8.124c0.348-0.642,0.246-1.514,0.329-2.174c-0.141,0.37-0.399,0.252-0.396-0.032
								c-0.033-1.994-0.255-0.126-0.485-2.136c-0.422-2.312-0.375-11.199-0.161-13.236c-0.579-1.076-0.232-2.463-0.615-3.525
								l0.131,0.104c-0.266-1.162,0.01-7.673-0.224-8.997l-0.07,0.182c-0.37-1.152,0.219-1.012,0.37-1.933
								c-0.596,0.139-0.969-0.848-1.026-1.227l0.131,0.011c-0.118-0.569-0.692-1.857-0.775-2.794l0.328,0.029
								c-0.362-0.777-0.236-2.257-0.279-2.82c0.118-1.294,0.661-3.287,0.203-5.008l0.919-1.116l-0.096-0.163
								c0,0-2.826-0.444-5.949-0.611c-3.121-0.166-6.544-0.049-7.728,1.13l-0.328-0.037l0.049,0.464
								c-0.153,0.558,0.229,0.814-0.098,0.778l0.029-0.764c-0.087,0.561-0.266,0.17-0.454-0.043
								c-0.027,0.234-0.064,0.462-0.162,0.649c0.127,0.11,0.135-0.082,0.205-0.169c0.119,0.301,0.433,0.719,0.286,1.086
								c-0.022,0.574-0.529,0.041-0.555,0.711c-0.192,3.53-0.572,6.995-0.348,10.522c-0.134,0.084-0.132-0.012-0.196-0.112
								c0.178,1.064,0.158,2.014,0.337,2.982c-0.137,0.274-0.336,0.355-0.469,0.44c0.133-0.085,0.252,1.255,0.33,2.627
								c0.029,0.687,0.059,1.381,0.082,1.909C594.905,264.443,594.909,264.803,594.891,264.825z"/>
						</g>
					</g>
				</g>
			</g>
		</g>
		<g>
			<g>
				<g>
					<g>
						<g>
							<path fill="#FFFFFF" d="M591.401,303.078c0.136,0.353,0.369,0.38,0.59,0.433
								C591.819,303.173,591.639,303.031,591.401,303.078z"/>
							<polygon fill="#FFFFFF" points="591.995,303.517 591.999,303.512 591.991,303.51 							"/>
							<path fill="#FFFFFF" d="M632.961,285.426c-0.055,0.009-0.118,0.018-0.182,0.028
								C632.84,285.463,632.903,285.462,632.961,285.426z"/>
							<path fill="#FFFFFF" d="M602.721,304.154l-0.003-0.592c0.507-0.044,0.188,0.664,0.649,0.486
								c0.133-0.848,0.784,0.032,0.92-0.423c0,0.066,0.231,0.076,0.233,0.338c0.042-0.458,0.229-0.122,0.367-0.247
								c0.045-0.13-0.047-0.133-0.095-0.267l0.321-0.184c0.14,0.137,0.188,0.401,0.05,0.46c0.877,0.103,5.076,0.245,5.996-0.047
								c-0.146-0.333-0.417-0.082-0.565-0.611c0.225-0.319,0.371,0.08,0.457-0.245c0.153,0.793,0.557,0.154,0.804,0.95l0.037-0.458
								l0.144,0.27c1.05-0.548,0.235-0.248,1.185-0.207c0.537-0.106,0.75-0.753,1.068-0.542c-0.045-0.002-0.185-0.271-0.053-0.396
								c0.053,0.396,0.354-0.311,0.451,0.086c0.135-0.06,0.585-0.039,0.395-0.572c0.096,0.266,0.502,0.35,0.281,0.602
								c0.135,0.007,0.271,0.078,0.359-0.049l-0.184-0.14c0.449-0.11,0.725,0.293,0.986-0.219l-0.183-0.205
								c0.27-0.053,0.494-0.109,0.637,0.421l-0.268,0.186c0.449-0.045,0.718-0.1,1.074-0.412l-0.135-0.005
								c0.441-0.57,2.916-1.188,3.317-1.892l-0.229-0.404l0.358-0.378c-0.045-0.002-0.102,1.37-0.147,1.236
								c0.397-0.033,1.679-0.257,2.893-0.332c1.224-0.089,2.442-0.139,2.814-0.009c0.305,0.222,0.077,0.662,0.076,0.729
								c0.354-0.168,0.14-0.449,0.446-0.423c0.086,0.073-0.006,0.329-0.051,0.39c0.132-0.054,0.261,0.087,0.265-0.109
								c-0.172-0.146-0.118-0.667-0.201-1.002l0.396,0.032l-0.007,0.329c0.088,0.007,0.196-0.903,0.591-0.74
								c0.659,0.121,1.369-0.017,2.03,0.037c-0.008,0.197-0.144,0.317-0.28,0.438c0.089,0.007,0.223-0.047,0.306,0.091
								c-0.165-0.342,0.272-0.24,0.146-0.383c0.473-0.816,1.107-0.106,1.529-0.664c0.016-0.722,0.877-12.411,0.893-13.268
								c0.143,0.011,0.284,0.022,0.328,0.092c-0.037-0.2-0.317-0.288-0.466-0.168l-0.024,0.46c-0.342,0.172-0.081-0.27-0.415-0.229
								c-0.021-0.375,0.288-0.465,0.56-0.509c-0.245-0.036-0.49-0.303-0.588,0.112c-0.23-0.149,0.023-0.46-0.255-0.612
								c-0.197,0.117-0.453,0.493-0.682,0.277l0.003-0.066c-0.557-0.371-0.836,0.597-1.345,0.229l0.053-0.127
								c-0.183-0.211-0.527,0.092-0.854-0.13c0.093,0.073,0.179,0.342-0.014,0.393c-0.374-0.225-0.62,0.02-0.897-0.264l-0.25,0.376
								c-1.279-0.019-6.367,0.62-7.555,0.824l0.045-0.062c-1.89,0.314-5.796,0.555-7.723,1.197c-0.33-0.34-0.743-0.226-1.067-0.306
								c0.188,0.139,0.146,0.399,0.008,0.394c-0.958,0.024-0.048,0.254-0.993,0.475c-1.074,0.413-5.307,0.324-6.3,0.083
								c-0.489,0.57-1.169,0.212-1.661,0.585l0.044-0.129c-0.266,0.114-1.2,0.123-2.116,0.088c-0.908-0.045-1.825-0.091-2.132,0.015
								l0.087,0.073c-0.529,0.35-0.48-0.237-0.915-0.405c0.08,0.597-0.374,0.953-0.551,1.003l0.002-0.131
								c-0.264,0.11-0.856,0.65-1.301,0.746l0.009-0.329c-0.361,0.365-1.063,0.242-1.329,0.285
								c-0.614-0.115-1.558-0.653-2.368-0.192l-0.528-0.916l-0.076,0.095c0,0-0.207,2.828-0.288,5.951
								c-0.079,3.121-0.027,6.544,0.557,7.726l-0.017,0.327l0.229-0.05c0.276,0.152,0.401-0.23,0.385,0.097l-0.378-0.028
								c0.277,0.086,0.086,0.266-0.02,0.454c0.115,0.028,0.229,0.063,0.321,0.161c0.054-0.127-0.041-0.135-0.085-0.204
								c0.148-0.12,0.354-0.435,0.536-0.289c0.284,0.021,0.022,0.529,0.354,0.554c1.751,0.196,3.463,0.52,5.235,0.386
								c0.045,0.135-0.003,0.132-0.052,0.194c0.529-0.159,1.007-0.124,1.486-0.287c0.142,0.142,0.188,0.342,0.235,0.476
								c-0.047-0.134,0.622-0.23,1.309-0.285C602.037,304.172,602.69,304.113,602.721,304.154z"/>
						</g>
					</g>
				</g>
			</g>
		</g>
		<g>
			<g>
				<g>
					<g>
						<g>
							<path fill="#FFFFFF" d="M597.038,335.716c0.129,0.363,0.396,0.412,0.646,0.484
								C597.511,335.849,597.315,335.691,597.038,335.716z"/>
							<polygon fill="#FFFFFF" points="597.688,336.208 597.693,336.204 597.684,336.201 							"/>
							<path fill="#FFFFFF" d="M644.643,318.992c-0.062,0.008-0.134,0.017-0.206,0.026
								C644.506,319.027,644.577,319.027,644.643,318.992z"/>
							<path fill="#FFFFFF" d="M609.96,337.522l0.028-0.592c0.589-0.026,0.184,0.671,0.728,0.509c0.195-0.842,0.909,0.06,1.088-0.39
								c-0.003,0.066,0.266,0.084,0.255,0.346c0.07-0.456,0.272-0.113,0.438-0.234c0.058-0.128-0.049-0.135-0.099-0.27l0.381-0.172
								c0.155,0.142,0.201,0.407,0.038,0.461c0.502,0.061,1.989,0.187,3.446,0.214c1.454,0.025,2.917,0.002,3.445-0.139
								c-0.155-0.335-0.474-0.087-0.627-0.618c0.267-0.316,0.422,0.084,0.529-0.24c0.151,0.795,0.63,0.16,0.89,0.959l0.056-0.457
								l0.156,0.27c1.212-0.538,0.279-0.24,1.37-0.199c0.622-0.108,0.883-0.756,1.245-0.545c-0.053-0.002-0.207-0.271-0.052-0.396
								c0.052,0.396,0.414-0.312,0.518,0.085c0.156-0.061,0.674-0.04,0.467-0.574c0.104,0.267,0.569,0.35,0.311,0.602
								c0.155,0.007,0.311,0.078,0.415-0.05l-0.209-0.139c0.519-0.111,0.83,0.292,1.141-0.222l-0.207-0.204
								c0.311-0.054,0.569-0.11,0.726,0.42l-0.312,0.186c0.519-0.046,0.829-0.101,1.243-0.413l-0.155-0.006
								c0.517-0.571,3.322-1.182,3.787-1.886l-0.254-0.404l0.411-0.377c-0.052-0.002-0.131,1.369-0.182,1.235
								c0.937-0.116,5.664-0.652,6.514-0.402c0.348,0.216,0.086,0.661,0.085,0.728c0.406-0.175,0.161-0.452,0.513-0.432
								c0.099,0.071-0.008,0.329-0.06,0.391c0.152-0.056,0.3,0.083,0.305-0.113c-0.198-0.144-0.135-0.666-0.229-0.999l0.454,0.024
								l-0.009,0.329c0.1,0.008,0.227-0.913,0.674-0.746c0.747,0.13,1.55,0.001,2.299,0.064c-0.008,0.196-0.162,0.315-0.317,0.434
								c0.101,0.008,0.252-0.045,0.347,0.095c-0.187-0.345,0.309-0.237,0.165-0.381c0.534-0.811,1.253-0.091,1.73-0.644
								c0.017-0.721,0.993-12.398,1.011-13.256c0.161,0.013,0.322,0.025,0.371,0.096c-0.041-0.201-0.359-0.292-0.528-0.174
								l-0.027,0.46c-0.387,0.168-0.092-0.271-0.47-0.234c-0.022-0.375,0.326-0.461,0.634-0.502
								c-0.277-0.039-0.555-0.309-0.665,0.104c-0.262-0.152,0.026-0.46-0.289-0.615c-0.224,0.114-0.513,0.487-0.772,0.27
								l0.004-0.066c-0.63-0.378-0.946,0.586-1.522,0.212l0.059-0.127c-0.206-0.213-0.597,0.086-0.966-0.14
								c0.105,0.074,0.202,0.345-0.016,0.393c-0.424-0.229-0.703,0.013-1.017-0.274l-0.282,0.373
								c-1.44-0.022-7.085,0.738-8.46,0.903l0.052-0.062c-1.067,0.155-2.713,0.291-4.348,0.468c-1.618,0.18-3.243,0.399-4.321,0.72
								c-0.359-0.34-0.821-0.227-1.18-0.306c0.205,0.139,0.153,0.399-0.001,0.394c-1.062,0.014-0.057,0.254-1.121,0.464
								c-1.221,0.407-5.97,0.267-7.037-0.043c-0.564,0.551-1.301,0.169-1.862,0.523l0.055-0.128
								c-0.624,0.257-4.041-0.255-4.737-0.072l0.093,0.077c-0.613,0.329-0.525-0.255-1.003-0.438c0.056,0.6-0.475,0.938-0.677,0.981
								l0.01-0.131c-0.303,0.1-1.003,0.625-1.498,0.668l0.029-0.327c-0.423,0.331-1.195,0.146-1.492,0.165
								c-0.676-0.17-1.682-0.792-2.613-0.404l-0.517-0.96l-0.092,0.088c0,0-0.442,2.801-0.774,5.908
								c-0.327,3.105-0.535,6.521,0.049,7.754l-0.045,0.324l0.268-0.028c0.307,0.177,0.479-0.193,0.435,0.131l-0.432-0.062
								c0.312,0.111,0.078,0.273-0.057,0.451c0.131,0.038,0.258,0.085,0.357,0.19c0.072-0.122-0.037-0.138-0.082-0.212
								c0.181-0.105,0.438-0.4,0.639-0.239c0.325,0.047-0.013,0.53,0.368,0.585c1.998,0.337,3.976,0.881,5.991,0.776
								c0.044,0.137-0.011,0.131-0.07,0.191c0.612-0.138,1.154-0.084,1.71-0.229c0.154,0.147,0.196,0.35,0.241,0.485
								c-0.046-0.136,0.723-0.207,1.508-0.235C609.145,337.498,609.938,337.493,609.96,337.522z"/>
						</g>
					</g>
				</g>
			</g>
		</g>
		<g>
			<g>
				<g>
					<g>
						<g>
							<path fill="#FFFFFF" d="M715.175,258.233c0.221-0.949-0.051-2.515-0.4-3.988c0.001,0.606,0.02,1.212,0.079,1.862
								C714.928,256.757,715.041,257.449,715.175,258.233z"/>
							<path fill="#FFFFFF" d="M714.774,254.215c-0.003-0.005-0.008-0.015-0.011-0.021c0.005,0.02,0.008,0.035,0.012,0.051
								C714.774,254.233,714.774,254.225,714.774,254.215z"/>
							<path fill="#FFFFFF" d="M664.933,329.14c0.037,0.289,0.08,0.619,0.124,0.953C665.035,329.766,665,329.446,664.933,329.14z"/>
							<path fill="#FFFFFF" d="M662.478,264.144l0.566,0.314c-0.141,1.917-0.313,2.193-0.482,2.435
								c-0.083,0.121-0.161,0.234-0.222,0.542c-0.037,0.316-0.03,0.842,0.055,1.774c0.229,0.354,0.36,0.911,0.444,1.567
								c0.082,0.656,0.241,1.433,0.338,2.201c0.13,0.768,0.178,1.542,0.393,2.182c0.193,0.642,0.396,1.165,0.608,1.443
								c-0.076-0.007,0.521,1.784,0.257,1.769c0.665,0.345,0.952,1.715,1.617,2.724c0.312,0.319-0.031-0.349-0.058-0.699
								c0,0,0.087,0.146,0.218,0.363c0.139,0.211,0.288,0.52,0.501,0.778c0.409,0.529,0.818,1.057,0.818,1.057
								c0.477,0.935,0.42,1.314-0.285,0.399c0.25,0.366,0.559,0.819,0.919,1.349c0.362,0.529,0.86,1.03,1.38,1.634
								c0.539,0.568,1.095,1.288,1.784,1.861c0.679,0.598,1.414,1.23,2.198,1.884c0.789,0.626,1.654,1.157,2.543,1.76
								c0.889,0.63,1.83,1.1,2.796,1.602c0.966,0.505,1.96,1.029,2.966,1.397c0.974,0.386,1.958,0.775,2.943,1.165
								c2.625,0.948,5.29,2.289,7.395,3.606c1.072,0.627,1.985,1.295,2.785,1.81c0.758,0.568,1.388,1.018,1.839,1.32
								c-0.235-0.602-1.443-1.226-1.538-1.978c1.104,0.463,1.299,1.118,1.904,1.176c-0.057,0.436,0.379,0.894,0.865,1.375
								c0.479,0.485,1.028,0.984,1.031,1.593l0.542-0.103l0.204,0.591c0.988,0.762,1.461,1.244,1.76,1.515
								c0.297,0.273,0.387,0.357,0.451,0.441c0.117,0.17,0.199,0.288,1.414,2.037c1.466,1.921,2.546,2.63,2.93,3.93
								c-0.085-0.175-0.081-0.775,0.31-0.271c-0.156,0.137,0.104,0.47,0.367,0.834c0.218,0.376,0.451,0.779,0.319,0.993
								c0.129,0.271,0.378,0.858,0.605,1.287c0.179,0.438,0.384,0.714,0.557,0.313c-0.176,0.411,0.193,2.085-0.318,1.163
								c0.067,0.278,0.135,0.554,0.196,0.809c0.044,0.258,0.081,0.494,0.176,0.686c0,0,0.046-0.76,0.027-0.758
								c0.201,0.952,0.231,1.709,0.323,2.363c0.031,0.666,0.047,1.239,0.342,1.865l0.175-0.738c0.047,0.597,0.106,1.117,0.08,1.601
								c-0.052,0.605-0.176,1.091-0.444,1.402c0,0-0.042-0.406-0.084-0.812c-0.04-0.42-0.087-0.801-0.093-0.769
								c0.032,2.545,0.068,4.16,0.355,6.256l0.016-0.754c0.262,1.354,0.546,5.547,0.534,9.406c-0.006,1.933-0.104,3.774-0.237,5.222
								c-0.139,1.44-0.294,2.502-0.286,3.013c0-0.001,0.678-0.739,0.666-0.758c0,0-0.007,0.113-0.018,0.282
								c-0.018,0.164-0.041,0.382-0.064,0.601c-0.037,0.448-0.112,0.864-0.112,0.865c0.091-0.188-1.017-1.208-0.844-1.313
								c-0.253,0.842-0.805,2.54-1.858,4.01c-1.04,1.477-2.601,2.783-5.064,3.596c-1.213,0.402-2.563,0.703-3.946,0.871
								c-1.392,0.157-2.784,0.239-3.965,0.202c-2.386-0.044-3.95-0.473-4.61-0.73c-0.995-0.561,0.021-0.692,0.036-0.757
								c-0.648-0.107-0.788-0.077-0.927-0.036c-0.123,0.027-0.267,0.085-0.709-0.173c-0.21-0.195,0.201-0.267,0.353-0.248
								c-0.398-0.165-0.685-0.454-0.797-0.319c0.38,0.401-0.053,0.732,0.006,1.151c0.009-0.011-0.331-0.148-0.599-0.362
								c-0.291-0.188-0.565-0.389-0.558-0.399l0.239-0.228c-0.197-0.189-1.198,0.307-2.058-0.926
								c-1.484-1.934-2.821-5.001-3.48-8.364c0.21,0.002,0.471,0.68,0.765,1.307c-0.115-0.411-0.305-1.083-0.269-1.508
								c-0.164,0.877-0.524-1.348-0.53-0.691c-1.313-2.316-1.021-5.903-1.818-8.266c-0.743-0.095-12.863-4.03-13.715-3.913
								c-0.064-0.756-0.13-1.495-0.084-1.733c-0.18,0.217-0.115,1.687,0.08,2.477l0.471,0.09c0.35,1.823-0.228,0.455-0.011,2.263
								c-0.365,0.134-0.614-1.538-0.8-2.967c0.091,1.297-0.049,2.644,0.418,3.147c-0.025,1.276-0.473-0.096-0.474,1.444
								c0.229,1.086,0.75,2.49,0.698,3.825l-0.068-0.015c0.039,3.248,1.233,4.831,1.566,8.028l-0.203-0.312
								c0.039,1.162,0.871,3.308,1.433,5.515c-0.151-0.638-0.083-1.246,0.422,0.01c0.69,2.527,1.772,4.146,2.654,6.105
								c0,0,0.366,0.383,0.732,0.765c0.354,0.38,0.767,0.741,0.767,0.741c0.771,1.047,1.985,2.45,3.708,3.9
								c1.728,1.442,4.028,2.831,6.591,3.787c2.562,0.97,5.332,1.506,8.028,1.7c2.716,0.19,5.32,0.097,7.938-0.208
								c2.649-0.327,5.416-0.911,8.124-1.944c2.701-1.02,5.324-2.54,7.438-4.372c2.127-1.823,3.692-3.881,4.76-5.659
								c1.079-1.789,1.731-3.317,2.148-4.411l-0.077,0.364c1.327-3.376,2.185-7.505,2.546-11.681
								c0.382-4.191,0.392-8.504,0.35-12.655c-0.013-1.026-0.026-2.054-0.04-3.076c-0.022-1.051,0.004-1.881-0.098-3.254
								c-0.104-1.25-0.107-2.497-0.327-3.699c-0.215-1.204-0.417-2.392-0.666-3.537c-1.128-4.579-3.062-8.361-4.804-11.168
								c-0.387-0.952-0.968-2.035-1.62-3.074c-0.708-0.991-1.42-1.989-2.036-2.852c0.594,1.032,0.15,0.863-0.395,0.137
								c-2.07-2.395-2.196-2.424-2.334-2.453c-0.137-0.03-0.301-0.052-2.604-2.195c-2.721-2.394-9.442-7.805-17.472-11.045
								c-0.983-0.378-1.966-0.756-2.937-1.129c-0.7-0.285-1.393-0.567-2.07-0.843c-1.259-0.641-2.484-1.232-3.378-1.933
								c-0.238-0.162-0.471-0.32-0.697-0.475c-0.23-0.15-0.384-0.343-0.572-0.501c-0.359-0.323-0.695-0.626-1.003-0.903
								c-0.47-0.629-0.938-1.082-1.153-1.461c-0.351-0.307-0.72-0.661-1.042-1.061c-0.239-0.438-0.502-0.885-0.736-1.346
								c-0.145-0.5-0.326-0.979-0.505-1.453c-0.095-0.508-0.227-0.988-0.414-1.44l0.165,0.168c-0.112-0.23-0.092-0.663-0.14-1.191
								c-0.011-0.268-0.056-0.557-0.052-0.886c0.028-0.336,0.059-0.698,0.091-1.081c-0.008-0.753,0.271-1.646,0.42-2.562
								c0.093-0.462,0.292-0.945,0.43-1.429c0.157-0.485,0.271-0.978,0.512-1.471c0.418-0.987,0.8-1.984,1.342-2.924
								c0.246-0.474,0.488-0.938,0.722-1.388c0.282-0.453,0.555-0.892,0.814-1.31c1.027-1.753,1.845-2.841,2.22-3.406l-0.283,0.249
								c0.29-0.546,0.55-0.868,0.772-1.101c0.222-0.234,0.403-0.396,0.602-0.483c0.391-0.188,0.765-0.347,1.426-0.757
								c-0.567-0.363,0.637-1.665,1.171-1.968l0.039,0.125c0.383-0.223,0.969-0.711,1.675-1c0.699-0.32,1.526-0.513,2.251-0.476
								l-0.09,0.316c0.586-0.12,1.468,0.03,2.294,0.383c0.827,0.343,1.586,0.868,2.003,1.182c0.909,0.768,1.928,2.011,2.835,3.532
								c0.903,1.531,1.707,3.299,2.482,5.021c0,0-0.002,0.159-0.03,0.406c-0.023,0.241-0.055,0.563-0.086,0.884
								c-0.073,0.64-0.187,1.27-0.188,1.27l0.167,0.322c0,0,0.735,0.089,1.857,0.225c1.128,0.12,2.659,0.279,4.242,0.294
								c1.573,0.011,3.208-0.149,4.521-0.789c1.294-0.652,2.336-1.851,2.475-3.884l0.345,0.046c0.001,0-0.085-0.375-0.197-0.748
								c-0.114-0.372-0.229-0.744-0.229-0.744c-0.336-1.85-1.061-2.536-0.687-2.527c0,0,0.2,0.614,0.399,1.228
								c0.189,0.616,0.341,1.236,0.341,1.236c-0.42-1.834,0.104-0.629,0.478,0.024c-0.173-0.774-0.362-1.525-0.486-2.162
								c-0.241-0.318-0.038,0.308-0.01,0.611c-0.224-0.47-0.513-1.018-0.806-1.593c-0.312-0.573-0.596-1.178-0.776-1.786
								c-0.843-1.801,0.461-0.344-0.591-2.458c-1.448-2.772-3.271-5.439-5.701-7.767c-1.196-1.171-2.565-2.237-4.047-3.195
								c-1.521-0.921-3.137-1.765-4.938-2.336c-3.545-1.194-7.692-1.44-11.452-0.48c-3.802,0.898-7.068,2.845-9.652,5.087
								c-0.328,0.101-0.041-0.139,0.228-0.443c-1.602,1.388-2.828,2.788-3.978,4.166c-0.545,0.694-1.048,1.392-1.544,2.086
								c-0.429,0.673-0.859,1.356-1.256,2.039c-0.56,0.64-0.851,0.732-1.097,0.876c0.124-0.072-0.344,0.8-1.106,2.153
								c-0.367,0.707-0.78,1.597-1.236,2.529c-0.222,0.475-0.474,0.943-0.688,1.465c-0.208,0.527-0.42,1.064-0.633,1.603
								c-0.209,0.54-0.419,1.081-0.627,1.615c-0.196,0.543-0.344,1.119-0.509,1.657c-0.304,1.099-0.651,2.079-0.798,3.038
								C662.702,262.768,662.466,264.044,662.478,264.144z"/>
						</g>
					</g>
				</g>
			</g>
		</g>
	</g>
</g>
</svg>
