<?xml version="1.0" encoding="utf-8"?>
<!-- Generator: Adobe Illustrator 16.0.0, SVG Export Plug-In . SVG Version: 6.00 Build 0)  -->
<!DOCTYPE svg PUBLIC "-//W3C//DTD SVG 1.1//EN" "http://www.w3.org/Graphics/SVG/1.1/DTD/svg11.dtd">
<svg version="1.1" xmlns="http://www.w3.org/2000/svg" xmlns:xlink="http://www.w3.org/1999/xlink" x="0px" y="0px" width="800px"
	 height="600px" viewBox="0 0 800 600" enable-background="new 0 0 800 600" xml:space="preserve">
<g id="Layer_2" display="none">
	
		<image display="inline" overflow="visible" width="2592" height="1936" xlink:href="../../../../../Pictures/iPhoto Library/Originals/2015/iPhone South America/IMG_3165_2.JPG"  transform="matrix(0.405 0 0 0.405 -126.0298 -243.2656)">
	</image>
</g>
<g id="Layer_1">
	<g>
		<path fill-rule="evenodd" clip-rule="evenodd" fill="#FFFFFF" d="M587.33,354.17c-2.544,1.653-4.969,3.527-7.64,4.938
			c-5.796,3.063-12.107,3.849-18.567,3.441c-4.829-0.305-9.528-1.56-13.654-3.979c-3.022-1.772-5.601-4.386-8.146-6.862
			c-2.164-2.105-4.051-4.509-5.95-6.87c-0.845-1.046-1.575-2.244-2.095-3.483c-1.906-4.557-3.854-9.104-5.504-13.756
			c-2.896-8.167-5.15-16.486-5.075-25.274c0.012-1.428-0.373-2.891-0.785-4.273c-0.179-0.597-0.83-1.125-1.386-1.515
			c-0.52-0.369-1.199-0.505-1.801-0.761c-4.139-1.762-4.074-1.719-1.381-5.438c1.612-2.224,3.112-4.552,4.404-6.972
			c0.491-0.922,0.318-2.229,0.35-3.362c0.153-5.441,2.283-10.434,3.523-15.626c2.096-8.763,7.08-16.043,12.763-22.697
			c3.037-3.555,7.325-6.079,11.202-8.854c0.977-0.7,2.541-0.582,3.837-0.84c0.134,0.258,0.271,0.516,0.405,0.773
			c-0.921,0.928-1.701,2.086-2.784,2.743c-3.757,2.278-4.494,6.125-3.822,9.633c0.679,3.535,0.511,6.936,0.358,10.368
			c-0.289,6.458-1.062,12.896-1.335,19.355c-0.113,2.711,0.702,5.448,0.812,8.184c0.454,11.239,0.661,22.489,1.25,33.721
			c0.234,4.472,0.818,9.011,1.979,13.322c1.156,4.293,2.894,8.525,5.025,12.43c1.468,2.689,3.778,5.093,7.623,4.603
			c2.511-0.319,5.09-0.089,7.604-0.386c4.28-0.505,6.815-3.477,7.913-7.209c1.219-4.143,2.235-8.545,2.173-12.817
			c-0.089-6.105,1.319-12.03,1.328-18.07c0.007-3.693-0.483-7.386-0.558-11.083c-0.147-7.34,0.008-14.688-0.29-22.021
			c-0.223-5.495-0.756-10.999-1.541-16.443c-0.492-3.41-4.23-7.448-7.945-8.165c-4.984-0.963-8.719,3.366-7.652,8.363
			c1.766,8.271,4.664,16.378,4.164,25.022c-0.263,4.547-0.398,9.128-2.781,13.256c-3.093,5.358-7.323,6.698-13.021,6.472
			c-2.161-0.086-2.55-0.925-1.667-2.831c2.295-4.95,3.17-10.122,3.337-15.6c0.213-6.94-1.531-13.476-2.794-20.161
			c-1.291-6.827-2.46-13.788-0.472-20.698c1.798-8.388,8.271-12.061,9.55-12.131c4.407-0.241,8.82-0.449,13.232-0.47
			c5.896-0.028,10.218,3.42,14.246,7.108c7.435,6.809,12.683,15.08,15.618,24.76c1.009,3.322,1.93,6.671,2.89,10.009
			c0.021,0.07,0.055,0.143,0.048,0.211c-0.624,6.277,4.81,7.053,8.521,9.397c0.632,0.399,1.226,0.854,1.839,1.283
			c-0.589,0.471-1.108,1.189-1.773,1.374c-6.09,1.686-8.244,5.789-7.659,11.828c0.673,6.928-0.196,13.799-1.335,20.604
			c-1.057,6.315-1.545,12.782-4.179,18.752c-0.229,0.521-0.673,0.942-0.928,1.454c-0.3,0.604-0.506,1.256-0.75,1.889
			C595.083,347.625,587.33,354.17,587.33,354.17z"/>
		<path fill-rule="evenodd" clip-rule="evenodd" fill="#FFFFFF" d="M171.535,379.236c-0.169-1.193-0.235-2.331,1.204-2.867
			c0.252-0.095,0.511-0.336,0.636-0.577c1.293-2.499,0.362-4.889-0.689-7.091c-0.841-1.763-2.674-1.897-4.537-1.776
			c-7.089,0.46-14.182,1.059-21.279,1.147c-5.14,0.065-9.318-2.057-11.188-7.336c-0.071-0.201-0.193-0.392-0.326-0.56
			c-0.084-0.108-0.231-0.165-0.659-0.453c-0.256,0.674-0.532,1.257-0.701,1.869c-1.434,5.209-4.618,7.746-9.433,7.603
			c-3.109-0.092-5.196-1.818-6.666-4.275c-2.901-4.848-3.189-10.327-3.399-15.784c-0.021-0.544,0.42-1.107,0.647-1.664
			c0.196,0.022,0.392,0.044,0.587,0.066c0.072,0.502,0.251,1.014,0.198,1.502c-0.23,2.126,0.058,4.085,1.702,5.611
			c0.542,0.503,1.21,0.868,1.82,1.297c0.271-0.762,0.78-1.526,0.773-2.284c-0.044-5.232-0.187-10.464-0.314-15.695
			c-0.236-9.721-0.467-19.44-0.735-29.16c-0.063-2.247-0.123-4.516-0.492-6.724c-0.115-0.683-1.17-1.354-1.941-1.732
			c-0.509-0.25-1.287,0.114-1.93,0.054c-0.53-0.051-1.039-0.321-1.557-0.493c0.153-0.457,0.224-0.963,0.475-1.356
			c1.053-1.655,2.112-3.308,3.258-4.898c1.511-2.096,1.479-4.448,1.377-6.858c-0.151-3.534-0.273-7.07-0.319-10.605
			c-0.109-8.566-0.146-17.133-0.279-25.699c-0.013-0.854-0.487-1.699-0.748-2.548c-0.817,0.412-1.846,0.637-2.41,1.274
			c-1.34,1.513-2.358,3.312-3.705,4.815c-0.841,0.938-2.124,2.238-3.065,2.13c-1.137-0.129-2.564-1.375-3.08-2.498
			c-1.066-2.32-0.981-4.977,0.374-7.149c1.342-2.152,3.223-3.968,4.867-5.931c0.236,0.131,0.471,0.264,0.707,0.395
			c-0.184,0.604-0.366,1.208-0.553,1.812c-0.479,1.553,0.011,2.939,1.435,3.422c0.589,0.2,1.895-0.737,2.423-1.479
			c4.914-6.911,12.262-8.676,19.576-4.429c1.239,0.719,2.209,2.015,3.087,3.204c0.723,0.979,1.325,1.299,2.277,0.452
			c5.721-5.089,12.539-6.535,19.965-6.146c3.431,0.179,6.93,0.072,9.735,2.434c0.837,0.705,1.698,1.973,1.687,2.974
			c-0.024,2.281-0.51,4.57-0.947,6.83c-0.343,1.772-0.802,3.535-1.375,5.247c-0.915,2.734-1.909,5.445-2.975,8.124
			c-1.25,3.139-0.594,5.969,1.783,7.576c1.529,1.034,2.907,1.207,4.295-0.199c0.33-0.334,0.799-0.532,1.424-0.933
			c0.112,0.702,0.367,1.225,0.231,1.612c-1.001,2.856-2.4,5.501-5.396,6.671c-3.444,1.345-7.135-1.023-7.7-4.721
			c-0.576-3.766,0.494-7.186,2.033-10.543c1.254-2.738,1.156-2.896-1.68-3.796c-6.334-2.01-12.207-0.593-17.754,2.588
			c-0.643,0.369-1.039,1.72-1.018,2.604c0.115,4.796,0.463,9.585,0.598,14.381c0.094,3.334-0.065,6.675-0.03,10.013
			c0.014,1.32,0.248,2.639,0.382,3.959c0.282,0.138,0.563,0.276,0.845,0.413c0.893-1.079,1.695-2.254,2.698-3.221
			c3.651-3.522,7.727-3.576,12.01-1.254c0.893,0.484,1.745,1.044,2.607,1.585c3.317,2.077,3.315,2.081,6.5-0.562
			c0.248,2.146,0.827,3.98,0.583,5.698c-0.527,3.712-1.31,7.409-2.312,11.024c-0.645,2.324-3.634,3.527-6.348,3.011
			c-3.219-0.611-5.646-2.535-7.928-4.726c-1.355-1.303-2.654-2.717-4.206-3.735c-0.734-0.481-2.165-0.482-2.976-0.083
			c-0.69,0.34-1.357,1.58-1.328,2.396c0.332,9.343,0.804,18.679,1.227,28.017c0.111,2.462,0.235,4.927,0.257,7.392
			c0.014,1.679,0.212,2.582,2.424,2.463c6.367-0.346,12.753-0.342,19.132-0.452c1.245-0.023,1.874-0.437,1.25-1.722
			c-0.909-1.872-2.124-3.544-1.487-5.922c0.961-3.587,3.801-5.315,6.479-7.271c0.084-0.061,0.271,0.015,0.92,0.074
			c-0.633,0.877-1.042,1.645-1.633,2.228c-1.88,1.855-2.221,3.309-0.575,5.307c3.034,3.686,4.627,7.901,5.794,12.478
			c1.195,4.688,0.89,9.204-0.281,13.747c-0.395,1.533-0.092,2.493,1.112,3.58c3.904,3.522,3.794,7.639-0.002,11.417
			c-1.478,1.47-2.759,3.139-4.129,4.716C172.408,379.236,171.971,379.236,171.535,379.236z"/>
		<path fill-rule="evenodd" clip-rule="evenodd" fill="#FFFFFF" d="M484.637,235.931c-4.008-3.709-8.205-3.77-12.334-0.167
			c-0.764,0.666-1.527,1.344-2.362,1.913c-0.41,0.281-0.983,0.327-1.483,0.479c-1.024,0.117-0.252-1.289-0.034-1.781
			c0.437-0.983,1.115-1.859,1.694-2.78c-1.052-0.15-1.869-0.036-2.456,0.394c-1.186,0.866-2.203,1.958-3.367,2.857
			c-1.639,1.265-2.346,4.117-1.31,5.651c0.988,1.463,2.501,1.514,4.82,0.16c0.125-0.073,0.247-0.154,0.374-0.225
			c2.159-1.201,2.591-0.988,2.707,1.418c0.222,4.64,0.356,9.285,0.638,13.921c0.241,3.976,0.763,7.938,0.926,11.916
			c0.189,4.619,0.124,9.249,0.169,13.874c0.017,1.598,0.077,3.198,0.019,4.793c-0.019,0.475-0.377,0.937-0.798,1.906
			c-0.577-1.14-0.931-1.75-1.203-2.395c-0.787-1.874-1.461-3.801-2.326-5.638c-2.68-5.686-5.478-11.317-8.136-17.014
			c-2.057-4.405-3.895-8.912-5.975-13.305c-2.411-5.091-4.611-10.268-8.56-14.532c-2.532-2.736-6.419-3.431-9.462-1.868
			c-0.664,0.342-1.745,0.464-2.384,0.162c-2.799-1.325-5.527-2.655-8.736-1.4c-0.357,0.14-0.854-0.066-1.284-0.116
			c-3.266-0.383-6.255-0.443-9.215,1.866c-1.888,1.472-2.744,3.468-4.285,5.026c-0.5,0.506-1.199,0.815-1.808,1.214
			c-0.366-0.718-1.015-1.432-1.027-2.157c-0.017-0.876,0.445-1.788,0.811-2.636c0.325-0.755,0.8-1.447,1.408-2.521
			c-0.815,0.106-1.181,0.073-1.473,0.205c-3.619,1.634-5.94,7.011-4.63,10.736c0.14,0.397,0.397,0.783,0.688,1.092
			c1.618,1.716,3.147,1.261,5.226-1.061c1.32-1.475,2.911-2.801,4.605-3.821c1.405-0.846,2.554-0.331,2.372,1.641
			c-0.107,1.154-0.273,2.312-0.27,3.466c0.031,8.993,0.148,17.985,0.116,26.977c-0.01,2.425,0.275,4.98-1.42,7.125
			c-1.261,1.596-2.419,3.272-3.666,4.879c-1.55,1.997-1.343,2.578,1.057,3.501c2.49,0.959,4.443,2.359,4.353,5.496
			c-0.141,4.853-0.28,9.714-0.163,14.565c0.332,13.73,0.823,27.456,1.146,41.187c0.022,0.962-0.813,1.944-1.249,2.916
			c-1.118-0.514-2.441-0.812-3.288-1.614c-0.636-0.604-0.572-1.893-0.993-2.797c-0.199-0.426-0.802-0.665-1.222-0.988
			c-0.214,0.419-0.619,0.841-0.614,1.257c0.058,4.067,0.041,8.104,2.335,11.797c1.887,3.035,4.576,4.411,7.934,4.537
			c3.106,0.115,5.034-1.845,6.543-4.341c0.827-1.368,1.774-2.666,2.731-4.092c1.527,2.256,2.759,4.107,4.023,5.938
			c2.261,3.27,7.175,3.229,10.124,0.446c4.274-4.037,7.563-8.741,10.093-13.998c0.515-1.07,0.655-2.32,0.969-3.487
			c-0.257-0.106-0.513-0.211-0.77-0.316c-0.373,0.522-0.798,1.018-1.11,1.574c-1.91,3.394-3.155,7.211-6.312,9.805
			c-2.087,1.716-5.147,0.877-5.864-1.763c-0.855-3.143-1.853-6.314-2.126-9.531c-0.562-6.577-0.907-13.19-0.938-19.79
			c-0.055-12.128,0.185-24.256,0.297-36.384c0.015-1.627,0.002-3.254,0.002-5.479c0.736,0.641,1.093,0.812,1.232,1.093
			c3.512,7.1,7.007,14.207,10.487,21.321c2.929,5.987,5.857,11.975,8.741,17.984c2.445,5.098,4.835,10.224,7.224,15.349
			c0.209,0.448,0.262,0.98,0.326,1.481c0.442,3.424,0.504,6.948,1.403,10.244c0.903,3.31,2.314,6.498,4.908,9.091
			c3.022,3.017,6.725,4.636,10.443,6.493c3.574,1.787,6.941,0.878,10.395,0.523c1.583-0.162,3.312-0.685,4.598-1.585
			c2.242-1.573,4.329-3.432,6.234-5.409c3.994-4.144,5.521-9.507,6.095-14.963c0.46-4.37,0.116-8.971-2.372-12.848
			c-1.436-2.239-2.318-4.791-4.761-6.537c-5.183-3.703-12.972-3.025-17.784,0.479c-1.487,1.083-2.897,2.27-4.344,3.407
			c-0.185-0.145-0.369-0.289-0.555-0.433c0.474-0.845,0.884-1.74,1.442-2.518c4.801-6.679,21.284-17.64,27.239-21.082
			c-2.65,0-5.285-0.095-7.908,0.032c-1.927,0.091-4.113-0.997-4.73-2.73c-1.594-4.482-2.294-9.056-2.199-13.861
			c0.163-8.043-0.014-16.095-0.186-24.14c-0.102-4.765-0.494-9.522-0.7-14.285c-0.096-2.177-0.1-4.36-0.068-6.539l-0.176-1.341
			c0.115-2.407,0.547-2.62,2.706-1.418c0.127,0.071,0.249,0.152,0.375,0.225c2.318,1.354,3.832,1.303,4.819-0.16
			c1.036-1.534,0.329-4.386-1.31-5.651c-1.163-0.898-2.182-1.991-3.365-2.857c-0.589-0.43-1.405-0.544-2.457-0.394
			c0.578,0.921,1.258,1.797,1.693,2.78c0.218,0.492,1.135,1.58-0.034,1.781c-0.499-0.152-1.026,0.031-1.483-0.479
			C492.795,235.086,487.316,231.263,484.637,235.931z"/>
		<path fill-rule="evenodd" clip-rule="evenodd" fill="#FFFFFF" d="M350.235,321.214c10.556,6.331,9.309,16.089,6.824,18.893
			c-2.485,2.805-6.373,2.868-9.188,1.676c-8.042-3.398-11.72-16.288-6.671-23.401c1.774-2.502,4.511-3.189,7.322-3.756
			c4.136-0.832,7.634,0.606,10.937,2.881c0.218,0.149,0.528,0.165,1.24,0.371c-0.232-1.387-0.441-2.515-0.608-3.649
			c-0.821-5.599-1.747-11.187-2.413-16.804c-0.907-7.627-3.251-14.931-4.769-22.417c-1.138-5.613-2.208-11.24-3.347-16.854
			c-0.171-0.844-0.558-1.645-0.844-2.466c-0.195,0.021-0.39,0.043-0.586,0.064c-0.396,2.011-0.848,4.014-1.179,6.035
			c-1.464,8.954-2.93,17.906-4.323,26.872c-1.182,7.607-2.231,15.235-3.4,22.842c-1.558,10.132-3.168,20.254-4.768,30.377
			c-0.419,2.65-0.9,5.29-1.322,7.938c-0.584,3.678,1.077,6.441,3.98,8.326c0.905,0.588,2.669,0.39,3.819-0.041
			c3.62-1.354,5.453-4.619,7.481-7.629c0.529-0.784,1.094-1.547,1.642-2.319c0.264,0.131,0.525,0.262,0.788,0.393
			c-1.241,3.233-2.074,6.71-3.825,9.639c-2.208,3.697-4.654,7.528-8.702,9.53c-7.581,3.747-13.144,1.125-17.019-6.544
			c-0.13-0.258-0.159-0.577-0.322-0.808c-0.307-0.434-0.676-0.824-1.02-1.233c-0.345,0.414-0.823,0.772-1.013,1.247
			c-1.047,2.604-2.418,4.866-4.786,6.585c-1.962,1.427-4.038,1.88-6.33,1.895c-2.619,0.02-4.299-1.585-5.149-3.721
			c-0.842-2.116-1.252-4.464-1.475-6.747c-0.167-1.701,0.184-3.474,0.473-5.185c0.125-0.744,0.675-1.416,1.088-2.229
			c0.838,2.149,1.399,4.03,2.313,5.722c0.418,0.774,1.534,1.172,2.333,1.74c0.478-0.735,1.211-1.412,1.394-2.216
			c1.766-7.712,3.48-15.437,5.125-23.177c0.871-4.1,1.24-8.335,2.427-12.335c1.842-6.204,2.078-12.651,3.437-18.914
			c0.319-1.473,1.316-7.188-2.531-5.862c-1.116,0.577-2.273,1.173-3.431,1.771c-0.208-0.274-0.414-0.546-0.621-0.821
			c0.955-1.205,1.968-2.368,2.853-3.623c2.246-3.182,4.519-6.349,6.591-9.641c0.613-0.974,0.641-2.338,0.853-3.539
			c1.213-6.863,2.506-13.714,3.556-20.602c0.578-3.798,0.708-7.663,1.092-11.493c0.17-1.704,0.466-3.396,0.705-5.093
			c-0.192-0.089-0.383-0.178-0.576-0.267c-0.456,0.657-0.893,1.329-1.372,1.968c-0.986,1.317-1.889,2.719-3.022,3.897
			c-1.269,1.32-2.88,2.103-4.711,1.098c-1.932-1.06-2.175-3.001-1.631-4.777c1.115-3.643,3.62-6.393,6.494-8.803
			c0.112-0.095,0.394,0.011,0.855,0.04c-0.621,1.176-1.392,2.171-1.657,3.286c-0.218,0.921,0.161,1.986,0.275,2.986
			c0.769-0.453,1.669-0.776,2.277-1.388c1.118-1.126,2.015-2.471,3.096-3.639c2.246-2.429,7.61-2.72,10.332-0.748
			c0.454,0.329,1.384,0.207,2.024,0.033c1.283-0.348,2.563-0.879,3.773-1.271c6.808-2.203,10.505-2.203,16.782-0.251
			c1.058,0.328,2.199,1.011,3.3,1.547c0.973,0.473,1.96,0.918,2.926,1.406c1.789,0.905,3.56,1.843,5.352,2.744
			c1.356,0.683,2.216,0.137,2.711-1.184c0.548-1.463,1.086-2.929,1.903-4.376c1.104,2.043,0.74,4.182,0.523,6.306
			c-0.077,0.77-0.444,1.639-0.206,2.289c1.462,4.003-0.819,8.215-6.446,7.135c-0.639-0.123-1.251-0.374-1.888-0.513
			c-1.17-0.255-1.801,0.308-1.465,1.413c2.321,7.633,1.553,15.924,5.033,23.323c0.697,1.48,0.807,3.234,1.201,4.859
			c0.974,4.01,3.414,6.822,7.168,8.421c1.068,0.455,2.331,0.454,3.866,0.727c-0.565,0.621-1.068,1.224-1.626,1.772
			c-1.033,1.014-2.146,1.948-3.14,2.997c-3.265,3.448-2.439,7.482-1.582,11.514c1.104,5.187,2.11,10.394,3.302,15.559
			c1.922,8.329,3.898,16.646,5.995,24.934c0.51,2.016,1.504,3.926,2.402,5.824c1.296,2.74,5.393,3.589,7.362,1.303
			c1.723-1.999,2.939-4.438,4.337-6.711c0.353-0.573,0.54-1.25,0.804-1.879c0.298,0.04,0.596,0.079,0.895,0.119
			c-0.062,1.236,0.137,2.557-0.229,3.695c-1.462,4.548-2.659,9.241-5.612,13.143c-2.077,2.747-4.521,5.036-8.05,5.856
			c-2.809,0.651-4.54-1.201-6.26-2.744c-3.313-2.97-3.165-3.013-5.746,0.584c-0.757,1.055-2.104,1.667-3.012,2.641
			c-0.883,0.946-6.314,0.267-8.606-0.8c-4.307-2.003-6.716-5.385-7.285-10.086c-0.253-2.09-0.536-4.176-0.701-6.271
			c-0.066-0.854,0.041-1.758,0.279-2.58c0.132-0.461,0.69-0.799,1.057-1.192c0.428,0.404,1.172,0.767,1.234,1.222
			c0.341,2.509,2.02,3.941,3.927,5.207c0.372,0.246,1.032,0.455,1.339,0.286c0.29-0.159,0.453-0.87,0.387-1.295
			c-0.716-4.579-1.432-9.159-2.26-13.719c-0.712-3.922-1.63-7.807-2.341-11.729c-0.319-1.757-0.867-3.309-2.649-3.931
			c-2.376-0.829-4.792-1.577-7.24-2.152C352.003,320.539,351.084,321.031,350.235,321.214z"/>
		<path fill-rule="evenodd" clip-rule="evenodd" fill="#FFFFFF" d="M240.288,298.858c1.022-0.879,1.968-1.87,3.08-2.611
			c3.593-2.394,4.535-5.867,4.437-9.922c-0.172-7.118-0.194-14.24-0.341-21.358c-0.121-5.858-0.286-11.716-0.551-17.568
			c-0.04-0.876-0.729-1.722-1.118-2.582c-0.745,0.494-1.581,0.894-2.217,1.502c-1.328,1.27-2.488,2.717-3.828,3.971
			c-2.038,1.906-4.848,0.997-5.54-1.722c-1.018-4,1.865-10.413,5.864-12.229c-0.644,0.926-1.181,1.467-1.439,2.119
			c-0.496,1.247-1.01,2.538-1.151,3.85c-0.06,0.555,0.701,1.391,1.298,1.732c0.249,0.141,1.118-0.607,1.579-1.075
			c1.876-1.9,3.589-3.981,5.604-5.716c0.839-0.723,2.268-0.961,3.454-1.045c2.606-0.184,5.237-0.277,7.844-0.135
			c4.071,0.221,6.795,2.693,8.773,5.999c1.212,2.024,1.347,2.083,2.997,0.407c3.613-3.67,7.752-5.956,13.191-5.883
			c10.899,0.148,18.131,5.345,21.88,15.677c2.815,7.754,3.6,15.744,2.942,23.796c-0.528,6.456-1.34,12.947-4.628,18.873
			c-3.872,6.977-9.696,11.382-17.154,13.472c-3.787,1.061-7.867,1.198-11.834,1.432c-1.645,0.097-2.063,0.661-1.979,2.046
			c0.28,4.569,0.52,9.142,0.879,13.704c0.735,9.335,1.52,18.668,2.338,27.995c0.085,0.977,0.359,2.026,0.851,2.86
			c1.057,1.793,2.681,3.013,4.846,2.72c2.144-0.288,3.433-1.946,4.06-3.834c0.706-2.123,0.98-4.387,1.466-6.584
			c0.14-0.628,0.366-1.236,0.553-1.854c0.277,0.013,0.554,0.024,0.831,0.037c0.107,1.065,0.331,2.133,0.301,3.192
			c-0.154,5.523-1.316,10.688-4.375,15.487c-3.202,5.024-10.632,4.459-13.83,0.872c-1.807-2.026-3.321-4.315-4.995-6.525
			c-1.363,1.784-2.641,3.773-4.227,5.475c-4.11,4.406-10.335,3.332-12.586-2.32c-1.674-4.207-3.649-8.442-3.062-13.213
			c0.089-0.722,0.061-1.493,0.325-2.144c0.205-0.504,0.785-0.854,1.198-1.271c0.271,0.454,0.619,0.881,0.796,1.369
			c0.465,1.285,0.854,2.596,1.274,3.896c0.223-0.042,0.446-0.085,0.669-0.128c0.143-0.354,0.425-0.717,0.405-1.062
			c-0.192-3.381-0.434-6.76-0.664-10.14c-0.029-0.432-0.114-0.862-0.113-1.293c0.029-11.755,0.114-23.507,0.068-35.26
			c-0.011-2.951-2.328-4.544-6.02-4.519c-0.616,0.003-1.232,0.066-1.849,0.103C240.49,299.255,240.389,299.057,240.288,298.858z
			 M286.558,267.282c-0.461-3.551-0.877-8.929-1.974-14.165c-0.452-2.156-2.06-4.326-3.707-5.899
			c-1.492-1.424-3.834-1.859-5.9-0.699c-3.053,1.715-5.256,4.403-5.403,7.847c-0.158,3.721,0.786,7.475,0.925,11.226
			c0.349,9.438,0.501,18.883,0.792,28.322c0.018,0.604,0.396,1.458,0.876,1.742c2.167,1.284,7.684,0.509,9.493-1.295
			c3.312-3.301,4.511-7.577,4.829-12.01C286.804,277.96,286.558,273.529,286.558,267.282z"/>
		<path fill-rule="evenodd" clip-rule="evenodd" fill="#FFFFFF" d="M197.488,353.257c3.233,3.264,7.221,3.113,11.349,0.397
			c3.446-2.268,4.992-5.922,5.879-9.629c2.751-11.489,0.757-22.034-7.081-31.205c-2.811-3.287-3.93-3.595-7.881-1.943
			c-0.662,0.276-1.442,0.268-2.167,0.392c-0.067-0.762-0.239-1.533-0.177-2.284c0.127-1.517,0.647-3.049,0.496-4.522
			c-0.111-1.087-0.845-2.259-1.618-3.105c-3.079-3.363-6.43-6.485-9.397-9.94c-3.738-4.354-4.725-9.829-5.769-15.3
			c-1.543-8.083-0.569-15.935,2.034-23.562c0.948-2.776,2.854-5.312,4.671-7.691c7.777-10.176,20.836-9.691,29.788-4.542
			c1.232,0.709,2.33,1.784,3.234,2.896c1.162,1.43,2.241,1.15,3.29,0.116c0.649-0.641,1.183-1.483,1.523-2.333
			c0.678-1.694-0.021-2.613-1.883-2.68c-0.484-0.018-0.971-0.003-1.456-0.003c-0.071-0.194-0.142-0.389-0.212-0.583
			c0.904-0.374,1.783-0.954,2.721-1.079c1.792-0.235,3.622-0.293,5.43-0.241c0.479,0.013,1.372,0.763,1.327,1.062
			c-0.152,1.004-0.369,2.26-1.052,2.872c-1.983,1.777-4.163,3.348-6.352,4.875c-0.981,0.684-1.153,1.168-0.562,2.28
			c2.377,4.458,1.655,10.855-1.674,14.656c-0.714,0.815-1.837,1.568-2.875,1.745c-3.071,0.524-6.138,0.715-9.011-1.12
			c-3.018-1.929-3.992-4.488-2.852-8.015c0.367-1.137,1.642-2.263,0.269-3.57c-1.087-1.036-5.132-2.163-6.074-1.298
			c-1.661,1.524-3.69,3.182-4.333,5.18c-2.129,6.61-1.181,13.154,3.24,18.519c2.312,2.804,5.678,4.979,8.958,6.688
			c4.393,2.288,9.141,3.909,13.791,5.673c0.92,0.348,2.086,0.05,3.612,0.05c-0.591,1.035-0.96,1.755-1.398,2.432
			c-1.116,1.724-1.32,3.379-0.275,5.305c2.522,4.647,5.311,9.219,6.34,14.498c2.448,12.554,3.037,25.133-0.775,37.521
			c-2.21,7.184-5.511,13.867-11.221,19.071c-5.912,5.389-15.18,6.291-21.859,1.403c-2.449-1.791-4.805-3.709-7.228-5.536
			c-0.3-0.226-0.765-0.36-1.127-0.317c-0.166,0.02-0.452,0.636-0.371,0.876c0.552,1.643,1.053,3.328,1.86,4.847
			c0.348,0.652,1.359,0.989,2.118,1.371c0.441,0.223,1.092,0.109,1.454,0.394c0.752,0.595,1.374,1.354,2.049,2.046
			c-0.945,0.341-1.912,1.015-2.832,0.956c-2.09-0.135-4.168-0.574-6.233-0.988c-3.224-0.646-5.973-3.767-6.351-7.467
			c-0.332-3.261,0.007-6.439,2.772-8.763c1.094-0.918,0.679-1.814,0.281-2.915c-1.482-4.104-1.901-8.178,0.595-12.138
			c2.796-4.438,9.297-5.211,12.977-1.475C201.935,341.685,201.984,347.75,197.488,353.257z"/>
		<path fill-rule="evenodd" clip-rule="evenodd" fill="#FFFFFF" d="M482.651,218.841c-0.513-0.989-0.791-1.644-1.171-2.232
			c-0.781-1.206-1.351-2.854-2.475-3.48c-5.93-3.302-12.07-5.315-18.543-1.24c-3.914,2.464-7.761,5.048-11.769,7.35
			c-1.37,0.788-3.141,0.88-4.729,1.286c-1.463,0.375-2.906,0.883-4.392,1.093c-4.757,0.674-8.728-1.218-11.568-4.755
			c-2.184-2.716-3.134-6.272-2.526-9.844c0.538-3.161,1.527-6.244,2.316-9.362c0.247-0.009,0.492-0.018,0.738-0.027
			c0.206,0.662,0.608,1.33,0.587,1.984c-0.152,4.58,6.198,8.339,10.127,5.076c2.892-2.401,6.061-4.497,9.247-6.503
			c2.316-1.458,4.742-2.998,7.338-3.695c4.241-1.14,8.634-1.943,13.01-2.292c4.183-0.333,8.277,0.889,12.01,2.806
			c1.246,0.641,2.381,1.982,2.983,3.275c0.868,1.864,1.804,4.025,1.643,5.97c-0.38,4.543-1.39,9.033-2.165,13.541
			C483.27,218.038,483.033,218.25,482.651,218.841z"/>
		<path fill-rule="evenodd" clip-rule="evenodd" fill="#FFFFFF" d="M634.39,306.968c0.288-4.361,0.225-8.749,0.253-13.126
			c0.01-1.885,0.127-3.821-0.262-5.635c-0.187-0.88-1.307-1.791-2.224-2.221c-0.849-0.399-1.992-0.154-3.004-0.234
			c-1.158-0.093-1.399-0.764-0.766-1.622c0.643-0.868,1.409-1.66,2.206-2.395c2.719-2.502,3.781-5.521,3.348-9.214
			c-0.243-2.069-0.006-4.19-0.069-6.285c-0.164-5.362-0.445-10.722-0.534-16.085c-0.046-2.811,0.253-5.625,0.298-8.439
			c0.011-0.567-2.304-1.392-2.72-1.64c-0.412-0.246-1.37-0.133-1.738,0.205c-1.372,1.264-2.664,2.63-3.867,4.058
			c-1.512,1.789-2.788,2.104-4.846,0.981c-2.282-1.246-3.184-2.868-2.146-5.374c1.537-3.72,4.666-6.187,7.641-8.696
			c0.172,0.136,0.343,0.271,0.515,0.408c-0.349,0.443-0.691,0.893-1.049,1.328c-0.594,0.722-1.28,1.384-1.783,2.165
			c-0.738,1.146-0.96,2.599,0.362,3.226c0.672,0.319,2.087-0.338,2.855-0.945c1.299-1.023,2.278-2.438,3.52-3.547
			c3.312-2.958,7.314-2.888,11.331-2.226c0.767,0.126,1.468,1.066,2.062,1.749c1.476,1.697,2.405,1.907,3.881,0.32
			c2.599-2.796,6.002-3.053,9.42-3.152c0.78-0.023,1.705,0.727,2.357,1.34c1.149,1.08,2.125,2.34,3.198,3.503
			c1.85,2.006,2.806,1.936,4.404-0.292c0.164-0.23,0.357-0.439,0.688-0.839c1.981,0.971,2.48,2.683,2.473,4.609
			c-0.008,1.502-0.117,1.5-0.209,3.002c-0.657,1.381-3.553,2.508-6.271,1.342c-5.188-2.224-4.515,2.298-4.763,7.446
			c-0.273,5.708,0.204,11.454,0.351,17.182c0.042,1.587,0.241,3.192,0.066,4.756c-0.194,1.752,0.642,2.716,1.945,3.557
			c1.981,1.277,3.939,2.588,6.126,4.028c-0.707,0.6-1.272,1.315-2.01,1.663c-5.04,2.378-6.283,6.41-5.766,11.666
			c0.589,5.985-0.423,12.024-0.033,18.031l0.557,10.218c0.049,6.103,0.128,12.205,0.335,18.303c0.021,0.631,0.99,1.762,1.519,1.759
			c5.344-0.017,10.688-0.21,16.032-0.389c0.646-0.021,1.287-0.23,1.923-0.386c3.324-0.813,3.745-1.728,2.11-4.869
			c-0.53-1.02-1.196-1.998-1.953-2.86c-3.527-4.013-2.69-9.104,1.973-11.758c1.012-0.576,2.006-1.185,3.008-1.778
			c0.165,0.194,0.33,0.389,0.495,0.584c-0.393,0.496-0.754,1.02-1.185,1.481c-1.837,1.976-1.946,3.497-0.461,5.81
			c2.071,3.223,4.628,6.259,6.023,9.757c1.635,4.097,2.791,8.598-0.221,12.858c-0.239,0.336,0.245,1.702,0.722,1.946
			c6.021,3.069,6.086,5.748,4.764,12.782c-0.073,0.386-0.598,0.714-0.959,1.012c-0.488,0.403-1.023,0.75-1.786,1.301
			c-0.357-0.802-0.843-1.812-1.255-2.85c-1.36-3.422-4.656-4.729-8.192-3.741c-7.479,2.087-15.14,3.017-22.852,1.733
			c-3.41-0.567-5.951-2.876-7.604-5.997c-0.428-0.809-0.845-1.623-1.578-3.037c-0.499,1.235-0.819,1.881-1.025,2.56
			c-1.058,3.532-3.005,6.484-6.039,8.555c-4.58,3.126-8.879,1.935-11.173-3.324c-2.226-5.104-3.493-10.478-2.48-16.139
			c0.063-0.35,0.182-0.693,0.313-1.023c0.048-0.114,0.217-0.179,0.589-0.467c2.2,2.21,0.103,6.776,4.504,8.109
			c0-1.426,0.027-2.676-0.003-3.925c-0.317-11.827-0.646-23.652-0.963-35.479"/>
	</g>
</g>
</svg>
