<?xml version="1.0" encoding="utf-8"?>
<!-- Generator: Adobe Illustrator 16.0.0, SVG Export Plug-In . SVG Version: 6.00 Build 0)  -->
<!DOCTYPE svg PUBLIC "-//W3C//DTD SVG 1.1//EN" "http://www.w3.org/Graphics/SVG/1.1/DTD/svg11.dtd">
<svg version="1.1" id="Layer_1" xmlns="http://www.w3.org/2000/svg" xmlns:xlink="http://www.w3.org/1999/xlink" x="0px" y="0px"
	 width="800px" height="600px" viewBox="0 0 800 600" enable-background="new 0 0 800 600" xml:space="preserve">
<g>
	<path fill-rule="evenodd" clip-rule="evenodd" fill="#FFFFFF" d="M150.811,337.021c-0.601-1.105-0.46-1.737-0.08-2.408
		c6.669-11.801,15.348-21.929,25.691-30.628c3.932-3.306,8.36-5.762,13.397-7.145c3.497-0.959,6.607,0.424,9.693,1.347
		c1.611,0.482,2.611,2.604,3.503,4.298c1.967,3.74,3.005,7.724,3.251,11.931c0.089,1.521,0.212,3.039,0.378,5.367
		c0.796-1.361,1.248-2.083,1.65-2.832c3.775-7.028,8.467-13.45,13.357-19.707c3.093-3.96,5.406-4.364,10.032-2.799
		c0.973,0.329,1.539,0.849,2.064,1.742c2.456,4.17,4.006,8.565,4.062,13.468c0.023,1.997,0.134,4.018,1.532,5.734
		c1.958,2.402,3.617,2.672,6.039,0.771c6.284-4.934,10.76-11.29,14.389-18.311c0.536-1.035,0.865-2.207,2.107-2.891
		c0.987,0.771,1.565,1.611,1.012,2.946c-3.451,8.326-6.577,16.782-10.921,24.733c-3.672,6.722-8.892,11.964-14.737,16.693
		c-1.089,0.882-2.345,1.589-3.728,2.043c-5.214,1.708-8.269,0.053-10.813-4.074c-1.039-1.685-1.559-3.694-2.271-5.574
		c-0.902-2.384-1.615-2.776-3.948-1.997c-3.246,1.082-5.035,3.871-7.114,6.264c-3.261,3.75-4.914,8.156-5.74,13.109
		c-1.365,8.193-3.271,16.298-4.956,24.438c-0.119,0.574-0.337,1.135-0.029,1.846c1.645-0.518,2.708-1.818,3.92-2.911
		c1.845-1.667,3.52-3.546,5.782-4.699c6.957-3.541,13.408-0.041,14.185,7.708c0.14,1.409,0.011,2.841,0.657,4.188
		c1.114,2.325,1.563,2.463,3.655,0.997c4.052-2.834,7.065-6.666,10.048-10.515c1.747-2.255,3.735-4.2,6.112-5.744
		c0.854,0.923,0.353,1.712,0.048,2.434c-2.021,4.798-4.189,9.472-7.074,13.888c-1.979,3.034-3.648,6.32-5.758,9.314
		c-1.854,2.633-4.058,4.958-6.349,7.198c-2.418,2.365-5.364,3.513-8.757,3.153c-2.08-0.221-4.395-0.287-4.382-3.392
		c0.001-0.46-0.678-0.919-1.035-1.385c-1.456-1.903-2.586-3.973-3.229-6.292c-0.127-0.457-0.236-0.925-0.407-1.365
		c-0.817-2.097-1.505-4.528-4.074-4.926c-2.556-0.396-6.302,2.689-7.07,5.427c-3.333,11.901-6.104,23.921-7.937,36.157
		c-0.669,4.459-1.128,8.93-1.518,13.416c-0.121,1.396-0.586,2.78-1.026,4.127c-0.497,1.518-0.72,2.98,0.157,4.736
		c5.803-1.209,10.824-3.921,15.241-7.847c1.507-1.339,2.918-2.791,4.478-4.062c0.606-0.495,1.57-0.825,2.303-0.229
		c0.693,0.567,0.138,1.322-0.115,1.945c-0.492,1.21-0.805,2.606-1.631,3.537c-1.826,2.062-1.319,5.035-3.062,7.06
		c0.667,1.573-0.554,2.402-1.356,3.373c-1.613,1.947-2.393,4.357-3.662,6.498c-3.751,6.323-7.62,12.625-12.74,17.903
		c-5.502,5.671-12.583,7.942-20.399,6.752c-4.896-0.746-8.298-3.87-9.946-8.675c-2.42-7.06-3.123-14.361-2.933-21.764
		c0.26-10.158,2.626-19.987,4.792-29.849c2.444-11.13,5.815-22.034,8.241-33.158c1.266-5.805,3.06-11.461,4.276-17.268
		c0.461-2.196,1.187-4.285,2.225-6.332c1.319-2.602,1.259-5.645,1.918-8.473c1.209-5.188,2.65-10.339,2.771-15.739
		c0.096-4.277-2.667-7.839-6.954-8.367c-5.659-0.693-10.74,1.232-15.65,3.756C151.871,336.221,151.422,336.602,150.811,337.021z
		 M200.325,444.125c-0.574-0.548-0.883-0.229-1.197-0.172c-0.606,0.105-0.964,0.573-1.425,0.933
		c-4.21,3.296-8.538,6.415-13.916,7.568c-3.812,0.817-5.344-0.251-5.674-4.164c-0.22-2.61,0.113-5.214,0.686-7.774
		c0.278-1.24,0.61-2.475-0.449-3.93c-5.375,3.117-10.29,6.588-15.329,9.867c-1.863,1.211-3.037,3.335-5.221,4.042
		c-1.83,0.594-2.239,1.955-2.347,3.558c-0.407,6.049,0.688,11.845,3.309,17.292c1.317,2.739,3.734,4.56,6.771,4.508
		c5.275-0.09,10.129-1.237,14.133-5.394C187.434,462.399,194.365,453.744,200.325,444.125z"/>
	<path fill-rule="evenodd" clip-rule="evenodd" fill="#FFFFFF" d="M299.004,435.052c1.972-2.797,4.496-5.197,5.859-8.443
		c0.398-0.947,1.333-1.751,2.606-1.321c1.328,0.451,1.305,1.575,1.108,2.658c-0.167,0.927-0.439,1.845-0.756,2.734
		c-3.985,11.193-8.333,22.228-14.373,32.509c-1.5,2.554-3.17,5.008-4.774,7.502c-1.131,1.762-2.832,2.886-4.641,3.773
		c-2.533,1.245-5.167,2.273-7.719,3.493c-2.439,1.168-4.951,0.094-6.896-1.555c-3.515-2.978-5.897-6.743-7.029-11.271
		c-2.121-8.487-2.722-17.062-1.952-25.781c0.877-9.943,2.525-19.744,4.315-29.562c1.531-8.392,2.642-16.876,4.255-25.266
		c2.083-10.84,4.357-21.642,6.611-32.448c1.549-7.427,2.545-14.975,3.71-22.479c0.423-2.721-0.731-3.545-3.276-2.191
		c-4.736,2.521-8.752,5.9-11.536,10.596c-0.458,0.773-0.579,1.873-1.799,2.086c-0.8-0.845-0.346-1.692-0.016-2.547
		c2.536-6.578,6.232-12.491,10.351-18.173c3.818-5.269,7.489-10.637,11.757-15.575c3.584-4.149,7.911-7.082,13.057-8.797
		c3.249-1.085,8.055,1.195,9.446,4.595c2.398,5.865,3.873,11.954,3.545,18.887c1.872-2.661,3.357-5.135,5.193-7.314
		c4.669-5.549,9.5-10.908,16.618-13.53c17.564-6.467,33.033,5.975,32.867,22.609c-0.044,4.438-0.907,8.727-2.501,12.861
		c-0.466,1.212-1.053,2.38-1.102,3.716c-0.68,1.34-1.475,2.624-1.828,4.107c-1.98,1.895-3.211,4.374-4.609,6.631
		c-4.194,6.769-9.596,12.369-15.693,17.329c-3.46,2.814-7.144,5.366-11.182,7.363c-2.204,1.089-4.281,2.438-6.331,3.62
		c-0.21,0.85,0.251,1.275,0.759,1.546c8.168,4.327,10.955,12.128,12.973,20.326c1.849,7.502,2.602,15.195,3.58,22.847
		c0.586,4.585,1.479,9.128,2.132,13.706c0.218,1.527,0.6,2.9,2.212,3.285c1.672,0.399,3.373,0.062,4.504-1.315
		c1.502-1.831,2.923-3.751,4.166-5.767c2.605-4.225,5.111-8.515,7.573-12.826c0.772-1.355,1.629-2.273,3.424-1.951
		c0.422,1.815-0.254,3.491-0.82,5.145c-2.049,5.985-4.404,11.879-6.178,17.941c-2.026,6.935-5.126,13.462-7.19,20.363
		c-0.604,2.021-2.17,3.69-2.136,5.939c-0.183,0.002-0.269,0.091-0.258,0.274c-0.701,0.436-1.278,0.943-1.038,1.896
		c-2.507,3.982-5.155,7.826-9.667,9.843c-1.825-0.512-2.701,0.796-3.675,1.918c-0.86,0.031-1.72,0.062-2.58,0.096
		c-0.025-0.116-0.012-0.265-0.08-0.346c-1.571-1.899-4.104-2.817-5.258-5.143c-3.529-7.109-6.686-14.263-7.458-22.38
		c-0.833-8.736-0.868-17.515-1.843-26.24c-0.983-8.828-1.586-17.701-2.29-26.559c-0.124-1.561-0.5-3.042-0.934-4.514
		c-1.526-5.162-4.982-9.009-8.719-13.088c-0.982,1.688-1.928,2.756-3.756,2.655c-1.457-0.081-1.425,1.276-1.651,2.303
		c-2.065,9.375-4.13,18.749-6.219,28.119c-0.722,3.238-1.382,6.494-2.297,9.68c-1.218,4.237-1.045,8.681-2.104,12.938
		c-0.246,0.989-0.083,2.153,0.153,3.176c0.588,2.542,3.037,3.323,4.932,1.648c0.796-0.703,1.571-1.433,2.356-2.149
		c0.183,0.221,0.367,0.44,0.551,0.661c-1,3.526-2.833,6.307-6.293,7.984c-3.045,1.479-4.427,1.148-5.786-1.939
		c-1.439-3.272-1.518-6.658-0.965-10.133c0.559-3.51,0.922-7.051,1.506-10.557c1.323-7.962,2.333-16.01,4.258-23.828
		c1.07-4.341,2.327-8.688,3.515-13.025c1.372-5.004,2.852-10.004,3.047-15.674c-4.524,0.578-8.663,1.645-12.286,4.302
		c-0.666,0.491-1.208,1.37-1.925,1.523c-3.258,0.7-3.64,3.367-4.283,5.881c-1.586,6.212-3.161,12.426-4.123,18.776
		c-1.332,8.784-3.799,17.371-4.553,26.264c-0.378,4.482-0.981,8.948-1.439,13.425c-0.119,1.165-0.497,2.436,0.075,3.501
		c1.032,1.921,0.925,3.92,0.606,5.896c-0.515,3.198,0.296,6.166,1.419,9.042c1.495,3.826,5.928,6.175,10.057,5.779
		c2.833-0.268,5.165-1.487,7.373-3.144c2.969-2.232,4.872-5.366,6.812-8.377c3.249-5.042,5.298-10.761,8.505-15.846
		c0.627-0.998,0.447-2.058,0.255-3.109c-0.157-0.864-0.832-1.066-1.6-1.085C299.423,435.387,299.214,435.219,299.004,435.052z
		 M298.451,372.861c0.007,0.796,0.532,0.901,0.892,1.185c2.506,1.976,5.346,3.514,7.57,5.864c6.324,6.679,9.86,14.682,11.324,23.676
		c1.677,10.306,2.14,20.746,3.422,31.098c1.092,8.819,1.482,17.729,4.16,26.319c0.663,2.128,1.668,3.915,2.968,5.582
		c2.114,2.707,4.028,2.896,6.992,1.026c1.627-1.028,3.001-2.28,4.199-3.786c4.903-6.179,8.16-13.305,11.69-20.267
		c1.294-2.55,2.73-5.1,3.089-8.067c-1.821-0.428-2.238,0.921-2.856,1.823c-1.072,1.564-1.875,3.329-3.047,4.805
		c-2.058,2.593-5.055,3.928-8.155,3.327c-2.133-0.414-2.428-3.155-2.996-5.186c-1.511-5.4-1.715-11.001-2.583-16.502
		c-1.438-9.132-2.314-18.353-5.344-27.192c-2.718-7.935-7.355-14.208-14.571-18.535c-0.504-0.301-0.954-0.702-1.403-1.087
		c-0.437-0.372-0.974-0.721-0.718-1.444c0.194-0.546,0.726-0.686,1.154-0.652c2.113,0.175,3.829-1.033,5.651-1.712
		c2.289-0.853,4.391-2.209,6.563-3.369c0.655-0.349,1.281-0.908,1.09-1.664c-0.197-0.786-1.085-0.779-1.777-0.9
		c-1.162-0.201-2.376,0.025-3.501-0.49c-1.637-0.748-3.107-0.492-4.71,0.398c-3.859,2.147-8.043,3.408-12.36,4.396
		C302.954,372.017,300.495,371.699,298.451,372.861z M302.115,369.134c0.693,0.391,1.113,0.123,1.527-0.056
		c6.968-3.026,13.667-6.511,19.887-10.934c7.74-5.498,13.984-12.176,18.211-20.787c2.666-5.431,0.263-9.678-4.226-11.604
		c-1.93-0.827-3.88-1.058-5.908-0.632c-7.378,1.552-13.061,5.902-18.181,11.136c-1.549,1.583-2.539,3.739-4.86,4.511
		c-0.766,0.252-0.909,1.021-1.062,1.723c-1.46,6.715-2.955,13.422-4.368,20.146C302.679,364.81,302.438,367.03,302.115,369.134z"/>
	<path fill-rule="evenodd" clip-rule="evenodd" fill="#FFFFFF" d="M363.64,246.983c-1.684,2.895-3.771,5.474-6.1,7.856
		c-3.223,3.299-6.878,5.84-11.655,6.286c-0.352,0.033-0.694,0.157-1.039,0.247c-9.262,2.406-17.344-1.705-20.915-10.618
		c-2.62-6.538-3.18-13.291-2.622-20.279c0.846-10.614,3.497-20.8,6.573-30.926c5.07-16.696,10.041-33.42,15.085-50.124
		c0.995-3.292,2.167-6.529,3.208-9.81c1.301-4.105,2.225-8.283,1.421-12.612c-0.72-3.876-1.939-4.559-5.687-3.541
		c-4.688,1.274-8.568,3.923-12.181,7.044l0.054-0.028c-0.521-1.378,0.334-2.292,1.172-3.11c6.874-6.701,13.076-14.075,20.478-20.243
		c3.917-3.265,8.04-6.194,12.648-8.41c3.403-1.637,7.105-0.73,9.581,2.176c2.642,3.103,3.418,6.698,3.18,10.615
		c-0.376,6.18-1.691,12.215-2.976,18.248c-2,9.394-4.227,18.737-6.695,28.021c-1.117,4.198-2.225,8.399-3.326,12.602
		c-0.952,3.63-1.723,7.318-2.866,10.886c-2.231,6.963-3.389,14.184-5.35,21.208c-1.948,6.976-3.579,14.028-4.902,21.148
		c-0.627,3.378-1.232,6.761-1.078,10.525c4.093-1.682,6.915-4.711,9.99-7.392c2.153-1.056,3.205-3.253,4.936-4.742
		c3.503-2.456,6.38-5.553,9.008-8.888c3.964-5.034,8.151-9.901,11.541-15.37c0.815-1.315,1.634-2.596,2.094-4.1
		c6.248-20.433,12.528-40.854,18.767-61.288c0.659-2.153,1.261-4.346,1.619-6.564c0.435-2.691-0.664-3.702-3.246-2.699
		c-3.381,1.313-7.068,2.101-9.837,4.73c-0.128,0.12-0.418,0.065-0.654,0.096c-0.65-1.233,0.198-2.037,0.894-2.803
		c3.832-4.212,7.317-8.732,11.369-12.75c4.092-4.057,8.661-7.394,14.094-9.447c0.444-0.167,0.875-0.369,1.324-0.516
		c6.078-1.985,9.536-1.064,11.928,6.608c1.09,3.494,1.214,7.208,0.358,10.925c-2.506,10.87-5.051,21.723-7.911,32.51
		c-3.55,13.383-7.736,26.561-12.096,39.685c-3.548,10.683-7.364,21.276-10.588,32.066c-0.577,1.93-1.153,3.877-1.503,5.857
		c-0.459,2.586,0.615,3.462,3.128,3.037c3.133-0.53,5.149-2.635,7.216-4.736c2.891-2.939,5.846-5.81,9.215-8.033
		c0.575,0.318,0.721,0.669,0.598,0.995c-2.235,6.008-5.19,11.669-8.787,16.95c-5.608,8.232-15.492,25.604-27.453,23.79
		c-10.305-1.563-9.633-19.329-8.979-26.685c0.145-1.615,1.309-8.866,3.217-15.382C379.892,220,366.864,241.441,363.64,246.983z
		 M403.761,242.647c2.793-2.647,6.951-7.593,8.357-10.253c-1.509,0.862-4.593,4.253-5.865,5.497
		c-1.272,1.243-5.442,5.633-10.329,7.863c-4.887,2.23-4.082-6.34-3.691-8.605c1.568-9.123,3.358-18.184,5.971-27.093
		c2.905-9.912,5.927-19.775,9.546-29.453c0.542-1.45,0.959-3.34-0.646-4.204c-1.593-0.857-3.539-1.248-5.462-0.869
		c-0.205,0.041-0.539,0.275-0.534,0.413c0.065,2.456-8.299,19.035-12.521,24.739c-4.714,6.37-9.713,12.534-14.722,18.679
		c-5.006,6.142-9.796,12.497-15.613,17.92c-4.068,3.792-8.216,7.537-13.446,9.762c-5.989,2.545-4.731-16.318-4.783-19.664
		c-0.264-17.133,9.405-31.237,12.675-47.626c0.062-0.311-0.073-0.726-0.251-1.008c-1.073-1.698-6.12-2.217-7.7-0.865
		c-0.851,0.729-1.375,1.673-1.744,2.649c-1.998,5.307-6.119,18.885-6.617,20.216c-5.152,13.77-7.382,27.951-6.072,42.636
		c0.095,1.064-0.962,9.104,8.798,10.468c9.761,1.365,27.564-18.454,30.38-22.052l12.155-16.152c2.345-2.436,4.62-7.231,5.815-6.662
		c2.692,1.281-0.279,10.283-0.706,11.965c-1.603,6.316-4.021,12.891-3.808,19.496c0.148,4.605,2.291,9.156,7.508,9.948
		C395.402,251.144,400.966,245.294,403.761,242.647z"/>
	<path fill-rule="evenodd" clip-rule="evenodd" fill="#FFFFFF" d="M372.331,329.182c2.798-2.779,4.433-6.375,6.671-9.549
		c4.116-5.836,8.401-11.503,13.798-16.25c4.241-3.731,9.361-6.042,14.276-8.592c3.76-1.951,7.881-0.652,10.601,2.378
		c0.761,0.847,0.875,1.911,1.022,2.977c0.863,6.205,0.091,12.341-1.006,18.418c-3.036,16.816-6.359,33.568-10.725,50.11
		c-2.758,10.448-4.269,21.178-6.283,31.793c-1.486,7.831-2.34,15.733-3.07,23.657c-0.385,4.176-0.196,8.315,0.923,12.367
		c0.612,2.216,1.146,2.439,2.883,1.015c2.747-2.257,5.553-4.466,7.909-7.164c6.262-7.167,11.903-14.781,16.861-22.915
		c3.907-6.411,5.421-13.637,7.306-20.729c2.228-8.39,3.522-16.972,4.767-25.552c0.89-6.127,2.529-12.085,4.02-18.066
		c1.154-4.628,1.674-9.34,2.554-14c0.474-2.508,0.016-4.979-1.236-7.238c-1.172-2.113-2.194-2.341-4.291-1.085
		c-3.513,2.103-6.12,5.227-9.062,7.974c-0.639,0.595-1.205,1.925-2.218,1.142c-0.921-0.709-0.001-1.706,0.418-2.528
		c4.472-8.772,9.548-17.161,16.637-24.09c3.02-2.952,6.351-5.63,10.446-7.146c1.094-0.405,1.988-0.698,2.941,0.133
		c0.087,0.076,0.205,0.135,0.318,0.16c7.956,1.769,10.177,7.763,10.789,14.827c0.467,5.37-0.446,10.669-1.282,15.946
		c-1.612,10.199-3.3,20.384-4.877,30.591c-1.54,9.966-3.751,19.826-5.74,29.718c-2.13,10.593-4.436,21.147-6.481,31.754
		c-0.942,4.895-1.476,9.865-2.141,14.81c-0.189,1.413-0.112,2.847,0.219,4.251c0.608,2.584,1.807,3.246,4.075,2.021
		c4.011-2.163,7.491-4.979,10.112-8.768c1.417-2.052,2.862-4.084,4.27-6.141c0.603-0.882,1.206-1.728,2.388-2.093
		c1.037,0.982,0.503,1.966,0.179,2.922c-1.306,3.842-3.227,7.388-5.196,10.916c-3.067,5.488-5.981,11.063-8.974,16.588
		c-4.019,7.414-9.306,14.044-14.924,20.349c-1.653,1.858-3.765,3.229-5.951,4.479c-3.433,1.96-6.86,0.989-8.487-2.691
		c-3.202-7.235-4.879-14.674-4.462-22.76c0.51-9.877,2.33-19.557,3.454-29.337c0.405-3.532,2.494-6.697,4.156-10.116
		c1.214,1.199,0.741,1.98,0.541,2.732c-1.987,7.509-2.415,15.227-3.111,22.908c-0.021,0.236,0.017,0.481-0.029,0.712
		c-1.058,5.396-0.01,10.782,0.064,16.173c0.037,2.755,0.639,5.422,1.383,8.057c1.14,4.038,4.982,7.163,10.261,4.068
		c3.469-2.032,6.229-4.726,8.425-7.976c4.701-6.957,9.269-14.004,13.848-21.043c0.629-0.964,1.01-2.089,1.296-3.318
		c-2.629,2.637-5.503,4.958-8.132,7.524c-2.107,2.056-4.576,3.285-7.231,4.287c-1.354,0.51-2.332-0.079-2.868-1.343
		c-0.603-1.421-1.157-2.871-1.059-4.464c0.484-7.695,0.846-15.402,2.743-22.93c0.707-2.81,0.541-3.793-2.075-4.851
		c-3.984-1.606-7.706-4.146-12.375-3.794c-1.078,0.081-1.771,0.179-2.352,1.02c-1.679,2.438-3.554,4.76-5.003,7.324
		c-4.287,7.578-9.753,14.276-15.472,20.754c-3.06,3.469-7.172,5.418-11.828,5.954c-2.823,0.328-3.408-0.11-4.635-2.693
		c-1.105-2.325-1.245-4.817-1.355-7.305c-0.45-10.249,0.74-20.385,2.105-30.514c0.301-2.229,0.345-4.495,0.49-6.745
		c0.085-1.322-0.469-2.178-1.705-2.806c-2.253-1.141-4.685-1.693-7.069-2.396c-0.913-0.27-1.96-0.205-2.343,0.991
		c-0.929,2.899-2.047,5.703-2.789,8.71c-2.988,12.128-3.483,24.46-3.468,36.808c0.009,6.728,0.764,13.479,3.374,19.882
		c1.688,4.138,4.923,6.614,8.593,8.545c2.151,1.131,4.691,0.698,6.939-0.243c2.641-1.105,4.917-2.697,6.853-4.927
		c5.646-6.501,9.773-13.946,13.806-21.461c1.677-3.128,3.528-6.166,4.896-9.458c0.4-0.962,0.873-1.955,2.067-2.465
		c0.684,1.85-0.661,3.22-1.158,4.653c-3.352,9.648-7.111,19.136-12.568,27.839c-2.271,3.622-4.771,7.086-7.693,10.216
		c-3.704,3.967-11.835,5.206-16.68,2.677c-2.311-1.205-4.739-2.174-6.661-4.044c-1.479-1.44-2.733-3.01-3.217-5.027
		c-1.135-4.728-2.282-9.455-3.248-14.219c-2.08-10.266-1.248-20.557-0.225-30.866c0.943-9.495,3.463-18.661,5.553-27.907
		c3.901-17.259,7.447-34.593,11.331-51.853c1.281-5.692,2.035-11.449,2.954-17.188c0.599-3.74-1.27-5.382-4.949-4.467
		c-1.411,0.353-2.744,0.885-3.752,1.938c-3.169,3.317-7.037,6.014-9.192,10.243c-0.323,0.634-1.086,0.345-1.552,0.692
		C371.873,331.11,372.102,330.147,372.331,329.182z"/>
	<path fill-rule="evenodd" clip-rule="evenodd" fill="#FFFFFF" d="M260.1,115.19c5.946-6.573,12.266-11.545,19.57-15.134
		c5.091-2.501,10.573-3.776,16.238-2.77c12.288,2.185,19.621,10.53,20.938,23.087c1.224,11.662-0.625,22.957-3.633,34.141
		c-1.232,4.583-2.468,9.174-3.954,13.678c-2.616,7.93-6.66,15.193-10.871,22.363c-3.243,5.522-6.708,10.882-10.718,15.9
		c-2.236,2.798-5.041,4.987-7.471,7.575c-3.133,3.338-5.725,7.082-8.774,10.456c-7.163,7.925-14.649,15.512-23.239,21.936
		c-2.939,2.198-5.546,4.819-8.625,6.852c-1.078,0.712-2.086,1.199-3.492,1.376c-2.055,0.258-4.053,1.253-5.989,2.123
		c-3.427,1.541-7.097,1.864-10.735,2.354c-1.306,0.176-2.595-0.026-3.82-0.605c-5.579-2.631-9.395-6.719-10.779-12.868
		c-1.322-5.877-1.027-11.75-0.4-17.695c0.713-6.742,2.757-13.228,3.416-19.978c0.247-2.528,1.432-4.956,2.122-7.449
		c1.565-5.657,2.599-11.423,3.749-17.173c0.893-4.47,2.302-8.908,3.494-13.359c1.566-5.841,3.216-11.663,4.992-17.443
		c2.368-7.709,4.648-15.441,6.686-23.242c0.383-1.466,0.665-2.836,0.216-4.488c-1.486-5.479-4.073-6.979-9.654-5.536
		c-4.514,1.167-8.772,2.851-12.793,5.181c-0.717,0.415-1.454,0.798-2.196,1.17c-0.608,0.304-1.185,0.174-1.572-0.361
		c-0.286-0.395-0.332-0.935-0.071-1.353c0.308-0.494,0.707-0.941,1.121-1.353c3.369-3.348,6.835-6.574,10.987-8.965
		c5.661-3.259,10.505-7.712,16.201-10.951c5.884-3.344,12.105-5.378,18.82-5.999c5.775-0.534,9.214,2.334,9.707,8.25
		C259.833,108.078,259.904,111.261,260.1,115.19z M298.874,135.674c-0.006-5.004-1.437-8.17-8.402-8.792
		c-3.083-0.275-6.143,0.387-9.061,1.481c-9.068,3.402-17.362,8.171-24.968,14.156c-0.962,0.758-1.716,1.604-2.047,2.815
		c-1.286,4.686-3.069,9.225-4.107,13.987c-1.944,8.916-3.647,17.897-5.941,26.724c-2.537,9.757-5.378,19.434-7.412,29.319
		c-1.218,5.919-2.621,11.805-3.214,17.836c-0.116,1.179-0.363,2.489,1.025,3.097c1.156,0.506,1.968-0.252,2.79-1.021
		c14.797-13.836,27.811-29.17,38.546-46.364c8.303-13.298,15.905-26.971,20.113-42.23
		C297.199,143.043,298.897,139.564,298.874,135.674z M211.614,234.319c0.269,3.274,0.209,6.494,0.836,9.651
		c0.229,1.154,0.251,2.493,1.245,3.266c2.641,2.057,4.804,4.978,8.864,4.446c1.835-0.24,3.766,0.364,5.645,0.302
		c2.551-0.083,5.242,0.146,7.208-2.153c0.509-0.595,1.36-0.96,2.12-1.265c4.6-1.849,8.025-5.401,11.784-8.385
		c3.672-2.915,6.708-6.612,10.079-9.915c5.67-5.555,11.02-11.453,15.635-17.935c5.765-8.094,11.402-16.281,16.985-24.502
		c1.654-2.437,3.123-5.031,4.043-7.873c0.486-1.502,0.079-2.684-1.534-2.99c-1.263-0.239-2.478-0.79-3.386,1.28
		c-1.314,2.994-2.941,5.908-4.938,8.582c-7.511,10.057-15.39,19.812-23.503,29.387c-2.747,3.242-5.739,6.227-8.717,9.24
		c-7.761,7.852-15.791,15.338-25.961,20.072c-2.332,1.086-2.825,0.91-3.216-1.699c-0.975-6.513-0.876-13.069,0.203-19.521
		c2.076-12.414,5.69-24.463,9.359-36.478c1.026-3.365,2.352-6.691,4.24-9.719c0.892-1.429,0.851-2.319-0.613-3.115
		c-1.346-0.731-2.906-1.065-4.252-1.795c-4.012-2.176-4.519-2.079-7.469,1.125c-0.868,0.943-1.221,1.965-1.552,3.112
		c-1.121,3.874-2.141,7.774-3.572,11.561c-2.268,6-4.12,12.135-5.362,18.437c-0.664,3.368-0.945,6.842-1.931,10.107
		C212.183,223.073,211.481,228.662,211.614,234.319z"/>
	<path fill-rule="evenodd" clip-rule="evenodd" fill="#FFFFFF" d="M528.1,146.046c-0.253-3.756,1.219-6.442,2.477-9.168
		c3.298-7.151,7.519-13.729,12.375-19.919c1.401-1.787,2.9-3.401,4.751-4.748c2.68-1.95,4.842-4.516,7.641-6.374
		c4.256-2.826,7.776-1.072,9.452,2.902c1.754,4.161,1.855,8.573,2.045,12.907c0.58,13.296,0.18,26.596-0.32,39.894
		c-0.174,4.62,0.141,9.26,0.291,13.888c0.025,0.768-0.131,1.69,0.753,2.257c1.209-0.329,1.41-1.484,1.872-2.375
		c6.454-12.422,12.856-24.87,19.338-37.277c1.576-3.019,1.816-6.377,2.77-9.55c0.305-1.015-0.293-1.564-1.249-1.743
		c-1.319-0.247-2.65-0.127-3.853,0.396c-2.767,1.202-5.877,1.69-8.235,3.958c-0.035-1.448,0.682-2.519,1.45-3.453
		c5.576-6.796,11.584-13.118,19.561-17.194c3.979-2.034,8.212-3.273,12.657-3.237c4.492,0.036,7.83,2.28,8.62,7.867
		c1.412,9.991-1.565,18.657-6.053,27.258c-10.376,19.887-21.114,39.583-31.248,59.598c-3.696,7.304-8.277,14.135-11.806,21.544
		c-1.542,3.241-2.712,6.526-3.076,10.15c-0.321,3.214,1.968,4.257,4.223,3.388c3.959-1.529,8.081-2.986,10.925-6.409
		c1.685-2.029,3.806-3.551,5.659-5.378c0.331-0.325,0.727-0.65,1.153-0.796c0.63-0.214,1.325-0.839,1.972-0.251
		c0.689,0.629,0.12,1.333-0.212,1.917c-1.109,1.955-2.493,3.731-3.658,5.664c-2.944,4.885-4.918,10.283-8.157,14.995
		c-3.12,4.54-6.605,8.767-11.434,11.546c-4.899,2.818-10.235,3.749-15.803,2.453c-4.744-1.104-7.928-4.011-9.598-8.645
		c-1.823-5.063-1.842-10.271-1.286-15.484c0.954-8.966,3.929-17.328,8.076-25.297c1.756-3.37,3.44-6.779,5.271-10.107
		c0.598-1.086,0.659-1.949-0.053-2.935c-5.399-7.484-6.12-16.255-6.881-25.021c-0.718-8.283-1.306-16.577-1.271-24.895
		c0.016-3.851-1.116-7.163-3.665-10.058c-1.645-1.87-2.832-2.179-5.331-1.576c-3.826,0.922-6.043,3.787-8.357,6.56
		C529.302,143.997,528.879,144.832,528.1,146.046z M559.24,242.937c-1.166-2.509-0.01-8.557,0.192-10.715
		c0.473-5.048,14.365-28.503,16.336-30.894c0.593-0.72,7.376-14.294,11.753-19.383c1.321-1.537,2.091-3.462,1.725-5.625
		c-0.294-1.738-1.787-3.287-3.467-3.642c-1.656-0.35-2.651,0.487-3.561,1.742c-4.312,5.949-8.703,11.843-11.841,18.544
		c-0.444,0.949-0.907,2.072-2.207,2.026c-1.132-0.039-1.421-1.104-1.867-1.925c-2.461-4.535-5.088-16.082-5.056-16.907
		c0.13-3.326-0.783-4.226-4.036-4.131c-1.363,0.039-2.053,0.775-2.073,1.944c-0.073,4.48-0.679,8.957,1.127,13.359
		c1.647,4.017,3.876,7.608,6.694,10.819c1.464,1.666,1.677,3.336,1.033,5.249c-0.379,1.116-0.842,2.235-1.459,3.235
		c-5.191,8.417-9.751,17.202-12.21,26.771c-2.35,9.138-2.184,14.603,5.608,17.785c0.106,0.044,0.186,0.163,0.293,0.198
		c2.544,0.83,5.566,1.211,7.452-0.289c2.217-1.763,4.503-2.981,6.2-5.11c-2.881-2.9-7.954-0.061-10.215-2.411
		C559.497,243.402,559.356,243.186,559.24,242.937z"/>
	<path fill-rule="evenodd" clip-rule="evenodd" fill="#FFFFFF" d="M530.077,339.455c0.229,0.709,0.24,0.975,0.377,1.133
		c3.981,4.624,4.446,10.021,3.578,15.758c-0.909,6-2.47,11.854-3.964,17.717c-3.081,12.08-5.394,24.324-7.999,36.506
		c-1.588,7.428-3.536,14.778-5.318,22.163c-0.725,3.006-1.361,6.031-1.192,9.145c0.103,1.881,0.715,2.238,2.49,1.71
		c0.949-0.282,1.634-0.925,2.377-1.521c3.605-2.898,7.229-5.772,10.857-8.645c0.459-0.364,0.963-0.682,1.475-0.969
		c0.414-0.232,0.909-0.407,1.339-0.105c0.43,0.299,0.475,0.812,0.307,1.273c-0.365,1-0.674,2.043-1.197,2.959
		c-3.919,6.866-7.81,13.749-11.766,20.593c-2.674,4.626-5.526,8.998-8.99,13.04c-2.119,2.473-4.502,4.545-7.369,6.041
		c-4.292,2.238-6.446,1.197-9.581-2.496c-4.171-4.914-4.367-10.562-4.499-16.398c-0.184-8.138,1.151-16.093,2.936-23.987
		c4.732-20.931,9.965-41.741,15.339-62.517c0.654-2.531,1.238-5.085,1.358-7.703c0.118-2.592-1.765-4.376-4.018-3.323
		c-2.822,1.318-6.258,1.434-8.463,3.974c-0.858,0.986-1.994,0.405-2.975,0.791c-1.19,0.468-1.769-0.349-1.104-1.527
		c1.53-2.71,3.657-4.938,5.901-7.082c3.097-2.965,6.746-5.195,10.077-7.847c4.469-3.556,9.197-6.702,14.602-8.708
		c0.177-0.065,0.27-0.353,0.481-0.645c-5.894-3.825-10.862-8.729-15.696-13.751c-3.603-3.743-7.868-5.014-12.909-4.49
		c-3.012,0.312-5.337,1.9-7.573,3.673c-2.244,1.782-4.069,3.957-5.613,6.394c-0.82,1.293-1.912,2.416-2.896,3.604
		c-0.562,0.678-1.233,1.191-2.15,0.713c-1.203-0.628-0.724-1.64-0.376-2.48c1.633-3.953,3.429-7.848,5.729-11.453
		c3.253-5.102,6.526-10.19,10.116-15.073c2.995-4.073,6.66-7.489,10.689-10.376c3.091-2.215,6.735-2.843,10.753-1.567
		c4.738,1.507,8.366,4.269,11.625,7.844c2.699,2.962,4.979,6.33,8.57,8.459c3.595,2.132,6.984,1.977,10.324-0.297
		c2.762-1.881,5.092-4.221,7.063-6.958c2.27-3.148,4.058-6.631,6.693-9.526c0.589-0.646,1.053-1.37,2.029-0.823
		c0.988,0.555,0.647,1.469,0.362,2.207c-1.643,4.28-3.159,8.625-5.073,12.783c-2.23,4.851-4.717,9.595-7.305,14.264
		c-1.301,2.349-3.052,4.452-4.641,6.634c-1.249,1.715-2.467,3.467-3.867,5.051C538.149,336.828,534.606,338.893,530.077,339.455z
		 M496.437,454.774c0,1.542-0.049,3.088,0.01,4.628c0.115,3.012,0.846,5.892,2.274,8.537c2.285,4.235,4.411,4.655,8.185,1.741
		c2.09-1.61,3.616-3.736,5.266-5.758c5.189-6.372,8.862-13.743,13.537-20.451c0.41-0.59,1.008-1.315,0.386-1.879
		c-0.882-0.802-1.519,0.217-2.007,0.744c-2.289,2.473-5.001,4.342-7.958,5.902c-2.667,1.408-4.974,0.339-5.362-2.642
		c-0.136-1.031,0.071-2.124,0.214-3.176c1.393-10.247,3.591-20.317,6.685-30.188c0.354-1.131,0.675-2.299,0.787-3.471
		c0.165-1.721-0.615-2.325-2.338-1.859c-2.855,0.769-5.446,2.223-8.184,3.283c-3.219,1.247-4.348,3.699-4.86,6.795
		c-0.329,1.987-0.845,3.946-1.357,5.898C498.951,433.342,496.748,443.895,496.437,454.774z"/>
	<path fill-rule="evenodd" clip-rule="evenodd" fill="#FFFFFF" d="M496.294,146.818c3.114,2.667,3.05,6.074,3.055,9.359
		c0.007,5.15-1.271,10.146-2.612,15.055c-2.1,7.683-3.207,15.579-5.31,23.253c-2.697,9.845-5.329,19.709-8.067,29.542
		c-0.452,1.624-0.835,3.225-0.719,4.895c0.138,1.993,1.331,2.802,3.11,1.874c3.971-2.071,8.375-3.5,11.29-7.243
		c0.471-0.604,1.06-1.543,1.982-0.689c0.676,0.627,1.339,1.442,0.656,2.501c-0.321,0.499-0.616,1.031-1.017,1.46
		c-3.999,4.284-6.766,9.439-10.045,14.229c-2.622,3.831-5.61,7.354-8.513,10.958c-4.024,4.996-9.327,5.725-15.097,4.845
		c-1.733-0.266-3.179-1.4-3.921-3.261c-1.069-2.687-1.544-5.469-1.809-8.319c-0.734-7.933,0.787-15.652,2.523-23.284
		c3.82-16.79,8.297-33.406,14.068-49.65c0.514-1.446,0.873-2.963,1.152-4.475c0.582-3.15-0.875-4.519-4.018-3.66
		c-2.858,0.781-5.708,1.638-8.329,3.094c-0.811,0.451-1.638,0.926-3.323,0.717c4.312-4.699,9.403-7.665,13.949-11.232
		c4.62-3.626,9.603-6.789,14.387-10.128c-0.109-0.348-0.115-0.66-0.241-0.717c-5.138-2.41-9.454-5.781-12.783-10.439
		c-1.966-2.751-4.611-4.373-8.197-4.03c-1.651,0.157-3.321,0.096-4.979,0.183c-3.247,0.17-5.941,1.498-8.076,3.953
		c-1.863,2.144-3.929,4.107-5.355,6.628c-0.621,1.096-1.646,1.963-2.542,2.997c-0.203-0.378-0.427-0.606-0.38-0.731
		c2.404-6.407,4.14-13.051,7.819-18.982c4.331-6.981,8.749-13.797,15.387-18.892c2.452-1.883,5.053-3.534,7.674-5.116
		c3.91-2.357,8.842-1.699,12.273,1.286c3.13,2.72,6.093,5.576,8.168,9.257c0.866,1.539,2.039,2.919,3.16,4.3
		c2.783,3.43,6.26,4.465,10.479,3.184c5.869-1.782,10.681-5.061,14.204-10.129c1.967-2.827,3.868-5.693,5.257-8.868
		c0.364-0.834,0.745-2.081,1.955-1.346c0.917,0.556,2.086,1.333,1.471,2.852c-0.98,2.417-1.871,4.874-2.934,7.254
		c-2.407,5.396-5.26,10.586-8.587,15.438c-4.565,6.657-9.861,12.652-17.247,16.489c-1.604,0.833-2.846,2.474-4.563,3.295
		C500.057,145.286,498.402,145.922,496.294,146.818z M482.08,239.749c-6.628,3.214-9.535,1.325-9.382-2.252
		c0.01-0.237,0.037-0.474,0.059-0.709c0.599-6.505,1.97-12.87,3.607-19.175c0.628-2.414,6.463-25.046,7.756-28.791
		c0.506-1.463-1.369-3.845-3.04-4.295c-2.107-0.568-2.494,0.973-3.131,2.475c-4.112,9.693-11.905,41.546-13.439,47.265
		c-1.066,3.973-0.713,14.851,3.319,14.436C475.753,247.884,482.08,239.749,482.08,239.749z"/>
	<path fill-rule="evenodd" clip-rule="evenodd" fill="#FFFFFF" d="M559.171,451.767c-0.381-9.152,1.303-17.508,3.152-25.844
		c4.27-19.252,9.262-38.312,14.77-57.25c2.419-8.318,5.361-16.489,7.244-24.956c1.236-5.563,2.337-11.158,3.441-16.748
		c0.229-1.157,0.207-2.363,0.307-3.548c0.13-1.554-0.73-2.15-2.135-2.156c-1.7-0.009-3.29,0.536-4.808,1.211
		c-3.146,1.402-6.233,2.927-9.023,4.983c-0.937,0.69-2.096,1.89-3.082,0.844c-1.036-1.095,0.396-2.099,1.098-2.942
		c5.546-6.652,11.07-13.316,17.512-19.157c4.161-3.775,8.662-6.999,13.776-9.352c4.563-2.098,9.011-0.637,12.133,3.338
		c3.582,4.561,4.608,9.473,3.539,15.042c-0.761,3.964-1.033,8.046-2.081,11.926c-2.894,10.71-5.111,21.595-8.599,32.163
		c-2.6,7.878-4.5,15.984-6.794,23.969c-1.766,6.153-3.687,12.263-5.487,18.408c-2.232,7.614-4.373,15.258-6.642,22.861
		c-0.82,2.758-1.14,5.567-1.492,8.397c-0.358,2.879,0.585,5.355,1.896,7.806c0.849,1.586,2.011,1.844,3.562,1.181
		c1.23-0.525,2.2-1.395,3.151-2.292c2.86-2.704,5.316-5.744,7.59-8.948c0.713-1.009,1.534-2.698,2.907-2.078
		c1.607,0.723,0.981,2.564,0.481,3.838c-1.776,4.52-3.585,9.044-6.405,13.051c-5.188,7.369-9.856,15.091-15.044,22.452
		c-3.264,4.628-7.649,8.077-13.784,8.279c-2.342,0.077-4.15-0.941-5.511-2.733c-2.854-3.757-4.808-7.919-5.191-12.687
		C559.393,457.633,558.977,454.444,559.171,451.767z M596.712,442.738c-0.559-0.352-0.944-0.316-1.184-0.071
		c-1.96,2.022-4.561,2.973-7.019,4.104c-4.188,1.929-6.477,0.412-6.361-4.131c0.115-4.526,0.807-8.976,1.917-13.371
		c1.309-5.175,2.621-10.351,3.773-15.561c1.716-7.764,3.216-15.576,4.958-23.333c1.641-7.308,3.972-14.425,6.34-21.52
		c3.01-9.017,4.656-18.406,7.602-27.436c1.995-6.111,2.556-12.522,4.008-18.747c0.106-0.461,0.175-0.938,0.178-1.409
		c0.002-0.559,0.228-1.255-0.447-1.57c-0.63-0.295-1.143,0.085-1.542,0.553c-4.281,4.996-9.631,8.74-14.804,12.699
		c-1.146,0.875-2.114,1.993-2.557,3.364c-1.965,6.096-4.356,12.042-6.062,18.227c-1.989,7.214-3.188,14.623-5.256,21.799
		c-3.288,11.411-6.13,22.924-8.733,34.501c-2.135,9.495-4.455,18.95-6.429,28.477c-1.394,6.73-2.621,13.535-0.85,20.44
		c0.509,1.979,1.064,3.961,2.4,5.503c2.579,2.976,5.55,4.433,8.381,2.988c4.896-2.498,9.29-5.811,12.637-10.166
		c2.66-3.46,4.569-7.471,7.136-11.037C595.734,445.743,596.559,444.317,596.712,442.738z"/>
	<path fill-rule="evenodd" clip-rule="evenodd" fill="#080707" d="M227.134,274.583c-3.981,0.557-6.611-1.959-9.315-4.282
		c-0.856-0.736-1.112-1.833-1.324-2.866c-0.428-2.079,0.614-3.463,2.728-3.707c7.16-0.824,13.866-3.149,20.097-6.644
		c13.102-7.348,24.684-16.726,35.657-26.948c9.129-8.505,16.121-18.619,22.701-29.05c7.95-12.601,13.505-26.279,17.775-40.537
		c2.879-9.615,3.749-19.507,4.75-29.397c0.129-1.279,0.2-2.588-0.3-3.867c-0.368-0.938,0.298-1.589,0.984-2.077
		c0.827-0.59,1.566-0.198,2.24,0.383c1.036,0.893,1.695,2.046,1.841,3.368c0.598,5.401,1.303,10.772,1.144,16.26
		c-0.368,12.604-3.514,24.596-7.821,36.285c-2.082,5.649-4.766,11.124-8.056,16.237c-5.705,8.866-11.01,18.004-17.719,26.189
		c-1.278,1.558-2.502,3.167-3.864,4.65c-6.097,6.643-11.933,13.562-18.425,19.795c-10.65,10.228-22.309,19.163-36.17,24.792
		C231.85,274.066,229.63,274.899,227.134,274.583z"/>
	<path fill-rule="evenodd" clip-rule="evenodd" fill="#080707" d="M628.851,139.382c0.07,4.458-0.749,7.644-1.751,10.815
		c-3.916,12.389-9.54,24.044-15.643,35.442c-5.027,9.392-10.449,18.593-16.967,27.082c-1.007,1.312-1.909,2.718-2.723,4.159
		c-2.008,3.557-4.843,6.415-7.709,9.24c-0.662,0.65-1.5,1.187-2.35,1.567c-1.416,0.634-2.781,0.41-3.945-0.692
		c-1.17-1.108-0.346-2.25,0.049-3.282c3.184-8.317,7.909-15.885,11.659-23.925c3.515-7.534,7.736-14.666,11.797-21.897
		c5.34-9.511,10.579-19.079,15.741-28.686c1.615-3.007,3.169-6.04,4-9.46c0.538-2.219,2.005-4.257,3.271-6.24
		c1.049-1.644,2.599-1.421,3.586,0.367C629.012,135.944,628.79,138.243,628.851,139.382z"/>
	<path fill-rule="evenodd" clip-rule="evenodd" fill="#080707" d="M624.633,327.911c-0.377,8.108-2.247,15.947-4.766,23.613
		c-1.227,3.734-1.68,7.621-2.857,11.359c-2.495,7.918-4.133,16.028-5.335,24.26c-0.874,5.987-3.191,11.659-5.11,17.395
		c-1.307,3.909-2.816,7.712-3.644,11.816c-0.837,4.146-2.654,8.101-4.124,12.106c-0.319,0.869-0.963,1.628-1.513,2.398
		c-0.89,1.253-2.329,1.33-3.535,1.043c-0.939-0.224-1.031-1.478-1.075-2.447c-0.159-3.581,0.295-7.122,1.159-10.563
		c3.608-14.366,7.6-28.633,11.854-42.822c1.531-5.105,2.137-10.474,4.121-15.434c3.367-8.419,4.335-17.436,6.661-26.114
		c1.096-4.092,1.557-8.36,3.343-12.276c0.245-0.538,0.399-1.141,0.736-1.611c0.962-1.334,2.429-1.243,3.032,0.287
		C624.458,323.143,624.858,325.488,624.633,327.911z"/>
	<path fill-rule="evenodd" clip-rule="evenodd" fill="#080707" d="M364.576,222.012c-1.731,1.489-2.783,3.686-4.936,4.742
		c-0.936-1.149-2.789,0.342-3.468-1.059c-0.632-1.305-0.233-2.836-0.05-4.219c0.822-6.236,2.375-12.33,3.853-18.434
		c1.84-7.602,4.352-15.021,6.48-22.544c1.968-6.948,4.055-13.879,5.517-20.93c1.709-8.239,3.869-16.373,5.42-24.64
		c0.457-2.438,1.628-4.723,1.463-7.3c-0.075-1.176,0.438-2.128,1.768-2.24c1.286-0.107,2.333,0.323,2.865,1.623
		c0.953,2.331,1.429,4.745,1.519,7.267c0.236,6.625-1.361,12.934-3.189,19.21c-3.777,12.969-6.957,26.096-10.329,39.171
		c-2.217,8.599-3.899,17.36-7.523,25.56C363.45,219.386,362.076,221.137,364.576,222.012z"/>
	<path fill-rule="evenodd" clip-rule="evenodd" fill="#080707" d="M244.221,381.107c0.543,0.98-0.017,1.922-0.407,2.679
		c-2.604,5.039-3.765,10.702-6.813,15.553c-2.851,4.532-6.139,8.659-9.831,12.574c-4.83,5.121-17.496,1.885-18.855-4.967
		c-0.563-2.834-2.97-4.748-4.11-7.554c-1.353,0.796-1.644,1.787-1.867,2.81c-2.143,9.846-4.512,19.645-6.295,29.572
		c-0.374,2.08-1.171,4.089-1.852,6.105c-0.18,0.538-0.597,1.026-0.997,1.452c-0.588,0.623-1.327,1.081-2.224,0.783
		c-0.907-0.303-1.233-1.115-1.235-1.979c-0.001-2.136-0.137-4.302,0.162-6.4c1.483-10.446,3.642-20.774,5.509-31.153
		c0.341-1.891,1.12-3.626,1.596-5.461c0.388-1.49,1.328-2.439,2.57-3.246c2.367-1.538,3.302-1.398,5.031,0.912
		c1.153,1.544,1.812,3.316,2.459,5.112c0.729,2.026,1.72,3.891,3.543,5.223c2.896,2.113,5.761,1.683,8.685,0.102
		c6.997-3.782,12.784-8.979,17.798-15.106c1.725-2.106,3.555-4.127,5.356-6.172C242.893,381.437,243.311,380.768,244.221,381.107z"
		/>
	<path fill-rule="evenodd" clip-rule="evenodd" fill="#080707" d="M440.281,137.232c-0.926,7.278-2.003,14.515-4.11,21.582
		c-2.236,7.498-4.352,15.032-6.424,22.577c-2.833,10.31-6.619,20.296-10.164,30.364c-0.906,2.572-1.973,5.085-2.891,7.652
		c-0.368,1.029-0.981,1.882-1.534,2.792c-0.807,1.325-1.891,2.231-3.471,1.778c-1.39-0.399-2.285-2.569-1.645-4.236
		c1.115-2.897,1.597-5.953,2.499-8.895c3.165-10.305,6.745-20.494,9.521-30.9c3.303-12.378,7.54-24.476,10.641-36.904
		c0.804-3.22,1.71-6.415,2.591-9.616c0.222-0.8,0.499-1.589,0.819-2.353c0.335-0.798,0.849-1.45,1.845-1.395
		c0.974,0.053,1.47,0.727,1.767,1.532C440.444,133.161,440.085,135.203,440.281,137.232z"/>
	<path fill-rule="evenodd" clip-rule="evenodd" fill="#080707" d="M424.997,328.603c0.259,4.457-1.02,8.713-1.85,12.998
		c-2.025,10.466-4.303,20.884-6.497,31.315c-2.29,10.897-4.769,21.76-6.836,32.699c-1.029,5.451-2.14,10.952-1.967,16.561
		c0.058,1.925-0.676,3.438-1.746,4.902c-0.612,0.838-1.358,1.334-2.424,1.07c-1.042-0.26-1.679-1.072-1.774-2.018
		c-0.178-1.76-0.268-3.56-0.119-5.318c0.728-8.622,1.876-17.189,3.324-25.723c2.358-13.905,5.066-27.727,9.323-41.197
		c1.649-5.22,2.447-10.617,3.472-15.96c0.96-5,2.562-9.864,3.074-14.96c0.104-1.026,0.465-2.428,1.618-2.525
		c1.448-0.12,1.727,1.401,2.056,2.495C425.206,324.789,424.966,326.711,424.997,328.603z"/>
	<path fill-rule="evenodd" clip-rule="evenodd" fill="#080707" d="M476.186,330.171c-0.543,10.062-2.408,19.931-4.271,29.809
		c-2.087,11.061-4.001,22.153-5.661,33.29c-1.082,7.263-2.562,14.466-3.838,21.699c-0.618,3.502-1.239,7.004-1.74,10.524
		c-0.254,1.789-0.605,3.518-1.605,5.037c-0.908,1.384-1.815,1.336-2.633-0.16c-0.979-1.787-1.478-3.692-1.536-5.779
		c-0.162-5.634,1.085-11.089,1.911-16.596c1.651-11.008,4.191-21.864,5.487-32.942c0.814-6.958,2.88-13.695,4.461-20.518
		c1.278-5.518,2.736-11.041,3.323-16.711c0.283-2.732,0.984-5.386,1.82-7.967c0.559-1.727,0.979-3.396,0.935-5.195
		c-0.011-0.473,0.028-0.954,0.108-1.418c0.129-0.737,0.436-1.408,1.287-1.463c0.87-0.056,1.231,0.589,1.415,1.314
		C476.237,325.421,476.406,327.778,476.186,330.171z"/>
	<path fill-rule="evenodd" clip-rule="evenodd" fill="#080707" d="M571.371,276.628c-3.241-0.229-6.812-0.831-9.489-3.828
		c-0.806-0.902-1.419-1.882-1.751-3.049c-0.691-2.42,0.011-3.404,2.468-4.072c4.809-1.307,9.321-3.306,13.108-6.627
		c3.993-3.504,8.22-6.754,11.831-10.684c2.317-2.522,4.685-5,6.973-7.549c0.561-0.626,1.026-1.246,1.9-1.485
		c2.54-0.693,3.706,0.289,3.079,2.841c-1.809,7.392-4.122,14.648-8.168,21.123c-2.311,3.699-5.675,6.633-9.198,9.271
		c-0.565,0.424-1.304,0.655-1.787,1.146C577.981,276.112,575.012,276.6,571.371,276.628z"/>
	<path fill-rule="evenodd" clip-rule="evenodd" fill="#080707" d="M212.994,448.806c-0.741,1.949-1.42,3.674-2.056,5.415
		c-4.049,11.096-10.057,21.205-15.928,31.367c-1.398,2.419-3.472,4.539-5.549,6.457c-6.749,6.227-18.017,3.907-21.888-4.379
		c-0.972-2.078-0.758-2.475,1.572-3.046c6.739-1.654,13.264-3.961,18.756-8.265c4.361-3.419,8.341-7.336,11.988-11.553
		c3.809-4.403,7.081-9.208,10.518-13.891C211.013,450.088,211.433,449.07,212.994,448.806z"/>
	<path fill-rule="evenodd" clip-rule="evenodd" fill="#080707" d="M283.806,495.572c-1.259,0.044-2.282-0.515-3.186-1.332
		c-2.041-1.843-3.69-4.035-5.08-6.371c-1.579-2.654-0.572-4.489,2.138-5.709c4.629-2.086,8.993-4.521,12.519-8.464
		c6.494-7.257,12.021-15.239,17.96-22.909c0.217-0.281,0.385-0.609,0.636-0.853c0.571-0.559,1.131-1.465,2.061-0.79
		c0.781,0.57,0.64,1.478,0.252,2.271c-2.04,4.173-2.768,8.812-4.662,13.045c-2.807,6.273-5.937,12.379-9.099,18.479
		c-2.235,4.314-5.207,7.8-9.006,10.707C286.981,494.685,285.497,495.329,283.806,495.572z"/>
	<path fill-rule="evenodd" clip-rule="evenodd" fill="#080707" d="M463.538,264.615c0.142-0.93,0.192-1.768,0.407-2.561
		c0.365-1.344,1.302-2.186,2.651-1.531c5.319,2.588,9.398-0.128,13.361-3.068c4.951-3.673,9.7-7.588,14.024-12.02
		c1.973-2.021,4.322-3.664,6.302-5.719c0.991-1.029,1.992-0.504,2.17,0.941c0.121,0.98-0.152,1.875-0.577,2.746
		c-4.763,9.744-10.444,18.885-17.854,26.858c-2.709,2.916-6.035,4.959-9.87,6.121c-3.926,1.189-7.95-0.71-9.128-4.558
		C464.299,269.463,464.008,266.969,463.538,264.615z"/>
	<path fill-rule="evenodd" clip-rule="evenodd" fill="#080707" d="M577.959,491.445c-4.985,0.185-9.166-4.333-8.812-8.764
		c0.088-1.089,0.52-1.733,1.523-2.138c1.756-0.711,3.454-1.567,5.22-2.249c4.931-1.91,9.266-4.643,13.037-8.419
		c6.051-6.06,11.627-12.495,16.556-19.494c0.478-0.676,0.898-1.395,1.326-2.105c0.245-0.405,0.473-0.825,0.676-1.253
		c0.695-1.472,1.652-2.688,3.44-2.559c0.977,0.073,0.853,1.935-0.121,4.121c-1.932,4.341-4.345,8.414-6.688,12.533
		c-4.46,7.843-9.125,15.547-14.606,22.727c-1.804,2.36-3.79,4.563-6.436,6.041C581.298,490.877,579.511,491.861,577.959,491.445z"/>
	<path fill-rule="evenodd" clip-rule="evenodd" fill="#080707" d="M470.913,443.823c0.741,2.104,0.336,3.685-0.86,5.438
		c-2.411,3.532-3.566,7.714-5.211,11.631c-1.938,4.615-4.315,8.963-6.903,13.217c-1.97,3.235-3.916,6.503-6.115,9.582
		c-2.573,3.602-5.794,6.569-9.843,8.521c-1.938,0.936-3.978,1.328-5.612-0.374c-1.875-1.949-3.851-3.971-3.268-7.115
		c0.241-1.295,1.064-1.999,2.148-2.64c3.166-1.868,6.247-3.865,9.045-6.277c3.184-2.745,5.534-6.175,7.889-9.585
		c5.453-7.9,11.654-15.188,18.108-22.271C470.351,443.88,470.506,443.899,470.913,443.823z"/>
	<path fill-rule="evenodd" clip-rule="evenodd" fill="#080707" d="M397.142,275.256c-3.063-0.263-6.186-0.794-8.931-2.672
		c-1.108-0.757-1.998-1.63-2.453-2.933c-0.836-2.391-0.362-3.58,2.027-4.336c2.478-0.786,4.784-1.981,7.281-2.751
		c4.469-1.377,8.089-4.256,11.581-7.274c4.389-3.793,8.668-7.67,12.265-12.276c1.094-1.398,2.586-3.009,4.792-2.209
		c1.173,0.426,1.232,2.775,0.308,5.269c-0.165,0.443-0.325,0.905-0.586,1.293c-4.622,6.854-8.243,14.39-14.004,20.47
		c-2.3,2.425-4.889,4.462-7.748,6.167C400.33,274.807,398.879,275.284,397.142,275.256z"/>
	<path fill-rule="evenodd" clip-rule="evenodd" fill="#080707" d="M262.409,318.251c-1.515,4.682-3.681,8.88-5.87,13.021
		c-1.873,3.539-3.838,7.024-6.494,10.151c-4.804,5.659-10.824,8.691-18.052,9.523c-4.698,0.539-9.815-2.318-12.025-6.526
		c-0.055-0.106-0.1-0.216-0.163-0.315c-0.722-1.146-0.923-3.226-2.652-2.862c-1.675,0.354-3.187,1.662-3.679,3.537
		c-0.389,1.482-0.65,3.02-0.783,4.547c-0.363,4.175-1.84,8.073-2.881,12.079c-0.333,1.281-0.942,2.438-1.971,3.318
		c-0.458,0.393-0.985,0.693-1.616,0.424c-0.672-0.287-0.7-0.927-0.653-1.507c0.216-2.712,0.309-5.449,0.758-8.126
		c0.609-3.613,1.332-7.229,2.317-10.758c1.215-4.347,4.78-6.943,8.03-9.668c1.135-0.954,2.503-0.577,3.371,0.736
		c0.85,1.284,1.709,2.568,2.433,3.923c2.698,5.046,8.252,5.566,12.652,3.604c7.53-3.36,13.53-8.656,18.545-15.11
		c2.396-3.081,4.653-6.271,6.985-9.404C260.936,318.467,261.231,318.058,262.409,318.251z"/>
	<path fill-rule="evenodd" clip-rule="evenodd" fill="#080707" d="M330.072,479.134c0.86-0.033,1.72-0.064,2.577-0.096
		c2.416,0.715,2.727,0.553,3.678-1.918c4.512-2.017,7.16-5.86,9.665-9.84c1.685,0.1,1.731-0.698,1.04-1.899
		c-0.011-0.184,0.075-0.272,0.258-0.274c1.07,0.772,1.5-0.179,1.937-0.801c2.379-3.379,4.754-6.766,7.051-10.201
		c1.774-2.656,3.439-5.382,5.137-8.086c0.397-0.634,0.874-1.112,1.637-1.234l-0.041-0.035c-0.275,4.455-2.238,8.439-3.547,12.602
		c-2.126,6.76-4.465,13.452-7.18,20.002c-2.196,5.297-4.812,10.26-9.758,13.647c-2.216,1.515-4.048,1.604-6.532,0.396
		C331.809,489.363,328.118,483.473,330.072,479.134z"/>
	<path fill-rule="evenodd" clip-rule="evenodd" fill="#080707" d="M521.708,433.7c0.881-5.852,1.688-11.677,2.655-17.475
		c0.545-3.267,1.342-6.49,2.044-9.728c1.453-6.702,2.986-13.38,4.19-20.14c1.034-5.814,2.738-11.511,3.992-17.292
		c0.425-1.968,0.798-3.934,1.468-5.833c0.269-0.757,0.373-1.752,1.499-1.661c1.004,0.081,1.247,0.906,1.467,1.757
		c0.895,3.484,1.137,6.935,0.455,10.54c-1.012,5.343-1.523,10.781-2.499,16.132c-1.232,6.75-2.557,13.494-4.142,20.171
		c-1.366,5.754-2.302,11.625-4.352,17.217c-0.533,1.455-1.158,2.846-1.846,4.224C525.586,433.723,523.985,434.496,521.708,433.7z"/>
	<path fill-rule="evenodd" clip-rule="evenodd" fill="#080707" d="M372.331,329.182c-0.229,0.965-0.458,1.928-0.687,2.892
		c-0.825,1.058-1.206,2.3-1.502,3.576c-3.091,13.322-10.025,24.185-20.833,32.572c-3.659,2.841-7.408,5.525-11.688,7.388
		c-1.651,0.719-3.304,1.317-5.143,1.181c-0.858-0.064-1.708-0.197-2.047-1.112c-0.389-1.047,0.486-1.446,1.142-1.938
		c3.131-2.342,6.279-4.661,9.382-7.039c6.781-5.188,11.993-11.714,16.179-19.105c1.044-1.842,2.136-3.657,3.188-5.495
		c0.243-0.424,0.39-0.887-0.216-1.181c0.352-1.479,1.146-2.763,1.827-4.103c1.544-0.016,1.903-1.43,2.207-2.36
		c1.664-5.085,4.985-9.643,4.604-15.856c2.781,1.902,2.42,4.32,2.589,6.482c0.073,0.918-0.273,1.861-0.293,2.797
		C371.023,328.659,371.413,329.232,372.331,329.182z"/>
	<path fill-rule="evenodd" clip-rule="evenodd" fill="#080707" d="M507,182.375c-0.408,4.962-1.358,10.43-2.706,15.84
		c-1.579,6.337-4.366,12.25-6.397,18.427c-0.612,1.86-1.969,3.245-3.285,4.563c-1.018,1.017-2.536,1.553-3.936,0.79
		c-1.287-0.699-0.778-2.111-0.701-3.243c0.397-5.825,1.989-11.4,3.546-16.99c2.636-9.467,5.056-18.991,7.246-28.573
		c0.428-1.871,0.586-3.74,0.661-5.637c0.025-0.609,0.162-1.206,0.843-1.403c0.719-0.209,1.435-0.143,1.964,0.444
		c0.897,0.998,1.369,2.208,1.564,3.523C506.374,173.981,506.855,177.855,507,182.375z"/>
	<path fill-rule="evenodd" clip-rule="evenodd" fill="#080707" d="M420.118,445.886c0.776,0.8,0.726,1.413,0.604,1.968
		c-1.8,8.209-3.25,16.517-6.729,24.258c-2.293,5.104-5.021,9.944-8.88,14.059c-1.313,1.405-2.858,2.469-4.812,2.845
		c-0.812,0.154-1.762,0.225-2.371,0.694c-2.197,1.696-4.284,0.59-6.36-0.096c-2.086-0.689-3.22-2.406-3.876-4.37
		c-0.486-1.45-0.833-2.982-0.973-4.501c-0.162-1.777,0.668-2.598,2.294-2.257c7.788,1.633,13.177-2.065,17.674-7.806
		c5.008-6.391,8.598-13.554,11.507-21.095C418.656,448.394,419.373,447.301,420.118,445.886z"/>
	<path fill-rule="evenodd" clip-rule="evenodd" fill="#080707" d="M341.597,265.683c5.877,0.157,10.886-2.188,15.327-5.717
		c5.186-4.123,8.638-9.713,12.051-15.279c0.805-1.312,1.267-2.775,1.385-4.37c0.093-1.253,1.65-2.331,2.757-2.005
		c1.354,0.397,1.196,1.426,1.013,2.588c-1.667,10.536-5.276,20.136-12.908,27.933c-1.456,1.487-2.983,2.744-4.921,3.379
		c-5.731,1.88-11.378,2.478-16.576-1.543c-0.281-0.218-0.607-0.398-0.838-0.659c-0.907-1.022-2.571-1.901-1.915-3.459
		c0.599-1.422,2.319-0.707,3.559-0.862C340.879,265.645,341.24,265.683,341.597,265.683z"/>
	<path fill-rule="evenodd" clip-rule="evenodd" fill="#080707" d="M533.394,452.486c1.192,1.814,1.212,3.038,0.335,4.628
		c-4.521,8.18-8.739,16.523-13.556,24.549c-1.979,3.299-4.383,6.142-7.02,8.861c-2.294,2.367-5.139,2.369-7.932,1.516
		c-2.851-0.873-4.058-3.473-5.082-6.031c-0.423-1.058,0.237-2.078,0.482-3.106c0.339-1.413,1.604-0.981,2.494-1.384
		c4.072-1.844,8.33-3.434,11.45-6.877c4.448-4.915,8.861-9.86,13.357-14.729C529.93,457.742,531.215,455.046,533.394,452.486z"/>
	<path fill-rule="evenodd" clip-rule="evenodd" fill="#080707" d="M505.524,153.019c-2.307-0.006-3.346-1.293-4.038-3.936
		c-0.484-1.843,0.661-2.326,1.992-2.674c2.363-0.617,4.423-1.857,6.118-3.5c3.255-3.151,7.048-5.589,10.55-8.41
		c5.465-4.402,10.737-8.943,14.248-15.192c0.563-1.005,1.181-2.976,2.681-2.2c1.479,0.764,0.359,2.351-0.249,3.424
		c-2.798,4.939-4.363,10.506-7.768,15.137c-2.595,3.532-5.196,7.052-8.123,10.323c-1.455,1.624-3.14,2.939-5.163,3.663
		C512.207,150.927,508.579,152.025,505.524,153.019z"/>
	<path fill-rule="evenodd" clip-rule="evenodd" fill="#080707" d="M303.677,385.116c2.688,1.97,3.425,4.272,2.851,7.252
		c-1.502,7.778-2.833,15.593-4.322,23.373c-0.8,4.181-1.545,8.408-4.093,12.01c-0.342,0.481-0.583,1.07-1.01,1.45
		c-0.681,0.606-1.413,1.483-2.457,0.977c-0.919-0.451-0.562-1.454-0.552-2.242c0.068-5.372,1.428-10.549,2.509-15.759
		c1.418-6.835,2.992-13.639,4.528-20.448C301.642,389.467,302.616,387.386,303.677,385.116z"/>
	<path fill-rule="evenodd" clip-rule="evenodd" fill="#080707" d="M541.746,344.959c-2.081-0.43-4.178-0.799-6.236-1.321
		c-0.771-0.196-1.648-0.65-1.597-1.665c0.047-0.896,0.677-1.562,1.505-1.81c2.049-0.61,4.038-1.352,6.015-2.177
		c3.375-1.41,5.939-3.744,8.454-6.342c3.934-4.062,6.578-8.978,9.717-13.566c0.534-0.781,1.063-1.585,1.719-2.259
		c0.674-0.694,1.276-0.379,1.646,0.429c0.258,0.567,0.223,1.159,0.035,1.737c-2.131,6.548-4.115,13.177-8.457,18.71
		c-2.283,2.908-4.874,5.514-8.307,7.123C544.814,344.488,543.366,344.941,541.746,344.959z"/>
	<path fill-rule="evenodd" clip-rule="evenodd" fill="#080707" d="M490.466,343.834c-0.609-0.834-0.485-1.429-0.292-1.982
		c1.866-5.364,4.903-9.989,9.181-13.699c2.903-2.52,7.122-1.915,10.044,0.539c3.438,2.885,5.635,7.02,9.645,9.285
		c0.805,0.455,0.812,1.12,0.143,1.712c-2.596,2.303-5.297,2.275-7.861-0.17c-1.72-1.639-3.381-3.298-5.608-4.285
		c-2.372-1.055-4.606-1.02-6.676,0.606c-1.112,0.874-2.165,1.842-3.147,2.86c-0.897,0.931-1.514,2.2-2.534,2.928
		C492.427,342.293,491.6,343.123,490.466,343.834z"/>
	<path fill-rule="evenodd" clip-rule="evenodd" fill="#080707" d="M347.295,419.851c-0.169,3.637,0.622,7.388-1.125,10.866
		c-0.315,0.628-0.513,1.352-0.953,1.873c-0.73,0.864-1.854,0.518-2.088-0.615c-0.118-0.571-0.064-1.181-0.076-1.772
		c-0.219-10.567-1.546-21.037-2.739-31.52c-0.138-1.207-0.631-2.279-1.101-3.37c-0.399-0.927-0.588-2.004,0.342-2.581
		c1.064-0.661,1.702,0.33,2.274,1.093c2.33,3.106,3.607,6.662,4.226,10.442C346.897,409.421,347.757,414.583,347.295,419.851z"/>
	<path fill-rule="evenodd" clip-rule="evenodd" fill="#080707" d="M469.148,137.045c3.092,0.174,5.425,1.232,7.406,3.068
		c1.648,1.528,3.137,3.211,4.949,4.588c1.711,1.299,1.304,3.317-0.665,4.17c-0.893,0.387-1.793,0.483-2.764,0.144
		c-1.233-0.43-2.465-0.834-3.597-1.513c-5.195-3.112-7.012-3.02-11.852,0.608c-1.041,0.781-2.026,1.639-3.049,2.447
		c-0.406,0.321-0.862,0.363-1.288,0.031c-0.442-0.346-0.433-0.852-0.258-1.293c0.214-0.547,0.502-1.08,0.835-1.565
		c1.746-2.541,3.467-5.099,5.293-7.581C465.474,138.366,467.27,137.271,469.148,137.045z"/>
	<path fill-rule="evenodd" clip-rule="evenodd" fill="#080707" d="M576.341,137.194c0.049,5.919-0.077,10.521-0.674,15.104
		c-0.323,2.493-0.76,3.071-3.085,3.595c-1.53,0.345-2.313-0.21-2.306-1.74c0.021-3.547-0.014-7.1,0.182-10.64
		c0.312-5.651,0.768-11.297,1.228-16.939c0.097-1.185-0.585-3.043,1.175-3.264c1.651-0.208,2.151,1.563,2.628,2.874
		C576.95,130.199,576.115,134.393,576.341,137.194z"/>
	<path fill-rule="evenodd" clip-rule="evenodd" fill="#080707" d="M363.051,444.785c0.041-0.199,0.081-0.399,0.12-0.599
		c0.32,0.295-0.146,0.363-0.161,0.562C363.011,444.75,363.051,444.785,363.051,444.785z"/>
	<path fill-rule="evenodd" clip-rule="evenodd" fill="#F1DFE6" d="M329.729,130.508c-0.084-0.045-0.165-0.108-0.254-0.128
		c-0.043-0.011-0.106,0.06-0.16,0.093c0.154,0.003,0.308,0.006,0.465,0.008C329.783,130.479,329.729,130.508,329.729,130.508z"/>
	<path fill-rule="evenodd" clip-rule="evenodd" fill="#F1DFE6" d="M298.291,435.782c0.238-0.243,0.477-0.486,0.714-0.729
		c0.209,0.167,0.418,0.335,0.626,0.501c-0.061,0.403-0.281,0.655-0.692,0.722C298.723,436.111,298.507,435.947,298.291,435.782z"/>
	<path fill-rule="evenodd" clip-rule="evenodd" fill="#F1DFE6" d="M297.633,436.497c0.22-0.238,0.439-0.476,0.658-0.715
		c0.216,0.165,0.432,0.329,0.648,0.493c-0.064,0.422-0.324,0.638-0.737,0.689C298.013,436.809,297.824,436.653,297.633,436.497z"/>
	<path fill-rule="evenodd" clip-rule="evenodd" fill="#F1DFE6" d="M296.918,437.222c0.238-0.243,0.478-0.484,0.716-0.726
		c0.19,0.156,0.379,0.312,0.569,0.468c-0.051,0.409-0.265,0.669-0.683,0.74C297.32,437.544,297.119,437.382,296.918,437.222z"/>
	<path fill-rule="evenodd" clip-rule="evenodd" fill="#F1DFE6" d="M296.203,437.933c0.238-0.237,0.478-0.474,0.716-0.713
		c0.2,0.162,0.401,0.324,0.601,0.484c-0.048,0.42-0.273,0.669-0.696,0.729C296.617,438.268,296.409,438.101,296.203,437.933z"/>
	<path fill-rule="evenodd" clip-rule="evenodd" fill="#F1DFE6" d="M295.478,438.659c0.242-0.241,0.484-0.482,0.725-0.726
		c0.207,0.168,0.414,0.335,0.621,0.501c-0.044,0.413-0.254,0.677-0.676,0.746C295.924,439.005,295.7,438.833,295.478,438.659z"/>
	<path fill-rule="evenodd" clip-rule="evenodd" fill="#F1DFE6" d="M294.903,439.236c0.192-0.193,0.384-0.385,0.575-0.577
		c0.222,0.174,0.446,0.347,0.669,0.521c-0.038,0.426-0.267,0.667-0.693,0.717C295.271,439.676,295.086,439.457,294.903,439.236z"/>
	<path fill-rule="evenodd" clip-rule="evenodd" fill="#C12A18" d="M336.327,477.121c-0.951,2.471-1.262,2.633-3.678,1.918
		C333.626,477.917,334.502,476.609,336.327,477.121z"/>
	<path fill-rule="evenodd" clip-rule="evenodd" fill="#C12A18" d="M347.032,465.381c0.692,1.201,0.646,1.999-1.04,1.899
		C345.753,466.325,346.331,465.817,347.032,465.381z"/>
	<path fill-rule="evenodd" clip-rule="evenodd" fill="#080707" d="M308.512,362.809c-0.708-2.92-0.446-5.851,0.057-8.739
		c0.383-2.205,1.109-4.35,1.647-6.529c0.612-2.479,1.932-4.462,3.669-6.354c3.303-3.602,6.804-6.875,11.048-9.364
		c1.958-1.149,4-2.054,6.093-2.852c2.411-0.918,4.671-0.11,6.806,1.003c1.108,0.579,1.027,1.449,0.239,2.331
		c-0.78,0.872-1.89,0.934-2.904,1.196c-6.719,1.74-12.134,5.779-17.392,10.019c-1.958,1.58-1.739,4.3-2.379,6.518
		c-0.749,2.597-1.007,5.332-1.55,7.992C313.255,360.93,311.71,362.303,308.512,362.809z"/>
	<path fill-rule="evenodd" clip-rule="evenodd" fill="#080707" d="M243.32,215.123c0.244-6.1,1.851-11.931,3.427-17.78
		c2.898-10.764,5.736-21.544,8.041-32.459c0.934-4.415,2.859-8.558,4.086-12.855c2.257-7.896,8.506-11.355,14.823-14.844
		c3.504-1.933,7.139-3.638,11.198-4.406c2.84-0.538,5.462-0.028,8.05,0.666c2.074,0.558,2.014,2.767,2.157,4.488
		c0.143,1.713-1.193,3.193-3.328,3.542c-4.019,0.658-7.878,1.787-11.501,3.601c-4.124,2.067-8.414,3.865-11.926,7.004
		c-0.731,0.654-1.354,1.233-1.583,2.245c-2.354,10.403-4.736,20.799-7.124,31.196c-2.341,10.188-5.247,20.21-8.847,30.027
		c-0.87,2.37-2.311,4.014-4.946,4.622c-1.563,0.361-2.334-0.023-2.501-1.496C243.213,217.505,243.32,216.309,243.32,215.123z"/>
</g>
</svg>
