<?xml version="1.0" encoding="utf-8"?>
<!-- Generator: Adobe Illustrator 16.0.0, SVG Export Plug-In . SVG Version: 6.00 Build 0)  -->
<!DOCTYPE svg PUBLIC "-//W3C//DTD SVG 1.1//EN" "http://www.w3.org/Graphics/SVG/1.1/DTD/svg11.dtd">
<svg version="1.1" id="Layer_1" xmlns="http://www.w3.org/2000/svg" xmlns:xlink="http://www.w3.org/1999/xlink" x="0px" y="0px"
	 width="800px" height="600px" viewBox="0 0 800 600" enable-background="new 0 0 800 600" xml:space="preserve">
<g id="Layer_2">
</g>
<g id="Layer_3">
</g>
<g id="Layer_4">
	<g>
		<path fill="none" stroke="#FFFFFF" stroke-width="1.6795" stroke-miterlimit="10" d="M87.828,245.117
			c4.276-10.275,13.583-25.606,31.618-26.274c18.036-0.669,27.165,7.57,27.165,7.57l-4.008,7.57l1.782,125.359h-35.181l10.465-8.463
			c0,0,7.571,1.562,10.021,0.894c2.449-0.671,5.344-4.677,5.344-9.798c0-5.123-3.562-88.175-3.562-88.175l5.566-8.683l-15.141-7.348
			l-14.474,6.234l-2.671,107.99l-3.34,3.047l-7.125,10.312c0,0-4.231-8.235-6.457-18.924c-2.227-10.688-4.23-26.942-5.344-32.955
			c-1.113-6.011-2.004-9.796-3.341-10.91c-1.336-1.112-2.894-3.117-2.894-3.117s2.894-3.603,3.785-7.367
			c0.891-3.766,3.785-20.688,4.008-29.149C84.265,254.468,86.097,249.275,87.828,245.117z"/>
		<path fill="none" stroke="#FFFFFF" stroke-width="1.6795" stroke-miterlimit="10" d="M232.113,255.581
			c12.525,0,21.598,5.568,21.598,5.568l-2.449,25.828l-7.348,47.872l-9.797,7.795l-13.137-30.729l-21.598,23.379l-10.242,8.687
			l-1.114-87.955C188.025,256.025,221.424,255.581,232.113,255.581z M225.21,289.871c0,0,4.899,0.668,6.012-2.672
			c1.113-3.34,0.667-7.348-3.006-7.57c-3.674-0.223-9.909,3.562-9.909,3.562L225.21,289.871z"/>
		<polygon fill="none" stroke="#FFFFFF" stroke-width="1.6795" stroke-miterlimit="10" points="284.216,343.086 284.216,254.913 
			326.521,254.913 314.498,273.616 294.904,335.293 		"/>
		<path fill="none" stroke="#FFFFFF" stroke-width="1.6795" stroke-miterlimit="10" d="M362.816,338.413
			c0,0-22.712-12.025-26.497-26.053c-3.786-14.029-3.786-28.5,8.016-40.749c11.801-12.246,27.833-15.808,34.958-16.699
			c7.125-0.892,20.262-1.558,28.057,0c7.793,1.558,20.038,6.234,20.038,6.234l-12.022,24.047c0,0-8.941-4.229-17.163-3.339
			c-8.221,0.891-12.674,2.228-14.9,5.344c-2.227,3.117-4.008,6.234-4.008,6.234l-12.691-2.004l12.024,28.057l11.132-3.785v-27.166
			L432.064,299l-1.559,3.562l-7.126,4.008l-43.42,27.388L362.816,338.413z"/>
		<polygon fill="none" stroke="#FFFFFF" stroke-width="1.6795" stroke-miterlimit="10" points="494.188,342.866 494.188,255.581 
			522.464,255.581 544.731,284.082 544.731,255.581 574.124,255.581 574.124,259.811 558.314,336.184 552.08,342.866 
			523.801,307.907 505.542,338.413 		"/>
		<polygon fill="none" stroke="#FFFFFF" stroke-width="1.6795" stroke-miterlimit="10" points="577.462,342.196 607.521,255.581 
			628.675,255.581 634.91,336.184 628.229,340.86 601.732,322.379 606.854,311.692 611.53,306.57 616.651,302.786 615.537,287.198 
			608.411,285.417 589.486,337.077 		"/>
		<polygon fill="none" stroke="#FFFFFF" stroke-width="1.6795" stroke-miterlimit="10" points="655.84,335.293 655.84,255.581 
			696.586,255.581 696.586,308.129 723.75,308.129 723.75,340.86 655.84,340.86 		"/>
		<polygon fill="none" stroke="#FFFFFF" stroke-width="1.6795" stroke-miterlimit="10" points="438.52,343.086 438.52,254.913 
			480.827,254.913 468.803,273.616 449.208,335.293 		"/>
		<path d="M160.637,240.885c6.234,8.239,11.578,28.723,12.691,38.521c1.113,9.797,3.563,15.141,4.899,16.7s6.235,3.341,6.235,3.341
			s-1.559,1.781-5.567,4.466s-3.117,3.771-4.454,18.912c-1.335,15.141-6.68,36.961-20.93,50.322
			c-14.25,13.358-42.529,7.346-48.763,3.784s-11.871-14.637-11.871-14.637l6.304-4.031l1.781-111.368l39.412-14.918l6.236-5.565
			C146.61,226.413,154.401,232.646,160.637,240.885z M138.669,246.897l-7.199,6.902c0,0-0.894-2.671-3.789-3.451
			c-2.895-0.78-6.234-1.893-9.351,0c-3.118,1.892-3.786,3.451-3.786,6.345c0,2.896,1.559,83.275,2.004,86.392
			c0.446,3.119,1.334,5.125,2.228,6.459c0.892,1.334,1.669,1.486,1.669,1.486l-5.901,5.86l9.129,4.677l20.555-6.449L138.669,246.897
			z"/>
		<path d="M189.139,343.979l9.024-7.651l21.033-33.985l18.481-6.146l3.339-11.221l-3.117-4.453l-6.156,3.096
			c0,0,0.379-3.291-2.045-3.628c-2.425-0.337-2.425-0.337-2.425-0.337l0.384,7.771l-6.79,7.125l-7.46-12.245l1.67-17.813
			l30.838,1.78l7.795-5.565c0,0,8.459,3.339,12.689,8.906c4.231,5.565,5.345,17.591,1.559,24.493
			c-3.785,6.902-10.688,11.799-10.688,11.799l24.716,37.185h-48.095l10.021-8.238l-17.256-9.653v18.785h-37.517V343.979z"/>
		<polygon points="284.216,343.086 292.628,336.954 317.168,260.704 326.521,254.913 326.521,343.086 		"/>
		<path d="M362.816,338.413l6.456-5.791L357.916,299l14.919-21.375l8.016,2.226l5.324,4.861c0,0-4.523,3.955-5.925,7.118
			c-1.403,3.162-2.293,10.734,0.601,15.187c2.895,4.452,9.318,12.245,17.351,14.473c8.033,2.227,25.399-17.591,25.399-17.591
			l8.464-4.898v39.413c0,0-10.022,4.896-24.051,6.457c-14.025,1.559-25.828-0.891-34.733-2.896
			C364.374,339.971,362.816,338.413,362.816,338.413z"/>
		<polygon points="415.364,285.194 409.127,274.508 414.473,264.711 427.387,261.147 		"/>
		<polygon points="494.188,344.2 503.538,336.186 516.452,262.485 522.464,255.581 544.731,284.082 552.3,302.564 566.996,262.04 
			574.124,255.581 577.461,332.846 574.124,342.866 552.08,342.866 558.314,336.184 542.948,306.793 520.459,287.646 
			520.905,298.219 528.72,313.987 529.365,344.424 		"/>
		<polygon points="577.461,342.866 589.761,336.325 595.051,327.502 615.535,283.415 616.651,302.786 610.668,307.51 
			609.523,315.479 626.668,321.711 628.895,311.469 624.665,261.594 628.675,255.581 652.721,342.866 627.336,342.866 
			634.91,336.184 606.854,315.032 603.026,319.68 604.178,322.381 610.276,328.338 610.86,333.959 606.854,342.866 		"/>
		<polygon points="655.84,340.86 662.073,334.182 685.229,262.708 696.586,255.581 696.586,308.129 687.455,313.696 
			718.405,314.588 723.75,308.352 723.75,340.86 		"/>
		<polygon points="438.52,343.086 446.932,336.954 471.474,260.704 480.827,254.913 480.827,343.086 		"/>
		<path fill="#FFFFFF" d="M82.039,299.446c0,0,4.898-4.716,4.898-7.367s-0.366-29.371,5.94-42.063
			c6.307-12.692,10.982-20.933,21.67-23.603c10.688-2.671,20.039-3.116,29.613,7.571c9.575,10.688,16.032,22.489,18.482,34.512
			c2.449,12.024,2.226,21.821,4.008,24.493c1.781,2.671,6.68,6.457,6.68,6.457s-4.676,2.673-5.79,5.568
			c-1.113,2.896-2.226,36.961-8.906,47.205c-6.68,10.242-14.028,17.812-22.711,20.263c-8.684,2.446-20.708,1.78-27.388-3.343
			c-6.679-5.121-11.945-10.018-15.658-28.942c-3.713-18.929-3.491-28.504-4.604-32.287C87.16,304.122,82.039,299.446,82.039,299.446
			z M107.092,257.356c-0.116,4.673,2.112,59.681,2.112,67.251c0,7.569,0.445,23.155,3.34,28.725
			c2.895,5.566,15.586,6.01,20.708,3.785c5.121-2.226,8.906-9.129,8.906-15.363c0-6.236-2.462-76.114-2.816-82.576
			c-0.354-6.462-0.673-12.281-6.428-16.062c-5.756-3.783-13.85-1.713-18.588,0.666C109.511,246.199,107.207,252.684,107.092,257.356
			z"/>
		<path fill="#FFFFFF" d="M195.819,260.704c0,0,34.735,0,40.747,0c6.012,0,26.274,4.962,26.274,22.267
			c0,17.305-16.699,20.942-16.699,20.942l22.934,34.5H241.02l-14.918-31.172l-6.458-0.666l1.224,30.725l-23.267,0.443
			L195.819,260.704z M219.644,293.436l10.91-0.223c0,0,7.571-0.206,7.571-8.906c0-8.7-7.571-8.461-7.571-8.461h-10.91V293.436z"/>
		<polygon fill="#FFFFFF" points="291.564,260.704 317.168,260.704 318.061,337.077 291.564,337.077 		"/>
		<path fill="#FFFFFF" d="M418.258,263.667l-6.68,12.401c0,0-18.051-5.344-28.508,3.34c-10.457,8.685-14.02,14.469-13.797,22.934
			c0.223,8.462,11.739,18.477,19.149,20.04c7.41,1.564,9.779,0.07,9.779,0.07v-26.257l26.883,6.846v31.81
			c0,0-16.4,4.673-31.541,3.562c-15.141-1.113-38.744-9.795-45.201-21.154c-6.457-11.354-8.906-28.946,0-39.633
			c8.907-10.686,23.295-16.921,35.473-18.257C395.993,258.032,413.136,261.061,418.258,263.667z"/>
		<polygon fill="#FFFFFF" points="502.204,259.042 519.449,259.042 552.3,302.564 552.3,259.042 569,259.042 569,336.409 
			556.979,336.409 520.657,292.324 520.657,336.409 502.204,336.409 		"/>
		<path fill="#FFFFFF" d="M589.761,336.325l22.214-77.283h14.393l21.68,77.283l-13.46,0.084l-27.731-21.377l-3.562,21.377
			L589.761,336.325z M623.777,315.034v-10.909l-6.235-17.591l-6.012,20.037L623.777,315.034z"/>
		<polygon fill="#FFFFFF" points="662.073,334.182 662.073,260.259 686.611,260.259 686.611,313.696 718.405,313.696 
			718.405,334.852 		"/>
		<polygon fill="#FFFFFF" points="445.869,260.704 471.474,260.704 472.367,337.077 445.869,337.077 		"/>
	</g>
</g>
</svg>
