<?xml version="1.0" encoding="utf-8"?>
<!-- Generator: Adobe Illustrator 16.0.0, SVG Export Plug-In . SVG Version: 6.00 Build 0)  -->
<!DOCTYPE svg PUBLIC "-//W3C//DTD SVG 1.1//EN" "http://www.w3.org/Graphics/SVG/1.1/DTD/svg11.dtd">
<svg version="1.1" xmlns="http://www.w3.org/2000/svg" xmlns:xlink="http://www.w3.org/1999/xlink" x="0px" y="0px" width="800px"
	 height="600px" viewBox="0 0 800 600" enable-background="new 0 0 800 600" xml:space="preserve">
<g id="Layer_1" display="none">
</g>
<g id="Layer_2">
	<g>
		<polygon fill="#FFFFFF" points="167.642,269.29 162.617,238.577 164.436,204.555 188.781,204.213 192.357,229.892 
			190.286,246.001 192.802,261.585 197.453,265.655 197.499,268.872 		"/>
		<polygon fill="#FFFFFF" points="193.023,244.583 192.835,231.263 197.002,233.501 219.477,230.888 225.946,233.555 
			226.127,246.415 		"/>
		<polygon fill="#FFFFFF" points="164.397,201.8 164.029,175.618 218.23,174.857 233.573,187.735 242.891,197.023 242.981,203.452 
					"/>
		<polygon fill="#FFFFFF" points="218.985,228.598 218.637,203.794 243.007,205.29 243.22,220.448 225.908,230.798 		"/>
		<polygon fill="#FFFFFF" points="216.494,247.47 216.79,268.601 241.168,270.554 240.997,258.38 228.686,248.677 		"/>
	</g>
	<polygon fill="#FFFFFF" points="275.025,271.457 276.814,180.772 310.192,180.303 311.446,269.567 	"/>
	<g>
		<polygon fill="#FFFFFF" points="360.748,268.875 365.976,183.195 360.77,183.269 339.901,202.092 336.348,254.363 338.9,261.678 
					"/>
		<polygon fill="#FFFFFF" points="366.315,207.388 368.12,183.165 381.594,182.976 379.504,208.733 		"/>
		<polygon fill="#FFFFFF" points="363.787,245.401 374.684,247.086 375.033,271.891 361.991,270.235 		"/>
		<polygon fill="#FFFFFF" points="377.022,271.862 376.648,245.221 383.431,182.95 385.881,182.915 403.563,198.901 404.29,250.653 
			382.841,271.781 		"/>
	</g>
	<g>
		
			<rect x="480.62" y="216.863" transform="matrix(0.014 0.9999 -0.9999 0.014 722.137 -275.3335)" fill="#FFFFFF" width="40.119" height="23.274"/>
		<polygon fill="#FFFFFF" points="486.908,251.207 487.205,272.335 532.857,273.532 557.399,254.504 557.34,250.218 		"/>
		<polygon fill="#FFFFFF" points="533.112,248.107 534.104,209.501 557.989,209.166 557.303,247.768 		"/>
		<polygon fill="#FFFFFF" points="489.961,206.751 491.456,182.535 533.717,181.942 561.643,207.583 		"/>
	</g>
	<g>
		<polygon fill="#FFFFFF" points="580.303,272.866 577.792,181.323 601.063,180.996 602.366,273.781 		"/>
		<polygon fill="#FFFFFF" points="603.829,203.314 603.526,181.879 637.825,181.398 638.157,204.977 		"/>
		
			<rect x="604.161" y="221.492" transform="matrix(-0.9999 0.0141 -0.0141 -0.9999 1239.321 445.3019)" fill="#FFFFFF" width="27.87" height="11.025"/>
		<polygon fill="#FFFFFF" points="604.52,252.617 604.799,272.522 647.077,273.154 646.78,252.023 		"/>
	</g>
	<g>
		<path fill="#FFFFFF" d="M114.897,367.886l22.663-0.318c0,0,1.668,9.779,3.255,13.736c1.586,3.961,2.836,5.781,2.836,5.781
			l0.404,28.785l-7.348,0.102l-23.894-22.023L114.897,367.886z"/>
		<path fill="#FFFFFF" d="M145.2,388.289l0.387,27.561l20.518-0.287l14.466-16.744c0,0-12.012-4.732-12.637-5.643
			c-0.625-0.91-5.186-9.422-5.186-9.422s-3.456,4.645-5.587,5.592C155.03,390.294,146.75,389.492,145.2,388.289z"/>
		<path fill="#FFFFFF" d="M164.739,383.726l-0.199-14.088l27.221-2.832l-6.942,29.195l-4.266,1.59c0,0-5.316-2.656-10.502-6.281
			C164.868,387.681,164.739,383.726,164.739,383.726z"/>
		<polygon fill="#FFFFFF" points="164.507,367.189 161.986,329.551 186.331,329.21 186.825,364.425 		"/>
	</g>
	<g>
		<polygon fill="#FFFFFF" points="198.547,413.878 198.397,403.162 223.25,340.943 239.298,371.345 219.264,416.957 
			204.105,417.169 		"/>
		<path fill="#FFFFFF" d="M222.479,416.914l5.914-15.092c0,0,6.772,2.355,12.908,3.188c6.137,0.832,16.197,0.998,16.197,0.998
			l4.484,10.352L222.479,416.914z"/>
		<polygon fill="#FFFFFF" points="221.293,332.396 264.43,416.322 287.398,416.001 287.33,411.101 249.464,331.999 		"/>
	</g>
	<g>
		<polygon fill="#FFFFFF" points="301.485,415.802 298.93,408.335 300.248,327.61 322.63,329.443 323.839,415.49 		"/>
		<polygon fill="#FFFFFF" points="325.49,380.244 324.918,339.514 356.126,381.037 356.604,415.031 		"/>
		<polygon fill="#FFFFFF" points="358.174,330.474 359.387,416.83 381.153,418.361 379.916,330.167 		"/>
	</g>
	<g>
		
			<rect x="377.173" y="351.964" transform="matrix(0.014 0.9999 -0.9999 0.014 767.0106 -50.6277)" fill="#FFFFFF" width="64.006" height="23.274"/>
		<polygon fill="#FFFFFF" points="422.522,354.378 422.202,331.412 452.535,332.213 452.856,355.177 		"/>
		
			<rect x="426.932" y="362.639" transform="matrix(-0.0142 -0.9999 0.9999 -0.0142 66.3517 813.36)" fill="#FFFFFF" width="14.396" height="22.663"/>
		<polygon fill="#FFFFFF" points="398.016,397.601 396.772,418.14 467.226,418.683 466.915,396.634 		"/>
	</g>
	<polygon fill="#FFFFFF" points="492.068,333.8 493.288,420.769 526.997,422.132 525.727,331.492 	"/>
	<g>
		<path fill="#FFFFFF" d="M548.383,331.173l2.504,25.387c0,0,34.584-1.713,37.971-0.535c3.385,1.179,8.041,5.4,9.307,8.445
			c1.266,3.047,1.719,13.453,1.719,13.453l22.051-0.311l-0.287-20.209c0,0-4.73-9.734-11.23-14.547
			c-6.5-4.807-11.459-9.023-17.9-9.854C586.073,332.175,548.383,331.173,548.383,331.173z"/>
		<polygon fill="#FFFFFF" points="550.297,358.097 552.413,421.775 575.686,421.451 573.262,357.775 		"/>
		<path fill="#FFFFFF" d="M575.092,379.191l1.424,14.066l31.238-0.438c0,0,6.986-3.773,9.406-5.949
			c2.42-2.18,4.801-7.111,4.801-7.111L575.092,379.191z"/>
		<polygon fill="#FFFFFF" points="589.405,394.916 606.245,394.679 622.405,411.298 622.538,420.792 590.999,421.234 		"/>
	</g>
	<g>
		<polygon fill="#FFFFFF" points="638.86,405.248 638.133,353.65 651.967,335.539 657.172,335.464 659.922,422.105 653.797,422.191 
					"/>
		<polygon fill="#FFFFFF" points="660.227,356.554 658.708,335.443 674.936,335.214 675.233,356.343 		"/>
		
			<rect x="656.997" y="402.991" transform="matrix(-0.0141 -0.9999 0.9999 -0.0141 268.0587 1084.6851)" fill="#FFFFFF" width="23.584" height="14.392"/>
		<polygon fill="#FFFFFF" points="677.385,335.181 678.6,421.841 698.573,404.41 696.606,351.756 681.67,335.123 		"/>
	</g>
</g>
</svg>
