<?xml version="1.0" encoding="utf-8"?>
<!-- Generator: Adobe Illustrator 16.0.0, SVG Export Plug-In . SVG Version: 6.00 Build 0)  -->
<!DOCTYPE svg PUBLIC "-//W3C//DTD SVG 1.1//EN" "http://www.w3.org/Graphics/SVG/1.1/DTD/svg11.dtd">
<svg version="1.1" xmlns="http://www.w3.org/2000/svg" xmlns:xlink="http://www.w3.org/1999/xlink" x="0px" y="0px" width="800px"
	 height="600px" viewBox="0 0 800 600" enable-background="new 0 0 800 600" xml:space="preserve">
<g id="Layer_1">
</g>
<g id="Layer_2">
	<path fill="#FFFFFF" d="M85.693,388.151V219.484c0,0,48.667,0,59.333,0s43.333,4,43.333,46s-30,44-37.333,44s-38.667,0-38.667,0
		l-1.333,78.667H85.693z M143.693,283.484c8,0,18-4.666,18-18c0-13.333-14-18-22-18s-28,0-28,0v36
		C111.693,283.484,135.693,283.484,143.693,283.484z"/>
	<path fill="#FFFFFF" d="M201.693,260.15c1.462-9.218,11.333-40.667,37.333-40.667s30,0,30,0s23,1.401,28.333,12.333
		s7.667,21.666,7.667,28.333s0,73.334,0,86s-8.508,22.862-13.175,29.529s-16.159,15.805-26.159,16.471s-24.667,1.334-30,0
		s-16.667-8.666-24-18s-9.333-22.666-10-32S200.652,266.716,201.693,260.15z M226.36,268.817c-1.333,10,0,66,0,72
		s5.333,15.334,10,21.334s18,6,25.333,4s19.333-11.334,19.333-25.334s0-64.667,0-80.667c0-16-15.322-21.729-27.991-21.333
		C231.712,239.484,227.693,258.817,226.36,268.817z"/>
	<polygon fill="#FFFFFF" points="319.693,219.484 316.36,388.151 418.36,392.921 421.694,368.15 342.36,368.817 344.36,219.484 	"/>
	<g>
		<g>
			<polygon fill="#FFFFFF" points="437.027,219.484 437.027,392.921 460.36,392.921 460.36,222.15 			"/>
			<polygon fill="#FFFFFF" points="444.36,215.484 448.694,204.817 454.36,204.817 465.027,210.15 454.694,219.484 			"/>
		</g>
	</g>
	<path fill="#FFFFFF" d="M475.027,263.484c0-10,11.333-27.333,19.333-33.333s13.334-10.667,22.667-10.667s24.666-4,33.333,0
		s20.001,10.223,23.334,21.111s3.333,34.889,3.333,34.889H550.36c0,0,2.667-14.667-3.333-22s-28-12-36-0.667s-8,22.667-8,22.667
		s-0.667,52.666,0,61.333s6.667,21.333,16,27.333s22.001,4,26.667-5.333s6.666-22.667,6.666-22.667l24.667,0.667
		c0,0,0.667,22.155-4,30.744s-17.334,22.798-26.667,25.36s-32.666,3.438-40.666,0s-28.667-20.771-30.667-34.771
		S475.027,263.484,475.027,263.484z"/>
	<polygon fill="#FFFFFF" points="591.027,219.484 615.694,219.484 615.694,392.921 591.027,395.183 	"/>
	<path fill="#FFFFFF" d="M664.36,219.484h40.667l27.333,175.699h-26l-8-54.365l-34,0.667l-9.333,53.698h-27.333L664.36,219.484z
		 M669.694,316.818h24.666l-6-46.667h-8.333L669.694,316.818z"/>
</g>
</svg>
