<?xml version="1.0" encoding="utf-8"?>
<!-- Generator: Adobe Illustrator 16.0.0, SVG Export Plug-In . SVG Version: 6.00 Build 0)  -->
<!DOCTYPE svg PUBLIC "-//W3C//DTD SVG 1.1//EN" "http://www.w3.org/Graphics/SVG/1.1/DTD/svg11.dtd">
<svg version="1.1" id="Layer_1" xmlns="http://www.w3.org/2000/svg" xmlns:xlink="http://www.w3.org/1999/xlink" x="0px" y="0px"
	 width="800px" height="600px" viewBox="0 0 800 600" enable-background="new 0 0 800 600" xml:space="preserve">
<path fill-rule="evenodd" clip-rule="evenodd" fill="#FFFFFF" d="M659.299,388.93c-15.481-7.531-21.191-17.678-19.265-34.908
	c0.757-6.77,1.275-13.805,3.597-20.094c2.396-6.49,6.729-12.297,10.454-18.252c2.249-3.597,4.396-7.602,7.592-10.177
	c4.198-3.382,9.14-6.233,14.217-8.019c4.692-1.65,9.991-1.549,15.01-2.31c2.194-0.332,5.728-0.24,6.301-1.452
	c2.945-6.229-1.623-14.515-8.689-14.543c-4.531-0.019-9.475,2.539-13.536,5.063c-10.354,6.437-20.579,2.11-25.217-7.749
	c-1.82-3.868,3.485-14.258,7.445-16.039c5.122-2.303,9.797-5.803,15.078-7.501c7.875-2.532,14.952-1.106,22.747,3.368
	c8.617,4.947,13.168,12.291,17.271,20.029c3.465,6.537,4.291,14.415,7.069,21.386c4.629,11.619,3.76,22.527-2.003,33.498
	c-2.617,4.982-4.916,10.352-6.008,15.816c-0.47,2.348,2.09,7.279,3.992,7.688c3.444,0.738,7.944-0.146,11.069-1.961
	c5.178-3.006,7.657-10.674,15.658-8.779c0.611,0.145,1.201,0.381,1.801,0.572c-0.59,0.834-1.209,1.646-1.764,2.502
	c-2.393,3.688-5.007,7.26-7.082,11.119c-2.423,4.506-3.264,10.545-6.797,13.598c-4.572,3.951-10.981,6.006-16.861,8.166
	c-10.14,3.729-23.896,8.666-30.79,10.037S659.299,388.93,659.299,388.93z M684.95,335.887c4.001-1.672,4.643-1.822,6.163-3.516
	c0.903-1.008,0.807-2.119,0.124-5.014c-0.683-2.893-4.121-3.262-6.477-2.139c-2.355,1.121-8.593,4.936-12.808,7.572
	c-0.711,0.445-1.702,1.117-1.775,1.771c-0.167,1.52,0.147,3.092,0.268,4.643"/>
<path fill-rule="evenodd" clip-rule="evenodd" fill="#FFFFFF" d="M558.095,417.895c0.843-2.48,3.385-4.584,5.053-6.951
	c2.45-3.479,5.544-6.771,6.952-10.654c2.05-5.658,2.373-11.928,4.292-17.65c2.544-7.582,5.8-14.938,8.989-22.287
	c1.304-3.006,3.101-5.828,4.915-8.572c1.828-2.768,4.84-5.062,5.766-8.049c1.782-5.75,3.187-11.812,3.428-17.799
	c0.405-10.037-0.171-20.117-0.447-30.176c-0.09-3.279-1.396-6.762-0.647-9.781c2.038-8.223,1.284-17.262,9.355-23.665
	c9.313-7.388,18.475-5.781,24.33,1.975c3.083,4.083,2.273,11.332,2.606,17.186c0.214,3.764-0.357,7.666-1.176,11.373
	c-1.154,5.23-3.379,10.257-4.197,15.52c-0.915,5.89-1.833,12.124-0.863,17.89c1.945,11.572,4.396,23.014-1.039,34.146
	c-3.705,7.59-10.283,11.881-18.391,14.164c-4.622,1.301-9.654,2.461-13.397,5.197c-3.642,2.66-5.896,7.23-8.719,10.994
	c-4.424,5.9-8.618,11.988-13.292,17.682c-2.767,3.373-6.85,5.758-9.206,9.334c0,0-0.352,1.695-1.185,2.529
	S557.754,418.899,558.095,417.895z"/>
<path fill-rule="evenodd" clip-rule="evenodd" fill="#FFFFFF" d="M88.709,357.506c-8.44-11.914-4.511-26.689-0.68-42.867
	c1.392-5.878,3.463-11.707,3.934-17.66c0.446-5.648-1.284-11.438-1.187-17.151c0.167-9.811,0.427-19.692,1.811-29.378
	c0.703-4.922,3.271-9.953,6.189-14.093c4.179-5.929,9.47-11.073,14.247-16.586c1.725-1.991,3.075-4.39,5.057-6.054
	c3.324-2.792,6.852-5.425,10.588-7.628c9.269-5.466,19.275-7.307,29.593-3.791c4.469,1.523,8.343,4.71,12.661,6.781
	c2.989,1.434,6.208,2.803,9.444,3.186c3.303,0.392,6.768-0.351,10.137-0.784c14.239-1.83,35.813,5.749,34.625,23.734
	c-0.535,8.108-2.228,16.484-5.306,23.962c-2.135,5.188-6.697,10.62-11.609,13.094c-5.629,2.835-12.844,2.524-19.372,3.574
	c-3.973,0.639-7.95,1.739-11.919,1.714c-2.246-0.014-4.804-1.489-6.653-3c-4.167-3.405-3.286-10.479,1.197-13.901
	c1.967-1.503,3.249-4.029,5.34-5.206c1.87-1.053,4.435-0.834,6.673-1.275c2.473-0.487,6.067-0.304,7.109-1.826
	c1.45-2.117,2.088-6.133,0.98-8.23c-0.87-1.645-4.936-2.282-7.543-2.197c-6.949,0.227-13.914,0.826-20.793,1.824
	c-2.577,0.374-5.176,1.927-7.352,3.51c-10.365,7.546-12.653,19.636-16.098,30.733c-2.45,7.895-2.833,16.43-4.139,24.68
	c-0.769,4.854-1.7,9.69-2.267,14.569c-0.851,7.322,4.277,10.084,9.991,10.861c5.633,0.768,11.696,0.914,17.169-0.375
	c5.842-1.375,11.307-4.562,16.771-7.293c7.594-3.795,14.821-5.404,21.911,1.117c4.419,4.066,3.289,8.549,2.137,13.49
	c-2.568,11.018-4.146,22.297-7.254,33.146c-2.12,7.398,3.94,11.344,5.068,17.146c0.813,4.184,1.447,8.709,0.689,12.811
	c-0.885,4.787-2.189,10.617-5.487,13.531c-3.456,3.055-9.691,4.746-14.346,4.154c-4.648-0.59-9.568-4.012-13.084-7.49
	c-6.81-6.738-11.615-14.777-7.586-25.016c1.808-4.596,3.765-9.184,6.191-13.469c2.558-4.518,6.507-8.389,8.302-13.127
	c2.181-5.758-7.781-10.266-11.841-9.109c-10.326,2.947-10.324,17.299-19.011,21.953c-14.485,7.762-28.899,6.135-42.829-2.047
	C94.975,364.479,91.271,361.125,88.709,357.506z"/>
<path fill-rule="evenodd" clip-rule="evenodd" fill="#FFFFFF" d="M486.167,349.67c-4.765,4.18-10.008,7.934-14.177,12.643
	c-5.706,6.443-8.581,15.75-19.162,16.74c-7.854,0.736-16.04,3.883-23.385,2.438c-7.257-1.43-13.717-7.158-20.383-11.234
	c-3.569-2.184-7.721-4.227-10.051-7.457c-4.579-6.346-10.264-13.107-11.494-20.373c-1.833-10.826-0.088-22.24-0.095-33.402
	c-0.004-6.238-0.863-12.492-0.632-18.712c0.312-8.377,1.908-16.81,9.283-21.923c5.072-3.517,11.249-5.418,16.844-8.22
	c1.862-0.932,3.289-2.929,5.2-3.529c3.056-0.959,6.357-1.116,9.538-1.703c1.034-0.191,1.991-0.803,3.025-0.982
	c1.485-0.256,3.008-0.381,4.517-0.407c6.196-0.103,12.626,0.883,18.533-0.457c8.439-1.914,13.142,2.543,17.697,7.883
	c4.276,5.013,10.098,9.846,11.672,15.715c1.685,6.282-0.305,13.779-1.637,20.56c-0.897,4.568-3.158,8.959-5.348,13.148
	c-1.279,2.446-3.754,4.238-5.434,6.514c-1.296,1.756-1.788,4.291-3.366,5.605c-2.104,1.752-4.796,3.303-7.446,3.791
	c-5.612,1.033-11.442,2.209-17.036,1.701c-7.819-0.707-15.5-2.92-23.253-4.428c-0.852-0.166-1.782,0.068-2.676,0.117
	c0.286,2.189-0.199,5.012,0.99,6.461c5.956,7.256,12.209,14.287,18.693,21.076c1.575,1.648,4.361,2.268,6.699,3.023
	c2.211,0.713,4.643,1.604,6.841,1.328c5.931-0.742,11.883-1.713,17.651-3.248c6.847-1.82,13.457-4.518,20.29-6.4
	c1.834-0.506,6.694,0.404,7.174,1.883s-1.501,1.832-2.46,2.193C491.082,350.653,486.584,350.194,486.167,349.67z M447.598,302.382
	c-1.026-3.688-0.951-6.371-2.225-7.423c-3.354-2.77-7.034-5.737-11.08-6.894c-3.336-0.954-11.472,0.64-11.63,0.658
	c-2.333,0.262-4.662,0.559-6.992,0.847c0.065,0.492-0.053,1.222,0.227,1.438c1.465,1.131,2.997,2.183,4.567,3.164
	c1.83,1.142,3.773,2.104,5.567,3.296c0.976,0.648,1.605,2.006,2.628,2.361c4.276,1.485,8.583,3.004,13.004,3.893
	C443.472,304.085,445.596,302.879,447.598,302.382z"/>
<path fill-rule="evenodd" clip-rule="evenodd" fill="#FFFFFF" d="M250.534,298.741c8.437-0.445,11.393,2.382,17.519,5.802
	c5.022,2.804,8.665,1.011,11.753-3.624c3.965-5.949-0.511-9.514-1.781-14.077c-1.646-5.916-6.288-8.308-11.601-9.406
	c-4.095-0.846-8.365-0.921-12.567-1.151c-8.913-0.488-17.093-5.49-18.318-15.66c-0.784-6.515-2.925-12.974-2.887-19.449
	c0.032-5.523,2.314-11.031,3.581-16.551c0.176-0.77,0.094-1.623,0.383-2.335c0.3-0.739,0.789-1.52,1.42-1.962
	c0.401-0.282,1.21,0.019,1.837,0.059c-0.134,0.651-0.22,1.317-0.41,1.952c-3,10.022-2.499,20.42,1.973,29.284
	c2.161,4.284,9.642,7.354,15.111,8.112c6.303,0.873,13.076-1.235,19.586-2.385c5.434-0.96,10.756-3.275,16.174-3.434
	c8.194-0.241,15.135,3.597,19.749,10.463c6.159,9.165,5.6,18.877,1.687,28.875c-2.951,7.54-5.292,15.322-7.815,23.027
	c-2.257,6.891-4.834,13.719-6.456,20.764c-1.64,7.123,4.865,17.535,11.6,20.521c1.655,0.732,7.61,5.096,9.957,9.168
	c2.346,4.074,5.459,10.252,8.203,15.375c0.736,1.375,1.739,2.605,2.619,3.902c-2.7-1.016-5.633-1.652-8.056-3.125
	c-5.866-3.568-11.234-8.029-17.303-11.166c-4.591-2.371-10.054-2.988-14.948-4.861c-6.466-2.473-12.59-6-19.203-7.857
	c-2.678-0.752-6.691,1.053-9.339,2.826c-6.267,4.197-12.695,4.824-19.852,3.256c-10.416-2.283-19.712-6.84-24.886-16.168
	c-2.487-4.484-2.88-11.156-1.807-16.338c1.412-6.812,4.58-13.51,8.22-19.514C227.361,308.637,242.097,299.186,250.534,298.741z
	 M253.399,334.944c2.489-0.812,5.678-6.295,7.985-9.619c0.386-0.557,0.438-3.25-2.279-4.055s-6.059,1.188-7.784,2.027
	c-2.246,1.092-4.186,3.027-5.881,4.934c-0.689,0.775-1.376,1.674-0.464,3.537S250.91,335.756,253.399,334.944z"/>
<path fill-rule="evenodd" clip-rule="evenodd" fill="#FFFFFF" d="M389.167,395.668c-1.66-2.205-3.163-4.301-4.767-6.318
	c-3.447-4.334-8.044-1.426-12.043-2.094c-6.125-1.021-11.805-4.611-17.928-5.768c-11.585-2.186-14.75-11.693-18.439-20.371
	c-1.65-3.879-0.833-8.893-0.782-13.389c0.063-5.592-0.196-11.322,0.937-16.73c1.408-6.721,4.619-13.062,6.074-19.777
	c1.244-5.744,1.867-11.849,1.392-17.682c-0.601-7.384-2.41-14.695-4.033-21.963c-1.616-7.239-3.71-14.371-5.458-21.583
	c-0.569-2.351-1.149-4.843-0.959-7.208c0.691-8.59,0.97-17.321,2.856-25.67c1.285-5.686,4.778-10.942,7.681-16.17
	c2.265-4.078,5.114-7.834,7.751-11.7c3.392-4.972,6.821-9.918,10.271-14.851c0.236-0.337,0.991-0.754,1.129-0.647
	c1.077,0.83,2.061,1.778,3.074,2.69c-0.208,0.219-0.465,0.409-0.62,0.662c-2.341,3.839-4.845,7.592-6.956,11.555
	c-2.85,5.348-5.971,18.246-6.986,24.273s-1.013,14.833,0.795,21.832c1.922,7.435,6.505,14.143,9.483,21.352
	c3.949,9.56,7.323,19.355,11.209,28.943c4.899,12.086,2.251,23.925-0.236,35.973c-1.526,7.393-1.599,15.072-2.723,22.562
	c-0.993,6.613-3.435,13.141-3.471,19.717c-0.019,3.451,3.266,7.359,5.91,10.293c5.478,6.078,14.559,8.682,17.121,17.586
	C389.813,392.446,389.299,393.959,389.167,395.668z"/>
<path fill-rule="evenodd" clip-rule="evenodd" fill="#FFFFFF" d="M579.504,303.444c-7.949,0.689-8.538-3.687-9.305-8.681
	c-0.756-4.926-2.158-9.93-9.313-8.914c-2.564,0.364-5.44-1.207-7.942-0.716c-6.342,1.245-11.287,10.073-10.241,17.344
	c0.689,4.801,1.741,9.588,1.946,14.41c0.282,6.605,0.778,13.412-0.511,19.791c-0.726,3.592-4.499,6.885-7.518,9.635
	c-7.048,6.42-14.893,12.008-21.602,18.742c-5.144,5.164-9.979,11.096-13.222,17.553c-2.948,5.873-5.223,16.807-4.899,19.48
	s2.003,7.699,1.648,8.385c-1.07,2.07-2.379,4.018-3.595,6.014c-0.508-1.266-1.165-2.492-1.5-3.801
	c-2.065-8.074-5.744-16.217-5.513-24.238c0.169-5.85,5.337-11.66,8.626-17.285c2.979-5.096,6.939-9.664,9.532-14.926
	c2.749-5.58,4.699-11.619,6.417-17.625c1.111-3.883,1.888-8.119,1.585-12.104c-1.062-13.949-2.189-27.927-4.233-41.756
	c-1.113-7.529-2.488-15.971-6.746-21.814c-4.24-5.82-11.869-9.666-18.7-12.943c-5.296-2.541-13.211-10.045-13.031-15.347
	c0.018-0.525,0.682-1.028,1.046-1.541c0.382,0.334,0.93,0.593,1.121,1.014c3.147,6.883,7.301,11.528,15.697,13.191
	c7.395,1.465,14.631,5.479,21.009,9.752c4.818,3.228,8.009,8.816,12.36,12.886c0.621,0.58,4.025-1.098,5.612-2.384
	c13.685-11.082,28.305-10.319,43.987-4.802c7.236,2.545,11.508,7.408,15.351,13.188c4.158,6.252,1.371,11.818-2.151,17.294
	c-1.654,2.571-2.809,5.458-4.307,8.137C580.531,302.428,579.625,303.293,579.504,303.444z"/>
<path fill-rule="evenodd" clip-rule="evenodd" fill="#FFFFFF" d="M621.362,252.706c-1.04,0.153-3.533,1.196-5.686,0.715
	c-7.217-1.612-3.053-5.937-1.821-9.43c0.758-2.15,2.34-4.183,2.491-6.342c0.497-7.081,4.892-9.098,11.016-10.2
	c2.767-0.498,5.18-2.934,7.771-4.46c0.268-0.158,0.888-0.243,0.951-0.133c0.406,0.698,1.104,1.544,0.97,2.187
	c-1.19,5.706-2.786,11.336-3.764,17.074C632.311,247.861,627.97,252.505,621.362,252.706z"/>
</svg>
