<?xml version="1.0" encoding="utf-8"?>
<!-- Generator: Adobe Illustrator 16.0.0, SVG Export Plug-In . SVG Version: 6.00 Build 0)  -->
<!DOCTYPE svg PUBLIC "-//W3C//DTD SVG 1.1//EN" "http://www.w3.org/Graphics/SVG/1.1/DTD/svg11.dtd">
<svg version="1.1" id="Layer_1" xmlns="http://www.w3.org/2000/svg" xmlns:xlink="http://www.w3.org/1999/xlink" x="0px" y="0px"
	 width="800px" height="600px" viewBox="0 0 800 600" enable-background="new 0 0 800 600" xml:space="preserve">
<g>
	<g>
		<g>
			<rect x="127.296" y="244.772" fill="#FFFFFF" width="34.258" height="89.212"/>
		</g>
		<polygon fill="#FFFFFF" points="165.122,244.772 165.122,264.042 173.329,264.042 186.711,247.091 		"/>
		<path fill="#FFFFFF" d="M165.122,283.49h39.253c0,0,8.564,6.424,12.311,10.705c3.747,4.283,3.747,14.452,3.747,14.452h-23.017
			c0,0-0.535-5.889-10.705-9.098c-10.17-3.213-21.589-3.479-21.589-3.479V283.49z"/>
		<path fill="#FFFFFF" d="M165.122,314.535v19.449h27.655c0,0,16.415-7.137,21.232-12.49s6.423-10.172,6.423-10.172h-24.622
			c0,0-3.568,1.965-7.494,3.035C184.391,315.428,165.122,314.535,165.122,314.535z"/>
		<path fill="#FFFFFF" d="M186.711,269.038c0,0-0.536-3.569-4.104-4.995c-3.568-1.428-6.691,0-6.691,0l12.758-16.416
			c0,0,5.708,1.784,11.954,6.781c6.246,4.995,7.316,6.066,8.387,9.635c1.07,3.567,0,4.995,0,4.995H186.711z"/>
		<path fill="#FFFFFF" d="M189.745,271.535v9.992h15.7c0,0,3.808-1.783,4.045-4.995c0.238-3.212,0-4.997,0-4.997H189.745z"/>
	</g>
	<g>
		<polygon fill="#FFFFFF" points="229.711,333.984 229.711,244.772 261.472,244.772 261.472,332.197 		"/>
		<path fill="#FFFFFF" d="M265.754,264.042v-19.27h35.329c0,0,7.137,2.14,12.847,9.635c5.709,7.494,3.924,14.63,3.924,14.63h-25.918
			c0,0,0.938-2.499-2.987-4.995C285.024,261.543,265.754,264.042,265.754,264.042z"/>
		<path fill="#FFFFFF" d="M291.936,273.319h28.059c0,0-0.713,4.282-7.851,12.848c-7.137,8.564-12.846,9.903-12.846,9.903h-33.544
			v-12.58c0,0,11.419,0.178,16.415-1.964C287.166,279.387,291.71,275.104,291.936,273.319z"/>
		<path fill="#FFFFFF" d="M285.737,299.371h10.706c0,0,8.208,1.782,13.561,6.065c5.353,4.283,9.992,8.922,9.992,8.922v17.84h-32.829
			L285.737,299.371z"/>
	</g>
	<g>
		<polygon fill="#FFFFFF" points="338.495,320.781 374.237,244.772 404.926,244.772 407.066,247.626 369.597,332.197 		"/>
		<polygon fill="#FFFFFF" points="338.495,322.654 338.495,330.771 347.116,333.984 356.394,333.984 361.034,332.197 
			359.606,330.771 		"/>
		<polygon fill="#FFFFFF" points="414.561,333.984 395.648,284.694 417.771,279.387 438.824,333.984 		"/>
		<polygon fill="#FFFFFF" points="379.588,315.785 382.086,308.646 402.785,308.646 405.639,315.785 		"/>
		<polygon fill="#FFFFFF" points="395.648,281.526 395.648,279.387 407.066,249.411 410.99,249.411 417.236,276.531 		"/>
	</g>
	<g>
		<path fill="#FFFFFF" d="M438.824,271.535c0,0,4.996-9.277,11.42-14.63s12.135-8.565,18.199-9.278
			c6.068-0.713,34.615,1.784,34.615,1.784s8.564,2.498,14.988,7.494c6.424,4.997,11.061,9.634,11.418,12.133
			c0.357,2.499,0,4.282,0,4.282h-28.189c0,0-3.57-6.065-8.924-7.851c-5.352-1.784-11.059-2.141-16.057,0
			c-4.996,2.141-7.137,6.066-7.137,6.066H438.824z"/>
		<path fill="#FFFFFF" d="M440.254,276.531h29.26c0,0,1.785,3.21,5.711,4.995c3.924,1.786,11.061,3.123,14.629,3.168
			c3.57,0.045,12.135,4.327,15.703,6.825c3.566,2.499,4.996,4.551,4.996,4.551l-9.277,10.614c0,0-10.709-8.919-14.633-10.614
			c-3.924-1.696-12.488-0.269-15.701-2.052C467.73,292.232,440.254,276.531,440.254,276.531z"/>
		<path fill="#FFFFFF" d="M512.336,296.07c0,0,6.066,2.23,9.635,5.797c3.57,3.568,7.654,9.455,7.654,9.455H507.34l-3.568-2.676
			L512.336,296.07z"/>
		<path fill="#FFFFFF" d="M442.395,311.322h31.047c0,0,3.209,5.535,7.848,7.316c4.641,1.785,13.205,2.143,16.773,0
			c3.566-2.141,7.137-4.994,7.137-4.994L532.32,314c0,0-2.143,9.725-9.279,14.318c-7.135,4.594-15.346,7.807-19.27,7.807
			c-3.926,0-26.406,1.785-31.402,0c-4.996-1.783-16.414-8.029-21.41-13.471C445.961,317.213,442.395,311.322,442.395,311.322z"/>
	</g>
	<g>
		<polygon fill="#FFFFFF" points="545.166,336.918 545.166,281.526 575.141,281.526 575.141,335.412 		"/>
		<polygon fill="#FFFFFF" points="545.166,269.039 541.596,249.411 571.217,249.411 571.217,269.039 		"/>
	</g>
	<g>
		<polygon fill="#FFFFFF" points="588.346,249.411 590.842,335.412 622.959,336.918 619.746,249.411 		"/>
		<path fill="#FFFFFF" d="M627.24,336.918v-27.695c0,0,25.693,2.992,35.686,2.992s30.689-0.893,30.689-0.893v31.227L627.24,336.918z
			"/>
	</g>
</g>
</svg>
