<?xml version="1.0" encoding="utf-8"?>
<!-- Generator: Adobe Illustrator 16.0.0, SVG Export Plug-In . SVG Version: 6.00 Build 0)  -->
<!DOCTYPE svg PUBLIC "-//W3C//DTD SVG 1.1//EN" "http://www.w3.org/Graphics/SVG/1.1/DTD/svg11.dtd">
<svg version="1.1" id="Layer_1" xmlns="http://www.w3.org/2000/svg" xmlns:xlink="http://www.w3.org/1999/xlink" x="0px" y="0px"
	 width="800px" height="600px" viewBox="0 0 800 600" enable-background="new 0 0 800 600" xml:space="preserve">
<g>
	<g id="Dc4kD7_1_">
		<g>
			<path fill-rule="evenodd" clip-rule="evenodd" d="M703.425,381.66c-5.296,0.364-10.672,0.286-15.854,1.257
				c-3.098,0.581-3.925-0.854-5.114-2.81c-9.671-15.887-19.511-31.672-29.006-47.664c-4.812-8.105-8.858-16.662-13.541-24.849
				c-4.43-7.743-9.3-15.232-13.863-22.9c-5.607-9.419-11.275-18.811-16.537-28.422c-1.725-3.152-2.604-6.892-3.253-10.476
				c-0.65-3.589,1.876-5.983,4.452-8.071c0.16-0.13,0.991,0.274,0.989,0.28c-1.77,6.152,1.294,11.178,4.066,16.082
				c6.156,10.896,12.609,21.623,18.964,32.407c5.212,8.846,10.347,17.739,15.713,26.49c5.765,9.402,11.87,18.598,17.622,28.007
				c5.507,9.008,10.751,18.178,16.11,27.276c1.211,2.056,2.335,4.172,3.688,6.133c0.472,0.684,1.502,1.378,2.286,1.389
				c3.987,0.053,7.978-0.171,11.967-0.153c0.63,0.002,1.434,0.607,1.845,1.164c0.699,0.952,1.078,2.134,1.723,3.132
				c0.896,1.388,0.573,1.962-1.046,1.919c-0.396-0.012-0.795,0.046-1.192,0.069C703.437,381.833,703.43,381.747,703.425,381.66z
				 M669.533,346.373c-0.476,0.34-0.758,0.542-1.038,0.745c0.296,0.27,0.56,0.623,0.908,0.766c0.137,0.057,0.62-0.336,0.666-0.578
				C670.113,347.08,669.787,346.784,669.533,346.373z"/>
			<path fill-rule="evenodd" clip-rule="evenodd" d="M176.868,376.638c-6.457,0-12.915-0.001-19.372,0.003
				c-0.282,0-0.566,0.035-0.848,0.069c-2.157,0.26-2.97-0.762-2.14-2.832c1.604-4.01,3.271-7.995,4.917-11.987
				c2.986-7.24,5.898-14.511,8.986-21.705c4.473-10.424,9.084-20.788,13.616-31.186c3.096-7.106,6.144-14.233,9.236-21.341
				c2.413-5.549,4.817-11.103,7.305-16.619c2.511-5.57,4.973-11.169,7.739-16.613c2-3.938,4.187-7.842,6.782-11.404
				c3.966-5.443,8.723-10.176,14.784-13.363c0.526-0.276,1.28-0.115,1.928-0.156c-0.318,0.434-0.561,0.96-0.965,1.287
				c-4.35,3.506-7.831,7.818-10.471,12.64c-3.238,5.913-6.041,12.078-8.8,18.237c-4.159,9.283-8.14,18.646-12.152,27.995
				c-2.213,5.158-4.394,10.333-6.484,15.542c-3.759,9.365-7.359,18.795-11.179,28.135c-2.688,6.571-5.667,13.022-8.442,19.557
				c-2.154,5.075-4.184,10.2-6.297,15.293c-0.496,1.194,0.183,1.435,1.091,1.456c5.344,0.124,10.688,0.222,16.033,0.327
				c0.057,0.001,0.115-0.023,0.169-0.018c1.843,0.184,3.685,0.371,5.527,0.556c-0.856,1.729-1.435,3.705-2.67,5.097
				c-0.77,0.868-2.511,1.02-3.856,1.197c-1.454,0.193-2.953,0.045-4.433,0.045C176.869,376.78,176.868,376.708,176.868,376.638z"/>
			<path fill-rule="evenodd" clip-rule="evenodd" d="M543.02,232.968c0.789,0.682,1.93,1.21,2.308,2.072
				c2.233,5.098,4.35,10.252,6.391,15.43c2.441,6.19,4.753,12.432,7.151,18.639c5.896,15.25,11.8,30.498,17.721,45.739
				c3.954,10.178,7.936,20.347,11.916,30.515c3.174,8.104,6.367,16.197,9.543,24.297c0.352,0.897,0.753,1.796,0.945,2.731
				c0.417,2.033,1.785,2.046,3.451,1.981c4.033-0.154,8.073-0.163,12.11-0.178c0.4-0.004,1.021,0.237,1.168,0.546
				c0.858,1.789,1.659,3.609,2.363,5.466c0.354,0.933-0.013,1.432-1.159,1.458c-5.311,0.121-10.673-0.067-15.914,0.634
				c-3.943,0.528-5.544-0.766-6.811-4.305c-3.105-8.689-6.558-17.26-9.971-25.838c-3.242-8.151-6.665-16.229-9.906-24.38
				c-2.362-5.937-4.482-11.971-6.851-17.906c-2.371-5.942-5.061-11.761-7.354-17.731c-3.544-9.227-6.835-18.551-10.298-27.809
				c-2.786-7.446-5.675-14.853-8.502-22.283c-0.761-1.999-1.417-4.038-2.205-6.024c-0.555-1.4-0.356-2.246,1.304-2.388
				c0.734-0.062,1.463-0.188,2.194-0.285C542.75,233.222,542.886,233.095,543.02,232.968z"/>
			<path fill-rule="evenodd" clip-rule="evenodd" d="M521.098,379.939c-4.377,0-8.755,0.039-13.131-0.054
				c-0.479-0.01-1.267-0.7-1.363-1.186c-1.188-5.943-2.263-11.913-3.386-17.871c-1.053-5.578-2.146-11.148-3.188-16.728
				c-0.99-5.3-1.938-10.609-2.9-15.913c-1.096-6.03-2.22-12.054-3.275-18.092c-0.782-4.475-1.422-8.978-2.227-13.45
				c-0.729-4.064-1.652-8.093-2.387-12.157c-1.131-6.243-2.04-12.527-3.294-18.744c-0.944-4.681-1.176-9.334-0.373-14.01
				c1.023-5.958,2.737-11.642,7.592-15.761c0.584-0.496,1.423-0.693,2.143-1.028c-0.207,0.728-0.263,1.551-0.647,2.169
				c-3.113,5.005-4.281,10.606-4.224,16.315c0.046,4.457,0.944,8.936,1.757,13.351c2.409,13.095,4.949,26.165,7.465,39.241
				c1.743,9.054,3.548,18.096,5.289,27.149c1.196,6.217,2.315,12.448,3.493,18.667c1.251,6.587,2.579,13.158,3.757,19.756
				c0.249,1.396,1.154,1.415,2.064,1.47c3.055,0.179,6.113,0.372,9.169,0.355c1.935-0.01,2.724,0.775,2.896,2.635
				c0.396,4.285,0.44,4.278-3.86,4.177c-0.455-0.013-0.911-0.001-1.367-0.001C521.099,380.133,521.098,380.037,521.098,379.939z"/>
			<path fill-rule="evenodd" clip-rule="evenodd" d="M137.154,369.35c3.24,0,6.482-0.019,9.721,0.039
				c0.235,0.006,0.724,0.734,0.651,0.854c-1.273,2.065-2.314,4.42-4.056,5.989c-1.034,0.933-3.205,0.873-4.85,0.82
				c-7.678-0.25-15.353-0.654-23.027-0.994c-0.326-0.014-0.658,0.078-0.983,0.056c-0.385-0.026-0.938,0.007-1.104-0.217
				c-0.199-0.268-0.216-0.864-0.048-1.178c1.537-2.882,3.125-5.737,4.712-8.592c1.505-2.711,3.077-5.385,4.536-8.118
				c5.72-10.717,11.477-21.413,17.083-32.188c3.711-7.131,7.446-14.27,10.676-21.622c2.13-4.847,4.719-9.21,8.301-13.087
				c3.046-3.298,5.839-6.831,8.736-10.265c2.19-2.598,4.368-5.208,6.565-7.8c0.144-0.169,0.42-0.224,0.636-0.331
				c-0.07,0.375-0.055,0.794-0.222,1.119c-1.792,3.481-3.611,6.948-5.427,10.417c-1.835,3.505-3.689,7.001-5.513,10.512
				c-3.238,6.237-6.502,12.463-9.678,18.732c-3.724,7.354-7.414,14.725-11.03,22.132c-3.988,8.169-7.87,16.387-11.808,24.58
				c-1.182,2.46-2.373,4.915-3.597,7.354c-0.503,1.001-0.28,1.503,0.857,1.556c2.954,0.137,5.909,0.273,8.864,0.41
				C137.151,369.47,137.153,369.41,137.154,369.35z"/>
			<path fill-rule="evenodd" clip-rule="evenodd" d="M84.168,326.199c-2.137,0-3.606,0.001-5.076,0
				c-1.421-0.001-1.935-0.44-1.047-1.837c2.458-3.869,4.883-7.761,7.278-11.668c1.868-3.045,3.602-6.174,5.531-9.178
				c1.035-1.612,2.48-2.96,3.523-4.567c1.943-2.995,3.603-6.178,5.606-9.128c4.649-6.848,9.512-13.551,14.139-20.414
				c4.486-6.652,8.77-13.44,13.17-20.15c3.048-4.647,6.14-9.266,9.224-13.89c0.816-1.224,1.373-2.21-0.91-2.278
				c-1.154-0.035-1.809-0.782-1.144-1.998c1.437-2.627,2.896-5.242,4.396-7.832c0.775-1.338,4.786-1.324,5.466,0.016
				c0.132,0.261-0.059,0.765-0.23,1.089c-0.586,1.104-1.206,2.191-1.858,3.258c-0.698,1.141-0.41,1.648,0.923,1.71
				c2.798,0.127,2.982,0.457,1.558,2.739c-6.531,10.468-12.988,20.985-19.634,31.379c-6.652,10.401-13.583,20.625-20.234,31.025
				c-5.479,8.566-10.727,17.28-16.081,25.925c-1.016,1.642-1.982,3.32-3.123,4.871C85.231,325.834,84.377,326.074,84.168,326.199z"
				/>
			<path fill-rule="evenodd" clip-rule="evenodd" d="M766.995,383.746c-9.384-0.561-18.329-1.068-27.266-1.682
				c-0.724-0.052-1.596-0.69-2.061-1.311c-5.864-7.827-11.702-15.674-17.472-23.571c-4.088-5.597-8.083-11.262-12.071-16.929
				c-1.016-1.444-2.206-1.882-4.007-1.873c-4.821,0.023-9.646-0.258-14.466-0.47c-2.104-0.093-3.943-0.635-4.982-2.816
				c-0.552-1.158-1.537-2.104-2.281-3.177c-0.24-0.348-0.335-0.794-0.495-1.195c0.383-0.044,0.766-0.137,1.146-0.125
				c8.935,0.261,17.868,0.579,26.803,0.759c1.476,0.03,2.021,0.589,2.783,1.776c2.977,4.64,6.124,9.177,9.344,13.653
				c5.144,7.15,10.387,14.232,15.611,21.324c1.244,1.689,2.739,3.213,3.842,4.986c1.771,2.851,4.641,2.513,7.27,2.739
				c4.86,0.419,9.739,0.618,14.605,0.989c0.565,0.044,1.264,0.474,1.607,0.939c0.971,1.32,1.807,2.743,2.655,4.151
				c0.248,0.412,0.632,1.111,0.477,1.318C767.758,383.601,767.115,383.694,766.995,383.746z"/>
			<path fill-rule="evenodd" clip-rule="evenodd" d="M283.682,227.792c-0.345,1.707-0.581,3.167-0.948,4.595
				c-0.29,1.124-0.085,1.738,1.184,1.843c1.634,0.135,2.512,1.047,2.766,2.707c0.865,5.667,1.754,11.331,2.71,16.982
				c0.804,4.757,1.806,9.482,2.555,14.247c0.794,5.052,1.603,10.119,1.962,15.211c0.12,1.701-1.001,3.555-1.771,5.242
				c-2.263,4.961-4.604,9.889-6.969,14.802c-3.423,7.113-6.855,14.224-10.37,21.293c-1.128,2.271-4.97,2.708-6.621,0.762
				c-0.41-0.484-0.412-1.692-0.111-2.342c5.44-11.728,10.948-23.424,16.464-35.116c0.508-1.074,1.133-2.099,1.769-3.104
				c2.027-3.205,0.264-6.39-0.093-9.55c-0.489-4.337-1.23-8.647-1.918-12.961c-1.063-6.672-2.175-13.337-3.264-20.005
				c-0.065-0.393-0.216-0.804-0.157-1.18c0.315-2.025-0.549-2.749-2.544-2.741c-0.524,0.002-1.55-1.051-1.499-1.53
				c0.346-3.229,0.845-6.449,1.492-9.632c0.109-0.537,1.138-1.162,1.803-1.243c0.91-0.109,1.924,0.146,2.803,0.481
				C283.31,226.7,283.476,227.429,283.682,227.792z"/>
			<path fill-rule="evenodd" clip-rule="evenodd" d="M489.07,379.443c-3.919,0-7.839-0.005-11.76,0.001
				c-2.071,0.003-3.018-1.248-3.437-3.074c-2.078-9.07-4.072-18.158-6.242-27.205c-2.137-8.91-4.469-17.772-6.675-26.666
				c-1.215-4.9-2.225-9.854-3.563-14.719c-0.895-3.251-1.446-6.419-0.859-9.803c0.584-3.37,0.86-6.793,1.292-10.19
				c0.021-0.17,0.233-0.316,0.356-0.474c0.207,0.319,0.52,0.613,0.605,0.962c0.548,2.21,0.948,4.46,1.577,6.646
				c2.294,7.98,4.808,15.902,6.951,23.922c1.729,6.469,3.034,13.051,4.547,19.579c2.45,10.575,4.985,21.133,7.318,31.734
				c0.477,2.162,1.021,3.167,3.529,2.959c3.96-0.329,7.966-0.095,11.945-0.253c1.31-0.052,2.027,0.435,2.528,1.492
				c0.168,0.355,0.212,0.771,0.388,1.119c2.083,4.144,1.507,3.952-2.693,4.177c-1.93,0.104-3.872,0.02-5.81,0.02
				C489.07,379.592,489.07,379.517,489.07,379.443z"/>
			<path fill-rule="evenodd" clip-rule="evenodd" d="M529.906,326.459c7.326,0.395,14.65,0.821,21.979,1.158
				c1.647,0.075,2.54,0.933,2.922,2.332c0.922,3.383,1.658,6.817,2.596,10.196c3.06,11.027,6.163,22.043,9.319,33.044
				c0.122,0.427,0.954,0.906,1.468,0.922c5.512,0.164,11.057-0.07,16.522,0.486c2.335,0.239,1.113,3.331,1.857,5.005
				c0.085,0.189-0.48,0.958-0.784,0.984c-1.812,0.15-3.635,0.187-5.455,0.217c-5.498,0.089-10.997,0.2-16.495,0.177
				c-0.647-0.003-1.715-0.658-1.879-1.219c-2.968-10.183-5.826-20.398-8.712-30.605c-1.168-4.136-2.448-8.245-3.483-12.416
				c-0.721-2.906-3.026-1.907-4.701-2.043c-6.911-0.556-13.844-0.854-20.753-1.419c-0.703-0.058-1.446-1.188-1.916-1.972
				c-0.356-0.59-0.263-1.436-0.445-2.147c-0.413-1.599,0.269-2.441,1.82-2.503c2.043-0.081,4.092-0.02,6.138-0.02
				C529.905,326.577,529.906,326.518,529.906,326.459z"/>
			<path fill-rule="evenodd" clip-rule="evenodd" d="M421.958,325.466c-3.604,0.027-4.043-0.643-3.854-4.031
				c0.345-6.161,0.511-12.332,0.676-18.502c0.23-8.571,0.505-17.142,0.554-25.715c0.058-10.073-0.131-20.148-0.156-30.224
				c-0.005-1.927,0.199-3.86,0.386-5.783c0.114-1.175-0.311-1.719-1.491-1.662c-1.039,0.052-1.381-0.343-1.216-1.444
				c0.389-2.585,0.536-5.209,1.02-7.774c0.097-0.523,1.206-1.101,1.9-1.175c0.41-0.043,1.297,0.834,1.323,1.331
				c0.171,3.324,0.099,3.424,3.544,3.989c1.408,0.231,1.823,0.838,1.801,2.119c-0.162,9.047-0.331,18.093-0.438,27.14
				c-0.071,6.025,0.011,12.05-0.073,18.075c-0.081,5.808-0.343,11.612-0.421,17.418c-0.081,6.084-0.012,12.171-0.063,18.256
				c-0.02,2.209-0.106,4.426-0.332,6.622C424.868,326.521,422.859,324.989,421.958,325.466z"/>
			<path fill-rule="evenodd" clip-rule="evenodd" d="M230.466,370.877c2.786,0,5.571,0.016,8.356-0.005
				c1.376-0.013,1.596,0.573,0.965,1.68c-0.085,0.148-0.204,0.289-0.244,0.45c-1.328,5.265-5.683,4.397-9.388,4.45
				c-5.848,0.086-11.699-0.172-17.549-0.204c-1.717-0.012-2.037-0.688-1.576-2.202c2.188-7.2,4.321-14.417,6.5-21.619
				c1.765-5.833,3.573-11.653,5.35-17.482c0.405-1.327-0.441-1.601-1.478-1.619c-2.724-0.046-5.452-0.015-8.173-0.122
				c-2.329-0.092-4.662-0.253-6.973-0.539c-1.487-0.184-2.11-0.75-1.552-2.64c0.969-3.278,2.401-4.909,6.167-4.512
				c5.964,0.627,11.984,0.72,17.978,1.073c1.218,0.071,2.426,0.295,3.639,0.448c-0.263,1.372-0.405,2.778-0.806,4.108
				c-3.684,12.185-7.393,24.359-11.152,36.52c-0.507,1.642,0.4,1.966,1.574,1.996c2.785,0.071,5.573,0.023,8.36,0.023
				C230.465,370.747,230.465,370.813,230.466,370.877z"/>
			<path fill-rule="evenodd" clip-rule="evenodd" d="M61.28,368.401c6.314,0,12.628-0.013,18.944,0.013
				c1.248,0.005,2.566,0.029,1.126,1.849c-0.62,0.784-1.064,1.789-1.312,2.766c-0.581,2.279-2.086,2.734-4.215,2.783
				c-6.307,0.142-12.607,0.507-18.914,0.714c-5.392,0.177-10.785,0.311-16.179,0.356c-2.65,0.021-3.259-1.178-1.875-3.441
				c4.5-7.361,8.981-14.732,13.547-22.053c3.39-5.437,6.902-10.799,10.358-16.196c1.546-2.413,3.855-2.628,7.511-1.735
				c2.717,0.665,1.487,1.531,0.726,2.743c-6.442,10.257-12.87,20.521-19.283,30.794c-0.244,0.391-0.302,0.898-0.446,1.35
				c0.432,0.045,0.864,0.125,1.297,0.126c2.905,0.012,5.81,0.006,8.715,0.006C61.28,368.45,61.28,368.426,61.28,368.401z"/>
			<path fill-rule="evenodd" clip-rule="evenodd" d="M641.12,236.042c3.543-1.366,5.128,2.377,7.133,5.107
				c6.355,8.656,12.68,17.338,18.835,26.136c4.921,7.031,9.581,14.246,14.351,21.383c0.22,0.329,0.39,0.693,0.574,1.046
				c0.706,1.354,0.45,1.92-1.212,1.713c-1.454-0.18-2.974-0.33-4.404-0.103c-1.897,0.3-2.827-0.766-3.698-2.042
				c-5.609-8.22-11.199-16.452-16.79-24.684c-4.728-6.958-9.441-13.926-14.192-20.869c-0.253-0.371-0.791-0.759-1.207-0.773
				c-4.611-0.16-9.211-0.249-13.248,2.632c-0.312,0.223-1.568-0.158-1.622-0.419c-0.245-1.16-0.665-2.615-0.188-3.528
				c1.19-2.278,2.869-4.276,5.697-4.719c0.262-0.041,0.527-0.048,0.792-0.072c-0.088,0.257-0.149,0.53-0.272,0.769
				c-0.154,0.298-0.354,0.572-0.544,0.851c-0.369,0.545-0.744,1.085-1.118,1.628c0.864-0.285,2.312-0.364,2.497-0.89
				C633.913,235.24,637.214,236.409,641.12,236.042z"/>
			<path fill-rule="evenodd" clip-rule="evenodd" d="M321.254,371.68c1.821,0,3.645-0.06,5.46,0.046
				c0.401,0.024,1.06,0.599,1.098,0.971c0.122,1.168-0.179,2.394,0.017,3.539c0.424,2.481-1.018,2.94-2.92,2.927
				c-4.775-0.036-9.55-0.088-14.323-0.209c-2.495-0.062-4.998-0.187-7.468-0.504c-0.635-0.082-1.572-0.933-1.675-1.549
				c-1.479-8.83-2.879-17.677-4.214-26.531c-0.87-5.769-1.706-11.548-2.316-17.349c-0.134-1.271,0.713-2.664,1.179-3.977
				c0.844-2.386,1.736-4.754,2.62-7.126c0.136-0.365,0.323-0.712,0.487-1.066c0.157,0.377,0.398,0.74,0.462,1.131
				c2.018,12.329,4.017,24.658,6.02,36.988c0.538,3.312,1.123,6.617,1.584,9.938c0.207,1.488,0.648,2.342,2.393,2.296
				c3.864-0.105,7.732-0.034,11.597-0.034C321.253,371.34,321.254,371.51,321.254,371.68z"/>
			<path fill-rule="evenodd" clip-rule="evenodd" d="M520.744,236.25c1.645-0.108,3.29-0.199,4.933-0.329
				c1.977-0.156,3.057,0.567,3.648,2.633c2.625,9.174,5.545,18.266,8.125,27.452c1.706,6.077,3.013,12.266,4.503,18.403
				c0.576,2.37,1.134,4.744,1.756,7.101c0.237,0.897,0.205,1.341-0.926,1.333c-1.406-0.01-2.815,0.274-4.218,0.236
				c-0.424-0.011-1.082-0.598-1.208-1.043c-1.815-6.391-3.535-12.809-5.327-19.207c-1.178-4.21-2.468-8.388-3.653-12.596
				c-1.555-5.514-3.117-11.027-4.543-16.575c-0.425-1.652-0.979-2.417-2.871-2.2c-2.534,0.293-5.148-0.031-7.662,0.346
				c-4.041,0.605-7.69,2.097-9.71,6.071c-0.166,0.327-0.473,0.583-0.714,0.871c-0.064-0.411-0.215-0.83-0.183-1.234
				c0.444-5.393,5.013-10.027,10.719-10.79c2.426-0.324,4.876-0.461,7.314-0.684C520.733,236.111,520.738,236.181,520.744,236.25z"
				/>
			<path fill-rule="evenodd" clip-rule="evenodd" d="M567.126,236.457c2.915,0.301,6.254,0.198,9.327,1.053
				c7.14,1.987,11.965,7.057,15.543,13.284c2.801,4.875,5.45,9.864,7.793,14.973c2.669,5.82,5.274,11.718,7.241,17.797
				c1.437,4.442-0.953,6.137-5.135,6.535c-0.438,0.042-1.37-0.655-1.354-0.969c0.369-6.498-3.026-11.808-5.596-17.301
				c-2.951-6.308-6.098-12.569-9.748-18.488c-2.037-3.303-5.079-6.09-8.057-8.655c-1.188-1.023-3.419-0.987-5.199-1.137
				c-2.448-0.206-4.923-0.099-7.381-0.208c-0.358-0.016-0.862-0.414-1.012-0.759c-0.747-1.712-1.409-3.463-2.054-5.218
				c-0.035-0.099,0.346-0.497,0.557-0.518C563.629,236.689,565.211,236.594,567.126,236.457z"/>
			<path fill-rule="evenodd" clip-rule="evenodd" d="M241.178,286.467c-5.022-0.046-4.212,0.3-3.099-3.995
				c2.402-9.272,5.429-18.384,8.241-27.55c1.349-4.393,2.801-8.754,4.189-13.134c0.667-2.102,0.463-2.291-1.649-1.947
				c-4.09,0.666-8.185,1.287-11.776,3.587c-0.206,0.131-0.516,0.099-0.777,0.143c0.174-0.251,0.301-0.562,0.53-0.745
				c5.538-4.41,11.729-7.509,18.607-9.215c0.22-0.055,0.447-0.085,0.673-0.109c4.33-0.451,4.469-0.11,3.222,3.971
				c-3.534,11.568-6.915,23.184-10.343,34.785c-1.159,3.922-2.26,7.861-3.415,11.785
				C244.984,286.075,244.49,286.324,241.178,286.467z"/>
			<path fill-rule="evenodd" clip-rule="evenodd" d="M418.57,340.245c-0.263,9.672-0.483,19.344-0.82,29.013
				c-0.072,2.097,0.529,2.823,2.734,2.862c6.547,0.115,13.088,0.531,19.634,0.748c1.492,0.05,1.911,0.538,1.781,2.038
				c-0.373,4.337-0.308,4.525-4.717,4.578c-4.206,0.052-8.415-0.354-12.625-0.526c-3.691-0.148-7.389-0.381-11.08-0.321
				c-1.809,0.028-2.368-0.851-2.414-2.279c-0.232-7.264-0.302-14.505,0.98-21.726c0.67-3.775,0.472-7.705,1.088-11.496
				c0.504-3.104,1.571-6.127,2.555-9.134c0.146-0.451,1.174-0.704,1.835-0.838c0.173-0.035,0.689,0.701,0.733,1.116
				c0.215,1.979,0.319,3.972,0.462,5.96C418.667,340.243,418.62,340.243,418.57,340.245z"/>
			<path fill-rule="evenodd" clip-rule="evenodd" d="M261.746,377.319c-4.516,0-9.032,0.026-13.547-0.015
				c-1.697-0.016-2.199-0.846-1.819-2.576c1.536-7.013,2.942-14.054,4.413-21.079c1.147-5.479,2.276-10.964,3.499-16.426
				c0.472-2.105,1.864-2.786,4.141-2.29c3.206,0.698,3.383,1.168,2.675,4.612c-2.048,9.949-3.978,19.926-6.027,29.874
				c-0.266,1.296,0.152,1.393,1.238,1.424c5.735,0.166,11.468,0.4,17.2,0.646c0.225,0.011,0.656,0.518,0.613,0.601
				c-0.784,1.537-1.521,3.119-2.505,4.526c-0.389,0.556-1.336,0.972-2.05,1.005c-2.606,0.117-5.22,0.046-7.831,0.046
				C261.746,377.551,261.746,377.434,261.746,377.319z"/>
			<path fill-rule="evenodd" clip-rule="evenodd" d="M472.343,283.721c0.49,5.147,0.987,10.294,1.462,15.443
				c0.043,0.472-0.053,0.958-0.084,1.438c-0.206-0.385-0.448-0.754-0.613-1.156c-2.267-5.515-4.658-10.985-6.71-16.579
				c-0.743-2.027-0.747-4.347-0.959-6.546c-0.951-9.836-1.868-19.675-2.772-29.515c-0.395-4.297-0.757-8.597-1.081-12.9
				c-0.239-3.19,1.951-4.413,4.692-3.306c0.579,0.234,1.23,1.015,1.317,1.621c0.559,3.827,1.016,7.67,1.41,11.518
				c0.533,5.208,0.996,10.424,1.46,15.64c0.72,8.106,1.415,16.214,2.122,24.321C472.506,283.707,472.424,283.713,472.343,283.721z"
				/>
			<path fill-rule="evenodd" clip-rule="evenodd" d="M199.419,225.466c-0.512,0.767-0.728,1.173-1.02,1.512
				c-5.787,6.72-11.596,13.421-17.371,20.151c-2.775,3.236-5.345,6.66-8.267,9.755c-3.733,3.956-7.725,7.667-11.62,11.47
				c-0.165,0.161-0.467,0.179-0.706,0.265c-0.017-0.159-0.078-0.327-0.045-0.474c0.578-2.61,1.536-5.201,1.658-7.831
				c0.15-3.215,1.774-5.276,3.869-7.373c3.812-3.816,7.485-7.773,11.165-11.72c3.981-4.27,8.092-8.439,11.782-12.951
				c2.303-2.814,4.829-3.6,8.166-2.829C197.697,225.598,198.43,225.466,199.419,225.466z"/>
			<path fill-rule="evenodd" clip-rule="evenodd" d="M130.196,319.136c0.834-3.069,1.683-5.949,2.396-8.863
				c1.55-6.337,3.108-12.674,4.519-19.042c1.396-6.305,2.461-12.686,3.993-18.956c0.578-2.371,2-4.55,3.133-6.767
				c2.007-3.927,4.05-7.836,6.166-11.706c0.479-0.877,1.309-1.563,1.977-2.338c-0.14,0.96-0.195,1.94-0.432,2.875
				c-1.613,6.385-3.269,12.76-4.902,19.14c-1.265,4.95-2.574,9.892-3.76,14.862c-1.537,6.441-2.887,12.928-4.5,19.35
				c-0.454,1.802-1.403,3.533-2.384,5.138c-1.36,2.225-2.943,4.313-4.489,6.418c-0.262,0.356-0.818,0.497-1.238,0.738
				C130.498,319.671,130.32,319.356,130.196,319.136z"/>
			<path fill-rule="evenodd" clip-rule="evenodd" d="M613.312,329.228c3.694,0,7.394-0.104,11.083,0.029
				c3.922,0.144,7.711-0.195,11.316-1.894c0.545-0.256,1.65-0.41,1.82-0.157c0.46,0.685,0.887,1.683,0.735,2.435
				c-0.564,2.779-2.444,4.411-5.088,5.374c-6.312,2.299-12.793,0.9-19.204,1.011c-2.439,0.042-4.899,0.236-7.309-0.021
				c-0.963-0.102-2.039-1.075-2.662-1.94c-0.74-1.028-0.962-2.415-1.568-3.56c-0.57-1.079-0.19-1.511,0.837-1.533
				c3.117-0.067,6.237-0.073,9.356-0.102c0.228-0.002,0.454,0,0.682,0C613.311,328.989,613.311,329.109,613.312,329.228z"/>
			<path fill-rule="evenodd" clip-rule="evenodd" d="M317.15,227.858c2.966-0.006,2.971-0.004,1.795,2.599
				c-3.708,8.208-7.421,16.416-11.13,24.625c-0.141,0.31-0.239,0.64-0.394,0.941c-0.443,0.862-0.907,1.715-1.362,2.571
				c-0.318-0.956-0.645-1.91-0.947-2.87c-0.084-0.269-0.035-0.589-0.15-0.836c-1.979-4.224,0.26-7.625,1.961-11.258
				c2.224-4.75,4.062-9.68,6.126-14.508c0.183-0.428,0.764-0.847,1.234-0.958C315.211,227.945,316.191,227.947,317.15,227.858z"/>
			<path fill-rule="evenodd" clip-rule="evenodd" d="M451.026,270.606c-0.729,3.34-1.252,6.242-2.006,9.082
				c-1.399,5.27-2.928,10.506-4.424,15.75c-0.1,0.351-0.374,0.651-0.567,0.975c-0.156-0.326-0.427-0.644-0.45-0.978
				c-0.176-2.485-0.404-4.974-0.418-7.462c-0.02-3.715-0.925-7.42,0.405-11.151c1.419-3.982,2.458-8.101,3.678-12.155
				c0.072-0.237,0.274-0.434,0.416-0.649c0.318,0.213,0.799,0.354,0.926,0.65C449.477,266.721,450.295,268.805,451.026,270.606z"/>
			<path fill-rule="evenodd" clip-rule="evenodd" d="M173.415,203.159c-0.639,0.292-1.041,0.626-1.405,0.59
				c-0.264-0.027-0.498-0.533-0.689-0.858c-0.022-0.039,0.358-0.444,0.477-0.411C172.267,202.61,172.707,202.848,173.415,203.159z"
				/>
			<path fill-rule="evenodd" clip-rule="evenodd" fill="#FFFFFF" d="M669.533,346.373c0.254,0.411,0.58,0.707,0.536,0.933
				c-0.046,0.242-0.529,0.635-0.666,0.578c-0.349-0.143-0.612-0.496-0.908-0.766C668.775,346.915,669.057,346.712,669.533,346.373z"
				/>
		</g>
	</g>
	<g id="_x33_o4fJN_1_">
		<g>
			<path fill-rule="evenodd" clip-rule="evenodd" fill="#FFFFFF" d="M153.19,250.588c-1.519,2.832-2.948,5.469-4.351,8.119
				c-4.078,7.7-8.193,15.381-12.198,23.118c-2.718,5.249-5.271,10.583-7.911,15.873c-0.532,1.063-1.137,2.093-1.695,3.146
				c-2.179,4.111-4.312,8.248-6.546,12.332c-1.363,2.493-2.952,4.864-4.31,7.36c-1.795,3.3-3.382,6.714-5.212,9.992
				c-1.986,3.559-4.208,6.985-6.214,10.532c-1.822,3.216-3.465,6.532-5.242,9.775c-1.333,2.435-2.829,4.783-4.119,7.242
				c-1.425,2.715-2.756,5.484-4.009,8.284c-0.595,1.33-1.445,1.949-2.884,1.904c-4.145-0.127-8.291-0.305-12.437-0.308
				c-5.354-0.005-10.708,0.15-16.062,0.219c-2.258,0.027-4.516,0.004-7.2,0.004c0.584-1.105,0.913-1.859,1.355-2.54
				c2.698-4.162,5.493-8.261,8.12-12.468c4.403-7.05,8.7-14.165,13.05-21.248c0.775-1.26,1.6-2.489,2.393-3.738
				c0.735-1.157,1.716-1.693,3.148-1.607c1.529,0.092,3.099,0.116,4.597-0.143c0.762-0.133,1.641-0.807,2.066-1.486
				c6.373-10.182,12.573-20.473,19.033-30.597c5.485-8.598,11.325-16.971,16.873-25.53c5.02-7.744,9.878-15.592,14.767-23.419
				c2.684-4.297,5.283-8.646,7.918-12.974c0.207-0.34,0.404-0.687,0.581-1.043c0.742-1.496,0.479-2.045-1.113-2.338
				c-2.284-0.421-2.312-0.543-1.098-2.59c1.19-2.008,2.347-4.039,3.451-6.096c0.684-1.274,1.578-1.947,3.106-1.933
				c5.586,0.051,11.173,0.04,16.761-0.013c1.546-0.015,2.261,0.686,2.191,2.139c-0.056,1.177-0.25,2.354-0.468,3.514
				c-0.199,1.062-0.591,2.089-0.766,3.153c-1.247,7.576-2.422,15.163-3.695,22.734c-0.952,5.661-2.008,11.305-3.04,16.952
				c-0.122,0.666-0.383,1.304-0.579,1.955c0.141,0.094,0.283,0.188,0.425,0.283c1.71-1.447,3.532-2.782,5.104-4.364
				c2.808-2.825,5.543-5.729,8.167-8.727c4.877-5.568,9.651-11.227,14.47-16.846c3.709-4.325,7.431-8.64,11.127-12.974
				c1.441-1.688,2.879-3.383,4.232-5.141c0.925-1.202,1.866-1.862,3.557-1.763c3.292,0.194,6.603,0.02,9.906,0.034
				c1.978,0.009,3.956,0.075,5.935,0.136c1.172,0.037,1.324,0.765,0.953,1.652c-1.388,3.308-2.79,6.613-4.268,9.881
				c-0.189,0.419-0.824,0.741-1.318,0.891c-0.526,0.16-1.13,0.066-1.7,0.073c-2.806,0.033-2.687,0.083-3.817,2.674
				c-3.235,7.41-6.577,14.774-9.875,22.155c-2.766,6.191-5.518,12.387-8.3,18.57c-3.414,7.588-6.911,15.138-10.262,22.753
				c-3.302,7.505-6.493,15.058-9.686,22.609c-5.033,11.903-10.033,23.821-15.032,35.74c-1.189,2.836-2.328,5.697-3.47,8.554
				c-1.703,4.258-2.661,4.834-7.206,4.409c-1.399-0.131-2.809-0.173-4.213-0.198c-5.131-0.099-10.262-0.154-15.392-0.264
				c-2.006-0.042-2.159-0.452-1.302-2.216c3.188-6.56,6.273-13.165,9.479-19.716c4.933-10.078,9.906-20.136,14.913-30.178
				c2.868-5.753,5.977-11.389,8.725-17.196c3.654-7.723,7.824-15.156,12.012-22.589c0.88-1.56,1.418-3.313,2.114-4.977
				c-0.178-0.089-0.356-0.178-0.534-0.267c-0.198,0.17-0.424,0.316-0.589,0.512c-5.24,6.233-10.508,12.443-15.701,18.714
				c-6.35,7.667-12.629,15.392-18.973,23.063c-0.382,0.462-1.063,0.676-1.604,1.006c-0.132-0.575-0.467-1.193-0.358-1.717
				c0.43-2.054,1.035-4.07,1.511-6.115c1.329-5.709,2.582-11.436,3.95-17.134c1.209-5.038,2.521-10.052,3.809-15.071
				c1.401-5.459,2.821-10.914,4.251-16.366c0.475-1.81,1.01-3.604,1.516-5.406C154.406,251.931,154.356,251.709,153.19,250.588z"/>
			<path fill-rule="evenodd" clip-rule="evenodd" fill="#FFFFFF" d="M221.039,327.07c-0.502-0.054-1.032-0.025-1.504-0.176
				c-3.468-1.112-7.009-0.565-10.511-0.375c-0.715,0.039-1.709,0.946-1.999,1.681c-0.954,2.423-1.637,4.952-2.435,7.437
				c-2.556,7.962-5.145,15.913-7.66,23.888c-0.835,2.65-1.529,5.35-2.208,8.045c-0.499,1.979-1.549,2.736-3.909,2.658
				c-7.499-0.245-14.999-0.482-22.499-0.719c-1.662-0.051-2.008-0.485-1.411-1.93c4.106-9.954,8.24-19.896,12.337-29.852
				c5.373-13.061,10.678-26.149,16.094-39.194c3.167-7.63,6.449-15.213,9.753-22.786c3.756-8.607,7.553-17.197,11.412-25.759
				c3.128-6.94,7.495-13.075,13.174-18.109c4.555-4.037,10.027-6.693,15.781-8.686c4.934-1.708,10.027-2.556,15.239-2.731
				c5.094-0.173,10.186-0.418,15.281-0.517c3.147-0.062,3.531,0.489,2.734,3.701c-1.111,4.479-2.389,8.917-3.467,13.403
				c-1.171,4.874-2.179,9.787-3.288,14.675c-0.995,4.382-2.072,8.746-3.04,13.135c-1.016,4.613-1.971,9.239-2.901,13.869
				c-1.311,6.52-2.589,13.047-3.847,19.578c-0.611,3.183-1.032,6.406-1.738,9.564c-1.201,5.374-2.59,10.705-3.841,16.066
				c-0.631,2.707-1.104,5.45-1.7,8.165c-1.316,6.002-2.696,11.989-3.984,17.997c-0.811,3.783-1.484,7.598-2.256,11.39
				c-0.556,2.731-1.119,5.464-1.784,8.171c-0.388,1.574-1.522,1.861-3.971,1.623c-3.321-0.324-6.657-0.51-9.991-0.658
				c-2.958-0.132-5.931-0.025-8.883-0.229c-2.074-0.142-2.194-0.403-1.613-2.345c2.35-7.86,4.779-15.696,7.119-23.56
				c1.541-5.179,2.958-10.396,4.481-15.579c0.305-1.04-0.069-1.379-1.008-1.426c-3.981-0.196-7.962-0.393-11.944-0.589
				C221.048,326.953,221.043,327.011,221.039,327.07z M220.603,285.383c2.497,0.28,4.673,0.641,6.862,0.746
				c5.742,0.277,11.492,0.413,17.235,0.679c1.121,0.052,1.707-0.326,2.016-1.346c0.595-1.959,1.244-3.903,1.824-5.867
				c4.214-14.288,8.396-28.585,12.638-42.865c1.004-3.378,0.749-3.941-2.749-3.411c-2.727,0.414-5.445,1.189-8.037,2.158
				c-5.63,2.106-10.86,4.914-14.477,9.972c-2.687,3.756-5.192,7.637-6.605,12.077c-0.738,2.318-1.084,4.762-1.836,7.076
				c-1.615,4.968-3.399,9.879-5.071,14.829C221.757,281.341,221.231,283.292,220.603,285.383z"/>
			<path fill-rule="evenodd" clip-rule="evenodd" fill="#FFFFFF" d="M459.051,286.546c-0.214,2.368-0.374,4.742-0.654,7.103
				c-0.528,4.45-1.262,8.88-1.666,13.341c-0.577,6.401-0.908,12.825-1.4,19.234c-0.2,2.59-0.573,5.165-0.821,7.75
				c-0.151,1.575-0.18,3.161-0.329,4.736c-0.646,6.843-1.325,13.683-1.971,20.525c-0.334,3.556-0.541,7.127-0.958,10.673
				c-0.255,2.187-0.765,2.565-2.882,2.515c-9.045-0.222-18.089-0.5-27.134-0.718c-1.251-0.03-1.708-0.509-1.674-1.751
				c0.158-5.524,0.258-11.05,0.383-16.576c0.094-4.1,0.265-8.2,0.274-12.302c0.008-3.414-0.173-6.83-0.267-10.244
				c-0.009-0.286-0.004-0.57-0.001-0.854c0.041-4.14,0.435-4.51,4.51-4.264c2.109,0.128,2.294-0.021,2.342-2.079
				c0.127-5.409,0.285-10.819,0.35-16.23c0.143-12.182,0.224-24.366,0.354-36.548c0.1-9.224,0.222-18.446,0.36-27.669
				c0.03-2.103,0.185-4.202,0.248-6.304c0.049-1.566-0.491-2.665-2.288-2.703c-0.395-0.009-0.786-0.148-1.182-0.17
				c-1.543-0.083-2.072-0.926-1.913-2.392c0.26-2.378,0.476-4.761,0.703-7.142c0.107-1.129,0.676-1.822,1.849-1.828
				c4.104-0.02,8.208-0.108,12.306,0.024c2.128,0.068,2.545,0.726,2.674,2.938c0.365,6.298,0.69,12.599,1.108,18.894
				c0.518,7.758,1.177,15.507,1.656,23.266c0.544,8.8,0.946,17.609,1.444,26.412c0.061,1.093,0.332,2.174,0.507,3.259
				c0.156,0.01,0.312,0.022,0.47,0.032c0.232-0.603,0.526-1.19,0.687-1.812c2.498-9.703,4.991-19.407,7.453-29.119
				c0.603-2.374,1.05-4.786,1.657-7.157c0.135-0.528,0.645-0.959,0.982-1.435c0.448,0.386,1.102,0.683,1.312,1.171
				c1.622,3.754,3.151,7.548,4.727,11.322c1.14,2.731,2.337,5.438,3.452,8.178c2.513,6.169,4.989,12.354,7.48,18.532
				c0.569,1.412,1.138,2.825,1.709,4.237c0.157-0.021,0.313-0.041,0.472-0.062c0-0.942,0.062-1.891-0.01-2.83
				c-0.787-10.271-1.542-20.546-2.424-30.811c-0.448-5.216-1.178-10.406-1.706-15.615c-0.386-3.792-0.582-7.604-0.992-11.393
				c-0.372-3.443-0.976-6.861-1.369-10.303c-0.225-1.972-0.323-3.971-0.275-5.953c0.012-0.467,0.833-1.3,1.297-1.311
				c3.701-0.085,7.407,0.025,11.11-0.008c1.187-0.011,1.752,0.423,2.005,1.575c0.596,2.719,1.332,5.409,1.917,8.131
				c0.493,2.295-0.073,3.106-2.376,3.187c-1.539,0.053-1.871,0.781-1.687,2.061c0.455,3.182,0.91,6.364,1.4,9.541
				c1.318,8.539,2.642,17.078,3.99,25.611c1.779,11.252,3.461,22.52,5.41,33.743c2.358,13.583,4.938,27.128,7.455,40.686
				c1.422,7.656,2.903,15.301,4.376,22.947c0.254,1.315-0.348,1.772-1.558,1.8c-4.327,0.097-8.654,0.228-12.98,0.316
				c-1.765,0.036-3.543-0.121-5.297,0.024c-1.854,0.154-2.442-0.742-2.797-2.379c-1.644-7.565-3.343-15.121-5.105-22.659
				c-1.932-8.251-3.815-16.516-5.975-24.707c-2.507-9.52-5.301-18.962-7.94-28.446c-0.474-1.699-0.762-3.447-1.208-5.153
				c-0.264-1.007-0.67-1.977-1.011-2.963C459.439,286.462,459.246,286.504,459.051,286.546z"/>
			<path fill-rule="evenodd" clip-rule="evenodd" fill="#FFFFFF" d="M772.686,376.851c-0.859,0.073-1.57,0.224-2.269,0.179
				c-4.481-0.292-8.962-0.604-13.438-0.958c-3.628-0.286-7.257-0.569-10.865-1.016c-0.853-0.105-1.881-0.661-2.396-1.339
				c-5.86-7.704-11.678-15.441-17.42-23.233c-3.616-4.909-7.095-9.918-10.612-14.898c-0.59-0.834-1.199-1.695-1.565-2.636
				c-0.508-1.311-1.303-1.734-2.703-1.761c-8.431-0.164-16.859-0.423-25.289-0.669c-1.055-0.031-2.105-0.184-3.159-0.28
				c-0.098,0.133-0.195,0.265-0.293,0.397c0.823,1.234,1.641,2.472,2.472,3.7c4.139,6.134,8.293,12.257,12.418,18.399
				c4.188,6.236,8.34,12.497,12.526,18.733c0.411,0.608,1.009,1.092,1.445,1.686c0.282,0.389,0.43,0.877,0.637,1.32
				c-0.49,0.198-0.976,0.555-1.472,0.572c-4.839,0.168-9.682,0.271-14.521,0.416c-1.48,0.042-2.976,0.316-4.43,0.168
				c-0.822-0.086-1.914-0.617-2.31-1.288c-2.896-4.898-5.604-9.909-8.456-14.835c-2.137-3.693-4.354-7.342-6.62-10.958
				c-3.869-6.173-7.884-12.257-11.693-18.466c-4.52-7.372-8.883-14.841-13.324-22.261c-1.784-2.981-3.59-5.949-5.398-8.916
				c-3.697-6.071-7.479-12.093-11.085-18.217c-5.695-9.671-11.379-19.351-16.838-29.156c-1.469-2.636-2.743-5.68-2.998-8.633
				c-0.602-6.976,2.555-12.205,9.264-14.833c5.394-2.113,10.909-1.324,16.4-1.298c3.748,0.018,7.496,0.447,11.245,0.464
				c2.493,0.011,3.777,1.546,5.079,3.234c5.626,7.291,11.036,14.75,17.408,21.444c1.908,2.004,3.338,4.455,5.071,6.636
				c4.177,5.258,8.404,10.476,12.61,15.711c3.918,4.875,7.827,9.757,11.754,14.628c3.642,4.52,7.326,9.008,10.943,13.548
				c4.182,5.249,8.265,10.576,12.479,15.797c2.68,3.321,5.541,6.496,8.282,9.77c2.304,2.749,4.551,5.545,6.824,8.32
				c3.709,4.528,7.454,9.029,11.119,13.595c1.85,2.304,3.499,4.767,5.345,7.074c2.095,2.62,4.331,5.129,6.462,7.72
				c3.073,3.736,6.109,7.504,9.151,11.266C772.562,376.096,772.554,376.298,772.686,376.851z M684.331,291.725
				c-0.5-1.257-0.726-2.142-1.174-2.895c-1.548-2.594-3.062-5.217-4.788-7.692c-6.71-9.625-13.461-19.223-20.268-28.781
				c-3.665-5.149-7.461-10.207-11.233-15.28c-0.309-0.415-0.861-0.853-1.34-0.902c-4.675-0.483-9.394-0.42-13.909,0.786
				c-3.419,0.912-6.541,4.737-4.78,8.567c1.044,2.271,2.087,4.573,3.433,6.667c3.601,5.602,7.422,11.062,11.046,16.648
				c4.523,6.974,8.959,14.004,13.374,21.046c0.787,1.254,1.712,1.798,3.197,1.792c7.128-0.03,14.256,0.021,21.384,0.042
				C680.834,291.729,682.4,291.725,684.331,291.725z"/>
			<path fill-rule="evenodd" clip-rule="evenodd" fill="#FFFFFF" d="M581.729,373.919c-4.042,0-8.085,0.054-12.124-0.063
				c-0.517-0.017-1.294-0.839-1.465-1.429c-2.098-7.221-4.101-14.468-6.136-21.706c-1.235-4.385-2.522-8.754-3.716-13.15
				c-0.667-2.459-1.164-4.963-1.791-7.432c-0.482-1.9-1.696-2.682-3.724-2.753c-6.421-0.223-12.835-0.667-19.254-0.937
				c-2.835-0.118-5.679-0.072-8.516-0.01c-1.535,0.034-2.396,1.028-2.013,2.471c0.428,1.613,1.166,3.143,1.772,4.709
				c0.121,0.312,0.301,0.611,0.371,0.935c0.812,3.758,1.504,7.546,2.435,11.275c1.874,7.511,3.875,14.992,5.829,22.485
				c0.3,1.149,0.654,2.287,0.925,3.442c0.254,1.091-0.257,1.645-1.354,1.626c-1.935-0.037-3.867-0.103-5.8-0.156
				c-3.417-0.095-6.835-0.146-10.249-0.303c-2.337-0.108-2.918-0.296-3.329-2.991c-0.916-6.007-2.396-11.927-3.54-17.902
				c-0.971-5.072-1.704-10.19-2.696-15.259c-2.646-13.519-5.495-26.998-8.041-40.534c-2.596-13.817-5.217-27.641-7.232-41.548
				c-0.789-5.444,0.659-11.017,3.349-15.991c1.39-2.569,2.399-5.348,4.74-7.417c2.947-2.604,6.282-4.167,10.104-4.509
				c6.346-0.568,12.71-0.916,19.069-1.319c1.699-0.108,3.416,0.014,5.111-0.139c1.717-0.156,2.495,0.755,2.997,2.174
				c2.788,7.891,5.596,15.775,8.361,23.674c0.468,1.335,0.663,2.768,1.158,4.09c1.697,4.518,3.511,8.991,5.208,13.509
				c2.455,6.529,4.837,13.087,7.272,19.625c4.785,12.854,9.606,25.698,14.372,38.562c2.218,5.983,4.188,12.065,6.544,17.992
				c3.242,8.15,6.745,16.196,10.133,24.29c0.396,0.945,0.773,1.899,1.149,2.854c0.526,1.336,0.018,1.956-1.368,1.958
				c-2.853,0-5.704,0-8.556,0C581.729,374.001,581.729,373.961,581.729,373.919z M545.526,293.059
				c-0.06-0.572-0.054-1.014-0.156-1.43c-0.609-2.486-1.254-4.963-1.864-7.449c-1.505-6.133-2.829-12.316-4.536-18.394
				c-2.585-9.198-5.447-18.318-8.16-27.48c-0.637-2.149-1.074-2.632-3.364-2.546c-3.866,0.145-7.743,0.256-11.586,0.669
				c-8.021,0.863-12.838,6.238-12.176,14.246c0.457,5.52,1.624,11.02,2.92,16.42c1.897,7.906,4.237,15.706,6.288,23.578
				c0.424,1.624,1.106,2.55,2.859,2.468c0.624-0.03,1.252,0.041,1.879,0.037c6.321-0.037,12.645-0.084,18.966-0.116
				C539.517,293.047,542.44,293.059,545.526,293.059z"/>
			<path fill-rule="evenodd" clip-rule="evenodd" fill="#FFFFFF" d="M336.854,342.108c-0.179,0.354-0.529,0.728-0.534,1.104
				c-0.052,4.655-0.055,9.31-0.069,13.966c-0.015,4.312-0.03,8.626-0.042,12.938c-0.003,1.359-0.898,1.547-1.971,1.52
				c-4.494-0.112-8.989-0.206-13.483-0.339c-3.074-0.09-6.147-0.338-9.219-0.313c-1.709,0.015-2.436-0.578-2.703-2.259
				c-1.116-7.026-2.347-14.035-3.507-21.054c-1.247-7.529-2.47-15.062-3.682-22.596c-0.257-1.598-0.42-3.21-0.625-4.815
				c-0.162-0.02-0.324-0.041-0.485-0.062c-0.195,0.418-0.42,0.825-0.582,1.257c-2.199,5.865-4.422,11.722-6.572,17.605
				c-1.733,4.749-3.362,9.537-5.061,14.3c-1.885,5.284-3.818,10.554-5.688,15.845c-0.665,1.881-2.227,1.983-3.766,1.951
				c-6.836-0.146-13.669-0.413-20.505-0.526c-1.598-0.026-1.848-0.718-1.583-2.008c1.638-7.969,3.351-15.923,4.88-23.911
				c0.613-3.2,0.725-6.492,1.259-9.71c0.251-1.513,1.104-2.918,1.43-4.428c0.849-3.928-0.025-4.056,5.095-3.891
				c1.419,0.045,2.85,0.316,4.249,0.188c0.763-0.069,1.77-0.577,2.145-1.201c1.109-1.848,1.983-3.842,2.909-5.798
				c3.606-7.613,7.192-15.236,10.795-22.849c1.728-3.649,3.341-7.363,5.268-10.905c1.102-2.026,0.759-4,0.482-5.975
				c-1.045-7.495-2.168-14.98-3.378-22.451c-0.591-3.644-1.499-7.237-2.148-10.873c-0.588-3.294-1.042-6.613-1.516-9.926
				c-0.229-1.593-0.962-2.667-2.654-2.839c-1.276-0.13-1.391-0.855-1.179-1.927c0.586-2.957,1.131-5.922,1.647-8.892
				c0.242-1.397,0.989-2.15,2.417-2.133c1.937,0.022,3.877,0.027,5.809,0.137c3.458,0.199,3.929,0.787,4.704,4.18
				c1.241,5.435,2.689,10.823,3.984,16.247c1.123,4.705,2.134,9.437,3.238,14.146c0.25,1.067,0.674,2.093,1.175,3.615
				c0.564-0.849,0.891-1.216,1.08-1.644c3.554-8.007,7.077-16.029,10.641-24.031c1.574-3.532,3.163-7.062,4.895-10.518
				c0.328-0.652,1.329-1.28,2.076-1.354c2.884-0.287,5.796-0.282,8.688-0.514c1.508-0.121,2.201,0.28,2.265,1.903
				c0.114,2.901,0.483,5.792,0.606,8.694c0.137,3.244-0.441,3.909-3.651,4.202c-1.945,0.177-3.046,1.043-3.685,2.925
				c-2.418,7.121-4.891,14.226-7.469,21.292c-2.458,6.733-5.042,13.422-7.639,20.104c-1.033,2.657-1.109,5.208-0.327,7.991
				c2.697,9.598,5.192,19.252,7.802,28.875c0.685,2.525,1.506,5.015,2.262,7.52c0.352,1.167,1.042,1.785,2.351,1.783
				c2.278-0.002,4.556,0.156,6.834,0.181c2.187,0.023,2.701,0.515,2.624,2.754c-0.117,3.355-0.279,6.713-0.342,10.07
				C336.381,340.458,336.687,341.261,336.854,342.108z"/>
			<path fill-rule="evenodd" clip-rule="evenodd" fill="#FFFFFF" d="M553.319,225.925c7.464,0,14.929,0.07,22.391-0.027
				c4.121-0.054,8.158,0.208,12.101,1.512c5.504,1.818,9.368,5.673,12.216,10.432c4.295,7.175,8.199,14.584,12.292,21.882
				c3.197,5.702,6.402,11.399,9.656,17.069c1.381,2.404,2.975,4.687,4.331,7.103c2.695,4.8,5.299,9.652,7.935,14.486
				c2.369,4.347,4.854,8.636,7.059,13.066c1.634,3.281,1.882,6.749,0.288,10.227c-1.486,3.243-3.793,5.621-7.282,6.429
				c-2.407,0.558-4.936,0.831-7.408,0.821c-6.838-0.025-13.673-0.267-20.51-0.419c-0.285-0.006-0.572-0.001-0.854,0.026
				c-2.296,0.241-2.616,0.641-1.689,2.721c1.329,2.984,2.863,5.877,4.229,8.846c3.855,8.382,7.645,16.797,11.519,25.171
				c1.1,2.373,2.436,4.637,3.59,6.987c0.278,0.566,0.269,1.275,0.394,1.919c-0.624,0.091-1.249,0.27-1.868,0.257
				c-5.794-0.114-11.587-0.344-17.378-0.365c-3.049-0.012-3.08,0.08-4.183-2.789c-5.047-13.127-10.032-26.279-15.214-39.353
				c-5.812-14.662-11.893-29.217-17.693-43.883c-2.508-6.34-4.552-12.862-6.907-19.265c-2.201-5.984-4.493-11.936-6.818-17.874
				c-2.863-7.312-5.802-14.594-8.703-21.891c-0.126-0.315-0.204-0.649-0.315-0.97c-0.762-2.198-0.121-2.356,2.005-2.552
				c2.255-0.208,4.546-0.047,6.821-0.047C553.319,225.604,553.319,225.765,553.319,225.925z M562,236.439
				c1.429,3.096,2.67,5.634,3.786,8.229c2.585,6.021,5.039,12.099,7.675,18.097c3.83,8.711,7.744,17.385,11.727,26.027
				c0.322,0.702,1.431,1.452,2.192,1.473c5.286,0.146,10.578,0.233,15.862,0.083c4.671-0.132,6.822-2.869,5.295-7.299
				c-2.02-5.85-4.481-11.568-7.084-17.188c-2.416-5.216-5.208-10.263-7.948-15.323c-2.175-4.015-5.293-7.245-8.901-10.022
				c-4.092-3.148-8.847-4.005-13.832-4.069C568.054,236.411,565.335,236.439,562,236.439z"/>
		</g>
	</g>
</g>
</svg>
