<?xml version="1.0" encoding="utf-8"?>
<!-- Generator: Adobe Illustrator 16.0.0, SVG Export Plug-In . SVG Version: 6.00 Build 0)  -->
<!DOCTYPE svg PUBLIC "-//W3C//DTD SVG 1.1//EN" "http://www.w3.org/Graphics/SVG/1.1/DTD/svg11.dtd">
<svg version="1.1" id="Layer_1" xmlns="http://www.w3.org/2000/svg" xmlns:xlink="http://www.w3.org/1999/xlink" x="0px" y="0px"
	 width="800px" height="600px" viewBox="0 0 800 600" enable-background="new 0 0 800 600" xml:space="preserve">
<path fill-rule="evenodd" clip-rule="evenodd" fill="#FFFFFF" d="M544.249,347.217c-2.812,0.447-4.369-0.959-5.334-3.719
	c-4.33-12.387-4.375-12.373-17.208-11.891c-0.824,0.031-1.648,0.064-2.473,0.09c-10.573,0.326-10.438,0.377-13.997,10.117
	c-0.604,1.65-2.769,3.436-4.508,3.818c-3.855,0.848-7.896,0.938-11.87,1.162c-3.184,0.18-4.62-1.359-3.841-4.611
	c5.441-22.691,10.854-45.389,16.342-68.068c1.127-4.663,2.604-9.24,3.788-13.889c0.945-3.715,3.674-5.437,6.987-5.003
	c1.751,0.229,3.89,2.326,4.696,4.105c3.622,8,6.868,16.17,10.177,24.31c6.199,15.253,12.328,30.537,18.527,45.789
	c1.654,4.066,3.54,8.037,5.185,12.105C552.245,345.303,550.274,347.036,544.249,347.217z M518.615,292.112
	c-0.443-0.004-0.887-0.008-1.329-0.012c-0.164,0.375-0.395,0.735-0.483,1.128c-1.525,6.657-3.103,13.305-4.416,20.004
	c-0.116,0.597,1.49,2.14,2.381,2.21c3.122,0.246,6.301,0.221,9.415-0.107c0.879-0.093,2.46-1.871,2.284-2.371
	C523.996,305.961,521.273,299.048,518.615,292.112z"/>
<path fill-rule="evenodd" clip-rule="evenodd" fill="#FFFFFF" d="M363.571,340.758c2.617-18.488,5.249-36.977,7.848-55.471
	c1.164-8.288,2.418-16.57,3.317-24.889c0.445-4.098,2.887-5.145,6.325-5.596c3.453-0.455,5.022,0.793,6.129,4.278
	c6.187,19.491,12.737,38.867,19.082,58.309c2.3,7.049,4.413,14.16,6.532,21.264c1.259,4.229,0.033,7.15-3.232,8.145
	c-2.993,0.912-5.31-0.775-6.835-4.893c-1.097-2.957-1.777-6.221-3.508-8.758c-3.78-5.543-9.331-1.15-14.039-1.754
	c-2.787-0.355-3.342,2.174-3.508,4.578c-0.169,2.455-0.661,4.891-0.882,7.346c-0.244,2.693-1.626,3.916-4.312,3.869
	c-2.195-0.039-4.397,0.17-6.588,0.061C364.148,346.963,363.869,346.6,363.571,340.758z M383.687,317.28
	c2.857,0,4.806,0.277,6.612-0.111c0.985-0.211,2.592-1.781,2.441-2.35c-1.398-5.312-3.117-10.537-4.744-15.789
	c-0.422,0.041-0.843,0.081-1.265,0.121C385.757,304.956,384.78,310.76,383.687,317.28z"/>
<path fill-rule="evenodd" clip-rule="evenodd" fill="#FFFFFF" d="M138.933,323.665c0.35,5.283,0.747,10.562,1.034,15.85
	c0.215,3.967-1.903,7.016-5.077,7.055c-3.755,0.045-4.997-2.242-5.435-5.807c-3.203-26.131-3.232-52.33-2.074-78.57
	c0.147-3.336,1.432-5.705,5.035-5.773c8.474-0.159,17.089-1.129,25.387,0.053c10.631,1.515,16.494,11.33,15.868,23.165
	c-0.668,12.601-8.361,20.78-17.265,28.25c-2.099,1.762-4.395,3.307-6.695,4.805c-2.248,1.461-2.251,2.824-0.272,4.511
	c4.895,4.175,9.791,8.349,14.591,12.632c1.937,1.729,3.693,3.678,5.406,5.639c2.308,2.645,2.026,5.184-0.503,7.605
	c-2.663,2.551-5.132,2.096-7.556-0.291c-5.19-5.109-10.336-10.264-15.578-15.318c-1.716-1.656-3.674-3.061-5.522-4.58
	C139.828,323.147,139.38,323.407,138.933,323.665z M137.48,290.623c0.203,4.518,0.413,9.037,0.61,13.554
	c0.103,2.334,1.245,3.097,3.17,1.752c7.69-5.376,14.941-11.19,18.486-20.339c1.808-4.669,0.576-8.316-4.217-9.259
	c-5.14-1.011-10.546-0.801-15.833-0.764c-0.748,0.004-2.042,2.004-2.119,3.145C137.312,282.664,137.475,286.646,137.48,290.623z"/>
<path fill-rule="evenodd" clip-rule="evenodd" fill="#FFFFFF" d="M75.748,347.792c-2.051,0.15-4.101,0.332-6.154,0.441
	c-2.951,0.16-4.035-1.303-3.387-4.105c4.78-20.594,9.532-41.193,14.383-61.769c1.732-7.351,3.831-14.617,5.527-21.976
	c0.711-3.086,2.505-3.97,5.326-3.882c2.758,0.087,4.803,0.431,5.741,3.882c2.987,10.985,6.664,21.783,9.651,32.769
	c3.313,12.175,6.121,24.487,9.238,36.716c0.743,2.922,1.971,5.717,2.745,8.633c0.749,2.818,0.74,5.77-2.487,7.018
	c-3.143,1.217-5.687-0.164-7.161-3.137c-1.155-2.32-1.868-4.877-3.158-7.105c-0.761-1.312-2.176-2.955-3.466-3.119
	c-3.795-0.486-7.705-0.613-11.506-0.232c-1.375,0.139-2.854,1.924-3.751,3.307c-0.684,1.051-0.497,2.658-0.749,4.01
	C85.012,347.477,84.216,348.114,75.748,347.792z M101.196,317.111c-1.789-6.438-3.506-12.62-5.226-18.8
	c-0.363,0.02-0.726,0.037-1.087,0.057c-1.013,4.051-2.324,8.055-2.976,12.164C90.602,318.766,91.871,319.688,101.196,317.111z"/>
<path fill="#FFFFFF" d="M432.629,313.407c0.465-0.195,0.928-0.391,1.393-0.588c1.709,2.207,3.472,4.373,5.118,6.623
	c5.106,6.969,9.898,14.193,15.383,20.85c2.22,2.693,5.681,4.789,8.999,6.037c3.994,1.5,8.297-2.406,7.938-6.338
	c-0.958-10.525-1.78-21.064-2.797-31.584c-1.583-16.395-3.229-32.785-4.967-49.163c-0.475-4.484-3.256-6.047-7.048-3.744
	c-1.363,0.827-2.497,3.33-2.428,5.013c0.492,11.804,1.341,23.592,2.036,35.389c0.07,1.213-0.121,2.44-0.189,3.661
	c-0.357,0.083-0.716,0.163-1.073,0.244c-1.002-1.555-2.012-3.104-3.005-4.666c-7.889-12.377-15.707-24.798-23.748-37.076
	c-0.849-1.292-3.493-2.8-4.428-2.357c-1.985,0.942-4.227,2.846-4.833,4.824c-0.804,2.625-0.265,5.705-0.091,8.575
	c0.675,11.109,1.49,22.209,2.146,33.32c0.729,12.342,1.232,24.697,2.051,37.033c0.331,4.969,2.755,7.266,6.423,6.938
	c3.548-0.316,5.387-3.252,4.986-8.027c-0.079-0.957-0.345-1.898-0.409-2.855C433.584,328.147,433.112,320.776,432.629,313.407z"/>
<path fill="#FFFFFF" d="M664.036,345.877c4.555-0.4,9.754-0.871,14.957-1.314c3.043-0.26,4.874-1.58,4.732-4.934
	c-0.176-4.102-0.071-8.223-0.416-12.309c-0.281-3.348-2.22-5.105-5.822-4.955c-5.903,0.244-11.811,0.359-17.719,0.41
	c-3.568,0.027-7.16,0.037-10.707-0.314c-5.712-0.568-7.382-3.357-8.764-12.33c-0.595-3.863,0.859-5.403,4.401-5.705
	c2.468-0.209,4.988-0.17,7.384-0.699c2.665-0.591,5.662-1.396,5.365-5.1c-0.299-3.723-3.109-4.572-6.204-4.595
	c-2.884-0.023-5.792,0.505-8.645,0.259c-1.22-0.104-3.087-1.374-3.34-2.43c-0.86-3.589-1.15-7.317-1.618-10.998
	c-0.349-2.736,0.787-4,3.659-4.151c5.072-0.268,10.144-0.722,15.188-1.307c5.181-0.601,10.357-1.301,15.484-2.243
	c4.114-0.756,6.092-3.333,5.585-7.705c-0.312-2.725-0.496-5.499-0.375-8.234c0.176-4.015-1.772-5.902-5.54-6.138
	c-1.911-0.12-3.85-0.009-5.766,0.141c-11.1,0.865-22.188,1.913-33.296,2.608c-6.077,0.381-7.25,0.762-7.061,6.851
	c0.283,9.183,1.105,18.368,2.17,27.498c0.494,4.236,1.21,7.746-4.112,9.428c-2.51,0.793-2.58,3.431-1.6,5.63
	c0.468,1.049,1.738,2.642,2.431,2.539c5.014-0.74,5.098,2.678,5.672,6.025c1.06,6.209,1.978,12.471,3.564,18.553
	c2.409,9.242,8.767,14.422,18.215,15.451C655.656,346.223,659.537,345.877,664.036,345.877z"/>
<path fill="#FFFFFF" d="M281.63,348.965c0.003-0.066,0.006-0.131,0.01-0.195c3.848,0,7.699-0.09,11.544,0.029
	c3.112,0.096,4.186-1.619,4.211-4.328c0.04-4.26,0.114-8.527-0.076-12.779c-0.233-5.162-2.332-6.918-7.594-7.094
	c-6.867-0.225-13.777-0.195-20.584-0.99c-8.103-0.945-12.828-9.889-9.509-17.41c0.413-0.936,2.09-1.758,3.235-1.836
	c3.142-0.213,6.371,0.381,9.448-0.09c2.092-0.321,4.64-1.45,5.764-3.066c0.87-1.248,0.571-4.567-0.513-5.614
	c-1.558-1.503-4.275-2.376-6.544-2.476c-11.738-0.513-11.578-0.386-10.743-11.972c0.269-3.734,1.588-5.078,5.236-5.056
	c6.326,0.039,12.664-0.046,18.968-0.493c2.901-0.206,6.524-0.642,7.067-4.435c0.679-4.745,0.81-9.577,1.008-14.378
	c0.143-3.445-1.729-5-5.154-4.825c-10.709,0.548-21.421,1.002-32.123,1.635c-3.277,0.193-5.253,1.854-5.274,5.549
	c-0.052,9.755-0.358,19.508-0.41,29.264c-0.013,2.828-0.959,4.585-3.874,4.712c-3.429,0.15-4.096,2.18-3.726,5.025
	c0.361,2.769-0.971,6.591,3.877,6.712c2.78,0.069,3.264,1.521,3.287,4.019c0.057,6.599,0.261,13.205,0.719,19.787
	c0.687,9.91,6.877,18.391,16.96,19.234C271.767,348.309,276.7,348.612,281.63,348.965z"/>
<path fill="#FFFFFF" d="M723.884,252.245c-4.872,0.505-11.646,0.738-18.216,2.01c-7.899,1.528-11.98,8.395-11.112,16.291
	c0.747,6.818,4.468,11.75,9.28,15.988c6.388,5.627,13.263,10.717,19.485,16.511c3.354,3.126,6.1,7.049,8.544,10.969
	c2.16,3.458,0.487,6.801-3.469,8.039c-1.428,0.449-2.959,0.756-4.446,0.771c-8.105,0.094-16.215,0.209-24.317,0.039
	c-3.892-0.082-5.572,1.609-5.679,5.287c-0.124,4.26-0.169,8.521-0.382,12.775c-0.172,3.463,1.244,5.129,4.801,5.047
	c6.046-0.141,12.123,0.178,18.133-0.328c5.298-0.445,10.749-1.092,15.734-2.805c14.277-4.904,19.624-22.354,10.186-34.047
	c-5.38-6.667-12.02-12.346-18.289-18.261c-3.493-3.295-7.457-6.087-11.054-9.281c-0.896-0.797-1.914-2.555-1.593-3.364
	c0.444-1.128,1.991-2.243,3.258-2.534c2.383-0.549,4.902-0.548,7.37-0.703c5.48-0.341,10.967-0.635,16.45-0.949
	c3.909-0.224,5.642-2.24,5.385-6.193c-0.195-3.016,0.047-6.061-0.146-9.077c-0.29-4.442-2.148-6.129-6.528-6.178
	C733.43,252.211,729.583,252.245,723.884,252.245z"/>
<path fill="#FFFFFF" d="M323.395,325.795c-0.004-0.135-0.007-0.271-0.01-0.406c-3.025,0-6.052,0.018-9.077-0.004
	c-5.003-0.037-5.647,0.453-5.499,5.289c0.132,4.246,0.726,8.482,0.838,12.73c0.078,2.861,1.445,3.986,4.071,3.98
	c8.247-0.018,16.522,0.352,24.733-0.211c7.812-0.535,13.82-6.602,15.618-14.312c1.619-6.949-0.961-12.854-5.013-18.047
	c-8.354-10.708-17.099-21.114-25.595-31.711c-3.416-4.259-2.532-6.542,2.94-7.733c2.129-0.463,4.362-0.488,6.556-0.608
	c3.842-0.21,7.701-0.219,11.534-0.532c4.891-0.402,6.148-1.85,6.303-6.825c0.074-2.339,0.049-4.679,0.083-7.018
	c0.06-4.207-1.27-5.961-5.576-5.773c-7.959,0.348-15.988,0.627-23.82,1.943c-10.312,1.732-14.425,8.921-11.886,19.115
	c2.471,9.92,8.628,17.583,15.052,25.196c4.938,5.851,9.607,11.995,13.764,18.421c2.308,3.566,0.895,5.467-3.484,5.895
	C331.1,325.557,327.24,325.604,323.395,325.795z"/>
<path fill="#FFFFFF" d="M596.854,320.072c0,0.044,0,0.085,0,0.13c-2.2,0-4.399-0.047-6.596,0.014c-2.336,0.064-4.666,0.314-7,0.339
	c-8.888,0.093-11.038-1.936-11.402-10.652c-0.226-5.354-0.28-10.724-0.691-16.062c-0.834-10.814-2.328-21.603-2.611-32.426
	c-0.143-5.438-2.238-6.474-7.399-5.035c-3.376,0.942-2.988,3.866-2.861,6.477c0.799,16.455,1.426,32.922,2.542,49.356
	c0.464,6.816,1.464,13.701,3.199,20.301c1.661,6.314,5.955,11.76,12.264,13.473c12.474,3.391,25.34,2.26,38.094,1.189
	c3.206-0.27,4.668-2.188,4.752-5.156c0.146-5.215,0.342-10.447,0.07-15.65c-0.228-4.367-3.122-6.424-7.519-6.322
	C606.75,320.159,601.802,320.072,596.854,320.072z"/>
<path fill="#FFFFFF" d="M210.747,252.777c0,0.106-0.001,0.214-0.001,0.322c-4.535,0-9.069-0.021-13.604,0.004
	c-12.912,0.07-14.488,1.68-14.562,14.813c-0.003,0.55-0.254,1.3,0.012,1.614c0.982,1.155,2.043,2.946,3.237,3.082
	c3.527,0.403,7.141,0.297,10.702,0.077c3.637-0.224,4.709,1.239,4.671,4.808c-0.215,19.645-0.246,39.295-0.247,58.942
	c0,2.162-0.024,4.725,1.066,6.365c1.078,1.619,3.589,3.178,5.416,3.117c1.398-0.047,3.039-2.482,3.951-4.186
	c0.642-1.203,0.323-2.965,0.303-4.475c-0.261-19.635-0.416-39.274-0.926-58.905c-0.108-4.108,1.3-5.383,5.079-5.453
	c4.653-0.085,9.346-0.21,13.925-0.93c1.695-0.267,3.866-1.966,4.508-3.547c1.424-3.5,2-7.342,2.955-11.036
	c0.859-3.334-0.707-4.614-3.832-4.615C225.847,252.775,218.298,252.777,210.747,252.777z"/>
<path fill-rule="evenodd" clip-rule="evenodd" fill="#FFFFFF" d="M432.629,313.407c0.482,7.369,0.955,14.74,1.457,22.107
	c0.064,0.957,0.33,1.898,0.409,2.855c0.4,4.775-1.438,7.711-4.986,8.027c-3.668,0.328-6.092-1.969-6.423-6.938
	c-0.818-12.336-1.322-24.691-2.051-37.033c-0.655-11.11-1.471-22.211-2.146-33.32c-0.174-2.871-0.713-5.95,0.091-8.575
	c0.606-1.978,2.848-3.882,4.833-4.824c0.935-0.443,3.579,1.064,4.428,2.357c8.041,12.277,15.859,24.698,23.748,37.076
	c0.993,1.561,2.003,3.111,3.005,4.666c0.357-0.081,0.716-0.161,1.073-0.244c0.068-1.221,0.26-2.448,0.189-3.661
	c-0.695-11.797-1.544-23.585-2.036-35.389c-0.069-1.683,1.064-4.186,2.428-5.013c3.792-2.303,6.573-0.74,7.048,3.744
	c1.738,16.378,3.384,32.769,4.967,49.163c1.017,10.52,1.839,21.059,2.797,31.584c0.358,3.932-3.944,7.838-7.938,6.338
	c-3.318-1.248-6.779-3.344-8.999-6.037c-5.484-6.656-10.276-13.881-15.383-20.85c-1.646-2.25-3.409-4.416-5.118-6.623
	C433.557,313.016,433.094,313.211,432.629,313.407z"/>
<path fill-rule="evenodd" clip-rule="evenodd" fill="#FFFFFF" d="M664.036,345.877c-4.499,0-8.38,0.346-12.176-0.066
	c-9.448-1.029-15.806-6.209-18.215-15.451c-1.587-6.082-2.505-12.344-3.564-18.553c-0.574-3.348-0.658-6.766-5.672-6.025
	c-0.692,0.103-1.963-1.49-2.431-2.539c-0.98-2.2-0.91-4.837,1.6-5.63c5.322-1.682,4.606-5.192,4.112-9.428
	c-1.064-9.13-1.887-18.315-2.17-27.498c-0.189-6.089,0.983-6.47,7.061-6.851c11.108-0.695,22.196-1.743,33.296-2.608
	c1.916-0.15,3.854-0.261,5.766-0.141c3.768,0.236,5.716,2.123,5.54,6.138c-0.121,2.735,0.062,5.509,0.375,8.234
	c0.507,4.372-1.471,6.949-5.585,7.705c-5.127,0.942-10.304,1.642-15.484,2.243c-5.044,0.585-10.115,1.04-15.188,1.307
	c-2.872,0.151-4.008,1.415-3.659,4.151c0.468,3.68,0.758,7.408,1.618,10.998c0.253,1.056,2.12,2.326,3.34,2.43
	c2.853,0.246,5.761-0.282,8.645-0.259c3.095,0.022,5.905,0.872,6.204,4.595c0.297,3.705-2.7,4.509-5.365,5.1
	c-2.396,0.529-4.916,0.49-7.384,0.699c-3.542,0.302-4.996,1.842-4.401,5.705c1.382,8.973,3.052,11.762,8.764,12.33
	c3.547,0.352,7.139,0.342,10.707,0.314c5.908-0.051,11.815-0.166,17.719-0.41c3.603-0.15,5.541,1.607,5.822,4.955
	c0.345,4.086,0.24,8.207,0.416,12.309c0.142,3.354-1.689,4.674-4.732,4.934C673.79,345.006,668.59,345.477,664.036,345.877z"/>
<path fill-rule="evenodd" clip-rule="evenodd" fill="#FFFFFF" d="M281.63,348.965c-4.931-0.354-9.864-0.656-14.79-1.068
	c-10.083-0.844-16.273-9.324-16.96-19.234c-0.458-6.582-0.663-13.188-0.719-19.787c-0.022-2.498-0.506-3.949-3.287-4.019
	c-4.848-0.121-3.516-3.943-3.877-6.712c-0.371-2.846,0.297-4.875,3.726-5.025c2.915-0.127,3.861-1.884,3.874-4.712
	c0.052-9.756,0.358-19.509,0.41-29.264c0.021-3.695,1.997-5.356,5.274-5.549c10.702-0.633,21.414-1.087,32.123-1.635
	c3.426-0.175,5.297,1.38,5.154,4.825c-0.198,4.801-0.329,9.633-1.008,14.378c-0.543,3.793-4.166,4.229-7.067,4.435
	c-6.304,0.447-12.642,0.532-18.968,0.493c-3.648-0.022-4.967,1.322-5.236,5.056c-0.835,11.586-0.995,11.458,10.743,11.972
	c2.269,0.1,4.987,0.972,6.544,2.476c1.084,1.046,1.382,4.366,0.513,5.614c-1.124,1.616-3.672,2.745-5.764,3.066
	c-3.077,0.471-6.306-0.123-9.448,0.09c-1.145,0.078-2.822,0.9-3.235,1.836c-3.319,7.521,1.406,16.465,9.509,17.41
	c6.808,0.795,13.717,0.766,20.584,0.99c5.262,0.176,7.36,1.932,7.594,7.094c0.19,4.252,0.116,8.52,0.076,12.779
	c-0.025,2.709-1.099,4.424-4.211,4.328c-3.845-0.119-7.696-0.029-11.544-0.029C281.636,348.834,281.633,348.899,281.63,348.965z"/>
<path fill-rule="evenodd" clip-rule="evenodd" fill="#FFFFFF" d="M723.884,252.245c5.698,0,9.546-0.034,13.395,0.009
	c4.38,0.048,6.238,1.736,6.528,6.178c0.193,3.016-0.049,6.061,0.146,9.077c0.257,3.953-1.476,5.969-5.385,6.193
	c-5.483,0.314-10.97,0.608-16.45,0.949c-2.468,0.154-4.987,0.153-7.37,0.703c-1.267,0.292-2.813,1.406-3.258,2.534
	c-0.321,0.809,0.696,2.567,1.593,3.364c3.597,3.194,7.561,5.986,11.054,9.281c6.27,5.916,12.909,11.594,18.289,18.261
	c9.438,11.693,4.092,29.143-10.186,34.047c-4.985,1.713-10.437,2.359-15.734,2.805c-6.01,0.506-12.087,0.188-18.133,0.328
	c-3.557,0.082-4.973-1.584-4.801-5.047c0.213-4.254,0.258-8.516,0.382-12.775c0.106-3.678,1.787-5.369,5.679-5.287
	c8.103,0.17,16.212,0.055,24.317-0.039c1.487-0.016,3.019-0.322,4.446-0.771c3.956-1.238,5.629-4.581,3.469-8.039
	c-2.444-3.92-5.189-7.843-8.544-10.969c-6.223-5.794-13.098-10.884-19.485-16.511c-4.812-4.238-8.533-9.17-9.28-15.988
	c-0.868-7.896,3.213-14.763,11.112-16.291C712.239,252.983,719.012,252.75,723.884,252.245z"/>
<path fill-rule="evenodd" clip-rule="evenodd" fill="#FFFFFF" d="M323.395,325.795c3.845-0.191,7.705-0.238,11.532-0.611
	c4.379-0.428,5.792-2.328,3.484-5.895c-4.156-6.426-8.825-12.57-13.764-18.421c-6.424-7.614-12.581-15.276-15.052-25.196
	c-2.539-10.194,1.573-17.383,11.886-19.115c7.832-1.316,15.861-1.596,23.82-1.943c4.307-0.188,5.636,1.566,5.576,5.773
	c-0.034,2.339-0.009,4.679-0.083,7.018c-0.154,4.975-1.412,6.423-6.303,6.825c-3.833,0.313-7.692,0.322-11.534,0.532
	c-2.193,0.12-4.427,0.145-6.556,0.608c-5.473,1.192-6.356,3.474-2.94,7.733c8.496,10.597,17.24,21.003,25.595,31.711
	c4.052,5.193,6.632,11.098,5.013,18.047c-1.798,7.711-7.806,13.777-15.618,14.312c-8.211,0.562-16.486,0.193-24.733,0.211
	c-2.626,0.006-3.993-1.119-4.071-3.98c-0.112-4.248-0.706-8.484-0.838-12.73c-0.148-4.836,0.496-5.326,5.499-5.289
	c3.025,0.021,6.052,0.004,9.077,0.004C323.388,325.524,323.391,325.661,323.395,325.795z"/>
<path fill-rule="evenodd" clip-rule="evenodd" fill="#FFFFFF" d="M596.854,320.072c4.948,0,9.896,0.087,14.841-0.026
	c4.396-0.102,7.291,1.955,7.519,6.322c0.271,5.203,0.076,10.436-0.07,15.65c-0.084,2.969-1.546,4.887-4.752,5.156
	c-12.754,1.07-25.62,2.201-38.094-1.189c-6.309-1.713-10.603-7.158-12.264-13.473c-1.735-6.6-2.735-13.484-3.199-20.301
	c-1.116-16.434-1.743-32.901-2.542-49.356c-0.127-2.611-0.515-5.535,2.861-6.477c5.161-1.438,7.257-0.403,7.399,5.035
	c0.283,10.823,1.777,21.611,2.611,32.426c0.411,5.339,0.466,10.708,0.691,16.062c0.364,8.717,2.515,10.745,11.402,10.652
	c2.334-0.024,4.664-0.274,7-0.339c2.196-0.061,4.396-0.014,6.596-0.014C596.854,320.157,596.854,320.116,596.854,320.072z"/>
<path fill-rule="evenodd" clip-rule="evenodd" fill="#FFFFFF" d="M210.747,252.777c7.551,0,15.1-0.002,22.651,0
	c3.125,0,4.691,1.28,3.832,4.615c-0.955,3.694-1.531,7.536-2.955,11.036c-0.642,1.581-2.813,3.28-4.508,3.547
	c-4.579,0.72-9.272,0.845-13.925,0.93c-3.779,0.069-5.187,1.345-5.079,5.453c0.51,19.631,0.665,39.27,0.926,58.905
	c0.02,1.51,0.339,3.271-0.303,4.475c-0.913,1.703-2.553,4.139-3.951,4.186c-1.827,0.061-4.338-1.498-5.416-3.117
	c-1.09-1.641-1.066-4.203-1.066-6.365c0.001-19.646,0.032-39.297,0.247-58.942c0.039-3.569-1.034-5.032-4.671-4.808
	c-3.561,0.22-7.175,0.326-10.702-0.077c-1.194-0.136-2.255-1.927-3.237-3.082c-0.266-0.314-0.015-1.064-0.012-1.614
	c0.074-13.133,1.65-14.744,14.562-14.813c4.535-0.024,9.069-0.004,13.604-0.004C210.746,252.992,210.747,252.884,210.747,252.777z"
	/>
</svg>
