<?xml version="1.0" encoding="utf-8"?>
<!-- Generator: Adobe Illustrator 16.0.0, SVG Export Plug-In . SVG Version: 6.00 Build 0)  -->
<!DOCTYPE svg PUBLIC "-//W3C//DTD SVG 1.1//EN" "http://www.w3.org/Graphics/SVG/1.1/DTD/svg11.dtd">
<svg version="1.1" id="Layer_1" xmlns="http://www.w3.org/2000/svg" xmlns:xlink="http://www.w3.org/1999/xlink" x="0px" y="0px"
	 width="800px" height="600px" viewBox="0 0 800 600" enable-background="new 0 0 800 600" xml:space="preserve">
<g id="Layer_2">
	<polygon fill="#FFFFFF" points="331.288,198.421 285.321,198.421 279.788,234.173 315.965,234.173 317.242,243.962 
		279.788,243.962 276.809,257.582 341.077,257.582 334.268,221.831 301.494,221.831 301.494,212.041 333.416,212.041 	"/>
	<path fill="#FFFFFF" d="M358.714,257.37l10.215-57.884h46.392l7.661,57.884h-21.706l-0.853-12.769h-18.302l-0.851,12.769H358.714z
		 M400.425,231.833l-2.554-18.727h-11.917l-2.979,18.727H400.425z"/>
	<polygon fill="#FFFFFF" points="443.944,256.944 455.861,199.911 472.886,199.911 485.655,218.638 483.527,199.911 
		500.977,199.911 508.212,256.944 485.655,256.944 470.333,228.428 466.076,256.944 	"/>
	<polygon fill="#FFFFFF" points="135.879,374.195 146.945,315.033 193.763,315.033 197.168,328.228 163.119,328.228 
		162.267,339.293 197.168,338.016 199.722,351.636 160.99,351.636 159.713,363.128 199.722,363.128 202.275,375.045 	"/>
	<path fill="#FFFFFF" d="M221.968,375.896l11.917-61.715h47.669l1.702,23.834l-8.086,7.023l11.491,8.299l3.406,22.559H221.968
		L221.968,375.896z M248.781,338.443h11.492l4.257-4.258v-5.532h-15.749V338.443z M247.079,362.277h17.451v-3.404l-7.874-8.125
		h-9.577V362.277L247.079,362.277z"/>
	<polygon fill="#FFFFFF" points="478.807,327.375 480.934,314.182 528.604,314.182 531.583,327.375 512.856,327.375 
		517.963,375.896 497.108,375.896 498.81,328.228 	"/>
	<polygon fill="#FFFFFF" points="569.992,312.692 564.458,376.534 586.166,376.534 581.483,312.692 	"/>
	<polygon fill="#FFFFFF" points="104.81,315.033 58.843,315.033 53.31,350.785 89.487,350.785 90.764,360.574 53.31,360.574 
		50.331,374.195 114.599,374.195 107.789,338.443 75.016,338.443 75.016,328.652 106.938,328.652 	"/>
	<path fill="#FFFFFF" d="M309.946,373.981l10.215-57.884h46.393l7.661,57.884h-21.707l-0.852-12.769h-18.301l-0.852,12.769H309.946z
		 M351.656,348.445l-2.554-18.729h-11.917l-2.98,18.729H351.656z"/>
	<polygon fill="#FFFFFF" points="446.99,315.033 401.024,315.033 395.489,350.785 431.667,350.785 432.944,360.574 395.489,360.574 
		392.511,374.195 456.778,374.195 449.968,338.443 417.197,338.443 417.197,328.652 449.117,328.652 	"/>
	<path fill="#FFFFFF" d="M612.983,373.981l10.215-57.884h46.394l7.661,57.884h-21.706l-0.852-12.769h-18.303l-0.852,12.769H612.983z
		 M654.695,348.445l-2.555-18.729h-11.917l-2.979,18.729H654.695z"/>
	<polygon fill="#FFFFFF" points="698.213,373.557 710.129,316.523 727.154,316.523 739.922,335.25 737.795,316.523 755.245,316.523 
		762.481,373.557 739.922,373.557 724.6,345.04 720.344,373.557 	"/>
</g>
</svg>
