<?xml version="1.0" encoding="utf-8"?>
<!-- Generator: Adobe Illustrator 16.0.0, SVG Export Plug-In . SVG Version: 6.00 Build 0)  -->
<!DOCTYPE svg PUBLIC "-//W3C//DTD SVG 1.1//EN" "http://www.w3.org/Graphics/SVG/1.1/DTD/svg11.dtd">
<svg version="1.1" id="Layer_1" xmlns="http://www.w3.org/2000/svg" xmlns:xlink="http://www.w3.org/1999/xlink" x="0px" y="0px"
	 width="800px" height="600px" viewBox="0 0 800 600" enable-background="new 0 0 800 600" xml:space="preserve">
<g id="_x32_E0mAs_1_">
	<g>
		<path fill="#FFFFFF" d="M797.104,270.146c-0.144,0.289-0.436,0.596-0.403,0.863c0.161,1.277-0.64,2.011-1.495,2.632
			c-0.895,0.649-1.951,0.422-2.977,0.239c-1.69-0.3-3.383-0.604-5.082-0.823c-1.985-0.254-3.734,0.643-5.495,1.337
			c-1.168,0.46-2.273,0.429-3.403,0.044c-1.09-0.372-2.1-0.898-3.118-1.457c-1.562-0.855-3.266-1.626-5-1.945
			c-1.757-0.321-3.65-0.241-5.436,0.01c-2.075,0.291-4.215,2.3-3.641,4.856c0.273,1.215,0.619,2.094,1.775,2.897
			c1.582,1.105,3.19,1.727,5.034,1.616c1.691-0.101,3.02,0.856,4.523,1.275c1.242,0.346,2.413,0.948,3.634,1.382
			c3.729,1.325,7.058,3.32,9.815,6.156c1.844,1.896,3.017,4.221,3.603,6.829c0.093,0.417,0.341,0.854,0.642,1.156
			c0.567,0.565,0.816,1.179,0.859,1.982c0.037,0.722,0.19,1.488,0.504,2.132c0.4,0.826,0.623,1.637,0.595,2.549
			c-0.087,2.845-0.129,5.688-0.242,8.53c-0.023,0.538-0.229,1.104-0.477,1.594c-0.808,1.615-1.707,3.188-2.519,4.801
			c-0.987,1.963-2.695,3.271-4.201,4.765c-0.166,0.162-0.36,0.296-0.524,0.459c-2.253,2.233-5.062,3.351-8.057,4.188
			c-1.329,0.37-2.553,1.1-3.966,1.26c-0.641,0.069-1.269,0.264-1.9,0.406c-1.808,0.403-3.633,0.757-5.425,1.234
			c-1.12,0.297-1.523,1.007-1.514,2.146c0.006,0.695,0.006,1.395-0.048,2.089c-0.079,1.024-0.553,1.301-1.501,0.923
			c-0.258-0.104-0.561-0.185-0.749-0.372c-1.164-1.164-2.615-1.075-4.074-0.972c-1.671,0.118-2.374-0.313-3.006-1.849
			c-0.295-0.73-1.044-0.931-1.762-0.47c-1.436,0.925-1.763,0.935-2.995-0.279c-0.849-0.834-1.716-1.312-2.971-1.186
			c-1.121,0.113-1.703-0.433-1.936-1.569c-0.124-0.591-0.091-1.212-0.207-1.807c-0.197-1.024-0.933-1.354-1.871-0.878
			c-0.123,0.061-0.227,0.164-0.341,0.243c-1.8,1.166-2.748,0.734-2.992-1.393c-0.053-0.453-0.01-0.937,0.092-1.388
			c0.582-2.586,0.096-4.981-1.232-7.232c-0.727-1.229-1.217-2.484-1.112-3.97c0.092-1.342-0.015-2.697-0.02-4.047
			c-0.002-1.538,0.565-2.838,1.36-4.17c1.141-1.913,2.715-3.317,4.506-4.475c1.186-0.765,2.594-1.184,3.904-1.753
			c0.08-0.035,0.202-0.062,0.272-0.027c1.289,0.641,2.558-0.048,3.836-0.067c1.893-0.032,3.589,0.544,5.095,1.617
			c1.007,0.717,2.063,1.323,2.942,2.298c0.976,1.076,1.621,2.335,2.109,3.546c1.023,2.556,1.503,5.265,0.66,8.06
			c-0.775,2.573-3.942,5.431-6.752,5.107c-0.911-0.107-1.819-0.239-2.73-0.353c-0.321-0.041-0.652-0.114-0.966-0.074
			c-0.12,0.018-0.33,0.384-0.281,0.466c0.38,0.67,0.656,1.365,1.502,1.738c1.871,0.824,3.779,1.137,5.815,1.188
			c2.44,0.059,4.797-0.077,6.963-1.283c1.82-1.014,3.625-2.085,5.037-3.648c0.704-0.78,1.241-1.716,1.843-2.589
			c0.105-0.153,0.109-0.414,0.24-0.494c1.482-0.924,1.295-2.474,1.464-3.878c0.084-0.696,0.158-1.396,0.141-2.093
			c-0.017-0.69-0.09-1.394-0.254-2.064c-0.187-0.762-0.496-1.495-0.763-2.239c-0.098-0.259-0.178-0.547-0.35-0.752
			c-0.747-0.888-1.485-1.781-2.294-2.61c-2.152-2.203-4.872-3.56-7.64-4.728c-1.145-0.482-2.346-0.807-3.392-1.525
			c-0.212-0.147-0.509-0.205-0.776-0.244c-1.615-0.225-3.146-0.645-4.588-1.474c-1.192-0.688-2.493-1.184-3.758-1.741
			c-1.228-0.54-2.912-0.238-3.836,0.813c-0.909,1.036-2.008,0.894-3.085,0.619c-0.778-0.199-1.22-0.884-1.204-1.713
			c0.017-0.836,0.103-1.675,0.214-2.504c0.193-1.434-0.229-1.892-1.679-1.78c-0.649,0.05-1.304,0.092-1.955,0.069
			c-0.624-0.023-1.386,0.164-1.693-0.646c-0.322-0.846-0.515-1.716,0.106-2.534c0.196-0.259,0.441-0.485,0.614-0.76
			c0.35-0.549,0.738-1.091,0.964-1.693c0.122-0.321,0.047-0.818-0.13-1.126c-0.248-0.431-0.687-0.304-1.113-0.119
			c-0.628,0.273-1.273,0.553-1.94,0.675c-0.731,0.134-1.595,0.193-1.958-0.662c-0.347-0.82-0.519-1.743,0.076-2.544
			c0.58-0.782,1.261-1.492,1.868-2.256c0.312-0.389,0.653-0.795,0.812-1.251c0.296-0.849,0.026-1.395-0.835-1.591
			c-1.002-0.228-1.776-0.632-1.898-1.734c-0.122-1.117,0.639-2.229,1.752-2.796c0.991-0.505,1.966-1.046,2.926-1.613
			c0.394-0.233,0.771-0.533,1.081-0.871c0.724-0.79,0.641-1.834-0.146-2.531c-0.315-0.277-0.643-0.546-0.93-0.851
			c-1.21-1.298-0.949-2.02,0.33-3.155c1.535-1.363,3.434-1.253,5.168-1.743c1.272-0.359,2.368-0.859,3.105-1.934
			c0.544-0.792,1.194-1.052,2.128-1c1.49,0.084,2.992,0.108,4.483,0.03c0.548-0.028,1.166-0.307,1.597-0.663
			c1.205-1.01,1.575-1.132,2.998-0.383c0.396,0.211,0.686,0.422,1.119,0.103c0.169-0.125,0.458-0.181,0.668-0.139
			c1.148,0.229,2.205,0.207,2.96-0.875c0.021-0.035,0.071-0.056,0.114-0.073c0.57-0.229,3.554,0.456,3.933,0.955
			c0.669,0.888,1.373,1.771,1.909,2.738c0.466,0.84,1.235,1.238,2.005,1.393c1.978,0.395,3.99,0.392,5.917-0.342
			c0.508-0.193,1.033-0.504,1.386-0.908c0.583-0.67,1.267-0.897,2.104-0.881c0.657,0.013,1.31-0.034,1.962-0.005
			c1.11,0.049,1.603,0.546,1.67,1.657c0.022,0.323,0.041,0.673-0.057,0.974c-0.461,1.409-0.108,2.762,0.216,4.122
			c0.032,0.137,0.027,0.316,0.115,0.398c1.028,0.984,2.062,1.96,3.117,2.916c0.158,0.145,0.464,0.126,0.631,0.268
			c1.482,1.218,3.359,1.54,5.063,2.255c0.211,0.089,0.458,0.232,0.66,0.197c1.736-0.297,2.863,0.863,4.135,1.682
			C797.098,269.399,797.1,269.773,797.104,270.146z M752.217,309.845c-0.018-1.34-0.981-2.239-2.453-2.282
			c-2.415-0.068-4.327,2.27-3.65,4.466c0.32,1.036,0.674,1.129,1.609,0.6c0.494-0.284,1.091-0.403,1.654-0.546
			c0.356-0.092,0.742-0.067,1.109-0.133C751.768,311.726,752.232,311.153,752.217,309.845z M780.808,317.012
			c-0.034-0.851-0.464-1.308-1.166-1.248c-0.575,0.05-1.058,0.581-0.822,1.186c0.183,0.469-0.212,1.372,0.693,1.388
			C780.307,318.351,780.835,317.716,780.808,317.012z M778.416,300.001c0.178,0.76,0.313,1.396,0.479,2.023
			c0.039,0.159,0.232,0.425,0.266,0.409c0.206-0.072,0.438-0.18,0.556-0.348c0.482-0.717,0.001-1.939-0.911-2.299
			C778.714,299.75,778.535,299.933,778.416,300.001z M781.108,307.972c-0.149-0.161-0.25-0.3-0.38-0.394
			c-0.023-0.018-0.27,0.176-0.256,0.233c0.041,0.154,0.165,0.286,0.256,0.428C780.832,308.166,780.933,308.094,781.108,307.972z
			 M774.332,294.797c-0.108-0.225-0.182-0.375-0.252-0.525c-0.1,0.111-0.267,0.216-0.276,0.335c-0.015,0.15,0.102,0.312,0.16,0.468
			C774.078,294.989,774.192,294.902,774.332,294.797z"/>
		<path fill="#FFFFFF" d="M415.525,326.529c-2.928-0.163-5.855-0.321-8.783-0.494c-0.275-0.016-0.58-0.048-0.812-0.18
			c-0.786-0.444-1.501-0.362-2.208,0.154c-0.504,0.37-0.951,0.208-1.39-0.166c-0.992-0.857-1.418-2.057-1.844-3.215
			c-0.418-1.13-0.609-2.341-0.95-3.503c-0.238-0.806-0.784-1.235-1.638-1.527c-1.027-0.353-2.042-0.919-2.87-1.62
			c-0.97-0.82-0.889-2.846-0.012-4.029c0.333-0.448,0.743-0.839,1.112-1.259c0.541-0.623,0.655-1.328,0.356-2.092
			c-0.592-1.519-1.257-3.013-1.771-4.556c-0.544-1.635-0.958-3.313-1.408-4.979c-0.316-1.168-0.537-2.367-0.911-3.517
			c-0.211-0.646-0.619-1.236-1.006-1.805c-0.079-0.116-0.598-0.124-0.67-0.017c-0.199,0.292-0.294,0.665-0.381,1.019
			c-0.397,1.62-0.818,3.235-1.152,4.869c-0.457,2.238-0.868,4.485-1.23,6.741c-0.056,0.352,0.214,0.782,0.397,1.145
			c0.251,0.497,0.604,0.945,0.842,1.448c0.996,2.084,0.224,4.266-1.93,5.056c-0.896,0.328-1.281,0.866-1.476,1.663
			c-0.285,1.176-0.526,2.36-0.791,3.541c-0.405,1.815-0.792,3.635-1.228,5.442c-0.225,0.934-1.215,1.609-2.122,1.451
			c-2.499-0.43-5.001-0.09-7.503-0.077c-2.647,0.01-5.31,0.171-7.94-0.057c-1.677-0.147-3.303-0.406-4.958,0.031
			c-0.132,0.035-0.301,0.056-0.416,0.002c-1.553-0.711-3.159-0.478-4.761-0.277c-0.41,0.054-0.83,0.115-1.217,0.251
			c-0.606,0.212-0.879-0.021-0.98-0.595c-0.156-0.895-0.067-1.729,0.319-2.586c0.335-0.744,0.413-1.597,0.643-2.392
			c0.419-1.447,0.112-3.07,1.081-4.395c0.176-0.236,0.153-0.622,0.217-0.939c0.362-1.773,0.724-3.549,1.087-5.321
			c0.057-0.275,0.227-0.57,0.169-0.814c-0.215-0.919-0.108-1.753,0.444-2.527c0.052-0.069,0.088-0.178,0.079-0.263
			c-0.26-2.382,1.174-4.472,1.153-6.832c-0.008-0.944,0.433-1.891,0.645-2.841c0.395-1.769,0.761-3.545,1.163-5.314
			c0.47-2.073,0.979-4.138,1.444-6.212c0.478-2.124,0.906-4.258,1.386-6.381c0.874-3.857,1.793-7.703,2.648-11.562
			c0.544-2.458,0.993-4.936,1.507-7.399c0.347-1.669,0.896-2.116,2.542-2.176c2.565-0.091,5.13-0.207,7.697-0.268
			c0.835-0.019,1.672,0.143,2.51,0.154c1.199,0.015,1.44-0.289,1.167-1.421c-0.218-0.908-0.428-1.823-0.736-2.703
			c-0.788-2.238-0.612-4.494-0.196-6.754c0.331-1.799,1.215-3.317,2.494-4.613c0.229-0.231,0.503-0.454,0.641-0.736
			c0.78-1.591,2.304-2.079,3.796-2.604c2.155-0.759,4.336-0.7,6.453,0.069c1.423,0.517,2.621,1.486,3.427,2.76
			c2.126,3.37,2.268,7.094,1.039,10.703c-1.415,4.15-2.209,8.356-1.707,12.656c0.441,3.78,1.246,7.555,3.213,10.937
			c0.349,0.604,0.678,1.224,0.953,1.864c0.899,2.097,2.52,3.449,4.542,4.343c1.396,0.616,2.665,1.336,3.356,2.786
			c0.118,0.248,0.308,0.474,0.505,0.667c0.661,0.64,1.307,0.619,1.911-0.072c0.431-0.492,0.754-1.098,1.249-1.506
			c0.856-0.707,1.752-1.408,2.729-1.92c2.34-1.223,3.813-3.08,4.979-5.441c1.327-2.692,1.881-5.541,2.551-8.398
			c0.426-1.814,0.857-3.603,0.859-5.486c0.002-1.522-0.503-2.858-1.333-4.054c-1.706-2.47-2.669-5.271-3.36-8.11
			c-0.57-2.336,0.054-4.673,0.938-6.959c0.936-2.416,2.759-4.053,4.429-5.847c0.583-0.628,1.344-0.984,2.246-1.003
			c0.558-0.011,1.115-0.106,1.669-0.179c2.424-0.319,4.628,0.115,6.502,1.799c0.271,0.246,0.642,0.376,0.949,0.583
			c1.809,1.208,2.665,3,3.306,5.016c0.787,2.471,0.225,4.813-0.451,7.134c-0.333,1.143-1.023,2.184-1.576,3.257
			c-0.276,0.539-0.662,1.027-0.9,1.581c-0.349,0.821,0.066,1.494,0.937,1.645c0.045,0.009,0.093,0.01,0.14,0.011
			c2.745,0.039,5.491,0.084,8.236,0.113c1.397,0.016,2.796-0.013,4.194,0.017c0.821,0.017,1.369,0.603,1.641,1.645
			c0.177,0.674,0.305,1.366,0.533,2.021c0.84,2.408,1.745,4.793,2.559,7.209c0.297,0.877,0.355,1.832,0.619,2.722
			c0.262,0.888,0.649,1.738,0.977,2.606c0.081,0.215,0.168,0.433,0.219,0.656c0.676,2.948,1.343,5.898,2.016,8.847
			c0.979,4.272,1.906,8.557,2.954,12.812c0.619,2.53,1.43,5.014,2.143,7.523c0.356,1.251,0.676,2.511,1.026,3.761
			c0.64,2.288,1.303,4.566,1.931,6.854c0.663,2.424,1.222,4.881,1.971,7.277c0.326,1.042,0.932,2.026,1.559,2.935
			c0.693,1.002,2.166,1.076,3.104,0.295c1.076-0.902,1.757-2.028,1.943-3.442c0.064-0.456-0.089-1.12,0.853-0.648
			c0.563,0.282,0.784-0.427,0.803-0.852c0.018-0.361-0.117-0.972-0.712-0.763c-0.9,0.316-0.857-0.271-0.819-0.783
			c0.152-1.994-0.086-3.911-1.01-5.713c-0.064-0.121-0.11-0.268-0.112-0.402c-0.033-1.644-0.539-3.142-1.077-4.695
			c-0.636-1.834-0.1-3.909-0.632-5.851c-0.138-0.499,0.216-1.181,0.461-1.727c0.474-1.058,0.975-2.111,1.572-3.103
			c0.397-0.665,0.96-1.243,1.507-1.803c0.133-0.139,0.488-0.06,0.746-0.082c-0.038,0.213-0.016,0.464-0.123,0.631
			c-0.329,0.51-0.704,0.988-1.068,1.475c-0.713,0.953-1.213,1.954-1.162,3.21c0.068,1.671,0.021,3.348,0.023,5.022
			c0,0.093,0.044,0.2,0.01,0.275c-0.222,0.492-0.46,0.978-0.693,1.462c0.548,0.191,0.966,0.479,1.165,1.082
			c0.854,2.561,1.903,5.069,2.572,7.675c0.696,2.709,0.424,5.505-0.578,8.099c-0.672,1.745-2.178,2.898-3.978,3.521
			c-0.356,0.119-0.812-0.021-1.221-0.064c-0.46-0.046-0.935-0.231-1.376-0.163c-3.835,0.586-7.715-0.248-11.544,0.387
			c-0.45,0.075-0.935,0.024-1.394-0.043c-1.973-0.287-3.937-0.608-5.903-0.898c-0.27-0.036-0.554,0.043-0.831,0.056
			c-1.258,0.043-2.517,0.074-3.773,0.118c-0.686,0.023-1.383,0.155-2.054,0.073c-0.88-0.106-1.862-0.177-2.564-0.633
			c-0.511-0.333-0.819-1.238-0.895-1.927c-0.159-1.37-1.312-2.125-1.771-3.287c-0.037-0.101-0.229-0.195-0.354-0.199
			c-1.587-0.04-2.545-1.298-3.766-2.014c-0.53-0.312-0.941-1.028-1.151-1.647c-0.622-1.868-0.26-3.604,1.087-5.072
			c0.599-0.653,0.582-1.379,0.296-2.091c-0.539-1.334-1.169-2.63-1.752-3.949c-0.841-1.915-1.835-3.767-2.114-5.896
			c-0.081-0.623-0.507-1.197-0.723-1.812c-0.391-1.096-0.709-2.219-1.131-3.303c-0.138-0.354-0.504-0.619-0.765-0.924
			c-0.27,0.292-0.675,0.538-0.789,0.881c-0.849,2.557-1.651,5.13-2.441,7.707c-0.263,0.854,0.004,1.627,0.714,2.118
			c2.907,2.004,1.388,5.792-0.722,7.203c-0.542,0.363-1.164,0.636-1.627,1.079c-0.521,0.508-1.078,1.094-1.319,1.755
			c-0.634,1.745-1.082,3.559-1.648,5.331c-0.563,1.76-1.145,3.518-1.783,5.25c-0.409,1.114-0.806,1.307-2.038,1.27
			c-0.607-0.021-1.213-0.05-1.823-0.072C415.528,326.463,415.527,326.496,415.525,326.529z M422.647,247.356
			c0.03,0.217,0.03,0.602,0.146,0.952c0.524,1.593,1.048,3.19,1.646,4.757c0.364,0.955,0.794,1.904,1.329,2.77
			c1.178,1.899,3.163,2.05,4.683,0.426c0.251-0.274,0.479-0.578,0.766-0.815c2.61-2.177,3.852-5.078,4.419-8.335
			c0.279-1.619-0.06-3.041-1.293-4.209c-0.507-0.479-0.972-1.01-1.397-1.561c-1.092-1.407-2.761-1.364-4.261-1.737
			c-0.162-0.04-0.365,0.06-0.542,0.118C424.819,240.795,422.807,243.807,422.647,247.356z M389.765,257.399
			c0.936-0.108,1.96,0.299,2.599-0.69c0.933-1.445,1.827-2.915,2.659-4.418c0.443-0.806,0.706-1.711,1.077-2.56
			c0.558-1.259,0.504-2.652,0.153-3.829c-0.369-1.241-1.352-2.304-2.113-3.415c-0.169-0.248-0.507-0.421-0.803-0.536
			c-0.822-0.319-1.668-0.571-2.494-0.882c-1.407-0.53-2.635-0.25-3.752,0.721c-0.315,0.271-0.709,0.45-1.036,0.71
			c-1.557,1.236-2.759,2.719-2.441,4.837c0.303,2.021,0.771,4.021,1.252,6.011c0.37,1.525,1.552,2.54,2.691,3.461
			C388.097,257.247,389.017,257.218,389.765,257.399z M422.354,284.238c-1.143,0.042-1.871,0.589-1.998,1.324
			c-0.128,0.759,0.223,1.229,1.184,1.64c2.986,1.279,5.977,2.554,8.951,3.861c0.886,0.391,1.686,1.064,2.603,1.293
			c2.054,0.512,3.936,1.344,5.743,2.418c0.41,0.243,0.973,0.272,1.472,0.309c0.491,0.037,0.913-0.133,1.041-0.712
			c0.116-0.519-0.163-0.773-0.559-0.995c-1.58-0.884-3.119-1.851-4.742-2.643c-2.62-1.277-5.306-2.414-7.937-3.666
			c-1.588-0.755-3.122-1.621-4.694-2.417C423.016,284.445,422.57,284.321,422.354,284.238z M385.79,277.398
			c0.008-0.098,0.018-0.196,0.026-0.293c0.931,0.044,1.864,0.068,2.793,0.138c1.757,0.132,3.51,0.313,5.268,0.426
			c0.885,0.057,1.458-0.374,1.57-1.044c0.102-0.608-0.411-1.19-1.343-1.292c-2.872-0.312-5.745-0.586-8.623-0.827
			c-1.43-0.12-2.869-0.136-4.305-0.194c-1.348-0.053-2.698-0.116-4.048-0.141c-0.697-0.013-1.644,0.566-1.731,0.996
			c-0.112,0.542,0.449,1.055,1.41,1.286c0.091,0.024,0.184,0.038,0.276,0.047C379.986,276.799,382.887,277.098,385.79,277.398z
			 M379.771,286.178c0.001,0.017,0.003,0.035,0.005,0.053c0.507-0.067,1.03-0.074,1.518-0.21c1.297-0.359,2.572-0.793,3.866-1.162
			c2.178-0.619,4.361-1.22,6.545-1.813c1.388-0.377,2.79-0.709,4.176-1.094c0.478-0.134,1.056-0.261,0.929-0.99
			c-0.124-0.71-0.792-1.272-1.474-1.239c-0.185,0.008-0.368,0.058-0.549,0.103c-1.535,0.378-3.073,0.752-4.602,1.142
			c-2.464,0.626-4.929,1.25-7.387,1.899c-1.217,0.321-2.426,0.674-3.623,1.06c-1.07,0.346-1.322,0.691-1.202,1.411
			c0.152,0.922,0.866,0.823,1.515,0.843C379.584,286.181,379.676,286.178,379.771,286.178z M381.296,295.786
			c0.369-0.155,0.686-0.248,0.961-0.41c1.363-0.799,2.659-1.74,4.088-2.387c1.065-0.482,2.049-1.03,3.016-1.677
			c1.466-0.982,3.002-1.86,4.528-2.753c1.566-0.916,3.167-1.768,4.716-2.71c0.359-0.219,0.672-0.658,0.805-1.062
			c0.234-0.714-0.158-1.099-0.88-0.908c-0.581,0.154-1.173,0.35-1.69,0.648c-3.746,2.162-7.468,4.361-11.205,6.53
			c-1.042,0.604-2.147,1.097-3.167,1.732c-0.663,0.412-1.272,0.945-1.811,1.514c-0.194,0.205-0.236,0.711-0.129,1
			C380.615,295.531,381.034,295.633,381.296,295.786z M426.499,278.85c0.375-0.051,0.784-0.017,1.105-0.168
			c1.269-0.599,2.637-0.47,3.967-0.638c1.521-0.193,3.027-0.5,4.543-0.697c1.841-0.239,3.688-0.393,5.529-0.626
			c1.144-0.144,1.705-0.653,1.619-1.348c-0.086-0.695-0.705-1.053-1.89-0.953c-1.85,0.158-3.693,0.378-5.54,0.574
			c-2.904,0.308-5.812,0.602-8.713,0.936c-1.116,0.127-1.704,0.768-1.989,1.875c-0.139,0.545,0.075,0.801,0.547,0.925
			C425.942,278.799,426.223,278.812,426.499,278.85z M425.333,280.227c-0.266,0.182-0.994,0.407-1.151,0.838
			c-0.242,0.681,0.213,1.177,1.032,1.314c0.898,0.148,1.77,0.45,2.654,0.67c1.562,0.389,3.126,0.773,4.692,1.149
			c1.174,0.282,2.348,0.566,3.528,0.818c1.58,0.34,3.165,0.661,4.758,0.959c0.203,0.039,0.497-0.042,0.646-0.179
			c0.223-0.208,0.484-0.517,0.48-0.779c-0.004-0.181-0.404-0.428-0.671-0.516c-0.916-0.306-1.845-0.574-2.78-0.82
			c-1.297-0.342-2.609-0.656-3.915-0.976c-0.495-0.12-1.055-0.116-1.478-0.358c-2.242-1.279-4.912-1.026-7.21-2.081
			C425.841,280.232,425.735,280.253,425.333,280.227z"/>
		<path fill="#FFFFFF" d="M547.536,327.974c-2.65,0.161-5.301,0.341-7.95,0.479c-1.147,0.06-2.302,0.118-3.438,0.012
			c-0.419-0.036-0.956-0.466-1.158-0.86c-0.568-1.106-1.205-2.173-1.361-3.489c-0.13-1.086-0.628-2.13-0.974-3.191
			c-0.604-1.854-1.222-3.703-1.82-5.56c-0.308-0.967-0.985-1.367-1.953-1.538c-1.924-0.342-3.839-0.733-5.737-1.175
			c-1.575-0.368-1.969-0.218-2.515,1.329c-0.185,0.523-0.271,1.08-0.379,1.625c-0.109,0.55-0.123,1.126-0.294,1.652
			c-0.872,2.715-1.323,5.514-1.815,8.311c-0.334,1.891-1.585,2.956-3.505,2.946c-5.086-0.02-10.174-0.101-15.258-0.144
			c-1.634-0.014-3.269,0.003-4.901,0.041c-1.529,0.036-1.973-0.568-1.582-2.07c0.219-0.842,0.208-1.739,0.41-2.587
			c0.528-2.218,1.136-4.415,1.678-6.629c0.711-2.896,1.38-5.805,2.085-8.708c0.277-1.134,0.672-2.239,0.889-3.381
			c0.288-1.514-0.143-2.016-1.623-2.358c-0.614-0.143-1.266-0.352-1.758-0.723c-1.022-0.768-1.212-1.875-0.588-2.988
			c0.342-0.606,0.783-1.158,1.208-1.713c1.913-2.513,3.321-5.272,4.032-8.357c0.442-1.923,0.115-3.617-1.592-4.859
			c-0.791-0.575-1.567-1.17-2.319-1.796c-0.889-0.739-1.86-1.425-2.577-2.312c-0.665-0.821-0.789-1.94-0.271-2.922
			c0.562-1.066,1.162-2.149,1.949-3.052c1.709-1.97,3.595-3.79,5.32-5.748c1.506-1.708,2.931-3.489,4.304-5.305
			c0.642-0.848,1.341-1.798,1.544-2.797c0.28-1.379,0.255-2.864,0.098-4.274c-0.109-0.991-0.656-1.932-1.008-2.896
			c-0.698-1.909-1.095-3.883-0.801-5.901c0.251-1.707,0.716-3.295,2.208-4.52c1.516-1.248,3.001-1.329,4.686-0.659
			c1.479,0.591,2.518,1.741,3.537,2.89c2.416,2.715,4.81,5.448,7.196,8.189c2.201,2.527,4.985,2.912,8.045,2.201
			c1.589-0.37,3.163-0.809,4.717-1.293c0.746-0.232,1.414-0.705,2.156-0.959c1.051-0.361,2.125-0.678,3.211-0.905
			c0.784-0.164,1.288,0.403,1.738,0.965c1.097,1.374,1.28,2.963,1.088,4.635c-0.334,2.87-0.631,5.742-1.027,8.604
			c-0.244,1.75-0.023,3.447,0.314,5.145c0.35,1.739,0.634,3.506,1.162,5.192c0.479,1.544,1.136,3.057,1.91,4.479
			c1.401,2.576,2.531,5.235,3.498,8.015c1.048,3.016,0.979,5.822-0.194,8.721c-0.201,0.506-0.129,1.208,0.025,1.76
			c0.546,1.93,1.195,3.831,1.78,5.75c0.409,1.336,0.797,2.678,1.162,4.03c0.66,2.429,1.109,4.937,1.99,7.28
			c1.025,2.718,1.548,5.554,2.385,8.31c0.094,0.311,0.142,0.638,0.176,0.963c0.154,1.424-0.367,2.147-1.801,2.248
			c-1.3,0.089-2.611,0.001-3.916-0.001c-0.796-0.002-1.588,0.009-2.383,0.014C547.537,328.051,547.536,328.013,547.536,327.974z
			 M529.854,309.563c0.262-0.165,0.897-0.36,1.058-0.749c0.12-0.285-0.273-0.963-0.618-1.234c-2.194-1.708-3.853-3.907-5.66-5.966
			c-0.878-1.001-1.495-2.228-2.221-3.357c-0.302-0.47-0.535-0.99-0.879-1.425c-0.646-0.813-1.108-0.875-1.997-0.258
			c-1.335,0.924-2.635,1.899-3.964,2.836c-1.062,0.753-1.314,1.715-0.517,2.742c1.724,2.217,3.637,4.232,6.271,5.427
			C523.952,308.764,526.749,309.147,529.854,309.563z M508.127,285.527c0.083,0,0.276,0.036,0.449-0.013
			c0.204-0.059,0.393-0.19,0.59-0.29c-0.134-0.21-0.221-0.529-0.41-0.61c-0.844-0.362-1.707-0.683-2.584-0.955
			c-0.205-0.062-0.535,0.077-0.707,0.234c-0.085,0.078-0.002,0.447,0.111,0.614C506.16,285.376,507.073,285.512,508.127,285.527z
			 M517.835,286.667c-0.363-0.242-0.498-0.402-0.615-0.393c-0.281,0.021-0.556,0.125-0.832,0.196
			c0.108,0.131,0.206,0.368,0.315,0.373C516.987,286.855,517.275,286.764,517.835,286.667z"/>
		<path fill="#FFFFFF" d="M282.442,307.987c-0.081,1.776-0.238,4.014-0.265,6.253c-0.024,1.911,0.129,3.821,0.151,5.734
			c0.021,1.861-0.007,3.725-0.05,5.587c-0.028,1.229-1.115,2.081-2.547,2.021c-1.523-0.063-3.043-0.207-4.565-0.233
			c-1.725-0.029-3.452,0.041-5.179,0.052c-2.748,0.017-5.495,0.039-8.242,0.022c-1.365-0.008-2.671-0.217-3.749-1.209
			c-0.281-0.259-0.751-0.361-1.154-0.427c-0.723-0.116-0.904-0.492-0.813-1.178c0.082-0.617,0.716-1.322-0.178-1.852
			c0.092-0.145,0.178-0.289,0.276-0.429c0.601-0.853,0.545-0.995-0.259-1.687c-0.406-0.35-0.701-0.833-1.025-1.268
			c-0.107-0.146-0.1-0.409-0.229-0.501c-1.292-0.929-1.411-2.604-2.395-3.712c-0.544-0.612-0.236-1.217-0.125-1.845
			c0.058-0.335,0.637-1.14-0.496-0.551c-0.221,0.113-1.02-0.354-1.162-0.712c-0.459-1.145-1.584-2.01-1.463-3.396
			c-0.938-0.817-0.799-2.277-1.511-3.031c-1.293-1.374-1.965-3.005-2.713-4.629c-0.697-1.512-1.256-3.088-1.887-4.632
			c-0.124-0.301-0.229-0.67-0.464-0.85c-0.343-0.265-0.796-0.388-1.2-0.57c-0.149,0.359-0.431,0.723-0.423,1.079
			c0.033,1.207,0.229,2.409,0.254,3.615c0.068,3.451,0.062,6.907,0.135,10.359c0.026,1.205,0.202,2.411,0.311,3.615
			c0.017,0.186,0.09,0.374,0.069,0.555c-0.234,2.129-0.46,4.261-0.745,6.387c-0.046,0.334-0.335,0.659-0.568,0.939
			c-0.766,0.932-1.532,1.859-2.348,2.745c-0.756,0.821-0.944,1.751-0.881,2.837c0.125,2.06,0.042,4.097-0.82,6.046
			c-0.641,1.443-1.544,2.664-2.782,3.616c-0.342,0.263-0.836,0.387-1.278,0.449c-0.69,0.094-1.405,0.029-2.095,0.127
			c-0.884,0.128-1.49-0.278-1.838-0.979c-0.389-0.784-0.697-1.634-0.892-2.482c-0.396-1.73-0.783-3.455-1.775-4.958
			c-0.406-0.615-0.897-1.178-1.371-1.745c-0.864-1.037-1.737-2.066-2.617-3.09c-0.778-0.906-1.642-1.75-2.335-2.715
			c-1.05-1.466-0.942-2.883,0.126-4.395c1.312-1.86,2.756-3.658,3.527-5.83c0.387-1.086,0.736-2.247,0.783-3.388
			c0.145-3.494,0.22-7.002,0.16-10.502c-0.056-3.354-0.322-6.705-0.482-10.057c-0.03-0.65,0.004-1.305,0.023-1.959
			c0.044-1.71-1.011-2.486-2.605-1.911c-0.262,0.096-0.523,0.247-0.793,0.266c-0.885,0.06-1.385,0.416-1.344,1.388
			c0.01,0.22-0.247,0.449-0.38,0.674c-0.164-0.194-0.379-0.364-0.483-0.584c-0.415-0.876-0.947-1.009-1.696-0.39
			c-0.714,0.591-0.834,1.422-0.931,2.268c-0.068,0.598-0.238,1.206-0.995,1.019c-0.386-0.094-0.886-0.464-0.978-0.806
			c-0.089-0.333,0.2-0.851,0.465-1.17c0.219-0.263,0.653-0.34,0.979-0.522c1.395-0.785,1.412-1.599,0.059-2.472
			c-0.5-0.322-1.029-0.615-1.484-0.997c-0.195-0.162-0.231-0.515-0.339-0.781c0.31-0.034,0.65-0.168,0.922-0.082
			c0.528,0.168,1.001,0.518,1.53,0.68c0.305,0.093,0.829,0.095,0.984-0.089c0.215-0.256,0.249-0.73,0.224-1.102
			c-0.02-0.307-0.271-0.592-0.356-0.904c-0.197-0.734,0.076-1.258,0.707-1.445c0.714-0.209,1.295,0.1,1.528,0.832
			c0.056,0.175,0.052,0.368,0.081,0.551c0.275,1.783,2.136,3.001,3.871,2.535c0.811-0.218,1.287-0.999,1.261-2.107
			c-0.075-3.123-0.198-6.246-0.222-9.37c-0.01-1.346,0.082-2.711,0.303-4.038c0.213-1.293,0.758-2.48,1.706-3.464
			c1.522-1.582,3.037-3.165,5.026-4.163c0.478-0.241,1.062-0.36,1.6-0.372c3.546-0.078,7.099-0.001,10.637-0.199
			c2.048-0.113,3.156,0.938,3.961,2.491c1.477,2.85,2.818,5.77,4.276,8.629c0.673,1.319,1.56,2.528,2.218,3.854
			c0.682,1.371,1.183,2.831,1.799,4.236c1.345,3.071,2.701,6.135,4.079,9.192c0.515,1.142,1.12,2.245,1.662,3.376
			c0.443,0.921,0.818,1.877,1.292,2.781c0.321,0.612,0.709,1.209,1.167,1.726c0.715,0.803,1.484,0.656,1.729-0.359
			c0.193-0.8,0.185-1.655,0.211-2.487c0.02-0.603-0.11-1.209-0.07-1.808c0.201-2.97,0.455-5.938,0.648-8.908
			c0.051-0.788-0.034-1.587-0.071-2.379c-0.16-3.355-0.324-6.71-0.489-10.066c-0.035-0.743-0.034-1.49-0.107-2.23
			c-0.337-3.458-1.634-6.586-3.424-9.514c-1.71-2.796-1.816-7.735,0.214-10.236c1.659-2.044,3.509-4,5.821-5.384
			c1.414-0.848,2.228-0.405,2.553,1.213c0.405,2.006,0.964,3.976,1.983,5.771c0.294,0.519,0.729,0.972,1.161,1.391
			c1.47,1.427,2.966,2.828,4.455,4.233c0.169,0.159,0.346,0.346,0.555,0.42c2.298,0.802,3.35,2.71,4.212,4.767
			c0.174,0.417,0.242,0.899,0.261,1.357c0.151,3.542,0.332,7.086,0.391,10.632c0.038,2.236-0.118,4.473-0.181,6.711
			c-0.045,1.63-0.079,3.26-0.12,4.89c-0.005,0.233,0.059,0.502-0.037,0.693c-1.409,2.865-0.182,5.862-0.448,8.787
			c-0.117,1.29,0.092,2.608,0.117,3.914c0.023,1.297,0.191,1.504,1.504,1.662c0.23,0.027,0.466,0.046,0.688,0.111
			c0.493,0.143,1.012,0.155,1.208-0.362c0.148-0.391,0.15-0.919,0.009-1.311c-0.149-0.413-0.54-0.743-0.836-1.101
			c-0.323-0.39-0.831-0.812-0.312-1.3c0.444-0.419,1.04-0.343,1.534,0.07c0.608,0.51,1.279,0.963,1.806,1.548
			c0.59,0.652,1.137,0.608,1.869,0.298c0.516-0.219,1.473-0.477,1.624-0.269c0.45,0.608-0.378,0.986-0.662,1.466
			c-0.331,0.559-0.797,1.041-1.103,1.611c-0.482,0.895-0.268,1.46,0.641,1.949c0.41,0.221,0.865,0.377,1.229,0.654
			c0.471,0.357,0.538,0.871,0.2,1.368c-0.303,0.445-0.755,0.558-1.234,0.33c-0.378-0.175-0.728-0.42-1.078-0.652
			c-1.596-1.066-1.917-0.924-2.028,0.976c-0.027,0.473-0.121,0.858-0.615,0.957c-0.287,0.06-0.709,0.096-0.871-0.062
			c-0.176-0.169-0.227-0.615-0.143-0.879c0.139-0.434,0.48-0.802,0.647-1.234c0.386-0.991-0.118-1.791-1.159-1.89
			c-0.277-0.026-0.562,0.008-0.84-0.006c-1.891-0.109-2.075,0.033-2.102,1.973C282.381,303.885,282.425,305.705,282.442,307.987z
			 M270.831,299.355c-0.106,0.419-0.162,1.086-0.443,1.639c-0.546,1.066-0.851,2.152-0.865,3.352
			c-0.011,0.837-0.046,1.702-0.271,2.5c-0.192,0.683-0.545,1.417-1.049,1.892c-0.689,0.653-1.548,1.178-2.417,1.578
			c-0.443,0.204-1.175,0.207-1.583-0.028c-0.948-0.552-1.795-1.284-2.651-1.979c-0.571-0.467-1.045-1.06-1.64-1.481
			c-1.603-1.148-2.798-2.615-2.591-4.621c0.281-2.742-0.766-4.554-3.133-5.793c-0.454-0.237-0.933-0.718-1.081-1.187
			c-0.362-1.141-0.724-2.293-0.433-3.563c0.256-1.119-0.135-2.106-1.099-2.835c-0.665-0.503-1.302-1.047-1.916-1.611
			c-1.255-1.153-2.375-2.39-2.415-4.246c-0.009-0.464-0.062-0.935-0.156-1.39c-0.349-1.683-0.501-3.467-1.822-4.751
			c-0.864-0.839-1.849-1.554-2.781-2.323c-0.683-0.562-1.375-1.111-2.048-1.685c-0.46-0.393-0.857-0.869-1.349-1.217
			c-0.887-0.628-1.668-0.385-1.958,0.626c-0.545,1.899-1.811,3.085-3.594,3.787c-2.025,0.798-2.926,3.199-1.894,5.11
			c0.2,0.368,0.466,0.702,0.659,1.073c0.726,1.406,0.526,2.516-0.628,3.619c-1.525,1.459-1.74,2.798-0.743,4.657
			c0.089,0.164,0.176,0.329,0.276,0.487c0.784,1.24,0.563,2.393-0.29,3.498c-0.314,0.406-0.61,0.825-0.934,1.221
			c-0.573,0.696-0.561,1.418-0.237,2.227c0.827,2.071,1.734,4.13,1.603,6.443c-0.007,0.131,0.047,0.281,0.113,0.399
			c0.15,0.267,0.325,0.523,0.49,0.782c0.287-0.216,0.593-0.41,0.85-0.661c0.122-0.116,0.156-0.335,0.218-0.509
			c0.644-1.778,0.633-3.551,0.052-5.351c-0.462-1.429-0.579-2.795,0.646-4.02c0.917-0.915,0.852-1.814,0.032-2.889
			c-1.146-1.505-1.153-2.693,0.148-4.092c0.958-1.031,1.034-2.142,0.622-3.368c-0.268-0.795-0.564-1.586-0.905-2.352
			c-0.419-0.937-0.248-1.746,0.459-2.43c0.704-0.681,1.387-1.431,2.214-1.921c0.794-0.471,1.198-1.084,1.506-1.894
			c0.354-0.931,0.989-1.192,1.893-0.821c0.422,0.174,0.855,0.422,1.166,0.75c0.959,1.013,1.866,2.076,2.785,3.127
			c1.222,1.401,1.573,3.094,1.294,4.845c-0.355,2.229,0.307,3.91,2.119,5.232c1.95,1.423,3.037,3.376,3.287,5.783
			c0.172,1.661,0.896,2.973,2.219,4.039c1.846,1.488,3.115,3.325,2.958,5.861c-0.017,0.267,0.017,0.598,0.162,0.798
			c0.787,1.085,1.618,2.142,2.437,3.206c0.228,0.293,0.553,0.539,0.696,0.865c0.284,0.651,0.819,0.932,1.373,1.302
			c1.287,0.863,2.688,1.076,4.18,1.339c2.209,0.387,3.853-0.342,5.258-1.854c0.407-0.437,0.654-1.106,0.778-1.707
			c0.218-1.045,0.312-2.12,0.406-3.187c0.085-0.957,0.535-1.627,1.3-2.199c1.234-0.931,1.355-1.603,0.857-3.041
			c-0.302-0.876-0.561-1.778-0.735-2.688c-0.182-0.957,0.037-1.767,0.822-2.517c1.494-1.429,1.605-2.868,0.618-4.7
			c-0.42-0.779-0.853-1.556-1.196-2.369c-0.58-1.372-0.65-2.78,0.349-3.977c1.591-1.905,1.043-3.979,0.494-5.981
			c-0.303-1.105-0.381-2.074,0.054-3.113c0.43-1.032,0.892-2.06,1.22-3.126c0.155-0.5,0.122-1.105,0.012-1.628
			c-0.192-0.902-0.482-1.791-0.791-2.664c-0.23-0.65-0.422-1.394-0.869-1.872c-1.037-1.111-1.909-2.285-2.384-3.737
			c-0.04-0.122-0.165-0.214-0.25-0.319c-0.098,0.138-0.292,0.284-0.28,0.41c0.092,0.96,0.062,1.979,0.388,2.861
			c0.365,0.986,1.047,1.86,1.624,2.762c0.493,0.77,0.997,1.557,0.461,2.462c-0.939,1.584-1.128,3.341-1.331,5.105
			c-0.111,0.957,0.021,1.837,0.498,2.698c0.822,1.482,0.743,1.977-0.327,3.267c-0.208,0.251-0.415,0.504-0.627,0.752
			c-0.66,0.771-0.855,1.664-0.589,2.62c0.325,1.167,0.589,2.379,1.117,3.454c0.914,1.865,0.523,3.552-0.436,5.182
			c-0.509,0.862-0.687,1.72-0.536,2.673C270.431,296.999,270.613,298.054,270.831,299.355z M228.784,322.169
			c0.013-1.005-1.346-2.314-2.412-2.322c-1.309-0.011-2.661,1.223-2.614,2.431c0.063,1.616,0.959,2.212,2.568,2.397
			C227.645,324.829,228.767,323.596,228.784,322.169z M266.019,317.644c-0.021,1.366,0.706,2.026,2.217,2.019
			c0.936-0.005,1.483-0.484,1.472-1.288c-0.022-1.437-0.945-2.387-2.322-2.387C266.389,315.989,266.036,316.417,266.019,317.644z
			 M234.075,324.246c-0.04-0.695-0.855-1.142-1.98-1.094c-0.846,0.033-1.377,0.634-1.291,1.455c0.073,0.688,0.791,1.219,1.624,1.203
			C233.28,325.793,234.118,324.994,234.075,324.246z M232.783,267.856c-0.169,0.344-0.286,0.486-0.294,0.633
			c-0.004,0.082,0.176,0.171,0.275,0.257c0.104-0.132,0.254-0.25,0.295-0.399C233.086,268.257,232.941,268.12,232.783,267.856z"/>
		<path fill="#FFFFFF" d="M204.565,328.594c-1.093-0.169-2.185-0.458-3.281-0.479c-1.668-0.035-3.341,0.109-5.013,0.185
			c-0.373,0.018-0.751,0.132-1.114,0.09c-2.015-0.24-3.992-0.049-5.985,0.289c-1.541,0.261-2.312-0.359-2.907-1.777
			c-0.448-1.067-1.011-2.088-1.541-3.121c-0.806-1.571-1.658-3.118-2.438-4.704c-0.964-1.953-1.841-3.948-2.823-5.89
			c-0.73-1.445-1.558-2.844-2.364-4.248c-0.441-0.768-1.094-1.078-2.007-0.891c-1.792,0.366-3.595,0.423-5.43,0.304
			c-1.707-0.114-2.999,1.06-3.324,2.749c-0.333,1.733-0.978,3.363-1.606,5.009c-0.898,2.349-1.616,4.769-2.449,7.145
			c-0.384,1.097-0.764,2.213-1.306,3.235c-0.734,1.384-1.302,1.543-2.864,1.327c-0.779-0.106-1.583-0.113-2.371-0.072
			c-2.606,0.14-5.199,0.354-7.822,0.092c-1.61-0.161-3.253,0.045-4.882,0.049c-0.883,0.002-1.777,0.004-2.645-0.131
			c-1.275-0.198-1.562-0.778-1.122-1.952c0.541-1.439,0.894-2.98,1.635-4.304c1.184-2.112,1.979-4.378,2.931-6.578
			c1.221-2.82,2.27-5.716,3.433-8.562c1.06-2.591,2.189-5.151,3.252-7.741c0.424-1.034,0.774-2.1,1.106-3.169
			c0.345-1.104,0.052-1.857-0.902-2.559c-2.096-1.538-2.51-3.015-1.689-5.446c0.49-1.45,1.268-2.668,2.267-3.811
			c0.601-0.688,1.083-1.516,1.463-2.351c0.637-1.392,1.159-2.836,1.708-4.267c0.183-0.477,0.315-0.974,0.448-1.468
			c0.505-1.866-0.109-3.293-1.701-4.344c-0.311-0.206-0.583-0.469-0.898-0.67c-1.732-1.113-1.803-2.934-0.612-4.77
			c1.139-1.755,2.657-3.041,4.647-3.842c1.636-0.658,3.221-1.498,4.706-2.449c0.734-0.471,1.417-1.287,1.723-2.1
			c0.451-1.192,0.856-2.467,0.612-3.822c-0.059-0.33,0.077-0.732,0.224-1.055c0.407-0.888,0.833-1.771,1.313-2.62
			c0.664-1.173,1.837-1.849,3.034-2.036c1.641-0.257,3.27,0.099,4.32,1.675c0.671,1.007,1.394,1.981,2.053,2.997
			c1.188,1.828,2.774,3.29,4.457,4.611c1.258,0.987,2.843,1.366,4.427,1.63c3.622,0.601,6.038,2.547,7.303,6.096
			c1.219,3.422,1.721,6.956,2.104,10.51c0.361,3.359,1.096,6.625,1.935,9.879c0.068,0.268,0.188,0.525,0.31,0.776
			c1.183,2.418,2.391,4.825,3.552,7.255c1.181,2.469,2.334,4.952,3.46,7.447c1.203,2.664,2.4,5.332,3.514,8.035
			c0.422,1.024,0.686,2.128,0.875,3.221c0.237,1.359-0.429,2.431-1.363,3.364c-1.209,1.215-1.298,1.846-0.469,3.328
			c1.043,1.868,2.118,3.721,3.151,5.595c0.269,0.488,0.47,1.017,0.654,1.546c0.513,1.479-0.104,2.427-1.705,2.582
			c-0.649,0.064-1.307,0.02-1.959,0.022C204.582,328.472,204.574,328.533,204.565,328.594z M169.971,304.754
			c0.004-0.03,0.01-0.061,0.014-0.089c0.093-0.002,0.19,0.014,0.279-0.006c0.771-0.159,1.896,0.384,2.228-0.602
			c0.313-0.925-0.703-1.397-1.314-1.951c-0.758-0.687-1.655-1.282-2.225-2.102c-1.542-2.218-2.894-4.547-3.527-7.231
			c-0.325-1.38-1.035-1.675-2.404-1.209c-1.49,0.506-2.928,1.098-4.54,1.304c-1.505,0.192-2.804,1.322-1.691,3.194
			c1.325,2.229,2.913,4.228,4.928,5.821c1.152,0.911,2.479,1.722,3.858,2.196C166.957,304.552,168.5,304.548,169.971,304.754z
			 M160.813,277.737c0.237-0.045,0.713-0.074,1.142-0.231c0.739-0.271,0.939-0.978,0.301-1.377
			c-1.126-0.706-2.345-1.328-3.603-1.738c-0.879-0.286-1.337,0.444-1.027,1.384C157.953,276.775,159.438,277.764,160.813,277.737z
			 M171.617,280.529c0.545-0.24,1.518-0.553,2.354-1.08c0.535-0.338,0.346-0.843-0.307-0.928c-1.604-0.21-3.212-0.412-4.825-0.52
			c-0.319-0.022-0.76,0.331-0.959,0.633c-0.09,0.137,0.209,0.649,0.449,0.86C169.127,280.203,170.113,280.458,171.617,280.529z
			 M202.471,323.998c0.611-0.464,1.291-0.928,1.893-1.479c0.115-0.105,0.001-0.73-0.137-0.784c-0.287-0.114-0.683-0.067-0.988,0.041
			c-0.14,0.052-0.183,0.4-0.251,0.619c-0.187,0.595-0.432,1.062-1.194,0.704c-0.1-0.046-0.284,0.086-0.43,0.141
			c0.059,0.117,0.09,0.289,0.186,0.347C201.777,323.728,202.042,323.813,202.471,323.998z"/>
		<path fill="#FFFFFF" d="M714.054,256.834c0.114,1.157,0.31,2.311,0.329,3.469c0.032,2.276-0.03,4.555-0.065,6.832
			c-0.005,0.419-0.141,0.86-0.055,1.254c0.436,1.978-0.886,3.13-2.249,3.78c-1.904,0.908-3.914,1.82-6.141,1.735
			c-1.577-0.06-3.16-0.11-4.73-0.238c-1.665-0.134-3.321-0.349-4.981-0.541c-0.323-0.037-0.633-0.142-0.956-0.201
			c-2.002-0.363-3.992-0.879-6.013-1.038c-2.251-0.177-4.446,0.453-6.491,1.363c-1.12,0.498-1.771,1.508-2.035,2.832
			c-0.683,3.416,0.819,5.757,3.436,7.655c1.39,1.01,3.018,0.778,4.573,0.904c0.316,0.026,0.653-0.154,0.968-0.118
			c4.059,0.456,8.079-0.413,12.124-0.351c0.83,0.013,1.658,0.112,2.485,0.154c2.187,0.111,4.38,0.143,6.559,0.335
			c1.558,0.138,2.331,1.093,2.228,2.669c-0.114,1.733-0.05,3.415,0.433,5.107c0.25,0.878,0.193,1.851,0.223,2.781
			c0.056,1.672,0.104,3.345,0.082,5.017c-0.009,0.787-0.125,1.581-0.292,2.352c-0.167,0.785-0.804,1.034-1.492,0.646
			c-0.238-0.135-0.445-0.34-0.641-0.539c-0.532-0.536-1.099-0.712-1.891-0.569c-0.756,0.139-1.575,0.066-2.351-0.04
			c-3.254-0.441-6.497-0.508-9.773-0.256c-4.356,0.336-8.529,1.523-12.715,2.602c-1.995,0.517-3.997,1.202-5.803,2.343
			c-1.125,0.714-2.431,1.141-3.608,1.784c-0.847,0.466-1.654,1.034-2.415,1.633c-0.831,0.655-0.792,1.311,0.08,1.903
			c0.812,0.549,1.669,0.917,2.701,1.024c1.277,0.136,2.523,0.577,3.785,0.866c1.042,0.242,2.082,0.52,3.138,0.663
			c2.499,0.341,4.954,0.785,7.32,1.727c0.821,0.326,1.837,0.128,2.75,0.261c3.713,0.541,7.425,0.488,11.114-0.126
			c2.894-0.485,5.754-1.196,8.651-1.674c1.024-0.167,2.116,0.035,3.174,0.137c0.182,0.017,0.456,0.361,0.469,0.566
			c0.011,0.225-0.202,0.627-0.379,0.665c-1.549,0.331-2.793,1.135-3.869,2.264c-0.139,0.145-0.434,0.161-0.663,0.187
			c-0.855,0.088-1.511,0.457-1.879,1.262c-0.209,0.466-0.522,0.653-0.995,0.375c-0.895-0.526-1.562-0.026-2.09,0.567
			c-0.6,0.67-1.23,1.037-2.164,1.061c-0.74,0.017-1.502,0.259-1.736,1.149c-0.172,0.657-0.578,0.67-1.174,0.611
			c-1.729-0.165-3.451-0.11-5.1,0.54c-0.337,0.133-0.691,0.306-0.939,0.556c-0.479,0.474-0.487,1.034,0.058,1.454
			c0.356,0.273,0.802,0.465,1.238,0.602c3.071,0.951,6.177,1.293,9.385,0.742c2.718-0.469,5.464-0.569,8.204-0.072
			c0.138,0.024,0.308-0.01,0.41,0.061c0.293,0.198,0.665,0.388,0.787,0.672c0.066,0.159-0.252,0.614-0.497,0.746
			c-1.057,0.562-2.041,1.254-3.362,1.209c-1.014-0.035-2.056,0.131-3.046,0.368c-2.106,0.509-4.185,0.021-6.271-0.054
			c-0.978-0.035-1.955-0.172-2.923-0.326c-0.594-0.095-1.243-0.187-1.738-0.491c-1.471-0.898-3.079-0.979-4.722-1.047
			c-1.16-0.049-2.327-0.384-3.473-0.305c-1.373,0.097-2.732,0.466-4.087,0.766c-2.222,0.497-4.43,1.052-6.653,1.546
			c-1.131,0.252-2.282,0.433-3.427,0.625c-0.225,0.04-0.476,0.041-0.699-0.012c-3.137-0.726-6.468-0.774-9.273-2.661
			c-0.307-0.205-0.657-0.355-0.998-0.499c-1.35-0.568-2.746-1.049-4.046-1.707c-0.943-0.479-1.828-1.118-2.634-1.809
			c-0.735-0.629-1.496-0.91-2.436-0.769c-1.939,0.297-3.87,0.582-5.529,1.799c-0.386,0.284-1.003,0.251-1.516,0.364
			c0.069-0.525,0.044-1.092,0.23-1.571c0.704-1.795,1.741-3.252,3.757-3.839c1.103-0.32,1.348-1.146,1.095-2.37
			c-0.273-1.321-0.614-2.656-0.662-3.99c-0.051-1.524,0.104-3.074,0.338-4.589c0.146-0.944,0.614-1.843,0.93-2.762
			c0.857-2.485,2.62-4.388,4.192-6.404c0.504-0.643,1.24-1.114,1.899-1.622c1.16-0.893,1.508-1.688,0.986-2.729
			c-0.213-0.423-0.624-0.872-1.051-1.04c-1.478-0.577-2.63-1.562-3.774-2.605c-0.719-0.655-1.562-1.169-2.335-1.768
			c-0.293-0.226-0.57-0.483-0.797-0.772c-0.721-0.917-1.491-1.808-2.098-2.799c-0.771-1.262-1.354-2.627-1.456-4.144
			c-0.015-0.231,0.026-0.503-0.076-0.687c-1.353-2.393-1.025-4.992-0.819-7.527c0.346-4.267,2.352-7.782,5.363-10.743
			c1.33-1.306,2.629-2.667,4.121-3.766c1.137-0.837,2.506-1.418,3.848-1.899c1.749-0.625,3.558-1.102,5.368-1.516
			c1.348-0.309,2.743-0.418,4.118-0.615c1.151-0.166,2.302-0.329,3.458-0.493c0.046-0.008,0.092-0.024,0.138-0.023
			c2.593,0.123,5.201-0.187,7.782,0.389c1.356,0.302,2.776,0.317,4.146,0.578c2.605,0.499,5.178,0.27,7.761-0.136
			c0.552-0.086,1.116-0.06,1.675-0.096c1.02-0.067,2.027-0.086,2.966-0.66c0.445-0.272,1.069-0.26,1.613-0.367
			c3.108-0.617,6.087-1.616,8.902-3.065c0.864-0.446,1.606-1.13,2.476-1.557c0.892-0.438,1.621-0.071,1.775,0.904
			c0.269,1.699,0.402,3.417,0.594,5.127C714.15,256.824,714.101,256.829,714.054,256.834z M690.896,265.543
			c-1.934,0.143-3.423,0.244-4.912,0.374c-0.317,0.029-0.652,0.117-0.932,0.268c-1.232,0.658-2.442,1.353-3.668,2.026
			c-0.852,0.47-1.234,1.272-1.408,2.153c-0.164,0.811,0.333,1.241,1.147,1.085c0.271-0.053,0.556-0.137,0.787-0.281
			c3.03-1.898,6.368-1.865,9.73-1.49c2.08,0.231,4.168,0.526,6.201,1.009c3.072,0.729,6.107,0.334,9.162,0.048
			c1.571-0.146,2.542-1.152,2.648-2.746c0.048-0.743,0.034-1.496-0.023-2.239c-0.112-1.41-0.656-1.69-2.034-1.421
			c-2.087,0.409-3.959,1.483-6.157,1.633c-2.094,0.145-4.165,0.145-6.246,0.032C693.61,265.909,692.042,265.668,690.896,265.543z
			 M654.356,311.791c0.078,1.069,0.102,2.144,0.259,3.197c0.073,0.479,0.358,0.967,0.66,1.361c0.398,0.527,0.893,0.443,1.215-0.143
			c0.11-0.2,0.146-0.44,0.214-0.661c0.729-2.363,1.953-4.454,3.711-6.173c0.749-0.73,1.031-1.476,0.992-2.479
			c-0.051-1.252-0.054-2.515,0.03-3.764c0.062-0.926,0.373-1.835,0.424-2.756c0.022-0.444-0.181-1.118-0.501-1.299
			c-0.311-0.177-0.931,0.083-1.363,0.268c-0.278,0.117-0.499,0.421-0.687,0.686c-0.698,0.989-1.347,2.014-2.059,2.994
			C655.359,305.641,654.521,308.597,654.356,311.791z M653.5,273.082c0.053,0.021,0.107,0.04,0.159,0.059
			c0.073,0.646,0.112,1.301,0.234,1.94c0.149,0.759,0.61,0.886,1.175,0.35c0.164-0.156,0.316-0.35,0.407-0.557
			c1.038-2.376,2.811-4.111,4.823-5.663c0.414-0.319,0.75-0.836,0.935-1.333c0.438-1.173,0.808-2.378,1.113-3.594
			c0.097-0.387,0.044-1.032-0.202-1.222c-0.269-0.209-0.929-0.185-1.259,0.009c-0.708,0.409-1.379,0.933-1.945,1.523
			c-1.254,1.301-2.616,2.553-3.587,4.051C654.494,269.967,654.102,271.592,653.5,273.082z M658.006,318.012
			c0.197,1.245,0.512,2.502,1.485,3.478c0.507,0.507,1.102,0.985,1.848,0.747c0.775-0.25,0.7-1.025,0.709-1.669
			c0.025-1.479,0.426-2.84,1.149-4.128c1.052-1.868,0.433-3.107-0.914-4.821c-0.674-0.862-1.181-0.756-1.918,0.125
			C658.873,313.535,658.789,315.867,658.006,318.012z M660.663,276.574c-0.119-0.878-0.156-1.536-0.31-2.164
			c-0.137-0.555-0.268-1.369-0.648-1.551c-0.672-0.324-1.081,0.487-1.55,0.903c-0.034,0.029-0.062,0.072-0.079,0.114
			c-0.865,1.641-1.973,3.208-2.173,5.096c-0.159,1.552-0.311,3.167,0.586,4.613c0.504,0.813,1.358,0.821,1.856,0
			c0.142-0.229,0.193-0.519,0.259-0.788c0.38-1.576,0.618-3.182,1.57-4.583C660.521,277.708,660.549,276.988,660.663,276.574z
			 M660.552,283.479c-0.061,0.019-0.118,0.039-0.177,0.059c0.36,1.335,0.566,2.747,1.145,3.984c0.472,1.012,1.332,1.876,2.145,2.68
			c0.285,0.282,0.942,0.187,1.429,0.265c0.053-0.474,0.216-0.967,0.132-1.414c-0.171-0.905-0.646-1.775-0.69-2.676
			c-0.084-1.736-1.202-2.995-1.822-4.476c-0.12-0.288-0.546-0.501-0.875-0.635c-0.681-0.277-1.074-0.055-1.205,0.681
			C660.542,282.447,660.573,282.967,660.552,283.479z M668,320.759c-0.083-0.204-0.229-0.752-0.521-1.204
			c-0.379-0.583-0.873-1.093-1.313-1.635c-0.372-0.457-0.858-0.92-1.412-0.589c-0.412,0.248-0.815,0.827-0.873,1.301
			c-0.25,2.051,0.257,3.974,1.346,5.721c0.241,0.389,0.586,0.744,0.96,1.001c0.797,0.545,1.317,0.328,1.454-0.64
			C667.812,323.522,667.866,322.314,668,320.759z M696.456,322.599c0.307-0.043,0.729-0.064,1.129-0.168
			c1.139-0.301,1.596-1.404,0.925-2.389c-0.641-0.938-1.541-1.622-2.666-1.882c-0.818-0.185-1.68,0.055-2.113,0.725
			c-0.299,0.465-0.33,1.267-0.173,1.832C693.896,321.918,695.074,322.621,696.456,322.599z M676.52,328.052
			c0.837-0.098,1.87-0.287,2.585-1.092c0.29-0.325,0.488-0.937,0.388-1.336c-0.08-0.324-0.633-0.651-1.034-0.751
			c-0.936-0.23-1.907-0.33-2.865-0.472c-0.878-0.133-1.629,0.448-1.649,1.265C673.915,326.913,675.06,328.062,676.52,328.052z
			 M707.319,297.123c0.005,1.579,0.507,2.265,1.642,2.245c1.026-0.018,1.717-0.82,1.701-1.978c-0.02-1.383-0.787-2.258-1.955-2.227
			C707.67,295.191,707.315,295.688,707.319,297.123z M672.636,325.194c-0.03-1.046-0.245-2.017-1.235-2.512
			c-0.4-0.202-1.047-0.237-1.426-0.044c-0.289,0.152-0.473,0.789-0.444,1.193c0.035,0.638,0.209,1.297,0.478,1.878
			c0.265,0.569,0.645,1.135,1.109,1.554c0.54,0.49,1.034,0.292,1.242-0.429C672.511,326.303,672.547,325.74,672.636,325.194z
			 M705.351,297.419c0.014-1.108-0.945-2.156-1.956-2.134c-1.146,0.024-1.807,0.564-1.842,1.495
			c-0.045,1.244,0.875,2.162,2.205,2.198C704.693,299.003,705.341,298.37,705.351,297.419z M697.504,298.91
			c1.246,0.009,1.678-0.275,1.684-1.111c0.008-1.068-0.373-1.466-1.385-1.45c-1.059,0.018-1.581,0.519-1.572,1.5
			C696.24,298.629,696.567,298.903,697.504,298.91z M691.193,299.844c0.375-0.053,0.935-0.076,1.466-0.221
			c0.551-0.152,0.833-0.61,0.733-1.173c-0.107-0.589-0.644-0.695-1.084-0.569c-0.652,0.187-1.277,0.497-1.879,0.818
			c-0.293,0.157-0.504,0.458-0.754,0.695c0.356,0.15,0.708,0.308,1.068,0.448C690.82,299.874,690.924,299.845,691.193,299.844z
			 M671.542,290.126c-0.38-0.099-0.57-0.182-0.762-0.182c-0.086,0-0.171,0.169-0.259,0.262c0.161,0.112,0.312,0.276,0.491,0.312
			C671.112,290.537,671.257,290.346,671.542,290.126z"/>
		<path fill="#FFFFFF" d="M89.258,257.434c2.599-0.02,5.198-0.036,7.797-0.06c2.473-0.023,4.947-0.046,7.42-0.091
			c0.554-0.01,1.106-0.107,1.661-0.164c0.368-0.039,0.756-0.175,1.102-0.102c1.345,0.283,2.681,0.36,4.032,0.072
			c0.132-0.028,0.302-0.031,0.414,0.03c1.027,0.561,2.067,0.495,3.221,0.407c1.504-0.116,3.044,0.236,4.568,0.394
			c1.576,0.165,3.212,0.128,4.712,0.561c1.764,0.509,3.545,1.153,5.032,2.333c1.278,1.013,2.545,2.041,3.81,3.069
			c0.216,0.177,0.426,0.374,0.587,0.599c1.755,2.465,3.765,4.8,4.894,7.624c0.712,1.783,1.331,3.672,1.187,5.698
			c-0.059,0.823,0.13,1.67,0.256,2.5c0.434,2.828,0.01,5.635-0.662,8.326c-0.545,2.178-1.692,4.224-2.715,6.258
			c-0.667,1.326-1.503,2.591-2.417,3.763c-1.053,1.347-2.256,2.58-3.431,3.828c-1.329,1.414-2.912,2.452-4.748,3.112
			c-0.284,0.102-0.479,0.432-0.748,0.61c-0.304,0.198-0.631,0.456-0.969,0.489c-1.248,0.129-2.508,0.148-3.586,0.928
			c-0.067,0.051-0.188,0.069-0.271,0.053c-2.215-0.556-4.51,0.714-6.713-0.297c-0.212-0.097-0.719-0.33-0.577,0.341
			c-0.322,0.048-0.743,0.25-0.95,0.114c-1.52-0.969-3.198-0.424-4.782-0.484c-1.059-0.041-1.766,0.931-2.246,1.871
			c-0.188,0.366-0.333,0.796-0.352,1.204c-0.087,1.989-1.409,3.252-2.574,4.646c-1.58,1.891-3.188,3.777-4.546,5.822
			c-0.863,1.3-1.389,2.867-1.02,4.53c0.068,0.299,0.179,0.617,0.361,0.858c0.84,1.127,0.852,2.439,0.862,3.742
			c0.003,0.505-1.181,1.402-1.646,1.196c-0.333-0.153-0.512-0.68-0.717-1.064c-0.082-0.151-0.071-0.366-0.061-0.55
			c0.12-2.123-0.919-3.704-2.357-5.115c-0.428-0.421-0.772-0.929-1.147-1.402c-0.464-0.589-0.896-0.653-1.338-0.053
			c-0.631,0.855-1.169,1.779-1.741,2.676c-0.1,0.158-0.133,0.386-0.268,0.482c-1.629,1.154-2.897,2.834-4.812,3.544
			c-1.232,0.457-2.586,0.431-3.857,0.023c-0.602-0.192-0.967-0.256-1.615,0.131c-0.896,0.532-2.034,1.015-3.154,0.223
			c-0.129-0.091-0.438,0.02-0.639,0.1c-0.205,0.083-0.361,0.302-0.566,0.355c-0.673,0.167-1.54-0.234-1.641-0.719
			c-0.129-0.615,0.231-1.111,1.138-1.285c1.667-0.326,2.413-1.377,2.719-2.962c0.116-0.607,0.509-1.178,0.862-1.711
			c0.354-0.535,0.86-0.914,0.5-1.729c-0.126-0.286,0.317-0.915,0.626-1.282c0.753-0.889,1.579-1.716,2.375-2.568
			c0.498-0.528,0.692-1.157,0.318-1.796c-0.789-1.345-0.753-2.86-1.022-4.319c-0.306-1.661-0.424-3.327-0.294-5
			c0.052-0.666,0.29-1.339,0.539-1.972c0.317-0.81,0.715-1.592,1.103-2.372c0.538-1.084,0.964-2.253,1.677-3.208
			c1.224-1.64,1.355-3.279,0.268-4.925c-1.023-1.548-1.65-3.227-2.139-4.986c-0.074-0.269-0.203-0.561-0.161-0.817
			c0.327-2.028-0.472-3.934-0.648-5.907c-0.148-1.647-0.625-3.274-1.052-4.885c-0.209-0.789-0.417-1.484-0.008-2.289
			c0.186-0.365,0.162-0.925,0.042-1.342c-0.373-1.289-0.493-2.551-0.072-3.856c0.123-0.382,0.091-0.836,0.041-1.246
			c-0.244-1.986,0.16-3.849,0.872-5.698c0.277-0.717,0.27-1.551,0.336-2.337c0.061-0.705,0.386-1.201,0.912-1.659
			c1.388-1.207,2.927-1.92,4.814-1.898c1.067,0.013,2.137-0.182,3.205-0.283C89.256,257.487,89.257,257.462,89.258,257.434z
			 M114.294,281.334c-0.088-1.821-0.273-3.481-2.186-4.23c-0.083-0.033-0.145-0.117-0.221-0.17c-2.389-1.658-5.04-2.367-7.93-2.119
			c-1.604,0.138-2.372,0.964-2.538,2.611c-0.25,2.503-0.494,5.005-0.727,7.509c-0.113,1.21,0.484,2.048,1.725,2.336
			c1.088,0.255,2.205,0.387,3.293,0.64c1.929,0.447,3.554-0.846,5.392-0.894c0.123-0.003,0.246-0.126,0.361-0.205
			C113.442,285.476,114.268,283.555,114.294,281.334z M99.51,291.454c-1.237,0.509-2.679,1.029-4.044,1.705
			c-0.504,0.249-0.876,0.828-1.218,1.32c-0.446,0.643-0.483,1.464,0.143,1.906c0.963,0.68,0.944,1.411,0.665,2.402
			c-0.261,0.93,0.102,1.502,0.802,1.672c0.578,0.139,1.541-0.304,1.663-0.979c0.205-1.149,1.095-1.706,1.81-2.395
			c0.818-0.787,1.77-0.541,2.267,0.473c0.103,0.207,0.155,0.439,0.255,0.651c0.24,0.508,0.173,1.313,1.029,1.27
			c0.477-0.026,1.236-1.341,1.18-1.918c-0.013-0.137-0.065-0.273-0.121-0.4c-0.296-0.654,0.06-1.068,0.538-1.416
			c0.185-0.136,0.434-0.178,0.626-0.306c0.583-0.39,0.932-0.901,0.797-1.649c-0.125-0.709-0.586-1.003-1.253-1.116
			c-0.363-0.06-0.706-0.229-1.067-0.312C102.317,292.068,101.046,291.793,99.51,291.454z M97.336,309.858
			c0.076-1.465-0.463-1.994-1.417-1.823c-0.638,0.113-1.347,0.191-1.866,0.527c-0.756,0.49-1.466,1.128-2.019,1.842
			c-0.526,0.682-0.823,1.539-1.224,2.318c-0.776,1.511-1.48,3.049-0.867,4.792c0.251,0.72,0.29,1.747,1.164,1.934
			c0.99,0.214,1.531-0.712,2.101-1.366c0.854-0.978,1.687-1.975,2.487-2.994c0.367-0.472,0.717-0.98,0.939-1.527
			C97.176,312.225,97.466,310.828,97.336,309.858z M119.628,283.354c0.003,0.503-0.038,0.793,0.017,1.062
			c0.128,0.619,0.564,1.137,1.163,0.911c1.337-0.504,2.765-0.94,3.724-2.102c0.936-1.134,0.742-4.696-0.245-5.812
			c-0.432-0.487-0.835-0.556-1.267-0.013c-0.232,0.292-0.426,0.646-0.722,0.849C120.421,279.542,120.127,281.596,119.628,283.354z
			 M117.01,297.329c0.002-1.457-0.837-2.277-2.48-2.426c-1.035-0.093-1.771,0.571-1.554,1.594c0.296,1.396,0.753,2.758,1.174,4.126
			c0.188,0.613,0.548,0.593,1.06,0.259C116.511,300.036,116.965,298.794,117.01,297.329z M121.793,298.754
			c0.371-0.002,0.808,0.12,1.096-0.035c0.581-0.312,1.354-0.675,1.549-1.202c0.277-0.748-0.491-1.248-1.151-1.488
			c-0.949-0.348-1.935-0.616-2.925-0.834c-0.437-0.096-0.927-0.033-1.381,0.036c-0.619,0.097-0.861,0.462-0.644,1.102
			C118.999,298.289,119.727,298.807,121.793,298.754z M126.515,284.095c0.095,0.015,0.191,0.029,0.287,0.044
			c-0.265,0.883-0.556,1.758-0.785,2.651c-0.134,0.524-0.304,1.102-0.203,1.604c0.073,0.364,0.513,0.773,0.885,0.927
			c0.523,0.218,0.865-0.223,1.049-0.682c0.293-0.734,0.452-1.538,0.833-2.221c1.05-1.887-0.03-3.363-0.854-4.885
			c-0.127-0.231-0.525-0.317-0.797-0.469c-0.143,0.265-0.391,0.524-0.411,0.799C126.465,282.603,126.509,283.349,126.515,284.095z
			 M132.27,285.527c1.318,0.004,2.383-1.397,1.683-2.248c-0.978-1.19-1.771-2.601-3.288-3.285c-0.868-0.392-1.331-0.2-1.391,0.751
			c-0.024,0.354,0.067,0.739,0.195,1.076c0.277,0.729,0.625,1.435,0.922,2.158C130.756,284.863,131.339,285.456,132.27,285.527z
			 M127.499,277.019c-0.049,1.423,0.758,2.06,2.128,1.679c0.848-0.236,1.963-1.572,2.049-2.453c0.136-1.408-0.632-2.108-2.024-1.844
			C128.202,274.674,127.554,275.463,127.499,277.019z M118.805,290.896c-0.065-0.541-0.115-0.958-0.169-1.375
			c-0.017-0.139-0.03-0.282-0.072-0.413c-0.297-0.907-1.18-1.247-1.846-0.603c-0.521,0.502-0.907,1.172-1.252,1.823
			c-0.227,0.425,0.603,2.569,0.984,2.783c0.078,0.043,0.179,0.045,0.27,0.061c1.179,0.188,1.655-0.139,1.893-1.297
			C118.687,291.511,118.756,291.145,118.805,290.896z M125.235,274.116c-0.529-1.266-1.149-2.534-2.297-3.47
			c-0.035-0.029-0.087-0.06-0.126-0.053c-0.348,0.05-0.752,0.021-1.017,0.199c-0.138,0.094-0.09,0.569-0.022,0.847
			c0.347,1.376,1.215,2.467,2.058,3.559c0.414,0.539,0.886,0.439,1.162-0.185C125.102,274.764,125.14,274.483,125.235,274.116z
			 M111.212,291.942c-1.183-0.003-2.206,0.692-2.222,1.51c-0.016,0.772,0.694,1.403,1.6,1.422c1.061,0.023,1.674-0.637,1.667-1.793
			C112.25,292.222,111.996,291.945,111.212,291.942z M116.017,268.943c1.048-0.015,1.54-0.455,1.407-1.038
			c-0.229-1.017-2.431-2.095-3.347-1.628c-0.397,0.202-0.806,0.56-0.438,0.977C114.341,268.047,115.197,268.68,116.017,268.943z
			 M117.162,273.625c0.207,0.304,0.418,0.861,0.618,0.856c0.399-0.008,1.021-0.233,1.141-0.533c0.336-0.842,0.496-1.761,0.647-2.664
			c0.031-0.18-0.243-0.534-0.441-0.594c-0.197-0.061-0.527,0.092-0.709,0.253C117.65,271.622,117.267,272.488,117.162,273.625z
			 M100.521,308.775c0.062,0.356,0.022,0.7,0.177,0.873c0.165,0.185,0.583,0.36,0.765,0.274c0.785-0.371,1.097-2.276,0.534-2.945
			c-0.393-0.469-0.81-0.448-1.048,0.134C100.727,307.658,100.648,308.262,100.521,308.775z M85.532,322.404
			c-0.124-0.157-0.368-0.734-0.636-0.746c-0.674-0.026-0.816,0.642-0.962,1.177c-0.126,0.469,0.013,0.841,0.545,0.936
			C84.999,323.868,85.417,323.418,85.532,322.404z M120.564,267.381c0.343-0.431,0.721-0.731,0.846-1.114
			c0.109-0.333-0.056-0.763-0.135-1.143c-0.009-0.042-0.254-0.076-0.374-0.046c-0.537,0.135-1.08,1.165-0.87,1.682
			C120.107,266.944,120.301,267.081,120.564,267.381z M82.794,325.521c-0.339-0.259-0.532-0.402-0.725-0.55
			c-0.168,0.241-0.383,0.466-0.479,0.73c-0.028,0.078,0.323,0.427,0.406,0.393C82.246,326,82.451,325.783,82.794,325.521z
			 M96.33,268.353c-0.335-0.158-0.536-0.333-0.712-0.311c-0.15,0.02-0.27,0.266-0.404,0.413c0.196,0.091,0.387,0.233,0.589,0.253
			C95.924,268.719,96.066,268.54,96.33,268.353z M89.696,265.417c-0.15,0.16-0.286,0.261-0.351,0.398
			c-0.021,0.045,0.176,0.269,0.221,0.253c0.146-0.049,0.283-0.159,0.388-0.275C89.972,265.772,89.825,265.601,89.696,265.417z"/>
		<path fill="#FFFFFF" d="M23.22,319.749c-0.597,0.004-1.21,0.098-1.787-0.01c-0.667-0.123-1.381-0.304-1.933-0.672
			c-0.93-0.623-0.838-1.482,0.083-2.14c1.166-0.832,2.324-1.676,3.479-2.524c0.949-0.697,1-2.089,0.054-2.805
			c-0.419-0.317-0.961-0.488-1.467-0.672c-0.416-0.152-0.909-0.139-1.285-0.345c-1.684-0.935-3.282-0.502-4.524,0.631
			c-1.854,1.694-3.32,3.71-3.021,6.471c0.032,0.295-0.026,0.667,0.131,0.873c1.593,2.062,2.708,4.487,5.302,5.748
			c1.218,0.593,2.156,1.045,3.431,0.452c0.327-0.15,0.787,0.017,1.178-0.028c2.26-0.246,4.521-0.481,6.772-0.795
			c0.463-0.067,0.886-0.431,1.325-0.66c0.746-0.388,1.465-0.84,2.239-1.159c1.192-0.493,2.338-1.009,3.298-1.923
			c0.392-0.378,1.024-0.492,1.526-0.761c0.246-0.13,0.574-0.297,0.648-0.523c0.341-1.021,0.795-2.058,0.853-3.107
			c0.083-1.526-0.146-3.067-0.226-4.606c-0.094-1.798-0.65-3.379-1.993-4.666c-0.568-0.542-1.044-1.201-1.472-1.864
			c-0.98-1.524-2.413-2.295-4.082-2.899c-1.276-0.463-2.401-1.34-3.6-2.021c-0.509-0.288-1.036-0.547-1.553-0.821
			c-0.437-0.231-0.887-0.439-1.305-0.7c-1.254-0.779-2.5-1.572-3.74-2.373c-0.496-0.32-1.05-0.606-1.438-1.034
			c-1.069-1.183-2.445-1.854-3.88-2.384c-0.605-0.222-1.336-0.119-2.009-0.125c-0.396-0.002-0.789,0.105-1.184,0.114
			c-2.176,0.048-2.513-0.394-1.96-2.562c0.049-0.191,0.211-0.386,0.186-0.559c-0.059-0.418-0.094-0.914-0.345-1.203
			c-0.146-0.169-0.747-0.116-1.035,0.039c-1.054,0.569-1.971,0.408-2.905-0.271c-0.601-0.435-0.733-0.894-0.362-1.521
			c0.125-0.215,0.24-0.436,0.348-0.66c0.571-1.177,0.569-1.177-0.522-1.993c-1.418-1.059-1.375-2.885,0.092-3.938
			c0.723-0.521,1.438-1.052,2.171-1.558c1.674-1.156,1.633-2.346-0.138-3.423c-0.635-0.387-1.28-0.755-1.922-1.131
			c-0.653-0.381-0.847-0.955-0.657-1.655c0.212-0.78,0.963-1.448,1.65-1.466c1.04-0.026,2.1-0.118,2.992,0.605
			c0.459,0.37,0.901,0.349,1.326-0.071c0.494-0.487,1.066-0.912,1.476-1.46c0.736-0.988,0.634-1.84-0.392-2.555
			c-0.795-0.553-0.861-1.334-0.839-2.088c0.01-0.363,0.479-0.874,0.857-1.025c0.529-0.212,1.167-0.182,1.76-0.199
			c0.645-0.017,1.293,0.063,1.938,0.045c0.587-0.017,1.275,0.031,1.519-0.678c0.255-0.744,0.14-1.447-0.443-2.064
			c-1.027-1.088-1.139-1.772-0.49-2.557c0.59-0.716,1.89-0.901,2.864-0.321c0.499,0.298,0.936,0.726,1.351,1.141
			c0.99,0.996,2.733,1.123,3.794,0.21c0.475-0.408,0.525-0.957,0.23-1.484c-0.164-0.296-0.414-0.581-0.696-0.765
			c-0.64-0.422-0.804-0.931-0.574-1.66c0.245-0.782,0.651-1.404,1.51-1.43c1.834-0.055,3.697-0.162,4.994,1.587
			c0.618,0.83,1.497,0.895,2.424,0.529c0.276-0.11,0.545-0.276,0.832-0.317c0.935-0.132,1.32-0.706,1.531-1.574
			c0.342-1.401,1.166-1.762,2.425-1.071c1.002,0.549,1.786,1.308,2.469,2.288c1.263,1.815,2.817,3.363,5.324,3.256
			c0.978-0.042,1.957-0.05,2.934-0.056c0.646-0.004,1.303-0.045,1.936,0.053c0.822,0.129,1.144,0.736,0.646,1.396
			c-0.389,0.519-0.233,0.788-0.048,1.277c0.259,0.682,0.297,1.446,0.432,2.174c0.136,0.731,0.333,1.353,0.993,1.896
			c0.911,0.751,1.581,1.743,1.768,3.012c0.194,1.318,0.896,2.335,1.951,3.225c1.727,1.457,3.331,3.061,4.941,4.65
			c0.531,0.525,1.07,0.793,1.821,0.834c1.24,0.066,1.496,0.465,1.484,1.698c-0.02,1.999-0.997,3.506-2.665,4.343
			c-1.667,0.835-3.451,0.524-5.102-0.406c-1.2-0.675-2.432-1.291-3.655-1.923c-0.173-0.089-0.377-0.185-0.562-0.176
			c-1.45,0.065-2.828-0.257-4.231-0.596c-1.487-0.36-2.892-0.688-4.25-1.533c-3.028-1.884-6.407-2.648-9.957-1.981
			c-1.75,0.329-3.459,0.967-4.432,2.68c-1.052,1.851-1.118,3.537,0.659,4.891c2.239,1.705,4.506,3.277,7.371,3.972
			c1.648,0.401,3.331,0.846,4.964,1.385c0.372,0.122,0.783,0.195,1.172,0.184c1.75-0.05,3.341,0.646,4.792,1.393
			c2.009,1.036,3.843,2.431,5.687,3.764c1.08,0.782,2.034,1.74,3.042,2.623c0.072,0.064,0.163,0.147,0.178,0.232
			c0.293,1.801,1.627,3.265,1.552,5.213c-0.09,2.382,0.013,4.771,0.006,7.157c-0.001,0.388-0.028,0.843-0.226,1.145
			c-1.051,1.618-1.55,3.493-2.624,5.121c-1.329,2.008-2.971,3.703-4.647,5.379c-2.509,2.511-5.503,4.305-8.771,5.68
			c-0.524,0.217-1.006,0.654-1.383,1.096c-0.811,0.945-1.812,1.328-3.025,1.321c-2.554-0.016-4.716,0.994-6.585,2.661
			c-0.685,0.61-1.446,0.512-2.24,0.524c-0.878,0.011-1.752,0.135-2.63,0.165c-1.503,0.056-3.018,0.441-4.354-0.795
			c-1.077-0.998-2.445-1.41-3.978-1.361c-0.815,0.023-1.65-0.268-2.46-0.479c-3.246-0.838-6.196-2.334-8.963-4.189
			c-0.536-0.359-0.882-1.017-1.275-1.566c-0.198-0.278-0.262-0.656-0.466-0.928c-0.575-0.767-0.645-1.587-0.583-2.529
			c0.149-2.225,0.242-4.461,0.194-6.69c-0.035-1.648,0.36-3.124,1.031-4.599c1.209-2.646,3.103-4.633,5.394-6.41
			c1.477-1.147,3.113-1.708,4.792-2.173c1.115-0.307,2.41-0.347,3.544-0.112c2.843,0.593,5.723,1.235,7.742,3.637
			c1.919,0.816,1.843,2.615,2.051,4.247c0.176,1.379,0.273,2.766,0.386,4.149c0.114,1.41-0.12,2.669-1.47,3.485
			c-0.328,0.2-0.561,0.557-0.833,0.848C25.97,319.896,25.97,319.896,23.22,319.749z M45.076,306.506
			c-0.257,1.677-0.005,3.073,0.772,4.341c0.652,1.068,2.071,1.46,3.279,0.986c0.653-0.257,0.94-1.28,0.659-2.512
			c-0.085-0.373-0.237-0.745-0.431-1.076c-0.893-1.521-1.926-2.938-2.182-4.791c-0.191-1.382-1.318-2.156-2.568-2.643
			c-0.521-0.203-0.761,0.06-0.642,0.599c0.052,0.238,0.149,0.475,0.265,0.688C45.02,303.543,45.123,305.108,45.076,306.506z
			 M42.098,298.125c0.018-0.91-1.571-2.627-2.212-2.669c-0.715-0.047-1.339,0.746-1.042,1.392c0.269,0.582,0.545,1.212,0.991,1.644
			c0.388,0.377,1.04,0.725,1.528,0.67C41.694,299.125,41.942,298.366,42.098,298.125z M43.547,318.239
			c-0.248,0.208-0.598,0.381-0.726,0.654c-0.125,0.265-0.018,0.636-0.013,0.961c0.265-0.02,0.546,0.017,0.79-0.066
			c0.806-0.27,1.046-1.024,1.219-1.72c0.054-0.219-0.346-0.682-0.638-0.819c-0.281-0.135-0.692,0.006-1.045,0.027
			c0.076,0.229,0.147,0.46,0.233,0.684C43.402,318.046,43.469,318.117,43.547,318.239z M27.713,289.018
			c-0.46-0.247-0.761-0.532-1.056-0.526c-0.246,0.004-0.485,0.352-0.728,0.546c0.366,0.19,0.719,0.42,1.106,0.545
			C27.144,289.617,27.353,289.329,27.713,289.018z"/>
		<path fill="#FFFFFF" d="M576.686,255.948c4.613-0.129,9.225-0.286,13.839-0.377c2.333-0.046,4.665-0.003,6.992,0.069
			c0.399,0.012,0.902,0.298,1.13,0.618c0.11,0.157-0.213,0.79-0.493,1.024c-1.281,1.074-2.516,2.273-3.972,3.047
			c-0.909,0.483-2.177,0.312-3.29,0.397c-2.921,0.227-5.667,0.993-8.134,2.613c-0.614,0.404-1.351,0.792-1.126,1.734
			c0.198,0.838,0.718,1.359,1.596,1.574c2.441,0.602,4.883,1.151,7.429,1.065c0.669-0.023,1.701-0.029,1.943,0.353
			c0.426,0.669-0.474,1.193-0.928,1.652c-1.633,1.651-3.314,3.254-5.005,4.85c-2.105,1.987-3.637,4.316-4.534,7.09
			c-1.29,3.971-1.051,7.997-0.57,12.037c0.064,0.539,0.274,1.099,0.557,1.566c0.61,1.022,1.05,1.12,2.166,0.613
			c1.063-0.48,2.098-1.016,3.172-1.459c0.279-0.115,0.66,0.021,0.996,0.042c-0.071,0.349-0.037,0.789-0.241,1.028
			c-0.601,0.708-1.289,1.343-1.953,1.995c-0.201,0.194-0.458,0.326-0.661,0.518c-0.892,0.86-0.917,1.335-0.004,2.213
			c1.315,1.266,2.653,2.517,4.653,2.558c0.472,0.012,0.726,0.24,0.847,0.748c0.71,2.961,2.726,4.607,5.734,4.713
			c1.07,0.037,2.15,0.066,3.216-0.014c0.635-0.048,1.116,0.119,1.479,0.582c2.311,2.932,8.328,1.679,9.653-1.297
			c0.655-1.475,1.873-2.08,3.664-1.862c1.739,0.211,3.555,0.045,5.306-0.187c2.162-0.29,4.282-0.09,6.418,0.12
			c0.595,0.058,0.975,0.35,1.071,0.921c0.161,0.917,0.342,1.841,0.384,2.767c0.149,3.4,0.228,6.807,0.378,10.209
			c0.031,0.688,0.264,1.368,0.388,2.053c0.073,0.412,0.164,0.826,0.176,1.242c0.021,1.016-0.012,2.032-0.004,3.048
			c0.017,1.737-0.91,3.05-2.608,3.184c-1.654,0.129-3.335-0.08-5.005-0.15c-1.957-0.081-3.912-0.218-5.869-0.251
			c-2.746-0.045-5.492,0.026-8.238-0.037c-1.722-0.041-3.438-0.27-5.161-0.362c-1.064-0.056-2.133-0.017-3.2-0.01
			c-2.094,0.017-4.191,0.106-6.281,0.031c-2.048-0.07-4.088-0.322-6.133-0.462c-0.695-0.047-1.371,0.006-1.975-0.5
			c-0.205-0.169-0.814-0.164-0.99,0.012c-0.594,0.588-1.134,0.438-1.781,0.161c-0.569-0.246-1.168-0.293-1.715,0.159
			c-0.545,0.444-1.084,0.276-1.696,0.036c-0.469-0.183-1.047-0.095-1.579-0.087c-0.585,0.006-1.167,0.066-1.753,0.086
			c-0.723,0.02-1.466-0.082-2.164,0.052c-0.568,0.108-0.963-0.001-1.156-0.475c-0.296-0.725-0.621-1.48-0.689-2.247
			c-0.132-1.479-0.099-2.979-0.13-4.47c-0.134-6.3-0.261-12.601-0.403-18.9c-0.122-5.408-0.311-10.815-0.373-16.224
			c-0.047-4.005-0.376-7.993-0.525-11.99c-0.114-3.159-0.251-6.317-0.372-9.474c-0.071-1.907-0.134-3.815-0.185-5.723
			c-0.05-1.729,0.636-2.506,2.382-2.573c1.772-0.068,3.547-0.038,5.32-0.051C576.684,255.681,576.686,255.814,576.686,255.948z"/>
		<path fill="#FFFFFF" d="M322.842,326.967c-2.1,0.019-4.203,0.072-6.303,0.022c-0.574-0.013-1.187-0.261-1.701-0.546
			c-2.654-1.473-4.307-3.522-4.259-6.784c0.049-3.348-0.154-6.7-0.245-10.049c-0.008-0.28-0.041-0.568,0.008-0.84
			c0.546-3.02,0.358-6.051,0.191-9.085c-0.073-1.329,0.141-2.6,0.741-3.804c1.313-2.636,3.646-3.711,6.375-4.156
			c0.251-0.042,0.552,0.209,0.829,0.325c-0.156,0.3-0.3,0.607-0.472,0.899c-0.038,0.065-0.161,0.091-0.25,0.116
			c-2.862,0.842-3.309,3.347-3.741,5.72c-0.21,1.151,0.167,2.401,0.215,3.61c0.097,2.374,0.091,4.753,0.234,7.124
			c0.153,2.554,0.305,5.119,0.686,7.643c0.305,2.019,1.605,3.293,3.56,4.133c1.912,0.819,3.826,0.717,5.765,0.658
			c0.542-0.016,1.144-0.364,1.596-0.713c2.574-2.003,3.105-4.909,3.156-7.892c0.042-2.466-0.239-4.936-0.384-7.401
			c-0.038-0.657-0.036-1.479-0.913-1.464c-0.731,0.014-0.885,0.794-0.893,1.388c-0.034,2.226-0.598,4.447,0.097,6.68
			c0.365,1.175,0.133,2.331-0.813,3.229c-0.188,0.177-0.467,0.253-0.705,0.382c-0.085-0.236-0.189-0.468-0.251-0.707
			c-0.175-0.67-0.248-1.386-0.528-2.004c-0.186-0.411-0.634-0.934-1.011-0.979c-0.604-0.065-1.103,0.386-1.3,1.048
			c-0.069,0.233-0.228,0.439-0.346,0.659c-0.161-0.212-0.331-0.42-0.479-0.638c-0.048-0.071-0.021-0.192-0.063-0.27
			c-0.206-0.388-0.425-0.765-0.638-1.148c-0.35,0.341-0.727,0.658-1.039,1.025c-0.138,0.163-0.131,0.442-0.218,0.657
			c-0.178,0.433-0.222,1.239-0.916,0.331c-0.101-0.132-0.416-0.113-0.636-0.141c-1.175-0.154-1.807-0.877-1.48-2.017
			c0.582-2.029,1.368-3.964,3.46-5c1.282-0.637,1.274-1.008,0.877-2.351c-0.572-1.935-2.031-3.333-2.872-5.096
			c-0.678-1.422-0.831-2.709,0.283-4.026c0.983-1.164,2.581-1.64,4.006-0.994c0.68,0.31,1.333,0.679,2.024,0.959
			c1.041,0.422,1.29,0.212,1.402-0.886c0.36-3.497-2.098-6.193-5.699-7.216c-0.805-0.229-1.6-0.499-2.411-0.706
			c-0.667-0.172-1.047-0.557-1.162-1.237c-0.045-0.271-0.11-0.568-0.264-0.781c-0.11-0.148-0.386-0.176-0.587-0.258
			c-0.023,0.166-0.053,0.329-0.067,0.494c-0.011,0.125,0,0.251,0,0.378c-0.167-0.044-0.371-0.041-0.495-0.14
			c-1.054-0.848-1.419-2.031-1.555-3.316c-0.01-0.091,0.012-0.185,0.019-0.279c0.058-0.735,0.317-1.599-0.609-1.943
			c-0.923-0.344-1.267,0.604-1.786,1.071c-0.291,0.26-0.38,0.735-0.594,1.093c-0.151,0.253-0.322,0.567-0.561,0.666
			c-0.134,0.054-0.572-0.244-0.611-0.437c-0.052-0.264,0.112-0.592,0.247-0.862c0.099-0.201,0.349-0.33,0.445-0.532
			c0.241-0.501,0.544-1.009,0.607-1.542c0.04-0.329-0.233-0.876-0.515-1.011c-0.262-0.124-0.768,0.099-1.082,0.3
			c-0.252,0.161-0.34,0.561-0.572,0.778c-0.165,0.153-0.451,0.176-0.683,0.259c0.021-0.242-0.048-0.562,0.08-0.709
			c0.457-0.525,1.031-0.954,1.465-1.496c0.344-0.43,1.048-0.834,0.574-1.535c-0.318-0.468-1.891-0.485-2.322,0.013
			c-0.437,0.503-0.705,1.155-1.041,1.746c-0.103,0.183-0.184,0.378-0.276,0.567c-0.161-0.151-0.378-0.272-0.474-0.456
			c-0.434-0.837-0.059-2.002,0.864-2.532c1.138-0.655,2.393-0.935,3.629-0.39c2.643,1.165,5.166-0.612,6.372-2.413
			c0.292-0.435,0.381-1.058,0.402-1.601c0.01-0.29-0.288-0.625-0.513-0.88c-0.141-0.159-0.485-0.149-0.604-0.312
			c-0.525-0.718-1.098-0.637-1.659-0.114c-0.48,0.449-0.955,0.439-1.541,0.26c-0.526-0.162-1.095-0.183-1.645-0.267
			c-0.897-0.138-1.878-0.024-2.469-0.988c-0.122-0.199-0.474-0.307-0.739-0.362c-1.394-0.28-2.119-1.263-2.669-2.453
			c-0.486-1.051-0.276-2.122,0.709-2.677c1.902-1.071,3.852-2.06,5.794-3.061c2.414-1.245,5.029-1.228,7.649-1.206
			c0.83,0.006,1.661-0.142,2.492-0.183c0.691-0.034,1.478-0.234,2.058,0.016c1.865,0.809,3.466,0.01,5.12-0.588
			c0.263-0.094,0.511-0.234,0.752-0.379c0.591-0.354,1.236-1.004,1.434,0.346c0.008,0.051,0.562,0.132,0.775,0.025
			c1.287-0.641,2.548-1.336,3.824-1.999c0.15-0.078,0.345-0.067,0.52-0.096c-0.061,0.195-0.083,0.418-0.195,0.581
			c-0.261,0.384-0.653,0.703-0.823,1.116c-0.117,0.284-0.018,0.72,0.129,1.016c0.048,0.096,0.598,0.052,0.839-0.076
			c0.988-0.526,1.914-1.173,2.923-1.649c0.834-0.396,1.747-0.629,2.635-0.9c0.133-0.042,0.324,0.104,0.488,0.163
			c-0.065,0.155-0.09,0.352-0.202,0.458c-0.601,0.573-1.219,1.131-1.841,1.683c-0.741,0.66-0.755,1.048,0.018,1.683
			c0.432,0.355,0.92,0.638,1.365,0.979c0.33,0.254,0.668,0.516,0.931,0.834c0.159,0.193,0.182,0.5,0.264,0.756
			c-0.244,0.042-0.488,0.091-0.733,0.118c-0.089,0.01-0.187-0.066-0.272-0.051c-0.392,0.069-0.779,0.157-1.168,0.237
			c0.156,0.413,0.236,0.881,0.485,1.228c0.487,0.678,1.091,1.272,1.599,1.937c0.142,0.184,0.116,0.495,0.169,0.747
			c-0.217,0.012-0.433,0.042-0.647,0.028c-0.134-0.009-0.273-0.14-0.394-0.12c-0.211,0.035-0.492,0.09-0.586,0.236
			c-0.071,0.112,0.074,0.397,0.174,0.576c0.493,0.873,1.138,1.689,1.474,2.616c0.434,1.199,0.036,1.548-1.253,1.392
			c-0.205-0.023-0.54,0.004-0.607,0.124c-0.087,0.155-0.023,0.459,0.078,0.642c0.225,0.407,0.529,0.769,0.77,1.167
			c0.239,0.397,0.496,0.8,0.64,1.234c0.091,0.278-0.005,0.621-0.018,0.935c-0.29-0.066-0.597-0.091-0.864-0.208
			c-0.554-0.242-1.069-0.578-1.634-0.776c-0.178-0.062-0.5,0.153-0.682,0.32c-0.053,0.049,0.099,0.401,0.227,0.56
			c0.634,0.803,1.319,1.569,1.93,2.389c0.299,0.402,0.488,0.889,0.703,1.349c0.072,0.158,0.067,0.349,0.098,0.524
			c-0.207-0.025-0.42-0.029-0.618-0.083c-0.404-0.11-0.791-0.294-1.199-0.367c-0.958-0.174-1.38,0.27-1.005,1.163
			c0.339,0.809,0.864,1.542,1.322,2.299c1.099,1.819,1.871,3.772,1.918,5.899c0.096,4.385,0.076,8.772,0.101,13.157
			c0.02,3.451,0.275,6.927-0.022,10.351c-0.224,2.559,0.319,5.095-0.211,7.655c-0.372,1.79-1.195,3.316-2.017,4.871
			c-0.194,0.364-0.705,0.595-1.111,0.807c-1.684,0.874-3.484,1.263-5.381,1.334c-3.823,0.139-7.643,0.338-11.464,0.513
			C322.844,327.043,322.843,327.005,322.842,326.967z M323.264,270.203c0.525-0.329,1.288-0.671,1.874-1.209
			c0.539-0.496,0.338-1.478-0.221-1.831c-0.639-0.406-2.937-0.358-3.483,0.182c-0.321,0.319-0.571,0.839-0.607,1.288
			c-0.048,0.579,0.308,1.068,0.925,1.242C322.152,269.987,322.566,270.053,323.264,270.203z M342.121,288.517
			c-0.254-0.972-0.407-1.797-0.703-2.569c-0.104-0.272-0.554-0.57-0.842-0.566c-0.278,0.003-0.733,0.342-0.792,0.605
			c-0.23,1.043-0.367,2.122,0.367,3.061c0.312,0.397,0.662,0.962,1.225,0.61C341.738,289.43,341.897,288.88,342.121,288.517z
			 M342.282,306.162c-0.354-0.679-0.662-1.501-1.167-2.174c-0.504-0.674-1.157-0.479-1.455,0.325
			c-0.341,0.914,0.2,2.709,0.994,3.294c0.466,0.341,0.886,0.276,1.169-0.216C341.999,307.083,342.08,306.719,342.282,306.162z
			 M339.524,293.532c0.14,0.426,0.288,1.112,0.601,1.713c0.122,0.236,0.637,0.425,0.928,0.373c0.281-0.049,0.625-0.39,0.731-0.68
			c0.339-0.921-0.13-2.261-0.917-2.89c-0.569-0.453-1.032-0.317-1.233,0.388C339.557,292.699,339.574,292.987,339.524,293.532z
			 M339.582,299.908c0.183,0.431,0.357,1.122,0.751,1.646c0.207,0.275,0.839,0.419,1.204,0.324c0.235-0.059,0.533-0.71,0.453-1.002
			c-0.217-0.788-0.594-1.537-0.965-2.271c-0.104-0.206-0.421-0.448-0.616-0.429c-0.212,0.021-0.467,0.293-0.574,0.517
			C339.699,298.975,339.695,299.318,339.582,299.908z M320.232,258.999c-1.417-0.082-2.418,1.106-2.039,2.17
			c0.19,0.533,0.516,0.773,1.069,0.489c0.619-0.317,1.238-0.634,1.839-0.979c0.56-0.321,0.61-0.864,0.09-1.229
			C320.857,259.214,320.443,259.094,320.232,258.999z M341.535,312.414c-0.312-0.963-0.526-1.819-0.868-2.619
			c-0.255-0.599-0.65-0.567-1.011-0.008c-0.702,1.087-0.096,2.052,0.345,2.995c0.12,0.258,0.65,0.562,0.856,0.483
			C341.148,313.156,341.315,312.714,341.535,312.414z M322.085,261.986c-0.147-0.094-0.387-0.374-0.567-0.339
			c-0.752,0.146-1.499,0.344-2.221,0.602c-0.583,0.209-0.542,0.686-0.293,1.147c0.303,0.562,0.773,0.762,1.399,0.585
			C321.095,263.786,322.144,262.634,322.085,261.986z M313.141,322.017c-0.086,0.15-0.327,0.387-0.344,0.642
			c-0.044,0.643,1.123,1.849,1.803,1.886c0.178,0.013,0.475-0.144,0.535-0.295C315.428,323.507,314.143,321.936,313.141,322.017z
			 M312.874,320.163c0.104-0.132,0.444-0.368,0.49-0.65c0.107-0.653-0.831-1.512-1.474-1.341c-0.245,0.068-0.527,0.502-0.544,0.787
			C311.308,319.591,312.03,320.203,312.874,320.163z M312.922,309.769c-0.318-0.372-0.55-0.646-0.785-0.919
			c-0.148,0.19-0.441,0.403-0.416,0.567c0.066,0.416,0.277,0.81,0.429,1.213C312.372,310.384,312.59,310.14,312.922,309.769z
			 M312.402,314.764c-0.345-0.255-0.532-0.434-0.755-0.532c-0.056-0.026-0.341,0.229-0.322,0.3c0.05,0.196,0.179,0.452,0.336,0.507
			C311.807,315.089,312.035,314.911,312.402,314.764z M308.57,263.774c-0.116-0.173-0.186-0.276-0.255-0.38
			c-0.198,0.216-0.399,0.429-0.581,0.659c-0.009,0.012,0.234,0.256,0.248,0.245C308.183,264.145,308.364,263.967,308.57,263.774z"/>
		<path fill="#FFFFFF" d="M603.693,267.076c1.45-0.184,2.38,0.426,2.996,1.642c0.661,1.309,0.855,2.554-0.232,3.758
			c-1.241,1.375-2.049,1.694-3.97,1.141c-0.66-0.191-1.306-0.505-1.9-0.863c-1.536-0.929-1.782-2.732-0.515-4.02
			C601.072,267.726,602.201,266.893,603.693,267.076z M605.503,270.632c-0.104-0.304-0.207-0.82-0.462-1.249
			c-0.132-0.226-0.521-0.406-0.795-0.402c-0.185,0.002-0.471,0.33-0.529,0.559c-0.161,0.628-0.286,1.277-0.308,1.924
			c-0.007,0.236,0.271,0.632,0.495,0.697C604.673,272.382,605.5,271.65,605.503,270.632z"/>
		<path fill="#FFFFFF" d="M415.784,265.121c-0.893-0.051-1.906-0.325-2.583-1.287c-0.802-1.143-0.812-2.227-0.074-3.21
			c0.883-1.172,2.529-1.865,3.648-1.418c1.161,0.462,2.382,0.928,2.574,2.446C419.574,263.429,417.969,265.094,415.784,265.121z"/>
		<path fill="#FFFFFF" d="M403.767,265.374c-1.476,0.026-2.809-0.828-3.325-2.127c-0.378-0.943,0.146-2.363,1.194-3.033
			c1.351-0.862,2.767-1.018,4.23-0.232c0.687,0.369,1.056,0.892,0.969,1.69c-0.051,0.463-0.065,0.933-0.158,1.387
			C406.373,264.481,405.269,265.348,403.767,265.374z"/>
		<path fill="#FFFFFF" d="M428.456,321.665c1.653-0.172,2.892,1.295,2.93,2.219c0.043,1.06-1.374,2.654-2.42,2.724
			c-1.137,0.072-2.887-1.436-2.928-2.527C425.983,322.619,426.91,321.693,428.456,321.665z"/>
		<path fill="#FFFFFF" d="M389.508,318.084c1.235-0.021,2.689,1.289,2.715,2.154c0.023,0.747-1.112,1.788-2.032,1.791
			c-0.997,0.006-1.611-0.693-2.087-1.424c-0.44-0.677-0.068-1.375,0.404-1.891C388.823,318.368,389.324,318.193,389.508,318.084z"/>
		<path fill="#FFFFFF" d="M590.327,263.833c0.512,0.026,1.024,0.062,1.539,0.074c0.489,0.011,1.044,0.053,1.092,0.628
			c0.059,0.684-0.582,0.784-1.077,0.827c-0.883,0.078-1.775,0.12-2.659,0.077c-0.834-0.042-1.665-0.19-2.488-0.345
			c-0.164-0.031-0.29-0.297-0.432-0.456c0.146-0.097,0.28-0.252,0.437-0.283c1.186-0.229,2.378-0.435,3.566-0.647
			C590.312,263.749,590.318,263.792,590.327,263.833z"/>
		<path fill="#FFFFFF" d="M220.349,288.498c-0.507,0.128-0.699,0.241-0.854,0.203c-0.404-0.097-1.01-0.047-0.86-0.744
			c0.035-0.162,0.41-0.419,0.488-0.377C219.479,287.772,219.784,288.058,220.349,288.498z"/>
		<path fill="#FFFFFF" d="M247.458,326.639c-0.263,0.17-0.418,0.344-0.506,0.315c-0.258-0.083-0.49-0.25-0.733-0.381
			c0.121-0.169,0.306-0.495,0.356-0.478C246.842,326.199,247.075,326.39,247.458,326.639z"/>
		<path fill="#FFFFFF" d="M254.772,332.326c0.16-0.248,0.279-0.434,0.399-0.618c0.156,0.204,0.423,0.406,0.436,0.62
			c0.012,0.193-0.254,0.402-0.397,0.607C255.076,332.749,254.942,332.562,254.772,332.326z"/>
	</g>
</g>
</svg>
