<?xml version="1.0" encoding="utf-8"?>
<!-- Generator: Adobe Illustrator 16.0.0, SVG Export Plug-In . SVG Version: 6.00 Build 0)  -->
<!DOCTYPE svg PUBLIC "-//W3C//DTD SVG 1.1//EN" "http://www.w3.org/Graphics/SVG/1.1/DTD/svg11.dtd">
<svg version="1.1" id="Layer_1" xmlns="http://www.w3.org/2000/svg" xmlns:xlink="http://www.w3.org/1999/xlink" x="0px" y="0px"
	 width="800px" height="600px" viewBox="0 0 800 600" enable-background="new 0 0 800 600" xml:space="preserve">
<path fill-rule="evenodd" clip-rule="evenodd" fill="#FFFFFF" d="M27.385,385.111c0.209-2.547,3.475-14.792,4.531-18.32
	c0.748-2.502,1.989-4.879,3.196-7.215c2.323-4.496,4.455-9.143,7.27-13.318c2.794-4.145,6.327-7.791,9.547-11.646
	c0.268-0.32,0.656-0.538,0.935-0.852c3.329-3.748,6.585-7.563,9.997-11.234c1.517-1.63,1.53-3.144,0.351-4.817
	c-2.039-2.896-3.495-6.044-4.076-9.539c-0.291-1.75-0.523-3.548-0.456-5.312c0.21-5.457,0.014-10.94,1.684-16.287
	c1.159-3.711,1.74-7.599,2.751-11.361c0.429-1.595,1.26-3.091,1.977-4.599c3.206-6.746,6.357-13.523,10.506-19.769
	c0.117-0.176,0.232-0.361,0.386-0.502c6.427-5.918,12.057-12.596,18.896-18.187c6.742-5.513,14.305-9.658,21.282-14.727
	c1.796-1.305,4.537-1.318,6.855-1.877c0.229-0.056,0.784,0.26,0.772,0.341c-0.072,0.481-0.17,1.01-0.438,1.399
	c-1.055,1.53-2.504,2.878-3.192,4.548c-0.936,2.266,0.035,3.138,2.467,2.542c2.974-0.728,4.851-2.923,6.508-5.261
	c0.758-1.068,0.136-1.959-1.02-2.515c-0.404-0.195-0.671-0.677-1.001-1.029c0.44-0.407,0.822-1.053,1.332-1.179
	c2.164-0.534,4.443-0.296,5.945,1.285c1.363,1.436,2.103,3.597,0.96,5.573c-1.675,2.896-3.351,5.864-5.507,8.391
	c-2.376,2.788-5.262,5.151-8.005,7.612c-0.67,0.602-1.672,0.817-2.473,1.293c-0.846,0.503-1.773,0.978-2.418,1.689
	c-1.249,1.376-2.29,1.443-3.246-0.185c-1.029-1.75-2.086-1.381-3.281-0.198c-0.595,0.589-1.363,1.013-1.915,1.634
	c-1.061,1.193-1.679,2.598-0.375,3.942c0.815,0.841,1.046,1.314,0.185,2.318c-4.769,5.562-9.433,11.216-14.182,16.797
	c-3.197,3.758-4.869,8.179-6.354,12.827c-2.237,7.003-2.954,14.195-3.615,21.429c-0.067,0.734-0.204,1.493-0.083,2.203
	c0.071,0.413,0.739,1.124,0.886,1.066c1.794-0.717,3.847-0.195,5.521-1.833c5.708-5.583,12.667-6.757,20.222-4.893
	c2.905,0.717,5.648,5.073,5.579,8.473c-0.023,1.161-0.123,2.323-0.252,3.478c-0.492,4.401-4.533,8.557-8.927,8.17
	c-8.578-0.755-13.133,4.583-17.285,10.611c-1.903,2.763-16.506,22.684-17.977,24.832c-3.292,4.812-8.332,13.378-13.784,22.708
	c-5.452,9.331-7.105,20.763-7.131,25.602s2.604,10.187,6.655,8.439s10.869-7.328,12.365-8.913
	c0.423-0.448,12.524-11.222,16.226-17.538c2.883-4.921,6.53-9.194,9.589-13.923c1.321-2.043,3.619-3.473,5.54-5.101
	c2.857-2.423,18.054-22.51,21.944-29.844c2.166-4.084,4.941-7.84,7.292-11.832c1.86-3.159,3.933-6.302,5.102-9.729
	c1.216-3.562,2.898-6.708,5.006-9.762c1.491-2.16,2.698-4.536,3.857-6.901c4.405-8.986,8.635-18.061,13.14-26.997
	c2.589-5.137,6.589-9.254,10.67-13.25c0.149-0.146,0.32-0.331,0.507-0.371c6.599-1.418,8.491-7.578,11.464-12.219
	c2.278-3.555,5.105-5.118,8.688-6.006c2.235-0.554,4.6-0.635,6.916-0.803c2.049-0.149,2.703,0.556,2.468,2.544
	c-0.084,0.715-0.354,1.436-0.667,2.092c-1.942,4.066-4.017,8.072-5.836,12.191c-0.668,1.513-0.796,3.273-1.107,4.932
	c-0.719,3.836-1.428,7.636-3.9,10.882c-0.727,0.955-0.869,2.361-1.255,3.567c-1.496,4.666-4.096,8.72-6.622,12.884
	c-2.974,4.903-5.235,10.241-7.762,15.411c-0.875,1.792-1.539,3.688-2.441,5.464c-1.569,3.083-3.316,6.078-4.87,9.168
	c-3.123,6.211-6.284,12.406-9.207,18.711c-2.402,5.183-5.315,10.016-8.296,14.886c-3.715,6.069-7.783,11.979-10.504,18.688
	c-2.476,6.109-5.787,11.876-8.583,17.862c-1.107,2.369-1.84,4.916-2.706,7.396c-0.434,1.244,0.27,1.906,1.386,1.858
	c0.886-0.038,1.867-0.337,2.612-0.818c8.014-5.179,14.056-12.307,19.648-19.899c5.654-7.678,10.307-16.189,18.318-21.929
	c1.243-0.89,1.979-2.456,3.1-3.556c0.884-0.868,1.997-1.875,3.322-0.777c1.295,1.071,0.257,2.197-0.329,3.082
	c-2.662,4.023-5.39,8.004-8.157,11.955c-4.159,5.937-8.358,11.844-12.567,17.744c-1.288,1.805-2.653,3.553-4.001,5.313
	c-4.451,5.812-8.872,11.646-13.375,17.417c-6.387,8.184-13.393,15.68-22.597,20.856c-5.107,2.871-12.843,1.726-17.271-2.414
	c-3.932-3.676-3.804-8.215-3.638-12.888c0.052-1.475,0.343-2.948,0.318-4.418c-0.028-1.644-0.862-2.073-2.212-1.286
	c-0.359,0.21-0.666,0.52-0.97,0.812c-2.952,2.838-5.815,5.772-8.878,8.484c-1.547,1.37-3.914,1.992-5.094,3.564
	c-2.269,3.023-5.488,4.616-8.484,6.467c-5.449,3.365-10.877,6.925-17.81,6.556c-2.948-0.156-5.716-0.622-8.044-2.394
	c-2.758-2.101-5.976-4.017-7.822-6.791c-2.627-3.949-5.291-8.194-5.154-13.354c0.053-2.006,0.044-4.015,0.064-6.021
	C27.034,398.718,27.014,389.623,27.385,385.111z M163.446,281.398c-0.5-0.248-1.052-0.751-1.611-0.759
	c-2.323-0.037-4.809,2.296-5.348,4.575c-1.063,4.493-2.296,8.946-3.368,13.437c-0.168,0.706-0.127,1.894,0.294,2.196
	c0.525,0.379,1.699,0.343,2.312-0.006c0.736-0.419,1.412-1.272,1.708-2.086c1.946-5.329,3.784-10.698,5.652-16.055
	C163.188,282.403,163.254,282.093,163.446,281.398z M169.873,280.343c0.323,0.585,0.748,1.355,1.173,2.126
	c0.776-0.44,1.639-0.781,2.298-1.355c0.435-0.379,0.529-1.123,0.856-1.654c1.362-2.21,2.711-4.432,4.149-6.593
	c1.333-2.003,2.864-3.88,4.105-5.935c0.292-0.483-0.044-1.602-0.459-2.146c-0.199-0.26-1.35-0.021-1.914,0.282
	c-0.909,0.488-1.726,1.171-2.516,1.849C173.518,270.39,171.034,274.772,169.873,280.343z M140.233,323.38
	c-0.323-0.518-0.546-1.305-0.974-1.439c-0.42-0.132-1.203,0.266-1.553,0.668c-0.611,0.703-1.042,1.572-1.496,2.401
	c-2.217,4.047-4.418,8.103-6.62,12.157c-1.006,1.854-1.976,3.729-3.013,5.565c-0.828,1.464-0.571,2.844,0.809,3.538
	c1.527,0.769,1.53-0.974,1.954-1.764c3.388-6.306,6.729-12.638,10.062-18.973C139.74,324.896,139.93,324.18,140.233,323.38z
	 M187.782,239.663c-0.849,0.755-2.415,1.632-3.204,2.968c-1.312,2.221-2.126,4.735-3.147,7.128c-0.492,1.154-1.195,2.277-1.383,3.48
	c-0.119,0.762,0.322,1.954,0.918,2.367c0.415,0.287,1.627-0.268,2.282-0.731c0.552-0.39,0.87-1.162,1.197-1.813
	c1.272-2.537,2.503-5.095,3.757-7.642c0.604-1.226,1.333-2.403,1.808-3.676C190.494,240.449,189.839,239.747,187.782,239.663z
	 M110.773,226.925c-0.151-1.597-1.835-2.169-3.072-1.436c-1.425,0.846-2.848,1.701-4.229,2.618
	c-0.411,0.273-0.695,0.754-1.004,1.164c-1.059,1.4-2.112,2.805-3.147,4.222c-0.427,0.584-0.888,1.169-1.169,1.824
	c-0.122,0.286,0.058,0.901,0.308,1.084c0.201,0.147,0.794-0.026,1.076-0.24c3.14-2.39,6.273-4.79,9.358-7.248
	C109.676,228.291,110.285,227.45,110.773,226.925z M149.437,327.295c-0.244-0.423-0.398-1.049-0.771-1.23
	c-0.358-0.177-1.062-0.055-1.406,0.209c-2.937,2.257-4.96,5.144-5.663,8.829c-0.103,0.54,0.038,1.394,0.398,1.676
	c0.328,0.256,1.228,0.11,1.665-0.178c0.766-0.504,1.518-1.157,2.012-1.919c1.087-1.677,2.04-3.444,2.983-5.208
	C148.998,328.835,149.156,328.098,149.437,327.295z M175.184,261.1c0.074-1.125-1.523-1.839-2.652-0.814
	c-2.081,1.886-3.888,4.091-5.665,6.28c-0.296,0.366-0.023,1.421,0.308,1.96c0.142,0.231,1.357,0.19,1.659-0.128
	c2.149-2.274,4.189-4.651,6.259-7C175.155,261.326,175.155,261.2,175.184,261.1z M98.162,251.391
	c-0.302-0.233-0.633-0.668-0.834-0.615c-0.784,0.208-1.791,0.358-2.236,0.914c-1.706,2.127-3.255,4.384-4.78,6.65
	c-0.188,0.279,0.13,0.9,0.214,1.363c0.423-0.213,0.938-0.335,1.251-0.655c1.095-1.117,2.162-2.267,3.161-3.471
	C96.01,254.285,96.992,252.919,98.162,251.391z M35.647,397.095c-0.389-2.438-0.662-4.417-1.051-6.374
	c-0.08-0.401-0.593-0.716-0.906-1.07c-0.253,0.421-0.741,0.855-0.72,1.263c0.105,2.078,0.281,4.154,0.557,6.215
	c0.147,1.098-0.502,2.729,1.312,2.878C35.048,400.023,35.435,397.889,35.647,397.095z M125.229,372.708
	c-0.583-0.24-1.42-0.792-1.598-0.627c-1.97,1.813-4.229,3.465-4.75,6.343c-0.073,0.401,0.302,0.883,0.469,1.326
	c0.366-0.146,0.846-0.192,1.078-0.456c1.443-1.641,2.846-3.315,4.221-5.013C124.892,373.98,124.939,373.521,125.229,372.708z
	 M105.151,303.881c-0.598-0.474-0.854-0.851-1.134-0.87c-1.743-0.12-4.651,2.544-4.799,4.33c-0.113,1.358,0.94,2.24,1.856,1.4
	C102.563,307.376,103.712,305.64,105.151,303.881z M70.612,271.303c0.41,0.202,0.82,0.404,1.229,0.606
	c0.274-0.674,0.559-1.344,0.82-2.022c0.297-0.773,0.625-1.54,0.847-2.335c0.207-0.746,0.292-1.526,0.431-2.291
	c-0.842,0.242-1.921,0.242-2.47,0.782c-0.839,0.826-1.537,1.963-1.849,3.09C69.459,269.72,70.25,270.571,70.612,271.303z
	 M71.071,311.166c-0.291-1.228,0.428-3.673-1.662-3.516c-1.705,0.128-1.46,2.415-1.251,3.987c0.041,0.31,0.03,0.685,0.201,0.908
	c0.455,0.591,0.995,1.116,1.502,1.668c0.399-0.643,0.838-1.265,1.179-1.938C71.167,312.027,71.066,311.661,71.071,311.166z
	 M114.948,234.938c1.364-1.081,3.083-2.389,4.697-3.817c0.136-0.12-0.548-1.543-0.669-1.517c-0.967,0.208-2.105,0.393-2.778,1.025
	c-0.964,0.906-1.595,2.174-2.327,3.315c-0.137,0.214-0.099,0.556-0.082,0.834C113.791,234.815,114.148,234.831,114.948,234.938z
	 M76.941,275.298c-0.579,0.397-0.99,0.523-1.052,0.747c-0.449,1.616-0.85,3.247-1.199,4.888c-0.042,0.197,0.323,0.683,0.492,0.68
	c0.354-0.006,0.906-0.159,1.02-0.412c0.601-1.335,1.2-2.692,1.557-4.103C77.877,276.63,77.272,275.98,76.941,275.298z
	 M76.064,285.839c-0.173-0.547-0.289-1.295-0.653-1.891c-0.165-0.271-1.195-0.359-1.203-0.334c-0.423,1.362-0.962,2.734-1.036,4.13
	c-0.023,0.438,1.223,0.943,1.888,1.417c0.19-0.544,0.397-1.083,0.566-1.633C75.778,287.032,75.889,286.522,76.064,285.839z
	 M83.533,252.007c1.427-1.917,2.551-3.379,3.594-4.896c0.115-0.167-0.239-0.656-0.376-0.996c-1.096,0.913-2.223,1.792-3.272,2.757
	c-0.37,0.341-0.692,0.867-0.767,1.35C82.657,250.575,83.042,250.997,83.533,252.007z M70.286,325.434
	c0.217-0.051,0.348-0.043,0.413-0.104c1.739-1.637,3.477-3.276,5.193-4.938c0.108-0.104,0.104-0.539,0.048-0.561
	c-0.255-0.101-0.661-0.251-0.808-0.131c-1.774,1.447-3.522,2.928-5.244,4.438c-0.185,0.162-0.273,0.6-0.197,0.845
	C69.757,325.196,70.121,325.317,70.286,325.434z M78.365,333.121c1.292-1.441,2.336-2.529,3.255-3.71
	c0.147-0.19-0.183-1.123-0.416-1.177c-1.602-0.367-2.129,0.923-2.774,1.989c-0.268,0.442-0.63,0.866-0.751,1.347
	C77.61,331.844,77.944,332.217,78.365,333.121z M93.09,305.523c-1.086-0.665-1.783-1.306-1.98-1.178
	c-0.954,0.62-1.774,1.447-2.641,2.202c0.424,0.352,1.014,1.088,1.243,0.988C90.741,307.091,91.667,306.407,93.09,305.523z
	 M120.354,360.627c-0.263-0.397-0.412-0.865-0.712-1.006c-0.271-0.127-0.955,0.001-1.035,0.192
	c-0.515,1.231-0.922,2.509-1.316,3.786c-0.015,0.048,0.688,0.403,0.717,0.363C118.8,362.896,119.547,361.797,120.354,360.627z
	 M96.647,381.129c-0.446-0.346-0.659-0.51-0.873-0.675c-0.697,0.938-1.406,1.866-2.064,2.83c-0.046,0.068,0.291,0.399,0.45,0.608
	C94.958,383.008,95.754,382.122,96.647,381.129z M65.09,299.387c-0.494-0.717-0.822-1.192-1.15-1.667
	c-0.332,0.545-0.876,1.071-0.932,1.643c-0.047,0.483,0.474,1.021,0.743,1.535C64.172,300.421,64.594,299.947,65.09,299.387z
	 M70.141,271.996c-0.669,0.857-1.202,1.503-1.669,2.194c-0.044,0.064,0.326,0.409,0.504,0.624c0.612-0.592,1.237-1.172,1.812-1.799
	C70.833,272.966,70.526,272.594,70.141,271.996z"/>
<path fill-rule="evenodd" clip-rule="evenodd" fill="#FFFFFF" d="M702.604,334.122c-5.882,0.836-10.361-2.024-14.428-5.792
	c-4.931-4.568-4.987,4.231-6.915,7.665c-3.069,5.467-10.854,26.943-13.426,31.173c-3.782,6.221-8.315,12.163-13.543,17.252
	c-2.758,2.685-6.025,4.514-9.408,6.224c-6.021,3.044-11.988,2.337-18.01-0.028c-7.668-3.011-11.791-9.024-14.807-16.349
	c-1.766-4.29-2.171-8.668-2.97-13.107c-1.031-5.738-1.042-11.204-0.029-16.895c0.657-3.697,0.306-7.565,0.546-11.347
	c0.113-1.779,0.55-3.538,0.846-5.305c0.825-4.946,1.601-9.901,2.5-14.833c0.677-3.716,1.512-7.4,2.287-11.098
	c0.064-0.307,0.297-0.591,0.312-0.893c0.311-6.553,3.284-12.423,4.771-18.672c1.339-5.629,2.397-11.334,3.97-16.896
	c1.603-5.667,3.668-11.203,5.557-16.788c0.775-2.291,1.623-4.557,2.437-6.835c0.744-2.09,2.563-2.508,4.346-1.084
	c0.698,0.559,1.531,1,2.367,1.328c1.321,0.518,2.173,0.219,2.44-1.414c0.144-0.882,0.974-1.633,1.225-2.52
	c0.449-1.59,1.05-3.273,0.895-4.849c-0.095-0.961-1.411-2.392-2.318-2.507c-0.839-0.107-1.899,1.219-2.789,1.998
	c-0.284,0.248-0.279,0.796-0.5,1.148c-0.431,0.688-0.929,1.336-1.399,2c-0.33-0.93-0.846-1.842-0.936-2.795
	c-0.074-0.793,0.431-1.623,0.541-2.454c0.229-1.738,0.32-3.496,0.555-5.233c0.265-1.97,0.479-3.966,0.973-5.884
	c0.997-3.874,0.308-4.991-3.715-5.291c-1.035-0.077-2.094,0.142-3.141,0.23c-3.244,0.274-6.484,0.738-9.731,0.775
	c-3.206,0.038-5.849-1.513-8.047-3.831c-2.136-2.253-4.58-3.951-7.612-4.934c-1.962-0.636-3.86-1.73-5.514-2.98
	c-1.604-1.213-0.941-3.178-0.469-4.721c0.435-1.417,1.41-2.157,3.34-2.115c5.199,0.115,10.41-0.38,15.617-0.396
	c2.707-0.008,5.418,0.462,8.122,0.77c0.616,0.07,1.196,0.424,1.813,0.541c4.102,0.783,7.712,0.748,10.673-3.211
	c2.284-3.056,5.025-5.648,5.231-9.776c0.039-0.778,0.473-1.667,0.995-2.266c1.444-1.655,2.946-3.285,4.606-4.714
	c0.694-0.598,1.844-0.901,2.79-0.911c1.132-0.011,2.294,0.352,3.396,0.701c3.433,1.086,3.868,2.047,2.991,5.628
	c-0.351,1.426-0.495,2.919-0.567,4.389c-0.038,0.789,0.273,1.595,0.427,2.393c0.616-0.5,1.329-0.918,1.825-1.518
	c0.67-0.809,1.178-1.751,1.745-2.643c1.809-2.851,2.581-2.964,4.35,0.024c1.816,3.073,3.395,6.32,4.742,9.628
	c1.154,2.83,1.939,3.434,4.876,3.11c3.664-0.404,7.352-0.741,11.033-0.781c2.87-0.031,5.503,1.11,6.904,3.764
	c1.34,2.537,0.639,4.935-0.828,7.447c-2.601,4.451-6.46,6.312-11.327,6.985c-3.219,0.444-6.361,1.426-9.564,2.021
	c-3.42,0.635-4.728,3.159-5.832,6.001c-2.328,5.989-3.263,12.168-3.153,18.599c0.04,2.461-0.871,4.934-1.291,7.411
	c-0.891,5.24-15.811,48.348-16.787,51.439c-1.892,5.988-3.503,11.996-4.594,18.257c-1.098,6.309-0.628,12.583-1.41,18.837
	c-0.505,4.028,0.185,8.21,0.403,12.32c0.031,0.587-1.822,16.819,6.273,18.296c2.89,0.989,11.274-7.766,17.906-20.381
	s9.904-19.332,12.203-24.343s1.672-8.821,1.748-15.533c0.095-8.304,1.747-16.099,3.407-24.214c0.199-0.982,0.949-1.855,1.462-2.769
	c0.871-1.551,2.577-7.969,2.997-9.592c1.051-4.057,3.715-7.476,5.531-11.192c4.177-8.549,8.525-14.763,15.437-21.32
	c2.574-2.441,4.544-6.552,7.718-8.093c3.999-1.941,9.789-0.729,13.158,1.925c0.799,0.63,1.782,1.146,2.764,1.406
	c6.516,1.724,10.233,6.066,11.594,12.479c1.983,9.348,0.259,18.088-4.961,26.05c-1.829,2.791-4.122,5.278-6.223,7.889
	c-4.047,5.03-8.173,9.999-12.118,15.107c-1.062,1.375-1.585,3.163-2.367,4.756c-0.323,0.659-0.531,1.457-1.035,1.932
	c-2.603,2.453-2.587,5.895-3.434,8.979c-0.541,1.977,0.841,3.484,2.232,4.596c1.341,1.07,3.038,0.934,4.474-0.006
	c2.021-1.324,3.742-2.865,5.139-4.994c3.225-4.919,6.917-9.528,10.291-14.352c2.404-3.437,4.605-7.016,6.89-10.536
	c1.134-1.748,2.114-3.619,3.427-5.219c0.821-1,2.053-1.793,3.26-2.291c0.568-0.234,1.664,0.281,2.226,0.785
	c0.297,0.265,0.113,1.298-0.117,1.881c-2.739,6.932-5.513,13.85-8.307,20.76c-2.139,5.285-4.663,10.551-8.426,14.688
	c-3.162,3.477-6.131,7.611-10.938,9.359c-0.467,0.17-0.915,0.541-1.241,0.93c-4.388,5.219-10.234,6.733-16.725,6.643
	C703.707,334.131,703.18,334.128,702.604,334.122z M730.744,255.073c-0.173-1.82-0.26-3.836-2.29-4.775
	c-2.175-1.004-3.635,0.482-4.947,1.838c-1.604,1.659-3.136,3.412-4.515,5.261c-1.367,1.834-2.675,3.754-3.705,5.789
	c-1.515,2.987-2.611,6.187-4.154,9.158c-2.383,4.593-3.048,9.676-4.471,14.542c-0.168,0.579-0.086,1.271,0.025,1.885
	c0.297,1.634,0.929,1.817,2.205,0.617c2.604-2.45,5.036-5.105,7.793-7.365c4.043-3.312,6.417-7.66,8.474-12.287
	c0.593-1.333,1.044-2.848,1.994-3.879C729.99,262.778,731.011,259.197,730.744,255.073z M666.425,211.607
	c-0.431-0.556-0.856-1.669-1.545-1.867c-1.227-0.353-3.577,1.849-3.642,3.151c-0.31,6.252-1.571,12.303-3.928,18.1
	c-0.592,1.458,0.012,2.228,1.158,2.786c1.982,0.964,3.47,0.102,4.111-2.834C663.946,224.696,665.089,218.4,666.425,211.607z
	 M649.717,251.968c-0.074-2.102-0.812-2.678-2.347-2.507c-1.754,0.196-3.637,2.258-4.044,4.368c-0.217,1.123-0.339,2.31-0.807,3.328
	c-1.836,3.999-3.825,7.928-5.677,11.92c-0.358,0.775-0.354,1.719-0.517,2.585c0.979-0.009,2.111,0.297,2.913-0.087
	c2.239-1.076,2.991-3.332,3.86-5.499c1.236-3.084,2.598-6.122,4.002-9.134C647.977,255.063,649.028,253.267,649.717,251.968z
	 M725.748,234.797c-0.491-0.594-0.905-1.547-1.382-1.58c-1.191-0.082-2.755-0.16-3.554,0.503c-2.252,1.872-4.308,4.02-6.221,6.247
	c-1.35,1.57-2.354,3.439-3.479,5.194c-0.145,0.225-0.244,0.712-0.125,0.826c0.27,0.259,0.778,0.587,1.036,0.487
	c1.651-0.639,3.544-1.06,4.83-2.165c2.784-2.391,5.268-5.136,7.836-7.772C725.105,236.112,725.33,235.501,725.748,234.797z
	 M702.342,259.121c0.007-0.607,0.058-0.932,0.003-1.238c-0.103-0.571-0.266-1.131-0.403-1.695c-0.459,0.218-0.962,0.374-1.367,0.666
	c-1.738,1.247-3.111,2.702-3.799,4.875c-0.56,1.77-1.801,3.313-2.493,5.055c-0.928,2.335-1.686,4.746-2.362,7.167
	c-0.163,0.582,0.277,1.333,0.441,2.005c0.717-0.332,1.699-0.477,2.097-1.036c0.843-1.184,1.368-2.59,2.042-3.895
	c1.387-2.685,2.565-5.516,4.266-7.987C701.707,261.669,702.657,260.562,702.342,259.121z M621.792,300.924
	c0.133,0.041,0.267,0.082,0.399,0.122c-0.006,0.632-0.087,1.274,0.011,1.89c0.058,0.372,0.392,0.7,0.602,1.048
	c0.305-0.299,0.621-0.586,0.912-0.896c1.808-1.921,2.188-4.378,2.803-6.826c0.87-3.463,2.155-6.822,3.293-10.217
	c0.275-0.826,1.365-1.695,0.063-2.427c-1.301-0.732-2.286,0.08-2.825,1.188c-0.688,1.417-1.178,2.935-1.706,4.425
	c-0.564,1.589-1.113,3.185-1.598,4.799C623.062,296.316,622.44,298.625,621.792,300.924z M650.381,201.875
	c-0.29-0.654-0.596-2.598-1.351-2.792c-1.642-0.421-2.384,1.294-2.988,2.646c-0.21,0.468-0.253,1.012-0.354,1.525
	c-0.563,2.862-1.18,5.715-1.653,8.59c-0.195,1.186-0.562,2.916,1.185,3.02c0.923,0.055,2.528-1.04,2.778-1.914
	C648.975,209.544,649.531,206.018,650.381,201.875z M650.244,229.488c0.122,1.298,0.215,3.286,0.547,5.232
	c0.098,0.574,0.869,1.032,1.332,1.544c0.438-0.415,1.009-0.755,1.292-1.258c2.137-3.79,0.878-7.741,0.373-11.627
	c-0.059-0.442-1.126-1.104-1.645-1.036c-0.517,0.067-1.226,0.867-1.333,1.443C650.501,225.424,650.457,227.112,650.244,229.488z
	 M701.155,294.543c-0.244-0.86-0.402-1.416-0.56-1.972c-0.547,0.27-1.123,0.496-1.628,0.83c-0.234,0.156-0.341,0.518-0.489,0.795
	c-2.096,3.941-4.324,7.821-6.174,11.875c-0.381,0.832-1.898,2.846,0.194,3.441c1.598,0.456,2.045-1.439,2.471-2.711
	c0.894-2.681,1.72-5.289,3.842-7.442C700.034,298.119,700.446,296.079,701.155,294.543z M701.159,270.267
	c0.215,0.403,0.522,0.979,0.829,1.556c0.51-0.407,1.188-0.712,1.502-1.237c1.725-2.882,3.434-5.779,4.985-8.756
	c0.489-0.941,0.665-2.151,0.631-3.227c-0.03-0.979-0.689-1.094-1.54-0.461C703.604,261.092,702.552,265.544,701.159,270.267z
	 M723.5,249.208c0.975-0.382,1.548-0.465,1.927-0.78c1.666-1.384,3.328-2.782,4.888-4.282c0.95-0.915,0.652-1.896-0.294-2.722
	c-0.607-0.53-1.299-1.016-1.743-1.664c-0.287-0.418-0.2-1.095-0.279-1.656c-0.485,0.529-1.083,0.994-1.435,1.601
	c-1.034,1.783-1.964,3.625-2.948,5.437c-0.351,0.645-1.023,1.261-1.036,1.901C722.565,247.738,723.149,248.445,723.5,249.208z
	 M624.375,332.608c0.207,0.355,0.646,1.108,1.086,1.86c0.729-0.652,1.65-1.191,2.123-1.995c0.39-0.661,0.412-1.657,0.308-2.468
	c-0.383-2.989,0.114-5.807,1.136-8.619c0.237-0.654-0.359-1.609-0.574-2.427c-0.578,0.606-1.483,1.121-1.68,1.833
	c-0.995,3.6-0.293,7.566-2.347,10.955C624.378,331.827,624.41,331.955,624.375,332.608z M643.561,289.097
	c-0.254-0.408-0.431-1.038-0.803-1.188c-0.369-0.15-1.018,0.063-1.391,0.332c-0.4,0.288-0.729,0.785-0.902,1.26
	c-1.207,3.31-2.469,6.606-3.452,9.983c-0.204,0.7,0.68,1.718,1.062,2.589c0.554-0.646,1.332-1.208,1.621-1.957
	c1.084-2.811,2.005-5.683,2.991-8.532C642.961,290.791,643.244,290.001,643.561,289.097z"/>
<path fill-rule="evenodd" clip-rule="evenodd" fill="#FFFFFF" d="M592.842,233.129c2.319-2.332,5.928-3.743,9.748-3.024
	c3.822,0.719,9.35,6.545,11.373,10.769c2.023,4.223,3.097,7.854,2.985,12.088c-0.116,4.418-0.652,8.834-1.177,13.231
	c-0.57,4.783-1.571,9.442-3.369,13.989c-1.644,4.157-2.483,8.625-3.798,12.92c-1.074,3.512-2.398,6.841-4.674,9.904
	c-2.36,3.178-3.612,7.166-5.892,10.422c-3.667,5.24-7.675,10.257-11.77,15.175c-1.131,1.358-2.977,2.283-4.671,2.978
	c-4.4,1.805-12.356,3.309-16.575-0.628c-2.727-2.543-4.644-5.649-6.005-9.126c-1.876-4.792-3.821-9.557-5.762-14.321
	c-1.001-2.46-1.688-2.747-3.591-0.98c-4.222,3.924-8.454,7.77-11.69,12.721c-3.957,6.057-8.599,11.672-13.045,17.399
	c-1.565,2.015-6.399,2.997-8.743,2.05c-2.181-0.881-3.395-3.506-3.044-6.36c0.255-2.088,0.295-4.205,0.601-6.283
	c0.396-2.694,0.885-5.38,1.467-8.041c1.555-7.096,3.139-14.188,4.799-21.26c0.748-3.184,1.708-6.318,2.568-9.476
	c0.879-3.229,1.692-6.476,2.649-9.681c0.692-2.319,1.583-4.578,2.363-6.872c0.306-0.899,0.557-1.817,0.822-2.73
	c0.359-1.237,0.248-2.619-1.015-2.943c-0.841-0.216-2.327,0.338-2.881,1.049c-2.256,2.894-4.266,5.98-6.361,8.999
	c-1.799,2.592-3.656,5.146-5.372,7.792c-2.926,4.507-5.89,8.998-8.601,13.633c-3.08,5.262-5.915,10.667-8.817,16.032
	c-0.446,0.825-0.732,1.749-1.013,2.652c-0.644,2.078-1.084,4.234-1.891,6.246c-1.373,3.423-2.768,6.864-4.525,10.097
	c-1.436,2.645-3.376,5.021-5.184,7.449c-0.326,0.437-1.065,0.649-1.656,0.792c-5.781,1.402-11.295,0.583-16.485-2.242
	c-1.948-1.061-3.15-2.781-3.322-5.081c-0.315-4.241-0.084-8.406,1.176-12.527c1.171-3.831,2.123-7.735,3.012-11.643
	c0.165-0.727-0.428-1.626-0.67-2.445c-0.555,0.546-1.259,1.005-1.644,1.651c-3.892,6.541-8.501,12.498-13.843,17.933
	c-3.237,3.295-6.129,6.929-9.286,10.305c-1.211,1.296-2.613,2.505-4.133,3.408c-5.969,3.545-11.898,7.192-18.866,8.599
	c-6.68,1.348-13.056,0.932-18.648-3.32c-1.337-1.017-2.25-2.741-3.039-4.302c-2.335-4.624-1.939-9.602-1.519-14.536
	c0.501-5.892,1.007-11.785,1.688-17.656c0.314-2.705,1.056-5.36,1.586-8.042c0.115-0.581,0.156-1.177,0.231-1.766
	c-0.577,0.013-1.154,0.022-1.73,0.041c-0.698,0.022-1.396,0.052-2.092,0.079c0.089-0.69,0.091-1.405,0.282-2.064
	c0.762-2.63,1.45-5.293,2.416-7.85c1.438-3.807,3.561-7.416,4.525-11.323c1.198-4.857,4.022-8.761,6.545-12.774
	c2.715-4.32,6.45-7.985,9.492-12.119c2.458-3.342,5.683-5.788,8.839-8.312c1.852-1.482,4.013-2.602,6.119-3.726
	c0.536-0.286,1.395,0.032,2.104,0.073c-0.331,0.553-0.572,1.196-1.012,1.644c-2.92,2.974-5.87,5.918-8.836,8.846
	c-0.905,0.895-1.054,1.736-0.19,2.751c0.874,1.029,1.678,0.994,2.704,0.174c3.535-2.826,7.127-5.579,10.667-8.4
	c0.651-0.519,1.25-1.159,1.709-1.852c1.289-1.95,0.987-2.901-1.336-3.649c-1.266-0.408-1.319-0.606-0.76-1.895
	c2.171-4.993,6.779-6.326,11.245-7.895c1.378-0.483,2.865-0.71,4.324-0.895c0.88-0.111,1.799,0.084,2.699,0.142
	c-0.363,0.898-0.584,1.897-1.125,2.673c-0.779,1.118-1.954,1.976-2.646,3.133c-0.454,0.761-0.769,2.068-0.414,2.752
	c0.664,1.283,2.053,1.841,3.543,1.236c0.868-0.353,1.658-0.911,2.463-1.41c0.96-0.596,1.764-0.917,2.802,0.084
	c0.565,0.546,1.794,0.977,2.456,0.733c1.37-0.505,0.425-1.521,0.091-2.359c-0.099-0.249,0.014-0.583,0.03-0.878
	c0.377,0.022,0.879-0.105,1.109,0.09c1.678,1.421,3.445,2.781,4.875,4.428c0.632,0.729,1.061,2.314,0.7,3.112
	c-1.727,3.82-3.703,7.533-5.722,11.211c-0.356,0.65-1.298,1.05-2.045,1.4c-2.183,1.022-2.76,0.75-3.405-1.491
	c-0.203-0.708-0.242-1.47-0.497-2.155c-1.193-3.193-3.258-3.797-6.523-2.87c-5.471,1.553-9.093,5.531-12.938,9.208
	c-1.215,1.162-2.015,2.895-2.644,4.507c-2.034,5.21-6.221,9.477-6.702,15.37c-0.076,0.925-0.492,1.825-0.771,2.73
	c-1.414,4.606-3.026,9.161-4.2,13.827c-1.282,5.089-2.498,10.24-3.111,15.438c-0.539,4.562-0.491,9.246-0.165,13.838
	c0.247,3.466,3.342,5.12,6.425,3.526c4.913-2.538,10.145-4.551,14.175-8.654c3.611-3.678,7.571-7.013,11.331-10.548
	c3.985-3.747,6.246-8.661,8.849-13.338c3.524-6.336,7.131-12.63,10.543-19.027c1.777-3.335,3.13-6.896,4.823-10.279
	c3.064-6.123,6.547-12.056,9.277-18.321c2.332-5.353,5.826-10.378,5.948-16.527c0.108-5.442,2.499-10.131,4.587-14.955
	c2.003-4.627,4.279-9.11,5.406-14.143c0.688-3.082,2.699-5.881,4.215-8.755c0.247-0.469,1.003-0.669,1.522-0.993
	c0.219,0.531,0.567,1.047,0.624,1.594c0.097,0.939-0.132,1.925,0.042,2.841c0.157,0.837,0.478,2.041,1.07,2.304
	c0.808,0.358,2.112,0.273,2.894-0.17c0.816-0.464,1.398-1.511,1.852-2.418c1.573-3.147,1.986-6.859,4.893-9.38
	c0.651-0.564,0.773-1.907,0.861-2.916c0.176-2.022,0.796-2.858,2.312-2.068c2.209,1.152,4.884,0.785,5.045,1.674
	c0.143,0.784,0.452,1.539,0.687,2.307c0.219-0.728,0.383-1.478,0.674-2.175c0.178-0.423,0.522-1.042,0.842-1.075
	c0.433-0.043,1.246,0.32,1.314,0.635c0.261,1.194,0.413,2.446,0.352,3.663c-0.035,0.686-0.594,1.336-0.873,2.021
	c-2.347,5.73-4.725,11.448-6.997,17.208c-0.717,1.816-1.109,3.757-1.709,5.623c-1.602,4.975-3.258,9.933-4.846,14.913
	c-0.832,2.607-1.261,5.387-2.398,7.846c-4.05,8.743-5.844,18.257-9.363,27.117c-2.434,6.128-2.658,12.826-5.775,18.659
	c-0.192,0.358-0.304,0.818-0.276,1.219c0.024,0.379,0.188,0.913,0.462,1.064c0.251,0.138,0.839-0.034,1.09-0.27
	c0.452-0.425,0.784-0.986,1.129-1.515c3.562-5.468,6.963-11.048,10.712-16.385c4.713-6.711,9.661-13.261,14.623-19.792
	c1.055-1.388,2.58-2.434,3.954-3.554c0.347-0.282,0.951-0.245,1.438-0.355c0.11,0.598,0.48,1.312,0.276,1.766
	c-0.371,0.823-1.139,1.455-1.643,2.229c-0.726,1.113-1.581,2.216-1.953,3.452c-0.213,0.706,0.199,2.167,0.725,2.401
	c0.912,0.406,2.328,0.496,3.175,0.045c1.356-0.723,2.451-1.965,3.602-3.044c1.363-1.277,2.237-1.339,2.826,0.39
	c0.869,2.557,1.46,5.259,1.767,7.945c0.685,6.022-1.372,11.694-2.691,17.434c-1.551,6.752-3.262,13.471-5.045,20.167
	c-1.597,6-3.403,11.945-5.074,17.925c-0.281,1.011-0.494,2.085-0.466,3.122c0.021,0.747,0.311,1.871,0.82,2.117
	c0.563,0.271,1.552-0.187,2.286-0.491c0.457-0.19,0.805-0.668,1.172-1.044c4.331-4.438,8.705-8.834,12.973-13.333
	c5.635-5.941,11.65-11.634,14.609-19.561c1.464-3.92,2.725-7.917,4.095-11.873c1.634-4.72,3.862-9.108,7.218-12.867
	c0.486-0.544,1.133-1.127,1.258-1.778c0.731-3.796,3.773-6.006,5.921-8.819c0.323-0.423,1.026-0.558,1.552-0.827
	c0.289,0.619,0.622,1.223,0.847,1.865c0.095,0.272-0.15,0.669-0.046,0.932c0.361,0.905,0.604,2.084,1.298,2.547
	c0.434,0.29,1.653-0.427,2.425-0.86c0.98-0.55,1.913-1.213,2.771-1.94c0.507-0.43,1.002-1.023,1.196-1.639
	c0.38-1.203,0.475-2.494,0.826-3.708c0.225-0.78,0.698-1.488,1.062-2.229c0.301,0.65,0.471,1.426,0.938,1.917
	c0.531,0.559,1.438,1.315,1.989,1.183c1.123-0.269,2.325-0.881,3.103-1.716c0.826-0.887,1.123-2.244,1.784-3.312
	c1.489-2.404,1.744-4.225,0.638-5.554c-1.754-2.107-3.591-0.997-5.421-0.134L592.842,233.129z M605.703,253.348
	c-0.712-4.92-0.686-8.054-4.433-8.207c-3.747-0.153-6.115,5.992-8.015,8.995c-1.618,2.557-9.206,26.045-11.004,30.841
	c-2.777,7.401-4.541,14.85-4.137,22.81c0.211,4.155,1.312,5.312,5.341,4.368c0.867-0.203,1.812-0.701,2.397-1.353
	c1.744-1.949,3.356-4.02,4.965-6.085c1.211-1.554,2.554-3.06,3.458-4.786c2.285-4.36,4.789-8.615,6.094-13.453
	c1.152-4.271,3.028-8.372,3.9-12.686C605.309,268.653,606.416,258.267,605.703,253.348z M523.324,264.58
	c0.56-0.21,1.393-0.286,1.85-0.741c1.179-1.174,2.243-2.476,3.252-3.803c0.697-0.917,0.937-2.113-0.215-2.743
	c-0.779-0.427-2.036-0.607-2.81-0.273c-1.111,0.48-2.184,1.38-2.896,2.372c-0.89,1.239-1.793,1.751-3.355,1.862
	c-1.059,0.075-2.627,0.965-2.942,1.854c-0.695,1.958-1.956,3.353-3.109,4.968c-2.486,3.488-4.535,7.289-6.716,10.989
	c-0.312,0.526-0.478,1.206-0.49,1.819c-0.013,0.544,0.152,1.207,0.495,1.594c0.159,0.181,1.057-0.008,1.376-0.298
	c0.93-0.844,1.797-1.778,2.578-2.764c1.107-1.395,2.134-2.855,3.164-4.31c2.064-2.913,4.226-5.767,6.106-8.794
	C520.52,264.855,521.042,263.351,523.324,264.58z M568.27,275.81c0.257,0.494,0.526,1.012,0.796,1.531
	c0.512-0.281,1.047-0.526,1.524-0.856c0.248-0.171,0.438-0.468,0.575-0.748c2.63-5.387,5.285-10.761,7.81-16.197
	c0.271-0.583,0.005-1.787-0.461-2.239c-0.483-0.467-1.555-0.585-2.292-0.448c-0.632,0.118-1.178,0.79-1.728,1.256
	c-1.813,1.539-1.573,4.146-2.8,5.828C569.074,267.531,569.804,271.875,568.27,275.81z M497.944,263.901
	c-1.603-0.026-2.359,0.696-3.093,3.025c-1.069,3.393-2.111,6.793-3.185,10.185c-0.125,0.394-0.283,0.86-0.581,1.103
	c-2.595,2.119-2.397,5.263-2.976,8.104c-0.1,0.495,0.168,1.41,0.513,1.56c0.413,0.18,1.304-0.078,1.617-0.455
	c0.851-1.021,1.653-2.136,2.207-3.338c1.139-2.468,2.126-5.007,3.132-7.533c1.326-3.332,2.697-6.651,3.881-10.035
	C500.094,264.701,499.511,263.925,497.944,263.901z M470.754,314.816c0.805-0.927,1.939-1.885,2.628-3.096
	c1.659-2.918,3.087-5.967,4.652-8.938c1.08-2.048,2.412-3.986,3.264-6.12c0.322-0.807-0.388-2.026-0.627-3.058
	c-0.798,0.31-1.893,0.393-2.341,0.974c-1.445,1.875-2.839,3.84-3.91,5.943c-1.902,3.734-3.606,7.571-5.273,11.418
	C468.663,313.054,468.776,314.263,470.754,314.816z M497.988,240.743c-0.566-0.644-1.103-1.792-1.938-2.085
	c-1.471-0.516-2.603,0.321-3.164,1.835c-1.601,4.313-3.249,8.608-4.821,12.93c-0.357,0.982-0.676,2.052-0.652,3.074
	c0.015,0.686,0.513,1.591,1.079,1.952c0.359,0.229,1.348-0.222,1.858-0.619c0.552-0.43,0.985-1.102,1.283-1.754
	c1.736-3.818,3.439-7.652,5.102-11.504C497.188,243.521,497.456,242.39,497.988,240.743z M498.994,229.539
	c0.488-0.441,1.406-1.008,1.943-1.825c0.684-1.039,1.019-2.3,1.571-3.433c2.1-4.309,4.276-8.58,6.286-12.929
	c0.305-0.66,0.111-1.798-0.276-2.472c-0.565-0.982-1.602-0.99-2.387-0.12c-0.979,1.084-2.134,2.133-2.729,3.421
	c-2.235,4.841-4.285,9.767-6.378,14.673C496.416,228.282,497.19,229.61,498.994,229.539z M403.885,283.104
	c0.26,0.756,0.418,1.216,0.577,1.678c0.545-0.201,1.161-0.304,1.613-0.631c0.404-0.292,0.684-0.804,0.927-1.268
	c2.774-5.309,5.58-10.603,8.247-15.965c0.464-0.933,0.325-2.167,0.464-3.261c-1.215,0.418-2.495,0.713-3.617,1.306
	c-0.577,0.305-0.964,1.098-1.28,1.745c-1.062,2.168-2.126,4.341-3.055,6.569C406.391,276.571,405.136,279.916,403.885,283.104z
	 M410.814,297.062c-0.44-0.533-0.836-1.351-1.475-1.653c-0.375-0.177-1.371,0.308-1.69,0.769c-3.194,4.615-5.396,9.708-6.861,15.11
	c-0.145,0.533,0.36,1.244,0.563,1.872c0.606-0.305,1.285-0.521,1.795-0.943c0.378-0.312,0.549-0.883,0.789-1.35
	c2.016-3.914,4.031-7.827,6.03-11.749C410.25,298.563,410.446,297.966,410.814,297.062z M510.487,215.79
	c0.796,1.5,1.143,2.87,2.023,3.574c0.603,0.482,2.102,0.351,2.929-0.057c1.812-0.895,3.694-7.563,2.881-9.455
	c-0.642-1.493-1.993-2.057-2.984-0.927C513.513,211.002,512.107,213.444,510.487,215.79z M520.333,301.98
	c0.256,0.443,0.502,1.358,1.084,1.699c0.362,0.213,1.423-0.272,1.845-0.738c1.959-2.167,3.848-4.4,5.66-6.689
	c0.498-0.629,0.676-1.524,0.952-2.314c0.486-1.391-0.213-2.105-1.501-1.961c-0.844,0.095-1.888,0.517-2.392,1.151
	c-1.853,2.332-3.529,4.804-5.233,7.25C520.526,300.697,520.532,301.176,520.333,301.98z M419.874,299.394
	c-0.872-0.41-1.686-1.121-2.404-1.035c-0.66,0.079-1.331,0.932-1.806,1.583c-1.721,2.357-3.185,4.828-3.873,7.747
	c-0.321,1.37-0.683,2.616,0.897,3.126c1.485,0.478,1.873-0.927,2.388-1.949c1.174-2.337,2.363-4.665,3.545-6.996
	C418.951,301.221,419.278,300.571,419.874,299.394z M410.301,328.844c0.003-0.314,0.084-0.653-0.006-0.938
	c-0.233-0.747-0.541-1.471-0.819-2.203c-0.73,0.309-1.819,0.416-2.129,0.964c-1.116,1.976-2.114,4.049-2.851,6.19
	c-0.292,0.852-0.003,2.081,0.41,2.954c0.561,1.185,1.613,1.383,2.441,0.167C408.82,333.814,410.267,331.613,410.301,328.844z
	 M487.77,268.48c-0.429-0.6-0.734-1.477-1.252-1.628c-0.521-0.152-1.582,0.235-1.838,0.7c-1.367,2.478-2.617,5.028-3.753,7.62
	c-0.229,0.522,0.216,1.339,0.349,2.02c0.72-0.294,1.735-0.384,2.105-0.919c1.248-1.802,2.279-3.756,3.366-5.667
	C487.101,269.985,487.371,269.315,487.77,268.48z M572.955,286.739c0.435,0.96,0.745,1.647,1.057,2.334
	c0.59-0.537,1.467-0.966,1.717-1.63c0.917-2.445,1.715-4.945,2.345-7.479c0.146-0.58-0.558-1.37-0.871-2.063
	c-0.564,0.39-1.438,0.661-1.643,1.19C574.588,281.614,573.797,284.209,572.955,286.739z M531.575,268.179c-0.013,0-0.025,0-0.038,0
	c-0.008,0.844-0.187,1.735,0.025,2.519c0.197,0.721,0.815,1.326,1.248,1.982c0.696-0.522,1.807-0.921,2.005-1.591
	c0.502-1.695,0.816-3.52,0.745-5.273c-0.03-0.744-1.218-1.44-1.879-2.158c-0.693,0.664-1.608,1.216-2.014,2.025
	C531.328,266.36,531.584,267.335,531.575,268.179z M436.837,252.931c-0.509-0.38-1.249-1.355-2.135-1.51
	c-1.743-0.304-3.757,1.566-3.956,3.328c-0.181,1.594,0.695,2.335,2.166,2.431C434.382,257.276,436.693,255.101,436.837,252.931z
	 M501.39,248.646c0.363,0.703,0.572,1.681,0.999,1.787c0.529,0.133,1.546-0.282,1.817-0.763c0.977-1.733,1.825-3.561,2.494-5.434
	c0.153-0.429-0.465-1.457-0.974-1.701c-0.426-0.205-1.539,0.15-1.773,0.574C503,244.842,502.268,246.695,501.39,248.646z
	 M567.164,310.835c0.078,0.012,0.156,0.023,0.234,0.035c0.019,0.417-0.006,0.841,0.065,1.248c0.149,0.855,0.35,1.701,0.528,2.55
	c0.408-0.695,0.844-1.378,1.217-2.094c0.286-0.548,0.628-1.119,0.709-1.713c0.192-1.407,0.318-2.834,0.302-4.253
	c-0.006-0.363-0.691-1.049-0.974-1.004c-0.484,0.075-1.173,0.533-1.291,0.964C567.572,307.957,567.411,309.407,567.164,310.835z
	 M559.919,298.055c0.245,0.75,0.399,1.223,0.554,1.695c0.417-0.242,0.992-0.385,1.219-0.746c0.532-0.85,0.948-1.785,1.314-2.724
	c0.297-0.759,0.496-1.565,0.655-2.367c0.116-0.588,0.1-1.203,0.143-1.806c-0.694,0.272-1.776,0.359-2.013,0.851
	C560.988,294.63,560.483,296.445,559.919,298.055z M562.336,312.848c0.061,0.317,0.201,1.36,0.478,2.367
	c0.118,0.434,0.519,0.79,0.791,1.182c0.34-0.384,0.928-0.739,0.976-1.155c0.163-1.433,0.273-2.9,0.121-4.323
	c-0.07-0.653-0.803-1.234-1.234-1.849c-0.371,0.698-0.778,1.382-1.096,2.103C562.254,311.438,562.347,311.797,562.336,312.848z
	 M520.645,258.673c0.189-0.278,0.378-0.557,0.566-0.835c-0.481-0.155-0.989-0.48-1.438-0.414c-0.395,0.058-0.946,0.514-1.015,0.873
	c-0.059,0.311,0.414,0.971,0.742,1.038C519.823,259.4,520.258,258.916,520.645,258.673z"/>
<path fill-rule="evenodd" clip-rule="evenodd" fill="#FFFFFF" d="M309.735,246.484c-0.77,8.604-4.942,40.434-11.65,56.233
	c-6.708,15.799-24.624,37.727-28.823,41.161c-6.779,5.547-14.303,9.792-23.698,8.078c-0.311-0.057-0.642-0.031-0.942-0.116
	c-1.673-0.476-3.311-1.891-5.094-0.671c-2.218,1.518-3.927,3.528-4.708,6.187c-0.982,3.337-1.65,6.806-3.004,9.984
	c-1.763,4.137-2.78,8.56-5.328,12.431c-1.451,2.205-1.818,5.118-2.715,7.696c-1.034,2.973-6.115,21.307-6.8,22.669
	c-1.181,2.349-7.026,15.979-8.384,20.609c-0.444,1.513-6.023,13.004-7.227,17.812c-0.898,3.584-3.064,6.863-4.752,10.234
	c-3.205,6.401-6.336,12.847-9.769,19.124c-1.752,3.203-4.013,6.146-6.194,9.095c-1.199,1.62-4.004,1.649-5.641-0.086
	c-1.436-1.52-14.41-6.361-14.264-12.446c0.077-3.223,1.008-6.423,1.566-9.633c0.307-1.762,0.691-3.512,0.952-5.28
	c0.864-5.874,41.285-104.02,44.612-110.22c3.179-5.928,11.394-24.808,12.986-27.981c1.573-3.135,15.351-24.476,16.658-28.229
	c2.392-6.868,4.243-13.991,4.588-21.236c0.371-7.785-1.425-15.322-5.851-21.958c-1.08-1.618-2.603-2.754-4.857-1.847
	c-1.459,0.588-3.247,0.658-3.883-0.942c-0.47-1.183-0.279-2.917,0.254-4.127c0.51-1.16,1.676-2.404,2.84-2.832
	c3.24-1.189,6.604-2.078,9.968-2.875c1.736-0.411,2.728,0.432,3.506,2.271c1.046,2.471,2.835,4.623,4.268,6.935
	c1.056,1.703,2.008,3.47,3.086,5.158c1.329,2.082,2.768,2.015,4.063-0.115c1.257-2.068,2.447-4.183,3.794-6.19
	c3.337-4.975,6.897-9.804,11.525-13.662c2.997-2.498,6.426-4.39,10.232-5.414c0.849-0.229,1.832,0.042,2.753,0.083
	c-0.084,1.115,0.008,2.284-0.311,3.327c-0.229,0.749-1.039,1.307-1.535,1.991c-1.024,1.413-0.997,2.792,0.418,3.906
	c1.382,1.089,2.707,0.891,3.918-0.409c2.354-2.524,4.76-5.002,7.11-7.53c0.965-1.038,1.401-2.146,0.008-3.243
	c-0.307-0.242-0.533-0.586-0.797-0.883c0.389-0.104,0.794-0.335,1.164-0.29c1.662,0.208,3.347,0.367,4.962,0.782
	c3.226,0.83,4.891,3.515,6.611,6.023C308.747,235.001,309.297,240.647,309.735,246.484z M298.063,254.007
	c-0.453-2.152-1.039-5.237-1.758-8.292c-1.112-4.725-8.909-6.848-12.644-3.875c-1.374,1.094-2.474,2.595-3.502,4.05
	c-3.877,5.49-6.368,11.583-7.977,18.109c-0.952,3.864-2.243,7.66-3.638,11.391c-0.759,2.032-2.263,3.781-3.068,5.802
	c-1.867,4.689-3.642,9.424-5.202,14.222c-0.967,2.976-1.157,6.22-2.251,9.135c-2.165,5.764-2.671,11.705-2.599,17.744
	c0.041,3.394,0.747,6.675,2.418,9.691c0.556,1.002,1.256,1.931,2.471,1.143c1.568-1.018,3.217-2.059,4.433-3.44
	c2.295-2.605,4.309-5.458,6.432-8.213c5.017-6.508,10.003-13.098,13.668-20.439c3.517-7.045,6.268-14.48,9.21-21.802
	c0.772-1.923,0.855-4.112,1.513-6.094C297.529,267.235,297.597,261.116,298.063,254.007z M251.108,285.455
	c-0.049-0.003-0.098-0.006-0.146-0.009c0.137-2.422,0.367-4.845,0.36-7.267c-0.002-0.844-0.406-2.219-0.95-2.405
	c-0.832-0.284-2.099-0.001-2.907,0.491c-1.909,1.163-2.275,3.15-2.255,5.256c0.05,5.049,0.075,10.099,0.075,15.149
	c0,2.216,0.973,4.021,2.337,3.867c1.924-0.218,2.292-1.934,2.833-3.408c0.07-0.191,0.047-0.417,0.059-0.627
	C250.712,292.82,250.91,289.137,251.108,285.455z M252.238,300.503c0.076,0.023,0.151,0.046,0.227,0.069
	c-0.002,0.212-0.019,0.424-0.004,0.634c0.085,1.229-0.198,2.878,1.461,2.995c0.543,0.038,1.442-1.542,1.773-2.52
	c1.482-4.38,2.715-8.849,4.262-13.206c0.619-1.742,1.625-3.437,2.807-4.861c1.076-1.297,1.486-2.284,0.121-3.472
	c-1.398-1.217-2.951-0.968-3.93,0.691c-0.53,0.896-0.885,1.904-1.246,2.889c-1.015,2.76-2.056,5.514-2.966,8.309
	C253.832,294.831,253.066,297.677,252.238,300.503z M214.817,368.764c0.394-1.584-0.44-2.313-1.832-2.023
	c-0.917,0.191-1.983,0.832-2.491,1.598c-1.685,2.539-3.245,5.174-4.652,7.876c-0.709,1.363-1.062,2.936-1.385,4.454
	c-0.055,0.264,1.103,1.139,1.265,1.038c2.822-1.769,6.054-3.204,7.39-6.539C213.927,373.131,214.265,370.904,214.817,368.764z
	 M237.122,314.786c0.126-1.567-0.778-2.206-2.008-2.501c-1.69-0.407-3.003,0.663-3.621,2.611c-0.5,1.574-1.277,3.061-1.804,4.628
	c-0.685,2.045-1.363,4.108-1.758,6.217c-0.079,0.424,1.115,1.546,1.727,1.549c1.505,0.007,2.735-0.666,3.329-2.351
	c0.765-2.169,1.836-4.229,2.726-6.357C236.232,317.338,236.655,316.054,237.122,314.786z M262.507,253.12
	c0.748,0.789,1.441,1.802,2.398,2.379c0.344,0.208,1.667-0.458,1.952-1.024c1.843-3.654,3.602-7.358,5.187-11.13
	c0.307-0.73-0.273-1.833-0.444-2.765c-1.039,0.225-2.536,0.095-3.035,0.738c-1.653,2.133-3.053,4.487-4.337,6.872
	C263.496,249.548,263.182,251.13,262.507,253.12z M251.442,314.435c-0.326-0.62-0.573-1.762-1.084-1.896
	c-0.728-0.191-2.137,0.105-2.41,0.632c-1.805,3.49-3.385,7.097-5.032,10.669c-0.039,0.085-0.033,0.233,0.018,0.308
	c0.441,0.647,0.773,1.537,1.391,1.839c0.442,0.217,1.51-0.158,1.89-0.612C248.827,322.259,250.036,318.456,251.442,314.435z
	 M243.176,246.054c-2.475-0.022-4.011,1.161-3.275,2.344c1.563,2.515,3.574,4.765,5.546,6.996c0.34,0.385,1.47,0.361,2.083,0.128
	c0.513-0.195,1.254-1.186,1.124-1.46c-1.196-2.521-2.494-5.001-3.931-7.393C244.437,246.194,243.435,246.148,243.176,246.054z
	 M247.609,267.671c0.265-0.498,0.88-1.176,0.965-1.916c0.174-1.523-1.264-3.281-2.426-2.989c-0.569,0.143-1.25,1.013-1.346,1.636
	C244.575,265.889,245.914,267.602,247.609,267.671z M253.393,261.916c-0.816-0.753-1.395-1.383-2.085-1.844
	c-0.132-0.087-0.708,0.49-1.08,0.762c0.58,0.736,1.159,1.474,1.737,2.21C252.328,262.757,252.69,262.471,253.393,261.916z"/>
<path fill-rule="evenodd" clip-rule="evenodd" fill="#FFFFFF" d="M372.36,227.416c6.464-0.737,15.723,2.178,17.842,8.982
	c1.756,5.639,0.562,11.858,0.1,17.601c-0.454,5.645-3.288,22.847-10.057,38.83c-6.769,15.984-25.987,47.648-38.666,48.476
	c-12.679,0.827-26.615,0.363-31.025-12.016c-4.41-12.38-1.638-28.717,5.22-45.594c6.857-16.878,20.076-27.819,24.071-31.862
	c3.17-3.21,6.065-6.689,9.165-9.971c1.827-1.934,1.941-1.881,2.845,0.606c0.553,1.522,1.372,1.749,2.608,0.79
	c0.501-0.389,0.958-0.846,1.495-1.174c1.627-0.993,2.092-0.732,2.642,1.099c0.275,0.915,0.847,1.741,1.284,2.607
	c0.872-0.516,1.923-0.865,2.58-1.577c2.142-2.321,4.158-4.76,6.186-7.184c0.979-1.17,1.246-2.49,0.204-3.75
	c-0.999-1.208-2.161-1.061-3.36-0.19c-1.409,1.022-2.747,1.207-3.65-0.64c-0.656-1.34,0.141-2.746,2.017-3.242
	C366.168,228.598,369.252,227.769,372.36,227.416z M335.615,311.901c-0.164,3.284,0.677,4.097,3.342,3.634
	c1.958-0.339,3.908-0.777,5.815-1.328c2.706-0.781,5.634-1.166,7.342-3.906c1.055-1.692,2.321-3.256,3.362-4.958
	c1.036-1.693,1.859-3.516,2.861-5.232c2.067-3.538,4.199-7.038,6.285-10.565c0.474-0.801,0.976-1.613,1.278-2.486
	c1.129-3.255,2.129-6.556,3.27-9.807c1.839-5.241,3.75-10.457,5.626-15.685c0.071-0.197,0.024-0.505,0.152-0.6
	c0.354-0.264,0.839-0.699,1.153-0.616c2.63,0.699,1.863-0.696,1.099-1.838c-0.749-1.12-0.729-1.86,0.052-3.078
	c0.976-1.521,1.864-3.417,1.88-5.16c0.021-2.26-0.885-4.522-1.338-6.795c-0.475-2.386-2.571-4.028-5.572-4.125
	c-3.063-0.1-5.199,1.213-6.529,3.969c-2.496,5.176-5.89,9.853-8.082,15.226c-1.899,4.656-3.86,9.4-7.768,12.909
	c-0.215,0.194-0.284,0.56-0.403,0.852c-3.375,8.285-6.984,16.483-10.027,24.888C337.632,302.121,336.755,307.371,335.615,311.901z
	 M342.053,274.328c-1.777,1.321-3.446,1.983-4.162,3.204c-2.011,3.434-3.637,7.094-5.395,10.676
	c-0.181,0.368-0.361,0.836-0.287,1.206c0.114,0.572,0.311,1.33,0.729,1.58c0.399,0.239,1.281,0.134,1.686-0.17
	c4.599-3.457,6.262-8.803,8.563-13.71C343.433,276.592,342.583,275.559,342.053,274.328z M329.432,271.298
	c0.403,0.625,0.799,1.887,1.378,1.979c0.8,0.125,2.069-0.391,2.554-1.057c1.403-1.929,2.514-4.07,3.741-6.126
	c0.588-0.986,1.167-1.978,1.773-2.953c0.78-1.256,2.485-2.382,0.756-4.036c-0.958-0.917-2.958-0.194-4.204,1.633
	c-1.885,2.769-3.644,5.625-5.4,8.479C329.719,269.721,329.681,270.393,329.432,271.298z M341.94,263.143
	c0.153,0.272,0.382,1.2,0.952,1.519c0.409,0.229,1.451-0.174,1.898-0.613c0.963-0.943,1.686-2.128,2.58-3.149
	c1.665-1.898,3.453-3.694,5.031-5.66c0.409-0.508,0.577-1.847,0.243-2.169c-0.553-0.534-1.601-0.717-2.445-0.729
	c-0.548-0.009-1.26,0.419-1.633,0.87c-2.121,2.567-4.184,5.184-6.203,7.831C342.08,261.418,342.145,262.059,341.94,263.143z
	 M319.82,320.791c-0.009,0.961-0.169,2.252,0.032,3.483c0.092,0.561,0.897,1.004,1.379,1.502c0.375-0.435,0.885-0.81,1.104-1.311
	c0.969-2.208,1.869-4.446,2.761-6.687c0.388-0.973,0.942-1.971,0.963-2.968c0.019-0.808-0.452-1.896-1.077-2.352
	c-0.415-0.303-1.601,0.11-2.24,0.52C319.987,314.739,319.492,317.48,319.82,320.791z M316.695,301.27
	c0.214,0.271,0.675,0.86,1.135,1.447c0.616-0.568,1.498-1.023,1.799-1.726c1.347-3.154,2.529-6.378,3.768-9.578
	c0.151-0.39,0.406-0.783,0.408-1.176c0.002-0.575,0.01-1.381-0.334-1.665c-0.393-0.324-1.255-0.396-1.757-0.192
	c-0.63,0.256-1.206,0.825-1.624,1.393C317.701,293.026,317.157,296.863,316.695,301.27z"/>
<path fill-rule="evenodd" clip-rule="evenodd" fill="#FFFFFF" d="M672.231,258.388c0.688-3.58,1.56-6.232,4.94-7.677
	c2.567-1.098,4.79-2.997,7.348-4.128c1.029-0.455,2.81-0.212,3.772,0.428c1.399,0.93,0.829,2.583,0.395,4.05
	c-1.116,3.77-2.114,7.574-3.197,11.355c-0.201,0.702-0.528,1.379-0.875,2.025c-0.663,1.232-1.627,1.568-2.894,0.855
	c-2.477-1.395-5.025-2.676-7.401-4.223C673.421,260.489,672.916,259.301,672.231,258.388z"/>
<path fill-rule="evenodd" clip-rule="evenodd" fill="#FFFFFF" d="M449.057,340.655c0.582,2.868,1.13,5.745,1.76,8.604
	c0.517,2.337,0.059,2.923-2.347,2.638c-4.898-0.58-9.796-1.18-14.687-1.823c-0.562-0.075-1.172-0.393-1.57-0.788
	c-0.133-0.133,0.197-0.993,0.525-1.293c4.594-4.189,9.203-8.365,13.871-12.471c0.629-0.553,1.6-0.715,2.413-1.058
	c0.21,0.877,0.56,1.749,0.597,2.634c0.049,1.15-0.15,2.312-0.243,3.469C449.27,340.597,449.162,340.626,449.057,340.655z"/>
<path fill-rule="evenodd" clip-rule="evenodd" fill="#FFFFFF" d="M143.126,267.135c0.847-3.789,1.605-7.6,2.589-11.352
	c0.335-1.279,1.077-2.552,1.953-3.546c0.428-0.487,1.752-0.686,2.389-0.397c2.001,0.911,3.851,2.147,5.795,3.193
	c1.092,0.587,1.599,1.401,1.16,2.575c-0.62,1.653-1.319,3.278-2.04,4.892c-0.253,0.568-0.874,1.028-0.976,1.6
	c-0.664,3.72-3.651,4.915-6.587,6.083C144.144,271.482,143.13,270.671,143.126,267.135z"/>
<path fill-rule="evenodd" clip-rule="evenodd" fill="#FFFFFF" d="M183.618,390.229c-0.22,0.812-0.398,1.866-0.787,2.835
	c-1.748,4.367-3.42,8.772-5.391,13.039c-1.248,2.7-2.096,2.639-3.859,0.265c-0.627-0.843-1.274-1.671-1.918-2.502
	c-3.208-4.135-1.984-10.011,2.682-12.472c2.209-1.165,4.478-2.245,6.803-3.151C183.058,387.498,183.775,388.117,183.618,390.229z"/>
<path fill-rule="evenodd" clip-rule="evenodd" fill="#FFFFFF" d="M534.869,215.791c-1.544,0.541-8.369,2.885-7.205-1.139
	c1.052-3.634,5.012-11.112,4.902-11.432c0,0,0.629-1.053,1.689-0.983c3.896,0.257,10.481,7.923,10.355,8.984
	C544.484,212.283,535.857,215.445,534.869,215.791z"/>
<path fill-rule="evenodd" clip-rule="evenodd" fill="#FFFFFF" d="M203.913,270.682c-0.857,0.081-2.218,0.231-3.583,0.335
	c-2.978,0.227-3.471-0.475-2.393-3.167c0.948-2.368,2.101-4.528,4.048-6.295c1.778-1.613,3.225-3.586,4.95-5.266
	c0.689-0.671,1.733-1.32,2.613-1.317c0.463,0.001,1.101,1.377,1.349,2.223c0.747,2.555,1.18,5.148-0.13,7.694
	c-0.14,0.271-0.206,0.612-0.201,0.919C210.64,270.636,209.887,270.915,203.913,270.682z"/>
<path fill-rule="evenodd" clip-rule="evenodd" fill="#FFFFFF" d="M226.967,406.938c0.02-1.895-0.062-3.797,0.084-5.682
	c0.147-1.897,0.818-2.252,2.427-1.381c3.227,1.745,6.409,3.572,9.627,5.332c1.411,0.771,1.596,1.56,0.702,3.021
	c-2.254,3.683-5.942,5.245-9.626,6.72c-2.184,0.874-3.114,0.072-3.246-2.334C226.833,410.729,226.948,408.83,226.967,406.938z"/>
<path fill-rule="evenodd" clip-rule="evenodd" fill="#FFFFFF" d="M495.337,194.601c1.249,0.202,2.642,0.75,2.407,2.256
	c-0.493,3.181-1.16,6.368-2.122,9.437c-0.892,2.844-2.629,2.865-4.647,0.718c-1.771-1.885-3.979-3.355-5.946-5.063
	c-0.681-0.59-1.837-1.548-1.693-1.977c0.274-0.825,1.21-1.662,2.069-2.016c2.712-1.12,5.512-2.026,8.286-2.993
	C494.185,194.792,494.717,194.734,495.337,194.601z"/>
<path fill-rule="evenodd" clip-rule="evenodd" fill="#FFFFFF" d="M388.465,317.364c-0.224,1.662-0.439,3.326-0.673,4.987
	c-0.295,2.103-1.599,2.798-3.585,2.569c-2.191-0.252-4.391-0.437-6.576-0.728c-0.57-0.076-1.101-0.443-1.65-0.677
	c0.261-0.517,0.415-1.139,0.801-1.535c2.629-2.704,5.292-5.373,7.982-8.017c0.43-0.422,1.017-0.757,1.591-0.949
	c1.315-0.441,2.352-0.342,2.157,1.495c-0.1,0.941-0.14,1.889-0.207,2.834C388.358,317.352,388.412,317.358,388.465,317.364z"/>
<path fill-rule="evenodd" clip-rule="evenodd" fill="#FFFFFF" d="M751.899,269.695c1.959,0.745,3.119,3.431,2.235,4.662
	c-0.721,1.001-1.607,1.967-2.625,2.641c-0.689,0.457-1.732,0.379-2.617,0.541c0.179-0.704,0.28-1.439,0.551-2.105
	c0.58-1.43,1.253-2.822,1.873-4.235C751.532,270.706,751.706,270.196,751.899,269.695z"/>
<path fill-rule="evenodd" clip-rule="evenodd" fill="#FFFFFF" d="M592.752,233.037c-0.188,0.936-3.394,3.288-3.181,7.124
	c-3.474-2.7-8.833,4.706-9.546,4.574c-0.323-0.061,2.039-3.98,4.984-6.952c2.946-2.971,7.119-4.766,7.832-4.653L592.752,233.037z"/>
<path fill-rule="evenodd" clip-rule="evenodd" fill="#FFFFFF" d="M287.8,224.085c0.456,0.518,0.687,0.781,0.917,1.043
	c-0.814,0.519-1.624,1.046-2.464,1.519c-0.023,0.013-0.583-0.774-0.54-0.816C286.326,225.249,287.001,224.731,287.8,224.085z"/>
<path fill-rule="evenodd" clip-rule="evenodd" fill="#FFFFFF" d="M758.189,268.955c-0.688,0.284-1.357,0.688-2.073,0.797
	c-0.317,0.049-0.727-0.493-1.094-0.767c0.703-0.291,1.39-0.638,2.118-0.844c0.278-0.08,0.649,0.164,0.979,0.26
	C758.143,268.585,758.166,268.77,758.189,268.955z"/>
</svg>
