<?xml version="1.0" encoding="utf-8"?>
<!-- Generator: Adobe Illustrator 16.0.0, SVG Export Plug-In . SVG Version: 6.00 Build 0)  -->
<!DOCTYPE svg PUBLIC "-//W3C//DTD SVG 1.1//EN" "http://www.w3.org/Graphics/SVG/1.1/DTD/svg11.dtd">
<svg version="1.1" id="Layer_1" xmlns="http://www.w3.org/2000/svg" xmlns:xlink="http://www.w3.org/1999/xlink" x="0px" y="0px"
	 width="800px" height="600px" viewBox="0 0 800 600" enable-background="new 0 0 800 600" xml:space="preserve">
<path fill-rule="evenodd" clip-rule="evenodd" fill="#FFFFFF" d="M553.652,340.392c1.397-6.028,3.783-15.161,5.591-24.405
	c2.881-14.74,5.694-29.507,7.951-44.352c2.314-15.228,3.999-30.553,5.822-45.852c1.342-11.259,2.676-22.526,3.59-33.824
	c0.455-5.638-0.113-11.355-0.04-17.034c0.014-1.1,0.85-2.19,1.308-3.285c0.712,0.991,1.75,1.884,2.08,2.988
	c1.2,4.033,2.092,8.159,3.297,12.19c0.185,0.617,1.446,1.358,2.152,1.304c7.3-0.563,14.575-1.527,21.882-1.847
	c3.856-0.169,7.771,0.628,11.634,1.177c0.952,0.135,1.8,1.002,2.695,1.534c-0.646,0.556-1.229,1.211-1.943,1.653
	c-7.549,4.661-12.733,10.75-14.479,19.906c-1.706,8.952-4.963,17.605-6.766,26.545c-2.955,14.653-5.267,29.436-7.882,44.157
	c-1.349,7.591-3.066,15.128-4.09,22.761c-1.492,11.14-2.681,22.328-3.65,33.525c-0.432,4.979,4.308,11.704,8.416,12.154
	c2.305,0.252,5.556-0.864,7.885-1.519c-2.142-7.799-4.995-28.882,0.592-41.803c2.191-5.064,4.438-10.502,8.09-14.447
	c5.603-6.053,12.228-11.246,18.86-16.214c2.67-1.999,7.097-4.105,9.679-3.196c3.862,1.361,7.053,5.101,10.082,8.258
	c6.105,6.366,5.562,14.384,3.892,22.017c-1.782,8.143-7.865,26.882-33.455,34.936c0,0,0.075,6.551,8.868,9.074
	c8.793,2.522,23.304-12.938,24.333-13.374c-0.069,1.16-8.086,15.386-11.497,21.625c-3.38,6.187-9.494,7.702-15.172,10.065
	c-4.262,1.775-16.927-5.066-19.773-10.665c-2.098-4.124-3.834-4.878-7.973-1.696c-5.924,4.555-12.435,8.556-19.202,11.699
	c-2.77,1.286-7.151,0.479-10.3-0.703C558.769,360.979,553.185,351.463,553.652,340.392z M634.259,302.871
	c0.12-3.486-0.858-4.78-2.232-6.625c-1.717-2.305-4.391-3.897-6.651-5.798c-1.712,2.411-3.958,4.61-5.016,7.28
	c-1.671,4.22-2.878,8.695-3.664,13.172c-0.783,4.472-0.861,9.073-1.104,13.625c-0.036,0.668,0.591,1.759,1.157,1.958
	c0.509,0.18,1.412-0.515,2.042-0.964c1.633-1.161,3.291-2.308,4.794-3.624C629.25,316.931,634.14,306.356,634.259,302.871z"/>
<path fill-rule="evenodd" clip-rule="evenodd" fill="#FFFFFF" d="M379.071,276.327c6.749,1.337,11.653,2.433,16.61,3.185
	c0.989,0.15,2.931-0.8,3.158-1.603c2.015-7.138,3.77-14.35,5.554-21.552c2.446-9.885,5.028-19.742,7.228-29.682
	c2.547-11.512,4.84-23.083,7.047-34.666c0.942-4.946,1.352-9.992,2.101-14.979c0.105-0.698,0.77-1.311,1.175-1.963
	c0.493,0.595,1.295,1.128,1.428,1.796c0.699,3.507,1.265,7.044,1.807,10.581c0.303,1.986,0.9,2.88,2.971,1.489
	c10.202-6.853,21.772-4.222,32.897-4.589c0.734-0.024,1.497,0.772,2.246,1.187c-0.632,0.706-1.129,1.756-1.918,2.066
	c-14.079,5.543-18.763,17.651-22.032,30.933c-5.954,24.198-11.874,48.408-18.254,72.496c-4.079,15.395-8.982,30.569-13.457,45.862
	c-0.974,3.328-1.911,7.361,1.836,9.057c2.214,1.001,5.528-0.405,8.342-0.77c0.775-0.099,1.531-0.343,2.296-0.52
	c-0.012,0.596,0.186,1.307-0.067,1.774c-3.374,6.231-14.461,16.147-23.59,14.571c-6.444-1.112-10.771-4.177-13.231-10.116
	c-0.337-0.816-0.848-1.56-1.278-2.336c-0.702,0.685-1.562,1.267-2.08,2.069c-4.25,6.567-10.036,10.715-17.819,12.28
	c-6.359,1.278-11.214-1.279-15.389-5.444c-11.348-11.324-16.726-29.429-6.998-44.643c5.317-8.316,11.423-15.546,18.614-22.074
	c3.281-2.978,6.311-6.327,9.936-8.8C371.879,279.43,376.151,277.794,379.071,276.327z M367.984,344.016
	c8.656-1.373,13.608-5.462,15.763-12.939c3.029-10.505,6.309-20.937,9.353-31.438c0.142-0.491-0.893-1.855-1.51-1.948
	c-4.526-0.686-9.074-1.352-13.637-1.632c-5.682-0.349-12.402-2.645-16.015,3.732c-7.095,12.522-9.912,25.606-1.001,38.593
	C362.563,340.756,365.6,342.163,367.984,344.016z"/>
<path fill-rule="evenodd" clip-rule="evenodd" fill="#FFFFFF" d="M683.415,293.03c-1.717-0.185-4.501-0.23-5.033,0.685
	c-0.782,1.344-0.708,4.25,0.276,5.367c3.469,3.931,7.452,7.412,11.291,11.008c4.03,3.772,8.325,7.282,12.139,11.257
	c8.029,8.366,2.35,16.616-0.913,24.57c-2.732,6.659-5.698,13.397-9.719,19.313c-5.989,8.812-12.564,17.321-19.703,25.226
	c-6.118,6.772-13.362,13.099-22.712,14.505c-7.562,1.139-15.584,1.19-23.131,0.005c-12.102-1.9-23.896-5.75-35.995-7.692
	c-5.098-0.817-10.754,0.648-15.955,1.907c-11.046,2.677-19.658,9.096-25.616,18.798c-2.084,3.395-3.552,7.163-5.381,10.72
	c-0.38,0.738-1.118,1.292-1.69,1.93c-0.154-0.818-0.54-1.67-0.426-2.45c1.795-12.221,8.438-21.864,15.874-31.358
	c7.692-9.821,17.67-16.147,28.878-20.509c3.749-1.458,8.646-0.509,12.925,0.047c10.657,1.385,21.217,3.847,31.905,4.595
	c8.979,0.629,18.603,1.127,26.972-1.458c6.776-2.094,12.58-8.39,17.894-13.736c2.928-2.944,5.15-7.65,5.579-11.781
	c0.761-7.3-2.772-13.235-8.137-18.606c-5.268-5.274-9.441-11.693-13.679-17.896c-0.907-1.328-0.013-3.88,0.03-5.869
	c0.011-0.528-0.062-1.059-0.095-1.588c-0.468,0.215-0.972,0.374-1.395,0.654c-2.271,1.507-4.497,3.084-6.803,4.533
	c-0.423,0.266-1.145,0.057-1.728,0.067c0.122-0.512,0.087-1.156,0.39-1.519c4.081-4.889,8.21-9.738,12.328-14.598
	c0.059-0.069,0.157-0.103,0.211-0.174c4.592-6.051,9.563-11.856,13.649-18.231c3.41-5.32,10.019-7.771,17.474-6.462
	c5.835,1.023,11.914,0.648,17.883,0.927c5.681,0.265,10.308-1.519,13.464-6.53c0.38-0.604,1.522-0.731,2.312-1.079
	c0.152,0.78,0.616,1.659,0.405,2.324c-1.156,3.64-2.007,7.491-3.833,10.787c-5.804,10.483-11.963,20.771-18.078,31.08
	c-0.601,1.013-1.832,1.653-2.771,2.466c-0.196-1.289-0.846-2.719-0.502-3.843c0.988-3.226,2.426-6.312,3.595-9.486
	c0.681-1.845,1.187-3.754,1.771-5.635C705.523,295.017,689.526,293.688,683.415,293.03z"/>
<path fill-rule="evenodd" clip-rule="evenodd" fill="#FFFFFF" d="M67.743,347.372c0.718-2.501,2.066-7.336,3.499-12.146
	c1.892-6.351,3.947-12.656,5.76-19.027c5.344-18.787,10.487-37.631,15.926-56.389c5.706-19.678,11.223-39.397,13.289-59.854
	c0.643-6.366,0.245-12.834,0.436-19.252c0.029-0.962,0.678-1.907,1.04-2.86c0.529,0.893,1.216,1.729,1.561,2.688
	c1.603,4.468,3.057,8.99,4.729,13.43c0.192,0.51,1.831,1.103,2.088,0.872c7.265-6.569,16.068-7.542,25.264-7.059
	c0.896,0.046,1.76,0.704,2.639,1.078c-0.552,0.858-0.903,2.118-1.688,2.513c-6.559,3.297-9.189,9.184-10.775,15.82
	c-2.773,11.612-5.369,23.271-8.405,34.814c-1.471,5.594-9.317,35.454-11.358,44.908c-3.777,17.497-7.662,34.971-11.637,52.422
	c-1.812,7.954,2.797,13.101,10.826,11.805c0.535-0.087,1.123,0.149,1.687,0.237c-0.171,0.589-0.199,1.281-0.536,1.752
	c-6.731,9.405-21.602,15.003-32.848,12.404C73.488,364.202,67.757,356.4,67.743,347.372z"/>
<path fill-rule="evenodd" clip-rule="evenodd" fill="#FFFFFF" d="M474.812,338.608c0.349-14.6,6.401-27.465,14.683-39.197
	c4.446-6.3,10.233-11.749,15.899-17.066c4.72-4.43,10.825-5.245,17.229-4.696c5.771,0.494,11.622,0.922,17.371,0.489
	c2.9-0.218,5.635-2.454,8.489-3.67c0.562-0.24,1.335,0.01,2.01,0.033c-0.209,0.565-0.282,1.247-0.65,1.675
	c-1.783,2.077-3.78,3.983-5.437,6.152c-1.176,1.538-2.449,3.303-2.786,5.131c-1.742,9.455-3.557,18.92-4.631,28.464
	c-0.77,6.85-0.895,13.86-0.405,20.736c0.369,5.183,4.241,7.891,13.482,0.238c-0.233,2.075,0.3,4.813-0.825,6.116
	c-6.212,7.181-10.563,16.492-20.875,19.239c-5.814,1.548-12.52-1.358-14.999-6.817c-1.157-2.549-1.618-1.423-2.731-0.028
	c-5.101,6.386-14.27,12.59-23.734,7.487c-5.194-2.801-12.169-14.055-12.093-21.01C474.82,340.873,474.812,339.862,474.812,338.608z
	 M492.196,329.09c-0.543,5.266,0.773,14.968,4.855,15.826c4.082,0.857,14.047-2.438,14.965-7.661
	c1.761-10.014,3.521-20.028,5.308-30.039c0.56-3.13,2.693-7.312,1.421-9.086c-1.464-2.039-5.863-2.266-9.066-2.686
	c-3.76-0.492-7.448,0.17-8.925,4.428c-1.361,3.93-2.446,7.955-3.607,11.952C495.442,317.683,492.74,323.823,492.196,329.09z"/>
<path fill-rule="evenodd" clip-rule="evenodd" fill="#FFFFFF" d="M213.101,347.4c1.098-0.05,2.205-0.038,3.295-0.163
	c2.426-0.276,2.773-1.278,2.039-3.74c-1.949-6.531-6.833-10.67-11.311-15.229c-3.536-3.599-7.74-6.92-10.045-11.224
	c-1.779-3.324-1.091-7.976-1.457-12.041c-0.061-0.672,0.098-1.364,0.155-2.048c-0.557,0.268-1.095,0.586-1.675,0.79
	c-0.963,0.341-1.95,0.607-2.928,0.903c0.346-0.923,0.435-2.113,1.075-2.729c10.274-9.866,19.234-21.267,32.152-28.057
	c1.677-0.882,3.898-1.033,5.862-1.012c6.216,0.07,12.502,1.038,18.623,0.378c4.318-0.467,8.416-3.005,12.602-4.646
	c1.116-0.438,2.193-0.98,3.288-1.474c-0.166,1.294,0.046,2.809-0.559,3.848c-3.917,6.729-7.876,13.442-12.091,19.987
	c-3.922,6.088-8.134,11.995-12.332,17.899c-0.735,1.033-2.029,1.67-3.064,2.488c0.128-1.277-0.025-2.668,0.435-3.812
	c1.646-4.083,3.542-8.064,5.222-12.134c0.188-0.456-0.385-1.772-0.613-1.774c-8.058-0.059-16.118-0.065-24.17,0.153
	c-0.574,0.015-1.796,2.377-1.542,2.688c4.597,5.617,8.751,11.828,14.244,16.43c11.095,9.291,12.309,16.257,5.549,28.415
	c-3.328,5.985-6.643,12.144-11.022,17.33c-4.528,5.363-10.438,9.85-17.959,9.987c-9.571,0.175-18.944-1.142-26.097-8.551
	c-3.907-4.047-3.913-9.521-0.474-15.213c2.128-3.522,3.915-7.271,6.271-10.626c1.043-1.484,3.061-2.352,4.77-3.244
	c0.33-0.173,1.787,0.762,1.864,1.309c1.303,9.172,8.488,15.328,17.969,15.237c0.644-0.005,1.285-0.055,1.928-0.083
	C213.103,347.43,213.102,347.414,213.101,347.4z"/>
<path fill-rule="evenodd" clip-rule="evenodd" fill="#FFFFFF" d="M187.466,307.232c0.763,7.245-3.518,14.101-8.906,20.681
	c-8.414,10.273-16.521,20.825-27.988,28.005c-7.225,4.521-14.9,7.506-23.341,3.636c-6.507-2.982-9.682-9.075-12.361-15.262
	c-5.325-12.297-2.464-24.035,2.593-35.696c4.889-11.272,11.293-14.461,23.808-24.716c12.516-10.255,25.386-10.811,32.818-4.493
	C181.978,286.093,187.333,294.589,187.466,307.232z M135.833,315.191c0.401,10.453,6.73,23.249,13.363,22.532
	c6.634-0.717,14.59-17.093,15.525-23.06c1.538-9.818-2.115-17.146-10.236-23.315c-3.853-2.926-9.457-2.35-12.448,1.339
	C137.479,298.306,135.431,304.738,135.833,315.191z"/>
<path fill-rule="evenodd" clip-rule="evenodd" fill="#FFFFFF" d="M419.782,330.345c0.461-8.914,3.314-20.52,11.184-30.778
	c7.53-9.818,17.336-16.915,26.923-24.31c3.674-2.835,11.757-0.576,15.831,3.671c6.993,7.289,7.037,15.51,3.979,24.529
	c-5.39,15.896-18.227,24.25-31.598,32.223c-0.528,0.315-0.841,2.275-0.461,2.64c5.425,5.187,14.483,4.791,19.878-0.574
	c1.772-1.763,3.886-3.182,5.843-4.756c-0.89,2.235-1.396,4.738-2.737,6.66c-5.033,7.221-10.061,14.479-15.624,21.287
	c-5.162,6.315-21.561,2.52-24.967-3.579C423.877,349.914,419.411,342.847,419.782,330.345z M460.716,303.744
	c-1.54-3.336-2.706-6.926-4.745-9.921c-1.52-2.229-4.308-2.983-6.613-0.491c-8.102,8.76-11.059,19.161-9.447,30.882
	c0.062,0.459,2.018,1.262,2.523,0.958c2.902-1.738,5.685-3.69,8.41-5.702C456.009,315.655,460.05,311.129,460.716,303.744z"/>
<path fill-rule="evenodd" clip-rule="evenodd" fill="#FFFFFF" d="M341.254,283.767c-2.207,6.931-4.03,12.855-5.982,18.738
	c-3.228,9.731-6.594,19.415-9.783,29.158c-1.167,3.566-2.359,7.19-2.896,10.882c-0.824,5.668,1.986,7.681,7.385,5.714
	c1.034-0.378,2.033-0.857,3.074-1.211c1.216-0.413,2.461-0.741,3.694-1.108c-0.685,1.212-1.087,2.787-2.103,3.571
	c-5.908,4.562-11.448,10.055-18.09,13.101c-8.704,3.99-14.258-1.071-16.465-9.677c-2.941-11.467,1.673-21.661,5.385-31.963
	c3.704-10.279,7.89-20.388,11.422-30.724c0.539-1.577-1.361-3.96-2.045-5.999c-0.28-0.834-0.775-2.108-0.407-2.563
	c2.926-3.617,19.658-6.32,23.307-3.475C339.51,279.584,340.307,282.191,341.254,283.767z"/>
<path fill-rule="evenodd" clip-rule="evenodd" fill="#FFFFFF" d="M345.346,242.824c-0.479,11.281-5.728,17-13.056,21.272
	c-1.973,1.15-3.981,2.258-6.057,3.201c-0.603,0.273-1.496-0.092-2.255-0.165c0.187-0.663,0.231-1.416,0.583-1.976
	c4.518-7.186,4.157-13.188-0.742-20.068c-0.752-1.057-0.546-3.984,0.353-4.814c3.005-2.773,6.346-5.324,9.941-7.244
	c1.4-0.749,4.681-0.3,5.608,0.831C342.34,237.057,344.185,240.889,345.346,242.824z"/>
</svg>
