<?xml version="1.0" encoding="utf-8"?>
<!-- Generator: Adobe Illustrator 16.0.0, SVG Export Plug-In . SVG Version: 6.00 Build 0)  -->
<!DOCTYPE svg PUBLIC "-//W3C//DTD SVG 1.1//EN" "http://www.w3.org/Graphics/SVG/1.1/DTD/svg11.dtd">
<svg version="1.1" xmlns="http://www.w3.org/2000/svg" xmlns:xlink="http://www.w3.org/1999/xlink" x="0px" y="0px" width="800px"
	 height="600px" viewBox="0 0 800 600" enable-background="new 0 0 800 600" xml:space="preserve">
<g id="Layer_1">
</g>
<g id="Layer_2">
	<g>
		<g>
			<polygon fill="none" stroke="#FFFFFF" stroke-width="10" stroke-miterlimit="10" points="86,340 86,235 133,235 133,275 
				109.5,294.667 133,315.333 133,340 			"/>
			<polyline fill="none" stroke="#FFFFFF" stroke-width="10" stroke-miterlimit="10" points="197,344 197,236 246,236 246,344 			
				"/>
			<line fill="none" stroke="#FFFFFF" stroke-width="10" stroke-miterlimit="10" x1="202" y1="299" x2="251" y2="299"/>
			<polyline fill="none" stroke="#FFFFFF" stroke-width="10" stroke-miterlimit="10" points="304,340 354,340 354,300 309,300 
				309,236 359,236 			"/>
			<line fill="none" stroke="#FFFFFF" stroke-width="10" stroke-miterlimit="10" x1="423" y1="232" x2="423" y2="344"/>
			<polyline fill="none" stroke="#FFFFFF" stroke-width="10" stroke-miterlimit="10" points="488,232 488,339 541,339 			"/>
			<line fill="none" stroke="#FFFFFF" stroke-width="10" stroke-miterlimit="10" x1="600" y1="232" x2="600" y2="344"/>
			<rect x="666" y="237" fill="none" stroke="#FFFFFF" stroke-width="10" stroke-miterlimit="10" width="46" height="102"/>
		</g>
		<line fill="none" stroke="#FFFFFF" stroke-width="10" stroke-miterlimit="10" x1="111" y1="296" x2="87" y2="296"/>
	</g>
</g>
</svg>
