<?xml version="1.0" encoding="utf-8"?>
<!-- Generator: Adobe Illustrator 16.0.0, SVG Export Plug-In . SVG Version: 6.00 Build 0)  -->
<!DOCTYPE svg PUBLIC "-//W3C//DTD SVG 1.1//EN" "http://www.w3.org/Graphics/SVG/1.1/DTD/svg11.dtd">
<svg version="1.1" xmlns="http://www.w3.org/2000/svg" xmlns:xlink="http://www.w3.org/1999/xlink" x="0px" y="0px" width="800px"
	 height="600px" viewBox="0 0 800 600" enable-background="new 0 0 800 600" xml:space="preserve">
<g id="Layer_1">
</g>
<g id="Layer_2">
	<g>
		<path fill="#FFFFFF" d="M68,332l38.188-59.625L141.75,332H122l-2.25-4H91l-2.5,4H68z M112,312l-5.562-9.812L101,312H112z"/>
		<path fill="#FFFFFF" d="M263,332l38.188-59.625L336.75,332H317l-2.25-4H286l-2.5,4H263z M307,312l-5.562-9.812L296,312H307z"/>
		<g>
			<polygon fill="#FFFFFF" points="166,331 166,273 183,273 183,316 238,316 238,331 			"/>
			<polygon fill="#FFFFFF" points="363,333 363,272 382,272 400,298 416.75,272 433,272 433,333 417,333 417,300 399.375,328.25 
				379,299.5 379,333 			"/>
			<polygon fill="#FFFFFF" points="462,333 462,271 532,271 532,287 479,287 479,296 504,296 504,309 479,309 479,319 531,319 
				531,333 			"/>
			<path fill="#FFFFFF" d="M560,334v-62h42l30,25v37H560z M614,317v-14.5L595,286h-17v31H614z"/>
			<path fill="#FFFFFF" d="M659,332l38.188-59.625L732.75,332H713l-2.25-4H682l-2.5,4H659z M703,312l-5.562-9.812L692,312H703z"/>
		</g>
	</g>
</g>
</svg>
