<?xml version="1.0" encoding="utf-8"?>
<!-- Generator: Adobe Illustrator 16.0.0, SVG Export Plug-In . SVG Version: 6.00 Build 0)  -->
<!DOCTYPE svg PUBLIC "-//W3C//DTD SVG 1.1//EN" "http://www.w3.org/Graphics/SVG/1.1/DTD/svg11.dtd">
<svg version="1.1" id="Layer_1" xmlns="http://www.w3.org/2000/svg" xmlns:xlink="http://www.w3.org/1999/xlink" x="0px" y="0px"
	 width="800px" height="600px" viewBox="0 0 800 600" enable-background="new 0 0 800 600" xml:space="preserve">
<g id="_x30_ckAVm_1_">
	<g>
		<path fill-rule="evenodd" clip-rule="evenodd" fill="#FFFFFF" d="M396.253,266.146c0-18.065-0.01-36.131,0.011-54.197
			c0.003-2.508-0.657-3.075-3.154-3.079c-7.1-0.011-14.2-0.153-21.299-0.241c-13.087-0.163-26.173-0.301-39.259-0.493
			c-12.75-0.187-25.499-0.487-38.25-0.625c-7.37-0.08-14.744,0.137-22.114,0.082c-10.472-0.079-20.943-0.282-31.414-0.438
			c-13.365-0.201-26.73-0.444-40.097-0.6c-9.028-0.105-18.058-0.045-27.085-0.15c-4.289-0.05-6.531-2.497-6.355-6.641
			c0.163-3.829,3.303-6.778,6.974-6.708c13.301,0.254,26.602,0.514,39.904,0.669c17.786,0.207,35.572,0.313,53.357,0.475
			c9.917,0.09,19.835,0.196,29.752,0.313c17.025,0.201,34.05,0.387,51.074,0.639c6.407,0.095,12.811,0.47,19.218,0.509
			c8.536,0.052,17.073-0.186,25.608-0.142c11.489,0.058,22.975,0.299,34.462,0.398c7.989,0.068,15.979-0.024,23.969,0.051
			c12.268,0.115,24.534,0.356,36.802,0.459c12.133,0.103,24.269,0.067,36.402,0.154c14.611,0.105,29.223,0.343,43.835,0.39
			c8.201,0.027,16.404-0.303,24.606-0.312c9.438-0.01,18.876,0.164,28.314,0.246c4.687,0.041,9.379,0.202,14.06,0.043
			c4.689-0.159,7.964,2.851,7.989,6.024c0.035,4.222-2.923,7.171-7.771,7.305c-3.996,0.11-7.999-0.013-11.999-0.033
			c-4.609-0.022-9.22-0.024-13.829-0.072c-10.336-0.106-20.671-0.241-31.007-0.353c-13.577-0.147-27.154-0.282-40.731-0.426
			c-13.784-0.146-27.567-0.332-41.352-0.44c-19.646-0.155-39.292-0.227-58.938-0.395c-7.712-0.066-15.422-0.261-23.132-0.464
			c-3.798-0.1-4.211,0.171-4.259,3.919c-0.141,11.097-0.271,22.194-0.353,33.291c-0.077,10.398-0.073,20.797-0.131,31.195
			c-0.108,19.779-0.228,39.558-0.36,59.337c-0.041,6.192-0.124,12.386-0.232,18.578c-0.02,1.096-0.191,2.2-0.402,3.279
			c-0.711,3.629-3.133,5.444-6.98,5.295c-3.287-0.128-5.82-2.249-5.949-5.669c-0.273-7.299-0.277-14.609-0.311-21.916
			c-0.044-9.441-0.016-18.883-0.01-28.324c0.006-9.579,0.023-19.159,0.033-28.738c0.004-4.065,0.001-8.131,0.001-12.196
			C395.985,266.146,396.119,266.146,396.253,266.146z"/>
		<path fill-rule="evenodd" clip-rule="evenodd" fill="#FFFFFF" d="M758.247,315.927c0.276,13.752,0.518,28.707,0.896,43.659
			c0.322,12.743,0.833,25.48,1.2,38.223c0.177,6.132,0.35,12.271,0.236,18.4c-0.033,1.799-0.721,3.795-1.703,5.318
			c-1.375,2.134-3.894,2.577-6.106,1.725c-2.59-0.997-4.994-2.738-5.272-5.831c-0.42-4.661-0.612-9.35-0.731-14.031
			c-0.369-14.395-0.663-28.791-0.976-43.187c-0.077-3.58-0.202-3.546-3.447-4.926c-6.203-2.64-12.312-5.502-18.49-8.203
			c-4.477-1.957-8.997-3.813-13.505-5.698c-7.873-3.292-15.745-6.585-23.638-9.829c-0.704-0.29-1.558-0.219-2.342-0.315
			c-0.074,0.715-0.223,1.432-0.211,2.146c0.136,8.399,0.291,16.798,0.451,25.197c0.225,11.78,0.504,23.562,0.65,35.344
			c0.033,2.604-0.192,5.251-0.656,7.812c-0.671,3.7-5.738,5.142-9.087,2.731c-2.36-1.699-3.5-4.094-3.605-6.906
			c-0.233-6.266-0.394-12.536-0.479-18.806c-0.195-14.128-0.327-28.258-0.485-42.387c-0.104-9.231-0.313-18.463-0.29-27.695
			c0.044-16.399,0.27-32.798,0.336-49.197c0.03-7.308,2.549-13.564,8.554-17.675c3.243-2.221,7.309-3.524,11.192-4.467
			c7.992-1.94,16.202-2.201,24.419-2.343c7.245-0.125,14.46-0.125,21.542,1.532c4.992,1.168,9.707,2.903,13.329,6.931
			c4.472,4.975,7.012,10.759,7.342,17.337c0.49,9.763,0.691,19.544,0.849,29.321C758.352,298.31,758.247,306.517,758.247,315.927z
			 M684.157,300.339c-0.012,0-0.023,0-0.036,0c0,4.48,0.02,8.961-0.012,13.441c-0.01,1.382,0.421,2.404,1.757,2.966
			c4.25,1.788,8.488,3.603,12.737,5.391c4.182,1.761,8.379,3.485,12.556,5.257c3.987,1.69,7.953,3.432,11.937,5.133
			c6.581,2.812,13.178,5.587,19.745,8.43c1.72,0.744,2.417,0.372,2.399-1.55c-0.188-20.257-0.31-40.515-0.621-60.77
			c-0.084-5.427-0.27-10.934-1.257-16.247c-1.662-8.946-6.738-13.357-15.852-14.001c-5.412-0.382-10.864-0.417-16.292-0.303
			c-5.155,0.109-10.355,0.255-15.438,1.03c-7.93,1.209-11.591,5.811-11.614,13.805C684.131,275.393,684.157,287.866,684.157,300.339
			z"/>
		<path fill-rule="evenodd" clip-rule="evenodd" fill="#FFFFFF" d="M126.95,349.836c0.209-8.405,0.436-16.81,0.613-25.215
			c0.035-1.648-0.026-3.311-0.209-4.947c-0.201-1.803-1.306-2.5-3.079-2.013c-3.919,1.075-7.836,2.163-11.753,3.246
			c-10.351,2.861-20.703,5.721-31.052,8.585c-6.093,1.688-12.157,3.494-18.291,5.015c-2.005,0.497-4.244,0.601-6.285,0.289
			c-4.122-0.629-6.255-3.261-6.142-7.482c0.229-8.609-0.345-17.215-0.032-25.823c0.103-2.824,0.104-5.651,0.159-8.478
			c0.289-14.748,0.535-29.498,0.912-44.244c0.068-2.637,0.437-5.324,1.096-7.877c1.467-5.676,7.702-8.766,13.138-8.826
			c10.536-0.116,21.071-0.375,31.607-0.492c3.225-0.036,6.453,0.241,9.681,0.298c7.299,0.131,14.602,0.4,21.896,0.263
			c6.844-0.129,11.482,6.613,11.316,11.4c-0.165,4.749-0.367,9.497-0.626,14.242c-0.225,4.125-0.625,8.241-0.811,12.367
			c-0.129,2.868-1.333,4.797-4.047,5.868c-2.522,0.995-4.9,0.635-7.124-0.643c-2.126-1.221-2.104-3.416-1.957-5.514
			c0.468-6.664,1.01-13.322,1.473-19.985c0.247-3.558-1.107-4.871-4.718-4.848c-8.613,0.054-17.227,0.081-25.84,0.114
			c-5.577,0.021-11.154-0.027-16.729,0.072c-4.13,0.074-8.265,0.238-12.377,0.593c-0.866,0.075-2.038,0.999-2.374,1.817
			c-0.557,1.355-0.712,2.938-0.754,4.432c-0.251,8.956-0.317,17.918-0.646,26.871c-0.463,12.6-0.106,25.193-0.663,37.79
			c-0.149,3.363,0.69,4.159,4.004,3.431c4.234-0.931,8.451-1.962,12.632-3.109c7.636-2.095,15.228-4.354,22.862-6.455
			c6.837-1.883,13.685-3.737,20.574-5.411c2.448-0.595,5.029-0.82,7.556-0.864c4.184-0.072,7.724,2.825,8.643,6.937
			c0.418,1.871,0.758,3.817,0.721,5.722c-0.194,9.781-0.534,19.561-0.801,29.341c-0.278,10.198-0.453,20.4-0.831,30.595
			c-0.171,4.617-0.662,9.216-3.59,13.146c-2.103,2.822-4.869,4.824-8.144,5.705c-9.704,2.609-19.478,4.963-29.239,7.356
			c-5.083,1.247-10.172,2.485-15.301,3.519c-7.42,1.495-14.864,2.88-22.324,4.158c-4.862,0.833-8.42-0.715-10.426-4.462
			c-0.652-1.219-1.034-2.739-1.039-4.123c-0.019-6.479,0.109-12.959,0.241-19.437c0.076-3.714,0.187-7.431,0.414-11.139
			c0.191-3.134,2.229-5.034,5.499-5.385c3.392-0.363,5.87,1.114,6.627,4.217c0.352,1.441,0.349,2.996,0.325,4.497
			c-0.094,6.064-0.23,12.127-0.411,18.188c-0.089,3.001,0.902,4.154,3.939,3.619c5.694-1.002,11.349-2.237,17.003-3.451
			c4.44-0.953,8.857-2.016,13.282-3.039c3.148-0.729,6.313-1.396,9.435-2.227c5.112-1.359,10.216-2.761,15.284-4.275
			c3.978-1.188,5.896-3.704,6.07-7.888c0.363-8.675,0.637-17.354,0.948-26.032C127.174,349.842,127.062,349.839,126.95,349.836z"/>
		<path fill-rule="evenodd" clip-rule="evenodd" fill="#FFFFFF" d="M569.076,265.15c-0.135,0.77-0.373,1.538-0.387,2.311
			c-0.094,5.092-0.156,10.186-0.195,15.279c-0.063,7.994-0.089,15.988-0.15,23.982c-0.162,21.095-0.341,42.188-0.494,63.282
			c-0.017,2.242-0.493,4.263-2.359,5.694c-1.92,1.473-3.98,2.158-6.346,0.984c-2.485-1.233-4.075-3.108-4.094-5.959
			c-0.042-6.203,0.057-12.407,0.011-18.609c-0.056-7.442-0.293-14.884-0.284-22.325c0.01-7.446,0.259-14.892,0.347-22.337
			c0.187-15.784,0.295-31.57,0.524-47.354c0.088-5.99,0.314-11.984,0.682-17.964c0.246-4.031,2.173-6.339,5.281-6.976
			c4.488-0.92,7.908,0.413,9.826,4.158c3.831,7.48,7.516,15.035,11.275,22.552c2.984,5.965,6.002,11.914,8.986,17.879
			c2.464,4.926,4.922,9.855,7.342,14.805c3.382,6.917,6.792,13.821,10.064,20.79c2.456,5.229,4.668,10.571,7.073,15.823
			c1.748,3.817,3.691,7.544,5.449,11.357c3.025,6.564,5.967,13.168,8.962,19.747c0.409,0.898,0.921,1.751,1.386,2.625
			c0.182-0.038,0.362-0.077,0.544-0.115c0.093-0.479,0.274-0.961,0.264-1.438c-0.385-18.126-0.994-36.251-1.131-54.379
			c-0.145-19.027,0.167-38.058,0.265-57.086c0.015-2.752-0.097-5.505-0.067-8.256c0.034-3.105,1.162-5.649,4.047-7.164
			c4.133-2.17,9.05,0.368,9.262,5.049c0.337,7.432,0.473,14.88,0.459,22.32c-0.026,13.374-0.187,26.747-0.371,40.12
			c-0.099,7.094-0.497,14.186-0.518,21.279c-0.02,6.603,0.314,13.205,0.437,19.809c0.229,12.333,0.478,24.667,0.564,37.002
			c0.016,2.201-0.206,4.668-1.186,6.564c-3.153,6.107-10.654,6.624-15.021,0.696c-1.539-2.09-2.742-4.454-3.896-6.792
			c-2.406-4.876-4.729-9.794-6.989-14.739c-2.115-4.628-4.06-9.332-6.158-13.967c-2.783-6.147-5.603-12.279-8.48-18.382
			c-5.167-10.957-10.325-21.918-15.605-32.819c-5.456-11.265-11.055-22.46-16.584-33.689c-0.641-1.3-1.238-2.621-1.856-3.932
			C569.661,265.034,569.368,265.092,569.076,265.15z"/>
		<path fill-rule="evenodd" clip-rule="evenodd" fill="#FFFFFF" d="M251.051,310.744c0,11.79-0.003,23.58,0.001,35.371
			c0.002,6.821,0.01,13.643,0.026,20.464c0.007,3.016-1.298,5.285-4.135,6.281c-2.913,1.022-5.786,0.734-7.943-1.783
			c-0.675-0.787-1.294-1.916-1.326-2.908c-0.137-4.258-0.095-8.524-0.027-12.786c0.141-8.816,0.336-17.632,0.519-26.447
			c0.116-5.581,0.227-11.162,0.387-16.741c0.058-2.021-0.378-2.384-2.249-1.746c-9.515,3.241-19.057,6.403-28.547,9.718
			c-7.212,2.518-14.355,5.233-21.539,7.833c-1.809,0.654-3.648,1.226-5.489,1.786c-1.592,0.484-2.353,1.457-2.373,3.173
			c-0.156,13.512-0.354,27.022-0.544,40.533c-0.016,1.104-0.043,2.207-0.107,3.308c-0.157,2.691-1.557,4.547-4.013,5.521
			c-2.423,0.96-4.85,1.037-7.067-0.634c-1.807-1.362-2.46-3.304-2.465-5.45c-0.019-8.827-0.033-17.655,0.046-26.481
			c0.068-7.65,0.253-15.299,0.406-22.948c0.136-6.821,0.338-13.642,0.443-20.464c0.149-9.713,0.114-19.431,0.388-29.139
			c0.249-8.812,0.601-17.63,1.294-26.416c0.511-6.467,4.428-10.932,9.825-14.233c5.083-3.11,10.587-4.5,16.529-4.459
			c11.092,0.076,22.186-0.002,33.276,0.139c2.802,0.036,5.654,0.411,8.384,1.053c9.485,2.23,14.636,8.723,16.355,17.934
			c0.764,4.091,0.672,8.37,0.692,12.565c0.071,15.653,0.028,31.305,0.028,46.958C251.567,310.743,251.309,310.743,251.051,310.744z
			 M238.427,277.754c0.065,0,0.13,0,0.196,0c0-0.758,0.03-1.518-0.005-2.274c-0.329-6.925,0.664-13.897-1.301-20.766
			c-1.646-5.751-5.813-9.521-11.834-9.712c-6.055-0.192-12.117-0.269-18.176-0.253c-4.891,0.012-9.793,0.058-14.667,0.417
			c-4.531,0.333-8.576,1.896-11.071,6.112c-2.083,3.52-2.417,7.425-2.499,11.366c-0.239,11.573-0.461,23.146-0.623,34.72
			c-0.076,5.443-0.034,10.891,0.023,16.335c0.03,2.899,0.625,3.205,3.343,2.26c8.246-2.868,16.509-5.686,24.768-8.519
			c9.769-3.353,19.51-6.792,29.333-9.977c2.183-0.707,2.536-1.911,2.524-3.786C238.405,288.369,238.427,283.062,238.427,277.754z"/>
		<path fill-rule="evenodd" clip-rule="evenodd" fill="#FFFFFF" d="M351.504,327.007c0.103-2.64,0.28-5.278,0.295-7.918
			c0.051-9.025,0.007-18.053,0.075-27.078c0.052-6.893,0.254-13.783,0.326-20.675c0.102-9.783,0.083-19.567,0.257-29.349
			c0.046-2.587,0.27-5.36,3.002-6.813c4.677-2.485,9.649,0.307,9.908,5.712c0.273,5.714,0.315,11.443,0.305,17.166
			c-0.021,11.93-0.204,23.859-0.204,35.788c0,11.439,0.123,22.88,0.238,34.319c0.074,7.306,0.25,14.61,0.339,21.916
			c0.023,1.928,0.01,3.871-0.192,5.785c-0.514,4.872-6.192,7.604-10.073,4.609c-2.22-1.712-4.182-4.03-5.596-6.461
			c-3.496-6.01-6.547-12.274-9.889-18.376c-5.985-10.928-12.042-21.816-18.085-32.712c-6.643-11.975-13.272-23.958-19.977-35.899
			c-2.862-5.096-5.896-10.096-8.865-15.132c-0.126-0.214-0.389-0.348-0.958-0.838c-0.22,1.001-0.506,1.712-0.514,2.426
			c-0.158,15.579-0.242,31.159-0.429,46.737c-0.164,13.647-0.486,27.292-0.641,40.939c-0.072,6.333,0.136,12.67,0.126,19.005
			c-0.009,5.468-1.329,8.803-6.04,9.991c-4.208,1.062-7.46-1.187-7.515-5.509c-0.133-10.611-0.129-21.227-0.042-31.839
			c0.108-13.237,0.325-26.474,0.551-39.709c0.159-9.368,0.445-18.733,0.608-28.102c0.118-6.751,0.505-13.528,0.1-20.252
			c-0.628-10.409,9.688-14.899,18.017-10.173c3.637,2.063,5.21,5.648,7.226,8.842c3.594,5.695,6.724,11.682,10.117,17.507
			c4.293,7.369,8.746,14.646,12.967,22.055c7.933,13.928,16.275,27.642,22.627,42.415c0.279,0.648,0.761,1.21,1.149,1.812
			C350.979,327.134,351.242,327.07,351.504,327.007z"/>
		<path fill-rule="evenodd" clip-rule="evenodd" fill="#FFFFFF" d="M529.326,294.785c0,12.404,0.046,24.808-0.016,37.212
			c-0.047,9.579-0.188,19.159-0.371,28.738c-0.072,3.821-2.488,6.131-6.082,6.097c-3.758-0.034-6.227-2.336-6.273-6.199
			c-0.105-8.546-0.062-17.094-0.094-25.641c-0.021-5.719-0.084-11.438-0.093-17.156c-0.002-1.448-0.7-1.908-2.061-1.9
			c-13.991,0.083-27.981,0.166-41.973,0.184c-5.708,0.007-11.416-0.128-17.124-0.233c-1.9-0.035-2.266,1.04-2.27,2.659
			c-0.024,11.169-0.051,22.339-0.19,33.507c-0.025,2.036-0.343,4.137-0.937,6.081c-0.817,2.677-2.914,3.903-5.719,3.843
			c-5.777-0.126-7.769-2.279-7.566-8.324c0.331-9.918,0.801-19.832,1.05-29.752c0.402-16.057,0.657-32.116,1.008-48.174
			c0.166-7.579,0.144-15.177,0.697-22.73c0.534-7.277,4.414-12.666,11.066-15.765c5.144-2.396,10.635-3.092,16.32-2.995
			c8.891,0.152,17.787-0.132,26.678-0.003c6.104,0.089,12.27-0.498,18.28,1.19c5.449,1.531,9.477,4.899,12.471,9.594
			c3.006,4.714,3.744,9.967,3.716,15.441c-0.058,11.442-0.018,22.885-0.018,34.328C529.66,294.786,529.493,294.785,529.326,294.785z
			 M453.208,280.725c0.009,0,0.017,0,0.025,0c0,5.925-0.06,11.851,0.02,17.774c0.058,4.217,0.141,4.215,4.231,4.091
			c0.275-0.009,0.551-0.011,0.827-0.01c7.089,0.008,14.179,0.034,21.268,0.023c11.233-0.018,22.468-0.062,33.701-0.087
			c2.9-0.007,3.031-0.113,3.024-3.006c-0.032-11.854,0.039-23.708-0.181-35.557c-0.058-3.106-0.757-6.277-1.647-9.273
			c-1.187-3.988-5.232-6.806-9.362-6.88c-8.329-0.15-16.659-0.28-24.989-0.278c-5.783,0.001-11.584,0.009-17.342,0.457
			c-3.273,0.254-6.429,1.831-7.638,5.131c-1.069,2.917-1.712,6.116-1.854,9.222C453.011,268.453,453.208,274.593,453.208,280.725z"
			/>
		<path fill-rule="evenodd" clip-rule="evenodd" fill="#FFFFFF" d="M274.339,259.801c0.22,1.217,0.44,2.434,0.659,3.651
			c-0.295,0.049-0.59,0.099-0.886,0.148c-0.181-1.243-0.361-2.486-0.542-3.729C273.827,259.849,274.083,259.825,274.339,259.801z"/>
	</g>
</g>
</svg>
