<?xml version="1.0" encoding="utf-8"?>
<!-- Generator: Adobe Illustrator 16.0.0, SVG Export Plug-In . SVG Version: 6.00 Build 0)  -->
<!DOCTYPE svg PUBLIC "-//W3C//DTD SVG 1.1//EN" "http://www.w3.org/Graphics/SVG/1.1/DTD/svg11.dtd">
<svg version="1.1" id="Layer_1" xmlns="http://www.w3.org/2000/svg" xmlns:xlink="http://www.w3.org/1999/xlink" x="0px" y="0px"
	 width="800px" height="600px" viewBox="0 0 800 600" enable-background="new 0 0 800 600" xml:space="preserve">
<g id="aeDRiN_1_">
	<g>
		<path fill-rule="evenodd" clip-rule="evenodd" fill="#FFFFFF" d="M687.655,394.818c0.732-1.501,1.493-2.987,2.19-4.504
			c2.504-5.453,5.361-10.723,9.457-15.135c5.105-5.5,11.491-9.071,18.661-11.171c4.477-1.312,8.978-2.611,13.546-3.519
			c7.36-1.459,13.94,0.377,19.362,5.679c2.516,2.459,3.898,5.578,4.387,9.056c0.49,3.487,1.309,6.994,1.234,10.478
			c-0.076,3.602-0.795,7.251-1.698,10.76c-1.341,5.209-3.039,10.348-6.121,14.852c-2.105,3.073-4.182,6.208-6.647,8.983
			c-3.458,3.895-7.475,7.159-11.948,9.963c-3.048,1.908-6.089,3.726-9.401,5.085c-1.25,0.513-2.541,1-3.861,1.247
			c-3.617,0.677-7.264,1.198-10.892,1.823c-1.384,0.24-2.737,0.783-4.124,0.863c-8.278,0.479-14.513-3.326-19.827-9.33
			c-3.094-3.494-4.803-7.311-4.399-11.986c0.084-0.967,0.197-1.957,0.492-2.874c1.274-3.973,6.089-12.362,6.43-12.96
			C684.495,402.128,687.25,395.642,687.655,394.818z M683.939,401.688c-2.357,3.53-14.712,9.304-20.777,6.042
			c-0.524-0.282-1.07-0.572-1.503-0.97c-3.118-2.874-6.384-5.616-9.267-8.715c-3.468-3.726-6.601-7.764-9.88-11.664
			c-0.49-0.583-0.978-1.17-1.498-1.725c-1.281-1.365-1.224-1.779,0.566-2.473c2.526-0.979,5.177-1.688,7.606-2.86
			c3.504-1.689,6.981-3.501,10.242-5.614c3.16-2.048,6.364-4.22,8.965-6.904c6.118-6.316,12.14-12.762,17.724-19.549
			c5.32-6.468,9.503-13.769,12.519-21.612c1.33-3.463,1.975-7.188,2.938-10.791c0.215-0.802,0.467-1.594,0.817-2.782
			c2.101,1.865,16.717,16.601,18.813,18.775c1.838,1.904,3.486,3.994,5.143,6.063c0.237,0.297,0.248,1.209,0.028,1.366
			c-1.223,0.874-2.462,1.852-3.854,2.335c-4.596,1.593-8.956,3.436-12.625,6.835c-7.042,6.526-14.333,12.783-21.392,19.291
			c-3.303,3.045-6.244,6.477-9.466,9.611c-2.018,1.964-4.352,3.604-6.366,5.57c-2.381,2.323-4.377,4.92-5.126,8.329
			c-0.813,3.7,1.416,6.767,5.197,6.798c0.438,0.004,0.933-0.28,1.308-0.558c3.36-2.492,6.314-5.37,7.935-9.312
			c0.542-1.315,0.668-2.802,1.056-4.532c3.267,3.521,4.653,7.417,3.942,12.085C686.985,394.729,686.297,398.159,683.939,401.688z
			 M706.338,407.593c-0.016,3.482,1.33,6.685,5.22,8.078c5.56,1.992,12.31-0.485,16.539-4.221
			c5.294-4.675,8.569-12.119,9.884-18.945c0.579-3.012,1.02-6.942-1.071-9.513c-4.505-5.535-11.146-1.58-15.556,1.619
			c-5.578,4.048-10.407,9.112-13.254,15.476C707.091,402.34,706.35,405.042,706.338,407.593z"/>
		<path fill-rule="evenodd" clip-rule="evenodd" fill="#FFFFFF" d="M254.73,253.823c-0.011,5.015-1.595,9.528-4.21,13.702
			c-0.741,1.183,0.077,1.456,0.781,1.797c1.418,0.685,2.929,1.188,4.309,1.937c5.793,3.139,11.058,6.933,15.665,11.732
			c4.123,4.294,7.088,9.257,9.151,14.69c1.323,3.485,2.761,7.117,2.207,11.081c-0.173,1.243-0.608,1.806-1.869,2.233
			c-3.068,1.043-6.057,2.334-9.035,3.623c-2.335,1.01-4.601,2.178-6.907,3.256c-0.925,0.432-1.378,0.092-1.577-0.914
			c-0.757-3.825-1.192-7.77-2.455-11.425c-2.108-6.104-4.535-12.134-9.062-17.007c-3.039-3.271-6.746-5.051-11.199-5.15
			c-0.575-0.013-1.325,0.503-1.688,0.999c-0.222,0.303,0.003,1.109,0.256,1.561c4.037,7.197,7.268,14.71,9.059,22.798
			c0.786,3.548,1.645,7.081,2.341,10.647c0.268,1.371,0.25,2.814,0.208,4.22c-0.013,0.429-0.453,1.003-0.856,1.236
			c-4.43,2.575-8.892,5.097-13.346,7.63c-1.266,0.719-2.507,1.491-3.819,2.114c-0.524,0.248-1.528,0.428-1.75,0.164
			c-0.419-0.498-0.615-1.35-0.578-2.036c0.132-2.436,0.57-4.861,0.585-7.293c0.041-6.47-1.135-12.737-3.36-18.83
			c-2.217-6.072-5.196-11.742-9.095-16.858c-2.228-2.922-4.869-5.563-7.538-8.106c-3.053-2.91-6.366-5.544-9.521-8.348
			c-2.153-1.914-4.162-3.995-6.358-5.856c-4.267-3.619-9.461-5.496-14.596-7.432c-1.719-0.647-3.546-1.007-5.326-1.489
			c-1.118-0.302-1.361-1.059-0.506-1.891c0.537-0.523,1.217-0.906,1.854-1.32c4.036-2.625,7.986-5.397,12.14-7.821
			c5.523-3.222,11.163-6.253,16.84-9.198c2.925-1.517,6.008-2.747,9.076-3.962c3.466-1.374,7.095-2.37,10.475-3.919
			c4.864-2.23,9.669-1.292,14.521-0.316c0.772,0.155,1.535,0.583,2.195,1.04c3.865,2.683,8.198,4.917,10.063,9.653
			c1.107,2.811,2.457,5.554,2.449,8.708C254.25,250.92,254.562,252.372,254.73,253.823z M232.852,259.562
			c-0.29-4.277-1.512-7.859-5.515-9.806c-1.979-0.962-4.164-1.5-6.253-2.237c-1.844-0.651-3.386,0.051-4.549,1.349
			c-1.156,1.291-1.066,2.987-0.347,4.457c0.734,1.498,1.549,3.073,2.717,4.22c3.113,3.059,6.408,5.936,9.686,8.821
			c1.19,1.048,2.293,0.781,2.763-0.714C231.981,263.663,232.365,261.596,232.852,259.562z"/>
		<path fill-rule="evenodd" clip-rule="evenodd" fill="#FFFFFF" d="M356.927,291.125c0.854-2.085,2.15-3.674,2.798-5.324
			c0.113-0.289,1.774-4.153,1.861-4.644c1.453-8.128,1.51-16.322,1.059-24.537c-0.158-2.879-0.241-5.763-0.408-8.641
			c-0.038-0.648-0.406-4.051-0.484-4.588c-0.675-4.618-1.559-9.208-2.136-13.837c-0.362-2.897-0.209-5.855-0.458-8.771
			c-0.304-3.572-0.659-7.15-1.25-10.682c-0.285-1.7-1.012-3.376-1.805-4.928c-1.279-2.5-2.684-4.951-4.231-7.293
			c-0.625-0.946-1.79-1.527-2.663-2.323c-0.325-0.297-0.521-0.736-0.776-1.11c0.348-0.233,0.668-0.59,1.049-0.673
			c0.684-0.15,1.403-0.187,2.106-0.18c2.824,0.028,5.655,0.232,8.472,0.108c4.421-0.193,8.842-0.512,13.248-0.936
			c5.023-0.483,10.056-0.979,15.03-1.798c2.009-0.331,2.859,0.386,3.678,1.909c2.696,5.022,5.479,9.998,8.164,15.026
			c1.914,3.586,3.936,7.139,5.531,10.868c1.937,4.528,3.499,9.17,3.926,14.203c0.329,3.872,1.443,7.68,2.26,11.505
			c1.609,7.545,3.18,15.1,4.91,22.618c1.082,4.701,2.368,9.356,3.686,13.997c0.425,1.499,1.288,2.868,1.865,4.331
			c0.839,2.128,0.273,2.912-1.998,2.89c-5.205-0.05-10.411-0.121-15.617-0.147c-1.739-0.009-3.48,0.091-5.221,0.147
			c-1.233,0.04-1.778-0.563-1.785-1.782c-0.053-9.576-0.857-19.108-1.825-28.624c-0.17-1.668-0.754-3.46-1.67-4.849
			c-1.646-2.495-4.399-2.524-7.056-2.211c-0.627,0.074-1.388,0.561-1.748,1.089c-1.402,2.062-2.688,4.151-2.748,6.833
			c-0.142,6.373,0.873,12.592,2.617,18.658c0.688,2.393,2.369,4.495,3.55,6.754c0.477,0.91,0.942,1.854,1.207,2.838
			c0.375,1.395-0.27,1.987-1.692,2.03c-6.133,0.183-12.271,0.308-18.394,0.681c-3.646,0.222-7.267,0.869-10.901,1.309
			C358.512,291.108,357.935,291.088,356.927,291.125z M382.984,228.938c-0.016,0-0.031,0.001-0.047,0.001
			c0.008,0.218,0.019,0.435,0.024,0.652c0.095,4.067,0.062,3.993,3.581,2.452c1.469-0.643,3.113-0.876,4.667-1.335
			c0.836-0.248,2.04-0.269,1.69-1.656c-1.321-5.235-3.161-10.197-7.671-13.638c-0.363-0.277-0.833-0.413-1.253-0.614
			c-0.221,0.462-0.553,0.903-0.643,1.389c-0.622,3.356-1.465,6.697-0.473,10.149C383.092,227.15,382.952,228.069,382.984,228.938z"
			/>
		<path fill-rule="evenodd" clip-rule="evenodd" fill="#FFFFFF" d="M583.692,274.451c3.051-0.129,5.451-2.05,6.404-4.9
			c0.791-2.365,2.004-4.608,2.613-7.011c1.187-4.675,2.159-9.408,3.069-14.146c0.553-2.874,0.863-5.797,1.201-8.708
			c0.116-1.016,0.522-1.253,1.381-0.851c1.764,0.826,3.541,1.623,5.263,2.526c5.383,2.821,10.584,6.016,16.487,7.733
			c1.988,0.578,2.126,1.198,0.836,2.872c-2.552,3.311-5.253,6.521-7.612,9.964c-2.789,4.071-5.291,8.338-7.898,12.533
			c-2.436,3.919-4.86,7.846-7.261,11.787c-0.876,1.438-1.773,2.877-2.482,4.4c-3.141,6.74-6.315,13.467-9.281,20.285
			c-2.556,5.873-3.711,12.138-4.594,18.455c-0.33,2.367-0.823,4.711-1.256,7.063c-0.164,0.89-0.647,1.229-1.514,0.773
			c-2.017-1.062-4.049-2.102-6.047-3.198c-3.705-2.034-7.354-4.176-11.097-6.135c-2.384-1.248-2.763-1.752-1.575-4.083
			c2.613-5.124,5.206-10.268,8.051-15.265c2.793-4.904,3.867-10.104,3.614-15.666c-0.068-1.522-0.794-2.495-2.321-2.224
			c-1.494,0.266-3.113,0.639-4.335,1.471c-3.498,2.38-5.434,6.135-7.792,9.513c-3.823,5.475-7.708,10.907-11.549,16.369
			c-0.849,1.208-1.9,1.463-3.073,0.638c-4.21-2.962-9.164-4.18-13.85-6.031c-1.256-0.497-2.462-1.137-3.651-1.786
			c-0.853-0.466-0.889-1.206-0.024-1.609c5.166-2.42,8.47-6.867,11.504-11.303c3.755-5.488,6.822-11.449,10.137-17.235
			c1.561-2.725,3.011-5.514,4.495-8.284c0.305-0.567,0.599-1.155,0.792-1.768c2.021-6.408,4.235-12.766,5.959-19.253
			c1.409-5.3,2.25-10.75,1.808-16.306c-0.289-3.626-0.465-7.263-0.739-10.891c-0.048-0.622-0.243-1.277-0.539-1.826
			c-0.58-1.068-0.056-1.623,0.854-1.375c2.014,0.549,4.01,1.247,5.912,2.107c3.55,1.605,7.006,3.413,10.54,5.052
			c2.487,1.154,5.067,2.107,7.554,3.263c1.952,0.909,1.811,1.369,0.407,3.054c-1.081,1.299-1.957,2.916-2.444,4.535
			c-1.659,5.513-3.471,11.022-4.513,16.664c-0.768,4.15-2.312,8.293-1.341,12.711C576.569,271.927,579.846,274.613,583.692,274.451z
			"/>
		<path fill-rule="evenodd" clip-rule="evenodd" fill="#FFFFFF" d="M187.738,288.939c-0.53,2.113-1.139,4.498-1.719,6.89
			c-0.108,0.449-0.101,0.925-0.147,1.389c0.499,0.021,1.032,0.171,1.489,0.044c5.314-1.471,10.622-1.787,15.826,0.329
			c4.437,1.804,7.946,4.883,10.861,8.627c3.632,4.663,5.362,10.076,6.284,15.857c0.656,4.109,0.357,8.097-0.568,12.103
			c-0.829,3.588-3.215,6.255-5.333,9.05c-3.232,4.265-7.114,7.869-11.612,10.817c-3.085,2.022-6.077,4.188-9.085,6.324
			c-0.523,0.37-0.925,0.913-1.381,1.378c-0.935,0.955-1.774,0.854-2.207-0.367c-0.83-2.345-1.456-4.769-2.395-7.067
			c-0.838-2.05-1.912-4.015-3.007-5.946c-2.861-5.052-5.792-10.062-9.622-14.474c-6.25-7.198-12.993-13.875-20.603-19.647
			c-0.994-0.755-1.83-1.728-2.852-2.434c-3.925-2.711-7.86-5.41-11.859-8.008c-4.188-2.721-8.578-5.079-13.442-6.365
			c-1.4-0.37-2.891-0.388-4.336-0.594c-1.324-0.188-1.177-0.917-0.522-1.687c0.381-0.447,0.893-0.791,1.371-1.146
			c1.602-1.194,3.313-2.263,4.807-3.579c5.133-4.521,9.961-9.424,15.349-13.609c4.595-3.569,9.626-6.686,14.79-9.379
			c4.519-2.356,9.652-2.26,14.495-0.802c2.208,0.665,4.235,2.192,6.108,3.635c3.068,2.363,5.999,5.014,7.167,8.86
			C186.518,282.182,186.977,285.366,187.738,288.939z M172.734,294.472c-0.44-6.354-4.976-12.554-12.312-11.181
			c-2.185,0.409-4.236,1.143-5.462,3.165c-1.516,2.498-0.488,5.088,2.647,6.773c3.39,1.822,6.791,3.621,10.199,5.408
			c1.977,1.037,3.842,0.31,4.504-1.783C172.551,296.092,172.598,295.268,172.734,294.472z M196.321,324.456
			c-0.033-3.355-1.501-6.374-5.058-8.287c-1.86-1-4.018-1.011-5.784,0.248c-1.247,0.888-1.644,1.955-0.981,3.373
			c0.689,1.474,1.292,2.992,2.06,4.425c1.635,3.054,3.327,6.078,5.05,9.083c0.445,0.776,1.272,1.634,2.001,0.481
			C195.292,331.117,196.768,328.323,196.321,324.456z"/>
		<path fill-rule="evenodd" clip-rule="evenodd" fill="#FFFFFF" d="M136.396,363.546c0.433,1.126,1.065,2.291,1.325,3.532
			c0.976,4.672,4.867,6.807,8.029,9.644c4.364,3.915,8.558,8.021,12.813,12.056c0.859,0.815,0.875,1.585-0.244,2.217
			c-3.644,2.053-6.17,5.27-8.784,8.406c-2.437,2.924-4.93,5.8-7.418,8.68c-0.791,0.917-1.66,0.938-2.527,0.064
			c-4.714-4.745-9.21-9.626-12.578-15.512c-3.177-5.557-4.882-11.556-6.384-17.676c-0.814-3.321-1.685-6.63-2.646-9.91
			c-1.236-4.221-3.148-8.118-6.216-11.323c-3.641-3.803-7.166-7.759-11.139-11.188c-4.249-3.666-9.583-5.482-14.896-7.152
			c-0.467-0.146-0.946-0.253-1.409-0.411c-2.914-0.999-3.237-2.245-1.028-4.398c5.015-4.888,10.096-9.709,15.113-14.596
			c2.753-2.682,5.428-5.441,8.143-8.163c1.653-1.657,2.018-1.696,4.123-0.687c2.694,1.291,5.505,2.374,8.087,3.857
			c4.424,2.542,8.688,5.359,13.058,7.997c5.495,3.317,10.178,7.593,14.618,12.169c0.724,0.746,3.683,4.135,4.812,4.692
			c1.7,0.84,3.408,1.691,5.182,2.351c6.787,2.521,12.363,6.701,16.981,12.215c2.016,2.406,3.968,4.866,5.957,7.296
			c1.986,2.425,3.964,4.857,5.981,7.255c0.898,1.068,0.673,1.688-0.472,2.456c-1.843,1.236-3.6,2.623-5.275,4.081
			c-2.206,1.92-4.293,3.976-6.441,5.966c-0.793,0.733-1.544,0.687-2.229-0.177c-3.067-3.869-6.154-7.722-9.201-11.606
			c-4.595-5.855-10.461-9.738-17.722-11.434c-2.403-0.562-6.011,0.37-6.491,4.024C137.295,359.986,136.806,361.666,136.396,363.546z
			 M119.907,331.627c0.046,0.461,0.015,0.734,0.104,0.96c1.793,4.543,3.587,9.086,5.415,13.615c0.488,1.208,1.176,1.203,2.023,0.198
			c1.144-1.356,2.275-2.76,3.614-3.905c1.17-1.001,1.295-1.728,0.372-2.979c-2.646-3.588-6.566-5.423-10.202-7.652
			C120.916,331.67,120.451,331.717,119.907,331.627z"/>
		<path fill-rule="evenodd" clip-rule="evenodd" fill="#FFFFFF" d="M489.533,219.408c0.23,8.035-1.233,15.825-2.832,23.612
			c-1.261,6.131-2.823,12.172-5.228,17.951c-2.729,6.561-6.155,12.773-11.375,17.688c-4.418,4.16-8.969,8.294-14.955,10.19
			c-1.648,0.522-3.379,0.949-5.096,1.06c-4.495,0.292-9.005,0.389-13.509,0.546c-0.374,0.014-0.758-0.076-1.127-0.162
			c-1.925-0.451-1.99-1.044-0.903-2.677c1.884-2.832,3.688-5.736,5.265-8.746c1.734-3.307,3.349-6.7,4.709-10.176
			c3.098-7.915,4.288-16.209,4.779-24.669c0.431-7.409-0.536-14.671-1.949-21.86c-1.011-5.148-2.7-10.175-5.344-14.791
			c-1.829-3.195-3.619-6.418-5.594-9.521c-0.92-1.445-2.254-2.625-3.366-3.952c-0.275-0.328-0.668-0.861-0.564-1.126
			c0.146-0.369,0.739-0.844,1.086-0.804c2.296,0.263,4.58,0.638,6.861,1.013c0.473,0.077,0.909,0.414,1.378,0.451
			c5.358,0.434,10.766,0.526,16.07,1.316c6.886,1.026,14.042,1.609,20.158,5.263c5.59,3.339,10.296,7.692,10.801,14.921
			C488.903,216.435,489.281,217.917,489.533,219.408z M464.143,248.628c0.042,1.142,0.021,2.291,0.156,3.422
			c0.057,0.48,0.342,1.144,0.71,1.311c0.29,0.131,0.996-0.264,1.29-0.616c0.621-0.74,1.17-1.565,1.613-2.425
			c2.385-4.641,3.733-9.602,4.54-14.738c0.665-4.237,0.76-8.464-0.302-12.628c-0.32-1.263-1.03-2.532-1.88-3.528
			c-1.032-1.212-2.007-0.88-2.423,0.689c-0.487,1.839-0.758,3.738-1.293,5.561C464.354,233.185,464.254,240.908,464.143,248.628z"/>
		<path fill-rule="evenodd" clip-rule="evenodd" fill="#FFFFFF" d="M511.775,276.264c-0.484-0.959-0.822-1.605-1.14-2.259
			c-0.331-0.68-0.56-1.425-0.976-2.044c-2.596-3.854-6.877-5.156-11.139-3.232c-0.966,0.436-1.85,1.407-2.402,2.349
			c-2.267,3.868-3.546,8.043-3.408,12.586c0.055,1.771,0.784,3.144,2.561,3.527c2.48,0.535,5.016,1.21,7.515,1.162
			c3.144-0.061,5.21-2.173,6.519-4.964c0.206-0.439,0.305-0.929,0.467-1.391c1.025-2.913,1.443-3.126,3.719-1.043
			c3.298,3.02,5.889,6.605,5.311,11.357c-0.475,3.904-2.505,7.776-6.971,9.651c-4.059,1.704-8.068,1.44-12.146,0.604
			c-3.032-0.622-6.036-1.4-9.025-2.209c-2.719-0.736-5.383-1.687-8.107-2.396c-3.15-0.82-6.344-1.475-9.518-2.208
			c-2.414-0.557-4.826-1.123-7.694-1.792c1.042-1.281,1.76-2.179,2.492-3.064c1.588-1.923,3.295-3.758,4.749-5.776
			c2.279-3.164,4.646-6.309,6.501-9.721c2.092-3.847,3.857-7.905,5.399-12.009c1.871-4.98,3.593-10.042,4.941-15.184
			c1.207-4.609,2.026-9.348,2.639-14.08c0.619-4.792,0.828-9.64,1.115-14.471c0.357-6.039-0.757-11.795-3.604-17.175
			c-0.051-0.097-0.094-0.197-0.143-0.293c-0.329-0.64-0.658-1.279-0.987-1.918c0.815-0.121,1.646-0.408,2.442-0.333
			c3.659,0.342,7.229,1.028,10.516,2.843c0.926,0.511,2.07,0.625,3.111,0.929c5.002,1.46,9.994,2.953,15.009,4.365
			c1.086,0.306,2.249,0.378,3.384,0.47c3.299,0.266,5.98,2.09,8.92,3.315c3.725,1.553,4.879,4.533,5.746,7.994
			c0.837,3.338,0.99,6.588,0.113,9.968c-1.839,7.09-8.965,12.4-16.267,11.91c-1.244-0.083-2.501-0.091-3.724-0.295
			c-0.442-0.073-0.803-0.621-1.2-0.953c0.322-0.381,0.567-0.924,0.979-1.118c2.565-1.207,4.197-3.091,4.984-5.863
			c0.802-2.822-0.19-7.102-4.917-6.84c-4.554,0.252-7.895,2.635-10.131,6.458c-2.461,4.208-2.812,8.731-1.283,13.371
			c1.229,3.738,4.171,5.888,8.111,5.913c2.082,0.013,4.111-0.158,5.9-1.486c0.47-0.349,1.29-0.226,1.949-0.319
			c0.058,0.605,0.321,1.282,0.14,1.806c-1.528,4.406-2.993,8.844-4.77,13.152c-1.34,3.252-3.104,6.33-4.696,9.477
			C512.598,275.353,512.308,275.608,511.775,276.264z"/>
		<path fill-rule="evenodd" clip-rule="evenodd" fill="#FFFFFF" d="M43.535,390.017c-0.302-4.385,1.493-8.707,3.511-12.927
			c4.157-8.69,10.656-15.822,15.998-23.727c1.626-2.405,3.337-4.772,5.206-6.992c0.957-1.137,2.24-2.111,3.561-2.806
			c2.824-1.486,5.817-0.878,8.683-0.07c1.86,0.524,3.663,1.346,5.391,2.231c3.833,1.962,5.887,5.436,5.732,9.479
			c-0.088,2.3-1.943,4.607-3.254,6.756c-0.804,1.318-2.051,2.378-3.171,3.48c-0.374,0.369-1.046,0.783-1.444,0.675
			c-0.368-0.101-0.66-0.848-0.791-1.359c-0.238-0.938-0.353-1.909-0.48-2.872c-0.241-1.807-1.369-2.689-3.026-3.218
			c-1.89-0.604-3.256-0.066-4.369,1.496c-1.005,1.41-2.337,2.65-3.062,4.185c-1.843,3.899-0.348,9.154,3.038,12.34
			c3.765,3.542,6.944,3.072,12.526,0.4c3.791-1.814,6.336-5.065,9.582-7.49c1.335-0.997,1.852-1.066,2.701,0.352
			c2.992,4.99,7.504,8.525,11.728,12.333c1,0.901,1.037,1.511-0.248,1.995c-1.723,0.649-3.497,1.411-5.294,1.552
			c-2.447,0.19-4.46,1.287-6.528,2.321c-0.677,0.338-1.362,1.006-1.664,1.69c-1.337,3.036-1.68,6.059-0.237,9.289
			c2.477,5.545,6.548,9.5,11.62,12.593c3.751,2.288,7.505,4.573,11.238,6.893c2.382,1.48,4.734,3.01,7.083,4.542
			c1.048,0.686,1.217,1.55,0.492,2.637c-3.732,5.597-7.449,11.206-11.146,16.826c-1.07,1.627-2.084,3.292-3.072,4.97
			c-0.596,1.011-1.332,1.163-2.085,0.334c-1.019-1.122-1.966-2.319-2.841-3.557c-1.096-1.55-2.045-3.201-3.131-4.759
			c-3.658-5.247-7.472-10.392-10.994-15.728c-4.374-6.625-9.179-12.864-14.653-18.628c-4.559-4.801-8.765-9.935-13.279-14.778
			c-1.453-1.559-3.289-2.834-5.135-3.928c-1.602-0.947-5.325,0.071-5.744,2.666c-0.247,1.527-1.025,2.966-1.556,4.448
			c-1.178,3.29-0.128,6.153,1.682,8.885c0.242,0.364,0.335,0.828,0.498,1.245c-0.387,0.127-0.859,0.463-1.147,0.345
			c-2.393-0.97-5.008-1.665-7.062-3.135C44.914,398.516,43.54,394.746,43.535,390.017z"/>
		<path fill-rule="evenodd" clip-rule="evenodd" fill="#FFFFFF" d="M669.975,318.082c0.732-0.133,1.11-0.314,1.433-0.242
			c2.43,0.537,4.224-0.635,5.423-2.445c1.572-2.373,2.043-5.078,0.466-7.689c-0.86-1.425-1.926-2.758-3.064-3.978
			c-1.74-1.864-6.238-2.161-8.428,0.192c-3.202,3.438-5.853,7.121-7.364,11.592c-1.218,3.604,0.705,8.731,4.109,10.496
			c1.428,0.741,3.013,1.18,4.528,1.753c0.647,0.245,1.299,0.481,2.292,0.849c-0.684,1.012-1.125,1.941-1.811,2.63
			c-2.95,2.97-5.982,5.858-8.964,8.799c-2.639,2.601-5.244,5.236-7.885,7.835c-0.284,0.28-0.716,0.414-1.078,0.616
			c-0.198-0.407-0.472-0.794-0.579-1.224c-0.328-1.319-8.052-9.195-15.656-1.155s1.326,19.595,8.452,16.827
			c1.005,0.096,3.813-2.075,4.207-2.442c0.712-0.663,1.306-0.557,1.503,0.448c0.565,2.888,0.975,5.771,0.275,8.717
			c-1.058,4.465-6.271,9.018-10.784,8.792c-1.783-0.09-3.731-0.471-5.371-1.892c-6.112-5.292-12.386-10.397-18.603-15.569
			c-1.792-1.491-3.608-2.955-5.393-4.457c-0.917-0.771-1.027-1.395,0.059-2.323c6.897-5.893,13.779-11.819,19.715-18.718
			c1.656-1.923,2.986-4.127,4.472-6.197c0.665-0.928,1.309-1.874,2.023-2.762c4.245-5.277,7.567-11.151,10.542-17.179
			c2.895-5.868,5.52-11.903,7.771-18.046c1.502-4.101,2.167-8.513,3.152-12.798c0.268-1.161,0.345-2.365,0.499-3.55
			c0.14-1.072,0.667-1.1,1.455-0.583c3.993,2.619,7.992,5.228,11.988,7.843c2.589,1.694,5.443,3.095,7.709,5.146
			c5.542,5.013,11.742,9.391,15.873,15.844c2.113,3.299,3.604,6.695,2.575,10.709c-0.252,0.99-0.579,1.982-1.025,2.899
			c-1.62,3.337-3.85,6.155-7.189,7.937c-2.71,1.445-5.574,1.465-8.407,0.561C675.135,324.117,672.384,321.585,669.975,318.082z"/>
		<path fill-rule="evenodd" clip-rule="evenodd" fill="#FFFFFF" d="M293.691,239.659c-0.266-6.521,0.872-11.909,2.734-17.187
			c1.884-5.338,4.733-10.203,8.243-14.529c4.73-5.831,10.879-9.597,18.427-11.139c4.419-0.903,9.25-1.445,13.247-0.982
			c3.997,0.462,7.564,5.646,8.292,7.078c1.9,3.736,3.118,7.606,2.427,11.904c-0.352,2.185-0.842,4.271-2.257,6.025
			c-3.522,4.364-7.724,7.42-13.684,7.179c-1.84-0.074-3.692,0.111-5.529,0.004c-0.589-0.034-1.381-0.505-1.632-1.003
			c-0.165-0.326,0.372-1.153,0.773-1.591c1.358-1.48,2.859-2.831,4.189-4.334c2.414-2.728,2.302-5.989,1.22-9.091
			c-1.201-3.443-6.972-4.287-9.789-1.784c-3.928,3.49-5.593,8.084-6.495,13.012c-1.424,7.771-0.888,15.495,1.016,23.134
			c0.656,2.631,1.317,5.271,2.183,7.837c0.549,1.628,1.322,3.234,2.273,4.664c2.282,3.435,4.691,6.787,7.12,10.122
			c2.299,3.158,5.425,5.516,8.972,6.814c5.376,1.967,11.862,1.549,16.137-3.833c0.434-0.545,1.473-1.274,2.005-1.076
			c0.533,0.198,0.583,1.286,0.547,1.911c-0.379,6.779-2.331,12.691-7.803,17.388c-4.959,4.257-10.419,6.067-16.665,5.111
			c-5.396-0.827-10.203-3.108-14.05-7.276c-4.272-4.63-7.793-9.726-10.754-15.265c-1.967-3.679-4.175-7.228-6.187-10.884
			c-0.701-1.274-1.198-2.671-1.685-4.049c-1.442-4.068-2.154-8.292-2.607-12.571C294.132,243.089,293.846,240.937,293.691,239.659z"
			/>
		<path fill-rule="evenodd" clip-rule="evenodd" fill="#FFFFFF" d="M317.386,298.382c-0.63,0.433-1.062,0.892-1.586,1.065
			c-4.573,1.513-9.151,3.016-13.753,4.438c-3.521,1.089-7.098,1.998-10.61,3.111c-1.279,0.404-2.406,1.271-3.672,1.74
			c-1.949,0.721-2.301,0.401-2.218-1.682c0.164-4.125,0.403-8.248,0.473-12.375c0.125-7.273-1.411-14.262-3.932-21.045
			c-2.005-5.397-3.863-10.866-6.202-16.117c-2.023-4.543-4.288-9.017-7.627-12.839c-1.887-2.16-3.393-4.659-5.333-6.765
			c-2.934-3.183-5.891-6.408-9.229-9.136c-2.454-2.005-5.534-3.242-8.334-4.822c-0.378-0.214-0.815-0.371-1.113-0.667
			c-0.321-0.318-0.741-0.801-0.692-1.153c0.044-0.319,0.624-0.644,1.031-0.819c2.043-0.878,4.094-1.744,6.168-2.545
			c2.021-0.78,4.061-1.513,6.114-2.2c2.092-0.701,4.231-1.264,6.312-1.991c3.32-1.161,6.592-2.458,9.917-3.603
			c3.436-1.183,6.899-2.293,10.377-3.347c0.998-0.302,1.409,0.389,1.248,1.325c-1.39,8.097-0.417,16.004,1.904,23.799
			c1.856,6.232,3.425,12.576,5.713,18.648c2.46,6.526,5.103,12.987,8.709,19.069c4.007,6.759,7.17,14.014,10.897,20.947
			c1.155,2.148,2.946,3.955,4.456,5.91C316.632,297.621,316.912,297.875,317.386,298.382z"/>
		<path fill-rule="evenodd" clip-rule="evenodd" fill="#FFFFFF" d="M650.878,270.447c-2.837,2.204-5.828,4.009-8.136,6.457
			c-2.77,2.939-5.063,6.353-7.371,9.692c-3.275,4.737-6.245,9.665-8.615,14.939c-2.159,4.805-4.36,9.594-6.656,14.334
			c-2.505,5.172-5.207,10.25-7.693,15.43c-1.29,2.688-2.29,5.515-3.439,8.271c-1.584,3.802-3.154,7.61-4.792,11.389
			c-0.886,2.045-1.201,2.024-3.048,0.857c-4.127-2.608-8.332-5.094-12.46-7.701c-1.556-0.982-3.038-2.104-4.436-3.299
			c-0.291-0.249-0.27-1.235-0.02-1.663c0.456-0.781,1.19-1.399,1.81-2.086c3.223-3.58,6.625-7.018,9.604-10.79
			c1.966-2.49,3.368-5.438,4.937-8.229c1.887-3.358,3.792-6.715,5.489-10.17c1.986-4.043,3.846-8.155,5.595-12.306
			c2.125-5.042,4.308-10.081,6.031-15.265c1.45-4.359,2.274-8.924,3.385-13.396c0.365-1.472,0.735-2.943,1.138-4.405
			c0.701-2.541,1.396-5.083,2.159-7.604c0.354-1.166,1.08-1.517,2.245-0.825c2.37,1.408,4.674,3.006,7.2,4.055
			c6.466,2.686,11.224,7.677,16.608,11.825C650.616,270.115,650.772,270.334,650.878,270.447z"/>
	</g>
</g>
</svg>
