<?xml version="1.0" encoding="utf-8"?>
<!-- Generator: Adobe Illustrator 16.0.0, SVG Export Plug-In . SVG Version: 6.00 Build 0)  -->
<!DOCTYPE svg PUBLIC "-//W3C//DTD SVG 1.1//EN" "http://www.w3.org/Graphics/SVG/1.1/DTD/svg11.dtd">
<svg version="1.1" id="Layer_1" xmlns="http://www.w3.org/2000/svg" xmlns:xlink="http://www.w3.org/1999/xlink" x="0px" y="0px"
	 width="800px" height="600px" viewBox="0 0 800 600" enable-background="new 0 0 800 600" xml:space="preserve">
<g id="MRysbd_1_">
	<g>
		<path fill="#FFFFFF" d="M195.689,338.273c-0.023,0.825-1.547,2.269-2.414,2.3c-6.888,0.23-13.786,0.216-20.682,0.177
			c-0.384-0.001-1.095-0.845-1.094-1.296c0.019-4.661,0.196-9.318,0.245-13.98c0.098-9.391,0.107-18.782,0.234-28.174
			c0.054-3.948,0.347-7.893,0.447-11.84c0.015-0.597-0.433-1.202-0.665-1.805c-0.661,0.357-1.638,0.545-1.935,1.096
			c-4.28,7.977-8.464,16.008-12.691,24.013c-0.164,0.312-0.585,0.787-0.754,0.739c-0.391-0.118-0.848-0.436-1.021-0.795
			c-3.041-6.303-6.031-12.629-9.065-18.933c-0.669-1.389-1.404-2.761-2.249-4.048c-0.305-0.464-1.025-0.656-1.554-0.972
			c-0.219,0.542-0.613,1.079-0.628,1.628c-0.258,9.061-0.526,18.121-0.676,27.183c-0.13,7.938-0.396,15.892-0.057,23.812
			c0.178,4.185-2.706,5.062-5.251,6.501c-5.412,3.057-10.887,5.995-16.359,8.944c-0.779,0.424-1.676,0.625-2.521,0.927
			c-0.238-0.944-0.707-1.893-0.676-2.826c0.315-9.777,1.404-78.389,2.011-87.339c0.257-3.785-1.344-3.599-3.862-3.548
			c-3.596,0.071-7.195-0.005-10.791-0.109c-0.264-0.008-0.825-0.964-0.715-1.133c4.301-6.61,8.801-13.097,12.959-19.793
			c1.756-2.826,3.881-3.82,7.088-3.73c6.341,0.174,12.688,0.008,19.032,0.128c0.732,0.015,1.77,0.806,2.117,1.508
			c4.073,8.256,8.034,16.566,12.057,24.847c0.209,0.432,0.772,1.053,1.072,1.002c0.614-0.102,1.434-0.462,1.694-0.963
			c4.284-8.234,8.43-16.54,12.8-24.725c0.549-1.028,2.165-2.039,3.329-2.092c6.651-0.307,13.317-0.368,19.976-0.356
			c0.579,0,1.618,1.102,1.652,1.737C196.912,239.481,195.93,329.816,195.689,338.273z"/>
		<path fill="#FFFFFF" d="M526.874,256.877c-2.75,0-5.497,0.011-8.247-0.003c-1.548-0.009-2.416-0.307-1.322-2.144
			c4.252-7.148,8.325-14.407,12.71-21.475c0.562-0.905,2.544-1.292,3.872-1.295c4.972-0.018,9.964,0.012,14.912,0.42
			c7.234,0.597,12.276,5.136,16.813,10.244c4.73,5.319,5.427,12.309,7.284,18.77c3.656,12.732,7.071,25.532,10.598,38.3
			c3.318,12.009,6.651,24.015,9.983,36.021c0.476,1.712,0.629,2.89-1.921,2.89c-7.032,0-14.062,0.4-21.084,0.271
			c-0.902-0.017-2.075-2.122-2.572-3.465c-0.774-2.081-0.91-4.39-1.653-6.485c-0.279-0.781-1.489-1.724-2.296-1.745
			c-6.936-0.199-13.872-0.259-20.808-0.193c-0.83,0.01-2.09,0.831-2.394,1.58c-0.911,2.249-1.626,4.61-2.073,6.994
			c-0.511,2.744-2.093,3.998-4.591,5.058c-5.895,2.499-11.615,5.41-17.406,8.155c-2.059,0.979-4.109,1.978-6.186,2.919
			c-0.342,0.156-0.793,0.064-1.194,0.087c0.016-0.366-0.042-0.749,0.046-1.096c2.406-9.327,4.851-18.645,7.242-27.977
			c2.414-9.423,4.776-18.86,7.165-28.29c2.976-11.724,5.984-23.44,8.838-35.194c0.144-0.606-0.933-1.995-1.682-2.222
			c-1.242-0.375-2.68-0.101-4.035-0.101C526.874,256.892,526.874,256.885,526.874,256.877z M553.367,302.998
			c0.963,0.046,2.307,0.423,3.405,0.057c0.818-0.274,2.011-1.682,1.856-2.282c-1.525-5.943-3.288-11.827-5.021-17.714
			c-0.124-0.418-0.558-0.746-0.841-1.117c-0.294,0.411-0.743,0.782-0.853,1.236c-1.126,4.623-2.194,9.257-3.287,13.889
			C547.203,303.11,546.067,303.133,553.367,302.998z"/>
		<path fill="#FFFFFF" d="M254.285,274.607c6.391,0,12.78,0.048,19.171-0.014c6.11-0.061,12.22-0.25,18.329-0.343
			c0.691-0.011,1.389,0.226,2.082,0.348c-0.302,0.626-0.544,1.29-0.914,1.87c-4.578,7.169-9.134,14.356-13.826,21.451
			c-0.521,0.787-1.842,1.474-2.797,1.479c-11.627,0.055-23.253-0.069-34.877,0.029c-0.715,0.006-1.893,1.419-2.03,2.308
			c-0.313,2.042-0.271,4.178-0.098,6.252c0.42,5.01,2.536,7.344,7.552,7.479c7.858,0.213,15.728-0.027,23.592-0.048
			c4.49-0.012,8.981,0.072,13.47,0.051c2.923-0.018,5.844-0.151,8.768-0.213c0.283-0.008,0.755,0.05,0.815,0.206
			c0.103,0.263,0.049,0.691-0.112,0.94c-4.785,7.358-9.505,14.767-14.495,21.987c-0.716,1.035-2.746,1.604-4.178,1.623
			c-11.412,0.151-22.828,0.214-34.241,0.094c-5.771-0.059-10.434-3.167-14.172-7.092c-3.835-4.026-7.575-8.457-10.033-13.37
			c-1.694-3.39-1.492-7.902-1.521-11.916c-0.083-11.927,0.204-23.857,0.216-35.785c0.006-6.824,0.326-13.449,3.81-19.671
			c4.912-8.769,15.125-17.894,24.832-17.924c12.386-0.039,24.773-0.28,37.156-0.438c4.101-0.052,8.202-0.127,12.302-0.162
			c0.467-0.003,0.935,0.193,1.401,0.297c-0.125,0.502-0.122,1.09-0.393,1.492c-4.381,6.479-9.29,12.661-13.039,19.482
			c-2.794,5.085-6.975,3.376-10.662,3.548c-8.265,0.385-16.555,0.164-24.836,0.264c-3.31,0.039-5.689,2.208-5.932,5.518
			c-0.213,2.891-0.188,5.811-0.056,8.709c0.025,0.567,1.012,1.543,1.577,1.56c4.375,0.131,8.757,0.072,13.138,0.072
			C254.286,274.666,254.285,274.636,254.285,274.607z"/>
		<path fill="#FFFFFF" d="M313.553,326.97c0-3.603-0.061-7.21,0.045-10.81c0.024-0.83,0.421-1.822,0.981-2.436
			c7.378-8.099,14.822-16.141,22.239-24.207c8.879-9.659,17.751-19.324,26.604-29.008c0.285-0.313,0.549-1.119,0.396-1.274
			c-0.45-0.459-1.115-0.992-1.699-0.994c-9.874-0.028-19.748,0.023-29.622,0.046c-5.728,0.014-11.453,0.042-17.178-0.053
			c-0.477-0.009-1.348-0.918-1.349-1.413c-0.013-7.306,0.066-14.612,0.229-21.917c0.011-0.428,0.929-1.187,1.438-1.198
			c5.033-0.12,10.069-0.115,15.103-0.144c17.703-0.103,35.406-0.198,53.11-0.316c2.749-0.018,5.502-0.285,8.237-0.139
			c0.7,0.037,1.903,1.201,1.918,1.869c0.16,7.127,0.168,14.259,0.103,21.389c-0.009,0.903-0.469,1.993-1.083,2.669
			c-7.413,8.154-14.949,16.201-22.345,24.372c-8.627,9.527-17.161,19.138-25.681,28.762c-0.419,0.474-0.517,1.446-0.375,2.101
			c0.067,0.305,1.068,0.567,1.651,0.575c7.773,0.089,15.549,0.178,23.321,0.174c5.493-0.004,10.986-0.14,16.477-0.238
			c2.024-0.033,4.048-0.143,6.073-0.194c0.199-0.005,0.568,0.155,0.575,0.259c0.025,0.313,0.001,0.7-0.166,0.947
			c-5.011,7.495-10.027,14.988-15.106,22.435c-0.373,0.546-1.237,1.069-1.877,1.076c-7.739,0.069-46.889,0.404-58.722,0.689
			c-2.6,0.064-4.019-0.367-3.693-3.5c0.328-3.144,0.072-6.346,0.072-9.521C313.336,326.969,313.444,326.969,313.553,326.97z"/>
		<path fill="#FFFFFF" d="M471.017,339.238c-10.3,0-20.023,0.137-29.74-0.105c-2.156-0.053-19.478-11.039-23.043-14.739
			c-6.387-6.627-6.167-15.047-6.033-23.509c0.184-11.777-0.037-23.56-0.075-35.34c-0.024-7.489,3.282-13.697,7.869-19.235
			c2.743-3.309,5.789-6.459,9.119-9.162c5.196-4.215,11.326-5.181,17.96-4.379c3.764,0.455,7.634,0.02,11.455-0.03
			c7.584-0.102,15.17-0.216,22.754-0.317c2.863-0.038,5.733-0.106,8.593-0.02c0.381,0.01,1.15,1.093,1.04,1.289
			c-1.984,3.564-3.995,7.122-6.174,10.574c-2.395,3.794-4.854,7.562-7.522,11.163c-0.734,0.99-2.306,1.873-3.521,1.909
			c-9.864,0.3-19.738,0.366-29.608,0.545c-4.038,0.073-6.821,3.168-6.917,7.666c-0.102,4.919-0.178,9.842-0.186,14.763
			c-0.015,7.906-0.066,15.815,0.096,23.717c0.113,5.462,2.766,9.777,6.441,10.37c2.644,0.428,5.399,0.181,8.105,0.206
			c5.006,0.043,10.008,0.111,15.014,0.084c7.393-0.041,14.783-0.134,22.173-0.256c2.42-0.041,2.521,1.441,1.611,2.847
			c-4.077,6.298-8.502,12.378-12.44,18.765C476.071,339.161,473.675,339.868,471.017,339.238z"/>
		<path fill="#FFFFFF" d="M638.183,308.31c-0.02,5.218-0.902,5.868,5.769,5.782c9.124-0.113,44.05,0.395,52.383,0.516
			c0.254,0.003,0.843,1.156,0.687,1.396c-4.593,7.105-9.149,14.234-14.025,21.146c-0.705,1.001-2.949,1.247-4.491,1.273
			c-11.283,0.194-48.672,0.098-56.084,0.04c-2.047-0.017-4.138,0.482-6.127,0.192c-1.04-0.149-2.713-1.475-2.731-2.297
			c-0.182-10.101-0.06-20.205-0.121-30.31c-0.048-8.042-0.502-48.449-0.571-60.611c-0.021-4.105-0.088-8.209-0.004-12.314
			c0.01-0.476,0.84-1.329,1.31-1.344c7.213-0.225,14.431-0.382,21.647-0.4c0.604-0.001,1.701,1.107,1.729,1.738
			c0.166,3.75,0.084,7.513,0.084,11.272C637.831,244.391,638.276,287.003,638.183,308.31z"/>
	</g>
</g>
</svg>
