<?xml version="1.0" encoding="utf-8"?>
<!-- Generator: Adobe Illustrator 16.0.0, SVG Export Plug-In . SVG Version: 6.00 Build 0)  -->
<!DOCTYPE svg PUBLIC "-//W3C//DTD SVG 1.1//EN" "http://www.w3.org/Graphics/SVG/1.1/DTD/svg11.dtd">
<svg version="1.1" id="Layer_1" xmlns="http://www.w3.org/2000/svg" xmlns:xlink="http://www.w3.org/1999/xlink" x="0px" y="0px"
	 width="800px" height="600px" viewBox="0 0 800 600" enable-background="new 0 0 800 600" xml:space="preserve">
<g id="wQXVmf_1_">
	<g>
		<path fill-rule="evenodd" clip-rule="evenodd" fill="#FFFFFF" d="M490.885,388.598c1.646-7.902,3.258-15.812,4.95-23.704
			c1.315-6.139,2.74-12.254,4.097-18.384c0.293-1.327,0.454-2.683,0.754-4.008c1.041-4.618,2.386-9.144,4.164-13.537
			c0.863-2.133,1.559-2.814,3.89-2.586c2.693,0.264,5.357,0.882,8.016,1.437c2.164,0.451,4.278,1.161,6.453,1.525
			c2.125,0.356,3.94,1.318,5.658,2.471c1.624,1.089,2.287,2.851,2.781,4.693c1.94,7.239,2.223,14.724,3.312,22.087
			c0.377,2.553,0.758,5.106,1.036,7.671c0.406,3.754,0.658,7.525,1.1,11.275c0.273,2.325,0.853,4.613,1.156,6.936
			c0.354,2.715,0.554,5.45,0.831,8.176c0.079,0.775,0.19,1.547,0.296,2.319c0.661,4.825,1.379,9.644,1.964,14.479
			c0.308,2.544,0.451,5.114,0.541,7.677c0.068,1.939-1.373,3.084-3.328,2.952c-2.349-0.158-4.706-0.181-7.055-0.34
			c-2.187-0.147-4.368-0.374-6.548-0.608c-1.566-0.169-3.124-0.417-4.688-0.614c-2.298-0.289-3.195-1.189-3.241-3.504
			c-0.075-3.772-0.033-7.547-0.114-11.318c-0.082-3.861-0.297-7.719-0.368-11.58c-0.045-2.411,0.157-4.827,0.092-7.236
			c-0.154-5.664-0.399-11.325-0.614-16.988c-0.17-4.504-0.339-9.008-0.533-13.511c-0.036-0.848-0.189-1.691-0.59-2.549
			c-0.382,2.019-0.76,4.038-1.146,6.056c-1.102,5.746-2.134,11.507-3.325,17.234c-1.912,9.188-3.954,18.349-5.892,27.531
			c-0.665,3.147-1.086,6.347-1.799,9.481c-0.489,2.152-1.276,4.238-1.957,6.345c-0.379,1.174-1.416,1.404-2.428,1.403
			c-2-0.001-4.001-0.106-5.999-0.226c-1.5-0.09-3.016-0.161-4.489-0.43c-2.243-0.41-4.465-0.949-6.679-1.503
			c-0.969-0.242-1.612-0.903-1.775-1.948c-0.044-0.283-0.162-0.554-0.206-0.836c-0.519-3.306-1.016-6.615-1.548-9.918
			c-0.248-1.545-0.529-3.086-0.854-4.616c-0.577-2.728-1.216-5.441-1.796-8.168c-0.847-3.987-1.682-7.978-2.487-11.974
			c-0.552-2.74-0.995-5.502-1.572-8.236c-1.271-6.025-2.592-12.04-3.903-18.057c-0.104-0.472-0.295-0.925-0.854-1.366
			c-0.04,0.816-0.041,1.637-0.127,2.448c-0.191,1.801,0.593,3.688-0.482,5.417c-0.073,0.116,0.064,0.358,0.096,0.544
			c0.143,0.825,0.409,1.653,0.398,2.477c-0.04,3.216-0.183,6.431-0.262,9.646c-0.084,3.441-0.163,6.883-0.199,10.325
			c-0.061,5.735-0.073,11.471-0.129,17.206c-0.031,3.217-0.147,6.434-0.147,9.649c0,1.852,0.163,3.703,0.234,5.556
			c0.014,0.352-0.026,0.713-0.098,1.06c-0.516,2.507-1.543,3.077-4.126,2.674c-2.675-0.417-5.378-0.66-8.075-0.92
			c-2.989-0.289-6.002-0.43-8.772-1.783c-1.357-0.663-2.034-1.771-1.886-3.262c0.767-7.701,1.538-15.401,2.336-23.099
			c0.694-6.698,1.415-13.393,2.146-20.087c0.52-4.772,1.113-9.538,1.601-14.314c0.574-5.631,0.958-11.283,1.64-16.9
			c0.412-3.399,1.135-6.771,1.911-10.11c0.426-1.832,1.456-2.431,3.353-2.343c3.931,0.184,7.786,0.598,11.594,1.878
			c1.98,0.666,4.085,1.041,6.081,1.831c2.522,0.999,4.036,2.73,4.444,5.333c0.235,1.503,1.02,2.762,1.424,4.173
			c0.513,1.789,0.997,3.587,1.494,5.38c0.553,1.996,1.159,3.979,1.648,5.99c0.59,2.431,1.087,4.885,1.613,7.332
			c0.814,3.781,1.635,7.562,2.422,11.35c0.946,4.543,1.839,9.098,2.8,13.638c0.352,1.662,0.833,3.297,1.255,4.944
			C490.543,388.621,490.714,388.609,490.885,388.598z"/>
		<path fill-rule="evenodd" clip-rule="evenodd" fill="#FFFFFF" d="M598.692,257.746c-0.174-3.266-0.293-6.537-0.537-9.798
			c-0.22-2.931-0.742-5.846-0.837-8.778c-0.162-5.008-0.167-10.025-0.103-15.037c0.061-4.731,0.252-9.463,0.487-14.189
			c0.047-0.946,0.397-1.964,0.898-2.768c0.308-0.493,1.167-0.898,1.78-0.899c2.331-0.003,4.729,0.573,6.977,0.189
			c3.164-0.54,6.088,0.666,9.159,0.615c1.208-0.021,2.457,0.685,3.63,1.191c0.387,0.167,0.753,0.711,0.855,1.146
			c0.356,1.521,0.864,3.078,0.824,4.608c-0.104,4.004-0.478,8-0.722,12.002c-0.256,4.196-0.492,8.394-0.724,12.591
			c-0.181,3.273-0.362,6.546-0.502,9.822c-0.205,4.788-0.295,9.583-0.584,14.365c-0.196,3.26-0.654,6.503-0.985,9.755
			c-0.231,2.273-0.883,4.608-0.574,6.808c0.588,4.192-0.554,8.247-0.435,12.378c0.042,1.456,0.346,2.638,1.639,3.499
			c0.702,0.469,1.328,1.105,1.854,1.772c0.93,1.175,0.714,2.3-0.353,3.354c-1.63,1.611-3.581,1.876-5.747,1.701
			c-2.896-0.233-5.812-0.233-8.7-0.517c-2.711-0.267-5.364-0.671-6.912-3.512c-0.994-1.826-1.909-3.646-2.699-5.577
			c-1.426-3.488-3.084-6.888-4.771-10.261c-2.372-4.743-4.909-9.403-7.28-14.146c-1.856-3.714-3.524-7.522-5.356-11.249
			c-1.761-3.581-3.632-7.106-5.438-10.665c-0.403-0.795-0.738-1.625-1.518-2.375c-0.063,1.099-0.19,2.199-0.179,3.297
			c0.033,3,0.097,6.001,0.199,9c0.127,3.714,0.337,7.426,0.455,11.141c0.131,4.154,0.181,8.311,0.301,12.466
			c0.14,4.863,0.363,9.725,0.454,14.588c0.031,1.637-0.108,3.301-0.391,4.913c-0.346,1.973-1.635,3.062-3.604,3.02
			c-5.878-0.132-11.76-0.3-17.568-1.334c-2.109-0.376-2.851-1.118-2.949-3.312c-0.116-2.565-0.07-5.148,0.079-7.714
			c0.31-5.29,0.74-10.574,1.104-15.862c0.063-0.924,0-1.856,0.065-2.78c0.342-4.852,0.693-9.702,1.064-14.552
			c0.525-6.865,1.12-13.726,1.587-20.595c0.253-3.72,0.175-7.463,0.473-11.178c0.44-5.483,1.012-10.959,1.671-16.421
			c0.282-2.333,0.501-2.378,2.767-2.194c0.921,0.075,1.852,0.202,2.743,0.436c4.012,1.05,8.02,2.119,12.012,3.241
			c1.773,0.499,2.8,1.822,3.621,3.432c2.498,4.897,5.146,9.72,7.61,14.633c1.894,3.775,3.595,7.647,5.391,11.472
			c0.667,1.42,1.321,2.848,2.046,4.239c1.181,2.269,2.467,4.485,3.612,6.771c1.145,2.285,2.169,4.629,3.248,6.947
			c0.089,0.191,0.184,0.379,0.276,0.568C598.303,257.913,598.497,257.829,598.692,257.746z"/>
		<path fill-rule="evenodd" clip-rule="evenodd" fill="#FFFFFF" d="M324.322,373.665c0.078-0.531,0.219-1.062,0.225-1.594
			c0.059-5.158,0.009-10.317,0.16-15.472c0.194-6.588,0.52-13.171,0.843-19.754c0.094-1.917,0.415-3.821,0.56-5.736
			c0.327-4.317,1.791-4.247,4.735-4.34c3.404-0.106,6.887,0.052,10.227,1.077c1.289,0.396,2.599,0.725,3.905,1.062
			c1.488,0.384,2.066,1.432,2.126,2.86c0.033,0.787,0.099,1.581,0.039,2.363c-0.307,3.981-0.143,7.977-0.667,11.963
			c-0.481,3.66-0.396,7.393-0.625,11.089c-0.216,3.499-0.574,6.99-0.758,10.491c-0.169,3.219-0.117,6.45-0.301,9.667
			c-0.171,2.997-0.513,5.983-0.8,8.973c-0.315,3.279-0.629,6.559-0.992,9.833c-0.339,3.062-0.732,6.118-1.119,9.175
			c-0.197,1.562-0.408,3.122-0.654,4.678c-0.219,1.384,0.565,2.349,1.388,3.235c0.776,0.836,1.084,1.77,1.304,2.862
			c0.219,1.09-0.241,1.67-1.038,2.094c-1.506,0.801-3.123,1.222-4.847,1.158c-2.207-0.08-4.413-0.153-6.619-0.228
			c-1.573-0.053-3.147-0.151-4.72-0.14c-2.071,0.016-3.404-1.032-4.121-2.851c-0.734-1.862-1.333-3.78-1.956-5.685
			c-1.265-3.867-2.431-7.767-3.775-11.604c-2.203-6.292-4.482-12.557-6.794-18.81c-1.317-3.561-2.782-7.067-4.146-10.611
			c-1.107-2.877-2.161-5.775-3.243-8.662c-0.168-0.448-0.364-0.887-0.93-1.307c-0.04,1.083-0.083,2.166-0.12,3.248
			c-0.037,1.075-0.085,2.151-0.1,3.227c-0.071,5.089-0.134,10.178-0.194,15.267c-0.021,1.789-0.07,3.58-0.025,5.367
			c0.171,6.731,0.406,13.462,0.554,20.193c0.073,3.299,0.044,6.602-0.016,9.9c-0.025,1.382-0.704,2.032-2.074,2.327
			c-1.781,0.384-3.542,0.271-5.331-0.047c-3.667-0.648-7.354-1.189-11.03-1.788c-0.494-0.08-0.98-0.224-1.46-0.367
			c-2.215-0.662-2.663-1.247-2.484-3.559c0.343-4.427,0.767-8.848,1.111-13.274c0.438-5.638,0.804-11.282,1.25-16.92
			c0.384-4.854,0.875-9.699,1.248-14.555c0.356-4.635,0.556-9.282,0.939-13.915c0.638-7.704,1.364-15.401,2.065-23.1
			c0.078-0.854,0.212-1.706,0.358-2.553c0.297-1.73,0.7-2.052,2.371-2.02c3.6,0.069,7.109,0.745,10.597,1.568
			c1.117,0.264,2.216,0.605,3.34,0.834c3.587,0.731,5.367,3.231,6.51,6.446c0.934,2.627,1.963,5.222,2.984,7.816
			c1.914,4.862,3.872,9.707,5.775,14.573c1.383,3.536,2.713,7.092,4.057,10.643c0.354,0.937,0.649,1.897,1.012,2.831
			c0.279,0.719,0.623,1.413,0.938,2.118C324.108,373.699,324.215,373.682,324.322,373.665z"/>
		<path fill-rule="evenodd" clip-rule="evenodd" fill="#FFFFFF" d="M677.991,214.813c2.315-2.399,4.308-4.424,6.255-6.49
			c3.748-3.979,4.316-3.595,7.491-0.208c7.184,7.664,13.124,16.268,17.183,25.99c3.897,9.337,6.239,19.055,5.776,29.304
			c-0.141,3.102-0.855,6.052-1.519,9.061c-0.687,3.112-2.02,5.941-3.043,8.898c-0.532,1.538-1.442,2.964-2.306,4.364
			c-4.881,7.917-11.607,13.602-20.57,16.309c-5.112,1.544-10.32,1.184-15.498-0.068c-3.501-0.848-6.407-2.882-9.255-4.821
			c-2.365-1.61-4.24-3.998-6.154-6.196c-2.106-2.418-4.059-4.939-5.766-7.711c-2.029-3.297-3.272-6.791-4.349-10.436
			c-0.959-3.249-1.511-6.533-1.826-9.901c-0.36-3.832-0.039-7.604,0.615-11.345c0.64-3.658,1.261-7.363,2.421-10.872
			c0.808-2.441,1.399-5.036,3.06-7.22c1.098-1.444,1.58-3.341,2.49-4.949c0.771-1.361,1.739-2.615,2.662-3.886
			c1.376-1.895,2.804-3.752,4.183-5.646c3.027-4.159,6.978-7.399,10.795-10.756c1.165-1.025,2.608-1.762,3.995-2.499
			c1.438-0.763,2.552-0.145,2.732,1.503C677.618,209.561,677.756,211.894,677.991,214.813z M678.497,223.5
			c-0.146,0.065-0.293,0.129-0.44,0.194c-0.043,0.49-0.022,0.995-0.142,1.466c-0.277,1.096-0.401,2.312-0.977,3.236
			c-2.34,3.758-4.846,7.412-7.252,11.129c-2.708,4.183-3.798,8.909-4.287,13.767c-0.497,4.928,0.145,9.746,2.401,14.215
			c1.611,3.191,3.254,6.402,5.856,8.943c3.455,3.372,9.854,4.88,14.212-0.29c3.234-3.838,4.377-8.271,4.84-13.055
			c0.612-6.331-0.597-12.412-2.489-18.394c-2.136-6.75-5.479-12.902-9.479-18.708C680.11,225.089,679.251,224.331,678.497,223.5z"/>
		<path fill-rule="evenodd" clip-rule="evenodd" fill="#FFFFFF" d="M176.6,227.789c2.734,0.544,5.471,1.074,8.201,1.639
			c1.473,0.305,2.947,0.617,4.396,1.019c2.059,0.571,2.386,1.271,2.134,3.488c-0.306,2.691-0.457,5.4-0.732,8.095
			c-0.07,0.686-0.36,1.349-0.585,2.152c1.294,0.534,2.569,0.462,3.822,0.459c5.307-0.014,10.614-0.075,15.921-0.065
			c2.736,0.005,3.584,0.886,3.225,3.519c-0.775,5.682-1.633,11.353-2.519,17.018c-0.322,2.057-1.124,2.644-3.256,2.593
			c-5.951-0.141-11.901-0.312-17.852-0.461c-0.993-0.025-1.988-0.003-3.105-0.003c-1.142,3.956-1.013,7.932-1.885,11.866
			c0.486,0.16,0.865,0.388,1.248,0.397c5.807,0.147,11.614,0.249,17.42,0.398c3.581,0.092,7.16,0.262,10.74,0.365
			c1.201,0.035,1.891,0.663,2.111,1.76c0.138,0.684,0.171,1.431,0.056,2.116c-0.784,4.655-0.722,9.45-2.299,13.975
			c-0.069,0.2-0.073,0.423-0.102,0.637c-0.425,3.125-0.875,3.537-3.917,3.486c-4.794-0.08-9.588-0.233-14.382-0.246
			c-3.221-0.009-6.441,0.195-9.663,0.259c-1.792,0.035-3.585-0.027-5.378-0.037c-1.268-0.007-2.411-0.348-3.344-1.24
			c-1.597-1.53-3.264-2.982-4.146-5.123c-0.403-0.98-1.101-1.843-1.695-2.738c-2.417-3.645-4.929-7.229-7.221-10.948
			c-0.758-1.229-1.299-2.792-1.338-4.219c-0.066-2.418,0.333-4.851,0.561-7.275c0.133-1.416,0.315-2.828,0.503-4.493
			c-0.894,0-1.575,0-2.256,0c-1.829,0.002-2.323-0.478-2.193-2.315c0.217-3.05,0.493-6.097,0.742-9.145
			c0.239-2.923,0.443-5.85,0.726-8.77c0.187-1.932,0.493-2.129,2.401-2.151c1.216-0.013,2.431-0.112,3.675-0.174
			c1.124-1.239,1.075-2.756,0.965-4.198c-0.076-1-0.01-1.904,0.161-2.902c0.488-2.87,0.689-5.788,1.034-8.965
			c-1.894-0.066-3.583-0.128-5.272-0.18c-0.358-0.011-0.718,0.041-1.076,0.026c-2.087-0.082-2.842-0.779-2.849-2.922
			c-0.005-1.498,0.152-3.007,0.367-4.493c0.594-4.114,1.21-8.226,1.911-12.323c0.375-2.191,0.462-2.3,2.577-2.314
			c4.577-0.031,9.154,0.074,13.731,0.132c8.381,0.107,16.761,0.228,25.141,0.331c3.566,0.044,7.133,0.036,10.698,0.099
			c1.572,0.028,2.685,0.973,2.583,2.553c-0.222,3.42-0.671,6.826-1.065,10.233c-0.106,0.917-0.362,1.817-0.525,2.729
			c-0.125,0.704-0.16,1.428-0.328,2.12c-0.834,3.431-1.696,4.208-5.154,4.167c-7.888-0.094-15.775-0.304-23.663-0.433
			c-3.08-0.05-6.16-0.008-9.24-0.008C176.604,227.45,176.602,227.619,176.6,227.789z"/>
		<path fill-rule="evenodd" clip-rule="evenodd" fill="#FFFFFF" d="M496.255,215.713c0.943-1.038,1.893-2.07,2.829-3.115
			c1.518-1.694,2.964-3.457,4.557-5.076c1.301-1.322,1.613-1.264,3.142-0.258c3.361,2.214,5.896,5.205,7.916,8.631
			c2.143,3.638,4.215,7.319,6.236,11.026c0.779,1.429,1.303,2.995,1.993,4.474c2.268,4.861,4.209,9.851,5.216,15.125
			c1.003,5.258,2.328,10.477,1.943,15.936c-0.281,3.998-0.398,7.976-1.433,11.901c-1.277,4.846-3.364,9.216-6.36,13.236
			c-4.364,5.854-9.908,10.126-16.715,12.656c-4.281,1.592-8.694,1.91-13.273,0.909c-1.844-0.404-3.782-0.502-5.557-1.232
			c-5.081-2.089-9.711-4.862-13.399-9.031c-0.9-1.019-1.955-1.913-2.768-2.994c-2.44-3.247-4.72-6.608-6.228-10.414
			c-0.922-2.325-1.991-4.625-2.59-7.037c-0.65-2.622-1.039-5.351-1.167-8.05c-0.176-3.696-0.192-7.423,0.079-11.11
			c0.34-4.645,1.663-9.104,3.281-13.472c1.471-3.969,3.149-7.843,5.431-11.408c1.693-2.646,3.525-5.213,5.432-7.712
			c1.382-1.811,2.968-3.47,4.494-5.167c2.939-3.266,6.698-5.335,10.644-7.077c0.955-0.421,2.082-0.466,3.137-0.642
			c0.805-0.134,1.483,0.16,1.677,0.978c0.373,1.584,0.735,3.182,0.925,4.795c0.148,1.267,0.029,2.565,0.029,3.849
			C495.902,215.528,496.078,215.621,496.255,215.713z M495.056,225.002c0.232,2.283-0.99,3.724-2.494,5.038
			c-2.391,2.09-4.328,4.557-5.81,7.356c-1.297,2.453-2.894,4.852-3.606,7.479c-0.736,2.71-1.784,5.332-2.05,8.258
			c-0.366,4.028-0.517,7.979,0.221,11.933c0.298,1.596,0.668,3.295,1.489,4.655c1.951,3.234,4,6.442,7.427,8.441
			c2.043,1.191,4.18,1.92,6.528,1.663c2.515-0.273,4.701-1.661,6.348-3.321c2.917-2.94,4.58-6.774,5.116-10.874
			c0.509-3.892,0.461-7.846,0.02-11.775c-0.754-6.714-3.107-12.923-5.987-18.957C500.5,231.219,498.328,227.811,495.056,225.002z"/>
		<path fill-rule="evenodd" clip-rule="evenodd" fill="#FFFFFF" d="M720.014,335.702c1.382-1.509,2.78-3.004,4.139-4.534
			c0.665-0.749,1.212-1.604,1.888-2.341c1.347-1.466,1.549-1.535,3.224-0.345c1.981,1.409,3.772,3.028,5.217,5.035
			c2.131,2.959,4.416,5.806,6.563,8.753c2.712,3.725,4.612,7.896,6.608,12.029c1.759,3.64,2.995,7.441,3.928,11.324
			c0.765,3.182,1.266,6.438,1.088,9.775c-0.117,2.19,0.355,4.413,0.239,6.604c-0.305,5.752-1.322,11.399-3.698,16.679
			c-2.241,4.98-5.181,9.607-9.036,13.472c-4.576,4.588-10.02,8.001-16.565,8.872c-6.438,0.856-12.7-0.073-18.609-3.037
			c-9.48-4.754-15.812-12.411-20.059-21.873c-2.186-4.869-3.056-10.11-3.138-15.489c-0.124-8.182,1.519-15.976,5.087-23.302
			c3.066-6.294,7.186-11.889,12.125-16.874c3.025-3.054,5.991-6.2,9.613-8.536c2.508-1.618,5.263-2.864,7.954-4.182
			c0.916-0.447,1.683,0.075,1.974,1.349c0.381,1.669,0.599,3.375,0.869,5.068c0.067,0.418,0.069,0.847,0.101,1.271
			C719.688,335.515,719.851,335.608,720.014,335.702z M719.421,344.02c-0.085,0.848-0.233,1.538-0.208,2.222
			c0.069,1.934-0.686,3.561-2.102,4.727c-2.409,1.986-4.247,4.454-6.235,6.804c-2.488,2.94-4.271,6.361-5.571,9.88
			c-1.528,4.134-2.483,8.533-2.207,13.034c0.422,6.871,3.322,12.188,9.34,15.956c3.105,1.944,9.939,0.79,12.304-1.973
			c2.076-2.427,3.454-5.244,4.622-8.168c2.074-5.19,2.282-10.615,1.718-16.085c-0.285-2.759-0.569-5.562-1.304-8.222
			c-1.201-4.351-3.053-8.486-5.236-12.444C723.328,347.551,721.832,345.548,719.421,344.02z"/>
		<path fill-rule="evenodd" clip-rule="evenodd" fill="#FFFFFF" d="M309.897,267.63c-0.865-0.26-1.597-0.555-2.358-0.691
			c-1.159-0.207-1.57-0.899-1.483-1.979c0.105-1.286,0.187-2.578,0.374-3.854c0.549-3.752,1.135-7.499,1.727-11.244
			c0.359-2.275,0.533-2.386,2.929-2.365c0.624,0.005,1.249-0.086,1.892-0.134c1.064-6.151,2.1-12.135,3.184-18.401
			c-1.167-0.096-2.271-0.263-3.374-0.263c-4.412,0-5.189-0.771-4.398-4.987c0.898-4.786,1.978-9.539,2.991-14.304
			c0.104-0.488,0.335-0.952,0.424-1.441c0.208-1.148,0.933-1.469,2.008-1.472c4.086-0.015,8.173-0.057,12.259-0.125
			c3.293-0.054,6.586-0.22,9.879-0.225c2.786-0.004,5.572,0.161,8.359,0.227c0.856,0.02,1.714-0.058,2.571-0.062
			c5.594-0.029,11.189-0.057,16.783-0.068c0.57-0.001,1.148,0.063,1.708,0.172c1.012,0.196,1.702,0.7,1.681,1.873
			c-0.026,1.429,0.156,2.879-0.024,4.285c-0.52,4.05-1.15,8.086-1.803,12.117c-0.123,0.76-0.42,1.569-0.876,2.175
			c-0.388,0.516-1.1,1.056-1.703,1.099c-3.978,0.283-7.962,0.507-11.948,0.611c-4.869,0.128-9.741,0.117-14.612,0.172
			c-3.296,0.037-6.592,0.079-9.888,0.135c-0.407,0.007-0.812,0.123-1.244,0.505c0.962,0.185,1.934,0.329,2.884,0.561
			c2.84,0.692,5.698,1.329,8.497,2.165c1.803,0.538,2.119,1.2,1.862,3.074c-0.204,1.488-0.593,2.95-0.81,4.437
			c-0.35,2.396-0.625,4.802-0.948,7.334c0.656,0.12,1.124,0.276,1.593,0.281c4.228,0.043,8.457,0.04,12.685,0.092
			c2.435,0.03,4.869,0.13,7.303,0.212c2.508,0.084,3.085,0.619,2.882,3.065c-0.349,4.205-0.809,8.4-1.241,12.597
			c-0.124,1.206-0.274,2.411-0.483,3.604c-0.181,1.04-0.876,1.617-1.917,1.743c-0.636,0.077-1.28,0.165-1.917,0.143
			c-4.014-0.137-8.025-0.348-12.04-0.444c-3.066-0.074-6.136-0.015-9.499-0.015c-0.472,4.131-0.922,8.072-1.383,12.105
			c2.018,0.564,3.805,0.376,5.572,0.33c4.295-0.11,8.59-0.276,12.886-0.388c1.936-0.05,3.873-0.033,5.81-0.022
			c0.715,0.005,1.448-0.005,2.14,0.144c1.369,0.294,1.801,0.771,1.92,2.2c0.094,1.136,0.124,2.298-0.002,3.428
			c-0.47,4.2-0.985,8.396-1.558,12.582c-0.122,0.89-0.552,1.737-0.853,2.642c-1.029,0.051-1.882,0.11-2.737,0.132
			c-4.573,0.114-9.146,0.251-13.72,0.31c-1.705,0.021-3.412-0.19-5.119-0.224c-2.651-0.053-5.304-0.021-7.955-0.071
			c-1.212-0.023-2.431-0.101-3.632-0.262c-1.5-0.2-2.634-1.02-3.501-2.269c-3.179-4.582-6.367-9.157-9.585-13.711
			c-0.909-1.286-1.903-2.515-2.905-3.731c-0.992-1.204-1.214-2.508-0.898-4.025c0.555-2.668,1.004-5.358,1.474-8.042
			C309.855,268.816,309.851,268.254,309.897,267.63z"/>
		<path fill-rule="evenodd" clip-rule="evenodd" fill="#FFFFFF" d="M235.68,337.069c0.478-0.611,0.987-1.2,1.429-1.837
			c1.51-2.176,2.979-4.38,4.497-6.55c1.31-1.872,2.749-2.252,4.562-0.836c1.966,1.535,4.112,2.852,5.389,5.248
			c1.404,2.636,3.27,5.029,4.979,7.498c2.915,4.21,4.944,8.85,6.904,13.557c3.031,7.278,3.98,14.942,4.313,22.679
			c0.205,4.759-0.061,9.557-1.492,14.213c-1.188,3.867-2.744,7.542-5.016,10.883c-1.643,2.414-3.401,4.75-5.139,7.099
			c-0.288,0.388-0.729,0.662-1.102,0.986c-1.297,1.127-2.545,2.32-3.913,3.354c-0.948,0.718-2.055,1.228-3.105,1.805
			c-0.375,0.205-0.816,0.293-1.187,0.504c-4.679,2.675-9.835,3.497-15.085,3.508c-3.828,0.008-7.385-1.423-10.825-3.104
			c-4.886-2.39-8.737-6.053-12.122-10.14c-3.261-3.937-5.658-8.444-6.893-13.489c-0.51-2.085-1.177-4.131-1.669-6.218
			c-1.246-5.278-0.75-10.558,0.247-15.794c1.17-6.148,3.002-12.049,6.062-17.598c2.017-3.657,4.167-7.196,6.699-10.487
			c1.431-1.86,3.138-3.52,4.817-5.172c1.83-1.801,3.636-3.673,5.7-5.175c2.295-1.67,4.822-3.043,7.334-4.384
			c1.931-1.031,2.973-0.485,3.347,1.699c0.362,2.109,0.505,4.256,0.739,6.387c0.044,0.402,0.061,0.807,0.09,1.211
			C235.387,336.967,235.533,337.018,235.68,337.069z M236.009,346.358c-0.616,1.029-0.948,2.198-1.722,2.771
			c-3.341,2.475-5.924,5.529-8.03,9.099c-5.213,8.836-6.609,18.054-3.068,27.822c1.085,2.995,2.723,5.686,4.936,7.991
			c2.468,2.571,6.085,2.919,9.191,1.279c3.413-1.802,5.333-4.807,6.598-8.146c1.758-4.64,2.247-9.597,2.292-14.538
			c0.045-4.93-1.412-9.622-3.01-14.216c-0.91-2.613-2.23-5.104-3.56-7.544C238.694,349.149,237.806,347.287,236.009,346.358z"/>
		<path fill-rule="evenodd" clip-rule="evenodd" fill="#FFFFFF" d="M52.026,385.292c-1.217-0.184-2.329-0.329-3.431-0.522
			c-1.399-0.246-1.628-0.461-1.484-1.836c0.298-2.847,0.703-5.681,1.034-8.523c0.232-1.988,0.411-3.983,0.623-5.974
			c0.045-0.426,0.092-0.857,0.207-1.268c0.464-1.66,0.808-1.948,2.535-2.104c0.714-0.064,1.436-0.042,2.152-0.088
			c0.634-0.04,1.266-0.119,1.965-0.188c1.313-5.269,2.606-10.457,3.972-15.936c-0.818-0.075-1.564-0.131-2.306-0.216
			c-1.566-0.179-3.153-0.266-4.688-0.59c-1.7-0.359-1.993-0.882-1.691-2.611c0.369-2.117,0.832-4.219,1.235-6.33
			c0.563-2.954,1.046-5.925,1.682-8.863c0.539-2.493,0.879-2.699,3.356-2.597c2.939,0.123,5.875,0.364,8.814,0.404
			c4.438,0.06,8.878-0.015,13.318-0.024c6.811-0.015,13.622-0.024,20.433-0.03c1.718-0.002,3.436,0.024,5.154,0.031
			c3.181,0.012,4.131,0.979,3.976,4.162c-0.049,1-0.197,2.004-0.402,2.984c-0.731,3.505-1.435,7.019-2.293,10.492
			c-0.465,1.884-1.975,2.859-3.825,2.965c-3.144,0.179-6.298,0.195-9.449,0.213c-2.941,0.017-5.883-0.059-8.824-0.088
			c-4.663-0.047-9.325-0.093-13.988-0.127c-0.33-0.002-0.66,0.102-1.53,0.244c0.84,0.35,1.184,0.553,1.555,0.637
			c2.729,0.619,5.463,1.214,8.195,1.815c0.07,0.016,0.146,0.011,0.213,0.033c3.288,1.122,3.495,1.088,2.863,4.289
			c-0.61,3.097-1.24,6.189-1.854,9.285c-0.095,0.477-0.152,0.961-0.269,1.716c1.026,0.084,1.917,0.217,2.81,0.221
			c6.171,0.03,12.343,0.022,18.515,0.051c3.115,0.015,3.691,0.839,3.125,3.986c-0.519,2.883-0.82,5.807-1.368,8.684
			c-0.375,1.966-0.946,3.901-1.547,5.813c-0.394,1.253-1.416,1.681-2.71,1.642c-3.727-0.109-7.455-0.168-11.182-0.256
			c-3.515-0.083-7.029-0.183-10.544-0.259c-0.274-0.007-0.552,0.106-1.149,0.231c-0.751,3.673-1.519,7.426-2.342,11.446
			c2.748,0.163,5.299,0.404,7.854,0.447c6.311,0.107,12.623,0.141,18.936,0.168c2.652,0.012,3.298,0.517,3.135,3.095
			c-0.267,4.217-0.699,8.423-1.006,12.638c-0.184,2.518-1.713,3.882-3.9,4.601c-1.139,0.374-2.377,0.557-3.579,0.605
			c-4.216,0.17-8.434,0.279-12.653,0.345c-3.221,0.051-6.445,0.048-9.666-0.021c-2.027-0.044-3.736-0.886-5.096-2.431
			c-2.415-2.745-4.84-5.48-7.29-8.193c-2.21-2.446-4.363-4.955-6.72-7.253c-2.096-2.044-2.894-4.295-2.303-7.167
			c0.534-2.598,0.88-5.235,1.29-7.858C51.971,386.634,51.971,386.071,52.026,385.292z M96.862,402.521
			c0.151-0.388,0.332-0.642,0.318-0.883c-0.011-0.176-0.28-0.335-0.434-0.502c-0.171,0.181-0.386,0.339-0.49,0.552
			C96.219,401.764,96.452,401.971,96.862,402.521z"/>
		<path fill-rule="evenodd" clip-rule="evenodd" fill="#FFFFFF" d="M400.177,336.79c0.179-0.31,0.319-0.651,0.543-0.925
			c2.13-2.599,4.274-5.188,6.416-7.777c0.634-0.766,1.45-0.714,2.108-0.198c2.079,1.63,4.355,3.116,6.063,5.085
			c2.19,2.525,4.099,5.354,5.782,8.252c3.586,6.175,6.855,12.516,8.271,19.622c0.587,2.949,1.434,5.866,1.773,8.843
			c0.944,8.269,0.469,16.409-2.342,24.371c-1.471,4.163-3.194,8.115-5.895,11.63c-2.611,3.4-5.784,6.128-9.429,8.36
			c-3.323,2.036-6.816,3.57-10.64,4.443c-5.574,1.272-10.784,0.292-15.913-1.974c-6.397-2.825-11.559-7.221-15.753-12.671
			c-3.397-4.414-5.531-9.505-6.363-15.088c-0.241-1.621-0.892-3.188-1.062-4.811c-0.652-6.243-0.367-12.462,1.361-18.514
			c0.842-2.949,2.056-5.809,3.294-8.625c2.698-6.132,6.159-11.823,10.571-16.876c4.271-4.893,9.158-9.051,15.098-11.847
			c2.354-1.107,3.489-0.689,4.188,1.743c0.352,1.226,0.514,2.507,0.748,3.766c0.179,0.965,0.336,1.935,0.502,2.901
			C399.726,336.598,399.952,336.694,400.177,336.79z M400.669,344.737c-0.158,0.043-0.316,0.086-0.475,0.129
			c0.45,2.35-0.854,3.73-2.394,5.174c-2.023,1.896-3.909,3.973-5.63,6.149c-1.325,1.675-2.424,3.562-3.406,5.467
			c-1.043,2.026-1.932,4.148-2.693,6.298c-0.521,1.473-0.646,3.08-1.056,4.599c-0.699,2.594-0.893,5.164-0.399,7.842
			c0.952,5.165,2.594,9.964,6.566,13.644c3.198,2.962,5.544,3.653,8.882,1.817c2.949-1.622,5.476-4.042,7.167-6.977
			c2.409-4.181,3.948-8.729,4.132-13.627c0.169-4.521,0.096-9.015-1.201-13.421c-1.289-4.382-3.492-8.314-5.837-12.169
			C403.269,347.923,401.898,346.373,400.669,344.737z"/>
		<path fill-rule="evenodd" clip-rule="evenodd" fill="#FFFFFF" d="M659.067,362.284c-2.932-0.196-5.866-0.353-8.793-0.603
			c-2.405-0.205-2.962-0.747-3.24-3.161c-0.234-2.035-1.031-3.835-1.86-5.68c-2.413-5.366-10.798-5.655-14.069-0.533
			c-2.964,4.641-5.048,9.639-6.241,14.991c-0.718,3.214-1.516,6.46-1.72,9.727c-0.303,4.854-0.264,9.756,1.221,14.487
			c1.53,4.884,6.274,7.87,11.353,7.168c2.935-0.405,4.336-2.579,5.447-4.958c0.571-1.224,0.88-2.573,1.272-3.877
			c0.646-2.146,1.332-2.83,3.524-2.622c4.705,0.446,9.393,1.081,14.087,1.641c0.143,0.018,0.285,0.041,0.423,0.08
			c2.902,0.824,4.145,2.435,3.505,5.376c-0.556,2.559-1.463,5.086-2.561,7.468c-1.011,2.195-2.525,4.153-3.741,6.26
			c-2.698,4.672-6.757,7.961-11.251,10.661c-1.978,1.188-4.37,1.868-6.664,2.304c-4.603,0.875-9.27,0.863-13.796-0.512
			c-5.453-1.657-10.104-4.659-13.94-8.898c-1.007-1.112-2.146-2.114-3.075-3.285c-3.393-4.276-5.484-9.243-7.028-14.396
			c-1.527-5.098-1.954-10.393-1.876-15.721c0.108-7.284,1.413-14.367,3.451-21.341c1.56-5.332,4.123-10.2,6.923-14.942
			c1.409-2.388,2.852-4.885,4.808-6.79c2.625-2.557,5.537-4.877,9.128-6.177c7.034-2.546,14.195-2.729,21.352-0.995
			c5.106,1.236,9.757,3.591,13.614,7.325c2.433,2.355,4.46,4.793,5.651,8.156c0.965,2.727,2.122,5.405,2.879,8.219
			c0.742,2.758,0.307,5.556,0.065,8.314c-0.178,2.036-0.762,2.404-2.819,2.464c-2.005,0.058-4.013,0.013-6.019,0.013
			C659.073,362.393,659.07,362.338,659.067,362.284z"/>
		<path fill-rule="evenodd" clip-rule="evenodd" fill="#FFFFFF" d="M404.815,229.186c0.313,0.113,0.621,0.246,0.941,0.336
			c2.959,0.829,5.932,1.61,8.877,2.485c2.657,0.791,3.261,1.589,3.087,4.326c-0.162,2.571-0.552,5.126-0.777,7.694
			c-0.093,1.051-0.016,2.116-0.016,3.357c7.198,0.47,14.442-0.5,21.7,0.65c0,1.609,0.11,3.088-0.025,4.544
			c-0.231,2.484-0.649,4.951-0.931,7.431c-0.282,2.489-0.418,4.997-0.758,7.478c-0.331,2.411-0.914,2.811-3.396,2.866
			c-5.998,0.133-11.992,0.099-17.98-0.329c-1.593-0.114-2.011,0.206-2.293,1.852c-1.004,5.867-1.981,11.738-2.95,17.611
			c-0.524,3.178-0.923,6.378-1.54,9.537c-0.472,2.408-1.185,2.816-3.575,2.438c-4.875-0.771-9.749-1.555-14.615-2.386
			c-1.052-0.179-2.088-0.517-3.092-0.889c-1.228-0.456-1.522-0.991-1.33-2.587c0.402-3.341,0.853-6.676,1.339-10.005
			c0.756-5.181,1.566-10.354,2.332-15.533c0.103-0.695,0.081-1.409,0.125-2.278c-0.734-0.055-1.352-0.088-1.966-0.149
			c-1.317-0.131-1.836-0.544-1.922-1.844c-0.075-1.138-0.042-2.307,0.13-3.433c0.663-4.317,1.4-8.622,2.115-12.931
			c0.083-0.495,0.188-0.987,0.312-1.473c0.199-0.78,0.648-1.266,1.523-1.213c0.214,0.013,0.431,0.006,0.646-0.001
			c2.229-0.077,2.267-0.072,2.566-2.175c0.292-2.053,0.427-4.13,0.758-6.176c0.423-2.612,0.982-5.202,1.464-7.805
			c0.088-0.478,0.088-0.972,0.149-1.702c-1.936-0.125-3.765-0.249-5.596-0.361c-1.074-0.066-2.153-0.069-3.222-0.181
			c-1.294-0.134-1.925-0.749-1.769-1.945c0.731-5.606,1.508-11.207,2.338-16.799c0.133-0.896,0.604-1.746,0.955-2.602
			c0.38-0.931,1.213-0.853,2.009-0.843c3.725,0.045,7.45,0.116,11.175,0.122c5.151,0.008,10.303-0.079,15.454-0.036
			c3.219,0.027,6.435,0.256,9.652,0.321c1.703,0.035,3.41-0.141,5.114-0.127c3.428,0.027,6.857,0.051,10.28,0.211
			c1.761,0.082,2.544,1.07,2.516,2.827c-0.038,2.348,0.098,4.729-0.256,7.033c-0.508,3.305-1.282,6.582-2.163,9.811
			c-0.363,1.333-1.462,2.25-3.057,2.253c-4.269,0.008-8.537,0.07-12.805,0.067c-5.31-0.004-10.62-0.053-15.93-0.078
			c-1.837-0.009-3.674-0.001-5.511-0.001C404.873,228.767,404.844,228.976,404.815,229.186z"/>
		<path fill-rule="evenodd" clip-rule="evenodd" fill="#FFFFFF" d="M97.094,227.74c2.123,0.564,4.251,1.111,6.368,1.698
			c2.417,0.67,4.852,1.293,7.229,2.085c2.762,0.919,3.32,2.168,2.822,5.103c-1.5,8.838-2.985,17.68-4.386,26.535
			c-0.828,5.238-1.457,10.508-2.226,15.756c-0.997,6.803-2.023,13.602-3.077,20.396c-0.555,3.581-0.968,3.845-4.466,3.312
			c-3.966-0.604-7.944-1.128-11.896-1.809c-1.76-0.303-3.484-0.853-5.198-1.377c-2.18-0.667-3.16-2.028-2.986-4.347
			c0.187-2.497,0.479-4.992,0.853-7.47c0.801-5.318,1.741-10.616,2.518-15.938c1.171-8.02,2.262-16.052,3.368-24.082
			c0.88-6.392,1.735-12.788,2.59-19.184c0.036-0.266-0.046-0.547-0.082-0.905c-0.462-0.075-0.872-0.194-1.283-0.2
			c-4.59-0.066-9.18-0.119-13.77-0.166c-2.929-0.03-5.86,0.014-8.786-0.084c-2.65-0.089-3.807-1.107-3.746-3.667
			c0.089-3.715,0.448-7.425,0.745-11.133c0.114-1.427,0.315-2.853,0.583-4.26c0.348-1.83,0.995-2.441,2.846-2.646
			c1.208-0.134,2.437-0.113,3.656-0.114c12.416-0.008,24.832,0.019,37.248-0.02c4.805-0.016,9.609-0.198,14.415-0.26
			c2.367-0.031,4.736,0.034,7.104,0.07c2.653,0.041,5.307,0.078,7.959,0.152c2.927,0.083,3.903,0.893,4.018,3.834
			c0.069,1.758-0.285,3.545-0.562,5.3c-0.391,2.476-0.866,4.939-1.35,7.398c-0.207,1.053-0.469,2.103-0.806,3.121
			c-0.681,2.06-1.249,2.429-3.479,2.417c-7.319-0.042-14.638-0.107-21.957-0.124c-4.376-0.01-8.753,0.052-13.129,0.09
			c-0.354,0.003-0.708,0.07-1.063,0.107C97.144,227.467,97.119,227.604,97.094,227.74z"/>
		<path fill-rule="evenodd" clip-rule="evenodd" fill="#FFFFFF" d="M183.349,345.73c0.763,2.312,1.611,4.611,2.159,6.977
			c0.433,1.868,0.528,3.823,0.67,5.747c0.158,2.151-0.443,2.833-2.581,3.153c-0.421,0.062-0.854,0.081-1.281,0.069
			c-4.151-0.118-8.301-0.255-12.452-0.371c-2.405-0.066-2.381-0.061-3.014-2.355c-0.767-2.78-1.897-5.412-3.684-7.69
			c-0.545-0.695-1.357-1.304-2.175-1.642c-3.036-1.251-5.856-0.581-7.805,2.081c-1.298,1.774-2.422,3.754-3.222,5.799
			c-1.854,4.744-3.134,9.633-3.754,14.743c-0.419,3.457-0.327,6.835-0.27,10.275c0.048,2.922,0.562,5.703,1.375,8.427
			c1.467,4.911,7.531,8.969,13.511,5.918c2.15-1.097,3.197-3.218,3.876-5.459c0.332-1.096,0.481-2.245,0.752-3.36
			c0.571-2.347,0.941-2.813,3.298-2.932c2.716-0.136,5.45-0.07,8.169,0.061c2.065,0.1,4.119,0.446,6.179,0.671
			c3.216,0.351,4.097,1.504,3.382,4.723c-1.335,6.013-3.699,11.538-7.212,16.674c-4.014,5.869-9.563,9.492-16.073,11.597
			c-5.733,1.854-11.463,1.141-16.894-1.679c-3.909-2.029-7.619-4.305-10.577-7.621c-4.273-4.789-7.328-10.246-8.748-16.541
			c-0.725-3.212-1.425-6.437-1.95-9.686c-0.738-4.572-0.091-9.145,0.452-13.678c0.64-5.341,1.849-10.587,3.857-15.592
			c1.871-4.663,4.161-9.136,7.108-13.224c3.06-4.245,6.945-7.714,11.445-10.267c6.046-3.429,12.531-3.778,19.102-1.372
			C177.224,332.777,183.05,344.824,183.349,345.73z"/>
		<path fill-rule="evenodd" clip-rule="evenodd" fill="#FFFFFF" d="M260.126,280.01c2.464-0.053,4.648-0.126,6.833-0.138
			c1.645-0.009,3.309-0.083,4.932,0.127c3.077,0.397,6.122,0.101,9.19-0.008c2.558-0.09,5.135,0.156,7.692,0.377
			c1.277,0.109,1.713,0.695,1.648,2.068c-0.074,1.571-0.218,3.151-0.5,4.697c-0.692,3.791-1.51,7.56-2.222,11.347
			c-0.469,2.495-0.867,2.932-3.348,2.941c-3.555,0.014-7.12-0.213-10.664-0.019c-5.3,0.291-10.588-0.108-15.881-0.014
			c-1.283,0.022-2.617,0.035-3.842-0.28c-1.679-0.433-3.136-1.383-4.195-2.834c-2.239-3.068-4.453-6.155-6.742-9.187
			c-1.758-2.329-3.551-4.639-5.448-6.855c-1.479-1.729-2.248-3.516-1.973-5.877c0.537-4.601,0.873-9.226,1.231-13.845
			c0.109-1.414-0.048-2.848,0.039-4.265c0.109-1.773,0.293-3.545,0.534-5.306c1.174-8.587,1.864-17.22,2.477-25.861
			c0.312-4.408,0.608-8.817,0.991-13.219c0.18-2.065,0.585-4.11,0.816-6.171c0.105-0.936,0.535-1.455,1.441-1.576
			c0.775-0.104,1.559-0.261,2.333-0.237c5.523,0.177,10.955,1.072,16.36,2.154c0.07,0.014,0.138,0.039,0.206,0.063
			c3.716,1.338,3.276,1.024,3.287,4.27c0.01,2.93-0.324,5.861-0.536,8.79c-0.475,6.573-0.915,13.148-1.478,19.713
			c-0.275,3.201-0.821,6.378-1.191,9.573c-0.146,1.258-0.14,2.534-0.214,3.801c-0.274,4.701-0.521,9.403-0.841,14.102
			C260.807,272.103,260.462,275.859,260.126,280.01z"/>
		<path fill-rule="evenodd" clip-rule="evenodd" fill="#FFFFFF" d="M570.786,326.746c3.195,0.18,6.346,0.332,9.49,0.552
			c0.85,0.059,1.696,0.278,2.523,0.499c2.26,0.605,2.789,1.24,2.626,3.691c-0.197,2.982-0.574,5.953-0.876,8.928
			c-0.716,7.06-1.489,14.113-2.136,21.179c-0.626,6.85-1.147,13.71-1.67,20.568c-0.32,4.21-0.515,8.429-0.844,12.638
			c-0.238,3.06-0.638,6.106-0.905,9.165c-0.313,3.566-0.507,7.145-0.867,10.706c-0.142,1.403-0.555,2.786-0.912,4.161
			c-0.375,1.445-1.427,2.09-2.862,2.154c-1.218,0.055-2.446,0.189-3.652,0.084c-3.775-0.328-7.544-0.735-11.311-1.155
			c-0.774-0.087-1.561-0.28-2.286-0.565c-2.805-1.101-3.798-2.681-3.436-5.669c0.795-6.545,1.754-13.07,2.468-19.623
			c0.706-6.482,1.226-12.986,1.771-19.485c0.58-6.925,1.098-13.854,1.635-20.783c0.504-6.498,0.967-13.001,1.52-19.495
			c0.133-1.559,0.401-3.14,0.877-4.624c0.48-1.5,1.513-2.534,3.312-2.569C567.11,327.064,568.968,326.869,570.786,326.746z"/>
	</g>
</g>
</svg>
