<?xml version="1.0" encoding="utf-8"?>
<!-- Generator: Adobe Illustrator 16.0.0, SVG Export Plug-In . SVG Version: 6.00 Build 0)  -->
<!DOCTYPE svg PUBLIC "-//W3C//DTD SVG 1.1//EN" "http://www.w3.org/Graphics/SVG/1.1/DTD/svg11.dtd">
<svg version="1.1" id="Layer_1" xmlns="http://www.w3.org/2000/svg" xmlns:xlink="http://www.w3.org/1999/xlink" x="0px" y="0px"
	 width="800px" height="600px" viewBox="0 0 800 600" enable-background="new 0 0 800 600" xml:space="preserve">
<g id="_x32_u2HNL_1_">
	<g>
		<path fill-rule="evenodd" clip-rule="evenodd" fill="#FFFFFF" d="M509.457,310.557c0-11.438,0-22.877,0-34.316
			c0-1.354-0.005-2.708-0.008-4.061c-0.004-0.862,0.143-1.608,1.25-1.606c9.502,0.021,19.022-0.294,28.504,0.173
			c6.805,0.336,13.041,3.009,18.371,7.414c8.217,6.79,11.912,19.571,3.392,29.844c-2.234,2.696-4.7,5.081-7.801,6.743
			c-0.778,0.416-0.941,0.836-0.575,1.667c2.27,5.128,4.503,10.272,6.723,15.422c2.168,5.029,4.311,10.068,6.452,15.109
			c0.552,1.302,0.367,1.593-0.978,1.615c-4.905,0.075-9.814,0.104-14.719,0.239c-1.332,0.037-1.95-0.503-2.43-1.679
			c-3.609-8.796-7.259-17.574-10.951-26.335c-0.178-0.422-0.862-0.864-1.33-0.888c-2.23-0.112-4.467-0.088-6.702-0.103
			c-1.71-0.01-1.841,0.103-1.826,1.869c0.032,4.296,0.087,8.59,0.144,12.883c0.055,4.119,0.128,8.239,0.182,12.356
			c0.017,1.259-0.628,1.905-1.954,1.92c-4.732,0.053-9.462,0.071-14.192,0.125c-0.954,0.013-1.171-0.472-1.173-1.32
			c-0.026-8.72-0.081-17.441-0.117-26.162c-0.015-3.638-0.004-7.275-0.004-10.912C509.629,310.556,509.541,310.557,509.457,310.557z
			 M526.589,295.243c0.052,0,0.105,0,0.157,0c0,3.283,0.025,6.567-0.017,9.849c-0.01,0.834,0.227,1.235,1.096,1.193
			c3.017-0.143,6.04-0.177,9.046-0.427c2.561-0.213,4.946-1.066,7.077-2.579c5.238-3.714,6.771-11.471,0.482-16.293
			c-1.749-1.34-3.703-2.256-5.869-2.445c-3.482-0.303-6.988-0.348-10.476-0.606c-1.216-0.09-1.53,0.332-1.515,1.458
			C526.618,288.675,526.589,291.958,526.589,295.243z M518.012,309.373c1.927-1.403,3.762-2.876,5.741-4.123
			c0.99-0.623,1.366-1.245,1.347-2.397c-0.103-6.92-0.1-13.842-0.229-20.763c-0.026-1.384,0.461-1.839,1.757-1.969
			c4.662-0.473,9.288-0.285,13.845,0.779c3.911,0.913,7.264,2.841,9.73,6.07c0.86,1.126,1.472,2.443,2.313,3.868
			c1.461-1.627,3.267-1.595,5.438-0.75c-0.265-0.846-0.371-1.339-0.569-1.791c-2.929-6.665-8.32-10.381-15.103-12.174
			c-7.571-2.002-15.286-1.617-22.98-0.735c-0.354,0.041-0.91,0.703-0.918,1.083c-0.163,8.102-0.271,16.206-0.366,24.31
			C517.984,303.662,518.012,306.546,518.012,309.373z M551.925,296.488c-0.107,0.227-0.259,0.442-0.314,0.679
			c-0.994,4.259-3.159,7.821-6.698,10.371c-2.184,1.57-4.595,2.857-6.996,4.095c-1.69,0.869-1.771,0.74-1.066,2.424
			c3.493,8.319,7.017,16.628,10.467,24.966c0.484,1.166,1.214,1.972,2.218,2.657c2.677,1.827,5.325,3.697,7.99,5.541
			c0.289,0.2,0.61,0.346,0.919,0.517c0.02-0.605-0.137-1.001-0.319-1.386c-4.62-9.734-9.261-19.46-13.854-29.206
			c-1.256-2.662-1.075-2.107,1.063-3.311c0.61-0.344,1.224-0.688,1.812-1.067c4.721-3.04,8.208-7.074,9.941-12.484
			c0.371-1.16,0.546-2.385,0.854-3.776C554.454,297.94,554.623,297.871,551.925,296.488z M516.536,314.151
			c-0.05,0.204-0.113,0.331-0.104,0.453c0.483,7.38,0.846,14.77,1.519,22.132c0.309,3.354,1.9,6.266,4.806,8.256
			c0.364,0.25,0.779,0.427,1.412,0.766c0-0.894,0.021-1.488-0.003-2.081c-0.299-7.431-0.69-14.862-0.849-22.297
			c-0.04-1.942-0.462-3.091-2.309-3.965C519.4,316.651,518.071,315.303,516.536,314.151z M520.095,310.329
			c0.982,1.399,1.774,2.464,2.499,3.575c0.733,1.127,1.669,1.65,3.062,1.527c1.123-0.1,2.27,0.069,3.404,0.073
			c0.374,0.001,0.849-0.026,1.107-0.242c1.579-1.307,2.439-3.079,3.253-4.934C529.002,310.329,524.763,310.329,520.095,310.329z
			 M511.565,348.007c3.951-0.172,7.889-0.343,12.059-0.523c-2.91-1.76-5.564-3.362-8.104-4.897
			C514.259,344.316,512.957,346.098,511.565,348.007z"/>
		<path fill-rule="evenodd" clip-rule="evenodd" fill="#FFFFFF" d="M44.662,280.027c-0.871,0-1.491,0.011-2.112-0.002
			c-11.306-0.243-22.611-0.482-33.917-0.74c-1.783-0.041-1.933-0.26-1.837-2.028c0.177-3.236,0.378-6.473,0.49-9.712
			c0.045-1.281,0.551-1.801,1.836-1.785c7.974,0.1,15.95,0.142,23.925,0.243c10.168,0.127,20.335,0.292,30.501,0.436
			c1.861,0.027,2.123,0.309,2.05,2.155c-0.118,2.977-0.272,5.956-0.289,8.935c-0.009,1.608-0.42,2.964-1.403,4.254
			c-7.015,9.201-13.967,18.451-20.983,27.652c-5.42,7.109-10.906,14.17-16.356,21.256c-0.256,0.333-0.45,0.713-0.785,1.251
			c0.53,0.08,0.849,0.17,1.169,0.172c4.16,0.029,8.32,0.054,12.479,0.063c7.308,0.019,14.617,0.021,21.925,0.05
			c1.774,0.009,2.076,0.334,2.058,2.087c-0.038,3.549-0.143,7.099-0.13,10.647c0.004,1.178-0.508,1.378-1.521,1.364
			c-7.144-0.098-14.289-0.156-21.434-0.224c-10.343-0.095-20.688-0.182-31.031-0.289c-1.093-0.011-2.186-0.111-3.274-0.211
			c-0.707-0.064-1.063-0.441-1.053-1.222c0.054-3.9,0.017-7.802,0.147-11.699c0.024-0.696,0.601-1.436,1.064-2.049
			c3.413-4.506,6.872-8.977,10.296-13.477c5.891-7.739,11.759-15.5,17.653-23.239c3.266-4.288,6.568-8.548,9.85-12.823
			C44.179,280.833,44.335,280.54,44.662,280.027z M7.281,340.454c0.091,0.103,0.184,0.206,0.276,0.31
			c1.946-1.157,3.948-2.233,5.819-3.502c1.167-0.791,2.265-1.767,3.163-2.85c1.384-1.673,2.508-3.561,3.856-5.267
			c1.619-2.049,3.364-4,5.042-6.005c12.264-14.645,24.497-29.317,36.83-43.905c1.319-1.561,1.935-2.966,1.417-4.945
			c-0.333-1.275-0.421-2.615-0.618-3.926c-0.127-0.017-0.255-0.036-0.382-0.053C43.328,292.991,24.959,316.451,7.281,340.454z
			 M10.036,276.469c0.044,0.146,0.089,0.291,0.134,0.437c0.464,0,0.929-0.005,1.394,0.001c10.954,0.146,21.908,0.303,32.863,0.42
			c0.764,0.008,1.587-0.142,2.286-0.443c2.816-1.209,5.596-2.5,8.383-3.776c0.272-0.125,0.501-0.342,0.988-0.683
			c-0.545-0.055-0.757-0.091-0.969-0.095c-9.812-0.206-19.625-0.411-29.438-0.61c-3.537-0.071-6.993,0.429-10.327,1.629
			C13.384,274.057,11.531,274.984,10.036,276.469z M59.533,334.672c-0.531-0.078-0.854-0.166-1.177-0.166
			c-10.901,0.016-21.802,0.062-32.702,0.037c-1.499-0.003-2.606,0.359-3.686,1.488c-1.131,1.183-2.613,2.033-3.949,3.018
			c-0.328,0.241-0.689,0.438-1.327,0.839c0.655,0.08,0.94,0.149,1.226,0.146c10.154-0.132,20.311-0.21,30.462-0.462
			c2.061-0.052,4.16-0.583,6.142-1.208C56.47,337.747,58.126,336.514,59.533,334.672z M61.806,344.635c0-2.868,0-5.711,0-8.598
			c-2.262,1.46-4.351,2.805-6.367,4.106C57.509,341.604,59.587,343.069,61.806,344.635z M7.84,275.626
			c2.358-1.395,4.494-2.66,6.516-3.856c-1.892-1.53-3.772-3.052-5.792-4.687C8.322,269.938,8.086,272.726,7.84,275.626z"/>
		<path fill-rule="evenodd" clip-rule="evenodd" fill="#FFFFFF" d="M153.481,346.884c-2.543,0-5.086-0.034-7.628,0.018
			c-0.973,0.022-1.396-0.37-1.648-1.276c-1.14-4.094-2.359-8.167-3.488-12.265c-0.265-0.958-0.671-1.358-1.715-1.354
			c-6.925,0.024-13.852,0.011-20.777-0.055c-1.117-0.012-1.689,0.383-2.041,1.397c-1.416,4.102-2.916,8.174-4.279,12.29
			c-0.353,1.064-0.927,1.343-1.92,1.324c-4.952-0.095-9.905-0.159-14.856-0.24c-1.644-0.027-1.76-0.125-1.243-1.64
			c1.953-5.719,3.968-11.417,5.927-17.133c2.429-7.085,4.825-14.182,7.239-21.271c3.559-10.45,7.121-20.9,10.685-31.348
			c0.749-2.197,1.536-4.38,2.258-6.585c0.268-0.819,0.686-1.2,1.599-1.201c5.342-0.006,10.684-0.051,16.027-0.11
			c1.267-0.015,1.603,0.837,1.896,1.803c1.735,5.7,3.507,11.39,5.208,17.101c4.241,14.237,8.443,28.486,12.676,42.724
			c1.61,5.419,3.279,10.82,4.89,16.236c0.447,1.508,0.312,1.628-1.313,1.628c-2.499,0.001-4.997,0-7.495,0
			C153.481,346.913,153.481,346.898,153.481,346.884z M159.95,344.164c-6.746-24.917-14.66-49.402-22.551-74.079
			c-1.952,1.402-3.303,3.052-3.938,5.132c-0.38,1.25-0.729,2.757-0.381,3.941c1.976,6.724,4.214,13.371,6.272,20.074
			c3.731,12.147,7.534,24.274,11.027,36.491C151.822,340.767,155.688,342.521,159.95,344.164z M142.85,325.429
			c-0.06-0.018-0.182-0.09-0.304-0.088c-9.766,0.043-19.532,0.079-29.297,0.177c-0.485,0.006-1.186,0.44-1.412,0.872
			c-2.153,4.109-4.289,8.23-6.296,12.413c-1.212,2.524-0.345,4.604,2.066,5.983c1.107,0.633,1.609,0.322,2.096-0.72
			c1.888-4.045,3.865-8.05,5.718-12.111c0.462-1.014,1.068-1.323,2.11-1.329c6.962-0.045,13.924-0.127,20.886-0.222
			c0.487-0.007,1.199-0.047,1.419-0.352C140.897,328.589,141.826,327.029,142.85,325.429z M121.013,280.794
			c-6.034,15.623-12.123,31.385-18.211,47.149c0.101,0.078,0.203,0.156,0.305,0.234c0.315-0.178,0.643-0.338,0.944-0.537
			c1.827-1.207,3.701-2.354,5.447-3.668c0.792-0.596,1.597-1.427,1.939-2.326c3.539-9.287,6.988-18.607,10.446-27.924
			c0.178-0.479,0.324-1.026,0.277-1.522C121.805,288.375,121.397,284.554,121.013,280.794z M129.265,295.596
			c-0.271,0.404-0.396,0.529-0.449,0.68c-2.397,6.859-4.786,13.72-7.183,20.578c-0.384,1.101,0.294,1.176,1.083,1.178
			c3.938,0.015,7.877-0.013,11.815,0.068c1.212,0.024,1.305-0.404,1.015-1.398c-1.907-6.559-3.781-13.126-5.677-19.688
			C129.752,296.609,129.538,296.231,129.265,295.596z M123.12,269.336c1.255,1.581,2.338,2.979,3.468,4.337
			c0.194,0.233,0.581,0.415,0.886,0.427c1.133,0.046,2.271,0.035,3.404-0.011c0.266-0.011,0.644-0.167,0.767-0.377
			c0.847-1.435,1.64-2.901,2.46-4.376C130.521,269.336,126.855,269.336,123.12,269.336z M107.035,345.837
			c-2.445-1.693-4.996-3.459-7.411-5.131c-1.472,1.596-3.003,3.255-4.73,5.131C99.077,345.837,103.103,345.837,107.035,345.837z
			 M145.999,345.464c3.867,0,7.93,0,12.159,0c-2.903-1.81-5.543-3.458-8.014-4.999C148.742,342.156,147.335,343.854,145.999,345.464
			z"/>
		<path fill-rule="evenodd" clip-rule="evenodd" fill="#FFFFFF" d="M703.188,349.443c-2.586,0-5.17-0.036-7.754,0.018
			c-0.973,0.021-1.407-0.396-1.691-1.269c-1.331-4.079-2.729-8.139-4.045-12.224c-0.271-0.839-0.64-1.199-1.558-1.199
			c-7.141,0.002-14.281-0.057-21.422-0.031c-0.385,0.002-0.984,0.516-1.115,0.913c-1.36,4.117-2.677,8.249-3.921,12.401
			c-0.322,1.07-0.828,1.475-1.946,1.464c-4.382-0.048-8.763-0.016-13.144-0.014c-0.264,0-0.528,0.017-0.788-0.004
			c-1.585-0.14-2.028-0.73-1.591-2.234c1.616-5.549,3.255-11.093,4.885-16.639c1.434-4.872,2.846-9.749,4.302-14.615
			c2.055-6.877,4.118-13.752,6.218-20.618c2.305-7.534,4.672-15.049,6.963-22.587c0.395-1.301,1.103-1.877,2.454-1.832
			c2.842,0.096,5.688,0.174,8.529,0.172c1.837-0.001,3.671-0.171,5.509-0.244c2.02-0.081,2.566,0.279,3.212,2.147
			c6.062,17.553,12.122,35.105,18.171,52.662c2.511,7.289,4.987,14.589,7.483,21.885c0.562,1.64,0.436,1.813-1.26,1.81
			c-2.498-0.008-4.994-0.002-7.491-0.002C703.188,349.416,703.188,349.431,703.188,349.443z M684.226,272.042
			c-3.604,2.038-5.112,6.338-3.815,10.259c6.197,18.718,12.385,37.438,18.617,56.144c0.396,1.186,0.998,2.356,1.738,3.363
			c2.021,2.748,4.938,4,8.382,4.754C700.802,321.604,692.533,296.883,684.226,272.042z M652.743,327.709
			c0.515-0.202,0.773-0.252,0.968-0.39c2.102-1.502,4.22-2.984,6.271-4.556c0.439-0.337,0.727-0.972,0.906-1.526
			c2.525-7.834,4.933-15.704,7.563-23.5c1.095-3.239,2.008-6.353,1.063-9.812c-0.396-1.448-0.274-3.043-0.34-4.574
			c-0.046-1.063-0.01-2.13-0.01-3.195C662.838,295.673,657.56,311.477,652.743,327.709z M688.729,328.628
			c-0.527-0.078-0.778-0.148-1.029-0.148c-8.369,0.003-16.736-0.003-25.104,0.059c-0.477,0.003-1.167,0.459-1.39,0.894
			c-2.062,4.013-4.075,8.051-6.031,12.115c-1.254,2.603-0.311,4.922,2.317,6.204c0.868,0.425,1.283,0.299,1.698-0.604
			c1.866-4.059,3.82-8.075,5.697-12.129c0.42-0.908,0.972-1.326,2.005-1.327c4.424-0.001,8.851-0.149,13.271-0.074
			c1.963,0.035,3.573-0.123,4.894-1.886C685.939,330.555,687.343,329.767,688.729,328.628z M669.972,320.696
			c0.403,0.084,0.569,0.146,0.735,0.147c4.157,0.023,8.313,0.038,12.471,0.065c0.919,0.005,1.256-0.26,0.919-1.268
			c-2.254-6.726-4.454-13.468-6.684-20.201c-0.083-0.244-0.289-0.447-0.598-0.91C674.491,306.059,672.253,313.308,669.972,320.696z
			 M669.589,272.375c1.093,1.481,2.124,2.915,3.203,4.31c0.185,0.237,0.574,0.42,0.881,0.438c1.132,0.069,2.269,0.082,3.403,0.062
			c0.273-0.004,0.661-0.138,0.789-0.343c0.882-1.412,1.71-2.858,2.655-4.467C676.832,272.375,673.183,272.375,669.589,272.375z
			 M655.727,348.488c-1.725-1.918-3.415-3.797-5.24-5.824c-0.865,2.407-2.498,4.193-4.66,5.535c0.059,0.097,0.117,0.192,0.175,0.289
			C649.27,348.488,652.538,348.488,655.727,348.488z M699.623,343.892c-1.229,1.453-2.469,2.919-3.949,4.67
			c2.948-0.21,5.551-0.396,7.169-0.511C701.952,346.898,700.789,345.396,699.623,343.892z"/>
		<path fill-rule="evenodd" clip-rule="evenodd" fill="#FFFFFF" d="M764.73,269.277c7.57,0.207,13.585,1.099,19.523,2.509
			c2.596,0.618,5.176,1.318,7.733,2.081c1.514,0.451,1.59,0.796,0.717,2.147c-1.925,2.98-3.921,5.917-5.789,8.932
			c-0.694,1.123-1.4,1.305-2.587,0.845c-6.055-2.343-12.37-3.202-18.826-3.06c-2.899,0.063-5.758,0.424-8.348,1.965
			c-3.04,1.809-3.564,5.032-0.975,7.445c1.332,1.239,2.908,2.25,4.472,3.203c5.65,3.443,11.376,6.757,17.004,10.237
			c4.399,2.717,8.791,5.505,12.184,9.5c4.628,5.446,6.44,11.67,4.698,18.729c-0.733,2.964-2.361,5.444-4.459,7.633
			c-4.2,4.38-9.351,6.951-15.244,8.252c-9.634,2.129-19.164,1.489-28.637-0.874c-3.18-0.792-6.3-1.827-9.438-2.777
			c-1.46-0.441-1.649-0.888-0.879-2.181c1.858-3.122,3.792-6.203,5.624-9.341c0.659-1.128,1.371-1.153,2.503-0.73
			c7.965,2.983,16.168,4.264,24.65,3.116c3.015-0.407,5.76-1.475,7.881-3.817c2.458-2.716,2.719-6.921,0.218-9.592
			c-1.62-1.729-3.558-3.245-5.571-4.507c-7.983-5-16.074-9.828-24.08-14.789c-5.042-3.124-8.827-7.261-10.302-13.228
			c-1.302-5.256,0.099-9.695,3.801-13.485c4.045-4.141,9.064-6.393,14.728-7.194C758.926,269.789,762.551,269.508,764.73,269.277z
			 M780.655,280.858c-0.055-0.553-0.047-0.771-0.102-0.971c-0.831-2.91-3.026-4.37-5.742-5.022
			c-8.254-1.985-16.194-1.169-23.643,3.075c-2.38,1.355-4.524,3.019-5.808,5.555c-2.337,4.627-0.946,8.776,1.961,12.475
			c4.358,5.55,10.211,9.266,16.372,12.522c0.655,0.346,1.008,0.168,1.477-0.485c0.74-1.029,1.734-1.877,2.646-2.777
			c0.225-0.225,0.538-0.36,0.975-0.643c-0.607-0.293-1.037-0.479-1.446-0.701c-3.035-1.654-6.144-3.191-9.075-5.011
			c-2.914-1.807-5.528-4.01-7.224-7.121c-1.839-3.377-1.308-6.9,1.839-9.1c1.863-1.303,4.032-2.386,6.222-2.963
			c6.33-1.67,12.685-1.108,18.976,0.477C778.863,280.366,779.642,280.587,780.655,280.858z M758.25,339.786
			c1.459,2.37,4.332,4.107,7.439,4.522c6.088,0.815,11.98,0.017,17.612-2.462c2.553-1.123,4.813-2.552,6.218-5.183
			c1.605-3.007,2.271-6.02,1.302-9.352c-0.772-2.647-2.012-5.035-3.69-7.207c-3.343-4.325-7.277-8.058-11.513-11.487
			c-0.525-0.426-1.075-0.823-1.888-1.44c-0.048,2.074-0.253,3.815-2.174,4.745c0.383,0.333,0.578,0.5,0.768,0.67
			c2.838,2.53,5.776,4.961,8.481,7.626c2.056,2.028,3.883,4.326,4.477,7.297c0.904,4.546,0.991,6.457-4.071,9.414
			c-0.713,0.416-1.493,0.743-2.277,1.014c-6.07,2.101-12.331,2.48-18.681,2.007C759.664,339.905,759.075,339.854,758.25,339.786z
			 M784.664,282.52c1.655-2.344,3.31-4.688,4.999-7.084c-2.549,0.378-4.948,0.734-7.104,1.055
			C783.283,278.564,783.954,280.488,784.664,282.52z M746.368,346.652c2.2-1.09,4.118-2.04,5.938-2.94
			c-1.641-1.692-3.184-3.281-4.872-5.022C747.078,341.344,746.734,343.904,746.368,346.652z"/>
		<path fill-rule="evenodd" clip-rule="evenodd" fill="#FFFFFF" d="M469.978,339.884c1.964,1.455,3.847,2.854,5.931,4.398
			c0.052-0.627,0.131-1.11,0.126-1.591c-0.028-2.19-0.123-4.382-0.086-6.569c0.008-0.414,0.508-0.819,0.78-1.229
			c0.185,0.411,0.53,0.822,0.529,1.232c-0.009,3.504-0.071,7.01-0.135,10.515c-0.03,1.732-0.121,1.846-1.902,1.853
			c-7.758,0.027-15.515,0.029-23.271,0.033c-7.583,0.005-15.162,0.002-22.745,0.004c-2.304,0.001-2.609-0.294-2.593-2.543
			c0.154-21.43,0.313-42.859,0.459-64.289c0.022-3.33-0.025-6.661-0.022-9.991c0.003-1.633,0.187-1.801,1.815-1.802
			c12.969-0.007,25.938-0.013,38.907-0.014c2.539-0.001,5.081,0,7.622,0.044c2.055,0.037,2.177,0.182,2.178,2.174
			c0.003,3.33-0.041,6.661,0.01,9.991c0.019,1.167-0.423,1.5-1.551,1.492c-9.992-0.075-19.985-0.104-29.977-0.142
			c-1.883-0.007-1.854,0-1.877,1.849c-0.067,5.21-0.141,10.42-0.268,15.63c-0.026,1.149,0.226,1.394,1.476,1.359
			c4.729-0.137,9.464-0.058,14.195-0.048c5.343,0.012,10.688,0.064,16.031,0.034c1.255-0.007,1.683,0.421,1.671,1.676
			c-0.038,3.547,0.005,7.098,0.073,10.645c0.023,1.149-0.402,1.51-1.55,1.494c-10.12-0.133-20.244-0.192-30.366-0.338
			c-1.214-0.019-1.481,0.401-1.489,1.503c-0.041,5.215-0.147,10.429-0.228,15.644c-0.024,1.604,0.038,1.676,1.685,1.682
			c9.244,0.034,18.488,0.049,27.73,0.108c0.695,0.004,1.387,0.301,2.08,0.461c-0.396,0.595-0.682,1.319-1.207,1.756
			C472.746,337.954,471.371,338.869,469.978,339.884z M476.102,314.692c-0.596-0.624-0.916-1.011-1.288-1.339
			c-2.64-2.324-5.754-3.522-9.244-3.563c-9.986-0.119-19.974-0.145-29.96-0.263c-1.282-0.016-1.648,0.438-1.677,1.66
			c-0.238,9.635-0.531,19.268-0.796,28.9c-0.008,0.278,0.081,0.559,0.132,0.886c0.225-0.094,0.357-0.121,0.455-0.195
			c1.937-1.473,3.895-2.922,5.782-4.458c0.364-0.293,0.621-0.928,0.632-1.41c0.128-6.308,0.225-12.613,0.271-18.92
			c0.008-1.2,0.323-1.715,1.641-1.688c10.596,0.222,21.192,0.388,31.79,0.559C474.473,314.87,475.106,314.769,476.102,314.692z
			 M433.828,307.241c0.672-0.602,1.114-1.065,1.623-1.442c1.23-0.908,2.409-1.938,3.763-2.608c1.043-0.516,1.378-1.104,1.403-2.2
			c0.135-6.001,0.351-12,0.483-18.001c0.025-1.159,0.353-1.618,1.597-1.6c9.813,0.141,19.626,0.221,29.44,0.317
			c1.064,0.01,2.129,0.001,3.606,0.001c-0.525-0.604-0.736-0.908-1.006-1.146c-2.709-2.4-5.895-3.542-9.501-3.568
			c-9.505-0.07-19.013-0.116-28.521-0.251c-1.314-0.019-1.759,0.312-1.812,1.639c-0.36,9.192-0.788,18.382-1.187,27.574
			C433.706,306.28,433.771,306.608,433.828,307.241z M433.139,347.06c0.026,0.099,0.055,0.201,0.082,0.3
			c0.164,0.024,0.327,0.065,0.491,0.065c7.667,0.001,15.337-0.004,23.005-0.003c5.479,0,10.957,0.013,16.435,0.002
			c0.364-0.001,0.728-0.152,1.093-0.236c-0.12-0.396-0.132-0.893-0.387-1.17c-0.732-0.795-1.47-1.649-2.371-2.215
			c-2.055-1.285-4.384-1.723-6.792-1.727c-6.487-0.011-12.973,0.052-19.458-0.069c-1.921-0.036-3.557,0.375-5.189,1.339
			C437.796,344.674,435.446,345.83,433.139,347.06z M476.002,303.551c-2.083,1.634-3.992,3.131-5.854,4.59
			c1.986,1.521,3.862,2.958,5.854,4.484C476.002,309.619,476.002,306.7,476.002,303.551z M476.09,271.18
			c-2.041,1.702-3.907,3.259-5.672,4.73c2.024,1.39,4.003,2.748,6.124,4.205C476.392,277.141,476.246,274.265,476.09,271.18z"/>
		<path fill-rule="evenodd" clip-rule="evenodd" fill="#FFFFFF" d="M321.359,347.743c-2.367,0-4.734-0.038-7.099,0.019
			c-1.006,0.023-1.522-0.346-1.788-1.308c-1.124-4.055-2.345-8.081-3.407-12.15c-0.306-1.172-0.795-1.52-1.973-1.522
			c-6.88-0.007-13.761-0.075-20.641-0.172c-0.875-0.012-1.245,0.318-1.514,1.088c-1.444,4.136-2.94,8.255-4.386,12.391
			c-0.314,0.896-0.785,1.371-1.804,1.351c-4.684-0.095-9.368-0.143-14.052-0.204c-1.822-0.022-1.933-0.183-1.356-1.884
			c5.834-17.222,11.654-34.448,17.502-51.665c2.621-7.716,5.295-15.414,7.955-23.118c0.668-1.938,0.755-1.951,2.828-1.926
			c4.733,0.057,9.467,0.147,14.2,0.082c1.432-0.02,1.927,0.633,2.261,1.806c1.49,5.226,2.995,10.447,4.515,15.665
			c2.462,8.454,4.953,16.901,7.404,25.361c2.695,9.3,5.358,18.61,8.041,27.913c0.619,2.148,1.261,4.286,1.895,6.431
			c0.446,1.508,0.269,1.756-1.348,1.762c-2.411,0.012-4.822,0.004-7.232,0.004C321.359,347.69,321.359,347.718,321.359,347.743z
			 M327.107,344.589c0.157-0.103,0.312-0.206,0.468-0.308c-7.261-24.44-14.521-48.879-21.848-73.544
			c-2.475,1.872-4.06,3.928-4.549,6.698c-0.125,0.711-0.205,1.515-0.005,2.186c2.632,8.86,5.358,17.691,7.979,26.554
			c2.905,9.826,5.801,19.66,8.528,29.537c0.657,2.38,1.836,4.235,3.618,5.773C322.996,342.952,324.936,344.019,327.107,344.589z
			 M272.356,329.207c0.084,0.073,0.169,0.148,0.252,0.222c0.421-0.257,0.857-0.49,1.261-0.773c1.755-1.233,3.552-2.416,5.226-3.751
			c0.707-0.563,1.386-1.379,1.672-2.219c3.158-9.239,6.245-18.503,9.314-27.771c0.225-0.676,0.259-1.455,0.208-2.174
			c-0.246-3.446-0.55-6.886-0.836-10.33c-0.026-0.314-0.071-0.627-0.106-0.94c-0.127-0.02-0.255-0.04-0.383-0.061
			C283.428,297.344,277.892,313.274,272.356,329.207z M309.195,326.962c-0.046-0.115-0.094-0.233-0.141-0.349
			c-0.712,0-1.425,0.011-2.138-0.001c-8.282-0.134-16.565-0.282-24.847-0.374c-0.512-0.005-1.277,0.302-1.502,0.703
			c-2.345,4.158-4.688,8.321-6.853,12.574c-1.195,2.348-0.365,4.448,1.886,5.856c0.848,0.531,1.352,0.464,1.849-0.508
			c2.055-4.016,4.216-7.979,6.261-12c0.527-1.037,1.143-1.451,2.332-1.428c5.827,0.124,11.656,0.168,17.485,0.199
			c0.509,0.004,1.304-0.129,1.481-0.46C305.983,329.358,307.24,327.852,309.195,326.962z M289.795,318.97c4.898,0,9.65,0,14.6,0
			c-2.135-7.553-4.246-15.021-6.356-22.49c-0.157,0.004-0.315,0.009-0.472,0.012C295.007,303.893,292.449,311.293,289.795,318.97z
			 M302.041,270.06c-3.596,0-7.309,0-10.935,0c1.064,1.475,2.102,2.944,3.184,4.382c0.156,0.208,0.512,0.354,0.785,0.371
			c1.18,0.072,2.363,0.12,3.543,0.094c0.276-0.006,0.64-0.278,0.8-0.531C300.293,272.999,301.118,271.591,302.041,270.06z
			 M264.494,346.627c4.154,0,8.119,0,11.965,0c-2.382-1.698-4.851-3.457-7.194-5.127
			C267.789,343.087,266.266,344.723,264.494,346.627z M318.585,341.62c-1.382,1.676-2.855,3.462-4.478,5.427
			c3.586-0.233,7.005-0.46,10.526-0.69C322.467,344.658,320.494,343.113,318.585,341.62z"/>
		<path fill-rule="evenodd" clip-rule="evenodd" fill="#FFFFFF" d="M191.271,308.177c0.146-12.578,0.303-25.156,0.418-37.733
			c0.011-1.185,0.464-1.689,1.616-1.688c9.334,0.007,18.675-0.233,27.998,0.092c6.226,0.218,12.073,2.314,17.065,6.172
			c5.24,4.049,8.93,9.121,9.378,16.031c0.334,5.158-1.065,9.862-4.138,13.944c-6.137,8.157-14.515,12.172-24.621,12.654
			c-3.061,0.145-6.137,0.07-9.201-0.039c-1.185-0.041-1.497,0.294-1.506,1.445c-0.076,8.722-0.208,17.44-0.332,26.162
			c-0.027,1.899-0.232,2.041-2.165,2.058c-4.206,0.039-8.411,0.14-12.617,0.181c-2.156,0.022-2.217-0.024-2.201-2.199
			c0.079-10.433,0.187-20.862,0.278-31.294c0.017-1.928,0.002-3.856,0.002-5.785C191.254,308.177,191.262,308.177,191.271,308.177z
			 M198.544,341.64c1.618,1.347,3.235,2.694,4.853,4.04c0.131-0.093,0.26-0.186,0.391-0.278c0-9.61,0-19.222,0-29.078
			c-1.85,1.373-3.457,2.652-5.154,3.796c-0.987,0.665-1.367,1.465-1.359,2.623c0.028,3.724,0.022,7.447-0.033,11.17
			c-0.04,2.68-0.172,5.354,1.335,7.759c-0.422,0.271-0.872,0.507-1.263,0.817c-1.494,1.192-2.968,2.409-4.452,3.617
			c-0.244,0.195-0.501,0.377-0.954,0.715c4.089,0,7.883,0,11.719,0c-0.062-0.226-0.058-0.346-0.109-0.379
			c-0.217-0.139-0.464-0.234-0.677-0.378C201.102,344.888,199.38,343.693,198.544,341.64z M208.443,292.125
			c-0.117,0-0.232,0-0.349,0c0,3.631,0.027,7.262-0.018,10.892c-0.012,0.937,0.303,1.396,1.234,1.429
			c1.21,0.039,2.422,0.141,3.631,0.111c1.171-0.029,2.341-0.305,3.506-0.271c3.717,0.104,7.153-0.739,10.039-3.122
			c2.938-2.426,4.831-5.468,4.26-9.478c-0.64-4.5-4.181-7.977-9.048-9.093c-4.016-0.922-8.089-0.738-12.158-0.654
			c-0.948,0.02-1.12,0.571-1.111,1.396C208.461,286.264,208.443,289.195,208.443,292.125z M198.699,306.129
			c0.166,0.044,0.331,0.09,0.497,0.136c1.474-1.292,3.004-2.527,4.392-3.905c0.492-0.487,0.874-1.318,0.898-2.008
			c0.251-7.049,0.412-14.101,0.613-21.151c0.049-1.761,0.165-1.975,1.857-1.967c3.936,0.017,7.891-0.057,11.801,0.305
			c4.826,0.446,9.244,2.115,12.454,6.004c0.986,1.193,1.683,2.624,2.583,4.06c2.203-1.488,4.588-1.338,7.24-0.045
			c-0.84-2.977-2.141-5.131-3.877-7.014c-3.15-3.416-7.082-5.517-11.541-6.714c-8.052-2.164-16.232-2.559-24.5-1.837
			c-1.871,0.163-1.878,0.155-1.914,2.014c-0.17,9.11-0.34,18.22-0.499,27.33C198.675,302.932,198.699,304.53,198.699,306.129z
			 M197.061,309.395c0.636,0.468,0.955,0.733,1.302,0.955c1.514,0.967,2.997,1.993,4.57,2.851c0.888,0.484,1.915,0.913,2.905,0.979
			c7.021,0.473,13.9-0.354,20.625-2.463c6.565-2.057,12.043-5.604,15.859-11.443c0.682-1.043,1.196-2.197,1.787-3.299
			c-1.428,0.212-2.517,0.747-3.654,0.896c-1.356,0.178-2.093-0.764-2.347-2.158c-0.809,1.335-1.425,2.601-2.265,3.693
			c-2.533,3.297-5.947,5.417-9.808,6.785c-8.692,3.081-17.699,3.677-26.826,3.208C198.623,309.369,198.033,309.395,197.061,309.395z
			"/>
		<path fill-rule="evenodd" clip-rule="evenodd" fill="#FFFFFF" d="M360.526,282.884c-0.373-0.022-0.932-0.078-1.493-0.083
			c-5.479-0.051-10.957-0.118-16.437-0.121c-1.101,0-1.592-0.288-1.553-1.482c0.112-3.46,0.161-6.922,0.18-10.384
			c0.007-1.308,0.949-1.497,1.84-1.597c1.345-0.151,2.711-0.171,4.068-0.165c7.493,0.033,14.984,0.089,22.476,0.139
			c5.522,0.036,11.044,0.076,16.566,0.11c3.372,0.02,6.744,0.059,10.117,0.028c0.979-0.008,1.316,0.32,1.29,1.298
			c-0.097,3.636-0.176,7.274-0.174,10.912c0.001,1.374-0.704,1.575-1.83,1.554c-5.302-0.099-10.604-0.158-15.906-0.231
			c-1.764-0.024-1.797-0.023-1.814,1.819c-0.081,8.72-0.124,17.441-0.215,26.162c-0.114,10.952-0.258,21.905-0.401,32.86
			c-0.014,1.095-0.116,2.188-0.159,3.281c-0.032,0.846-0.38,1.273-1.293,1.258c-4.819-0.082-9.639-0.143-14.458-0.185
			c-1.143-0.011-1.359-0.634-1.345-1.619c0.193-13.542,0.398-27.083,0.529-40.627C360.585,298.235,360.526,290.659,360.526,282.884z
			 M362.189,346.034c0.428-0.021,0.57,0.004,0.683-0.04c0.403-0.17,0.804-0.345,1.19-0.551c3.196-1.705,5.115-4.011,5.068-7.99
			c-0.106-9.022,0.141-18.047,0.225-27.071c0.108-11.566,0.183-23.131,0.313-34.696c0.013-1.144-0.366-1.566-1.494-1.556
			c-3.328,0.031-6.658-0.076-9.984,0.019c-3.121,0.09-6.204,0.546-9.089,1.845c-1.502,0.676-2.926,1.485-4.143,3.078
			c0.714,0.073,1.163,0.154,1.612,0.159c5.082,0.049,10.165,0.08,15.246,0.13c1.625,0.017,1.737,0.138,1.704,1.726
			c-0.44,21.155-0.886,42.309-1.329,63.463C362.181,345.014,362.189,345.48,362.189,346.034z M395.507,270.965
			c-2.213,2.264-4.292,4.393-6.29,6.438c1.959,1.037,4.073,2.156,6.29,3.329C395.507,277.466,395.507,274.242,395.507,270.965z
			 M342.067,280.505c2.132-1.987,4.247-3.959,6.286-5.862c-2.011-1.157-4.094-2.354-6.286-3.614
			C342.067,274.175,342.067,277.371,342.067,280.505z M375.986,347.434c-1.942-1.746-3.673-3.3-5.276-4.738
			c-1.928,1.582-3.816,3.131-5.776,4.738C368.587,347.434,372.162,347.434,375.986,347.434z"/>
		<path fill-rule="evenodd" clip-rule="evenodd" fill="#FFFFFF" d="M599.732,348.504c3.479-0.14,6.959-0.278,10.514-0.421
			c-2.041-1.706-3.924-3.281-5.697-4.765c-2.076,1.825-4.182,3.677-6.583,5.787c-0.139-0.826-0.291-1.334-0.299-1.844
			c-0.13-8.411-0.266-16.823-0.353-25.234c-0.167-15.772-0.338-31.545-0.434-47.318c-0.025-4.586-0.604-3.956,3.968-4.001
			c3.856-0.037,7.713,0.023,11.568-0.033c1.202-0.017,1.608,0.419,1.622,1.602c0.135,10.997,0.329,21.994,0.467,32.991
			c0.156,12.353,0.272,24.706,0.403,37.06c0.019,1.796,0.006,3.592,0.028,5.389c0.009,0.715-0.204,1.221-1.012,1.222
			c-4.718,0.006-9.438,0.003-14.156,0.003C599.756,348.795,599.745,348.649,599.732,348.504z M612.546,348.046
			c0.398-24.824-0.009-49.546-0.968-74.302c-3.267,0.618-6.199,4.411-6.155,7.807c0.043,3.548,0.227,7.095,0.24,10.645
			c0.055,15.422,0.076,30.845,0.089,46.268C605.756,342.353,608.78,346.804,612.546,348.046z M598.7,272.071
			c1.722,1.682,3.246,3.209,4.837,4.663c0.146,0.134,0.823-0.094,1.076-0.338c1.123-1.083,2.172-2.241,3.271-3.352
			c0.302-0.307,0.675-0.544,1.216-0.973C605.463,272.071,602.169,272.071,598.7,272.071z"/>
	</g>
</g>
</svg>
