<?xml version="1.0" encoding="utf-8"?>
<!-- Generator: Adobe Illustrator 16.0.0, SVG Export Plug-In . SVG Version: 6.00 Build 0)  -->
<!DOCTYPE svg PUBLIC "-//W3C//DTD SVG 1.1//EN" "http://www.w3.org/Graphics/SVG/1.1/DTD/svg11.dtd">
<svg version="1.1" xmlns="http://www.w3.org/2000/svg" xmlns:xlink="http://www.w3.org/1999/xlink" x="0px" y="0px" width="800px"
	 height="600px" viewBox="0 0 800 600" enable-background="new 0 0 800 600" xml:space="preserve">
<g id="Layer_1">
</g>
<g id="Layer_2">
	<g>
		<g>
			<path d="M92.635,285.195c-11.395-14.529-42.732-11.111-42.732,14.244s33.616,26.494,41.308,13.389
				c0,0,21.651,17.663,23.93,19.373c-19.372,21.651-58.401,24.5-80.907,0c-22.506-24.501-16.523-59.256,9.686-76.065
				c26.209-16.808,58.117-5.982,72.646,11.396L92.635,285.195z"/>
			<polygon points="148.279,248.279 148.279,351.279 236.279,351.279 236.279,323.279 179.279,323.279 179.279,313.279 
				232.279,313.279 232.279,286.279 177.279,286.279 177.279,277.279 235.279,277.279 235.279,248.279 			"/>
			<polygon points="274.279,248.279 274.279,352.279 306.279,352.279 306.279,302.003 337.636,352.279 366.279,352.279 
				366.279,248.279 334.279,248.279 334.279,292.887 306.868,248.279 			"/>
			<polygon points="405.279,275.279 405.279,249.279 496.279,249.279 496.279,276.279 464.279,276.279 464.279,353.279 
				435.279,353.279 435.279,275.279 			"/>
			<path d="M530.279,353.279V248.444c0,0,45.267-0.57,57.517-0.57c14.529,0.57,35.025,9.401,35.025,29.913
				s-19.237,30.836-19.237,30.836l27.483,43.655h-36.465l-22.507-39h-10.816v40H530.279z M586.815,285.279
				c0,0,4.179-1.297,4.179-5.57c0-4.272-4.368-4.43-4.368-4.43h-25.347v10H586.815z"/>
			<path d="M720.521,247.875c29.913,0,59.256,20.227,59.256,52.419s-33.332,52.418-56.407,52.418s-60.396-19.087-60.396-54.982
				S693.742,247.875,720.521,247.875z M695.83,298.394c0,12.726,14.436,23.552,26.97,23.552c12.535,0,24.31-11.775,24.31-23.741
				s-11.395-23.361-25.733-23.361C707.227,274.843,695.83,285.669,695.83,298.394z"/>
		</g>
		<g>
			<g>
				<path fill="#FFFFFF" d="M90.355,282.916c-11.395-14.529-42.732-11.111-42.732,14.244s33.616,26.494,41.308,13.389
					c0,0,21.651,17.663,23.93,19.373c-19.372,21.651-58.401,24.5-80.907,0c-22.506-24.501-16.523-59.256,9.686-76.065
					c26.209-16.808,58.117-5.982,72.646,11.396L90.355,282.916z"/>
				<polygon fill="#FFFFFF" points="146,246 146,349 234,349 234,321 177,321 177,311 230,311 230,284 175,284 175,275 233,275 
					233,246 				"/>
				<polygon fill="#FFFFFF" points="272,246 272,350 304,350 304,299.724 335.356,350 364,350 364,246 332,246 332,290.607 
					304.589,246 				"/>
				<polygon fill="#FFFFFF" points="403,273 403,247 494,247 494,274 462,274 462,351 433,351 433,273 				"/>
				<path fill="#FFFFFF" d="M528,351V246.165c0,0,45.267-0.57,57.517-0.57c14.529,0.57,35.025,9.401,35.025,29.913
					s-19.237,30.836-19.237,30.836L628.788,350h-36.465l-22.507-39H559v40H528z M584.536,283c0,0,4.179-1.297,4.179-5.57
					c0-4.272-4.368-4.43-4.368-4.43H559v10H584.536z"/>
				<path fill="#FFFFFF" d="M718.242,245.595c29.913,0,59.256,20.227,59.256,52.419s-33.332,52.418-56.407,52.418
					s-60.396-19.087-60.396-54.982S691.463,245.595,718.242,245.595z M693.551,296.114c0,12.726,14.436,23.552,26.97,23.552
					c12.535,0,24.31-11.775,24.31-23.741s-11.395-23.361-25.733-23.361C704.947,272.564,693.551,283.39,693.551,296.114z"/>
			</g>
		</g>
	</g>
	<g>
		<g>
			<path d="M105.55,265.728c0,0-9.431-13.294-37.097-13.294s-44.569,23.724-44.569,46.198s24.12,44.584,45.771,44.584
				s34.756-11.773,34.756-11.773l-13.864-11.017c0,0-3.353,5.318-22.093,5.318s-26.717-18.423-26.717-27.919
				s5.698-28.3,29.438-28.299c15.383,0,19.751,5.698,19.751,5.698L105.55,265.728z"/>
			<polygon points="152.279,252.279 230.279,252.279 230.279,270.279 169.279,270.279 169.279,289.279 223.279,289.279 
				223.279,306.279 170.279,306.279 170.279,327.279 229.279,327.279 229.279,344.279 152.279,344.279 			"/>
			<polygon points="282.279,345.279 282.279,254.279 302.88,254.279 340.279,313.209 340.279,254.279 357.279,254.279 
				357.279,344.279 340.485,344.279 298.279,280.921 298.279,345.279 			"/>
			<polygon points="411.279,269.279 411.279,254.279 488.279,254.279 488.279,269.279 458.279,269.279 458.279,346.279 
				442.279,346.279 442.279,269.279 			"/>
			<path d="M538.279,348.279v-96c0,0,42.417,0,48.347,0c5.929,0,30.924,2.907,30.924,25.138s-21.43,26.648-21.43,26.648l24.5,42.214
				H600.3l-24.501-40h-20.52v42H538.279z M553.279,288.279c0,0,30.496,0,33.346,0c2.849,0,11.585-0.953,11.585-10.64
				s-12.725-8.36-12.725-8.36h-32.206V288.279z"/>
			<path d="M721.376,252.433c20.984,0,50.66,12.626,50.66,44.962c0,32.337-27.396,47.151-49.617,47.151
				s-52.229-20.701-52.229-48.431C670.19,268.387,695.264,252.433,721.376,252.433z M689.942,296.116
				c0,19.183,14.817,30.578,32.858,30.578c18.043,0,31.339-16.334,31.339-30.388c0-14.055-12.918-27.538-32.764-27.538
				C709.696,268.767,689.942,276.934,689.942,296.116z"/>
		</g>
		<g>
			<g>
				<path fill="#FFFFFF" d="M103.271,263.448c0,0-9.431-13.294-37.097-13.294s-44.569,23.724-44.569,46.198
					s24.12,44.584,45.771,44.584s34.756-11.773,34.756-11.773l-13.864-11.017c0,0-3.353,5.318-22.093,5.318
					s-26.717-18.423-26.717-27.919s5.698-28.3,29.438-28.299c15.383,0,19.751,5.698,19.751,5.698L103.271,263.448z"/>
				<polygon fill="#FFFFFF" points="150,250 228,250 228,268 167,268 167,287 221,287 221,304 168,304 168,325 227,325 227,342 
					150,342 				"/>
				<polygon fill="#FFFFFF" points="280,343 280,252 300.601,252 338,310.93 338,252 355,252 355,342 338.206,342 296,278.642 
					296,343 				"/>
				<polygon fill="#FFFFFF" points="409,267 409,252 486,252 486,267 456,267 456,344 440,344 440,267 				"/>
				<path fill="#FFFFFF" d="M536,346v-96c0,0,42.417,0,48.347,0c5.929,0,30.924,2.907,30.924,25.138s-21.43,26.648-21.43,26.648
					l24.5,42.214h-20.32l-24.501-40H553v42H536z M551,286c0,0,30.496,0,33.346,0c2.849,0,11.585-0.953,11.585-10.64
					S583.206,267,583.206,267H551V286z"/>
				<path fill="#FFFFFF" d="M719.097,250.154c20.984,0,50.66,12.626,50.66,44.962c0,32.337-27.396,47.151-49.617,47.151
					s-52.229-20.701-52.229-48.431C667.911,266.107,692.984,250.154,719.097,250.154z M687.663,293.836
					c0,19.183,14.817,30.578,32.858,30.578c18.043,0,31.339-16.334,31.339-30.388c0-14.055-12.918-27.538-32.764-27.538
					C707.417,266.488,687.663,274.654,687.663,293.836z"/>
			</g>
		</g>
	</g>
	<g>
		<g>
			<path d="M93.632,263.686c0,0-5.879-7.122-25.179-7.122s-38.92,16.381-38.92,39.314c0,22.934,21.575,40.738,38.92,40.738
				c17.345,0,23.897-6.267,23.897-6.267l-4.558-3.704c0,0-7.769,4.272-19.339,4.272s-33.222-10.54-33.222-34.898
				c0-24.357,21.382-34.471,33.222-34.471c11.839,0,20.479,5.555,20.479,5.555L93.632,263.686z"/>
			<polygon points="157.019,257.279 222.279,257.279 222.279,263.279 163.279,263.279 163.279,294.279 216.279,294.279 
				216.279,299.279 163.279,299.279 163.279,330.279 222.279,330.279 222.279,337.279 158.158,337.279 			"/>
			<polygon points="287.279,338.279 287.279,259.279 298.322,259.279 345.233,330.279 345.279,330.279 345.279,259.279 
				351.279,259.279 351.279,337.279 342.764,337.279 293.954,263.279 291.279,263.279 291.279,338.279 			"/>
			<polygon points="417.279,259.279 483.279,259.279 483.279,264.279 452.279,264.279 452.279,339.279 447.279,339.279 
				447.279,264.279 417.279,264.279 			"/>
			<path d="M542.279,259.279h44.347c0,0,25.828-2.606,25.828,18.988c0,21.595-24.69,20.535-24.69,20.725
				c0,0.191,23.551,40.287,23.551,40.287h-6.456l-25.132-40.574l-30.447-0.215v41.79h-7V259.279z M549.279,292.279h40.383
				c0,0,15.764,0.003,15.764-15.355c0-15.357-16.521-13.645-16.521-13.645h-39.625V292.279z"/>
			<path d="M677.217,298.49c0-18.707,15.724-40.41,45.962-40.41c30.237,0,44.062,21.513,44.062,40.41s-16.334,41.688-45.012,41.688
				S677.217,316.628,677.217,298.49z M684.054,298.49c0,19.087,21.271,35.041,38.175,35.041c13.294,0,37.604-8.905,37.604-33.237
				c0-24.331-14.365-37.638-36.844-37.638C700.51,262.655,684.054,279.402,684.054,298.49z"/>
		</g>
		<g>
			<g>
				<path fill="#FFFFFF" d="M91.353,261.406c0,0-5.879-7.122-25.179-7.122s-38.92,16.381-38.92,39.314
					c0,22.934,21.575,40.738,38.92,40.738c17.345,0,23.897-6.267,23.897-6.267l-4.558-3.704c0,0-7.769,4.272-19.339,4.272
					s-33.222-10.54-33.222-34.898c0-24.357,21.382-34.471,33.222-34.471c11.839,0,20.479,5.555,20.479,5.555L91.353,261.406z"/>
				<polygon fill="#FFFFFF" points="154.739,255 220,255 220,261 161,261 161,292 214,292 214,297 161,297 161,328 220,328 220,335 
					155.879,335 				"/>
				<polygon fill="#FFFFFF" points="285,336 285,257 296.042,257 342.954,328 343,328 343,257 349,257 349,335 340.484,335 
					291.675,261 289,261 289,336 				"/>
				<polygon fill="#FFFFFF" points="415,257 481,257 481,262 450,262 450,337 445,337 445,262 415,262 				"/>
				<path fill="#FFFFFF" d="M540,257h44.347c0,0,25.828-2.606,25.828,18.988c0,21.595-24.69,20.535-24.69,20.725
					c0,0.191,23.551,40.287,23.551,40.287h-6.456l-25.132-40.574L547,296.21V338h-7V257z M547,290h40.383
					c0,0,15.764,0.003,15.764-15.355c0-15.357-16.521-13.645-16.521-13.645H547V290z"/>
				<path fill="#FFFFFF" d="M674.938,296.21c0-18.707,15.724-40.41,45.962-40.41c30.237,0,44.062,21.513,44.062,40.41
					s-16.334,41.688-45.012,41.688S674.938,314.349,674.938,296.21z M681.774,296.21c0,19.087,21.271,35.041,38.175,35.041
					c13.294,0,37.604-8.905,37.604-33.237c0-24.331-14.365-37.638-36.844-37.638C698.23,260.376,681.774,277.123,681.774,296.21z"/>
			</g>
		</g>
	</g>
</g>
</svg>
