<?xml version="1.0" encoding="utf-8"?>
<!-- Generator: Adobe Illustrator 16.0.0, SVG Export Plug-In . SVG Version: 6.00 Build 0)  -->
<!DOCTYPE svg PUBLIC "-//W3C//DTD SVG 1.1//EN" "http://www.w3.org/Graphics/SVG/1.1/DTD/svg11.dtd">
<svg version="1.1" id="Layer_1" xmlns="http://www.w3.org/2000/svg" xmlns:xlink="http://www.w3.org/1999/xlink" x="0px" y="0px"
	 width="800px" height="600px" viewBox="0 0 800 600" enable-background="new 0 0 800 600" xml:space="preserve">
<g id="Q5DULM_1_">
	<g>
		<path fill-rule="evenodd" clip-rule="evenodd" fill="#FFFFFF" d="M200.334,355.606c-1.729,0-3.457,0.032-5.185-0.006
			c-4.314-0.095-8.628-0.23-12.943-0.326c-1.403-0.031-2.809,0.064-4.211,0.012c-5.284-0.196-10.566-0.429-15.849-0.65
			c-0.725-0.03-1.424-0.149-1.76-0.911c-0.346-0.787-0.042-1.436,0.423-2.099c2.166-3.088,4.284-6.211,6.453-9.298
			c0.697-0.991,0.703-1.923,0.266-3.038c-2.323-5.926-4.57-11.882-6.874-17.814c-1.973-5.08-3.985-10.144-5.984-15.212
			c-0.543-1.377-1.371-1.535-2.413-0.445c-3.688,3.859-7.373,7.723-11.043,11.599c-0.518,0.547-0.901,1.224-1.434,1.752
			c-0.758,0.753-1.59,1.433-2.404,2.128c-0.749,0.639-1.512,0.578-2.403,0.188c-1.877-0.821-3.353-2.152-4.785-3.542
			c-4.842-4.698-9.66-9.421-14.492-14.13c-1.308-1.274-2.005-1.25-2.856,0.363c-0.926,1.756-1.659,3.617-2.432,5.451
			c-0.605,1.437-1.148,2.899-1.71,4.354c-0.64,1.657-1.24,3.329-1.91,4.974c-1.119,2.745-2.267,5.479-3.427,8.207
			c-1.773,4.167-3.565,8.326-5.355,12.486c-0.398,0.924-0.283,1.704,0.308,2.567c1.916,2.796,3.754,5.646,5.596,8.492
			c0.661,1.022,0.293,1.744-0.916,1.907c-0.266,0.035-0.546,0.059-0.808,0.015c-3.287-0.549-6.57,0.227-9.856,0.014
			c-1.666-0.108-3.336-0.151-5.005-0.224c-0.323-0.014-0.647-0.035-0.971-0.036c-3.395-0.015-6.79,0.001-10.184-0.051
			c-1.128-0.017-2.253-0.21-3.381-0.309c-0.585-0.051-1.037-0.259-1.237-0.86c-0.196-0.585-0.034-1.057,0.412-1.455
			c1.287-1.15,2.573-2.303,3.861-3.452c1.53-1.364,3.125-2.663,4.571-4.109c0.943-0.943,1.828-2.015,2.471-3.177
			c2.771-5.007,5.307-10.128,7.422-15.459c0.951-2.396,2.246-4.652,3.312-7.006c1.67-3.687,3.278-7.401,4.914-11.104
			c1.067-2.418,2.135-4.835,3.207-7.25c0.678-1.529,1.375-3.049,2.041-4.583c0.561-1.292,0.419-1.708-0.558-2.7
			c-2.498-2.535-4.961-5.105-7.443-7.656c-0.618-0.636-0.905-1.375-0.556-2.215c1.177-2.838,2.348-5.681,3.601-8.486
			c0.833-1.865,1.769-3.686,2.725-5.492c0.364-0.687,0.749-1.771,1.617-1.551c0.583,0.148,1.051,1.117,1.384,1.808
			c0.819,1.7,1.478,3.478,2.306,5.173c0.42,0.861,1.006,1.662,1.624,2.4c0.99,1.184,1.566,1.058,2.136-0.424
			c0.735-1.913,1.33-3.886,2.164-5.753c1.03-2.307,2.242-4.534,3.379-6.793c0.363-0.72,0.765-1.422,1.106-2.152
			c1.642-3.511,3.279-7.025,4.898-10.547c1.285-2.794,2.496-5.623,3.831-8.393c0.554-1.15,0.356-2.077-0.37-2.994
			c-1.372-1.734-2.753-3.461-4.134-5.189c-0.101-0.126-0.277-0.215-0.327-0.354c-0.226-0.634-0.682-1.338-0.558-1.908
			c0.17-0.777,1.082-0.514,1.69-0.496c1.671,0.049,3.338,0.193,5.008,0.248c1.555,0.052,3.114-0.015,4.667,0.063
			c2.639,0.133,5.272,0.391,7.912,0.492c1.395,0.053,2.798-0.164,4.198-0.173c3.396-0.023,6.778,0.088,10.164,0.497
			c2.339,0.282,4.731,0.104,7.098,0.175c1.994,0.059,3.987,0.152,5.977,0.284c1.242,0.083,1.412,0.473,0.741,1.544
			c-1.201,1.918-2.435,3.816-3.619,5.745c-0.705,1.149-1.325,2.35-2.014,3.509c-0.551,0.927-0.463,1.824-0.08,2.787
			c1.656,4.16,3.277,8.334,4.92,12.5c0.988,2.506,1.979,5.011,2.996,7.505c0.638,1.566,1.481,1.765,2.652,0.566
			c1.742-1.783,3.249-3.736,4.09-6.137c0.211-0.604,0.517-1.195,0.888-1.715c0.409-0.573,1.106-0.831,1.724-0.535
			c0.409,0.196,0.807,0.739,0.911,1.195c0.922,4.021,2.238,7.88,4.347,11.452c0.698,1.183,0.432,2.133-0.893,2.594
			c-3.118,1.086-5.123,3.495-7.281,5.754c-0.888,0.929-1.066,1.933-0.636,3.124c1.246,3.451,2.381,6.945,3.726,10.356
			c0.987,2.504,2.258,4.894,3.361,7.354c0.617,1.377,1.147,2.793,1.717,4.191c1.405,3.444,2.854,6.872,4.201,10.339
			c1.192,3.066,2.178,6.215,3.421,9.259c1.896,4.642,3.956,9.217,5.908,13.837c0.99,2.342,1.922,4.736,3.661,6.623
			c1.458,1.582,3.093,3.014,4.734,4.414c1.886,1.609,3.865,3.11,5.802,4.658c0.211,0.169,0.48,0.304,0.615,0.521
			c0.27,0.437,0.761,1.051,0.626,1.354c-0.228,0.512-0.814,0.974-1.357,1.203c-0.515,0.218-1.167,0.14-1.759,0.142
			c-3.457,0.01-6.914,0.005-10.371,0.005C200.334,355.586,200.334,355.597,200.334,355.606z M119.939,287.886
			c0.279,0.466,0.556,1.102,0.986,1.609c0.907,1.068,1.888,2.075,2.849,3.096c2.18,2.317,4.338,4.656,6.561,6.933
			c1.539,1.575,3.193,3.037,4.75,4.596c0.822,0.824,1.323,0.857,2.148,0.003c1.793-1.858,3.604-3.7,5.403-5.553
			c1.653-1.703,3.315-3.398,4.945-5.124c0.927-0.981,1.25-2.077,0.641-3.409c-0.537-1.174-0.906-2.423-1.381-3.626
			c-2.096-5.317-4.208-10.628-6.306-15.944c-0.868-2.198-1.739-4.395-2.569-6.607c-0.944-2.519-1.836-5.057-2.767-7.581
			c-0.301-0.815-0.875-0.968-1.464-0.338c-0.437,0.465-0.831,1.016-1.085,1.599c-1.723,3.957-3.404,7.932-5.098,11.902
			c-1.017,2.382-2.031,4.764-3.049,7.146c-1.354,3.167-2.717,6.33-4.054,9.504C120.243,286.582,120.152,287.123,119.939,287.886z"/>
		<path fill-rule="evenodd" clip-rule="evenodd" fill="#FFFFFF" d="M631.648,236.539c7.827,0.023,15.654,0.02,23.48,0.082
			c3.223,0.026,6.443,0.266,9.665,0.271c2.911,0.004,5.82-0.225,8.732-0.269c3.131-0.047,6.264,0.001,9.396,0.011
			c0.378,0.001,0.764-0.026,1.131,0.042c0.801,0.149,1.069,0.579,0.621,1.249c-0.807,1.205-1.681,2.379-2.646,3.459
			c-1.798,2.011-3.656,3.97-5.541,5.9c-0.892,0.913-1.244,1.855-0.706,3.063c1.1,2.464,2.166,4.942,3.283,7.398
			c1.876,4.123,3.78,8.233,5.675,12.349c0.721,1.566,1.417,3.144,2.179,4.69c0.738,1.497,1.369,1.54,2.48,0.229
			c1.534-1.812,3.062-3.63,4.584-5.453c1.088-1.303,1.945-1.248,2.813,0.265c0.723,1.261,1.409,2.545,2.045,3.852
			c1.271,2.613,2.502,5.245,3.734,7.876c0.403,0.863,0.158,1.415-0.845,1.69c-2.756,0.757-4.754,2.7-6.886,4.402
			c-1.197,0.956-1.14,1.356-0.511,2.839c1.094,2.581,2.141,5.182,3.255,7.753c1.607,3.712,3.206,7.429,4.907,11.098
			c1.494,3.221,3.108,6.387,4.699,9.562c2.34,4.674,4.691,9.342,7.066,13.999c1.199,2.353,2.397,4.71,3.714,6.997
			c0.747,1.297,1.578,2.613,2.64,3.645c2.241,2.179,4.64,4.199,7.012,6.24c1.673,1.44,3.409,2.807,5.117,4.207
			c0.125,0.103,0.282,0.189,0.36,0.321c0.318,0.533,0.998,1.291,0.839,1.584c-0.386,0.713-1.122,0.121-1.718-0.022
			c-0.312-0.075-0.661-0.222-0.945-0.15c-1.859,0.467-3.645-0.239-5.462-0.274c-1.878-0.036-3.766,0.098-5.638,0.273
			c-2.683,0.252-5.332,0.602-8.06,0.291c-2.24-0.255-4.531-0.036-6.799-0.086c-3.989-0.09-7.978-0.247-11.966-0.324
			c-1.128-0.022-2.259,0.165-3.39,0.202c-0.804,0.026-1.611-0.077-2.415-0.054c-1.172,0.034-2.342,0.147-3.514,0.19
			c-0.443,0.017-0.89-0.069-1.335-0.108c0.059-0.463-0.014-1,0.198-1.376c0.98-1.736,2.054-3.421,3.066-5.14
			c0.793-1.347,1.573-2.703,2.308-4.083c0.459-0.859,0.395-1.748-0.008-2.65c-1.494-3.348-2.93-6.722-4.441-10.062
			c-1.045-2.306-2.197-4.561-3.268-6.855c-1.389-2.98-2.748-5.976-4.11-8.969c-0.535-1.177-1.03-2.372-1.569-3.548
			c-0.27-0.588-0.574-1.163-0.902-1.721c-1.202-2.04-1.381-2.044-3.142-0.423c-2.222,2.047-4.534,4.001-6.694,6.109
			c-2.546,2.486-4.948,5.117-7.459,7.64c-1.102,1.108-2.296,2.129-3.485,3.146c-0.991,0.849-1.666,0.886-2.766,0.063
			c-2.29-1.713-4.534-3.488-6.802-5.231c-1.709-1.313-3.433-2.608-5.135-3.93c-0.768-0.595-1.5-1.234-2.247-1.854
			c-2.407-1.997-4.794-4.02-7.229-5.98c-1.249-1.004-1.855-0.787-2.333,0.69c-0.977,3.025-1.892,6.072-2.935,9.074
			c-1.464,4.219-3.057,8.393-4.522,12.611c-0.777,2.239-1.4,4.532-2.094,6.801c-0.237,0.774-0.411,1.574-0.724,2.317
			c-0.604,1.44-0.414,2.725,0.521,3.953c1.47,1.933,2.934,3.87,4.36,5.835c0.503,0.692,1.006,1.428,1.3,2.222
			c0.46,1.245-0.118,2.023-1.44,2.033c-4.096,0.03-8.192,0.078-12.286,0.005c-2.205-0.039-4.405-0.345-6.61-0.46
			c-0.959-0.05-1.931,0.05-2.893,0.132c-1.356,0.115-2.686,0.238-3.862-0.71c-0.823-0.666-0.942-0.829-0.247-1.677
			c0.785-0.954,1.657-1.848,2.566-2.686c1.229-1.133,2.541-2.177,3.799-3.28c0.951-0.834,1.562-1.849,1.957-3.092
			c0.814-2.566,1.833-5.067,2.719-7.612c1.045-3.005,2.033-6.03,3.058-9.043c0.467-1.375,0.965-2.738,1.443-4.109
			c1.136-3.254,2.264-6.511,3.404-9.763c1.158-3.307,2.303-6.619,3.509-9.908c0.34-0.925,0.289-1.684-0.424-2.362
			c-2.108-2.006-4.188-4.045-6.351-5.992c-1.239-1.117-2.606-2.094-3.936-3.108c-1.393-1.062-1.749-2.008-1.149-3.649
			c1.146-3.14,2.321-6.27,3.537-9.383c0.895-2.292,2.156-2.532,3.784-0.668c1.676,1.918,3.446,3.704,5.499,5.231
			c0.851,0.634,1.467,1.575,2.231,2.335c1.112,1.106,1.866,0.979,2.389-0.461c1.215-3.342,2.364-6.708,3.553-10.06
			c0.324-0.915,0.739-1.798,1.029-2.723c0.969-3.089,1.874-6.198,2.853-9.284c1.06-3.341,2.184-6.662,3.258-9.998
			c0.462-1.433,0.942-2.868,1.262-4.336c0.123-0.564-0.019-1.315-0.316-1.817c-1.015-1.716-2.155-3.357-3.242-5.031
			c-0.938-1.444-1.912-2.868-2.788-4.349c-0.858-1.452-0.388-2.236,1.296-2.302c0.485-0.02,0.973-0.003,1.458-0.003
			C631.649,236.405,631.649,236.472,631.648,236.539z M667.675,298.315c-0.269-0.742-0.444-1.303-0.67-1.843
			c-0.645-1.543-1.326-3.071-1.959-4.619c-0.407-0.996-0.7-2.04-1.136-3.021c-1.114-2.514-2.321-4.986-3.413-7.509
			c-2.14-4.946-4.224-9.917-6.336-14.875c-0.995-2.333-1.99-4.666-3.009-6.988c-1.017-2.318-2.055-4.627-3.105-6.931
			c-0.152-0.333-0.388-0.65-0.65-0.908c-0.722-0.707-1.005-0.609-1.236,0.363c-0.188,0.787-0.336,1.588-0.599,2.35
			c-1.704,4.939-3.462,9.86-5.147,14.806c-1.008,2.955-1.898,5.948-2.875,8.914c-1.178,3.573-2.417,7.126-3.58,10.704
			c-0.699,2.152-1.329,4.328-1.938,6.508c-0.252,0.903-0.301,1.844,0.499,2.558c2.816,2.514,5.617,5.046,8.475,7.512
			c3.017,2.604,6.117,5.11,9.128,7.721c1.277,1.107,1.524,1.196,2.864,0.114c0.251-0.202,0.482-0.432,0.713-0.659
			c1.192-1.173,2.374-2.357,3.574-3.522c3.019-2.931,6.061-5.839,9.056-8.795C666.877,299.651,667.244,298.926,667.675,298.315z"/>
		<path fill-rule="evenodd" clip-rule="evenodd" fill="#FFFFFF" d="M456.205,356.212c-2.16,0-4.323,0.056-6.481-0.012
			c-4.691-0.145-9.38-0.389-14.071-0.515c-1.665-0.044-3.338,0.219-5.006,0.2c-5.343-0.059-10.686-0.183-16.029-0.287
			c-0.376-0.008-0.767-0.017-1.123-0.12c-1.271-0.368-1.652-1.406-0.896-2.496c1.598-2.306,3.254-4.572,4.835-6.89
			c1.031-1.513,2.048-3.045,2.92-4.651c0.364-0.672,0.45-1.556,0.465-2.347c0.146-8.15,0.249-16.302,0.369-24.453
			c0.053-3.562,0.14-7.122,0.169-10.684c0.024-3.125-0.033-6.251-0.015-9.376c0.069-11.393,0.169-22.785,0.229-34.178
			c0.024-4.477-0.038-8.955-0.029-13.432c0.002-1.033-0.308-1.896-0.989-2.657c-1.045-1.166-2.086-2.334-3.101-3.525
			c-1.465-1.719-2.931-3.438-4.338-5.203c-0.395-0.494-0.655-1.126-0.855-1.735c-0.251-0.765,0.081-1.275,0.893-1.382
			c0.58-0.077,1.185-0.027,1.772,0.027c2.142,0.196,4.258,0.583,6.44,0.262c0.98-0.144,2.027,0.25,3.046,0.271
			c2.637,0.056,5.276,0.016,7.913,0.063c1.887,0.034,3.771,0.21,5.657,0.217c11.072,0.041,22.146,0.051,33.218,0.072
			c4.051,0.007,8.103-0.016,12.152,0.03c3.938,0.044,7.876,0.159,11.813,0.247c0.323,0.007,0.651,0.017,0.968,0.075
			c1.308,0.242,1.747,0.907,1.421,2.19c-0.358,1.413-0.752,2.816-1.128,4.225c-1.668,6.253-3.337,12.505-5,18.759
			c-0.11,0.416-0.19,0.842-0.263,1.267c-0.123,0.728-0.381,1.391-1.134,1.638c-0.726,0.238-1.225-0.257-1.69-0.717
			c-1.807-1.782-3.553-3.631-5.428-5.337c-1.632-1.485-3.312-2.956-5.141-4.179c-3.84-2.567-8.214-3.627-12.745-4.276
			c-3.913-0.561-7.751-0.026-11.612,0.342c-0.93,0.088-1.29,0.533-1.315,1.514c-0.15,5.604-0.308,11.208-0.427,16.813
			c-0.117,5.504-0.193,11.009-0.284,16.514c-0.008,0.486,0.021,0.973,0.003,1.458c-0.058,1.59,0.594,2.664,2.481,2.06
			c0.102-0.032,0.213-0.05,0.319-0.049c3.067,0.013,6.14-0.07,9.199,0.09c1.234,0.065,2.239-0.089,3.119-0.919
			c2.667-2.516,5.324-5.042,7.985-7.564c0.117-0.111,0.207-0.287,0.345-0.336c0.528-0.188,1.129-0.554,1.589-0.431
			c0.344,0.092,0.667,0.816,0.726,1.292c0.116,0.958,0.146,1.951,0.034,2.909c-0.283,2.428-0.327,4.839,0.034,7.264
			c0.126,0.848,0.048,1.725,0.073,2.588c0.084,2.859,0.181,5.717,0.252,8.576c0.018,0.7-0.064,1.402-0.069,2.102
			c-0.011,1.887-0.007,3.772-0.003,5.658c0.001,0.485,0.081,0.977,0.024,1.454c-0.172,1.471-1.029,1.917-2.19,1.053
			c-1.377-1.024-2.714-2.12-3.964-3.296c-1.848-1.738-3.592-3.586-5.401-5.365c-0.913-0.898-1.993-1.474-3.32-1.462
			c-3.292,0.029-6.585,0.034-9.876,0.095c-1.185,0.021-1.594,0.557-1.599,1.761c-0.014,3.339-0.057,6.677-0.063,10.017
			c-0.017,6.907-0.042,13.814-0.012,20.722c0.012,2.751,0.158,5.502,0.248,8.252c0.047,1.42,0.529,1.825,1.905,1.722
			c1.235-0.093,2.477-0.175,3.714-0.157c4.163,0.06,8.296-0.092,12.425-0.787c2.251-0.378,4.501-0.67,6.523-1.74
			c1.993-1.056,3.896-2.286,5.827-3.455c0.459-0.278,0.843-0.701,1.322-0.922c1.947-0.895,3.551-2.216,5.054-3.724
			c1.861-1.867,2.962-1.531,3.774,0.924c1.26,3.81,3.178,7.312,5.174,10.774c0.806,1.398,1.668,2.778,2.317,4.25
			c0.919,2.082,1.869,4.129,3.294,5.921c0.397,0.499,0.618,0.993,0.218,1.618c-0.38,0.592-0.812,0.898-1.58,0.881
			c-1.18-0.027-2.362,0.116-3.544,0.184c-1.883,0.108-3.764,0.237-5.647,0.313c-3.015,0.121-6.029,0.271-9.044,0.287
			c-2.695,0.014-5.392-0.189-8.088-0.2c-2.206-0.009-4.413,0.169-6.621,0.18c-1.506,0.007-3.014-0.175-4.521-0.196
			c-2.538-0.035-5.077-0.01-7.616-0.01C456.205,356.257,456.205,356.234,456.205,356.212z"/>
		<path fill-rule="evenodd" clip-rule="evenodd" fill="#FFFFFF" d="M240.864,231.385c5.781,0,11.562,0.027,17.342-0.006
			c11.172-0.064,22.344,0.16,33.517,0.072c3.565-0.028,7.13-0.023,10.696-0.061c0.916-0.01,1.829-0.135,2.745-0.187
			c0.537-0.03,1.089-0.099,1.612-0.014c1.41,0.231,2.146,1.411,1.62,2.733c-0.758,1.903-1.618,3.767-2.473,5.629
			c-1.777,3.873-3.582,7.732-5.37,11.6c-2.264,4.896-4.532,9.79-6.778,14.694c-1.099,2.4-2.13,4.831-3.231,7.23
			c-0.583,1.273-1.257,2.504-1.876,3.761c-2.837,5.757-5.536,11.587-8.561,17.243c-1.401,2.618-2.622,5.304-3.901,7.971
			c-1.097,2.285-2.159,4.589-3.236,6.885c-0.022,0.049-0.061,0.099-0.062,0.148c-0.054,3.463-2.64,5.81-3.864,8.756
			c-0.206,0.496-0.557,0.935-0.749,1.435c-1.669,4.35-4.055,8.345-6.128,12.495c-1.277,2.556-2.398,5.189-3.586,7.789
			c-0.09,0.195-0.165,0.4-0.228,0.606c-0.42,1.364-0.062,1.971,1.333,2.099c1.611,0.148,3.228,0.249,4.844,0.321
			c3.744,0.169,7.442-0.097,11.063-1.164c2.375-0.701,4.845-1.14,7.144-2.027c3.668-1.416,7.209-3.138,10.347-5.583
			c1.571-1.225,3.214-2.358,4.82-3.539c0.8-0.589,1.027-0.492,1.669,0.361c1.1,1.461,1.568,3.194,2.111,4.871
			c0.878,2.71,1.535,5.491,2.37,8.216c0.695,2.268,1.52,4.495,2.269,6.747c0.22,0.662,0.442,1.335,0.549,2.021
			c0.242,1.552-0.209,2.14-1.799,2.127c-5.29-0.041-10.58-0.17-15.87-0.219c-1.779-0.017-3.559,0.166-5.338,0.155
			c-4.046-0.023-8.092-0.161-12.139-0.158c-4.208,0.004-8.417,0.218-12.623,0.156c-4.963-0.072-9.923-0.388-14.886-0.513
			c-6.423-0.161-12.848-0.238-19.272-0.35c-1.242-0.021-2.489,0.024-3.726-0.064c-1.484-0.107-1.883-0.843-1.286-2.198
			c0.109-0.245,0.242-0.484,0.394-0.706c2.139-3.129,3.748-6.547,5.448-9.918c1.335-2.646,2.781-5.237,4.14-7.873
			c1.012-1.961,1.958-3.956,2.948-5.929c0.507-1.011,1.042-2.009,1.577-3.005c1.479-2.755,3.013-5.481,4.435-8.267
			c1.248-2.443,2.32-4.977,3.566-7.422c1.298-2.547,2.722-5.028,4.07-7.55c1.17-2.189,2.329-4.385,3.46-6.594
			c2.264-4.418,4.506-8.848,6.756-13.273c1.828-3.594,3.623-7.205,5.488-10.779c1.569-3.005,3.263-5.944,4.818-8.956
			c1.312-2.541,2.502-5.144,3.749-7.718c0.894-1.845,1.813-3.678,2.682-5.535c0.721-1.543,0.255-2.368-1.455-2.452
			c-1.666-0.082-3.34-0.059-5.009-0.011c-1.887,0.053-3.771,0.195-5.657,0.282c-2.319,0.106-4.646,0.118-6.956,0.317
			c-1.44,0.124-2.858,0.514-4.283,0.796c-1.481,0.294-3.013,0.448-4.427,0.939c-2.378,0.825-4.822,1.552-6.859,3.153
			c-1.904,1.497-3.838,2.956-5.763,4.427c-0.996,0.761-1.548,0.73-2.221-0.418c-1.06-1.809-2.06-3.664-2.941-5.566
			c-2.473-5.335-4.871-10.704-7.298-16.059c-0.569-1.255-0.256-1.836,1.15-1.887c1.832-0.066,3.667-0.028,5.502-0.029
			c4.538-0.002,9.076,0,13.614,0C240.864,231.39,240.864,231.387,240.864,231.385z"/>
		<path fill-rule="evenodd" clip-rule="evenodd" fill="#FFFFFF" d="M529.028,292.107c0.224,3.832,0.411,8.417,0.798,12.986
			c0.153,1.809,0.756,3.579,1.146,5.369c0.39,1.794,0.706,3.605,1.166,5.381c0.661,2.555,1.389,5.094,2.163,7.617
			c0.233,0.76,0.652,1.487,1.102,2.151c1.201,1.782,2.104,3.741,3.552,5.389c1.725,1.962,3.822,3.327,6.122,4.403
			c1.456,0.681,3,1.271,4.567,1.594c1.942,0.402,3.952,0.677,5.932,0.664c3.029-0.021,6.034-0.449,8.729-2.028
			c2.737-1.605,5.644-2.966,7.839-5.364c2.187-2.39,4.375-4.776,6.568-7.159c0.291-0.316,0.589-0.643,0.937-0.889
			c0.566-0.399,1.162-0.35,1.576,0.22c2.466,3.396,5.29,6.532,7.007,10.457c0.831,1.898,0.598,3.474-0.579,4.982
			c-1.395,1.786-2.75,3.64-4.377,5.197c-2.177,2.084-4.436,4.167-6.958,5.785c-3.02,1.938-6.157,3.778-9.659,4.831
			c-1.128,0.338-2.198,0.861-3.313,1.25c-1.813,0.633-3.704,0.646-5.602,0.678c-1.562,0.025-3.119,0.229-4.682,0.294
			c-4.367,0.185-8.561-0.714-12.721-1.961c-1.532-0.459-3.136-0.675-4.642-1.284c-2.339-0.947-4.84-1.574-7.04-2.766
			c-4.23-2.292-8.188-5.034-11.428-8.665c-0.638-0.714-1.127-1.559-1.704-2.328c-0.287-0.382-0.562-0.809-0.939-1.079
			c-1.709-1.224-2.931-2.776-3.809-4.706c-0.845-1.857-1.909-3.625-2.982-5.367c-1.456-2.368-2.348-4.966-3.208-7.57
			c-1.674-5.061-2.277-10.311-2.549-15.606c-0.165-3.229-0.389-6.461-0.397-9.693c-0.006-2.638,0.264-5.276,0.423-7.914
			c0.091-1.508,0.171-3.019,0.315-4.522c0.325-3.39,1.001-6.716,1.972-9.979c0.938-3.15,1.842-6.312,2.885-9.428
			c0.494-1.475,1.25-2.866,1.936-4.272c1.543-3.167,3.361-6.166,5.85-8.687c1.666-1.688,3.448-3.262,5.171-4.896
			c2.822-2.678,6.319-4.254,9.698-6.05c3.077-1.635,6.345-2.724,9.685-3.524c5.709-1.367,11.499-1.912,17.339-0.751
			c2.059,0.409,4.13,0.77,6.169,1.261c1.25,0.302,2.456,0.794,3.672,1.229c1.364,0.488,2.688,1.112,4.079,1.497
			c4.506,1.248,8.944,1.278,13.199-0.999c0.809-0.432,1.627-0.854,2.473-1.203c0.997-0.412,1.594,0.067,1.459,1.127
			c-0.041,0.317-0.168,0.624-0.269,0.932c-1.476,4.511-2.924,9.031-4.443,13.527c-0.949,2.81-1.962,5.601-3.034,8.366
			c-0.629,1.625-1.717,1.882-3.236,1.013c-2.523-1.443-5.068-2.848-7.606-4.264c-1.88-1.049-3.701-2.231-5.66-3.104
			c-3.145-1.4-6.483-1.808-9.939-1.665c-2.664,0.11-5.012,1.155-7.447,1.984c-0.102,0.034-0.206,0.078-0.29,0.142
			c-3.134,2.358-6.435,4.439-8.829,7.742c-3.134,4.321-5.104,9.124-6.657,14.122c-0.664,2.136-0.856,4.443-1.066,6.691
			C529.236,285.95,529.196,288.654,529.028,292.107z"/>
		<path fill-rule="evenodd" clip-rule="evenodd" fill="#FFFFFF" d="M321.623,231.354c2.64,0.115,5.279,0.292,7.919,0.324
			c1.993,0.024,3.989-0.211,5.983-0.201c3.394,0.017,6.786,0.187,10.18,0.195c3.339,0.008,6.678-0.111,10.017-0.162
			c1.35-0.021,2.701-0.029,4.05-0.007c3.394,0.056,6.787,0.15,10.18,0.195c3.829,0.05,7.659,0.041,11.488,0.099
			c4.586,0.069,9.172,0.167,13.757,0.279c2.849,0.07,5.699,0.149,8.543,0.31c1.18,0.067,1.463,0.617,0.825,1.597
			c-1.786,2.743-2.744,5.859-4.076,8.805c-1.2,2.653-2.299,5.352-3.447,8.028c-0.084,0.198-0.194,0.386-0.303,0.572
			c-1.326,2.263-1.692,2.277-3.744,0.677c-2.165-1.688-4.373-3.334-6.662-4.846c-2.422-1.599-5.308-1.674-8.075-2.047
			c-0.867-0.117-1.423,0.398-1.473,1.355c-0.106,2.042-0.112,4.088-0.135,6.134c-0.011,1.023,0.07,2.049,0.041,3.072
			c-0.048,1.67-0.195,3.337-0.227,5.007c-0.132,6.961-0.094,13.929-0.414,20.881c-0.152,3.301,0.146,6.571,0.066,9.859
			c-0.167,6.908-0.265,13.818-0.262,20.729c0.004,8.043,0.152,16.087,0.228,24.13c0.018,1.944,0.018,3.89-0.009,5.833
			c-0.017,1.262,0.46,2.243,1.295,3.197c1.416,1.619,2.676,3.375,4.016,5.062c0.436,0.548,0.919,1.059,1.374,1.592
			c0.56,0.656,1.166,1.282,1.657,1.988c0.604,0.869,0.338,1.444-0.717,1.537c-1.773,0.157-3.553,0.291-5.332,0.322
			c-1.453,0.026-2.909-0.135-4.364-0.17c-1.775-0.044-3.553-0.01-5.328-0.069c-3.019-0.101-6.037-0.24-9.054-0.377
			c-1.4-0.063-2.798-0.176-4.198-0.235c-0.645-0.028-1.296-0.021-1.938,0.033c-4.528,0.385-9.054,0.342-13.574-0.083
			c-1.701-0.16-2.103-0.966-1.038-2.341c1.782-2.301,3.646-4.55,5.62-6.687c1.203-1.303,1.885-2.604,1.868-4.445
			c-0.023-2.583,0.335-5.168,0.419-7.756c0.054-1.666-0.081-3.338-0.151-5.007c-0.085-2.047-0.285-4.094-0.268-6.139
			c0.045-5.235-0.048-10.487,0.354-15.698c0.342-4.422,0.542-8.831,0.575-13.258c0.006-0.737-0.028-8.412-0.029-9.301
			c-0.009-7.832,0.055-15.664,0.076-23.495c0.012-4.47-0.005-8.939-0.031-13.409c-0.008-1.424-0.299-1.713-1.722-1.723
			c-2.16-0.015-4.331-0.109-6.479,0.059c-3.305,0.259-6.464,1.065-9.293,2.957c-1.693,1.132-3.601,1.935-4.941,3.576
			c-0.492,0.604-1.156,0.501-1.666-0.118c-0.205-0.25-0.41-0.509-0.562-0.792c-1.779-3.325-3.542-6.659-5.323-9.982
			c-0.791-1.475-1.643-2.917-2.413-4.402c-0.496-0.957-0.94-1.947-1.324-2.955c-0.63-1.653-0.234-2.266,1.551-2.493
			c0.48-0.061,0.97-0.061,1.456-0.062c1.674-0.007,3.349-0.003,5.023-0.003C321.619,231.448,321.621,231.401,321.623,231.354z"/>
		<path fill-rule="evenodd" clip-rule="evenodd" fill="#FFFFFF" d="M718.265,236.246c4.254,0.113,8.509,0.331,12.761,0.309
			c4.262-0.021,8.486,0.509,12.735,0.612c1.511,0.036,3.022,0.029,4.533,0.061c0.592,0.013,1.2,0.004,1.771,0.136
			c1.019,0.235,1.266,0.977,0.618,1.807c-0.96,1.232-1.963,2.431-2.944,3.646c-0.508,0.628-1.076,1.22-1.504,1.9
			c-1.972,3.133-4.779,5.536-7.169,8.304c-0.492,0.571-0.915,1.209-1.451,1.735c-1.459,1.431-2.914,2.874-4.465,4.201
			c-0.822,0.704-1.97,0.478-2.919-0.46c-0.958-0.946-1.831-1.978-2.734-2.979c-0.794-0.879-1.534-1.812-2.376-2.643
			c-2.116-2.086-4.093-4.271-5.872-6.671c-1.468-1.982-3.318-3.681-5.003-5.502c-0.732-0.792-1.54-1.525-2.195-2.376
			c-0.732-0.95-0.419-1.759,0.735-2.062c0.513-0.134,1.067-0.165,1.6-0.149c1.293,0.038,2.585,0.131,3.877,0.202
			C718.263,236.294,718.264,236.27,718.265,236.246z"/>
		<path fill-rule="evenodd" clip-rule="evenodd" fill="#FFFFFF" d="M52.637,230.353c7.552,0.046,15.104,0.1,22.655,0.136
			c3.022,0.015,6.045-0.012,9.068-0.018c0.378,0,0.773-0.061,1.129,0.03c0.442,0.113,1.117,0.272,1.209,0.563
			c0.127,0.406-0.062,1.053-0.345,1.419c-1.087,1.406-2.213,2.789-3.421,4.091c-2.197,2.369-4.448,4.688-6.704,7.001
			c-1.918,1.967-3.871,3.9-5.816,5.841c-0.266,0.265-0.555,0.521-0.873,0.717c-1.098,0.676-2.325,0.572-3.259-0.33
			c-4.192-4.048-8.36-8.121-12.553-12.167c-1.319-1.273-2.697-2.485-4.035-3.738c-0.51-0.479-1.038-0.955-1.462-1.505
			c-0.796-1.033-0.549-1.708,0.71-1.918c1.219-0.204,2.456-0.301,3.684-0.445C52.628,230.137,52.632,230.245,52.637,230.353z"/>
		<path fill-rule="evenodd" clip-rule="evenodd" fill="#FFFFFF" d="M737.931,276.88c-0.003,1.979-1.181,3.584-3.58,4.509
			c-2.765,1.067-4.817,0.456-6.778-1.793c-2.086-2.393-1.644-5.583,1.127-7.177c1.647-0.947,3.412-1.487,5.408-0.776
			C736.346,272.439,737.943,274.473,737.931,276.88z"/>
		<path fill-rule="evenodd" clip-rule="evenodd" fill="#FFFFFF" d="M68.349,264.139c1.982,0.012,3.702,1.045,4.293,2.797
			c0.61,1.807,0.222,3.471-1.037,4.96c-1.586,1.877-6.112,2.568-8.155,0.672c-0.984-0.913-1.396-1.913-1.239-3.303
			C62.476,266.919,65.333,263.747,68.349,264.139z"/>
	</g>
</g>
</svg>
