<?xml version="1.0" encoding="utf-8"?>
<!-- Generator: Adobe Illustrator 16.0.0, SVG Export Plug-In . SVG Version: 6.00 Build 0)  -->
<!DOCTYPE svg PUBLIC "-//W3C//DTD SVG 1.1//EN" "http://www.w3.org/Graphics/SVG/1.1/DTD/svg11.dtd">
<svg version="1.1" id="Layer_1" xmlns="http://www.w3.org/2000/svg" xmlns:xlink="http://www.w3.org/1999/xlink" x="0px" y="0px"
	 width="800px" height="600px" viewBox="0 0 800 600" enable-background="new 0 0 800 600" xml:space="preserve">
<g id="_x38_D2e6b_1_">
	<g>
		<path fill-rule="evenodd" clip-rule="evenodd" fill="#FFFFFF" d="M506.268,164.542c-0.355,1.137-0.343,1.991,0.779,2.997
			c1.769,1.585,3.22,3.531,4.753,5.368c0.747,0.896,1.396,1.875,2.056,2.84c1.451,2.124,9.788,13.424,10.896,14.02
			c0.272,0.147,2.961,4.453,4.312,6.237c2.46,3.248,4.878,6.529,7.394,9.732c1.533,1.952,3.317,3.71,4.806,5.692
			c2.036,2.713,4.101,5.44,5.794,8.369c3.255,5.631,7.186,10.768,10.993,16.008c2.453,3.376,4.483,7.055,6.853,10.496
			c1.64,2.382,3.562,4.566,5.301,6.883c0.818,1.09,1.379,2.387,2.266,3.408c1.59,1.831,4.583,5.584,4.313,5.661
			c0.623,0.71,1.198,1.423,1.841,2.07c0.229,0.229,0.619,0.296,0.936,0.438c0.154-0.363,0.404-0.716,0.444-1.091
			c0.109-1.021,0.13-2.053,0.187-3.08c0.189-3.418,0.399-6.834,0.564-10.253c0.314-6.472,0.644-12.943,0.887-19.418
			c0.128-3.418,0.008-6.847,0.145-10.265c0.151-3.75,0.519-7.491,0.698-11.241c0.118-2.459,0.075-4.927,0.099-7.392
			c0.009-0.993-0.085-1.994,0.014-2.977c0.297-2.945-1.268-19.586-1.435-20.668c-0.417-2.707-0.757-5.427-1.217-8.126
			c-0.171-1.005-0.574-1.972-0.896-2.949c-1.041-3.157-3.95-4.223-6.432-5.788c-0.409-0.258-0.843-0.874-0.841-1.322
			c0.021-3.426,0.185-6.851,0.228-10.277c0.029-2.305,0.167-2.639,2.545-2.643c4.277-0.007,8.559,0.102,12.834,0.269
			c5.691,0.222,11.38,0.546,17.069,0.829c0.27,0.013,0.537,0.057,0.775,0.083c0,4.762,0,8.445,0,13.454
			c-0.893-0.444-7.519,0.28-7.853,0.467c-2.649,1.482-2.43,5.792-2.668,8.875c-0.169,2.203,0.299,22.911,0.295,26.104
			c-0.006,3.759,0.023,7.519-0.043,11.277c-0.031,1.771-0.321,3.537-0.368,5.308c-0.065,2.472-0.007,4.947-0.014,7.421
			c-0.006,2.671-0.028,5.341-0.039,8.012c-0.019,4.673-0.031,9.347-0.05,14.02c-0.032,7.687-0.125,15.373-0.077,23.059
			c0.022,3.61,0.344,7.216,0.473,10.827c0.09,2.528,0.229,5.068,0.076,7.586c-0.13,2.142-0.62,4.265-1.027,6.381
			c-0.048,0.253-0.573,0.581-0.888,0.591c-4.183,0.141-8.367,0.219-12.55,0.343c-1.216,0.036-2.431,0.259-3.641,0.223
			c-0.898-0.026-1.783-0.444-2.683-0.482c-0.939-0.039-1.894,0.132-2.831,0.279c-1.076,0.168-1.269-0.346-1.251-1.287
			c0.056-3.087,0.119-6.178,0.029-9.263c-0.061-2.109-0.155-4.263-0.643-6.298c-0.359-1.499-1.247-2.93-2.133-4.233
			c-2.107-3.101-4.35-6.11-6.547-9.15c-0.745-1.031-1.563-2.011-2.27-3.067c-0.976-1.462-1.895-2.962-2.804-4.467
			c-0.92-1.521-1.806-3.063-2.694-4.604c-1.11-1.927-2.11-3.927-3.338-5.777c-1.596-2.405-3.392-4.676-5.06-7.035
			c-1.89-2.671-3.715-5.387-5.599-8.062c-2.753-3.908-5.532-7.798-8.303-11.693c-1.32-1.856-2.67-3.692-3.955-5.572
			c-0.252-0.367-0.267-0.896-0.291-0.985c-0.771-0.783-1.409-1.313-1.903-1.953c-3.324-4.305-6.836-8.488-9.832-13.012
			c-1.579-2.384-3.813-3.966-5.626-6.027c-1.714-1.949-3.528-3.915-6.177-4.798c-0.772-0.258-1.301-1.177-2.057-1.573
			c-0.671-0.352-2.96-2.841-4.015-2.715c0.143,2.973,0.634,9.481,0.272,12.099c-0.904,6.567,0.298,13.088,0.007,19.629
			c-0.194,4.368-0.258,8.745-0.233,13.116c0.022,3.996,0.282,7.989,0.365,11.985c0.095,4.596-0.262,9.237,0.269,13.778
			c0.511,4.367,0.578,8.745,0.997,13.105c0.306,3.175,0.414,6.369,0.64,9.553c0.125,1.769,1.343,2.777,2.754,3.507
			c1.248,0.646,2.632,1.025,3.899,1.639c1.916,0.927,3.918,1.199,5.982,0.898c1.255-0.183,1.816,0.331,1.828,1.483
			c0.038,3.617,0.066,7.235-0.029,10.85c-0.009,0.354-0.88,0.955-1.376,0.981c-3.006,0.162-6.021,0.286-9.029,0.237
			c-3.582-0.058-7.161-0.342-10.743-0.458c-7.149-0.232-14.301-0.424-21.452-0.612c-1.245-0.033-1.677-0.464-1.57-1.816
			c0.349-4.448,0.553-8.909,0.769-13.367c0.044-0.913,0.337-1.413,1.307-1.447c1.681-0.058,3.398,0.039,5.032-0.281
			c5.009-0.981,7.431-4.058,6.88-9.348c-0.413-3.965-0.328-7.985-0.397-11.982c-0.076-4.415-0.144-8.831-0.084-13.244
			c0.048-3.57,0.302-7.137,0.444-10.707c0.179-4.498,0.426-8.995,0.473-13.495c0.029-2.848-0.293-5.697-0.38-8.548
			c-0.074-2.417,0.004-4.839-0.066-7.257c-0.04-1.378-0.393-2.759-0.333-4.126c0.071-1.657,0.49-3.295,0.646-4.953
			c0.119-1.274,0.07-2.564,0.082-3.848c0.011-1.353,0.005-2.706,0.007-4.059c0-0.047-0.008-0.107,0.018-0.138
			c1.812-2.238-1.004-3.825-0.831-5.848c0.062-0.742-0.257-1.524-0.16-2.256c0.362-2.73,0.574-5.512-1.214-7.78
			c-1.807-2.293-4.412-3.493-7.306-3.941c-1.02-0.158-2.062-0.152-3.092-0.251c-0.794-0.077-1.252-0.397-1.227-1.346
			c0.074-2.93,0.276-5.883,0.002-8.787c-0.171-1.812,0.255-3.515,0.227-5.276c-0.024-1.494,0.699-2.139,2.203-2.124
			c9.921,0.1,19.843,0.188,29.765,0.312c3.825,0.048,7.65,0.176,11.476,0.277c0.617,0.016,1.246-0.015,1.204,0.944
			c-0.167,3.804-0.246,7.613-0.464,11.414c-0.067,1.189-0.682,2.364,0.231,3.503c0.048,0.06-0.488,0.856-0.815,0.907
			C511.354,163.933,508.844,164.218,506.268,164.542z"/>
		<path fill-rule="evenodd" clip-rule="evenodd" fill="#FFFFFF" d="M245.458,374.762c-0.206-0.779-0.518-1.406-0.513-2.031
			c0.03-4.044,0.253-8.09,0.171-12.131c-0.076-3.755-0.399-7.509-0.737-11.252c-0.083-0.928-0.574-1.849-1.009-2.706
			c-0.53-1.044-1.499-1.262-2.32-0.489c-1.662,1.562-3.218,3.244-4.764,4.926c-1.357,1.476-2.66,3.002-3.951,4.535
			c-0.782,0.929-1.479,1.927-2.241,2.872c-3.008,3.731-6.028,7.453-9.039,11.183c-0.946,1.172-1.812,2.413-2.833,3.514
			c-0.68,0.733-1.039,2-2.457,1.807c-0.107-0.015-0.28,0.45-0.552,0.912c-1.11-1.113-2.094-2.167-3.151-3.141
			c-1.239-1.141-2.544-2.209-3.819-3.311c-1.715-1.482-3.419-2.98-5.148-4.447c-1.449-1.229-3.038-2.314-4.362-3.662
			c-1.673-1.702-3.141-3.605-4.693-5.426c-0.09-0.105-0.125-0.264-0.224-0.357c-2.236-2.097-4.518-4.146-6.7-6.296
			c-1.191-1.173-2.215-2.516-3.567-4.072c-0.267,1.278-0.591,2.235-0.645,3.207c-0.115,2.11-0.076,4.229-0.13,6.343
			c-0.078,3.043-0.221,6.086-0.259,9.13c-0.017,1.334,0.213,2.67,0.234,4.007c0.025,1.7-0.13,3.404-0.06,5.101
			c0.099,2.366,0.38,4.726,0.496,7.091c0.074,1.508-0.09,3.027-0.006,4.533c0.141,2.503,0.459,4.995,0.577,7.498
			c0.07,1.479-0.096,2.971-0.164,4.457c-0.02,0.418-0.113,0.838-0.097,1.253c0.074,1.852,0.161,3.702,0.272,5.551
			c0.131,2.191,0.064,4.426,0.491,6.56c0.668,3.346,0.652,6.716,0.85,10.081c0.193,3.288,0.504,6.584,0.422,9.868
			c-0.066,2.686,0.774,5.212,0.873,7.845c0.014,0.373,0.025,0.761-0.055,1.121c-0.322,1.464,0.155,2.369,1.178,3.627
			c1.865,2.292,4.221,2.562,6.702,2.938c2.072,0.314,2.239,0.67,2.225,2.723c-0.017,2.486,0.232,4.975,0.373,7.462
			c0.018,0.322,0.158,0.657,0.102,0.96c-0.18,0.973,0.096,1.471,0.865,1.275c0.296,0.935,0.513,1.768,0.823,2.564
			c0.496,1.273,0.18,1.492-1.088,2.104c-1.956,0.944-3.99,1.184-6.083,1.463c-2.52,0.336-4.969,0.516-7.515,0.028
			c-2.01-0.385-4.118-0.318-6.184-0.345c-3.758-0.047-7.518-0.014-11.516-0.014c-0.444-5.988-0.872-11.762-1.303-17.575
			c0.988-0.148,1.946-0.342,2.913-0.428c3.244-0.289,4.556-2.429,5.175-5.28c0.411-1.891,0.41-3.719,0.104-5.678
			c-0.402-2.578-0.103-5.259-0.232-7.889c-0.282-5.711-0.65-11.417-0.971-17.126c-0.089-1.591-0.162-3.184-0.174-4.775
			c-0.002-0.325,0.306-0.651,0.468-0.971c-0.807-0.792-0.861-1.562-0.406-2.62c0.284-0.664-0.076-1.589-0.09-2.397
			c-0.046-2.697-0.073-5.396-0.098-8.094c-0.029-3.271,0.393-6.622-0.178-9.796c-0.77-4.273-0.705-8.56-1.066-12.833
			c-0.208-2.45-0.149-4.922-0.34-7.374c-0.148-1.899-0.508-3.781-0.747-5.674c-0.054-0.433,0.036-0.881,0.001-1.318
			c-0.119-1.544-0.267-3.087-0.394-4.631c-0.018-0.214-0.002-0.436,0.035-0.646c0.048-0.274,0.265-0.593,0.183-0.806
			c-1.715-4.462-1.562-9.381-3.542-13.81c-1.436-3.214-4.042-4.691-7.014-5.891c-1.038-0.419-2.092-0.796-3.497-1.327
			c-0.269-0.731-0.802-1.889-1.091-3.104c-0.116-0.492,0.276-1.121,0.484-1.67c0.121-0.317,0.337-0.6,0.662-1.158
			c-0.64,0.169-0.972,0.256-1.562,0.41c0.151-0.465,0.16-0.917,0.388-1.109c0.611-0.518,0.504-0.795-0.174-1.046
			c-0.108-0.041-0.287-0.166-0.276-0.21c0.293-1.116,0.496-2.274,0.942-3.329c0.835-1.972,2.714-1.571,4.308-1.623
			c4.595-0.151,9.192-0.231,13.789-0.328c0.913-0.02,1.686,0.09,2.245,1.07c0.597,1.047,1.297,0.782,1.906-0.336
			c0.556-1.021,1.648-0.826,2.644-0.757c0.463,0.032,0.939-0.184,1.412-0.193c1.493-0.031,2.994-0.091,4.476,0.045
			c0.265,0.024,0.586,0.91,0.647,1.426c0.268,2.263,0.49,4.531,0.645,6.804c0.085,1.25,0.038,2.514-0.032,3.767
			c-0.013,0.233-0.414,0.445-0.616,0.647c-0.004,1.444,0.838,2.261,2.095,2.993c0.73,0.426,1.069,1.507,1.613,2.272
			c2.343,3.292,4.762,6.509,8.132,8.875c0.481,0.338,0.646,1.095,1.05,1.58c0.861,1.034,1.809,1.994,2.669,3.028
			c0.588,0.708,1.065,1.507,1.634,2.231c0.277,0.353,0.624,0.664,0.984,0.933c1.43,1.065,2.753,2.167,3.469,3.921
			c0.232,0.567,1.203,0.801,1.758,1.278c0.956,0.821,1.873,1.691,2.751,2.595c0.163,0.167,0.192,0.663,0.066,0.881
			c-0.674,1.158,0.116,1.254,0.928,1.399c0.496,0.09,0.979,0.329,1.471,0.337c0.427,0.007,0.894-0.148,1.278-0.354
			c0.626-0.334,1.204-0.761,1.792-1.162c0.291-0.198,0.634-0.376,0.831-0.651c1.001-1.403,1.847-2.935,2.963-4.236
			c2.363-2.759,4.892-5.374,7.286-8.107c0.86-0.981,1.576-2.103,2.269-3.216c1.885-3.032,3.738-6.085,5.565-9.151
			c0.376-0.632,0.587-1.362,0.973-2.282c-0.574-0.225-1.088-0.531-1.638-0.62c-1.311-0.213-1.919-1.152-2.792-2.02
			c-1.509-1.499-1.042-3.188-1.204-4.828c-0.174-1.771-0.272-3.559-0.251-5.337c0.02-1.633,0.135-3.285,0.448-4.882
			c0.085-0.438,1.123-1.1,1.563-0.993c2.825,0.681,5.647,0.471,8.5,0.4c3.477-0.087,6.961,0.119,10.441,0.213
			c2.527,0.068,5.053,0.145,7.578,0.255c0.454,0.02,0.895,0.279,1.352,0.326c0.879,0.089,1.767,0.105,2.949,0.168
			c0.363,3.387,0.806,7.193,1.136,11.009c0.039,0.453-0.422,1.14-0.847,1.406c-1.095,0.688-2.292,1.214-3.462,1.776
			c-0.678,0.326-1.42,0.708-1.521-1.052c-0.873,2.749-1.605,4.992-2.296,7.249c-1.296,4.237-0.219,8.558-0.368,12.837
			c-0.128,3.673,0.161,7.359,0.247,11.04c0.11,4.72,0.168,9.44,0.312,14.158c0.118,3.853,0.312,7.703,0.505,11.552
			c0.138,2.76,0.443,5.517,0.462,8.276c0.017,2.471-0.386,4.944-0.369,7.415c0.021,3.196,0.275,6.392,0.432,9.587
			c0.114,2.325,0.219,4.649,0.357,6.973c0.068,1.146,0.196,2.289,0.31,3.432c0.311,3.117,0.575,6.241,0.958,9.35
			c0.448,3.632,1.017,7.25,1.502,10.878c0.177,1.317,0.117,2.683,0.426,3.963c0.542,2.246,2.934,3.879,5.214,3.766
			c2.024-0.101,3.436,1.154,3.716,3.179c0.085,0.613,0.446,1.188,0.367,1.736c-0.041,1.573-0.14,3.147-0.107,4.719
			c0.042,2.031,0.219,4.061,0.281,6.092c0.03,1.013-1.311,2.62-2.488,2.879c-0.997,0.22-2.052,0.317-3.072,0.27
			c-2.244-0.104-4.48-0.366-6.724-0.502c-2.362-0.144-4.729-0.249-7.095-0.309c-2.96-0.075-5.922-0.106-8.883-0.119
			c-2.629-0.012-2.481,0.027-2.601-2.896c-0.169-4.14-0.354-8.278-0.561-12.417c-0.041-0.82-0.105-1.256,1.079-1.144
			c1.643,0.156,3.335-0.035,4.989-0.227c1.168-0.134,1.555-0.928,1.485-2.136c-0.485-8.456-0.918-16.915-1.354-25.374
			c-0.269-5.218-0.554-10.436-0.755-15.656c-0.241-6.234-0.41-12.473-0.578-18.709c-0.014-0.529,0.208-1.065,0.33-1.597
			c0.031-0.133,0.178-0.338,0.14-0.374c-1.253-1.219-0.237-2.749-0.544-4.12C244.698,377.364,244.46,375.794,245.458,374.762z"/>
		<path fill-rule="evenodd" clip-rule="evenodd" fill="#FFFFFF" d="M420.286,445.266c-0.142,0.326-0.263,0.604-0.367,0.845
			c1.719,2.102,1.719,2.102-0.397,2.548c0.311,0.806,0.592,1.553,0.889,2.294c0.051,0.127,0.268,0.27,0.24,0.331
			c-0.525,1.188-0.056,2.344,0.046,3.519c0.054,0.629-0.153,1.275-0.179,1.916c-0.039,0.956-0.023,1.915-0.028,2.872
			c-0.002,0.323-0.055,0.66,0.019,0.966c0.43,1.79,0.209,2.173-1.549,2.149c-7.475-0.102-14.949-0.257-22.425-0.359
			c-1.834-0.025-3.673,0.146-5.506,0.09c-0.997-0.03-2.002-0.287-2.966-0.57c-0.306-0.09-0.689-0.589-0.698-0.91
			c-0.085-2.935-0.137-5.872-0.11-8.809c0.016-1.681,0.089-3.377,0.36-5.029c0.096-0.585,0.791-1.14,1.327-1.564
			c0.582-0.461,1.292-0.763,1.954-1.118c2.75-1.476,3.264-4.292,4.11-6.893c1.781-5.469,1.393-11.165,1.632-16.784
			c0.156-3.648,0.037-7.311-0.028-10.966c-0.013-0.719-0.419-1.423-0.5-2.149c-0.068-0.606,0.122-1.236,0.112-1.854
			c-0.008-0.555-0.212-1.11-0.191-1.66c0.121-3.24,0.404-6.479,0.396-9.719c-0.008-3.44-0.299-6.879-0.428-10.319
			c-0.074-1.976-0.053-3.955-0.109-5.933c-0.068-2.421-0.134-4.843-0.27-7.261c-0.193-3.448-0.535-6.889-0.653-10.338
			c-0.111-3.264,0.049-6.536-0.032-9.802c-0.057-2.285-0.341-4.564-0.484-6.849c-0.146-2.34-0.203-4.686-0.374-7.022
			c-0.174-2.382-0.296-4.783-0.746-7.117c-0.146-0.754-1.177-1.44-1.943-1.947c-1.007-0.665-2.14-1.146-3.244-1.652
			c-0.31-0.143-0.707-0.145-1.061-0.134c-1.938,0.061-2.891-0.789-3.076-2.692c-0.122-1.263-0.5-2.525-0.448-3.774
			c0.088-2.076,0.381-4.148,0.69-6.207c0.137-0.914,0.897-1.266,1.788-1.278c0.376-0.005,0.765,0.079,1.128,0.012
			c4.032-0.744,8.074-0.439,12.13-0.242c5.452,0.265,10.914,0.352,16.372,0.503c2.77,0.077,5.539,0.127,8.309,0.19
			c1.991,0.045,3.825,0.472,5.679,1.361c1.648,0.791,3.612,0.978,5.461,1.287c2.686,0.449,4.915,1.781,7.05,3.349
			c2.147,1.579,4.328,3.114,6.422,4.762c0.864,0.68,1.538,1.603,2.344,2.464c-0.127,0.255-0.302,0.604-0.529,1.06
			c0.331,0.125,0.569,0.282,0.815,0.296c1.356,0.077,1.767,0.98,2.017,2.128c0.515,2.37,1.119,4.721,1.629,7.092
			c0.601,2.792,1.155,5.594,1.697,8.398c0.194,1.006,0.629,2.128,0.364,3.022c-0.415,1.402,0.317,2.606,0.197,3.926
			c-0.123,1.35,0.202,2.763-0.056,4.072c-0.389,1.976-1.099,3.891-1.702,5.821c-0.296,0.947-0.677,1.867-0.988,2.81
			c-0.383,1.152-0.684,2.335-1.109,3.471c-0.436,1.163-0.878,2.345-1.502,3.41c-0.799,1.364-1.331,2.833-1.97,4.261
			c-0.038,0.084-0.014,0.225-0.071,0.269c-1.334,1.009-1.524,2.82-2.945,3.871c-2.158,1.595-3.998,3.616-6.105,5.289
			c-2.61,2.074-5.166,4.294-8.661,5.169c0.427,1.053,0.799,2.087,1.26,3.079c0.603,1.294,1.184,2.612,1.936,3.819
			c1.594,2.56,3.318,5.037,4.937,7.581c0.864,1.357,1.548,2.832,2.44,4.168c1.182,1.772,2.567,3.409,3.722,5.197
			c1.859,2.881,3.578,5.852,5.401,8.756c0.98,1.561,2.029,3.081,3.094,4.587c2.34,3.309,4.724,6.589,7.065,9.896
			c1.872,2.646,3.736,5.34,6.48,7.135c2.452,1.604,5.103,2.903,7.652,4.359c0.276,0.158,0.634,0.45,0.667,0.716
			c0.604,4.89,1.164,9.786,1.728,14.682c0.009,0.078-0.07,0.166-0.125,0.285c-2.748,0-5.525,0.182-8.271-0.035
			c-7.062-0.559-14.111-0.564-21.163,0.076c-0.188,0.018-0.375,0.044-0.563,0.055c-3.439,0.187-3.744-0.148-3.684-3.567
			c0.045-2.574,0.072-5.157-0.085-7.725c-0.13-2.12,0.987-3.589,2.172-5.074c0.146-0.183,0.506-0.217,0.776-0.271
			c1.723-0.354,2.519-2.199,1.471-3.609c-2.961-3.988-6.03-7.898-8.935-11.928c-1.733-2.403-3.211-4.988-4.851-7.46
			c-1.754-2.643-3.624-5.208-5.335-7.877c-2.79-4.351-5.401-8.817-8.261-13.119c-1.896-2.853-4.099-5.501-6.158-8.246
			c-0.246-0.329-0.513-0.662-0.673-1.035c-0.906-2.101-3.917-2.481-5.347-0.63c-0.197,0.255-0.205,0.703-0.198,1.061
			c0.108,5.5,0.305,11,0.337,16.501c0.036,6.3-0.146,12.602-0.071,18.9c0.023,1.949,0.715,3.882,0.853,5.839
			c0.161,2.281,1.332,4.119,2.483,5.888c0.573,0.881,1.937,1.337,3.029,1.769C417.198,444.458,418.688,444.793,420.286,445.266z
			 M424.975,373.276c0.289,0.019,0.543,0.104,0.747,0.037c1.971-0.637,4.01-1.136,5.874-2.006c1.517-0.709,2.911-1.767,4.187-2.87
			c0.812-0.703,1.397-1.723,1.924-2.688c1.181-2.167,2.447-4.316,3.331-6.608c0.888-2.301,1.379-4.759,1.994-7.16
			c0.656-2.562,0.694-5.17-0.234-7.64c-1.005-2.672-2.13-5.327-3.509-7.821c-1.202-2.172-2.243-4.612-4.568-5.904
			s-4.74-2.425-7.136-3.585c-0.717-0.347-1.503-0.552-2.452-0.892c-0.085,0.044-0.514,0.466-0.902,0.431
			c-2.898-0.263-5.787-0.639-8.684-0.931c-2.144-0.216-4.296-0.515-6.441-0.494c-2.151,0.021-2.607,0.66-2.6,2.789
			c0.01,2.584-0.042,5.171,0.076,7.75c0.313,6.85-0.015,13.723,0.762,20.557c0.137,1.209,0.007,2.446,0.113,3.66
			c0.379,4.341,0.823,8.676,1.201,13.017c0.066,0.762,0.271,1.22,1.091,1.367c3.725,0.67,7.46,0.291,11.192,0.151
			c0.897-0.034,2.134-0.657,2.619-0.269C424.999,375.325,424.692,374.036,424.975,373.276z"/>
		<path fill-rule="evenodd" clip-rule="evenodd" fill="#FFFFFF" d="M649.653,407.074c-0.049-0.92-0.11-1.722-0.12-2.523
			c-0.002-0.204,0.115-0.546,0.257-0.596c1.951-0.678,1.224-2.396,1.435-3.726c0.045-0.28-0.305-0.623-0.13-0.91
			c0.077-0.475,0.127-0.955,0.238-1.421c0.206-0.867,0.41-1.737,0.688-2.582c0.222-0.677,0.985-1.07,0.49-2.103
			c-0.317-0.66,0.177-1.711,0.312-2.615c1.523-0.69,1.523-0.69,0.466-2.289c0.46-0.271,0.916-0.54,1.556-0.918
			c-0.485-0.335-0.847-0.585-1.202-0.83c0.396-0.537,0.819-1.092,1.222-1.661c0.124-0.177,0.317-0.429,0.271-0.583
			c-0.527-1.73,0.332-3.144,0.858-4.696c0.473-1.392,0.338-2.977,0.631-4.445c0.307-1.535,0.767-3.044,1.25-4.535
			c0.092-0.282,0.605-0.428,1.05-0.719c-1.482-0.58-0.647-1.516-0.431-2.321c1.037-3.873,2.062-7.75,3.188-11.598
			c1.014-3.463,2.206-6.874,3.227-10.336c0.808-2.742,1.483-5.524,2.199-8.293c0.329-1.272,0.616-2.555,0.913-3.835
			c0.149-0.641,0.344-1.28,0.402-1.931c0.168-1.876-0.368-2.241-2.268-1.894c-0.695,0.127-1.461-0.169-2.197-0.222
			c-1.406-0.1-2.814-0.175-4.224-0.236c-1.062-0.047-1.807-0.514-2.452-1.388c-0.52-0.703-1.16-1.061-1.162-2.246
			c-0.007-3.532-0.418-7.063-0.612-10.599c-0.048-0.864,0.128-1.741,0.21-2.709c0.506,0,0.977-0.077,1.414,0.012
			c2.697,0.553,5.351-0.17,8.02-0.208c3.18-0.045,6.363,0.36,9.549,0.474c2.954,0.104,5.916,0.041,8.872,0.124
			c3.952,0.112,7.901,0.308,11.854,0.438c0.958,0.031,1.394,0.499,1.372,1.401c-0.062,2.721-0.168,5.441-0.225,8.162
			c-0.037,1.777-0.029,3.556-0.019,5.333c0.007,1.087-0.317,1.671-1.581,1.469c-1.526-0.244-3.089-0.268-4.611-0.526
			c-0.57-0.098-1.068-0.597-1.611-0.892c-0.3-0.164-0.623-0.284-0.936-0.424c-0.102,0.316-0.333,0.658-0.279,0.945
			c0.181,0.957-0.432,1.001-1.068,1.023c-0.609,0.021-1.234-0.091-1.828,0.005c-1.082,0.176-1.57,1.42-1.123,2.417
			c0.782,1.746,1.516,3.515,2.206,5.299c1.796,4.643,3.53,9.308,5.343,13.943c0.906,2.319,1.956,4.582,2.893,6.89
			c2.406,5.932,4.739,11.893,7.2,17.801c0.771,1.854,1.938,3.539,2.782,5.367c1.133,2.46,2.103,4.994,3.19,7.476
			c0.991,2.263,2.064,4.489,3.069,6.746c1.066,2.394,2.087,4.809,3.146,7.206c0.603,1.366,1.25,2.714,1.864,4.076
			c0.977,2.166,1.941,4.337,2.913,6.506c0.477,1.064,0.984,2.117,1.428,3.196c0.292,0.711,0.422,1.494,0.76,2.178
			c0.293,0.593,0.703,1.174,1.194,1.61c0.733,0.649,1.064,1.288,0.587,2.007c0.491,0.492,1.12,0.858,1.348,1.395
			c2.166,5.104,5.372,9.424,9.442,13.173c1.498,1.38,2.63,3.15,4.083,4.586c1.123,1.108,2.413,1.972,4.138,2.217
			c1.303,0.187,2.541,0.93,3.758,1.525c0.297,0.146,0.526,0.67,0.572,1.046c0.529,4.384,1,8.774,1.528,13.158
			c0.116,0.967-0.263,1.271-1.162,1.251c-3.146-0.068-6.294-0.186-9.44-0.14c-3.608,0.052-7.213,0.312-10.821,0.377
			c-2.349,0.042-4.705-0.225-7.049-0.138c-4.514,0.167-9.021,0.488-13.53,0.742c-0.277,0.016-0.557,0.002-0.813,0.002
			c-1.015-2.307-0.479-4.634-0.413-6.971c0.063-2.271-0.235-4.563-0.514-6.83c-0.177-1.433,0.364-2.232,1.716-2.322
			c2.261-0.151,3.499-1.856,4.938-3.183c0.379-0.35,0.192-1.406,0.121-2.124c-0.063-0.644-0.237-1.312-0.517-1.896
			c-1.121-2.346-1.132-4.88-1.37-7.381c-0.035-0.373-0.155-0.908-0.416-1.061c-1.152-0.673-1.214-1.682-1.198-2.842
			c0.006-0.428-0.526-0.84-0.723-1.298c-0.49-1.144-0.93-2.309-1.388-3.466c-0.947-2.391-1.923-4.771-2.828-7.177
			c-0.668-1.777-1.192-3.61-1.878-5.38c-0.485-1.252-1.08-2.47-1.727-3.646c-0.448-0.815-1.005-1.556-2.169-1.482
			c-2.599,0.165-5.201,0.32-7.804,0.35c-1.836,0.021-3.673-0.225-5.511-0.245c-0.859-0.01-1.718,0.314-2.582,0.343
			c-2.593,0.086-5.189,0.049-7.781,0.158c-2.089,0.089-4.172,0.326-6.259,0.488c-1.39,0.108-2.228,1.725-2.651,3.003
			c-0.556,1.676-0.525,3.395-0.978,5.041c-0.757,2.759-1.639,5.483-2.348,8.252c-0.923,3.603-2.032,7.196-2.503,10.865
			c-0.53,4.139,0.671,7.983,4.541,10.18c1.553,0.881,3.604,0.917,5.443,1.248c1.389,0.25,2.801,0.372,4.206,0.521
			c0.954,0.101,1.635,0.496,1.729,1.522c0.137,1.482,0.281,2.967,0.333,4.453c0.104,2.998,0.161,5.999,0.21,8.999
			c0.022,1.351-0.363,2.125-2.044,2.055c-3.381-0.14-6.772-0.033-10.159,0.005c-3.909,0.044-7.818,0.156-11.729,0.182
			c-5.315,0.034-10.632-0.009-15.948,0.033c-1.103,0.008-1.533-0.459-1.559-1.485c-0.063-2.583-0.073-5.17-0.233-7.746
			c-0.101-1.632-0.439-3.248-0.659-4.873c-0.175-1.293,0.202-2.016,1.599-2.572c2.961-1.18,6.291-2.027,7.887-5.225
			c0.96-1.924,1.902-3.936,2.36-6.016c0.982-4.47,1.63-9.013,2.45-13.52c0.36-1.981,0.772-3.954,1.23-5.915
			c0.201-0.862,0.628-1.67,0.854-2.527c0.336-1.27,0.631-2.554,0.854-3.848C648.854,407.503,648.714,406.667,649.653,407.074z
			 M692.077,387.548c-0.521-1.939-0.769-3.489-1.35-4.901c-1.54-3.741-3.195-7.437-4.86-11.125
			c-0.921-2.038-1.999-4.006-2.925-6.042c-1.056-2.321-2.015-4.686-3.026-7.027c-0.928-2.146-1.879-4.283-2.799-6.433
			c-0.297-0.694-0.526-1.418-0.787-2.128c-0.152,0.01-0.304,0.021-0.456,0.03c-0.83,2.601-1.737,5.181-2.469,7.809
			c-0.815,2.925-1.487,5.891-2.19,8.847c-0.902,3.792-1.953,7.561-2.604,11.396c-0.562,3.314-0.673,6.707-0.918,10.069
			c-0.021,0.293,0.412,0.855,0.692,0.896c2.259,0.33,4.479-0.172,6.709-0.443c1.311-0.16,2.615-0.382,3.931-0.479
			c1.528-0.114,3.065-0.102,4.597-0.186c1.067-0.058,2.129-0.239,3.195-0.27C688.457,387.513,690.099,387.548,692.077,387.548z"/>
		<path fill-rule="evenodd" clip-rule="evenodd" fill="#FFFFFF" d="M224.799,240.031c-0.422-1.972-0.766-2.438-2.767-2.412
			c-2.438,0.033-29.553-0.4-34.673-0.576c-3.249-0.111-3.274-0.128-4.281,2.984c-1.068,3.302-2.146,6.604-3.108,9.938
			c-1.859,6.45-3.636,12.923-5.456,19.384c-0.23,0.815-0.484,1.626-0.782,2.418c-0.94,2.503-0.057,3.957,2.098,5.69
			c0.864,0.695,1.935,1.188,2.983,1.581c0.837,0.314,1.271,0.799,1.292,1.628c0.102,3.848,0.196,7.697,0.24,11.546
			c0.01,0.885-0.176,1.773-0.287,2.658c-0.149,1.193-0.921,1.576-2.005,1.444c-1.862-0.228-3.715-0.679-5.578-0.71
			c-4.32-0.071-8.644,0.006-12.964,0.113c-2.909,0.072-5.812,0.337-8.721,0.435c-1.512,0.051-2.112-0.645-2.113-2.109
			c-0.004-4.135-0.037-8.271-0.022-12.406c0.004-0.983,0.034-1.998,0.286-2.935c0.104-0.386,0.792-0.774,1.273-0.871
			c1.862-0.375,3.901-0.378,5.204-2.006c0.858-1.072,1.47-2.352,2.121-3.576c0.651-1.225,2.771-8.072,3.09-8.836
			c1.523-3.643,3.316-7.18,4.702-10.872c2.109-5.621,4.045-11.312,5.888-17.026c0.899-2.791,1.371-5.717,2.139-8.555
			c0.347-1.282,0.984-2.483,1.419-3.746c0.928-2.693,1.78-5.413,2.725-8.099c0.394-1.12,1.05-2.151,1.403-3.28
			c0.596-1.908,0.912-3.908,1.581-5.786c2.191-6.158,3.776-12.468,5.208-18.838c0.755-3.358,2.048-6.592,3.001-9.91
			c0.569-1.982,0.95-4.019,1.418-6.03c0.073-0.313,0.109-0.654,0.262-0.926c0.275-0.492,0.965-1.016,0.882-1.395
			c-0.265-1.205-0.475-2.769-1.311-3.427c-1.62-1.275-2.406-3.067-3.583-4.591c-1.19-1.54-2.565-2.679-4.302-3.48
			c-0.286-0.131-0.574-0.601-0.589-0.925c-0.14-3.184-0.266-6.37-0.307-9.557c-0.04-3.085,0.004-3.034,3.05-2.965
			c2.951,0.066,5.908-0.068,8.857,0.031c2.283,0.077,4.556,0.498,6.839,0.55c3.045,0.07,6.095-0.1,9.144-0.111
			c3.994-0.014,7.99-0.042,11.98,0.072c1.857,0.054,3.71,0.399,5.556,0.674c0.957,0.143,1.397,0.696,1.41,1.764
			c0.035,2.915,0.154,5.832,0.334,8.742c0.074,1.192-0.412,1.917-1.312,2.602c-2.08,1.583-3.738,1.404-5.774,3.043
			c-0.217,0.175-4.925,3.774-5.083,4.292c-0.292,2.208,0.655,4.899,0.681,5.1c0.171,1.365,0.272,2.753,0.615,4.078
			c0.536,2.07,1.227,4.101,1.891,6.136c0.243,0.745,0.63,1.442,0.897,2.181c0.666,1.845,1.286,3.707,1.95,5.553
			c0.519,1.443,8.012,26.875,8.932,30.215c1.208,4.386,10.097,36.374,11.511,41.837c0.584,2.257,1.175,4.526,1.968,6.714
			c1.638,4.519,4.586,7.658,8.924,9.79c0.634,0.311,1.24,0.743,1.91,0.906c1.613,0.391,1.926,1.53,2.033,2.952
			c0.193,2.581,0.474,5.156,0.729,7.733c0.126,1.275-0.411,2.047-1.68,2.084c-3.098,0.089-6.199,0.059-9.297,0.14
			c-2.726,0.072-5.449,0.269-8.175,0.345c-5.194,0.146-10.391,0.235-15.585,0.377c-0.745,0.02-1.059-0.249-1.005-0.969
			c0.166-2.225,0.417-4.447,0.472-6.675c0.027-1.096-0.274-2.207-0.483-3.3c-0.181-0.942-0.166-1.537,1.069-1.761
			c1.552-0.283,3.059-0.855,4.557-1.383c1.56-0.55,2.342-1.774,2.305-3.375c-0.073-3.142-0.127-6.295-0.446-9.417
			C229.577,261.388,225.446,243.054,224.799,240.031z M204.095,179.908c-0.184,0.062-0.368,0.123-0.552,0.185
			c-0.325,0.917-0.584,1.864-0.984,2.747c-2.983,6.584-4.57,13.625-6.704,20.486c-1.264,4.062-2.377,8.171-3.592,12.25
			c-0.427,1.434-1.022,2.818-1.417,4.26c-0.376,1.373,0.317,2.305,1.63,2.334c3.352,0.074,6.706,0.09,10.057,0.189
			c2.533,0.075,5.062,0.3,7.595,0.352c3.071,0.063,6.145,0.015,9.393,0.015c-0.445-2.406-3.448-11.849-3.768-12.823
			c-0.77-2.35-1.521-4.708-2.375-7.027c-0.621-1.687-1.432-3.302-2.086-4.978C210.065,194.748,204.786,181.227,204.095,179.908z"/>
		<path fill-rule="evenodd" clip-rule="evenodd" fill="#FFFFFF" d="M159.086,460.8c-0.718,0.553-1.469,1.146-2.238,1.716
			c-0.218,0.161-0.48,0.331-0.738,0.361c-1.9,0.229-3.73,0.632-5.732,0.422c-3.183-0.335-6.425-0.126-9.642-0.101
			c-2.85,0.022-5.726-0.108-8.542,0.234c-2.447,0.298-4.689-0.487-7.03-0.688c-1.331-0.114-2.311-1.842-2.366-3.194
			c-0.145-3.556-0.379-7.109-0.66-10.657c-0.056-0.704-0.478-1.38-0.813-2.295c0.607-0.054,1.26-0.145,1.914-0.161
			c1.315-0.032,2.654,0.128,3.941-0.068c1.815-0.277,2.521-1.423,1.959-3.173c-1.809-5.638-3.583-11.291-5.604-16.854
			c-1.474-4.054-3.341-7.963-4.983-11.958c-0.409-0.995-0.856-1.333-2.062-1.247c-3.839,0.276-7.7,0.22-11.544,0.449
			c-3.651,0.217-7.288,0.657-10.935,0.948c-1.639,0.132-3.291,0.095-4.931,0.219c-1.444,0.11-2.881,0.326-4.319,0.518
			c-1.402,0.187-1.206,1.469-1.564,2.356c-0.313,0.775-0.588,1.567-0.842,2.363c-0.159,0.499-0.247,1.021-0.174,1.598
			c-1.35,1.36-1.311,3.214-1.625,4.957c-0.049,0.273-0.492,0.475-0.466,0.771c-0.108,0.748-0.105,1.533-0.341,2.238
			c-1.522,4.545-3.146,9.058-4.62,13.618c-0.382,1.183-0.424,2.498-0.475,3.758c-0.04,0.989,0.529,1.419,1.597,1.532
			c1.472,0.155,2.936,0.53,4.353,0.973c0.382,0.119,0.796,0.811,0.828,1.265c0.222,3.14,0.311,6.288,0.525,9.428
			c0.066,0.959,0.377,1.904,0.606,2.849c0.399,1.645-0.008,2.079-1.666,2.105c-3.513,0.055-7.024,0.223-10.537,0.315
			c-3.457,0.092-6.92,0.053-10.371,0.25c-2.796,0.16-5.576,0.597-8.365,0.887c-0.862,0.09-1.882,0.645-2.313-0.688
			c-0.57,0.428-1.082,0.812-1.793,1.347c0-1.745,0.032-3.149-0.015-4.551c-0.021-0.613-0.205-1.221-0.315-1.83
			c-0.031-0.173-0.101-0.347-0.091-0.517c0.129-2.155,0.287-4.31,0.387-6.466c0.012-0.262-0.25-0.553-0.425-0.803
			c-0.808-1.149,0.012-2.771,1.301-3.239c1.37-0.497,2.779-1.211,3.833-2.193c3.87-3.605,6.582-8.063,8.727-12.852
			c2.406-5.369,4.287-10.948,6.198-16.503c1.392-4.048,2.373-8.234,3.653-12.322c0.984-3.143,2.199-6.213,3.209-9.348
			c0.536-1.666,0.48-3.643,1.375-5.04c0.98-1.532,0.413-3.216,1.15-4.612c1.121-2.123,1.306-4.522,2.197-6.706
			c0.939-2.302,2.007-4.575,2.671-6.958c1.346-4.833,2.448-9.733,3.672-14.601c0.446-1.771,1.011-3.513,1.42-5.292
			c0.48-2.093,0.852-4.212,1.266-6.32c0.027-0.137-0.037-0.313,0.029-0.417c1.489-2.339,0.809-5.061,1.332-7.569
			c0.26-1.247,0.372-2.526,0.503-3.796c0.03-0.289-0.075-0.632-0.222-0.892c-0.818-1.447-1.668-2.877-2.534-4.357
			c0.145-0.044,0.549-0.168,0.953-0.29c-0.145-0.189-0.289-0.379-0.434-0.568c-1.347,0-2.713-0.144-4.036,0.034
			c-1.955,0.261-2.552,0.025-2.931-1.941c-0.273-1.42-0.364-2.881-0.459-4.328c-0.151-2.301-0.188-4.609-0.375-6.906
			c-0.094-1.155,0.069-1.704,1.442-1.729c4.969-0.091,9.936-0.319,14.904-0.487c1.354-0.046,2.726,0.048,4.059-0.139
			c0.673-0.094,1.442-0.533,1.882-1.057c0.938-1.117,3.104-1.516,4.344-0.608c1.341,0.981,2.899,0.665,4.361,0.617
			c1.627-0.054,3.411,1.181,3.574,2.85c0.241,2.479,0.229,4.995,0.643,7.441c0.411,2.426-1.076,3.483-3.441,4.851
			c-0.276,0.159-0.708,0.192-0.848,0.419c-1.12,1.818-2.463,3.569-3.184,5.542c-0.582,1.593-0.867,3.588-0.455,5.191
			c1.078,4.194,2.611,8.271,3.958,12.396c1.493,4.573,3.005,9.141,4.459,13.727c0.735,2.319,1.408,4.662,2.025,7.017
			c0.888,3.391,2.893,6.334,3.71,9.778c0.791,3.33,1.972,6.571,3.046,9.831c1.025,3.11,2.113,6.2,3.208,9.287
			c1.392,3.922,2.727,7.868,4.268,11.732c0.838,2.103,2.088,4.037,3.085,6.081c0.861,1.763,1.574,3.599,2.445,5.355
			c1.689,3.407,3.211,6.928,5.232,10.13c2.264,3.586,4.303,7.368,7.419,10.377c1.482,1.431,3.276,1.206,5.032,1.303
			c0.796,0.044,1.6-0.079,2.396-0.041c0.272,0.013,0.649,0.231,0.76,0.461c0.093,0.194-0.133,0.54-0.212,0.819
			c-0.108,0.382-0.341,0.78-0.294,1.143c0.338,2.595,0.744,5.181,1.107,7.772C158.705,457.657,158.89,459.251,159.086,460.8z
			 M89.312,397c2.857-0.127,5.596-0.269,8.336-0.366c4.076-0.145,8.152-0.265,12.229-0.378c1.015-0.027,1.495-0.709,1.142-1.664
			c-0.241-0.651-0.458-1.313-0.655-1.979c-0.278-0.941-0.408-1.946-0.812-2.826c-1.21-2.636-2.602-5.188-3.775-7.837
			c-1.826-4.123-3.398-8.328-4.238-12.804c-0.17-0.907-1.446-1.632-2.286-2.354c-0.089-0.077-0.87,0.347-1.002,0.672
			c-1.149,2.818-2.436,5.606-3.267,8.521c-1.141,3.997-1.756,8.146-2.91,12.138c-0.785,2.714-0.895,5.667-2.576,8.104
			C89.38,396.396,89.39,396.653,89.312,397z"/>
		<path fill-rule="evenodd" clip-rule="evenodd" fill="#FFFFFF" d="M353.967,438.396c1.644,0.125,2.934,0.195,4.217,0.326
			c1.713,0.175,3.422,0.396,5.132,0.599c0.466,0.055,0.972,0.263,1.391,0.148c1.69-0.461,1.966,0.608,2.002,1.822
			c0.099,3.316,0.046,6.639,0.22,9.949c0.113,2.158,0.548,4.298,0.779,6.453c0.108,1.008,0.127,2.033,0.091,3.047
			c-0.039,1.124-0.187,2.243-0.305,3.556c-0.476-0.362-0.857-0.651-1.463-1.113c-0.624,0.739-1.257,1.489-1.968,2.332
			c-0.507-0.472-0.947-1.193-1.513-1.311c-0.46-0.097-1.071,0.53-1.821,0.952c-0.404,0.063-1.237,0.456-1.77,0.206
			c-0.601-0.282-0.93-1.142-1.576-2.02c-2.993,0.034-6.342,0.073-9.69,0.108c-2.474,0.025-4.949,0.091-7.422,0.051
			c-2.08-0.033-4.157-0.204-6.237-0.285c-0.305-0.013-0.62,0.207-0.924,0.193c-0.75-0.035-1.56,0.474-2.235-0.433
			c-0.271-0.365-1.104-0.647-1.52-0.503c-1.106,0.386-2.08,0.563-3.321,0.367c-1.666-0.264-3.427,0.12-5.149,0.158
			c-2.85,0.062-5.701,0.069-8.551,0.103c-7.385,0.085-14.77,0.181-22.155,0.248c-0.89,0.009-1.787-0.086-2.671-0.203
			c-1.743-0.231-2.752-1.155-2.807-2.894c-0.135-4.234-0.33-8.479,0.845-12.639c0.711-2.519,1.438-3.154,4.097-3.113
			c0.891,0.014,1.78,0.172,2.671,0.25c2.838,0.25,4.444-1.111,4.596-3.97c0.231-4.365,0.392-8.734,0.637-13.1
			c0.089-1.582,0.448-3.152,0.485-4.733c0.054-2.349-0.075-4.701-0.116-7.052c-0.11-6.389-0.211-12.778-0.324-19.167
			c-0.124-7.057-0.287-14.113-0.375-21.17c-0.067-5.317,0.166-10.648-0.134-15.95c-0.224-3.96,0.134-7.935-0.847-11.913
			c-0.669-2.715-0.186-5.711-0.239-8.581c-0.032-1.741-0.134-3.48-0.155-5.222c-0.027-2.266-1.212-3.967-2.667-5.517
			c-1.676-1.786-4-2.008-6.217-2.208c-1.13-0.102-1.47-0.413-1.781-1.452c-0.823-2.744-0.264-5.466-0.183-8.202
			c0.019-0.632-0.141-1.283-0.308-1.902c-0.352-1.304-0.002-1.739,1.307-1.777c4.41-0.129,8.819-0.31,13.229-0.468
			c0.752-0.026,1.505-0.056,2.259-0.062c5.5-0.04,11.002-0.159,16.502-0.087c5.593,0.072,11.184,0.352,16.776,0.509
			c7.247,0.204,14.494,0.382,21.742,0.551c0.345,0.008,0.744-0.106,1.034-0.294c1.241-0.806,2.491-0.815,3.782,0.096
			c0.199-0.273,0.398-0.548,0.412-0.566c2.308,0.356,4.435,0.686,6.705,1.036c1.215,2.667,1.256,5.676,0.809,8.624
			c-0.521,3.437,0.257,6.801,0.145,10.199c-0.067,2.052-0.125,4.104-0.241,6.153c-0.019,0.337-0.245,0.846-0.508,0.954
			c-1.901,0.789-3.82,1.545-5.774,2.188c-0.398,0.131-0.969-0.26-1.44-0.277c-0.863,0-1.725,0.001-2.587,0
			c-0.605,0-1.224-0.082-1.812,0.015c-0.753,0.124-2.636-1.178-2.684-1.975c-0.165-2.752-0.761-5.355-2.078-7.832
			c-1.848-3.477-6.676-5.102-10.369-4.479c-0.904,0.152-1.84,0.246-2.752,0.199c-3.225-0.167-6.443-0.535-9.667-0.583
			c-3.542-0.053-7.09,0.119-10.631,0.287c-1.123,0.054-2.352,0.172-3.327,0.665c-4.378,2.219-6.195,6.12-6.351,10.791
			c-0.152,4.557,0.044,9.124,0.014,13.686c-0.008,1.183-0.319,2.36-0.429,3.546c-0.043,0.467,0.147,0.951,0.126,1.423
			c-0.068,1.539-0.178,3.077-0.285,4.614c-0.029,0.412-0.152,0.821-0.149,1.231c0.013,1.988,0.013,3.979,0.104,5.964
			c0.037,0.802,0.408,1.591,0.43,2.391c0.111,4.101,0.124,8.204,0.285,12.303c0.016,0.4,0.781,1.068,1.244,1.11
			c4.676,0.419,9.369,0.658,14.042,1.108c2.505,0.241,4.285-0.636,5.488-2.766c0.739-1.309,1.435-2.645,2.087-3.999
			c0.839-1.742,1.088-1.929,2.899-1.512c0.868,0.199,1.683,0.314,2.608,0.262c1.98-0.114,3.979,0.119,5.972,0.156
			c1.911,0.037,2.456,0.592,2.384,2.534c-0.168,4.555-0.372,9.109-0.479,13.665c-0.071,3.014,0.021,6.03,0.001,9.045
			c-0.011,1.808,0.579,2.483-2.442,2.628c-2.262,0.109-4.529,0.141-6.788,0.292c-0.893,0.061-1.231-0.357-1.563-1.07
			c-0.591-1.268-1.151-2.585-1.962-3.711c-2.729-3.789-6.68-4.652-11.084-4.565c-3.779,0.075-7.562-0.104-11.502-0.174
			c0.029-0.133-0.056,0.076-0.056,0.285c0.002,2.618,0.015,5.237,0.03,7.855c0.032,5.778-0.02,11.56,0.125,17.335
			c0.133,5.303,0.432,10.604,0.761,15.898c0.088,1.415,0.37,2.875,1.704,3.824c0.493,0.351,1.031,0.764,1.302,1.278
			c1.242,2.363,3.556,2.399,5.733,2.814c5.468,1.041,10.966,1.595,16.542,1.384c2.667-0.102,5.343,0.021,8.014-0.013
			c4.099-0.053,7.107-1.883,8.869-5.627c0.192-0.409,0.209-0.899,0.315-1.35C353.67,439.615,353.844,438.905,353.967,438.396z"/>
		<path fill-rule="evenodd" clip-rule="evenodd" fill="#FFFFFF" d="M321.761,144.682c0.805-0.141,1.472-0.394,2.115-0.344
			c1.74,0.135,3.466,0.465,5.207,0.589c1.441,0.103,2.895,0.037,4.343,0.02c4.609-0.055,9.218-0.156,13.827-0.17
			c2.209-0.006,4.421,0.112,6.626,0.252c0.424,0.027,0.826,0.418,0.991,0.508c2.041-0.5,3.842-1.291,5.882-0.696
			c0.374,0.109,0.819,0.009,1.227-0.039c1.336-0.159,2.669-0.478,4.003-0.477c2.062,0.001,4.124,0.217,6.187,0.339
			c1.114,0.065,1.866,0.504,1.907,1.751c0.03,0.919,0.103,1.837-0.004,2.75c0.138,0.562,0.398,1.126,0.396,1.688
			c-0.023,4.886-0.096,9.772-0.15,14.658c-0.01,0.922,0.024,1.844-0.012,2.765c-0.05,1.283-0.723,1.786-2.856,1.961
			c-1.279,0.105-2.578,0.098-3.859,0.015c-2.47-0.161-4.941-0.354-7.394-0.673c-0.52-0.068-1.101-0.65-1.414-1.146
			c-1.08-1.709-1.733-3.831-3.152-5.142c-1.583-1.462-3.723-2.512-5.799-3.209c-4.659-1.564-9.531-2.161-14.401-1.372
			c-2.875,0.465-5.712,1.169-8.493,2.334c-2.357,0.988-3.639,2.927-5.445,4.355c-0.746,0.59-0.732,2.159-0.997,3.299
			c-0.021,0.087,0.397,11.446,0.455,12.805c0.184,4.351,0.411,8.702,0.438,13.055c0.015,2.417-0.401,4.834-0.498,7.256
			c-0.055,1.384,0.18,2.777,0.215,4.168c0.064,2.532,0.14,5.065,0.097,7.597c-0.078,4.646-0.253,9.29-0.361,13.935
			c-0.131,5.646-0.208,11.292-0.362,16.938c-0.063,2.301-0.233,4.601-0.43,6.894c-0.05,0.581-0.391,1.137-0.618,1.756
			c0.136,0.265,0.456,0.664,0.547,1.109c0.326,1.601,0.4,3.271,0.887,4.815c1.059,3.353,1.898,6.827,4.095,9.702
			c1.031,1.35,2.053,2.722,3.229,3.941c1.477,1.531,3.6,1.127,5.453,1.525c0.458,0.098,0.927,0.145,1.393,0.2
			c0.639,0.075,0.904,0.259,0.902,1.062c-0.008,3.424,0.163,6.847,0.195,10.271c0.021,2.116-0.071,4.234-0.152,6.35
			c-0.057,1.482-0.384,1.606-1.863,1.359c-1.383-0.23-2.808-0.194-4.209-0.331c-1.286-0.126-2.562-0.449-3.846-0.47
			c-2.162-0.035-4.325,0.135-6.489,0.156c-2.758,0.027-5.52,0.056-8.275-0.043c-1.376-0.05-2.736-0.447-4.114-0.571
			c-1.829-0.165-3.668-0.297-5.503-0.295c-2.298,0.003-4.601,0.1-6.893,0.268c-1.173,0.086-1.86-0.248-1.9-1.461
			c-0.107-3.265-0.181-6.532-0.268-9.798c-0.028-1.062,0.032-2.136-0.106-3.183c-0.172-1.299,0.191-1.886,1.529-2.063
			c1.164-0.154,2.334-0.273,3.492-0.464c3.026-0.497,5.674-3.202,5.796-6.304c0.192-4.906,0.121-9.821,0.244-14.73
			c0.021-0.807,0.47-1.603,0.802-2.664c-0.014-0.011-0.314-0.256-0.657-0.536c0-1.05-0.021-2.154,0.004-3.257
			c0.056-2.337-0.258-4.777,0.324-6.979c0.521-1.968-0.124-3.771,0.107-5.678c0.377-3.114-0.002-6.313,0.038-9.475
			c0.041-3.225,0.201-6.45,0.314-9.674c0.094-2.656,0.183-5.312,0.302-7.966c0.095-2.11,0.354-4.219,0.326-6.326
			c-0.051-3.792-0.326-7.582-0.386-11.375c-0.045-2.817,0.107-5.637,0.161-8.456c0.026-1.408-0.054-2.823,0.069-4.221
			c0.102-1.166,0.36-2.332,0.675-3.463c0.505-1.815-0.422-3.243-1.123-4.746c-0.29-0.621-0.638-1.219-0.879-1.858
			c-1.984-5.247-7.832-11.022-14.81-9.722c-1.702,0.317-3.468,0.494-5.073,1.091c-2.641,0.982-4.465,2.774-4.896,5.794
			c-0.402,2.815-0.989,2.679-2.902,2.657c-2.534-0.028-5.071,0.119-7.606,0.195c-2.378,0.072-2.697-0.219-2.651-2.566
			c0.088-4.465,0.25-8.929,0.272-13.394c0.01-2.017-0.179-4.042-0.388-6.051c-0.233-2.232,0.188-2.918,2.387-2.888
			c4.336,0.059,8.67,0.288,13.005,0.377c3.189,0.066,6.38,0.019,9.57,0.03c0.516,0.001,1.032,0.036,1.548,0.064
			c3.054,0.167,6.105,0.398,9.161,0.484c1.767,0.05,3.54-0.157,5.311-0.188c0.486-0.008,0.978,0.197,1.463,0.317
			c0.271,0.067,0.561,0.278,0.8,0.227c3.931-0.828,7.808,0.649,11.731,0.281C321.01,144.142,321.488,144.56,321.761,144.682z"/>
		<path fill-rule="evenodd" clip-rule="evenodd" fill="#FFFFFF" d="M717.98,209.824c0.022,2.957-0.151,5.915-0.254,8.872
			c-0.061,1.745,0.272,3.664-0.355,5.18c-0.572,1.384,0.43,2.806-0.571,4.015c-0.103,0.124,0.302,0.666,0.501,1.079
			c-0.281,0.13-0.562,0.26-0.954,0.443c0.196,0.309,0.377,0.59,0.551,0.862c-0.229,0.198-0.463,0.398-0.695,0.599
			c0.152,0.044,0.304,0.088,0.455,0.133c0.122,2.129,0.03,4.22-1.486,6.063c0.974,0.804,1.105,1.974,0.335,3.049
			c-0.071,0.101-0.251,0.198-0.239,0.275c0.489,3.178-1.075,6.058-1.33,9.128c-0.028,0.352-0.331,0.671-0.438,1.026
			c-0.139,0.462-0.221,0.943-0.304,1.421c-0.17,0.985,0.031,2.217-1.763,2.076c0.291,0.484,0.445,0.74,0.499,0.83
			c-0.356,0.827-0.673,1.562-0.989,2.296c-0.124-0.015-0.248-0.031-0.372-0.046c0.168,0.473,0.336,0.945,0.504,1.418
			c-0.11-0.038-0.221-0.075-0.332-0.113c-0.549,1.412-1.099,2.824-1.735,4.459c0.5,0.439,0.314,0.923-0.367,1.657
			c-0.332,0.357-0.71,1.364-0.697,1.787c0.061,1.884-1.415,2.886-2.118,4.295c-1.556,3.12-3.437,6.055-6.062,8.414
			c-2.18,1.959-4.358,3.926-6.647,5.75c-1.42,1.131-2.949,2.217-4.596,2.952c-6.724,3.002-13.674,5.138-21.171,4.708
			c-0.597-0.034-1.236-0.154-1.763-0.419c-1.321-0.665-2.667-0.738-4.123-0.67c-1.717,0.08-3.513,0.103-5.153-0.319
			c-1.357-0.349-2.643-1.248-3.782-2.13c-5.318-4.12-11.229-7.564-15.347-13.078c-1.061-1.42-1.983-2.958-2.839-4.514
			c-1.935-3.522-4.021-6.987-5.61-10.664c-1.746-4.034-3.835-7.902-4.969-12.25c-1.984-7.606-2.863-15.32-3.268-23.113
			c-0.28-5.396-0.475-10.804-0.422-16.204c0.029-3.08,0.646-6.152,0.971-9.23c0.176-1.673,0.13-3.387,0.472-5.022
			c0.649-3.116,1.361-6.234,2.326-9.263c0.621-1.948,1.604-3.783,2.805-5.517c0.786-1.136,0.863-2.737,1.496-4.012
			c0.816-1.645,1.853-3.182,2.845-4.733c0.097-0.151,0.547-0.076,0.76-0.098c0.381-0.862,0.799-1.814,1.222-2.764
			c2.486-5.591,7.198-9.17,11.688-12.958c1.688-1.424,3.516-2.565,5.437-3.679c1.969-1.143,4.149-1.592,6.028-2.633
			c3.182-1.764,6.674-2,10.043-2.691c1.929-0.396,4.073-0.724,6.146-0.038c0.64,0.212,1.457-0.181,2.15-0.058
			c2.815,0.498,5.622,0.956,8.076,2.697c1.016,0.72,2.484,0.764,3.665,1.297c1.572,0.71,3.206,1.416,4.547,2.464
			c1.094,0.855,1.977,1.874,3.502,1.797c2.079,2.293,4.761,3.968,6.448,6.697c1.045,1.691,2.672,3.01,3.89,4.609
			c1.012,1.327,1.864,2.787,2.686,4.245c1.481,2.632,3.011,5.25,4.282,7.984C713.875,182.25,717.982,200,717.98,209.824z
			 M702.426,230.973c-0.118-0.857-0.299-1.466-0.267-2.062c0.124-2.31,0.366-4.614,0.468-6.924c0.103-2.33,0.139-4.666,0.116-6.998
			c-0.021-2.273-0.208-4.544-0.226-6.816c-0.028-3.521-0.113-7.052,0.092-10.562c0.146-2.505-3.435-13.124-3.772-14.652
			c-0.105-0.474-0.35-0.916-0.503-1.381c-0.557-1.675-0.939-3.431-1.687-5.014c-1.187-2.513-2.597-4.922-3.945-7.357
			c-1.176-2.124-2.919-3.763-4.924-5.034c-1.992-1.263-4.179-2.214-6.239-3.375c-0.782-0.441-1.449-1.087-2.01-1.518
			c-1.027-0.165-2.009-0.209-2.918-0.489c-2.688-0.826-5.275-1.684-8.203-0.741c-3.086,0.994-6.372,1.322-9.391,2.619
			c-0.47,0.202-6.027,2.876-7.172,3.997c-2.668,2.61-4.986,5.461-6.813,8.681c-1.386,2.441-2.641,4.979-3.701,7.576
			c-0.828,2.029-3.522,9.928-3.802,10.674c-0.74,1.972-1.117,4.131-1.313,6.246c-0.334,3.599-0.278,7.235-0.64,10.831
			c-0.564,5.614,0.099,11.168,0.613,16.721c0.3,3.229,1.138,6.404,1.651,9.616c0.536,3.345,0.915,6.715,1.477,10.055
			c0.376,2.236,0.939,4.44,1.44,6.654c0.167,0.741,0.379,1.473,0.604,2.199c0.149,0.485,0.355,0.952,0.537,1.428
			c1.007,2.299,2,4.598,3.138,6.824c1.795,3.514,2.799,7.45,5.316,10.564c1.339,1.656,2.199,3.807,4.357,4.731
			c0.08,0.034,0.157,0.25,0.127,0.347c-0.306,1.002,0.539,0.9,1.05,1.101c0.696,0.272,1.541,0.354,2.081,0.806
			c3.076,2.573,6.719,3.171,10.544,3.24c0.42,0.007,0.842,0.107,1.258,0.081c3.641-0.229,7.026-1.311,10.321-2.865
			c2.671-1.259,5.038-2.908,7.255-4.81c0.538-0.462,0.887-1.182,1.469-1.552c2.898-1.842,4.47-4.77,5.768-7.686
			c1.628-3.656,2.634-7.587,3.953-11.384c0.888-2.556,1.217-5.21,1.645-7.861c0.327-2.023-0.247-4.245,1.188-6.06
			c0.067-0.084-0.134-0.344-0.111-0.509c0.088-0.643,0.215-1.28,0.357-2.093c-0.022-1.531-0.003-3.244,0.78-4.932
			C701.236,232.393,701.611,231.59,702.426,230.973z"/>
		<path fill-rule="evenodd" clip-rule="evenodd" fill="#FFFFFF" d="M78.21,142.207c0,3.655,0.03,7.223-0.038,10.788
			c-0.009,0.447-0.447,1.008-0.844,1.301c-1.348,0.997-3.555,3.879-6.828,3.579c-0.909,0.122-0.5,4.75-0.954,7.408
			c0.177,0.662,0.145,2.224,0.076,4.472c-0.067,2.206-0.28,4.409-0.294,6.615c-0.039,5.879-0.006,11.759,0.002,17.638
			c0.003,2.515,0.294,5.067-0.036,7.537c-0.513,3.842,0.227,7.597,0.259,11.39c0.063,7.438-0.053,14.878-0.136,22.317
			c-0.048,4.358-0.228,8.715-0.251,13.073c-0.023,4.217,0.086,8.435,0.123,12.652c0.019,2.083-0.07,4.171,0.041,6.248
			c0.049,0.909,0.353,1.858,0.755,2.685c1.34,2.757,1.528,6.173,4.18,8.168c1.89,1.421,4.038,2.506,6.1,3.69
			c1.632,0.938,3.383,0.988,5.26,0.91c2.142-0.09,4.306,0.536,6.46,0.528c3.147-0.011,6.31-0.169,9.436-0.527
			c3.043-0.348,6.058-0.98,9.068-1.574c3.023-0.596,5.296-2.367,7.04-4.846c0.758-1.078,1.519-2.166,2.148-3.319
			c1.183-2.167,0.619-4.521,0.453-6.78c-0.253-3.445-2.26-5.52-5.586-6.38c-1.117-0.289-1.784-1.095-1.873-2.227
			c-0.158-2.015-0.222-4.037-0.316-6.056c-0.02-0.423,0.016-0.849,0.001-1.272c-0.027-0.77-0.344-2.069-0.062-2.213
			c0.918-0.47,2.054-0.703,3.104-0.696c3.769,0.024,7.536,0.241,11.304,0.276c3.146,0.029,6.295-0.077,9.442-0.159
			c1.099-0.028,1.732,0.471,1.798,1.524c0.226,3.61,0.457,7.222,0.537,10.836c0.017,0.733-0.415,1.786-0.988,2.164
			c-1.517,1-2.063,2.596-2.56,4.054c-1.26,3.699-1.931,7.54-1.804,11.493c0.136,4.256,0.138,8.518,0.317,12.772
			c0.048,1.144,0.475,2.286,0.822,3.399c0.453,1.446,0.127,2.1-1.377,2.211c-1.693,0.125-3.374,0.74-5.113-0.037
			c-0.474-0.211-1.239,0.343-1.876,0.365c-2.333,0.081-4.669,0.052-7.002,0.128c-1.546,0.05-3.087,0.265-4.632,0.307
			c-3.066,0.084-6.134,0.089-9.2,0.151c-0.614,0.012-12.359,0.13-15.384-0.073c-2.305-0.155-4.625-0.1-6.938-0.139
			c-1.263-0.021-2.526-0.076-3.789-0.057c-1.344,0.02-2.694,0.217-4.03,0.14c-1.799-0.104-3.583-0.464-5.382-0.589
			c-1.893-0.132-3.798-0.186-5.695-0.149c-5.199,0.1-10.396,0.305-15.596,0.379c-1.398,0.02-2.813-0.222-4.195-0.476
			c-0.372-0.068-0.908-0.604-0.938-0.96c-0.262-3.139-0.441-6.286-0.614-9.432c-0.07-1.281,0.47-2.037,1.697-2.719
			c2.314-1.287,4.802-2.263,6.766-4.249c1.63-1.649,2.301-3.645,2.99-5.652c0.511-1.488,0.606-3.13,0.794-4.715
			c0.313-2.644,0.572-5.294,0.81-7.946c0.063-0.707-0.042-1.428-0.057-2.143c-0.07-3.443-0.244-6.889-0.179-10.33
			c0.141-7.53,0.424-15.056,0.604-22.584c0.051-2.127-0.107-4.258-0.072-6.386c0.026-1.583,0.146-3.171,0.338-4.744
			c0.36-2.947-0.171-5.886,0.042-8.843c0.22-3.048,0.047-6.123,0.071-9.186c0.037-4.75,0.172-9.5,0.112-14.247
			c-0.035-2.704-0.459-5.401-0.555-8.107c-0.099-2.805-0.016-5.617-0.007-8.426c0-0.09,0.081-0.185,0.07-0.271
			c-0.076-0.627-0.404-1.357-0.187-1.849c0.221-0.5,0.975-0.766,1.489-1.13c-1.042-2.364-2.631-3.703-5.082-4.079
			c-1.5-0.229-2.948-0.785-4.441-1.087c-1.725-0.349-3.896-2.285-4.03-4.231c-0.193-2.801-0.104-5.63,0.016-8.441
			c0.051-1.196,1.4-2.166,2.671-2.212c2.779-0.101,5.56-0.297,8.336-0.248c3.273,0.058,6.537-0.206,9.831,0.213
			c2.39,0.304,12.099-1.063,12.799,0.23C77.517,142.233,78.014,142.177,78.21,142.207z"/>
		<path fill-rule="evenodd" clip-rule="evenodd" fill="#FFFFFF" d="M457.704,164.375c-1.691,0-3.13,0.05-4.563-0.01
			c-2.868-0.122-5.733-0.316-8.602-0.455c-1.324-0.064-2.659-0.005-3.975-0.142c-0.404-0.042-0.762-0.547-1.309-0.971
			c0.19-0.013,0.031-0.031,0.02,0.003c-0.769,2.227-2.865,1.618-4.452,2.089c-0.655,0.194-1.311,0.389-1.973,0.552
			c-0.339,0.084-0.693,0.108-1.042,0.145c-0.223,0.023-0.549-0.074-0.657,0.043c-1.207,1.291-2.385,2.609-3.559,3.931
			c-0.247,0.279-0.488,0.58-0.655,0.91c-0.223,0.441,0.279,11.712,0.727,13.308c0.536,1.913,0.257,4.061,0.282,6.108
			c0.041,3.322,0.019,6.644,0.067,9.965c0.072,4.965,0.299,9.93,0.243,14.893c-0.051,4.542-0.445,9.08-0.59,13.623
			c-0.2,6.294-0.329,12.591-0.452,18.887c-0.132,6.717-0.13,13.43,1.002,20.087c0.434,2.551,2.155,4.266,4.012,5.735
			c1.121,0.888,2.681,1.227,4.051,1.794c0.598,0.247,1.213,0.452,1.822,0.666c0.254,0.089,0.521,0.237,0.771,0.217
			c2.368-0.185,4.736-0.375,7.1-0.617c1.108-0.113,1.584,0.413,1.621,1.422c0.123,3.379,0.158,6.762,0.359,10.136
			c0.084,1.402,0.538,2.806-0.347,4.084c-0.239,0.345-0.697,0.728-1.08,0.757c-5.512,0.409-11.026,0.769-16.542,1.12
			c-2.157,0.138-4.317,0.291-6.477,0.303c-0.688,0.004-1.378-0.425-2.346-0.749c-0.349,0.216-1.034,0.663-1.745,1.063
			c-0.178,0.1-0.471,0.132-0.657,0.059c-4.335-1.712-8.779-1.101-13.228-0.69c-1.989,0.183-3.996,0.174-5.994,0.256
			c-1.583,0.065-3.174,0.056-4.745,0.227c-1.468,0.16-2.387-0.441-3.458-1.423c-2.221-2.038-2.054-4.637-2.231-7.201
			c-0.129-1.87-0.198-3.744-0.3-5.616c-0.077-1.426,0.563-2.365,1.949-2.513c3.177-0.34,6.375-0.494,9.543-0.894
			c3.488-0.441,6.803-1.692,8.932-4.52c1.157-1.536,1.542-3.799,1.84-5.799c0.349-2.333,0.188-4.739,0.313-7.11
			c0.106-1.985,0.423-3.965,0.444-5.95c0.05-4.79-0.03-9.581-0.035-14.372c-0.003-2.791,0.055-5.581,0.055-8.372
			c0-1.811-0.051-3.622-0.086-5.433c-0.058-3.018-0.092-6.036-0.191-9.052c-0.101-3.06-0.408-6.12-0.371-9.177
			c0.054-4.296,0.383-8.588,0.516-12.884c0.074-2.397-0.103-4.802,0.004-7.197c0.089-2.009-0.186-4.085,1.427-5.853
			c0.485-0.532,0.399-2.111-0.034-2.854c-1.166-1.999-1.971-4.051-2.136-6.348c-0.18-2.499-2.071-3.41-3.899-4.557
			c-3.02-1.893-6.318-1.239-9.537-1.454c-1.706-0.114-3.401-0.37-5.103-0.554c-0.687-0.075-1.375-0.136-2.063-0.189
			c-1.421-0.11-2.288-0.789-2.394-2.184c-0.205-2.705-0.317-5.419-0.4-8.131c-0.047-1.552,0.071-3.108,0.059-4.663
			c-0.019-2.36,0.639-3.077,2.971-3.042c4.192,0.063,8.383,0.203,12.575,0.217c3.795,0.013,7.592-0.167,11.387-0.137
			c4.16,0.032,8.318,0.229,12.479,0.31c3.234,0.062,6.472,0.007,9.705,0.091c3.983,0.104,7.967,0.262,11.947,0.467
			c2.474,0.127,4.939,0.4,7.411,0.577c1.065,0.077,1.902-0.067,1.662,1.677c-0.239,1.744,0.471,3.595,0.448,5.396
			C458.179,157.617,457.9,160.849,457.704,164.375z"/>
		<path fill-rule="evenodd" clip-rule="evenodd" fill="#FFFFFF" d="M618.559,463.067c-3.715,0.151-7.237,0.311-10.761,0.403
			c-0.226,0.006-0.698-0.541-0.658-0.758c0.17-0.924,0.521-1.813,0.737-2.731c0.078-0.334-0.039-0.714-0.067-1.072
			c-0.132-0.023-0.264-0.047-0.396-0.069c-0.215,0.356-0.429,0.714-0.655,1.09c-0.484-0.583-0.936-1.182-1.443-1.728
			c-0.93-0.999-1.573-0.912-2.49,0.07c-1.517,1.627-3.479,2.626-5.485,3.479c-3.314,1.408-6.813,1.971-10.396,2.315
			c-4.013,0.387-7.852-0.578-11.768-0.991c-3.678-0.388-6.875-1.821-9.719-4.084c-2.059-1.639-4.177-3.251-5.973-5.153
			c-1.609-1.705-2.804-3.8-4.203-5.707c-1.349-1.838-2.835-3.584-4.062-5.499c-1.454-2.271-2.83-4.617-3.967-7.059
			c-0.532-1.141-0.422-2.58-0.577-3.7c-0.563-0.954-1.278-1.764-1.554-2.703c-1.115-3.81-2.169-7.641-3.102-11.499
			c-0.731-3.026-1.33-6.091-1.829-9.165c-0.213-1.31,0.027-2.687-0.031-4.029c-0.062-1.425-0.302-2.843-0.334-4.267
			c-0.023-1.049,0.213-2.101,0.236-3.153c0.013-0.562,0.018-1.414-0.313-1.644c-1.636-1.132-0.604-1.792,0.471-2.564
			c-0.433-0.341-0.782-0.616-1.236-0.974c1.63-0.787,0.353-1.856,0.174-2.727c-0.297-1.449-0.446-4.014-0.032-5.76
			c0.08-0.339-0.4-0.777-0.403-1.173c-0.028-3.05-0.022-6.102,0.036-9.151c0.006-0.336,0.408-0.665,0.295-1.064
			c0.068-0.609,0.161-1.218,0.199-1.829c0.137-2.206,0.192-4.42,0.401-6.619c0.188-1.987,0.562-3.956,0.808-5.938
			c0.148-1.199,0.059-2.446,0.339-3.608c0.592-2.452,1.366-4.86,2.04-7.293c0.109-0.396,0.137-0.833,0.114-1.247
			c-0.096-1.691,1.788-1.963,2.28-3.233c0.664-1.714,1.32-3.434,2.051-5.12c0.65-1.501,1.289-3.024,2.133-4.418
			c0.801-1.322,1.837-2.508,2.818-3.715c0.424-0.521,1.064-0.876,1.447-1.419c2.425-3.438,4.689-7.058,8.027-9.675
			c2.493-1.954,5.23-3.677,8.064-5.092c2.318-1.157,4.906-1.834,7.435-2.497c3.595-0.942,7.134-1.213,10.938-0.345
			c3.682,0.841,7.117,1.951,10.327,3.869c0.563,0.337,1.1,0.721,1.675,1.035c1.17,0.642,2.045,0.325,2.122-0.965
			c0.097-1.614,0.069-3.285-0.258-4.858c-0.239-1.15,0.02-1.671,1.053-1.776c2.236-0.228,4.499-0.614,6.72-0.469
			c3.198,0.21,6.394,0.721,9.533,1.378c0.655,0.137,1.432,1.442,1.497,2.262c0.109,1.362-0.314,2.767-0.511,4.152
			c-0.051,0.364-0.116,0.729-0.134,1.095c-0.117,2.47-0.256,4.939-0.314,7.411c-0.019,0.787,0.295,1.583,0.27,2.369
			c-0.107,3.322,0.145,6.622,0.392,9.93c0.103,1.379-0.038,2.792-0.225,4.167c-0.049,0.363-0.661,0.901-1.047,0.93
			c-4.502,0.335-9.012,0.581-13.518,0.868c-0.866,0.055-1.37-0.207-1.341-1.162c0.018-0.564-0.066-1.135-0.016-1.695
			c0.149-1.646-0.659-2.77-1.758-3.899c-0.895-0.92-1.513-2.119-2.199-3.228c-0.692-1.116-1.202-2.365-2.012-3.381
			c-0.574-0.719-1.519-1.141-2.289-1.705c-1.202-0.881-2.42-1.74-3.591-2.66c-4.168-3.273-8.63-4.049-13.66-2.071
			c-5.428,2.134-9.405,5.883-12.671,10.546c-0.511,0.729-0.844,1.615-1.454,2.237c-1.927,1.966-2.182,4.696-3.258,7.034
			c-1.683,3.655-3.057,7.49-4.158,11.364c-1.086,3.821-1.766,7.77-2.444,11.692c-0.445,2.574-0.706,5.198-0.814,7.81
			c-0.239,5.798-0.469,11.603-0.436,17.403c0.022,4.094,0.762,8.192,0.664,12.277c-0.079,3.363,0.232,6.634,0.802,9.904
			c0.418,2.394,0.982,4.762,1.506,7.136c0.809,3.666,1.519,7.36,2.488,10.985c1.47,5.499,3.126,10.982,6.951,15.391
			c1.741,2.006,3.826,3.729,5.85,5.471c1.875,1.613,4.189,2.449,6.432,3.449c2.137,0.952,4.38,0.66,6.547,1.089
			c0.646,0.128,1.422-0.641,2.178-0.773c3.769-0.664,7.24-2.009,10.309-4.318c4.778-3.595,6.316-8.534,6.019-14.297
			c-0.091-1.766,0.082-3.56,0.307-5.318c0.059-0.462,0.734-1.168,1.177-1.208c3.559-0.319,7.13-0.513,10.698-0.721
			c0.251-0.015,0.701,0.116,0.739,0.263c0.421,1.611,1.58,2.877,1.517,4.782c-0.108,3.271,0.39,6.557,0.506,9.841
			c0.147,4.128,0.181,8.261,0.236,12.392C618.584,458.275,618.559,460.574,618.559,463.067z"/>
		<path fill-rule="evenodd" clip-rule="evenodd" fill="#FFFFFF" d="M500.777,403.464c0.756-0.244,1.176-0.38,1.595-0.516
			c0.067-0.112,0.135-0.226,0.202-0.339c-0.365-0.184-0.73-0.366-1.175-0.589c0.955-0.88,0.885-1.672,0.272-2.51
			c-0.142-0.193-0.19-0.514-0.163-0.763c0.178-1.603,0.427-3.198,0.577-4.803c0.144-1.525,0.234-3.058,0.275-4.589
			c0.028-1.07-0.062-2.144-0.107-3.215c-0.029-0.698-0.041-1.4-0.122-2.095c-0.038-0.328-0.22-0.64-0.366-1.041
			c1.041-0.673,0.251-1.795,0.188-2.745c-0.11-1.7-0.54-3.379-0.665-5.078c-0.218-2.938-0.274-5.887-0.469-8.827
			c-0.045-0.675-0.621-1.366-0.531-1.989c0.372-2.594-0.349-5.119-0.315-7.677c0.023-1.776,0.367-3.549,0.411-5.326
			c0.044-1.756-0.152-3.517-0.159-5.275c-0.004-1.021,0.156-2.044,0.244-3.065c0.004-0.047,0.045-0.108,0.027-0.136
			c-0.83-1.248,0.098-2.615-0.262-3.914c-0.139-0.499,0.132-1.098,0.086-1.641c-0.274-3.255-0.471-6.524-0.937-9.753
			c-0.234-1.635-2.761-3.116-4.651-3.078c-1.91,0.04-3.819,0.108-5.729,0.17c-1.38,0.044-2.701-1.201-2.712-2.56
			c-0.001-0.139,0.018-0.316-0.057-0.41c-1.323-1.676-1.068-3.681-0.927-5.543c0.131-1.708,0.197-3.37,0.005-5.074
			c-0.119-1.058,0.447-1.836,1.642-1.85c5.489-0.061,10.979-0.175,16.469-0.124c2.554,0.024,5.105,0.542,7.658,0.546
			c3.987,0.006,7.975-0.237,11.962-0.37c0.562-0.019,1.123-0.031,1.684-0.017c0.824,0.022,1.037,0.396,1.044,1.268
			c0.018,2.365,0.212,4.729,0.356,7.093c0.075,1.229,0.309,2.465,0.221,3.68c-0.026,0.372-0.849,0.909-1.363,0.985
			c-2.736,0.4-5.421,0.983-7.635,2.707c-0.871,0.678-1.555,1.729-2.039,2.747c-2.586,5.439-1.321,11.234-1.42,16.901
			c-0.046,2.623-0.019,5.247,0.015,7.87c0.017,1.362,0.175,2.725,0.167,4.087c-0.015,2.391-0.131,4.781-0.161,7.173
			c-0.032,2.489,0.021,4.979-0.026,7.467c-0.031,1.641-0.284,3.282-0.232,4.917c0.041,1.301,0.394,2.591,0.908,3.787
			c-0.172,0.286-0.562,0.715-0.481,0.837c1.076,1.653-0.159,3.386,0.225,5.057c0.185,0.8-0.007,1.738,0.33,2.442
			c1.065,2.223,0.461,4.53,0.587,6.8c0.142,2.551,0.365,5.096,0.535,7.646c0.027,0.413,0.115,0.946-0.092,1.227
			c-0.54,0.73-0.261,1.288-0.062,2.057c0.279,1.079,0.075,2.279,0.107,3.426c0.083,2.959,0.229,5.917,0.262,8.877
			c0.046,4.028-0.142,8.065,0.062,12.085c0.134,2.659,0.762,5.296,1.198,7.937c0.173,1.048,0.27,2.148,0.677,3.107
			c1.301,3.069,3.913,4.589,6.948,5.529c0.225,0.069,0.452,0.153,0.684,0.173c0.676,0.058,1.547-0.15,1.975,0.196
			c0.383,0.311,0.339,1.218,0.38,1.868c0.262,4.217,0.493,8.435,0.742,12.652c0.027,0.469,0.123,0.935,0.146,1.403
			c0.051,1.07-0.302,1.614-1.55,1.589c-2.015-0.04-4.033,0.191-6.052,0.21c-4.494,0.043-8.99,0.044-13.485,0.029
			c-4.756-0.016-9.514-0.181-14.266-0.069c-3.632,0.086-3.13-0.163-3.564-2.944c-0.373-2.385-0.396-4.823-0.568-7.239
			c-0.01-0.14-0.031-0.303,0.027-0.419c0.813-1.626,0.709-3.36,0.601-5.09c-0.058-0.915,0.287-1.308,1.234-1.468
			c1.827-0.311,3.642-0.734,5.433-1.217c1.321-0.356,1.802-1.515,2.248-2.689c0.414-1.095,0.941-2.146,1.602-3.146
			c-0.312-0.938-0.561-1.89,0.584-2.203c0-1.688,0.002-3.203-0.001-4.719c-0.005-2.973-0.037-5.945-0.014-8.918
			c0.021-2.571,0.063-5.143,0.168-7.711c0.103-2.56,0.325-5.114,0.434-7.674c0.053-1.249,0.052-2.514-0.088-3.753
			C501.437,405.046,501.048,404.287,500.777,403.464z"/>
	</g>
</g>
</svg>
