<?xml version="1.0" encoding="utf-8"?>
<!-- Generator: Adobe Illustrator 16.0.0, SVG Export Plug-In . SVG Version: 6.00 Build 0)  -->
<!DOCTYPE svg PUBLIC "-//W3C//DTD SVG 1.1//EN" "http://www.w3.org/Graphics/SVG/1.1/DTD/svg11.dtd">
<svg version="1.1" xmlns="http://www.w3.org/2000/svg" xmlns:xlink="http://www.w3.org/1999/xlink" x="0px" y="0px" width="800px"
	 height="600px" viewBox="0 0 800 600" enable-background="new 0 0 800 600" xml:space="preserve">
<g id="Layer_1">
</g>
<g id="Layer_2">
	<g>
		<polyline fill="none" stroke="#FFFFFF" stroke-width="13" stroke-miterlimit="10" points="45.626,359.346 80.886,272.5 
			92.17,272.5 122.603,355.5 80.886,355.5 92.512,318.5 173.5,318.5 173.5,355.5 247.5,355.5 247.5,328 		"/>
		<line fill="none" stroke="#FFFFFF" stroke-width="13" stroke-miterlimit="10" x1="140.5" y1="356" x2="140.5" y2="313"/>
		<line fill="none" stroke="#FFFFFF" stroke-width="13" stroke-miterlimit="10" x1="213.5" y1="267" x2="213.5" y2="350"/>
		<line fill="none" stroke="#FFFFFF" stroke-width="13" stroke-miterlimit="10" x1="258" y1="294.5" x2="219" y2="294.5"/>
		<path fill="none" stroke="#FFFFFF" stroke-width="13.3355" stroke-miterlimit="10" d="M272.371,309.65
			c12.31,0,12.31-3.591,12.31-21.029c0-12.823,0-17.438-12.31-17.438c-12.31,0-14.02,4.445-14.02,19.234
			C258.352,305.205,260.062,309.65,272.371,309.65z"/>
		<polyline fill="none" stroke="#FFFFFF" stroke-width="13" stroke-miterlimit="10" points="340.751,362.699 367.087,276.5 
			377.346,276.5 406.068,356.5 369.139,356.5 377.858,322.5 437,322.5 		"/>
		<polyline fill="none" stroke="#FFFFFF" stroke-width="13" stroke-miterlimit="10" points="430.5,270 430.5,356.5 475.5,356.5 
			475.5,323.5 514,323.5 		"/>
		<path fill="none" stroke="#FFFFFF" stroke-width="13" stroke-miterlimit="10" d="M509.5,361v-83.5h44.285
			c0,0,21.542-3.584,28.21,14.111s-1.026,45.889-27.697,64.889H535.5V311"/>
		<line fill="none" stroke="#FFFFFF" stroke-width="13" stroke-miterlimit="10" x1="612" y1="322.5" x2="581" y2="322.5"/>
		<polyline fill="none" stroke="#FFFFFF" stroke-width="13" stroke-miterlimit="10" points="600.915,363.386 626.104,277.5 
			635.85,277.5 664.572,356.5 627.644,356.5 635.337,322.5 686,322.5 		"/>
		<path fill="none" stroke="#FFFFFF" stroke-width="13.3355" stroke-miterlimit="10" d="M723.044,273.747
			c23.594,0,37.955,10.258,37.955,42.571c0,32.312-13.336,42.939-33.852,42.939c-20.517,0-41.032-11.438-41.032-41.294
			S700.477,273.747,723.044,273.747z"/>
	</g>
</g>
</svg>
