<?xml version="1.0" encoding="utf-8"?>
<!-- Generator: Adobe Illustrator 16.0.0, SVG Export Plug-In . SVG Version: 6.00 Build 0)  -->
<!DOCTYPE svg PUBLIC "-//W3C//DTD SVG 1.1//EN" "http://www.w3.org/Graphics/SVG/1.1/DTD/svg11.dtd">
<svg version="1.1" id="Layer_1" xmlns="http://www.w3.org/2000/svg" xmlns:xlink="http://www.w3.org/1999/xlink" x="0px" y="0px"
	 width="800px" height="600px" viewBox="0 0 800 600" enable-background="new 0 0 800 600" xml:space="preserve">
<g id="Layer_1_1_">
</g>
<g id="Layer_2">
	<g>
		<path fill="#FFFFFF" d="M91.625,364.488c0,0-28.625-7.234-28.625-29.564c0-22.331,0-86.178,0-86.178s2.205-21.702,26.109-25.791
			c23.903-4.089,44.82-1.573,53.941,0c9.121,1.572,23.354,7.863,26.5,22.016c3.145,14.154,2.241,91.525,2.241,97.5
			c0,5.976-8.316,24.219-30.647,24.219S95.475,365.752,91.625,364.488z M94.52,362.286c7.863,2.517,36.182,1.573,46.252,1.573
			c7.863,0,13.228-7.862,13.228-13.21s0-109.768,0-115.742c0-5.976-3.823-6.919-9.798-8.493c-5.976-1.572-33.381-3.145-45.333-2.201
			C86.917,225.157,82,236.794,82,242.456c0,5.661,0,106.936,0,106.936C82,355.682,86.657,359.771,94.52,362.286z"/>
		<path fill="#FFFFFF" d="M238.193,343.101c-0.027-13.84-0.105-75.482-3.145-90.266s-17.718-9.765-17.718-9.765
			s14.468-9.631,24.115,3.16c5.872,5.871,7.338,20.758,7.338,20.758s11.323-10.903,29.984-14.048
			c18.662-3.145,29.985,6.29,34.597,24.322c4.613,18.032-9.016,31.662-28.516,34.387c-19.5,2.727-24.953-6.499-26.42-10.902
			c-1.468-4.403,3.946-11.921,11.322-9.436c7.13,2.402,3.146,11.322-0.838,10.274c-3.251-0.854-3.564-5.871-3.564-5.871
			s1.153,1.782,3.354,2.411c2.201,0.629,5.661-4.718-1.545-4.412c-7.207,0.306-7.261,6.614-5.375,10.073
			c1.887,3.46,15.097,7.862,28.936,4.089c13.839-3.773,15.097-20.129,11.637-29.879c-3.459-9.75-15.097-21.387-30.823-19.5
			c-15.726,1.887-22.96,13.839-22.96,13.839s0.794,48.279,1.258,56.928c0.464,8.649,0.974,19.653-4.938,30.112
			s-19.279,18.322-26.199,12.976c-6.92-5.346-5.662-5.662-5.662-5.662s-0.757,2.2,8.492,4.404S238.22,356.941,238.193,343.101z"/>
		<path fill="#FFFFFF" d="M366.623,276.424c0,0-1.258-26.629-1.258-28.097c0-1.467,4.613-0.838,7.339-2.097
			c2.726-1.258,5.871-3.354,9.016-3.145c3.145,0.209,3.773,3.355,3.983,7.339c0.21,3.983,0,23.693,0,23.693
			s19.501-1.887,25.163-2.516c5.661-0.629,7.758,0,7.758,2.516c0,2.516-2.516,12.581-2.728,14.049
			c-0.209,1.468-2.726,2.935-6.498,3.564c-3.775,0.629-23.904,3.355-23.904,3.355s-0.838,46.128-0.838,51.162
			c0,5.032,3.563,12.371,8.806,12.58c5.242,0.211,7.339-2.518,8.388-2.096c1.047,0.419,1.889,4.191-2.517,6.288
			c-4.403,2.099-14.048,6.082-20.338,1.68c-6.291-4.403-11.533-7.34-11.533-16.355c0-9.015-0.419-50.952-0.419-50.952
			s-25.791,1.678-27.468,1.678c-1.677,0-3.774,0.208-3.564-3.984c0.21-4.192,2.096-11.113,2.516-12.581
			c0.419-1.468,3.145-3.355,4.823-3.146C345.028,279.568,366.623,276.424,366.623,276.424z M340.204,283.553
			c0,0-1.678,8.387-1.888,10.274c-0.209,1.887,0.343,2.098,1.602,2.098c1.258,0,25.082-1.889,25.082-1.889V279.15
			c0,0-20.462,3.199-22.568,3.564C341.344,282.902,340.204,283.553,340.204,283.553z M369.976,350.859
			c0.209,8.596,8.631,10.693,13.839,12.58c5.208,1.886,15.936-3.146,15.936-3.146s-1.468,1.258-8.388,1.258
			c-6.919,0-15.304-5.45-15.514-13.627c-0.209-8.178,0.209-90.371,0-93.307c-0.209-2.936-1.887-5.871-2.727-5.452
			c-0.839,0.419-4.709,1.678-4.709,1.678L369.976,350.859z M384,292.568c0,0,24.125-3.564,25.384-3.564s3.991-0.419,4.41-1.467
			c0.419-1.048,2.099-9.227,2.519-11.428c0.419-2.202-2.633-2.202-5.567-1.782c-2.936,0.419-26.744,3.564-26.744,3.564L384,292.568
			L384,292.568z"/>
		<path fill="#FFFFFF" d="M450.285,249.375c2.632-1.446,7.967-5.062,10.693-6.306c2.727-1.243,3.773,0,3.773,3.153
			c0,3.152-0.837,88.072,0.21,95.62c1.048,7.549,1.467,12.161,6.08,17.193c4.614,5.032,8.178,6.711,8.178,6.711l-1.258,2.515
			c0,0-10.902-0.42-16.773-4.611c-5.872-4.193-13.001-11.322-13.631-22.646c-0.629-11.324-0.629-75.275-1.048-80.937
			S447.889,250.691,450.285,249.375z M448.789,253.989c0,0,0.238,68.774,0.028,74.226c-0.21,5.452,0.838,12.999,2.098,19.71
			c1.257,6.71,13.628,14.887,10.903,12.581c-2.727-2.308-6.711-9.646-7.131-14.888c-0.419-5.242,0-95.615,0-95.615
			C452.172,250.422,448.789,253.989,448.789,253.989z"/>
		<path fill="#FFFFFF" d="M512.663,277.996c0.078-6.083,5.505-25.319,21.438-29.932c15.937-4.613,32.524-3.644,41.752,3.066
			c9.227,6.71,16.787,15.896,13.643,25.542c-3.146,9.645-11.734,11.931-16.977,7.738c-5.242-4.193-0.627-10.284,3.565-10.704
			c4.193-0.418,8.181,2.301,6.293,6.286c-1.887,3.984-3.354,3.771-3.354,3.771s3.759-5.669-1.259-6.92
			c-5.017-1.251-6.289,2.935-3.773,4.822c2.517,1.887,5.872,3.984,9.017,1.258c3.146-2.726,6.501-7.549,5.033-11.743
			c-1.469-4.193-7.796-15.307-18.067-19.5C559.7,247.487,540,243.084,528,256.294v96.87c0,0,3.289,9.227,13.771,12.791
			c10.483,3.564,31.941,2.936,40.749-6.08c8.807-9.017,9.95-15.516,7.562-20.969c-2.389-5.452-10.077-3.983-11.125-1.467
			c-1.049,2.517-0.594,4.402,1.712,5.241c2.307,0.838,3.794-2.726,3.794-2.726l1.685-0.84c0,0-1.885,8.387-7.753,5.661
			c-5.871-2.727-0.415-10.482,2.938-11.532c3.354-1.048,9.226,0.001,11.741,4.823c2.517,4.822-3.562,18.87-9.224,23.482
			c-5.662,4.613-18.873,11.741-36.695,7.758c-17.823-3.983-26.839-14.469-28.307-16.563c-1.47-2.098-3.356-4.823-4.194-11.113
			C513.814,335.342,512.561,285.859,512.663,277.996z"/>
		<path fill="#FFFFFF" d="M642.767,268.663c5.29-8.166,20.339-17.613,32.709-16.984c12.372,0.629,22.228,6.5,27.26,12.79
			c5.031,6.291,4.821,21.388,5.031,31.033c0.211,9.645,0.839,33.338,1.048,41.306c0.212,7.97,3.565,19.291,15.098,25.582
			c11.533,6.289,16.774,3.774,19.711,2.517c2.936-1.258,3.562-3.146,3.145-3.774c-0.419-0.628-3.562-2.096-3.562-2.096l2.725-1.679
			c0,0,4.193,2.098,4.403,4.822c0.21,2.726-7.968,7.129-15.097,6.291c-7.128-0.84-15.517-4.193-19.92-8.389
			c-4.402-4.193-9.017-15.727-9.017-15.727s-6.082,19.29-18.871,23.274s-28.935,0.839-40.467-10.903
			C635.428,344.986,621.169,302.002,642.767,268.663z M646.122,348.341c0.628,2.099,5.87,10.273,15.935,16.146
			c10.065,5.871,26.666,2.68,29.365-2.396c2.699-5.072,2.506-6.202,3.554-18.572c1.05-12.371-1.887-81.146-1.887-81.146
			c-8.178-9.226-21.387-9.645-31.241-6.081s-16.773,14.678-16.773,14.678C641.09,283.341,645.492,346.243,646.122,348.341z"/>
	</g>
</g>
</svg>
