<?xml version="1.0" encoding="utf-8"?>
<!-- Generator: Adobe Illustrator 16.0.0, SVG Export Plug-In . SVG Version: 6.00 Build 0)  -->
<!DOCTYPE svg PUBLIC "-//W3C//DTD SVG 1.1//EN" "http://www.w3.org/Graphics/SVG/1.1/DTD/svg11.dtd">
<svg version="1.1" id="Layer_1" xmlns="http://www.w3.org/2000/svg" xmlns:xlink="http://www.w3.org/1999/xlink" x="0px" y="0px"
	 width="800px" height="600px" viewBox="0 0 800 600" enable-background="new 0 0 800 600" xml:space="preserve">
<g id="Layer_2">
	<g>
		
			<polyline fill="none" stroke="#FFFFFF" stroke-width="13" stroke-linecap="round" stroke-linejoin="round" stroke-miterlimit="10" points="
			96,372.806 123.985,249.5 128.564,249.5 166.218,374.501 		"/>
		
			<line fill="none" stroke="#FFFFFF" stroke-width="13" stroke-linecap="round" stroke-linejoin="round" stroke-miterlimit="10" x1="109" y1="335.5" x2="148" y2="335.5"/>
		
			<polyline fill="none" stroke="#FFFFFF" stroke-width="13" stroke-linecap="round" stroke-linejoin="round" stroke-miterlimit="10" points="
			198.5,373 198.5,250.5 249.665,250.5 267.5,265.105 267.5,284.44 240.52,307.083 269.12,374.387 		"/>
		
			<line fill="none" stroke="#FFFFFF" stroke-width="13" stroke-linecap="round" stroke-linejoin="round" stroke-miterlimit="10" x1="207" y1="308.5" x2="236" y2="308.5"/>
		
			<polyline fill="none" stroke="#FFFFFF" stroke-width="13" stroke-linecap="round" stroke-linejoin="round" stroke-miterlimit="10" points="
			308.5,373 308.5,246.788 343.526,300.723 375.5,246.788 375.5,373 		"/>
		
			<polyline fill="none" stroke="#FFFFFF" stroke-width="13" stroke-linecap="round" stroke-linejoin="round" stroke-miterlimit="10" points="
			418.594,372.806 446.579,249.5 451.158,249.5 488.812,374.501 		"/>
		
			<line fill="none" stroke="#FFFFFF" stroke-width="13" stroke-linecap="round" stroke-linejoin="round" stroke-miterlimit="10" x1="434" y1="335.5" x2="473" y2="335.5"/>
		
			<polyline fill="none" stroke="#FFFFFF" stroke-width="13" stroke-linecap="round" stroke-linejoin="round" stroke-miterlimit="10" points="
			631.281,372.806 659.267,249.5 663.846,249.5 701.499,374.501 		"/>
		
			<line fill="none" stroke="#FFFFFF" stroke-width="13" stroke-linecap="round" stroke-linejoin="round" stroke-miterlimit="10" x1="645" y1="335.5" x2="683" y2="335.5"/>
		
			<polygon fill="none" stroke="#FFFFFF" stroke-width="13" stroke-linecap="round" stroke-linejoin="round" stroke-miterlimit="10" points="
			522.5,373.5 522.5,249.5 570.223,249.5 594.138,268.242 597.19,352.418 574.802,373.5 		"/>
	</g>
</g>
</svg>
