<?xml version="1.0" encoding="utf-8"?>
<!-- Generator: Adobe Illustrator 16.0.0, SVG Export Plug-In . SVG Version: 6.00 Build 0)  -->
<!DOCTYPE svg PUBLIC "-//W3C//DTD SVG 1.1//EN" "http://www.w3.org/Graphics/SVG/1.1/DTD/svg11.dtd">
<svg version="1.1" id="Layer_1" xmlns="http://www.w3.org/2000/svg" xmlns:xlink="http://www.w3.org/1999/xlink" x="0px" y="0px"
	 width="800px" height="600px" viewBox="0 0 800 600" enable-background="new 0 0 800 600" xml:space="preserve">
<g id="mPVJvN_1_">
	<g>
		<path fill-rule="evenodd" clip-rule="evenodd" fill="#FFFFFF" d="M503.915,374.695c0.064-4.428-0.439-8.827-0.636-13.239
			c-0.273-6.161-0.022-12.357-0.594-18.484c-0.541-5.758-0.11-11.479-0.037-17.198c0.082-6.172-0.137-12.354,0.217-18.525
			c0.464-8.129,0.146-16.266,0.252-24.398c0.061-4.631-0.302-9.269-0.646-13.863c-0.44-5.889-0.524-11.762-0.748-17.647
			c-0.247-6.438,0.224-12.903-0.806-19.334c-0.319-1.981,0.403-4.161,0.811-6.217c0.241-1.211,1.224-1.647,2.437-1.458
			c1.429,0.224,2.797-0.02,4.122-0.539c0.942-0.37,1.899-0.374,2.898-0.346c4.629,0.135,9.26,0.241,13.891,0.287
			c1.25,0.012,2.349,0.319,3.369,0.997c0.599,1.149,0.583,2.375,0.559,3.638c-0.058,3.221-0.17,6.437,0.024,9.667
			c0.219,3.633-0.031,7.296-0.122,10.925c-0.094,3.694-0.679,7.433-0.524,11.127c0.407,9.75-0.386,19.493,0.03,29.239
			c0.103,2.444-0.271,4.905-0.242,7.356c0.172,15.09,0.328,30.182,0.653,45.268c0.078,3.59-0.52,7.138-0.145,10.74
			c0.642,6.145,0.968,12.326,1.357,18.488c0.562,8.895,1.012,17.805,1.122,26.729c0.118,9.783,0.873,19.552-0.257,29.344
			c-0.329,2.873,0.143,5.843-0.692,8.715c-0.881,3.027-1.41,3.456-4.519,3.477c-4.289,0.03-8.575-0.135-12.866,0.159
			c-1.772,0.121-3.646,0.458-5.381-0.399c-2.101-4.031-4.041-8.194-5.748-12.344c-1.893-4.604-4.573-8.867-5.752-13.898
			c-0.694-2.967-1.859-6.146-3.41-9.057c-1.653-3.104-2.514-6.627-3.767-9.948c-1.036-2.747-2.135-5.473-3.209-8.206
			c-1.854-4.706-3.002-9.685-5.301-14.208c-1.671-3.285-2.283-6.961-3.852-10.201c-1.413-2.921-2.854-5.769-3.655-8.92
			c-2.055-8.089-5.417-15.748-8.077-23.633c-2.459-7.287-5.31-14.494-8-21.729c-1.412-3.802-2.232-7.821-4.334-11.354
			c0.064-0.647-0.333-1.1-0.67-1.578c-0.108-0.224-0.212-0.447-0.318-0.67c-1.353-4.093-2.812-8.14-4.677-12.042
			c-2.995-6.265-6.004-12.535-7.575-19.362c-0.161-0.706-0.379-1.495-1.243-1.457c-0.593,0.026-0.554,0.743-0.548,1.212
			c0.069,5.169-0.97,10.269-0.364,15.507c1.323,11.461,0.411,23.034,1.293,34.532c0.346,4.513-0.509,8.985-0.386,13.488
			c0.363,13.001,0.815,26.002,1.055,39.006c0.161,8.776-0.374,17.555,0.208,26.343c0.824,12.464,1.882,24.927,1.508,37.442
			c-0.106,3.571-0.593,7.141,0.017,10.709c0.337,1.961-0.407,2.73-2.408,2.425c-0.963-0.146-1.967-0.036-2.951-0.02
			c-6.386,0.103-12.769,0.213-19.154,0.32c-1.291-2.467-1.401-5.304-1.109-7.802c0.512-4.412-0.286-8.679-0.43-13.005
			c-0.232-7.089-0.218-14.176-0.31-21.266c-0.095-7.73,0.392-15.443,0.231-23.175c-0.218-10.534-1.392-21.028-1.058-31.587
			c0.076-2.358-0.037-4.749,0.097-7.125c0.343-6.039,0.098-12.072-0.313-18.096c-0.268-3.949,0.653-7.813,0.475-11.764
			c-0.343-7.562-0.57-15.132-0.917-22.699c-0.228-4.935,0.295-9.935,0.172-14.911c-0.095-3.862-0.601-7.758-0.264-11.58
			c0.696-7.879,0.32-15.716-0.19-23.564c-0.084-1.292,0.24-2.511,0.201-3.769c-0.021-0.696,0.019-1.432-0.195-2.074
			c-0.716-2.158,0.108-3.784,2.4-3.467c4.631,0.636,9.032-1.041,13.602-0.821c3.242,0.157,6.374,1.028,9.604,1.165
			c1.932,2.403,3.474,4.972,4.691,7.872c2.245,5.357,4.785,10.591,6.489,16.166c0.81,2.649,1.413,5.376,2.425,7.942
			c2.833,7.18,6.092,14.182,8.862,21.391c1.708,4.448,3.193,8.986,4.984,13.388c2.699,6.633,6.212,12.921,8.159,19.887
			c1.095,3.915,2.612,7.718,3.996,11.551c2.718,7.533,5.549,15.025,7.881,22.694c1.351,4.447,4.028,8.35,5.284,12.848
			c1.87,6.694,4.372,13.169,7.046,19.576c1.269,3.043,2.559,6.076,3.896,9.092c0.237,0.533,0.495,1.33,1.267,1.233
			c0.858-0.11,0.664-0.982,0.736-1.551c0.491-3.909-0.288-7.806-0.128-11.716c0.066-0.479,0.132-0.956,0.198-1.432
			c0,0.004,0.1-0.135,0.1-0.135L503.915,374.695z"/>
		<path fill-rule="evenodd" clip-rule="evenodd" fill="#FFFFFF" d="M92.257,252.788c-4.274-3.265-8.809-6.142-13.349-9.015
			c-1.822-1.153-3.524-2.488-4.989-4.104c-2.258-2.486-4.83-4.655-6.987-7.26c-2.836-3.421-4.928-7.281-6.922-11.18
			c-2.252-4.403-4.726-8.8-5.37-13.808c-0.837-6.528-2.559-12.934-2.617-19.568c-0.031-3.469,0.897-6.818,1.154-10.251
			c0.531-7.096,3.333-13.313,7.202-19.207c1.795-2.736,3.075-5.811,5.28-8.307c3.75-4.246,8.52-7.024,13.532-9.44
			c2.933-1.414,5.89-1.825,9.294-1.635c2.869,0.16,5.843,0.103,8.744,0.402c4.256,0.439,8.421,1.375,12.388,3.047
			c0.876,2.317,2.783,3.454,4.968,4.172c1.03,0.338,1.939,0.798,2.747,1.495c1.583,1.369,3.163,2.74,4.742,4.115
			c3.573,3.112,6.856,6.421,8.392,11.1c1.991,6.062,4.028,12.102,4.667,18.503c0.135,1.351-0.746,1.789-1.795,1.785
			c-2.924-0.012-5.852-0.28-8.771-0.196c-2.848,0.082-5.87-1.276-8.521,0.883c-0.347,0.283-0.861,0.169-1.174-0.14
			c-1.884-1.868-4.804-0.956-6.779-2.553c-0.099-0.416-0.198-0.831-0.298-1.245c0.059-0.023,0.166-0.046,0.167-0.075
			c0.005-0.109-0.024-0.221-0.041-0.331c0.084-0.447,0.167-0.895,0.252-1.337c0.505-0.698,0.252-1.397-0.009-2.096
			c-0.216-0.563-0.431-1.127-0.644-1.686c0.166-0.826,0.166-1.645-0.15-2.445c-0.074-0.419-0.148-0.838-0.221-1.255
			c0.269-0.182,0.259-0.365-0.003-0.545c0.128-1.14-0.203-2.212-0.479-3.29c-0.792-2.333-2.844-4.094-3.032-6.733
			c-0.032-0.454-0.612-0.92-1.022-1.286c-3.924-3.488-8.697-4.613-13.767-4.926c-4.674-0.287-8.537,1.409-11.568,4.878
			c-2.312,2.645-4.359,5.51-5.5,8.895c-2.087,6.193-5.275,11.963-6.091,18.654c-0.953,7.83-0.572,15.519,0.576,23.257
			c0.247,1.661,0.63,3.178,1.651,4.46c1.922,2.412,3.022,5.352,5.1,7.668c3.049,3.404,6.016,6.961,9.626,9.712
			c7.507,5.721,16.04,9.662,24.885,12.835c3.528,1.268,7.138,2.423,10.87,3.054c3.259,1.263,6.508,2.551,9.777,3.785
			c4.693,1.771,9.068,4.075,13.16,7.022c4.992,3.596,10.023,7.091,14.219,11.669c5.501,6.001,10.032,12.626,13.647,19.922
			c2.963,5.979,6.209,11.832,8.305,18.187c0.979,2.967,1.923,5.956,2.72,8.997c0.957,3.652,1.315,7.42,2.454,11.021
			c0.855,2.701,0.931,5.532,1.24,8.321c0.479,4.324,1.844,8.52,1.975,12.887c0.178,5.965,0.832,11.899,1.15,17.856
			c0.399,7.439-0.031,14.845,0.103,22.261c0.115,6.354-1.717,12.375-3.487,18.375c-1.445,4.901-3.32,9.683-5.777,14.152
			c-2.185,3.974-4.79,7.72-8.838,10.187c-2.251,1.372-4.243,3.126-6.642,4.319c-4.519,2.243-9.432,3.008-14.265,4.066
			c-4.234,0.929-8.545,1.303-12.874,1.616c-7.858,0.569-15.7,0.233-23.432-0.955c-5.235-0.801-10.234-2.692-14.878-5.575
			c-4.069-2.526-6.896-6.034-9.902-9.583c-6.078-7.182-8.554-15.938-11.438-24.536c-1.585-4.729-2.595-9.634-4.282-14.348
			c-1.308-3.654-1.504-7.566-1.632-11.435c-0.091-2.739,0.644-3.484,3.449-3.577c1.893-0.064,3.794,0.01,5.689,0.067
			c5.13,0.152,10.26,0.305,15.388,0.514c1.187,0.05,2.378,0.267,3.543,0.519c2.736,0.596,3.338,1.418,3.305,4.206
			c-0.13,10.936,1.632,21.55,5.431,31.812c0.187,0.504,0.568,0.935,0.859,1.397c-0.097,1.956,1.079,3.543,1.602,5.317
			c1.359,4.615,3.556,8.713,7.992,11.185c1.223,0.683,2.453,1.368,3.67,2.052c2.313,1.296,4.692,2.722,7.323,3.114
			c7.537,1.13,15.002,0.775,22.163-2.133c2.559-1.037,4.93-2.512,6.488-4.861c3.378-5.099,4.83-10.942,6.245-16.789
			c1.591-6.571,1.441-13.327,1.832-19.991c0.367-6.274-0.442-12.621-0.764-18.938c-0.254-4.981-1.7-9.805-1.846-14.83
			c-0.165-5.646-1.879-11.072-3.286-16.501c-0.855-3.298-2.435-6.4-3.487-9.655c-2.173-6.729-4.324-13.485-7.637-19.737
			c-4.077-7.694-8.571-15.139-14.284-21.805c-3.816-4.455-7.125-9.315-11.758-13.073c-3.91-3.173-7.549-6.682-11.299-10.051
			c-1.84-1.653-4.116-2.647-6.104-4.106C100.444,257.374,96.424,254.942,92.257,252.788z"/>
		<path fill-rule="evenodd" clip-rule="evenodd" fill="#FFFFFF" d="M659.286,372.633c5.609,0.295,11.219,0.601,16.829,0.876
			c0.554,0.028,1.311,0.094,1.639-0.214c0.926-0.878,1.586-0.278,2.418,0.092c3.786,1.688,3.841,1.673,3.126,5.803
			c-1.204,6.943-0.591,13.828,0.53,20.704c-0.066,0.404-0.172,0.807-0.195,1.214c-0.269,4.459,1.255,8.544,2.488,12.729
			c2.086,7.078,5.817,12.326,13.512,13.91c1.377,0.284,2.718,0.762,4.128,0.554c2.692-0.396,5.372-0.833,8.052-1.378
			c8.249-1.683,12.736-8.741,14.084-16.024c0.697-3.777,0.194-7.567,0.112-11.358c-0.141-6.452,0.597-12.912-0.499-19.353
			c-0.487-2.875-0.964-5.803-1.233-8.662c-0.399-4.249-0.823-8.462-1.797-12.608c-0.462-1.979-1.649-3.72-1.971-5.768
			c-0.784-4.986-2.31-9.816-3.492-14.706c-1.26-5.208-3.656-10.104-6.756-14.598c-1.913-2.771-3.134-6.103-5.355-8.554
			c-3.981-4.394-8.054-8.744-12.749-12.459c-3.729-2.952-7.504-5.859-11.161-8.888c-3.605-2.991-7.578-5.191-11.729-7.196
			c-0.075-0.112-0.179-0.176-0.312-0.191c-0.142-0.429-0.249-0.916-0.894-0.594c-5.06-2.814-9.678-6.189-13.729-10.364
			c-1.816-1.872-2.596-4.461-4.596-6.159c0.002,0.002-0.048-0.139-0.048-0.139l-0.16,0.015c-0.352-1.062-0.704-2.124-1.056-3.185
			c-1.825-4.993-2.931-10.145-3.469-15.427c-0.092-4.76-0.227-9.518-0.262-14.277c-0.033-4.543,1.237-8.845,2.542-13.147
			c0.512-1.687,1.62-3.073,2.063-4.763c2.663-3.707,4.923-7.775,9.051-10.18c7.27-4.043,15.287-5.687,23.354-6.934
			c6.817-1.053,13.757-1.201,20.574-0.007c5.848,1.023,11.181,3.601,16.215,6.739c0.297,0.185,0.553,0.454,0.866,0.589
			c7.275,3.115,9.754,9.654,11.745,16.512c1.71,5.88,2.657,11.896,3.067,18.006c0.106,1.586-0.269,2.336-1.967,2.805
			c-3.205,0.884-6.394,0.69-9.624,0.612c-5.526-0.133-11.073,0.178-16.543-0.912c-2.878-0.573-3.435-1.085-3.662-3.907
			c-0.2-2.513-0.114-5.048-0.274-7.567c-0.09-1.431-0.417-2.848-0.637-4.272c-0.347-7.285-5.435-15.847-14.549-17.034
			c-1.652-0.216-3.262-0.689-5.005-0.31c-4.467,0.97-7.031,4.146-9.2,7.742c-3.694,6.123-4.739,13.08-5.411,19.962
			c-0.867,8.867,0.76,17.51,4.288,25.739c2.232,5.205,5.688,9.661,10.02,13.077c4.676,3.687,10.53,5.519,15.923,8.04
			c4.79,2.237,10.086,2.992,15.085,4.642c5.509,3.313,11.502,5.9,15.978,10.765c0.892,0.97,2.126,1.571,3.166,2.4
			c4.066,3.242,6.442,7.713,9.134,11.963c0.442,0.702,0.786,1.503,1.002,2.304c2.767,10.25,5.732,20.465,7.15,31.013
			c1.113,8.29,2.032,16.605,2.391,24.977c0.218,5.114,1.266,10.166,1.249,15.318c-0.018,5.692-0.471,11.27-1.831,16.85
			c-1.063,4.359-2.029,8.717-4.083,12.693c-2.543,4.923-5.388,9.681-10.818,12.061c-0.449,0.197-0.938,0.381-1.148,0.874
			c-1.219,2.874-3.919,3.868-6.519,4.413c-2.518,0.528-4.946,1.341-7.384,2.043c-7.422,2.137-14.943,2.653-22.62,2.668
			c-6.913,0.012-13.123-2.096-19.362-4.653c-3.722-1.526-7.371-3.095-10.531-5.597c-4.588-3.631-7.458-8.597-9.903-13.726
			c-3.513-7.37-5.059-15.213-5.289-23.43c-0.157-5.61-0.559-11.234-0.896-16.85c-0.103-1.69-0.069-3.311,0.928-4.765
			c0.222,0.106,0.267,0.03,0.188-0.18c1.066-0.185,2.475,0.178,2.557-1.588C657.337,371.206,657.668,373.644,659.286,372.633z"/>
		<path fill-rule="evenodd" clip-rule="evenodd" fill="#FFFFFF" d="M536.263,293.389c0.364-5.793,1.047-11.587,0.984-17.375
			c-0.043-3.99,0.616-7.85,1.269-11.674c1.092-6.409,2.838-12.71,4.31-19.057c0.592-0.462,0.786-1.084,0.73-1.809
			c0.111-0.074,0.146-0.176,0.105-0.305c0.263-0.108,0.336-0.279,0.187-0.532c0.432-1.011,0.863-2.023,1.297-3.037
			c0.576-0.537,1.018-1.149,1.067-1.973c0.109-0.064,0.15-0.159,0.124-0.285c0.834-1.065,1.395-2.281,1.932-3.509
			c0.095-0.2,0.188-0.399,0.28-0.6c0.441-0.189,0.651-0.535,0.675-1.006c0.422-0.175,0.607-0.514,0.654-0.947
			c0.838-1.057,1.615-2.152,2.032-3.456c0.071-0.035,0.117-0.089,0.139-0.165c0.615-0.197,0.934-0.722,1.302-1.189
			c2.855-3.545,6.505-6.199,10.294-8.568c2.216-1.382,4.855-2.114,7.354-2.996c3.294-1.161,6.638-2.18,9.957-3.259
			c0.281,0.224,0.487,0.154,0.622-0.172c1.055-0.218,2.114-0.435,3.172-0.653c0.61,0.251,1.214,0.289,1.803-0.065
			c0.695,0.111,1.39,0.223,2.079,0.334c4.002,0.121,8.084-0.261,11.889,1.335c1.809,0.759,3.559,1.577,5.506,1.963
			c3.436,0.677,6.765,1.674,9.849,3.427c2.689,1.53,5.3,3.258,7.492,5.357c4.536,4.347,6.502,10.366,9.266,15.82
			c1.383,2.725,1.968,5.846,2.957,8.773c2.577,7.624,5.113,15.225,5.998,23.316c0.799,7.33,0.337,14.681,0.903,22.008
			c0.336,4.335,0.009,8.714,0.09,13.072c0.139,7.441,0.555,14.878,0.304,22.324c-0.028,0.841-0.176,1.701-0.051,2.52
			c1.102,7.255,0.672,14.567,0.795,21.854c0.096,5.668,0.126,11.345-0.271,17.019c-0.434,6.194-0.599,12.411-1.085,18.602
			c-0.247,3.137-1.062,6.226-1.413,9.358c-0.497,4.406-2.185,8.406-3.949,12.375c-1.898,4.265-4.846,7.884-7.667,11.536
			c-4.428,5.73-9.172,11.13-16.446,13.491c-1.279,0.417-2.817,0.253-3.859,1.368c-0.467-0.043-0.908,0.011-1.273,0.34l0.022-0.009
			c-1.426,0.34-2.952,0.465-4.254,1.071c-1.802,0.842-3.497,0.812-5.319,0.288c-3.523-1.017-7.202-0.586-10.787-1.078
			c-0.485-0.067-1.099,0.017-1.435-0.248c-2.837-2.241-6.397-1.871-9.601-2.783c-1.4-0.398-2.712-1.131-4.033-1.776
			c-3.188-1.558-5.957-3.674-8.717-5.923c-3.026-2.468-5.526-5.307-8.005-8.25c-2.638-3.13-3.915-6.945-5.556-10.562
			c-2.993-6.601-4.65-13.66-6.485-20.633c-1.302-4.948-2.273-9.991-3.216-15.024c-0.771-4.13-1.598-8.25-2.101-12.438
			c-0.241-2.008-0.027-3.994-0.349-6.023c-0.896-5.668-1.544-11.386-1.46-17.168c0.052-3.549-0.372-7.104-0.582-10.653
			c0.179-0.299,0.188-0.597-0.024-0.888c0.105-0.323,0.208-0.646,0.312-0.967c0.164-0.221,0.231-0.447,0.052-0.691
			c-0.161-2.068,0.329-4.133,0.356-6.127c0.076-5.64,0.535-11.312-0.255-16.947C537.394,297.882,535.857,295.631,536.263,293.389z
			 M598.927,425.301c1.871,0.755,3.693,0.46,5.569-0.101c2.23-0.666,3.89-2.257,5.663-3.541c5.585-4.037,8.43-9.959,9.536-16.514
			c1.733-10.263,2.868-20.646,2.938-31.058c0.059-8.366,1.34-16.617,1.582-24.961c0.221-7.568,0.817-15.16,0.319-22.707
			c-0.485-7.34,0.177-14.688-0.773-22.036c-0.813-6.278-1.156-12.608-2.242-18.879c-1.003-5.791-1.396-11.686-2.122-17.527
			c-0.562-4.512-0.553-9.181-2.007-13.477c-2.434-7.192-4.631-14.506-8.627-21.101c-3.515-5.807-8.433-9.375-15.13-10.487
			c-1.021-0.737-2.205-1.062-3.396-0.812c-4.397,0.918-8.89,1.626-12.623,4.428c-1.603,1.206-3.843,2.217-4.509,3.842
			c-0.742,1.815-1.752,3.442-2.596,5.171c-5.749,11.762-9.065,24.136-9.494,37.253c-0.072,2.159-0.447,4.323-0.358,6.471
			c0.315,7.716-0.679,15.413-0.057,23.145c0.371,4.607-0.14,9.278-0.028,13.913c0.167,6.812,0.693,13.618,0.772,20.43
			c0.112,9.626,0.137,19.244,0.897,28.857c0.982,12.408,2.8,24.699,4.757,36.972c0.463,2.892,1.913,5.521,3.079,8.206
			c1.393,3.2,4.301,5.017,6.785,7.091c4.984,4.165,10.512,7.355,17.404,6.874c0.637-0.045,1.229,0.02,1.839,0.307
			C596.991,425.479,597.942,425.751,598.927,425.301z"/>
		<path fill-rule="evenodd" clip-rule="evenodd" fill="#FFFFFF" d="M267.549,290.8c0.554-0.579,0.311-1.255,0.238-1.907
			c0.373-0.454,0.661-0.891-0.249-1.043c-0.049-0.923,0.664-1.819,0.104-2.757c0.464-1.379,0.132-2.757,0.005-4.143
			c-0.32-3.479-1.015-6.986-0.815-10.439c0.445-7.708,0.392-15.385-0.103-23.079c-0.271-4.199-0.326-8.412-0.552-12.615
			c-0.081-1.499-0.825-3.196,1.772-3.222c0.409-0.004,0.948-0.484,0.792-1.07c-0.187-0.705-0.736-0.525-1.178-0.261
			c-1.441,0.857-1.496,0.081-1.361-1.08c0.088-0.754,0.041-1.526,0.053-2.29c0.193-0.282,0.386-0.563,0.575-0.843
			c1.812-0.959,3.768-1.458,5.783-1.755c1.285-0.188,2.483,0.977,3.694,0.458c1.82-0.78,3.623-0.488,5.292,0.046
			c1.451,0.465,2.767,0.55,4.181,0.196c0.838,0.067,1.675,0.134,2.508,0.201c3.238,0.744,3.082,0.748,3.157,3.708
			c0.165,6.455-0.193,12.893-0.446,19.333c-0.188,4.795-1.293,9.525-0.875,14.38c0.167,1.93-0.454,3.921-0.348,5.865
			c0.507,9.325-0.613,18.625-0.162,27.966c0.474,9.805-0.431,19.643,0.111,29.475c0.252,4.55-0.241,9.143,0.051,13.689
			c0.575,8.978,0.428,17.957,0.542,26.937c0.151,11.947-0.086,23.877-2.247,35.691c-1.011,5.534-2.281,10.947-5.078,15.898
			c-1.938,3.43-4.219,6.483-7.123,9.269c-2.979,2.861-6.186,5.094-9.742,7.091c-2.765,1.553-5.976,2.122-8.495,4.134
			c-0.578,0.461-1.307,0.346-2.021,0.36c-3.459,0.075-6.828-1.214-10.313-0.669c-0.458,0-0.916,0-1.369,0.003
			c-2.492-0.458-4.987-0.916-7.482-1.372c-0.43-0.101-0.86-0.203-1.287-0.301c-2.74-1.037-5.339-2.375-7.879-3.835
			c-0.152-0.144-0.304-0.287-0.451-0.43c-0.682-0.8-1.559-1.302-2.548-1.624c-0.203-0.262-0.405-0.525-0.602-0.787
			c-0.792-0.677-1.588-1.356-2.383-2.035c-0.286-0.508-0.687-0.886-1.216-1.123c-0.48-0.854-0.995-1.685-1.81-2.277
			c-0.399-0.46-0.798-0.919-1.195-1.373c-0.227-0.973-0.45-1.952-1.484-2.435c-0.247-1.029-0.98-1.788-1.492-2.667
			c-0.143-0.707-0.449-1.314-1.103-1.695c-3.207-5.479-5.581-11.364-7.844-17.252c-2.475-6.432-3.926-13.2-4.826-20.045
			c-0.896-6.817-1.249-13.69-1.867-20.528c-0.568-6.285-0.507-12.628-1.572-18.889c-0.668-3.935-0.185-7.981-0.194-11.981
			c-0.019-7.362-0.378-14.727-0.398-22.091c-0.016-5.813,0.318-11.628,0.402-17.444c0.073-4.984,0.034-9.971,0.005-14.957
			c-0.044-8.282-0.42-16.556-0.438-24.844c-0.011-5.24-0.041-10.524-0.502-15.777c-0.231-2.648-0.196-5.318,1.946-7.444
			c0.538-0.534,0.965-0.777,1.728-0.891c5.899-0.882,11.768-0.228,17.646,0.18c1.165,0.081,2.104,0.784,3.204,1.015
			c0.195,2.518,0.485,5.032,0.57,7.555c0.284,8.565-0.366,17.122-0.131,25.701c0.21,7.646-0.574,15.325-0.168,22.975
			c0.807,15.247-0.098,30.477-0.216,45.714c-0.045,5.672-0.472,11.352-0.317,17.033c0.36,13.27,0.279,26.557,1.752,39.784
			c0.426,3.83,0.256,7.729,0.705,11.558c0.675,5.75,2.365,11.214,4.984,16.437c1.892,3.769,3.647,7.451,6.684,10.586
			c5.584,5.763,12.095,8.969,20.129,8.925c2.626-0.014,4.924-0.83,6.267-3.344c1.819-0.446,3.059-1.798,4.163-3.099
			c2.494-2.938,5.17-5.771,7.101-9.128c0.988-1.718,1.725-3.638,2.248-5.554c1.878-6.883,2.217-13.97,1.802-21.016
			c-0.253-4.309-0.583-8.641-1.063-12.958c-0.924-8.285-1.885-16.606-1.811-24.975c0.044-4.864-1.184-9.599-1.27-14.447
			c-0.243-13.638-1.917-27.173-3.024-40.747c-0.022-0.275-0.132-0.545-0.2-0.812C268.337,293.981,268.929,292.198,267.549,290.8z"/>
		<path fill-rule="evenodd" clip-rule="evenodd" fill="#FFFFFF" d="M335.082,313.379c3.965,0.847,7.966,0.984,11.995,0.641
			c1.952-0.169,3.931-0.156,5.849-0.498c1-0.177,1.461,0.656,2.515,0.643c3.581-0.049,7.179-0.882,10.819,0.235
			c1.629,0.5,3.428,0.47,4.893,1.552c0.564,3.957-0.811,7.815-0.598,11.757c0.054,1.005-0.657,1.333-1.507,1.379
			c-3.853,0.218-7.705,0.484-11.561,0.592c-4.143,0.117-8.334-0.29-12.426,0.196c-5.964,0.705-11.863-0.197-17.788-0.016
			c-1.167,0.037-2.767-0.151-2.856,1.71c-0.111,2.31-0.475,4.613-0.105,6.946c0.331,2.089,0.219,4.198,0.017,6.312
			c-0.442,4.629-0.431,9.268-0.186,13.909c0.316,5.96,0.743,11.919,0.817,17.884c0.074,5.827-0.422,11.666-0.326,17.494
			c0.099,6.105,0.922,12.179,0.691,18.317c-0.139,3.705-0.388,7.417-0.154,11.148c0.235,3.737,1.191,4.55,4.938,4.313
			c4.406-0.278,8.761-1.608,13.228-0.74c0.375-0.011,0.749-0.021,1.12-0.032c3.621,0.911,7.383,0.313,11.026,1.01
			c0.266,0.071,0.533,0.145,0.797,0.215c0.536,0.306,1.01,0.272,1.386-0.266c0.822-0.031,1.643-0.062,2.461-0.092
			c2.23,1.496,4.574,1.013,6.926,0.389c0.764,0.183,1.517,0.206,2.24-0.163c0.422,0.369,0.794,0.428,1.062-0.168
			c2.482-0.028,4.987,0.449,7.436-0.31c0.605,0.347,1.215,0.528,1.837,0.034c1.075,0.279,2.143,0.641,3.253,0.167
			c0.176,0.241,0.365,0.246,0.567,0.031c0.875,0.723,1.845,0.735,2.859,0.387c2.134-0.092,4.261,0.462,6.402,0.098
			c0.38,0.046,0.761,0.092,1.14,0.14c1.008,0.726,1.364,1.619,1.472,2.948c0.263,3.21-0.188,6.44,0.53,9.653
			c0.507,2.277-0.162,3.01-2.527,2.973c-5.678-0.089-11.352,0.354-17.044-0.444c-4.145-0.58-8.295-1.312-12.544-1.274
			c-2.162,0.019-4.138,0.799-6.198,0.86c-4.27,0.13-8.572,0.449-12.809-0.485c-1.708-0.376-3.443-1.185-5.114-1.065
			c-5.014,0.357-9.948-0.918-14.969-0.42c-2.33,0.231-4.728-0.335-7.095-0.334c-4.68,0.004-9.376-0.684-14.037,0.275
			c-0.209-2.373-0.538-4.738-0.603-7.117c-0.128-4.704,0.25-9.448-0.224-14.111c-1.125-11.069,1.015-22.016,0.861-33.024
			c-0.117-8.206,0.162-16.396,0.353-24.588c0.143-6.177,0.499-12.355,0.907-18.522c0.364-5.503-0.966-10.939-0.571-16.415
			c0.752-10.477-0.056-20.937-0.096-31.403c-0.019-4.769,0.415-9.538,0.396-14.306c-0.042-10.813-0.466-21.643,0.304-32.424
			c0.53-7.405-0.866-14.723-0.284-22.1c0.133-1.686,0.511-2.245,2.314-2.261c6.8-0.062,13.612,0.225,20.379-0.966
			c7.652-1.347,15.324-0.566,23.005,0.056c3.128,0.253,6.317-0.185,9.486-0.617c3.028-0.414,6.17-0.117,9.255,0.042
			c3.772,0.194,7.565,0.088,11.318,0.695c0.724,0.116,1.375,0.173,1.875,0.742c-0.052,2.801-0.239,5.608-0.132,8.403
			c0.23,6.026-0.334,5.945-5.26,6.522c-0.209,0.024-0.42,0.051-0.63,0.051c-6.515,0.022-13.068-0.387-19.512,0.688
			c-4.081,0.681-8.278-0.36-12.264,1.109c-0.337,0.124-0.834-0.022-1.202-0.176c-2.042-0.853-4.309-1.244-6.263-0.527
			c-3.26,1.193-6.454,0.367-9.648,0.305c-1.385-0.027-1.876,0.209-2.2,1.422c-0.186,0.703-0.2,1.375-0.167,2.081
			c0.38,8.091-0.162,16.165-0.557,24.237c-0.412,8.412-1.282,16.811-0.586,25.246c0.139,1.687,0.106,3.347-0.05,5.039
			c-0.268,2.937-0.373,5.897-0.319,8.845c0.031,1.728,0.12,3.496,0.914,5.154c0.55,1.145,1.457,1.836,2.484,1.375
			C329.475,313.533,332.372,314.093,335.082,313.379z"/>
		<path fill-rule="evenodd" clip-rule="evenodd" fill="#FCED73" d="M92.257,252.788c4.167,2.154,8.187,4.586,11.954,7.35
			c1.988,1.459,4.264,2.453,6.104,4.106c3.75,3.37,7.39,6.878,11.299,10.051c4.633,3.758,7.942,8.619,11.758,13.073
			c5.713,6.667,10.207,14.111,14.284,21.805c3.313,6.252,5.463,13.009,7.637,19.737c1.052,3.255,2.631,6.357,3.487,9.655
			c1.407,5.429,3.121,10.855,3.286,16.501c0.146,5.025,1.592,9.849,1.846,14.83c0.321,6.317,1.13,12.664,0.764,18.938
			c-0.391,6.664-0.241,13.42-1.832,19.991c-1.416,5.847-2.867,11.69-6.245,16.789c-1.558,2.35-3.929,3.824-6.488,4.861
			c-7.161,2.908-14.625,3.263-22.163,2.133c-2.631-0.393-5.009-1.818-7.323-3.114c-1.218-0.684-2.447-1.369-3.67-2.052
			c-4.436-2.472-6.633-6.569-7.992-11.185c-0.523-1.774-1.699-3.361-1.602-5.317c1.647-0.133,2.249,1.27,3.104,2.209
			c2.667,2.927,5.691,5.321,9.447,6.688c5.165,1.886,10.368,1.676,15.667,0.503c5.847-1.293,10.065-4.71,13.14-9.631
			c1.664-2.665,1.453-5.93,2.281-8.865c1.823-6.448,1.492-13.028,1.706-19.614c0.216-6.592-0.196-13.146-0.612-19.69
			c-0.228-3.58-1.593-7.082-2.391-10.633c-0.874-3.883-0.773-7.938-2.162-11.744c-2.664-7.301-4.187-14.994-7.353-22.111
			c-1.906-4.283-4.167-8.395-5.623-12.891c-0.454-1.402-1.613-2.603-2.548-3.818c-2.017-2.62-3.693-5.437-4.996-8.468
			c-0.583-1.354-2.03-1.998-2.627-3.259c-3.264-6.888-9.247-11.535-13.964-17.227c-4.433-5.347-10.051-9.285-15.097-13.898
			c-1.233-1.127-2.338-2.429-3.302-3.792C91.773,254.336,90.635,253.217,92.257,252.788z"/>
		<path fill-rule="evenodd" clip-rule="evenodd" fill="#FCED73" d="M416.124,441.562c6.386-0.107,12.769-0.218,19.154-0.32
			c0.984-0.017,1.988-0.126,2.951,0.02c2.001,0.306,2.745-0.464,2.408-2.425c-0.609-3.568-0.123-7.138-0.017-10.709
			c0.374-12.516-0.684-24.979-1.508-37.442c-0.582-8.788-0.047-17.566-0.208-26.343c-0.239-13.004-0.691-26.005-1.055-39.006
			c-0.123-4.503,0.731-8.976,0.386-13.488c-0.882-11.498,0.03-23.071-1.293-34.532c-0.605-5.238,0.434-10.338,0.364-15.507
			c-0.006-0.47-0.045-1.186,0.548-1.212c0.864-0.039,1.082,0.751,1.243,1.457c1.571,6.827,4.58,13.097,7.575,19.362
			c1.864,3.902,3.324,7.949,4.677,12.042c-3.096,1.357-3.439,4.277-3.544,7.009c-0.103,2.63,0.365,5.304,0.763,7.93
			c0.718,4.763,0.459,9.555,0.335,14.314c-0.105,4.044,0.969,7.933,0.916,11.941c-0.148,11.42,1.433,22.797,0.848,34.234
			c-0.204,3.991-0.314,8.029-0.197,11.979c0.109,3.755-0.49,7.608,0.502,11.342c0.087,0.333,0.069,0.7,0.071,1.051
			c0.01,7.627,0.21,15.261-0.071,22.876c-0.109,2.954,0.301,5.849,0.182,8.784c-0.137,3.466-0.12,6.918,0.174,10.422
			c0.344,4.117-0.326,8.397-2.521,12.182c-0.512,0.881-1.045,1.477-2.197,1.688c-5.925,1.069-11.899,0.92-17.852,0.704
			c-3.58-0.131-7.103-0.332-10.666,0.31c-2.218,0.396-3.514-1.021-3.621-3.27c-0.071-1.506,0.422-2.914,0.513-4.386
			C415.029,441.857,415.524,441.646,416.124,441.562z"/>
		<path fill-rule="evenodd" clip-rule="evenodd" fill="#FCED73" d="M608.938,436.61c1.042-1.115,2.58-0.951,3.859-1.368
			c7.274-2.361,12.019-7.761,16.446-13.491c2.821-3.652,5.769-7.271,7.667-11.536c1.765-3.969,3.452-7.969,3.949-12.375
			c0.352-3.133,1.166-6.222,1.413-9.358c0.486-6.19,0.651-12.407,1.085-18.602c0.396-5.674,0.366-11.351,0.271-17.019
			c-0.123-7.286,0.307-14.599-0.795-21.854c-0.125-0.818,0.022-1.679,0.051-2.52c0.251-7.446-0.165-14.883-0.304-22.324
			c-0.081-4.358,0.246-8.737-0.09-13.072c-0.566-7.328-0.104-14.679-0.903-22.008c-0.885-8.091-3.421-15.692-5.998-23.316
			c-0.989-2.928-1.574-6.049-2.957-8.773c-2.764-5.455-4.729-11.473-9.266-15.82c-2.192-2.099-4.803-3.827-7.492-5.357
			c-3.084-1.753-6.413-2.75-9.849-3.427c-1.947-0.386-3.697-1.204-5.506-1.963c-3.805-1.596-7.887-1.214-11.889-1.335
			c-0.401-1.75,0.713-1.999,2.04-2.122c0.942-0.088,1.899-0.173,2.531-1.094c0.599-0.869,1.305-0.128,1.799,0.122
			c0.768,0.388,1.456,0.782,2.336,0.498l-0.01-0.009c-0.318,1.957,0.903,1.034,1.878,1.302c2.24,0.616,4.514,0.769,6.755,1.008
			c7.085,0.758,12.876,4.419,18.757,7.929c0.475,0.284,0.937,0.641,1.297,1.056c3.432,3.955,6.83,7.904,9.926,12.176
			c3.924,5.418,5.606,11.61,7.784,17.677c0.251,0.691,0.492,1.14,1.279,1.07c0.538,5.282,1.644,10.435,3.469,15.428
			c-0.829,1.453-0.398,2.487,1.056,3.184l0.16-0.015c0,0,0.05,0.141,0.048,0.139c-0.656,0.595-0.644,1.405-0.573,2.162
			c0.435,4.502,0.32,9.055,1.576,13.482c0.406,1.439,0.135,3.077,0.136,4.625c0.002,4.505-0.111,9.011,0.007,13.513
			c0.083,3.072,0.727,6.142,0.665,9.202c-0.065,3.092,0.503,6.104,0.607,9.165c0.163,4.687-0.544,9.313-0.746,13.964
			c-0.354,8.038-0.817,16.085-0.553,24.144c0.119,3.631-0.512,7.324-0.219,10.876c0.34,4.135-0.38,8.096-0.672,12.112
			c-0.251,3.462,0.061,6.967-0.741,10.395c-0.761,3.256-2.057,6.338-3.422,9.345c-1.904,4.196-4.231,8.202-6.394,12.282
			c-1.011,1.906-2.281,3.614-3.818,5.149c-3.861,3.854-6.934,8.678-11.724,11.36c-3.067,1.718-5.954,4.015-9.737,4.619
			C612.418,436.106,610.715,436.609,608.938,436.61z"/>
		<path fill-rule="evenodd" clip-rule="evenodd" fill="#FCED73" d="M343.337,427.154c-4.467-0.868-8.821,0.462-13.228,0.74
			c-3.747,0.236-4.703-0.576-4.938-4.313c-0.234-3.731,0.015-7.443,0.154-11.148c0.23-6.139-0.592-12.212-0.691-18.317
			c-0.096-5.828,0.4-11.667,0.326-17.494c-0.075-5.965-0.501-11.924-0.817-17.884c-0.246-4.642-0.256-9.28,0.186-13.909
			c0.203-2.114,0.314-4.224-0.017-6.312c-0.37-2.333-0.006-4.637,0.105-6.946c0.089-1.861,1.689-1.673,2.856-1.71
			c5.925-0.182,11.824,0.721,17.788,0.016c4.092-0.486,8.284-0.079,12.426-0.196c3.856-0.107,7.708-0.374,11.561-0.592
			c0.85-0.046,1.561-0.374,1.507-1.379c-0.212-3.941,1.163-7.8,0.598-11.757c1.291-0.863,2.669-0.751,4.162-0.647
			c1.949,0.134,2.503,1.143,2.203,2.757c-0.234,1.263-0.353,2.527-0.248,3.772c0.388,4.592-0.712,9.076-0.881,13.624
			c-0.05,1.336-0.641,2.268-2.137,2.395c-2.343,0.199-4.614,1.027-7.049,0.468c-0.877-0.201-1.908,0.267-2.868,0.432
			c-0.548,0.094-1.144,0.38-1.635,0.254c-1.327-0.336-2.532,0.112-3.787,0.213c-2.796,0.228-5.724,0.897-8.5-0.445
			c-0.526-0.257-1.303-0.317-1.854-0.135c-2.552,0.843-5.291-0.609-7.806,0.713c-0.565,0.296-1.153-0.009-1.658-0.557
			c-1.091-1.18-1.878-0.677-2.199,0.67c-0.419,1.769-1.056,3.495-1.049,5.354c0.017,4.714-0.154,9.439,0.043,14.146
			c0.386,9.207,0.567,18.42,0.326,27.623c-0.154,5.918,0.345,11.812,0.169,17.731c-0.154,5.142,0.216,10.314,1.107,15.414
			c0.309,1.77-0.555,3.442-0.38,5.228c0.117,1.175,0.482,1.675,1.661,1.551c1.2-0.127,1.603-0.72,1.208-1.871
			c-0.24-0.7-0.385-1.562,0.511-1.76c1.09-0.245,2.243,0.13,3.192,0.642c0.607,0.328,0.744,1.2,0.118,1.841
			C343.291,425.885,343.482,426.556,343.337,427.154z"/>
		<path fill-rule="evenodd" clip-rule="evenodd" fill="#FCED73" d="M260.545,428.35c-1.342,2.514-3.64,3.33-6.267,3.344
			c-8.035,0.044-14.545-3.162-20.129-8.925c-3.037-3.135-4.792-6.817-6.684-10.586c-2.619-5.223-4.309-10.687-4.984-16.437
			c-0.449-3.828-0.279-7.728-0.705-11.558c-1.473-13.228-1.392-26.515-1.752-39.784c-0.155-5.682,0.272-11.361,0.317-17.033
			c0.118-15.237,1.022-30.468,0.216-45.714c-0.405-7.65,0.378-15.33,0.168-22.975c-0.235-8.579,0.415-17.136,0.131-25.701
			c-0.085-2.523-0.375-5.038-0.57-7.555c1.109-0.595,2.182-1.213,3.528-1.22c3.426-0.019,5.108,2.05,4.782,5.506
			c-0.263,2.79-0.297,5.632-0.103,8.429c0.273,3.94-0.534,7.792-0.684,11.695c-0.191,4.995,0.532,9.936,0.323,14.922
			c-0.192,4.563-0.077,9.142-0.015,13.713c0.039,2.934,0.267,5.859,0.726,8.77c0.195,1.235,0.125,2.53,0.039,3.789
			c-0.357,5.188-0.889,10.354-0.05,15.567c0.409,2.538-0.609,5.078-0.544,7.686c0.098,3.893-0.192,7.793-0.192,11.689
			c0,4.076-0.831,8.148-0.638,12.16c0.241,4.966-0.229,9.944,0.499,14.903c0.526,3.597,0.877,7.252,0.874,10.88
			c-0.004,5.341,0.739,10.646,0.518,15.993c-0.108,2.58,0.13,5.151,1.091,7.615c0.217,0.558,0.22,1.27,0.114,1.873
			c-0.873,4.986-0.271,9.935,0.496,14.849c0.841,5.378,2.893,10.328,5.912,14.867c0.814,1.225,1.582,2.481,2.452,3.667
			c2.362,3.22,5.644,5.232,9.495,5.701c2.941,0.359,6.006-0.135,8.997-0.445C258.87,427.937,259.692,428.005,260.545,428.35z"/>
		<path fill-rule="evenodd" clip-rule="evenodd" fill="#FCED73" d="M335.082,313.379c-2.709,0.714-5.607,0.154-8.279,1.354
			c-1.028,0.461-1.934-0.23-2.484-1.375c-0.794-1.658-0.882-3.427-0.914-5.154c-0.054-2.947,0.051-5.908,0.319-8.845
			c0.156-1.692,0.188-3.353,0.05-5.039c-0.696-8.436,0.174-16.834,0.586-25.246c0.396-8.072,0.938-16.146,0.557-24.237
			c-0.033-0.706-0.02-1.378,0.167-2.081c0.323-1.213,0.814-1.449,2.2-1.422c3.195,0.062,6.389,0.889,9.648-0.305
			c1.954-0.716,4.221-0.326,6.263,0.527c0.368,0.154,0.865,0.3,1.202,0.176c3.986-1.47,8.184-0.429,12.264-1.109
			c6.444-1.075,12.997-0.666,19.512-0.688c0.209,0,0.421-0.027,0.63-0.051c4.926-0.577,5.49-0.496,5.26-6.522
			c-0.107-2.795,0.08-5.602,0.132-8.403c0.534-1.509,1.848-1.821,3.192-1.986c0.61-0.075,1.263,0.031,1.875,0.159
			c4.52,0.946,5.011,1.971,3.659,6.523c-0.718,2.422-0.139,5.001-0.62,7.524c-0.653,3.423-1.373,6.864-1.346,10.405
			c0.011,1.5-2.018,2.552-4.141,2.174c-5.139-0.913-10.192-0.08-15.267,0.547c-3.57,0.441-7.112,1.482-10.736-0.025
			c-1.515-0.63-3.179,0.237-4.778,0.38c-4.764,0.424-9.517-0.26-14.28-0.084c-1.423,0.054-2.146,0.176-2.433,1.964
			c-0.549,3.423-0.156,6.852-0.597,10.28c-0.651,5.069-0.408,10.225-0.533,15.338c-0.07,2.886-0.44,5.847-0.446,8.765
			c-0.011,4.893,0.066,9.788,0.18,14.679c0.066,2.85,0.297,5.695,0.286,8.547C336.205,311.363,334.495,311.967,335.082,313.379z"/>
		<path fill-rule="evenodd" clip-rule="evenodd" fill="#FCED73" d="M245.299,438.325c3.485-0.545,6.854,0.744,10.313,0.669
			c0.714-0.015,1.444,0.101,2.021-0.36c2.52-2.012,5.73-2.581,8.495-4.134c3.556-1.997,6.762-4.229,9.742-7.091
			c2.903-2.785,5.185-5.839,7.123-9.269c2.797-4.951,4.067-10.364,5.078-15.898c2.161-11.814,2.398-23.744,2.247-35.691
			c-0.114-8.979,0.033-17.959-0.542-26.937c-0.292-4.547,0.201-9.14-0.051-13.689c-0.542-9.832,0.363-19.67-0.111-29.475
			c-0.451-9.342,0.669-18.642,0.162-27.966c-0.106-1.944,0.515-3.935,0.348-5.865c-0.418-4.854,0.688-9.585,0.875-14.38
			c0.253-6.44,0.61-12.878,0.446-19.333c-0.076-2.96,0.081-2.964-3.157-3.708c1.972-0.286,3.934-0.25,5.874-1.126
			c1.799-0.812,3.958,0.865,4.496,2.844c0.434,1.6,0.439,3.14,0.053,4.765c-0.783,3.292-0.679,6.69-0.894,10.04
			c-0.47,7.332-0.389,14.682-0.471,22.027c-0.086,7.626,0.058,15.279-0.541,22.871c-0.485,6.152,0.101,12.31-0.632,18.437
			c-0.122,1.014,0.134,2.093,0.331,3.121c0.775,4.057-0.12,8.107,0.019,12.16c0.123,3.576,0.627,7.187,0.295,10.721
			c-0.543,5.77,0.461,11.498,0.058,17.226c-0.58,8.246-0.244,16.495-0.288,24.739c-0.022,4.335-0.19,8.643-0.423,12.968
			c-0.201,3.721-0.216,7.455-0.943,11.114c-0.61,3.079-1.62,6.06-2.157,9.171c-0.805,4.661-2.003,9.175-3.893,13.607
			c-2.604,6.104-6.757,10.551-12.33,13.707c-4.344,2.461-8.527,5.332-13.738,6.015c-4.522,0.596-8.957,0.146-13.385-0.482
			C248.252,438.915,246.581,439.573,245.299,438.325z"/>
		<path fill-rule="evenodd" clip-rule="evenodd" fill="#FCED73" d="M535.764,324.853c0.213,0.291,0.203,0.589,0.024,0.888
			c-1.06,0.195-1.016,1.003-0.987,1.792c0.126,3.352,0.223,6.703,0.397,10.051c0.208,3.988-0.869,7.923-0.402,11.926
			c0.348,2.99,0.463,6.007,0.825,8.995c0.253,2.101-0.205,4.163,0.008,6.273c0.395,3.884,0.212,7.856,0.71,11.683
			c0.607,4.655,0.956,9.328,1.481,13.982c0.611,5.423,0.404,10.874,0.217,16.329c-0.096,2.777-0.494,5.556-0.28,8.352
			c0.167,2.189-0.313,4.326-0.91,6.424c-0.799,2.804-0.722,5.602-0.544,8.501c0.099,1.615-0.12,3.183,0.309,4.871
			c0.284,1.116-0.595,2.525-0.947,3.806c-0.146,0.536-0.354,1.071-0.397,1.618c-0.252,3.169-0.84,3.547-3.721,4.704
			c-2.862,1.148-5.719,0.772-8.604,0.854c-4.188,0.115-8.374,0.332-12.56,0.396c-3.181,0.051-3.485-0.337-3.478-3.515
			c0.001-1.222,0.156-2.417,0.538-3.581c1.736,0.86,3.609,0.523,5.382,0.402c4.291-0.294,8.577-0.129,12.866-0.159
			c3.108-0.021,3.638-0.449,4.519-3.477c0.835-2.872,0.363-5.842,0.692-8.715c1.13-9.792,0.375-19.561,0.257-29.344
			c-0.11-8.925-0.561-17.835-1.122-26.729c-0.39-6.162-0.716-12.344-1.357-18.488c-0.375-3.603,0.223-7.15,0.145-10.74
			c-0.325-15.086-0.481-30.178-0.653-45.268c-0.029-2.451,0.345-4.912,0.242-7.356c-0.416-9.746,0.377-19.489-0.03-29.239
			c-0.154-3.694,0.431-7.434,0.524-11.127c0.091-3.629,0.341-7.292,0.122-10.925c-0.194-3.23-0.082-6.446-0.024-9.667
			c0.024-1.263,0.04-2.489-0.559-3.638c1.834-1.239,3.744-1.401,5.963-1.05c1.968,0.311,2.723,1.201,2.824,2.955
			c0.261,4.289-0.215,8.554-0.564,12.815c-0.414,5.051-0.965,10.092-1.473,15.137c-0.342,3.395-0.271,6.83-0.567,10.198
			c-0.739,8.467-1.151,16.924-1.12,25.417c0.01,2.01,0.798,3.022,2.755,3.188c-0.405,2.242,1.131,4.493-0.033,6.731
			c-1.882-0.477-0.035-2.06-0.843-2.953c-0.221-0.242,0.235-1.183-0.659-1.117c-0.691,0.052-0.804,0.68-0.78,1.282
			c0.023,0.626,0.562,1.187,0.305,1.835c-1.283,3.23-1.239,6.445-0.058,9.703c0.229,0.629,0.322,1.463,0.107,2.071
			c-1.399,3.965,0.432,7.886,0.079,11.83C534.297,323.721,534.67,324.582,535.764,324.853z"/>
		<path fill-rule="evenodd" clip-rule="evenodd" fill="#FFFFFF" d="M513.229,194.096c2.688,0.593,5.237-0.635,7.899-0.605
			c1.459,0.016,2.896-0.156,4.282,0.438c0.357,1.487,0.677,3.016,0.512,4.523c-0.31,2.819-0.114,5.514,1.188,8.072
			c-8.596,0.843-17.229,1.917-25.808,0.44c-3.648-0.628-6.883-2.518-9.705-5.381c-6.298-6.387-12.818-12.658-21.619-15.628
			c-4.59-1.549-9.336-1.702-14.126-1.142c-2.164,0.252-4.345,0.348-6.514,0.567c-7.054,0.718-13.887,2.749-20.935,3.526
			c-4.377,0.481-8.716,1.219-13.035,2.103c-2.495,0.512-3.733-0.44-3.478-2.899c0.315-3.04-0.153-6.028-0.063-9.039
			c0.059-2.033,0.509-3.498,2.746-4.382c3.2-1.264,6.557-1.478,9.829-2.204c7.58-1.681,15.314-1.93,22.994-2.671
			c2.008,1.394,4.239,2.091,6.676,2.215c6.187,0.316,11.869,2.262,16.771,5.985c3.019,2.293,5.953,4.697,9.167,6.713
			c2.325,1.456,4.586,2.98,6.699,4.735c1.937,1.609,3.797,3.42,6.226,4.235c5.646,1.892,11.503,1.636,17.328,1.323
			C511.271,194.967,512.362,194.785,513.229,194.096z"/>
		<path fill-rule="evenodd" clip-rule="evenodd" fill="#FCED73" d="M669.266,286.748c4.151,2.005,8.124,4.205,11.729,7.196
			c3.657,3.028,7.433,5.936,11.161,8.888c4.695,3.715,8.768,8.065,12.749,12.459c2.222,2.451,3.442,5.782,5.355,8.554
			c3.1,4.493,5.496,9.39,6.756,14.598c1.183,4.89,2.708,9.72,3.492,14.706c0.321,2.048,1.509,3.788,1.971,5.768
			c0.974,4.146,1.397,8.359,1.797,12.608c0.27,2.859,0.746,5.787,1.233,8.662c1.096,6.44,0.358,12.9,0.499,19.353
			c0.082,3.791,0.585,7.581-0.112,11.358c-1.348,7.283-5.835,14.342-14.084,16.024c-2.68,0.545-5.359,0.981-8.052,1.378
			c-1.41,0.208-2.751-0.27-4.128-0.554c-7.694-1.584-11.426-6.832-13.512-13.91c-1.233-4.185-2.757-8.27-2.488-12.729
			c0.023-0.407,0.129-0.81,0.195-1.214c2.046-0.327,2.207,1.146,2.516,2.561c1.047,4.832,2.828,9.342,6.175,13.067
			c2.354,2.617,5.581,2.695,8.742,2.498c5.952-0.369,10.573-3.192,14.163-7.917c3.257-4.287,3.679-9.208,3.126-14.226
			c-0.458-4.169-0.63-8.337-0.719-12.51c-0.144-6.846-1.694-13.455-3.097-20.092c-0.76-3.606-1.509-7.237-2.508-10.763
			c-2.155-7.588-2.748-15.644-6.268-22.795c-1.624-3.298-3.858-6.331-5.558-9.621c-1.579-3.062-3.966-5.566-5.587-8.576
			c-0.618-1.148-1.53-2.03-2.469-2.855c-4.02-3.521-7.074-7.945-10.959-11.566c-1.743-1.626-3.479-3.245-5.728-4.446
			C673.185,291.33,671.369,288.77,669.266,286.748z"/>
		<path fill-rule="evenodd" clip-rule="evenodd" fill="#FCED73" d="M503.708,376.397c-0.16,3.91,0.619,7.807,0.128,11.716
			c-0.072,0.568,0.122,1.44-0.736,1.551c-0.771,0.097-1.029-0.7-1.267-1.233c-1.337-3.016-2.627-6.049-3.896-9.092
			c-2.674-6.407-5.176-12.882-7.046-19.576c-1.256-4.498-3.934-8.4-5.284-12.848c-2.332-7.669-5.163-15.161-7.881-22.694
			c-1.384-3.833-2.901-7.636-3.996-11.551c-1.947-6.966-5.46-13.254-8.159-19.887c-1.791-4.402-3.276-8.939-4.984-13.388
			c-2.771-7.209-6.029-14.211-8.862-21.391c-1.012-2.566-1.615-5.293-2.425-7.942c-1.704-5.575-4.244-10.809-6.489-16.166
			c-1.218-2.9-2.76-5.469-4.691-7.872c3.496-2.474,8.413-0.602,9.846,2.94c2.26,5.583,4.287,11.23,6.328,16.892
			c1.916,5.316,4.588,10.357,6.579,15.651c2.581,6.861,4.646,13.918,7.259,20.767c1.896,4.967,4.191,9.794,6.565,14.556
			c1.1,2.207,1.918,4.515,2.972,6.729c2.053,4.314,3.3,8.924,4.849,13.422c0.277,0.807,0.571,1.571,1.234,2.163
			c0.708,0.632,1.071,1.45,1.167,2.407c0.446,4.442,2.414,8.385,4.168,12.383c1.504,3.427,1.908,7.198,3.424,10.603
			c3.587,8.065,5.907,16.566,8.619,24.933C501.892,371.819,502.196,374.329,503.708,376.397z"/>
		<path fill-rule="evenodd" clip-rule="evenodd" fill="#FCED73" d="M118.395,247.792c-3.732-0.631-7.342-1.786-10.87-3.054
			c-8.846-3.174-17.378-7.115-24.885-12.835c-3.611-2.751-6.578-6.308-9.626-9.712c-2.077-2.317-3.177-5.256-5.1-7.668
			c-1.021-1.282-1.404-2.799-1.651-4.46c-1.147-7.738-1.529-15.427-0.576-23.257c0.816-6.691,4.004-12.46,6.091-18.654
			c1.142-3.385,3.188-6.25,5.5-8.895c3.032-3.469,6.895-5.166,11.568-4.878c5.07,0.313,9.843,1.438,13.767,4.926
			c0.411,0.366,0.99,0.832,1.022,1.286c0.188,2.639,2.239,4.4,3.032,6.733c-1.034-0.482-1.882-1.591-3.273-0.469
			c-0.614,0.496-1.161-0.336-1.621-0.92c-3.389-4.289-8.111-6.199-13.083-4.565c-4.88,1.604-9.425,4.517-10.804,10.301
			c-1.507,6.332-3.283,12.617-2.725,19.238c0.412,4.882,0.296,9.883,1.364,14.619c1.262,5.596,3.038,11.136,6.479,15.988
			c1.491,2.103,3.168,4.04,4.699,6.098c2.061,2.771,5.191,4.206,8.142,5.815c0.428,0.234,0.973,0.287,1.354,0.57
			c6.068,4.52,13.195,7.079,19.75,10.691C118.194,245.375,119.339,246.094,118.395,247.792z"/>
		<path fill-rule="evenodd" clip-rule="evenodd" fill="#FCED73" d="M303.516,441.28c4.661-0.959,9.357-0.271,14.037-0.275
			c2.367-0.001,4.765,0.565,7.095,0.334c5.021-0.498,9.955,0.777,14.969,0.42c1.671-0.119,3.406,0.689,5.114,1.065
			c4.237,0.935,8.54,0.615,12.809,0.485c2.06-0.062,4.036-0.842,6.198-0.86c4.249-0.037,8.399,0.694,12.544,1.274
			c5.692,0.798,11.366,0.355,17.044,0.444c2.365,0.037,3.035-0.695,2.527-2.973c-0.717-3.213-0.267-6.443-0.53-9.653
			c-0.108-1.329-0.464-2.223-1.472-2.948c2.442-0.705,4.941-0.848,7.457-0.725c0.428,0.021,0.687,0.451,0.752,0.911
			c0.694,4.849,1.262,9.701,0.631,14.606c-0.263,2.051-0.035,4.247-1.961,5.771c-0.639,0.505-1.228,0.876-2.065,0.848
			c-5.341-0.177-10.653,0.607-16,0.469c-3.021-0.077-6.017-0.104-8.977-0.836c-1.913-0.475-3.836-0.603-5.822-0.115
			c-1.324,0.325-2.829,0.604-4.115-0.011c-2.188-1.051-4.151,0.618-6.34,0.234c-3.049-0.536-6.196-0.082-9.295-0.881
			c-3.239-0.837-6.468,0.469-9.685,0.885c-1.645,0.212-3.2,0.362-4.749-0.161c-2.388-0.806-4.881-0.436-7.307-0.644
			c-6.131-0.527-12.292-1.07-18.463-0.276c-3.464,0.448-5.196-0.781-6.013-3.725C301.398,443.138,303.297,442.632,303.516,441.28z"
			/>
		<path fill-rule="evenodd" clip-rule="evenodd" fill="#FCED73" d="M712.663,291.859c-4.999-1.65-10.295-2.405-15.085-4.642
			c-5.393-2.521-11.247-4.353-15.923-8.04c-4.331-3.417-7.787-7.873-10.02-13.077c-3.528-8.229-5.155-16.872-4.288-25.739
			c0.672-6.882,1.717-13.839,5.411-19.962c2.169-3.596,4.733-6.772,9.2-7.742c1.743-0.379,3.353,0.094,5.005,0.31
			c9.114,1.187,14.202,9.749,14.549,17.034c-0.872,0.283-1.541,0.059-1.854-0.842c-1.243-3.57-4.084-5.716-7.02-7.722
			c-1.113-0.761-1.822-2.594-3.662-1.827c-1.908,0.796-3.924,1.387-5.534,2.789c-3.632,3.158-6.762,6.801-8.842,11.101
			c-1.752,3.624-1.907,7.702-1.514,11.706c0.573,5.788,1.817,11.45,3.672,16.958c1.233,3.656,2.729,7.234,5.636,9.922
			c2.049,1.896,3.152,4.602,5.702,6.1c2.651,1.558,5.469,2.749,8.173,4.177c4.43,2.34,9.075,4.253,13.384,6.845
			c1.208,0.725,2.691,1.036,3.91,1.86C713.316,291.392,712.731,291.336,712.663,291.859z"/>
		<path fill-rule="evenodd" clip-rule="evenodd" fill="#FCED73" d="M108.093,181.628c1.975,1.597,4.896,0.685,6.779,2.553
			c0.312,0.309,0.827,0.423,1.174,0.14c2.65-2.159,5.673-0.801,8.521-0.883c2.919-0.084,5.846,0.184,8.771,0.196
			c1.049,0.004,1.931-0.434,1.795-1.785c-0.639-6.401-2.676-12.442-4.667-18.503c-1.536-4.679-4.819-7.988-8.392-11.1
			c-1.579-1.375-3.159-2.746-4.742-4.115c-0.807-0.697-1.717-1.157-2.747-1.495c-2.186-0.718-4.092-1.855-4.968-4.172
			c4.5-0.239,8.629,0.775,12.477,3.232c2.999,1.916,6.064,3.707,8.851,5.943c1.783,1.431,2.75,3.55,4.354,5.051
			c3.679,3.439,4.249,8.044,5.442,12.523c0.793,2.97,0.884,6.04,1.805,8.979c0.724,2.309-1.393,6.492-3.569,7.581
			c-0.231,0.115-0.583,0.227-0.783,0.133c-4.105-1.915-8.404-1.518-12.733-1.231c-3.183,0.211-6.358-0.075-9.579,0.385
			C112.857,185.492,110.148,184.015,108.093,181.628z"/>
		<path fill-rule="evenodd" clip-rule="evenodd" fill="#FCED73" d="M513.229,194.096c-0.867,0.689-1.959,0.871-2.964,0.925
			c-5.825,0.312-11.682,0.568-17.328-1.323c-2.429-0.814-4.289-2.625-6.226-4.235c-2.113-1.755-4.374-3.279-6.699-4.735
			c-3.214-2.016-6.148-4.419-9.167-6.713c-4.902-3.723-10.585-5.669-16.771-5.985c-2.437-0.124-4.668-0.822-6.676-2.215
			c1.16-0.922,2.37-1.609,3.954-1.149c0.528,0.154,1.115,0.181,1.67,0.16c10.325-0.372,19.598,3.051,28.361,8.064
			c2.219,1.27,4.321,2.973,6.02,4.883c5.963,6.708,13.657,9.449,22.268,10.399C511.028,192.322,512.761,192.144,513.229,194.096z"/>
		<path fill-rule="evenodd" clip-rule="evenodd" fill="#FCED73" d="M65.373,133.427c-0.375,0.144-0.678,0.415-0.644,0.895
			c0.011,0.142,0.228,0.391,0.335,0.384c0.442-0.031,0.822-0.233,0.851-0.738C65.932,133.677,65.785,133.434,65.373,133.427z"/>
		<path fill-rule="evenodd" clip-rule="evenodd" fill="#FCED73" d="M527.111,206.523c-1.303-2.558-1.498-5.253-1.188-8.072
			c0.165-1.507-0.154-3.036-0.512-4.523c1.457-0.519,2.512-1.879,4.562-0.717c2.109,1.197,2.957,2.514,2.704,4.788
			c-0.197,1.793,0.213,3.62-0.377,5.403c-0.498,1.501-1.101,2.685-3.017,2.562C528.575,205.919,527.838,206.324,527.111,206.523z"/>
		<path fill-rule="evenodd" clip-rule="evenodd" fill="#FCED73" d="M266.255,226.895c-0.012,0.764,0.036,1.535-0.053,2.29
			c-0.135,1.161-0.08,1.937,1.361,1.08c0.442-0.265,0.991-0.444,1.178,0.261c0.156,0.585-0.383,1.066-0.792,1.07
			c-2.597,0.026-1.853,1.723-1.772,3.222c0.226,4.203,0.282,8.416,0.552,12.615c0.494,7.694,0.548,15.372,0.103,23.079
			c-0.2,3.454,0.495,6.96,0.815,10.439c0.127,1.386,0.459,2.764-0.005,4.143c-0.911-2.116-0.568-4.404-0.887-6.6
			c-1.194-8.245,0.451-16.521-0.077-24.784c-0.329-5.128-0.863-10.25-0.985-15.381C265.601,234.522,264.798,230.638,266.255,226.895
			z"/>
		<path fill-rule="evenodd" clip-rule="evenodd" fill="#FCED73" d="M659.286,372.633c-1.618,1.011-1.949-1.427-3.268-1.22
			c-0.485-0.959,0.336-2.686-1.801-2.727c-0.582-0.012,0.188-2.777,1.312-3.29c0.757-0.344,1.26-0.784,1.693-1.444
			c0.261-0.396,0.624-0.844,1.198-0.597c0.517,0.227,0.631,0.759,0.57,1.254c-0.22,1.829,0.796,3.708-0.303,5.511
			C658.105,371.078,659.303,371.738,659.286,372.633z"/>
		<path fill-rule="evenodd" clip-rule="evenodd" fill="#FCED73" d="M658.397,208.337c-4.128,2.405-6.388,6.473-9.051,10.18
			c-0.488-0.248-0.96-0.664-1.467-0.708c-1.199-0.108-1.091-0.961-0.614-1.39c0.794-0.712-0.063-3.389,2.508-2.165
			c0.328,0.156,1.307-0.701,1.77-1.265c0.529-0.642-0.216-0.841-0.63-1.199c-0.587-0.507,0.312-1.225,0.326-1.225
			C653.835,210.474,655.667,207.923,658.397,208.337z"/>
		<path fill-rule="evenodd" clip-rule="evenodd" fill="#FCED73" d="M285.78,224.996c-1.414,0.354-2.73,0.269-4.181-0.196
			c-1.668-0.534-3.471-0.826-5.292-0.046c-1.211,0.52-2.41-0.646-3.694-0.458c-2.015,0.297-3.971,0.796-5.783,1.755
			c1.502-1.843,3.753-2.478,5.811-2.543C277.054,223.368,281.459,223.98,285.78,224.996z"/>
		<path fill-rule="evenodd" clip-rule="evenodd" fill="#FCED73" d="M355.484,428.132c-3.643-0.696-7.405-0.099-11.026-1.01
			c0.131-0.893,0.899-0.693,1.297-0.537c1.622,0.638,2.559,0.217,2.585-1.593c0.779,0.148,1.034,0.579,1.291,0.98
			c0.735,1.149,1.377,1.372,2.001-0.1c0.637-1.5,1.78-1.273,2.305-0.183C354.37,426.597,355.156,427.212,355.484,428.132z"/>
		<path fill-rule="evenodd" clip-rule="evenodd" fill="#FCED73" d="M406.222,328.455c0.14,0.677-0.271,0.859-0.659,1.021
			c-0.4,0.166-0.907,0.276-1.124-0.185c-0.471-0.997-1.042-2.024-0.793-3.169c0.123-0.562,0.339-1.359,1.166-1.262
			c0.688,0.082,0.783,0.744,0.748,1.321C405.502,327.073,405.8,327.84,406.222,328.455z"/>
		<path fill-rule="evenodd" clip-rule="evenodd" fill="#FCED73" d="M227.281,432.82c2.541,1.46,5.14,2.798,7.879,3.835
			c-1.507,0.948-2.544-0.619-3.863-0.803c-1.325-0.186-2.351-1.558-3.852-1.812C227.003,433.966,226.882,433.299,227.281,432.82z"/>
		<path fill-rule="evenodd" clip-rule="evenodd" fill="#FCED73" d="M367.054,428.378c-2.352,0.624-4.696,1.107-6.926-0.389
			c2.002,0.208,3.954,0.268,5.834-0.729C367.202,426.601,367.139,427.561,367.054,428.378z"/>
		<path fill-rule="evenodd" clip-rule="evenodd" fill="#FCED73" d="M368.508,342.347c-1.104,0.434-1.887,1.869-3.25,1.103
			c-0.66-0.371-0.676-1.209-0.188-1.66C366.301,340.652,367.307,342.207,368.508,342.347z"/>
		<path fill-rule="evenodd" clip-rule="evenodd" fill="#FCED73" d="M404.239,315.44c1.343-0.127,1.271,1.123,1.547,1.988
			c0.199,0.625-0.145,1.216-0.823,1.174c-1.4-0.088-1.415-1.386-1.734-2.331C402.999,315.592,403.559,315.467,404.239,315.44z"/>
		<path fill-rule="evenodd" clip-rule="evenodd" fill="#FCED73" d="M236.447,436.956c2.495,0.456,4.99,0.914,7.482,1.372
			c-1.774,1.403-3.327-0.363-5.003-0.439C238.195,437.854,236.873,438.259,236.447,436.956z"/>
		<path fill-rule="evenodd" clip-rule="evenodd" fill="#FCED73" d="M39.74,330.714c0.538,0.009,1.221,0.215,0.992,0.745
			c-0.389,0.908-0.165,2.358-1.227,2.615c-0.588,0.142-0.734-1.169-0.841-1.897C38.547,331.393,38.838,330.796,39.74,330.714z"/>
		<path fill-rule="evenodd" clip-rule="evenodd" fill="#FCED73" d="M392.711,428.454c-2.141,0.364-4.268-0.189-6.402-0.098
			c0.082-0.747,0.759-0.925,1.206-0.818c1.525,0.368,3.024,0.353,4.557,0.127C392.563,427.591,392.829,427.921,392.711,428.454z"/>
		<path fill-rule="evenodd" clip-rule="evenodd" fill="#FCED73" d="M459.782,409.223c0.618-0.841,0.735-1.977,2.012-1.589
			c0.355,0.107,0.628,0.466,0.465,0.808C461.802,409.402,461.01,409.635,459.782,409.223z"/>
		<path fill-rule="evenodd" clip-rule="evenodd" fill="#FCED73" d="M551.909,227.824c-0.417,1.304-1.194,2.399-2.032,3.456
			c-0.631,0.039-1.397-0.33-0.982-0.834C549.728,229.433,550.473,228.188,551.909,227.824z"/>
		<path fill-rule="evenodd" clip-rule="evenodd" fill="#FCED73" d="M224.282,430.767c0.989,0.322,1.867,0.824,2.548,1.624
			C224.336,432.871,224.118,432.733,224.282,430.767z"/>
		<path fill-rule="evenodd" clip-rule="evenodd" fill="#FCED73" d="M267.549,290.8c1.38,1.398,0.788,3.181,0.941,4.814
			c-0.886,0.117-0.515-0.581-0.579-0.946c-0.073-0.404,0.002-0.834-0.04-1.246C267.784,292.546,267.66,291.674,267.549,290.8z"/>
		<path fill-rule="evenodd" clip-rule="evenodd" fill="#FCED73" d="M586.552,210.757c-0.589,0.354-1.192,0.316-1.803,0.065
			c-0.346-1.431,0.847-1.62,1.507-2.171C587.425,209.352,585.733,210.124,586.552,210.757z"/>
		<path fill-rule="evenodd" clip-rule="evenodd" fill="#FCED73" d="M221.297,427.944c0.795,0.679,1.59,1.358,2.383,2.035
			C221.99,430.343,220.982,429.916,221.297,427.944z"/>
		<path fill-rule="evenodd" clip-rule="evenodd" fill="#FCED73" d="M548.268,233.833c-0.537,1.229-1.098,2.444-1.932,3.509
			C545.924,235.591,546.444,234.353,548.268,233.833z"/>
		<path fill-rule="evenodd" clip-rule="evenodd" fill="#FCED73" d="M379.629,427.771c-0.622,0.494-1.231,0.312-1.837-0.034
			c0.141-0.6,0.571-1.048,1.11-1.052C379.435,426.681,379.556,427.285,379.629,427.771z"/>
		<path fill-rule="evenodd" clip-rule="evenodd" fill="#FCED73" d="M218.271,424.544c0.815,0.593,1.329,1.424,1.81,2.277
			C218.552,426.793,218.396,425.68,218.271,424.544z"/>
		<path fill-rule="evenodd" clip-rule="evenodd" fill="#FCED73" d="M215.591,420.736c1.035,0.482,1.257,1.462,1.484,2.435
			c-1.081-0.351-1.072-1.567-1.769-2.221c-0.016-0.014,0.034-0.136,0.081-0.171C215.438,420.742,215.522,420.748,215.591,420.736z"
			/>
		<path fill-rule="evenodd" clip-rule="evenodd" fill="#FCED73" d="M107.371,172.414c0.316,0.8,0.316,1.62,0.15,2.445
			C106.843,174.081,106.759,173.268,107.371,172.414z"/>
		<path fill-rule="evenodd" clip-rule="evenodd" fill="#FCED73" d="M553.35,226.47c-0.368,0.468-0.687,0.993-1.302,1.189
			c-0.351-0.456-1.077-0.956-0.521-1.506C552.062,225.623,552.735,226.312,553.35,226.47z"/>
		<path fill-rule="evenodd" clip-rule="evenodd" fill="#FCED73" d="M212.997,416.374c0.653,0.381,0.96,0.988,1.103,1.695
			C213.202,417.848,212.735,417.347,212.997,416.374z"/>
		<path fill-rule="evenodd" clip-rule="evenodd" fill="#FCED73" d="M108.165,176.545c0.261,0.699,0.514,1.398,0.009,2.096
			C107.66,177.941,107.852,177.244,108.165,176.545z"/>
		<path fill-rule="evenodd" clip-rule="evenodd" fill="#FCED73" d="M370.356,428.047c-0.269,0.596-0.641,0.537-1.062,0.168
			c-0.071-0.403-0.153-0.976,0.245-1.079C370.142,426.978,370.209,427.619,370.356,428.047z"/>
		<path fill-rule="evenodd" clip-rule="evenodd" fill="#FCED73" d="M451.669,294.127c0.337,0.479,0.734,0.931,0.67,1.578
			C451.169,295.578,451.141,294.97,451.669,294.127z"/>
		<path fill-rule="evenodd" clip-rule="evenodd" fill="#FCED73" d="M546.212,237.627c-0.05,0.824-0.491,1.436-1.067,1.973
			C544.9,238.619,545.124,237.889,546.212,237.627z"/>
		<path fill-rule="evenodd" clip-rule="evenodd" fill="#FCED73" d="M357.667,428.081c-0.375,0.538-0.85,0.571-1.386,0.266
			C356.638,427.708,357.088,427.561,357.667,428.081z"/>
		<path fill-rule="evenodd" clip-rule="evenodd" fill="#FCED73" d="M267.538,287.85c0.91,0.152,0.622,0.589,0.249,1.043
			C267.267,288.648,267.475,288.231,267.538,287.85z"/>
		<path fill-rule="evenodd" clip-rule="evenodd" fill="#FCED73" d="M73.232,134.129c-0.119-0.167-0.317-0.332-0.289-0.438
			c0.036-0.134,0.248-0.299,0.395-0.312c0.284-0.023,0.524,0.15,0.426,0.464C73.725,133.967,73.456,134.017,73.232,134.129z"/>
		<path fill-rule="evenodd" clip-rule="evenodd" fill="#FCED73" d="M543.556,243.473c0.056,0.724-0.139,1.346-0.73,1.809
			C542.815,244.577,542.605,243.792,543.556,243.473z"/>
		<path fill-rule="evenodd" clip-rule="evenodd" fill="#FCED73" d="M668.061,285.962c0.645-0.321,0.752,0.166,0.894,0.594
			C668.493,286.602,668.06,286.611,668.061,285.962z"/>
		<path fill-rule="evenodd" clip-rule="evenodd" fill="#FCED73" d="M107.922,179.978c0.017,0.109,0.045,0.221,0.041,0.331
			c-0.001,0.028-0.108,0.052-0.167,0.075c-0.071-0.062-0.142-0.121-0.214-0.181C107.694,180.126,107.808,180.052,107.922,179.978z"
			/>
		<path fill-rule="evenodd" clip-rule="evenodd" fill="#FCED73" d="M383.45,427.97c-0.202,0.215-0.392,0.21-0.567-0.031
			c0.073-0.156,0.127-0.427,0.215-0.44C383.417,427.458,383.589,427.62,383.45,427.97z"/>
		<path fill-rule="evenodd" clip-rule="evenodd" fill="#FCED73" d="M581.577,211.476c-0.135,0.326-0.341,0.396-0.622,0.172
			C581.022,211.081,581.198,210.914,581.577,211.476z"/>
		<path fill-rule="evenodd" clip-rule="evenodd" fill="#FCED73" d="M653.462,373.001c0.079,0.21,0.034,0.286-0.188,0.18
			c-0.3-0.05-0.553-0.24-0.298-0.49C653.233,372.44,653.419,372.701,653.462,373.001z"/>
		<path fill-rule="evenodd" clip-rule="evenodd" fill="#FCED73" d="M107.146,170.613c0.262,0.18,0.271,0.363,0.003,0.545
			c-0.244,0.081-0.405-0.049-0.382-0.259C106.779,170.79,107.014,170.707,107.146,170.613z"/>
		<path fill-rule="evenodd" clip-rule="evenodd" fill="#FCED73" d="M549.223,232.227c-0.023,0.471-0.233,0.816-0.675,1.006
			C548.279,232.567,548.436,232.187,549.223,232.227z"/>
		<polygon fill-rule="evenodd" clip-rule="evenodd" fill="#FCED73" points="597.337,208.496 597.404,208.415 597.327,208.486 		"/>
		<polygon fill-rule="evenodd" clip-rule="evenodd" fill="#FCED73" points="607.687,436.941 607.664,436.95 607.661,437.093 		"/>
		<path fill-rule="evenodd" clip-rule="evenodd" fill="#FCED73" d="M503.915,374.695l0.091,0.136c0,0-0.1,0.139-0.1,0.135
			c-0.042-0.074-0.086-0.146-0.127-0.221C503.824,374.729,503.87,374.713,503.915,374.695z"/>
		<path fill-rule="evenodd" clip-rule="evenodd" fill="#FCED73" d="M543.848,242.636c0.149,0.252,0.076,0.424-0.187,0.532
			C543.724,242.991,543.785,242.814,543.848,242.636z"/>
		<path fill-rule="evenodd" clip-rule="evenodd" fill="#FCED73" d="M593.634,222.913c-0.318,2.061-2.23,1.461-3.201,1.442
			c-2.368-0.048-4.038,1.257-5.678,2.417c-7.889,5.585-11.057,13.996-13.226,22.913c-0.871,3.581-1.474,7.224-2.287,10.82
			c-0.205,0.907-0.375,1.794-0.301,2.705c0.41,5.095-1.088,10.016-1.359,15.049c-0.32,5.938-0.973,11.83-0.515,17.829
			c0.386,5.018,0.988,10.021,1.167,15.077c0.281,8.013,0.107,16.021,0.332,24.028c0.044,1.522,0.389,3.047,0.677,4.555
			c0.359,1.865,0.333,3.691,0.224,5.601c-0.3,5.251,0.015,10.512,0.976,15.699c0.412,2.209-0.172,4.341-0.364,6.481
			c-0.473,5.337-0.056,10.656-0.129,15.979c-0.077,5.513,1.211,10.823,2.202,16.094c0.936,4.979,3.313,9.69,6.338,14.035
			c2.708,3.888,6.163,6.392,10.417,8.016c2.644,1.01,5.239,1.132,7.878-0.412c1.617-0.94,3.608-0.964,5.569-0.891
			c-1.461,0.818-2.126,2.771-4.204,2.694c-0.505-0.017-0.863,0.485-0.883,1.033c-0.043,1.188,1.362,0.466,1.662,1.223
			c-0.986,0.45-1.938,0.179-2.822-0.24c-0.609-0.287-1.202-0.352-1.839-0.307c-6.893,0.481-12.42-2.709-17.404-6.874
			c-2.484-2.074-5.393-3.891-6.785-7.091c-1.166-2.686-2.616-5.314-3.079-8.206c-1.957-12.272-3.774-24.563-4.757-36.972
			c-0.761-9.613-0.785-19.231-0.897-28.857c-0.079-6.812-0.605-13.617-0.772-20.43c-0.111-4.635,0.399-9.306,0.028-13.913
			c-0.622-7.732,0.372-15.429,0.057-23.145c-0.089-2.148,0.286-4.312,0.358-6.471c0.429-13.117,3.745-25.491,9.494-37.253
			c0.844-1.729,1.854-3.355,2.596-5.171c0.666-1.625,2.906-2.637,4.509-3.842c3.733-2.802,8.226-3.509,12.623-4.428
			C591.429,221.852,592.613,222.176,593.634,222.913z"/>
		<path fill-rule="evenodd" clip-rule="evenodd" fill="#FCED73" d="M536.076,323.886c-0.219-0.251-0.386-0.495,0.052-0.693
			C536.308,323.438,536.24,323.665,536.076,323.886z"/>
	</g>
</g>
</svg>
