<?xml version="1.0" encoding="utf-8"?>
<!-- Generator: Adobe Illustrator 16.0.0, SVG Export Plug-In . SVG Version: 6.00 Build 0)  -->
<!DOCTYPE svg PUBLIC "-//W3C//DTD SVG 1.1//EN" "http://www.w3.org/Graphics/SVG/1.1/DTD/svg11.dtd">
<svg version="1.1" id="Layer_1" xmlns="http://www.w3.org/2000/svg" xmlns:xlink="http://www.w3.org/1999/xlink" x="0px" y="0px"
	 width="800px" height="600px" viewBox="0 0 800 600" enable-background="new 0 0 800 600" xml:space="preserve">
<g>
	<path fill="#FFFFFF" d="M34.927,410.911c4.785-7.222,13.107-12.121,23.262-13.246c8.665-0.958,13.624-4.479,14.161-13.546
		c1.544-26.021,3.73-52.012,4.725-78.052c1.126-29.456,0.405-59,2.145-88.406c0.829-14.012-6.521-20.476-16.48-26.542
		c-3.557-2.167-7.044-4.447-12.755-8.063c20.867-0.021,39.025-0.138,57.183-0.032c23.329,0.135,38.189,10.421,38.801,33.734
		c1.292,49.284-0.018,98.682-1.944,147.966c-0.379,9.716-6.782,20.419-13.297,28.269c-4.985,6.007-14.189,10.438-22.119,11.655
		c-14.617,2.239-29.7,1.245-44.54,2.299C54.287,407.639,44.592,409.554,34.927,410.911z M90.054,400.692
		c2.452-0.568,6.49-1.562,10.556-2.436c15.012-3.218,20.834-9.534,22.177-24.674c1.774-19.997,4.131-39.983,4.842-60.024
		c1.104-31.127,2.925-62.434,0.728-93.399c-1.268-17.879-4.747-23.414-24.12-24.354c-2.715-0.132-7.812,3.688-8.099,6.116
		c-1.616,13.725-2.454,27.569-2.904,41.396c-1.247,38.221-2.277,76.45-3.168,114.682C89.739,372.086,90.04,386.188,90.054,400.692z"
		/>
	<path fill="#FFFFFF" d="M571.109,422.426c-30.993,9.555-42.916,1.12-58.452-22.605c-9.104-13.897-7.852-27.63-5.444-42.263
		c0.783-4.758,1.581-9.562,1.72-14.363c0.292-10.125-5.365-15.422-15.172-15.273c-5.342,0.082-10.695-0.556-17.759-0.969
		c-0.527,10.792-1.151,21.729-1.561,32.674c-0.214,5.677,0.898,11.562-0.236,17.011c-3.015,14.456,3.537,22.711,16.126,27.769
		c1.035,0.417,2.104,0.748,1.83,3.525c-13.75,0.014-27.498,0.027-41.351,0.041c13.319-24.929,11.202-53.19,12.216-81.006
		c0.752-20.653,2.234-41.301,2.295-61.954c0.021-7.613-2.171-15.634-5.201-22.675c-1.381-3.208-7.28-4.425-11.056-6.67
		c-1.723-1.024-3.263-2.351-4.885-3.541c1.681-1.147,3.387-3.329,5.033-3.285c20.314,0.538,40.623,1.364,60.929,2.197
		c8.523,0.349,12.014,5.794,12.354,13.456c0.808,18.152,2.004,36.338,1.515,54.469c-0.175,6.455-4.921,12.734-7.248,19.212
		c-0.775,2.162-1.642,5.754-0.562,6.896c12.674,13.43,10.92,29.312,8.383,45.413c-2.259,14.334-5.212,28.571,6.804,40.767
		c9.03,9.162,20.112,9.263,31.598,9.213C565.688,420.449,568.4,421.735,571.109,422.426z M477.495,291.803
		c-0.286,0.002-0.575,0.003-0.861,0.004c0.007,6.811-0.227,13.636,0.158,20.426c0.124,2.223,1.254,5.354,2.943,6.363
		c9.641,5.763,25.689-2.35,26.597-13.54c1.12-13.833,2.003-27.716,2.178-41.586c0.221-17.333-7.841-26.175-23.372-25.59
		c-2.649,0.1-7.231,4.551-7.344,7.148C477.113,260.595,477.479,276.206,477.495,291.803z"/>
	<path fill="#FFFFFF" d="M377.505,376.859c1.056,1.417,1.78,2.386,2.753,3.691c-1.181,0.078-2.023,0.351-2.73,0.147
		c-13.923-4-21.752-13.576-22.64-30.301c-0.945-17.81-0.689-35.688-0.729-53.537c-0.043-19.538-0.289-39.093,0.45-58.606
		c0.458-12.099,2.263-24.187,4.191-36.161c0.474-2.943,3.229-6.385,5.9-7.958c12.56-7.401,26.19-11.495,40.184-5.146
		c11.747,5.33,16.62,16.436,16.455,28.686c-0.435,31.963-1.942,63.911-2.582,95.874c-0.232,11.708,1.134,23.438,1.146,35.162
		c0.021,20.01-18.606,33.778-37.832,28.388C380.784,376.738,379.339,376.941,377.505,376.859z M370.326,284.565
		c-0.093-0.001-0.187-0.001-0.28-0.001c0.023,22.705-0.162,45.411,0.164,68.111c0.141,9.831,7.118,16.042,16.39,15.782
		c10.052-0.281,17.711-6.597,17.832-15.317c0.642-47.297,1.282-94.594,1.567-141.893c0.076-12.654-10.952-18.369-23.042-13.325
		c-11.4,4.756-12.75,14.05-12.71,24.462C370.326,243.111,370.305,263.837,370.326,284.565z"/>
	<path fill="#FFFFFF" d="M219.576,248.736c0.018,17.212,0.035,34.423,0.05,49.711c-7.479-5.777-15.222-11.758-22.966-17.739
		c-1.673,0.797-3.347,1.593-5.02,2.389c0.027,27.66-0.142,55.326,0.432,82.975c0.05,2.396,4.812,6.394,7.737,6.751
		c15.124,1.844,30.045,1.166,43.297-7.967c0.972-0.671,2.501-0.531,3.996-0.812c-1.931,11.118-13.384,18.847-28.851,18.569
		c-11.75-0.212-23.458-2.252-35.216-2.938c-5.813-0.34-11.698,0.548-17.552,0.864c-2.62,0.14-5.242,0.239-9.864,0.449
		c2.625-3.028,3.541-4.985,5.038-5.67c11.113-5.077,15.333-13.059,15.76-25.721c1.267-37.644,4.281-75.228,6.327-112.849
		c0.662-12.154,1.524-24.49,0.046-36.465c-0.532-4.31-7.317-8.311-11.908-11.503c-3.278-2.28-7.658-2.976-11.178-6.468
		c13.325-0.013,26.653-0.218,39.974,0.019c11.346,0.202,22.679,1.118,34.023,1.314c6.321,0.109,9.431,2.304,9.22,9.072
		c-0.312,10.045-0.063,20.109-0.053,30.167c-1.256,0.113-2.512,0.227-3.769,0.338c-0.708-3.532-1.594-7.039-2.088-10.602
		c-1.407-10.14-6.08-16.127-17.178-17.576c-21.839-2.85-22.07-3.329-23.236,18.478c-0.955,17.855-1.219,35.75-1.487,53.632
		c-0.037,2.433,1.684,4.892,2.591,7.339c2.184-1.034,5.095-1.508,6.409-3.212c3.382-4.387,6.235-9.22,8.947-14.072
		c1.549-2.771,2.408-5.927,3.578-8.908C217.615,248.448,218.596,248.592,219.576,248.736z"/>
	<path fill="#FFFFFF" d="M720.384,289.979c0.018,16.065,0.034,33.047,0.053,51.824c-5.533-5.909-9.183-11.142-14.091-14.565
		c-3.219-2.246-8.31-2.55-12.455-2.249c-1.139,0.082-2.641,5.458-2.694,8.43c-0.319,16.674-0.054,33.361-0.417,50.036
		c-0.123,5.631-1.506,11.236-2.284,16.663c27.442,8.263,52.603,5.188,76.55-9.896c-5.696,15.597-16.973,22.028-30.976,22.499
		c-14.053,0.472-28.178-1.618-42.261-1.514c-8.536,0.062-17.056,2.154-23.83,3.093c2.381-8.546,6.547-18.629,7.785-29.059
		c2.059-17.322,2.325-34.865,3.178-52.324c0.76-15.52,1.687-31.047,1.805-46.576c0.107-14.136,0.817-28.603-1.969-42.265
		c-1.181-5.79-10.621-9.894-15.744-14.28c11.438-5.8,26.231-3.814,40.928-3.208c13.036,0.538,26.104,0.455,39.124,1.217
		c2.627,0.153,7.216,2.746,7.312,4.419c0.659,11.521,0.363,23.094,0.377,36.907c-7.797-11.757-12.06-24.711-20.812-29.567
		c-8.992-4.988-22.372-2.066-34.356-2.632c-1.301,24.414-2.662,48.024-3.683,71.649c-0.13,3.014,1.525,6.104,2.354,9.16
		c2.716-1.564,6.106-2.551,8.021-4.799C708.674,305.448,714.523,297.504,720.384,289.979z"/>
	<path fill="#FFFFFF" d="M250.963,228.584c9.212-0.009,18.435-0.295,27.632,0.063c7.073,0.274,14.158,1.07,21.163,2.133
		c24.863,3.771,24.848,3.852,24.65,29.755c-0.105,13.906-0.198,27.811-0.291,41.716c-0.078,11.889-6.344,20.759-17.958,23.695
		c-7.568,1.914-15.577,2.062-23.181,3.871c-2.393,0.568-5.825,3.922-5.875,6.067c-0.464,19.58-0.737,39.192,0.069,58.749
		c0.171,4.148,4.962,8.108,7.014,11.228c-10.847,0.929-22.081,1.89-33.341,2.854c0.004,0.032-0.333-0.721-0.096-1.021
		c15.624-19.818,12.594-43.281,12.951-66.076c0.417-26.65,0.484-53.311,1.361-79.945
		C265.493,248.512,267.221,235.478,250.963,228.584z M279.972,320.123c12.356,0.404,21.944-4.925,23.761-15.613
		c2.416-14.204,4.358-28.619,4.795-42.996c0.462-15.184-11.181-23.917-28.636-21.354
		C279.918,266.369,279.945,292.893,279.972,320.123z"/>
	<path fill="#FFFFFF" d="M545.56,235.565c-0.018-18.549-0.033-34.302-0.047-47.824c26.447-0.027,53.355,0.486,80.229-0.283
		c16.128-0.461,16.914-0.545,15.329,15.575c-0.806,8.182-1.558,16.369-2.473,24.538c-0.145,1.298-1.031,2.515-2.535,5.977
		c-3.113-10.396-5.912-18.73-8.064-27.229c-1.908-7.539-5.39-10.248-13.814-9.428c-8.153,0.794-8.292,5.372-8.435,10.84
		c-0.735,28.243-1.435,56.487-1.964,84.735c-0.36,19.207-0.637,38.421-0.532,57.629c0.062,11.42,3.539,21.233,15.417,25.905
		c1.114,0.438,1.823,1.898,3.667,3.923c-16.877,0.018-32.49,0.033-48.546,0.049c0.16,0.365-0.38-0.425-0.231-0.588
		c16.132-17.705,11.929-39.759,13.013-60.669c1.146-22.078,2.588-44.146,3.273-66.238c0.526-16.942,0.282-33.92-0.216-50.864
		c-0.055-1.879-3.783-4.777-6.202-5.271c-14.277-2.92-21.46,1.55-27.521,16.019C552.935,219.454,549.65,226.419,545.56,235.565z"/>
</g>
</svg>
