<?xml version="1.0" encoding="utf-8"?>
<!-- Generator: Adobe Illustrator 16.0.0, SVG Export Plug-In . SVG Version: 6.00 Build 0)  -->
<!DOCTYPE svg PUBLIC "-//W3C//DTD SVG 1.1//EN" "http://www.w3.org/Graphics/SVG/1.1/DTD/svg11.dtd">
<svg version="1.1" id="Layer_1" xmlns="http://www.w3.org/2000/svg" xmlns:xlink="http://www.w3.org/1999/xlink" x="0px" y="0px"
	 width="800px" height="600px" viewBox="0 0 800 600" enable-background="new 0 0 800 600" xml:space="preserve">
<g id="dBb073_1_">
	<g>
		<path fill="#FFFFFF" d="M439.344,247.848c0,11.636,0.013,23.27,0,34.903c-0.018,15.848-0.042,31.694-0.081,47.542
			c-0.013,4.471,0.047,8.955-0.261,13.408c-0.061,0.895-1.619,2.385-2.521,2.408c-7.463,0.213-14.933,0.195-22.397,0.082
			c-0.703-0.012-1.328-1.236-2.098-1.721c-0.857-0.543-2.063-1.469-2.728-1.217c-6.422,2.465-12.985,2.994-19.659,1.617
			c-4.877-1.012-9.869-1.906-14.48-3.703c-9.753-3.795-17.396-10.326-21.626-20.07c-2.102-4.84-4.064-9.998-4.678-15.188
			c-1.716-14.46,0.915-27.906,12.413-38.124c7.99-7.103,17.557-10.792,28.188-11.917c6.329-0.668,12.518-0.449,18.639,1.466
			c0.416,0.13,1.906-1.334,1.92-2.08c0.101-4.246-0.203-8.501-0.093-12.747c0.022-0.846,1.201-2.308,1.942-2.372
			c2.916-0.251,5.873-0.015,8.81-0.041c5.301-0.045,10.602-0.121,15.904-0.247c1.865-0.045,2.729,0.633,2.597,2.598
			c-0.123,1.794-0.029,3.601-0.029,5.403C439.186,247.848,439.267,247.848,439.344,247.848z M393.299,320.467
			c9.242,0.797,19.158-5.473,19.396-19.648c0.17-9.655-6.117-19.276-17.714-19.816c-10.893-0.506-21.138,5.952-21.252,19.499
			C373.657,309.449,378.993,320.576,393.299,320.467z"/>
		<path fill="#FFFFFF" d="M347.01,208.326c-0.354-3.998-0.069-4.113,3.669-2.838c8.417,2.87,16.866,5.649,25.34,8.345
			c0.313,0.099,1.517-1.099,1.47-1.617c-0.323-3.595-0.105-3.714,3.307-2.516c7.613,2.671,15.28,5.177,22.906,7.8
			c1.075,0.37,2.035,1.062,3.09,1.498c0.511,0.21,1.436,0.417,1.616,0.188c0.343-0.43,0.411-1.194,0.351-1.794
			c-0.152-1.47-0.446-2.926-0.683-4.388c1.53,0.376,3.077,0.692,4.586,1.135c8.26,2.425,16.487,4.952,24.772,7.278
			c2.338,0.656,3.552,1.735,4.03,4.214c0.67,3.469,1.863,6.835,2.771,10.261c0.124,0.461,0.009,1.068-0.212,1.494
			c-0.091,0.171-0.83,0.183-1.16,0.025c-8.062-3.871-16.104-7.792-24.17-11.654c-1.375-0.66-2.863-1.091-4.299-1.627
			c-0.024,1.574-0.193,3.161-0.045,4.715c0.385,3.891,0.024,4.364-3.417,2.789c-8.262-3.784-16.414-7.799-24.637-11.663
			c-0.699-0.329-1.595-0.233-2.399-0.335c-0.019,0.706-0.181,1.444-0.026,2.109c0.464,2.016,1.105,3.991,1.556,6.007
			c0.124,0.55-0.188,1.194-0.299,1.797c-0.552-0.121-1.169-0.121-1.644-0.378c-9.547-5.155-19.074-10.345-28.622-15.498
			c-0.312-0.168-1.077-0.154-1.146-0.002c-0.281,0.617-0.606,1.36-0.498,1.987c0.397,2.308,0.983,4.583,1.44,6.884
			c0.107,0.54-0.009,1.127-0.024,1.692c-0.568-0.032-1.229,0.113-1.69-0.125c-6.445-3.338-12.881-6.691-19.281-10.118
			c-5.627-3.013-11.21-6.113-16.798-9.203c-0.415-0.229-0.711-0.679-1.061-1.023c0.544-0.054,1.132-0.266,1.625-0.135
			c8.993,2.397,18.006,4.731,26.944,7.318C347.851,211.954,347.091,209.87,347.01,208.326z"/>
		<path fill="#FFFFFF" d="M582.991,204.38c-0.334,5.727-0.33,5.745,4.854,4.612c8.16-1.782,16.312-3.603,24.474-5.369
			c0.696-0.152,1.46-0.01,2.188-0.004c-0.519,0.378-0.999,0.828-1.562,1.123c-11.968,6.319-23.93,12.643-35.932,18.887
			c-0.949,0.493-2.2,0.411-3.308,0.596c0.33-1.125,0.947-2.258,0.919-3.375c-0.037-1.383-0.609-2.752-0.949-4.127
			c-0.743,0.204-1.525,0.315-2.222,0.621c-5.378,2.362-10.742,4.758-16.106,7.156c-1.987,0.888-3.946,1.843-5.948,2.7
			c-0.567,0.243-1.237,0.246-1.861,0.36c-0.01-0.612-0.16-1.264-0.006-1.83c0.521-1.888,1.229-3.725,1.696-5.623
			c0.22-0.9,0.075-1.894,0.096-2.843c-0.865,0.127-1.835,0.05-2.588,0.416c-7.35,3.56-14.662,7.203-21.993,10.801
			c-2.242,1.1-4.511,2.15-6.779,3.186c-0.356,0.162-0.8,0.125-1.205,0.179c-0.031-0.418-0.195-0.882-0.075-1.248
			c0.678-2.014,1.458-3.993,2.128-6.008c0.203-0.621,0.171-1.321,0.25-1.985c-0.625-0.026-1.354-0.275-1.859-0.043
			c-8.589,3.881-17.15,7.829-25.729,11.737c-0.538,0.246-1.175,0.284-1.768,0.417c-0.122-0.664-0.448-1.369-0.328-1.988
			c0.601-3.102,1.227-6.208,2.059-9.253c0.212-0.77,1.127-1.713,1.891-1.911c7.605-1.971,15.252-3.771,22.872-5.687
			c2.796-0.702,5.519-1.698,8.331-2.295c0.632-0.134,1.499,0.842,2.261,1.304c0.764,0.466,1.698,1.479,2.278,1.306
			c8.626-2.542,17.199-5.257,25.817-7.822c0.273-0.083,1.199,0.968,1.291,1.57c0.195,1.271,0.043,2.6,0.033,3.902
			c1.089-0.36,2.229-0.616,3.262-1.099c6.608-3.085,13.184-6.245,19.796-9.317c1-0.464,2.148-0.602,3.228-0.89
			C582.727,203.392,582.956,204.247,582.991,204.38z"/>
		<path fill="#FFFFFF" d="M235.384,266.239c0,12.848-0.233,25.702,0.099,38.544c0.168,6.592,0.33,13.479,2.305,19.656
			c3.172,9.922,11.056,16.484,19.509,22.201c10.298,6.963,21.766,9.729,34.053,9.754c0.551,0.002,1.571,1.037,1.573,1.59
			c0.003,3.689-0.318,7.381-0.319,11.072c0,3.133,0.429,6.271,0.348,9.398c-0.019,0.76-1.329,2.162-1.979,2.123
			c-5.278-0.311-10.56-0.729-15.794-1.453c-4.078-0.566-8.101-2.297-12.124-2.225c-2.766,0.057-4.301-1.232-6.338-2.238
			c-2.427-1.205-5.152-1.822-7.524-3.105c-7.761-4.203-15.367-8.672-21.087-15.639c-3.579-4.361-7.377-8.576-10.591-13.195
			c-4.362-6.273-6.927-13.408-7.391-21.051c-0.708-11.646-1.219-23.311-1.47-34.977c-0.217-10.051,0.195-20.114,0.043-30.168
			c-0.1-6.564-0.615-13.566-8.146-15.978c-4.324-1.384-9.229-1.031-13.882-1.207c-0.555-0.02-1.677,1.562-1.674,2.398
			c0.013,4.854,0.452,9.709,0.433,14.562c-0.043,10.932-0.348,21.865-0.405,32.797c-0.08,15.25-0.029,30.501-0.039,45.751
			c-0.001,2.955,0.167,5.928-0.137,8.85c-0.094,0.895-1.487,2.342-2.319,2.365c-7.106,0.199-14.222,0.084-21.333,0.172
			c-2.468,0.027-3.236-0.881-3.25-3.41c-0.08-13.777-0.5-27.559-0.536-41.336c-0.027-10.265,0.763-20.546,0.42-30.795
			c-0.258-7.691-1.159-15.474-2.855-22.972c-1.307-5.77-6.248-8.974-12.018-10.018c-3.022-0.547-6.228-0.317-9.325-0.08
			c-0.757,0.057-2.002,1.512-2.015,2.34c-0.168,11.253-0.223,22.509-0.174,33.763c0.06,13.326,0.333,26.651,0.352,39.977
			c0.012,9.004-0.152,18.012-0.442,27.016c-0.171,5.232-0.353,5.311-5.677,5.412c-5.959,0.113-11.923-0.012-17.883,0.109
			c-2.41,0.047-2.894-1.371-2.9-3.225c-0.034-11.869-0.063-23.744-0.017-35.617c0.023-5.605,0.322-11.209,0.314-16.814
			c-0.008-6.399-0.31-12.8-0.314-19.198c-0.005-6.819,0.22-13.64,0.284-20.458c0.039-3.971,0.114-7.952-0.187-11.902
			c-0.065-0.844-1.573-1.929-2.619-2.258c-1.183-0.373-2.616-0.153-3.903,0.048c-3.363,0.526-4.266-1.011-4.152-4.145
			c0.222-6.166,0.092-12.344,0.304-18.51c0.027-0.772,1.228-2.141,1.912-2.159c10.928-0.29,21.86-0.442,32.791-0.55
			c11.366-0.114,22.733-0.266,34.098-0.184c11.42,0.082,22.841,0.656,34.258,0.586c7.919-0.048,15.387,1.474,22.135,5.42
			c8.79,5.136,14.19,12.889,14.685,23.243c0.409,8.554,0.083,17.142,0.083,25.714C234.837,266.238,235.111,266.238,235.384,266.239z
			"/>
		<path fill="#FFFFFF" d="M326.444,304.268c-12.736,0-25.472,0.008-38.209-0.004c-5.298-0.006-10.596-0.051-15.894-0.086
			c-2.198-0.014-2.057,1.406-1.64,2.814c1.709,5.771,8.746,11.129,14.762,11.818c7.562,0.871,14.015-1.125,19.525-6.377
			c0.397-0.379,1.636-0.449,2.077-0.117c5.67,4.258,11.292,8.578,16.832,13.006c0.46,0.365,0.626,2.014,0.252,2.381
			c-11.451,11.238-24.96,17.275-41.21,14.881c-14.112-2.082-25.453-9.041-32.882-21.461c-5.397-9.027-5.174-18.908-4.106-29.047
			c0.774-7.354,3.521-13.892,7.942-19.204c4.18-5.024,9.622-9.5,15.375-12.609c12.156-6.564,25.121-5.634,37.863-1.299
			c10.448,3.554,18.467,10.213,22.948,20.401c3.25,7.389,3.89,15.41,3.836,23.427c-0.003,0.572-1.18,1.529-1.9,1.621
			c-1.83,0.234-3.709,0.078-5.569,0.078C326.444,304.418,326.444,304.342,326.444,304.268z M301.373,291.294
			c0.039,0.256,0.079,0.512,0.117,0.773c1.229-0.424,2.457-0.847,3.686-1.272c-0.523-1.315-0.785-2.832-1.617-3.908
			c-3.066-3.975-6.949-6.793-12.138-7.212c-7.666-0.615-14.646,0.834-18.788,8.806c-1.167,2.247-0.114,2.794,1.804,2.799
			C283.417,291.308,292.395,291.294,301.373,291.294z"/>
		<path fill="#FFFFFF" d="M324.05,368.668c0.06,0.928,0.448,2.01,0.101,2.746c-0.479,1.018-1.453,2.449-2.317,2.521
			c-2.81,0.248-4.888,0.727-6.523,3.604c-0.927,1.635-3.766,2.332-5.87,3.096c-1.496,0.541-3.224,0.719-4.816,0.605
			c-0.795-0.055-2.141-1.094-2.176-1.746c-0.345-6.424-0.537-12.857-0.631-19.289c-0.075-5.029,0.192-4.707,5.212-4.252
			c4.75,0.43,7.881,2.252,9.866,6.488c0.229,0.488,1.522,0.764,2.27,0.678c3.14-0.363,5.383,0.113,4.757,4.082
			c-0.076,0.471,0.067,0.977,0.106,1.467C324.035,368.668,324.042,368.668,324.05,368.668z"/>
		<path fill="#FFFFFF" d="M491.614,335.619c0-14.432-0.067-28.865,0.021-43.3c0.069-11.354,0.299-22.706,0.574-34.056
			c0.019-0.627,1.1-1.755,1.696-1.761c9.658-0.104,19.319-0.179,28.978-0.009c5.649,0.099,11.429,0,16.898,1.169
			c5.223,1.115,10.216,3.538,15.128,5.789c7.233,3.319,11.406,9.562,14.281,16.644c1.762,4.341,3.028,8.896,4.291,13.417
			c3.305,11.815,5.962,23.839,9.855,35.45c4.002,11.93,11.168,22.125,22.352,28.357c6.053,3.369,12.966,5.416,19.712,7.225
			c4.773,1.273,9.911,1.342,14.904,1.615c7.152,0.387,13.825-1.521,20.36-4.422c8.423-3.738,13.613-10.6,18.439-17.918
			c1.796-2.721,3.409-5.564,5.248-8.256c0.269-0.395,1.554-0.574,2.014-0.289c5.995,3.764,11.883,7.689,17.89,11.432
			c2.012,1.25,1.692,2.332,0.521,3.932c-6.787,9.281-13.227,18.902-22.655,25.811c-3.378,2.479-7.127,4.6-10.981,6.24
			c-3.957,1.684-8.173,3.129-12.41,3.691c-6.15,0.811-12.42,1.033-18.633,0.957c-5.961-0.072-12.045-0.227-17.845-1.445
			c-10.144-2.141-20.385-4.377-30.076-7.947c-12.041-4.441-21.119-13.031-27.935-24.002c-5.364-8.635-9.192-17.947-12.312-27.529
			c-2.323-7.143-3.89-14.527-5.958-21.756c-1.831-6.391-3.548-12.797-8.93-17.518c-5.122-4.494-11.273-4.817-17.477-5.106
			c-0.574-0.027-1.764,1.766-1.77,2.722c-0.139,16.722-0.145,33.445-0.15,50.164c0,2.348,0.186,4.695,0.224,7.045
			c0.06,3.682-0.649,4.184-4.288,4.121c-6.498-0.117-13.001,0.076-19.497-0.117c-0.914-0.027-2.438-1.418-2.556-2.324
			c-0.348-2.633-0.124-5.344-0.124-8.025C491.472,335.619,491.545,335.619,491.614,335.619z"/>
		<path fill="#FFFFFF" d="M617.07,266.413c0-3.466-0.118-5.88,0.075-8.27c0.059-0.681,0.995-1.801,1.603-1.849
			c13.77-1.1,27.214,0.065,38.802,8.417c6.483,4.675,11.418,10.721,14.519,18.531c3.869,9.738,5.012,19.572,3.768,29.744
			c-1.089,8.922-4.678,17.182-10.919,23.473c-9.166,9.232-20.016,15.125-33.955,13.758c-7.147-0.703-13.931-2.105-20.119-5.504
			c-8.466-4.646-13.72-11.834-14.811-21.629c-0.413-3.695-0.55-7.438-0.572-11.162c-0.024-4.729,2.676-8.322,5.498-11.755
			c6.747-8.204,15.803-9.937,25.74-8.888c2.429,0.257,4.856,0.822,7.196,1.536c0.872,0.268,2.232,1.557,2.105,2.065
			c-1.313,5.224-2.832,10.399-4.486,15.528c-0.146,0.465-1.663,0.734-2.521,0.684c-4.162-0.25-8.196-0.162-11.339,3.145
			c-2.588,2.719-1.195,8.143,2.627,10.109c7.144,3.678,14.473,3.869,21.199-0.48c5.395-3.488,8.799-8.846,9.076-15.527
			c0.492-11.642-3.717-21.074-14.626-26.083c-4.47-2.05-9.76-2.593-14.751-3.133c-2.631-0.286-3.497-0.809-3.482-3.459
			C617.709,272.231,617.247,268.794,617.07,266.413z"/>
		<path fill="#FFFFFF" d="M477.348,296.047c0,12.306-0.033,24.615,0.021,36.923c0.015,3.387,0.29,6.771,0.433,10.154
			c0.075,1.795-0.495,2.596-2.591,2.494c-6.221-0.309-12.459-0.262-18.678-0.574c-0.827-0.043-2.272-1.396-2.276-2.145
			c-0.09-14.205,0.051-28.406,0.026-42.609c-0.019-12.954-0.222-25.908-0.169-38.858c0.002-0.907,1.403-2.55,2.209-2.588
			c5.456-0.261,10.958,0.166,16.385-0.315c4.647-0.412,4.647,1.964,4.604,5.36c-0.141,10.717-0.051,21.438-0.051,32.158
			C477.286,296.047,477.316,296.047,477.348,296.047z"/>
		<path fill="#FFFFFF" d="M465.98,246.417c-2.743,0.299-4.358-0.075-5.021-3.522c-0.599-3.121-2.7-6.069-4.563-8.805
			c-3.068-4.5-4.078-9.274-2.066-14.269c1.802-4.472,5.47-7.313,10.365-7.385c8.754-0.13,15.22,4.872,14.248,14.735
			c-0.189,1.908-1.429,3.908-2.676,5.478c-2.571,3.239-4.655,6.597-4.83,10.845C471.269,247.642,468.041,245.979,465.98,246.417z"/>
	</g>
</g>
</svg>
