<?xml version="1.0" encoding="utf-8"?>
<!-- Generator: Adobe Illustrator 16.0.0, SVG Export Plug-In . SVG Version: 6.00 Build 0)  -->
<!DOCTYPE svg PUBLIC "-//W3C//DTD SVG 1.1//EN" "http://www.w3.org/Graphics/SVG/1.1/DTD/svg11.dtd">
<svg version="1.1" xmlns="http://www.w3.org/2000/svg" xmlns:xlink="http://www.w3.org/1999/xlink" x="0px" y="0px" width="800px"
	 height="600px" viewBox="0 0 800 600" enable-background="new 0 0 800 600" xml:space="preserve">
<g id="Layer_1">
</g>
<g id="Layer_2">
	<g>
		<path fill="#FFFFFF" d="M47.875,268.75c0,0,11.817-25.036,46.267-25.57c34.45-0.534,34.216,31.012,34.216,31.012
			s-2.387,21.782-15.205,24.719L135.068,349h-17.625l-21.632-45.934c0,0-8.278,1.202-11.483,1.202l-1.068,26.639l-18.16-4.573
			l2.136-60.905c0,0-9.614,5.6-12.284,13.344L47.875,268.75z M109.431,274.492c0.534-17.893-20.831-19.228-20.831-19.228
			l-3.205,38.456C85.396,293.72,108.897,292.384,109.431,274.492z"/>
		<path fill="#FFFFFF" d="M138.673,329.445L146.018,297h-7.21l3.539-15.394l9.013,1.917c0,0,9.614-32.423,13.086-37.229
			l10.682,2.082l-1.068-5.175c0,0,12.552-2.877,17.893-1.81c0,0,12.819,72.633,10.416,91.86l-18.694-2.675
			c0,0,1.602-10.416-0.267-18.428l-19.228-6.145c0,0-4.54,19.715-6.943,27.459L138.673,329.445z M181.536,293.72
			c-1.335-7.21-5.341-25.637-5.341-25.637l-5.525,22.7L181.536,293.72z"/>
		<path fill="#FFFFFF" d="M214.917,305.737l20.563,1.869l1.603,8.812l12.552,1.336l2.938-20.563c0,0-17.625-0.801-23.501-3.472
			c-5.875-2.67-11.75-8.279-10.949-17.358c0.801-9.08,6.943-21.364,9.08-25.37c2.136-4.006,6.142-4.807,9.08-4.807
			c2.938,0,16.291-1.068,20.296,0s12.284,4.807,12.551,12.285s0,14.154,0,14.154l-16.023-0.801l1.068-11.483l-13.62-1.335
			c0,0-4.54,15.222-4.807,20.029c0,0,13.086-0.267,18.427,0.534c5.341,0.801,12.819,3.205,13.62,9.08
			c0.801,5.875,2.67,25.904-1.87,33.649c-4.54,7.744-10.949,10.682-16.023,10.949c-5.074,0.267-24.302,1.335-30.444-8.012
			C213.315,315.885,215.719,308.675,214.917,305.737z"/>
		<path fill="#FFFFFF" d="M285.153,332l11.216-82H314v10.338l15.22-13.085c0,0,22.297,12.284,20.962,32.313
			c-1.335,20.029-18.895,30.978-35.186,30.711l-5.575-8.834L305.449,332H285.153z M331.086,280.901
			c-0.267-11.216-10.148-16.825-11.75-17.626c-1.603-0.801-5.341,0.267-5.608,3.472c-0.267,3.205-3.472,26.973-3.472,26.973
			C315.063,293.72,331.354,292.117,331.086,280.901z"/>
		<path fill="#FFFFFF" d="M352.718,331.508c0,0,7.478-26.772,10.415-32.647l-7.077-3.772l4.34-13.636l6.709,2.968
			c0,0,9.38-26.42,13.653-34.42H392v-4.617l14.942-3.205c0,0,23.628,56.616,17.485,87.06l-20.372,4.181l1.507-16.198l-25.621-11.483
			l-6.668,25.637L352.718,331.508z M404.12,298.794c0.395-8.279-8.407-39.257-8.407-39.257l-10.949,30.028L404.12,298.794z"/>
		<path fill="#FFFFFF" d="M446.605,311.88l1.793-45.667c0,0-6.58,4.006-11.12,8.279l-5.561-12.017c0,0,13.377-13.62,33.139-15.222
			c19.762-1.603,30.189,6.943,37.399,17.625c7.211,10.682,12.441,38.99-7.32,55.814S431,323.896,431,323.896v-17.625
			C431,306.271,442.199,311.346,446.605,311.88z M489.717,289.18c0.534-27.773-19.334-27.506-19.334-27.506
			c-1.707,3.472-3.366,55.013-3.366,55.013S489.183,316.953,489.717,289.18z"/>
		<polygon fill="#FFFFFF" points="516.021,334 529.508,253 552.207,253 538.32,334 		"/>
		<path fill="#FFFFFF" d="M545.264,245.116c-5.032-0.649-5.547-3.868-4.999-7.586s4.109-7.637,8.738-7.636
			c4.628,0,8.278,3.205,7.478,8.813C555.679,244.314,548.767,245.568,545.264,245.116z"/>
		<polygon fill="#FFFFFF" points="560.753,338.852 576.509,252.326 599.209,248.587 585.856,323.896 610.692,323.363 
			608.822,340.722 		"/>
		<polygon fill="#FFFFFF" points="606.152,312 617.902,251 637.665,251 629.386,300 651.552,300 650.483,312 		"/>
		<path fill="#FFFFFF" d="M668.51,335.205l10.081-26.885l-16.324-5.03l9.598-18.405l13.879,3.453L697.752,255h9.347l-2.671-10
			h22.967c0,0,24.836,76.035,25.104,92.325l-27.239-1.373l-1.336-13.639l-26.705-9.089l-8.012,21.894L668.51,335.205z
			 M719.65,298.794l-8.012-30.711l-9.08,24.836L719.65,298.794z"/>
	</g>
</g>
</svg>
