<?xml version="1.0" encoding="utf-8"?>
<!-- Generator: Adobe Illustrator 16.0.0, SVG Export Plug-In . SVG Version: 6.00 Build 0)  -->
<!DOCTYPE svg PUBLIC "-//W3C//DTD SVG 1.1//EN" "http://www.w3.org/Graphics/SVG/1.1/DTD/svg11.dtd">
<svg version="1.1" xmlns="http://www.w3.org/2000/svg" xmlns:xlink="http://www.w3.org/1999/xlink" x="0px" y="0px" width="800px"
	 height="600px" viewBox="0 0 800 600" enable-background="new 0 0 800 600" xml:space="preserve">
<g id="Layer_1">
</g>
<g id="Layer_2">
</g>
<g id="Layer_3">
	<g>
		<polygon fill="#FFFFFF" points="542,320 568.334,329.667 584.334,320 580.334,264.667 562.667,254.333 542,262.333 538.421,287 		
			"/>
		<polyline fill="#FFFFFF" points="708.064,251.562 707.693,251.819 690.351,262.308 688.675,316.987 705.403,325.993 732,313.358 
			732,261 		"/>
		<path fill="#FFFFFF" d="M64,335v-86c0,0,34.167-3.333,42.833-3.333s19.458,7.833,20,21.333s-8.896,23.333-8.896,23.333
			s14.031,13.334,14.031,23.334s-6.234,27.334-17.567,28S64,335,64,335z M111,269.5c0-11.5-22-7.5-22-7.5v22
			C89,284,111,281,111,269.5z M89,328c0,0,25,3,24.5-12S89,302.5,89,302.5V328z"/>
		<path fill="#FFFFFF" d="M148,342V241l72.75-8c0,0,1.125,33,0.125,38c0,0-9.438-12-23.438-12.5S174,261,174,261v20l10.722-0.5
			c0,0,5.153-4.5,5.653-6s1.562,30,1.562,30s-6.024-5-7.497-6.5S176,296,176,296v29c0,0,23.25,0.5,28.75,1s18.514-7.5,16.569-13.5
			l0.01,40L148,342z"/>
		<polygon fill="#FFFFFF" points="242.25,353.25 246.5,228 268,228 294,283 294,225 319,222.5 319,363 294,363 295,341.96 
			269.5,287.125 268.5,356.188 		"/>
		<polygon fill="#FFFFFF" points="343,367 343,221 370,218.5 370,367 		"/>
		<path fill="#FFFFFF" d="M434,208c13.477-0.94,34.5,5.5,38,20s5,24.5,5,24.5l-21.5,5c0,0-2-27-21.5-26.5s-16,26.5-16,26.5
			s-1.988,69-0.244,74.5S423,347.5,432,348s17.5-2.5,20-14.5s1-20.5,1-20.5l21.5-1c0,0,4,30-5,44s-44.5,18.5-60,10.5
			s-16.582-29-16.791-54.5S393,246,398,233S412.5,209.5,434,208z"/>
		<polygon fill="#FFFFFF" points="491.75,371.944 498,200 521,200 521,374 		"/>
		<circle fill="none" stroke="#FFFFFF" stroke-width="11.2245" stroke-miterlimit="10" cx="635.5" cy="288" r="100"/>
		<polygon fill="#FFFFFF" points="608.5,246.667 613,211.333 650.667,212.667 661.131,243.667 634.667,261.219 		"/>
		<polygon fill="#FFFFFF" points="654,360 660.667,328 633.334,317 608.667,329.667 617,360 		"/>
		<polyline fill="none" stroke="#FFFFFF" stroke-width="2" stroke-miterlimit="10" points="671.596,194.716 650.667,212.667 
			661.131,243.667 690.334,262.333 708,251.667 713.95,225.981 		"/>
		<line fill="none" stroke="#FFFFFF" stroke-width="2" stroke-miterlimit="10" x1="731.87" y1="261.219" x2="708" y2="251.667"/>
		<polyline fill="none" stroke="#FFFFFF" stroke-width="2" stroke-miterlimit="10" points="690.334,262.333 688.667,317 
			705.334,326 732.31,313.149 		"/>
		
			<line fill="none" stroke="#FFFFFF" stroke-width="2" stroke-miterlimit="10" x1="710.488" y1="354.156" x2="704.518" y2="325.56"/>
		<polyline fill="none" stroke="#FFFFFF" stroke-width="2" stroke-miterlimit="10" points="688.667,317 660.667,328 
			654.334,360.333 679.153,377.992 		"/>
		<line fill="none" stroke="#FFFFFF" stroke-width="2" stroke-miterlimit="10" x1="600" y1="377.992" x2="617" y2="360"/>
		<polyline fill="none" stroke="#FFFFFF" stroke-width="2" stroke-miterlimit="10" points="654,360 617,360 608.667,329.667 
			633.334,317 660.667,328 		"/>
		<polyline fill="none" stroke="#FFFFFF" stroke-width="2" stroke-miterlimit="10" points="608.667,329.667 584.334,320 
			568.334,329.667 564.334,354.156 		"/>
		<line fill="none" stroke="#FFFFFF" stroke-width="2" stroke-miterlimit="10" x1="542" y1="320" x2="568.334" y2="329.667"/>
		<polyline fill="none" stroke="#FFFFFF" stroke-width="2" stroke-miterlimit="10" points="584.334,320 580.334,264.667 
			562.667,254.333 538.421,263.94 		"/>
		
			<line fill="none" stroke="#FFFFFF" stroke-width="2" stroke-miterlimit="10" x1="556.927" y1="226.139" x2="562.667" y2="254.333"/>
		<polyline fill="none" stroke="#FFFFFF" stroke-width="2" stroke-miterlimit="10" points="580.334,264.667 608.5,246.667 
			613,211.333 596.667,198.333 		"/>
		<polyline fill="none" stroke="#FFFFFF" stroke-width="2" stroke-miterlimit="10" points="661.131,243.667 634.667,261.219 
			608.5,246.667 		"/>
		<line fill="none" stroke="#FFFFFF" stroke-width="2" stroke-miterlimit="10" x1="613" y1="211.333" x2="650.667" y2="212.667"/>
	</g>
</g>
</svg>
