<?xml version="1.0" encoding="utf-8"?>
<!-- Generator: Adobe Illustrator 16.0.0, SVG Export Plug-In . SVG Version: 6.00 Build 0)  -->
<!DOCTYPE svg PUBLIC "-//W3C//DTD SVG 1.1//EN" "http://www.w3.org/Graphics/SVG/1.1/DTD/svg11.dtd">
<svg version="1.1" xmlns="http://www.w3.org/2000/svg" xmlns:xlink="http://www.w3.org/1999/xlink" x="0px" y="0px" width="800px"
	 height="600px" viewBox="0 0 800 600" enable-background="new 0 0 800 600" xml:space="preserve">
<g id="Layer_1">
</g>
<g id="Layer_3">
	<g>
		<polygon points="66.343,342.75 80.343,356.25 155.343,356.25 155.343,342.75 144.843,330.75 		"/>
		<polygon points="98.343,243.75 111.343,256.75 111.343,330.75 92.843,335.25 		"/>
		<polygon points="172.343,342.75 183.843,354.25 201.343,354.25 206.343,342.75 224.843,342.75 237.343,355.25 265.843,355.25 
			228.843,256.75 211.843,243.75 214.343,284.25 224.843,324.25 209.343,320.75 214.843,308.75 206.843,286.75 191.343,308.25 
			182.843,330.75 		"/>
		<polygon points="350.343,342.75 361.593,354 386.843,354 386.843,261.25 376.093,250.5 		"/>
		<polygon points="400.843,342.75 413.093,355 427.843,355 427.843,293.25 409.843,265.25 		"/>
		<polygon points="421.843,249.75 437.843,265.75 463.843,302.25 463.843,315.75 438.843,293.25 418.343,253.75 		"/>
		<polygon points="471.343,251.75 484.343,264.75 484.343,354 469.343,354 456.968,341.625 467.343,315.75 466.343,255.75 		"/>
		<polygon points="498.343,342.75 508.718,353.125 553.843,353.125 578.53,328.438 578.53,285.75 567.937,276.156 557.343,289.25 
			546.843,330.75 		"/>
		<polygon points="533.343,329.75 533.343,276.156 552.843,276.156 545.343,260.25 517.843,257.75 515.843,329.75 524.343,333.25 		
			"/>
		<polygon points="595.343,342.75 608.468,355.875 630.343,355.875 630.343,265.25 615.343,250.25 		"/>
		<polygon points="647.656,342.75 659.156,354.25 676.656,354.25 681.656,342.75 700.156,342.75 712.656,355.25 741.156,355.25 
			704.156,256.75 687.156,243.75 689.656,284.25 700.156,324.25 684.656,320.75 690.156,308.75 682.156,286.75 666.656,308.25 
			658.156,330.75 		"/>
	</g>
</g>
<g id="Layer_2">
	<g>
		<polygon fill="#FFFFFF" points="66.343,342.75 66.343,243.75 98.343,243.75 98.343,330.75 144.843,330.75 144.843,342.75 		"/>
		<path fill="#FFFFFF" d="M172.343,342.75l39.5-99l39.5,99h-26.5l-5-11.5h-29l-5.5,11.5H172.343z M215.343,320.75l-8-27.5
			l-11.5,27.5H215.343z"/>
		<rect x="350.343" y="249.75" fill="#FFFFFF" width="26.5" height="93"/>
		<polygon fill="#FFFFFF" points="400.843,342.75 400.843,249.75 421.843,249.75 461.343,306.75 461.343,251.75 471.343,251.75 
			471.343,342.75 457.843,342.75 412.843,280.251 412.843,342.75 		"/>
		<path fill="#FFFFFF" d="M498.343,342.75v-93h45l25,26v52l-20.5,15H498.343z M540.343,329.75l5.5-4.5v-55.5l-5.5-6h-18.5v66
			H540.343z"/>
		<rect x="595.343" y="249.75" fill="#FFFFFF" width="20.5" height="93"/>
		<path fill="#FFFFFF" d="M647.656,342.75l39.5-99l39.5,99h-26.5l-5-11.5h-29l-5.5,11.5H647.656z M690.656,320.75l-8-27.5
			l-11.5,27.5H690.656z"/>
	</g>
</g>
</svg>
