<?xml version="1.0" encoding="utf-8"?>
<!-- Generator: Adobe Illustrator 16.0.0, SVG Export Plug-In . SVG Version: 6.00 Build 0)  -->
<!DOCTYPE svg PUBLIC "-//W3C//DTD SVG 1.1//EN" "http://www.w3.org/Graphics/SVG/1.1/DTD/svg11.dtd">
<svg version="1.1" id="Layer_1" xmlns="http://www.w3.org/2000/svg" xmlns:xlink="http://www.w3.org/1999/xlink" x="0px" y="0px"
	 width="800px" height="600px" viewBox="0 0 800 600" enable-background="new 0 0 800 600" xml:space="preserve">
<g id="M6EAus_1_">
	<g>
		<path fill-rule="evenodd" clip-rule="evenodd" fill="#FFFFFF" d="M505.004,322.687c-0.645-4.186-1.49-8.351-1.896-12.559
			c-1.164-12.042-2.194-24.097-3.173-36.155c-0.259-3.192-0.133-6.414-0.206-9.622c-0.024-1.064-0.092-2.128-0.194-3.188
			c-0.207-2.169-0.389-4.346-0.707-6.5c-0.188-1.266-0.617-2.497-0.938-3.743c-0.825,1.015-2.038,1.908-2.401,3.068
			c-1.023,3.269-1.755,6.633-2.496,9.984c-1.135,5.131-1.984,10.333-3.311,15.413c-2.469,9.456-5.2,18.843-7.799,28.266
			c-0.227,0.823-0.074,1.801-0.45,2.522c-1.052,2.019-1.939,4.309-3.533,5.814c-2.457,2.322-9.642,2.102-12.587,0.121
			c-2.662-1.791-3.675-5.719-2.689-9.938c2.686-11.502,5.171-23.055,8.028-34.513c2.328-9.332,5.268-18.511,7.604-27.84
			c3.185-12.72,5.844-25.574,9.149-38.262c1.724-6.616,4.313-13.008,6.582-19.478c0.846-2.409,2.689-3.144,5.156-2.761
			c1.697,0.264,3.441,0.229,5.142,0.479c7.951,1.17,8.852,2.606,9.152,10.65c0.284,7.598,1.289,15.168,1.938,22.753
			c0.174,2.031,0.135,4.079,0.311,6.11c0.852,9.889,1.793,19.77,2.59,29.663c0.25,3.101-0.026,6.25,0.301,9.339
			c0.136,1.3,1.211,2.501,1.86,3.746c1.014-1.085,2.548-2.001,2.961-3.28c2.962-9.192,5.458-18.539,8.561-27.681
			c4.448-13.1,9.21-26.095,14.064-39.05c0.57-1.523,2.386-2.896,3.954-3.657c2.489-1.208,11.666,1.121,12.74,3.516
			c0.964,2.145,1.311,5.119,0.648,7.347c-3.454,11.609-7.134,23.159-11.082,34.609c-4.621,13.389-9.721,26.612-14.383,39.986
			c-4.029,11.563-7.727,23.242-11.589,34.862c-0.575,1.733-1.346,3.403-1.856,5.151c-2.604,8.926-7.959,11.209-16.153,6.776
			c-0.924-0.499-1.68-1.313-2.513-1.98C505.527,322.665,505.265,322.675,505.004,322.687z"/>
		<path fill-rule="evenodd" clip-rule="evenodd" fill="#FFFFFF" d="M646.678,385.913c-1.999-1.392-3.909-2.931-6.008-4.146
			c-10.462-6.062-11.308-13.825-5.308-23.798c5.534-9.203,13.405-16.982,20.028-25.557c3.392-4.394,6.21-9.227,9.45-13.745
			c7.493-10.446,15.062-20.838,22.646-31.219c5.064-6.934,10.233-13.792,15.306-20.722c3.6-4.915,11.235-6.995,16.742-4.433
			c5.922,2.756,11.834,5.539,17.734,8.344c0.562,0.268,1.001,0.785,1.519,1.159c3.775,2.728,7.553,5.451,11.335,8.166
			c0.259,0.185,0.587,0.269,0.854,0.443c6.773,4.419,10.995,17.143,7.476,24.324c-2.095,4.274-5.196,8.095-8.111,11.915
			c-4.203,5.506-8.669,10.812-12.986,16.23c-3.068,3.854-6.018,7.807-9.132,11.622c-6.403,7.85-12.837,15.677-19.346,23.437
			c-4.06,4.843-8.297,9.535-12.425,14.321c-3.087,3.578-5.739,7.654-9.296,10.672c-3.772,3.201-8.272,5.628-12.695,7.933
			c-1.401,0.729-3.879,0.571-5.331-0.191c-5.173-2.716-10.121-5.858-15.141-8.864c-0.901-0.539-1.704-1.245-2.602-1.789
			c-1.756-1.066-3.547-2.072-5.322-3.104C646.269,386.577,646.474,386.246,646.678,385.913z M679.155,374.16
			c3.628-4.722,8.351-10.817,13.009-16.962c1.229-1.62,2.11-3.52,3.432-5.051c4.052-4.694,8.338-9.19,12.352-13.916
			c5.402-6.359,10.686-12.822,15.929-19.315c3.981-4.93,7.917-9.903,11.627-15.035c0.655-0.906,0.687-3.271-0.001-3.966
			c-2.84-2.872-5.972-5.483-9.181-7.95c-2.366-1.818-5.24-3.006-7.497-4.931c-3.974-3.389-9.052-1.99-10.595,2.978
			c-0.573,1.845-1.788,3.583-3.03,5.109c-3.446,4.237-7.283,8.169-10.548,12.537c-3.505,4.693-6.385,9.851-9.809,14.607
			c-3.895,5.411-8.147,10.562-12.141,15.905c-4.73,6.331-9.212,12.856-14.064,19.092c-3.562,4.576-4.095,12.347,3.199,13.856
			c2.028,0.421,3.869,2.227,5.566,3.67C671.354,378.153,673.644,378.332,679.155,374.16z"/>
		<path fill-rule="evenodd" clip-rule="evenodd" fill="#FFFFFF" d="M447.646,309.492c-5.492,3.954-11.412,5.814-18.422,4.837
			c-8.148-1.134-16.399-1.604-24.622-2.097c-5.125-0.307-12.274-6.835-12.647-11.988c-0.548-7.57,0.638-14.931,2.004-22.369
			c1.746-9.505,2.6-19.173,3.954-28.755c0.722-5.104,1.879-10.15,2.491-15.265c0.622-5.202,0.498-10.503,1.268-15.676
			c1.398-9.391,2.997-18.766,5.009-28.04c0.542-2.496,2.411-5.221,4.475-6.769c5.591-4.188,11.012-8.211,19.259-6.002
			c6.544,1.753,13.766,0.842,20.645,1.532c4.683,0.47,9.322,1.53,13.913,2.614c1.307,0.309,2.697,1.395,3.498,2.517
			c3.523,4.934,4.906,10.211,3.451,16.441c-1.679,7.185-2.364,14.596-3.716,21.865c-1.509,8.113-3.362,16.163-4.899,24.273
			c-0.616,3.245-0.525,6.629-1.218,9.851c-1.078,5.023-2.878,9.902-3.774,14.948c-1.48,8.329-2.424,16.751-3.706,25.117
			C453.827,301.621,452.435,306.468,447.646,309.492z M451.151,200.533c-1.367-0.749-2.37-1.77-3.372-1.77
			c-6.201,0.005-12.432-0.037-18.587,0.575c-1.741,0.174-4.242,2.206-4.718,3.865c-1.438,5.027-2.264,10.263-2.944,15.466
			c-1.06,8.088-1.709,16.228-2.699,24.325c-1.852,15.128-3.864,30.236-5.646,45.371c-0.106,0.895,1.112,2.708,1.897,2.82
			c5.101,0.728,10.248,1.132,15.385,1.579c3.117,0.271,5.068-1.608,5.686-4.258c1.531-6.559,2.704-13.203,3.931-19.83
			c0.525-2.832,0.708-5.726,1.253-8.553c1.366-7.101,2.978-14.157,4.247-21.274c1.073-6.016,1.709-12.108,2.715-18.137
			c0.885-5.3,2.081-10.548,2.989-15.845C451.525,203.487,451.213,202.012,451.151,200.533z"/>
		<path fill-rule="evenodd" clip-rule="evenodd" fill="#FFFFFF" d="M679.743,238.89c5.697,6.864,5.782,13.616,2.195,18.851
			c-1.76,2.568-2.614,5.781-4.474,8.251c-3.147,4.176-6.693,8.067-10.271,11.89c-0.58,0.62-2.426,0.728-3.287,0.289
			c-2.948-1.496-5.995-3.032-8.418-5.206c-0.967-0.867-1.021-3.694-0.403-5.179c1.179-2.839,3.224-5.304,4.746-8.016
			c2.427-4.319,0.673-7.881-3.964-9.553c-4.857-1.751-9.579-3.933-14.228-6.199c-3.082-1.501-5.898-1.282-7.571,1.621
			c-4.278,7.431-8.356,14.977-12.512,22.48c-3.222,5.816-6.534,11.582-9.636,17.46c-6.83,12.948-13.576,25.944-20.304,38.946
			c-1.364,2.639-1.079,4.24,1.725,6.613c3.949,3.343,8.913,3.953,12.965,6.66c0.787,0.529,3.021,0.138,3.683-0.616
			c2.321-2.662,4.359-5.593,6.301-8.554c4.247-6.474,8.9-7.634,15.622-3.725c3.412,1.985,4.075,7.783,1.79,10.843
			c-2.788,3.734-5.508,7.671-7.38,11.907c-3.474,7.852-13.318,14.527-21.515,12.312c-3.853-1.042-7.414-3.173-11.094-4.839
			c-4.3-1.945-8.692-3.724-12.848-5.946c-3.56-1.901-7.11-4.003-10.172-6.6c-3.768-3.195-4.272-12.369-1.58-16.902
			c2.573-4.329,5.014-8.738,7.485-13.128c4.665-8.29,9.475-16.507,13.91-24.918c3.193-6.056,5.754-12.441,8.829-18.562
			c2.637-5.249,5.587-10.342,8.428-15.489c3.243-5.878,6.742-11.628,9.703-17.645c2.269-4.608,4.726-9.107,9.064-11.812
			c2.871-1.791,6.526-3.188,9.836-3.196c4.233-0.011,8.672,1.026,12.66,2.556c6.429,2.465,12.639,5.553,18.797,8.664
			C672.6,234.561,677.152,237.411,679.743,238.89z"/>
		<path fill-rule="evenodd" clip-rule="evenodd" fill="#FFFFFF" d="M277.784,327.584c-1.034-3.48-2.353-6.905-3.042-10.453
			c-1.533-7.892-2.646-15.866-4.128-23.769c-1.639-8.736-3.512-17.427-5.25-26.145c-0.44-2.208-0.673-4.459-1.139-6.661
			c-1.027-4.857-2.291-9.67-3.165-14.553c-0.506-2.827-0.144-5.815-0.696-8.627c-1.197-6.081-2.938-12.057-4.058-18.148
			c-0.823-4.476-1.19-9.062-1.364-13.614c-0.046-1.207,1.07-2.993,2.164-3.62c6.241-3.58,12.672-6.449,20.092-7.17
			c5.166-0.502,10.156-2.635,15.272-3.836c5.127-1.204,10.293-2.278,15.483-3.168c2.688-0.461,4.461,0.586,4.749,3.75
			c0.288,3.165,1.593,6.296,1.509,9.416c-0.109,4.058-6.965,8.804-11.054,8.447c-1.401-0.122-2.891,0.223-4.28,0.587
			c-5.39,1.409-10.729,3.016-16.136,4.348c-4.005,0.985-4.857,2.151-4.24,6.307c0.943,6.348,1.552,12.755,2.727,19.059
			c1.243,6.67,3.286,8.595,8.864,6.944c3.712-1.098,7.643-1.595,11.514-1.987c6.627-0.67,7.026-0.682,9.205,5.571
			c1.016,2.917,0.679,6.576,0.001,9.691c-0.325,1.497-2.683,3.042-4.437,3.646c-5.154,1.775-10.475,3.06-15.713,4.599
			c-2.659,0.781-3.384,2.738-2.955,5.303c1.482,8.865,2.94,17.734,4.439,26.597c0.85,5.028,2.446,5.708,8.703,4.034
			c3.253-0.871,6.54-1.639,9.843-2.294c3.754-0.745,7.534-1.698,11.322-1.792c1.88-0.046,4.692,1.108,5.558,2.603
			c4.403,7.6,0.462,16.106-7.978,18.08c-5.435,1.272-10.812,3.273-16.309,3.674c-6.921,0.504-13.456,2.182-19.858,4.449
			C280.951,329.724,279.593,329.402,277.784,327.584z"/>
		<path fill-rule="evenodd" clip-rule="evenodd" fill="#FFFFFF" d="M176.921,308.439c-3.9,1.654-7.811,3.284-11.697,4.971
			c-3.443,1.492-4.241,3.906-2.609,7.312c2.845,5.939,5.644,11.904,8.313,17.926c0.812,1.835,1.179,3.874,1.676,5.838
			c0.778,3.078,2.654,4.603,5.69,3.301c4.326-1.854,8.467-4.134,12.73-6.142c2.801-1.318,5.628-2.613,8.536-3.668
			c3.009-1.089,5.27-0.188,6.29,3.085c0.705,2.26,1.603,4.463,2.227,6.742c1.425,5.2-1.201,9.185-6.495,10.076
			c-1.053,0.179-2.22,0.254-3.108,0.769c-7.365,4.268-14.603,8.76-22.04,12.894c-2.761,1.535-5.886,2.673-8.981,3.208
			c-1.096,0.188-3.08-1.695-3.826-3.081c-3.072-5.711-5.866-11.577-8.677-17.428c-1.206-2.508-2.032-5.209-3.341-7.658
			c-1.441-2.697-3.238-5.203-4.879-7.794c-0.454-0.719-1.213-1.401-1.308-2.166c-1.196-9.657-7.113-17.317-10.845-25.896
			c-3.059-7.033-6.001-14.12-9.157-21.108c-2.556-5.662-5.55-11.132-7.967-16.849c-1.447-3.422-2.429-7.103-3.124-10.762
			c-0.647-3.412,1.883-6.251,5.046-7.75c6.254-2.963,12.323-6.319,18.46-9.53c0.757-0.396,1.412-1.008,2.192-1.334
			c5.917-2.468,11.917-4.744,17.76-7.372c4.663-2.099,10.032,0.708,10.6,5.855c0.071,0.64-0.024,1.311,0.127,1.925
			c1.736,7.03,1.507,7.845-4.959,11.269c-6.499,3.441-13.101,6.695-19.743,9.852c-3.701,1.759-5.277,5.551-1.929,9.296
			c2.822,3.155,3.654,8.049,5.55,12.086c1.445,3.08,2.813,6.334,4.969,8.87c0.82,0.964,3.968,0.691,5.674,0.019
			c5.351-2.109,10.487-4.754,15.776-7.03c2.369-1.02,4.774,1.105,5.384,4.495c0.284,1.582,0.393,3.216,0.857,4.742
			C181.998,303.66,181.884,304.125,176.921,308.439z"/>
		<path fill-rule="evenodd" clip-rule="evenodd" fill="#FFFFFF" d="M377.263,254.352c-3.239,0.382-8.179,1.389-13.128,1.445
			c-6.643,0.075-7.622,0.864-7.504,7.529c0.208,11.778,0.232,23.558,0.322,35.337c0.033,4.169,0.205,8.347-0.01,12.505
			c-0.156,3.014-1.688,4.87-5.151,4.937c-2.207,0.041-4.416,0.818-6.594,1.377c-2.667,0.685-5.088,0.016-5.91-2.517
			c-0.998-3.073-1.255-6.41-1.617-9.658c-0.163-1.463,0.337-2.988,0.298-4.479c-0.177-6.528-0.326-13.061-0.709-19.579
			c-0.307-5.243-1.109-10.458-1.37-15.701c-0.269-5.423-0.085-10.868-0.215-16.3c-0.161-6.652-0.382-13.306-0.685-19.954
			c-0.459-10.076-1.178-20.144-1.439-30.224c-0.099-3.835,0.532-7.739,1.25-11.531c0.784-4.138,4.619-5.653,10.458-5.094
			c2.325,0.222,4.748-0.482,7.115-0.841c0.73-0.11,1.41-0.633,2.135-0.693c4.937-0.403,9.887-0.659,14.82-1.108
			c4.141-0.376,8.264-0.961,12.397-1.425c0.745-0.083,1.507-0.053,2.259-0.035c11.525,0.27,12.626,7.137,10.663,16.438
			c-0.693,3.285-6.688,5.586-11.505,5.54c-7.586-0.071-15.18,0.064-22.762,0.348c-4.316,0.162-5.677,2.174-5.586,6.477
			c0.166,7.897,0.185,15.799,0.121,23.698c-0.029,3.589,1.458,5.097,5.088,4.843c5.411-0.378,10.824-0.784,16.242-0.888
			c1.445-0.028,3.32,0.605,4.29,1.615C383.633,239.64,382.378,250.443,377.263,254.352z"/>
		<path fill-rule="evenodd" clip-rule="evenodd" fill="#FFFFFF" d="M47.4,299.834c6.913-4.259,13.964-8.31,20.697-12.836
			c6.467-4.346,12.462-9.396,18.946-13.712c3.334-2.219,7.18-3.806,10.982-5.145c4.321-1.521,5.535,2.334,6.961,5.063
			c1.079,2.063,1.577,4.452,2.178,6.737c0.699,2.651,0.033,4.965-2.341,6.508c-4.143,2.69-8.344,5.289-12.515,7.934
			c-2.68,1.699-3.362,3.365-1.473,6.577c4.692,7.983,8.609,16.419,13.219,24.454c2.667,4.65,6.289,8.745,9.094,13.327
			c3.414,5.58,6.374,11.435,9.612,17.124c5.146,9.046,10.527,17.964,15.431,27.139c1.279,2.393,1.323,5.519,1.573,8.339
			c0.063,0.708-1.158,1.693-1.98,2.287c-2.515,1.818-5.223,3.378-7.667,5.279c-2.468,1.921-4.584,1.647-6.46-0.6
			c-1.303-1.562-2.432-3.291-3.475-5.042c-8.717-14.634-17.447-29.259-26.062-43.952c-3.414-5.821-6.547-11.807-9.806-17.718
			c-0.104-0.189-0.171-0.397-0.281-0.583c-3.541-5.944-6.997-11.942-10.66-17.811c-2.508-4.018-3.698-3.934-7.642-1.116
			c-4.891,3.493-9.967,6.732-15.057,9.93c-0.704,0.442-2.448,0.431-2.863-0.071c-2.64-3.191-5.55-6.337-7.29-10.01
			c-0.779-1.644,0.432-4.818,1.675-6.669c1.311-1.949,3.738-3.147,5.677-4.674C47.718,300.34,47.559,300.088,47.4,299.834z"/>
		<path fill-rule="evenodd" clip-rule="evenodd" fill="#FFFFFF" d="M202.308,223.703c1.038,3.078,2.27,6.818,3.562,10.538
			c2.103,6.05,4.245,12.086,6.373,18.127c0.285,0.811,0.616,1.608,0.867,2.429c3.139,10.231,6.342,20.442,9.373,30.704
			c2.155,7.299,3.946,14.707,6.153,21.989c1.146,3.783,2.581,7.536,4.417,11.022c0.745,1.414,3.084,3.133,4.387,2.907
			c5.068-0.874,10.243-1.931,14.949-3.928c7.244-3.074,9.237-2.614,12.798,4.538c1.561,3.135,2.876,6.336,0.631,9.401
			c-1.257,1.717-3.359,3.087-5.368,3.924c-4.729,1.971-9.625,3.543-14.463,5.249c-6.759,2.383-13.544,4.69-20.28,7.138
			c-2.491,0.903-4.202,0.416-5.116-2.135c-1.86-5.194-3.705-10.394-5.524-15.603c-2.118-6.061-4.252-12.117-6.288-18.208
			c-2.358-7.06-4.624-14.151-6.918-21.231c-4.239-13.074-8.467-26.151-12.703-39.226c-2.076-6.411-4.235-12.796-6.205-19.238
			c-0.938-3.063,1.506-6.772,4.947-8.073c2.303-0.871,4.575-1.822,6.86-2.74C197.587,220.151,200.022,220.541,202.308,223.703z"/>
		<path fill-rule="evenodd" clip-rule="evenodd" fill="#FFFFFF" d="M534.468,330.662c-0.021-0.862-0.599-2.869-0.017-4.45
			c2.325-6.319,4.847-12.579,7.603-18.724c3.675-8.194,7.692-16.233,11.447-24.391c1.75-3.802,3.171-7.752,4.845-11.591
			c5.443-12.477,10.96-24.92,16.393-37.402c2.568-5.905,4.86-11.935,7.557-17.781c1.789-3.882,3.833-7.698,6.219-11.236
			c1.561-2.314,3.965-3.726,6.896-1.465c0.828,0.638,1.882,1.107,2.905,1.349c6.647,1.572,8.381,6.572,4.919,12.483
			c-2.028,3.462-2.687,7.694-4.404,11.373c-5.857,12.532-12.207,24.84-17.813,37.479c-7.169,16.159-13.745,32.58-20.695,48.838
			c-2.104,4.92-4.644,9.649-6.902,14.505c-2.551,5.485-3.587,6.048-9.946,5.025C537.327,333.688,536.758,333.474,534.468,330.662z"
			/>
	</g>
</g>
</svg>
