<?xml version="1.0" encoding="utf-8"?>
<!-- Generator: Adobe Illustrator 16.0.0, SVG Export Plug-In . SVG Version: 6.00 Build 0)  -->
<!DOCTYPE svg PUBLIC "-//W3C//DTD SVG 1.1//EN" "http://www.w3.org/Graphics/SVG/1.1/DTD/svg11.dtd">
<svg version="1.1" id="Layer_1" xmlns="http://www.w3.org/2000/svg" xmlns:xlink="http://www.w3.org/1999/xlink" x="0px" y="0px"
	 width="800px" height="600px" viewBox="0 0 800 600" enable-background="new 0 0 800 600" xml:space="preserve">
<g id="yfRAiW_1_">
	<g>
		<path fill-rule="evenodd" clip-rule="evenodd" fill="#FFFFFF" d="M693.203,379.398c-0.077,0.281-0.154,0.562-0.229,0.84
			c-0.034,0.014-0.1,0.031-0.099,0.039c0.009,0.066,0.03,0.129,0.049,0.193c-0.148,0.861-0.298,1.723-0.447,2.58
			c-0.017,0.418-0.033,0.84-0.05,1.262c-0.081,0.428-0.162,0.855-0.243,1.279c-0.029,0.404-0.061,0.812-0.09,1.221
			c-0.045,0.744-0.089,1.486-0.134,2.227c-0.26,2.424-0.518,4.848-0.775,7.271c-0.052,0.623-0.103,1.246-0.152,1.867
			c-0.123,1.018-0.245,2.039-0.369,3.061c-0.081,0.678-0.163,1.355-0.244,2.029c-0.046,1.047-0.091,2.098-0.137,3.148
			c-0.048,0.553-0.097,1.104-0.145,1.652c-1.04,1.666-0.383,3.633-0.942,5.387c-1.088,1.588,0.028,3.182,0.128,4.734
			c0.111,1.732-1.771,5.395-3.315,5.359c-0.67-0.105-1.363-0.131-2.004-0.328c-6.164-1.914-12.237-4.199-18.499-5.701
			c-7.856-1.883-6.771-3.119-6.688-8.027c0.015-0.971,0.575-1.924,0.668-2.906c1.157-12.137,2.204-24.285,3.46-36.412
			c0.254-2.453,1-4.781,1.083-7.365c0.25-7.799,1.146-15.578,1.826-23.359c0.56-6.398,0.592-12.922,1.971-19.143
			c0.88-3.963-0.944-7.93,1.331-12.051c1.007-1.824,0.253-5.885,0.068-8.901c-0.365-6.009,1.014-11.827,1.871-17.643
			c0.729-4.945,0.338-9.902,1.185-14.819c0.652-3.792-0.17-7.86,0.339-11.562c1.099-7.968-0.068-15.986,1.22-23.872
			c0.55-3.368,0.537-6.722,0.739-10.092c0.325-5.374,2.755-10.542,1.674-16.083c-0.214-5.889,0.681-11.695,1.376-17.51
			c0.124-1.049,0.713-1.642,2.271-1.5c4.104,0.374,8.227,0.51,12.393,0.407c4.411-0.109,8.938-0.502,13.51,0.619
			c3.698,0.907,7.845-0.041,11.794-0.123c4.188-0.086,8.432-0.56,12.549-0.044c3.676,0.46,6.62,2.966,6.795,6.932
			c0.114,2.585,0.194,5.177,0.427,7.762c0.528,5.896,0.991,11.8,1.566,17.692c1.229,12.563,2.792,25.102,3.688,37.688
			c0.812,11.386,1.025,22.819,2.734,34.127c1.427,9.438,1.868,18.984,2.863,28.46c0.41,3.895-0.33,8.219-0.067,12.338
			c0.71,11.117,1.77,22.201,3.42,33.227c1.738,11.625,2.246,23.334,2.562,35.082c0.282,10.438,1.439,20.85,2.21,31.271
			c-0.708,0.891-1.624,1.869-0.334,2.865c1.348,1.039,0.979,2.152,0.459,3.336c-0.566,1.285-1.463,0.482-2.205,0.246
			c-1.477-0.469-3.146,0.764-4.596-1.41c-0.844-1.262-3.584-1.658-5.474-2.357c-4.265-1.574-8.646-3.021-13.106-3.824
			c-5.213-0.938-8.438-3.195-8.303-8.834c0.062-2.559,0.547-5.123,0.426-7.666c-0.208-4.404-1.143-8.803-1.029-13.186
			c0.143-5.521-0.697-10.922-1.043-16.379c-0.264-4.154-0.263-8.324-0.567-12.475c-0.214-2.93,1.627-6.977-3.548-7.594
			c-1.008-0.121-2.071,0.221-3.08,0.104c-5.604-0.658-11.287,0.389-16.893-0.904c-1.094-0.252-3.39,0.742-3.679,1.633
			C691.873,369.891,691.229,374.668,693.203,379.398z M701.114,263.215c-0.387,6.748-1.122,13.499-1.081,20.244
			c0.065,10.713-3.008,21.098-2.709,31.861c0.178,6.373-1.052,12.799-1.804,19.182c-0.298,2.527,0.876,3.801,3.073,3.838
			c3.216,0.053,6.438-0.34,9.657-0.541c2.527,0.303,5.049,0.711,7.584,0.848c0.73,0.039,1.422-0.576,1.676-1.664
			c0.432-1.846-0.604-3.289-0.825-4.9c-0.922-6.729-0.193-13.547-1.035-20.328c-0.889-7.154-0.918-14.386-1.895-21.578
			c-1.075-7.917-1.152-15.986-1.598-23.977c-0.39-6.989-1.612-13.875-1.78-20.896c-0.195-8.238-1.408-16.448-2.102-24.678
			c-0.182-2.146-2.008-1.96-3.237-2.405c-0.995-0.361-0.815,0.908-1.056,1.52c-2.135,5.445-0.585,11.217-1.482,16.813
			c-0.759,4.72-0.493,9.604-0.706,14.414c-0.143,3.193-0.328,6.384-0.495,9.577c-0.036,0.272-0.071,0.544-0.107,0.817
			C701.167,261.979,701.14,262.597,701.114,263.215z"/>
		<path fill-rule="evenodd" clip-rule="evenodd" fill="#FFFFFF" d="M177.494,338.191c-0.034,4.855-0.108,9.711-0.092,14.566
			c0.027,8.465-0.013,16.934,0.215,25.395c0.132,4.869-0.441,9.768-0.108,14.547c0.286,4.107-0.841,8.088-0.202,12.119
			c-0.568-0.098-1.705-0.176-1.44,0.361c1.677,3.414-0.574,3.041-2.809,3.625c-6.28,1.635-12.818,1.855-19.045,3.805
			c-1.919,0.602-4.3,0.191-4.348-2.812c-0.054-3.365-0.054-6.732,0.024-10.098c0.112-4.844,0.703-9.711,0.391-14.523
			c-0.515-7.961-0.8-15.92-1.149-23.883c-0.327-7.473-0.266-14.961-0.962-22.449c-0.779-8.379-0.802-16.906-0.205-25.303
			c0.267-3.746-2.943-8.33,1.75-11.461c0.074-0.051-0.159-0.453-0.101-0.646c0.682-2.275-2.857-1.856-2.521-4.461
			c0.519-4.013,0.118-8.157-0.038-12.24c-0.189-4.959-0.597-9.911-0.78-14.87c-0.117-3.166-0.256-6.372,0.115-9.5
			c0.214-1.804-1.497-3.48-0.123-5.209c0.281-0.354,0.665-0.625,1.001-0.936c-0.394-0.321-0.788-0.643-1.182-0.965l-0.042-0.033
			c1.012-2.208,0.051-4.466,0.083-6.693c0.095-6.336-0.163-12.676-0.274-19.015c-0.088-4.993-0.702-9.987,0.213-14.976
			c0.232-1.265,2.632-2.431,0.659-3.684c-1.094-0.695-1.419-1.475-1.236-2.298c0.233-1.047-0.206-1.53-0.832-2.081
			c0.191-6.494,0.376-12.988,0.583-19.481c0.017-0.526,0.52-1.469,0.837-0.764c1.566,3.477,4.389,1.591,6.611,1.644
			c4.591,0.11,9.218,0.123,13.782-0.322c9.518-0.927,18.964,0.277,28.385,0.968c6.402,0.469,13.167,1.143,18.831,4.566
			c5.682,3.434,10.367,7.402,11.929,15.051c3.064,14.997,2.971,30.097,3.148,45.167c0.102,8.587,0.197,17.257-1.028,25.908
			c-1.363,9.625-5.778,16.786-13.834,21.967c-1.687,1.085-0.097,1.763,0.676,2.161c5.355,2.752,9.271,7.178,12.25,12.084
			c3.422,5.635,3.954,12.123,3.687,18.814c-0.307,7.688,0.535,15.412,0.621,23.123c0.105,9.395-0.205,18.793-0.035,28.186
			c0.071,3.945-0.849,8.184-0.029,11.705c1.329,5.709-2.766,4.658-5.254,5.881c-0.229-0.676-0.711-0.523-1.23-0.422
			c-1.051,0.203-2.117,0.48-3.167,0.447c-0.329-0.01,0.174-1.648-1.298-1.055c-1.764,0.711-3.818,0.965-5.474,1.555
			c-4.091,1.461-8.073,0.729-12.092,0.744c-1.486,0.006-2.727-0.691-2.24-2.717c0.201-0.834,0.229-2.523-0.517-2.453
			c-1.929,0.184-0.772-0.779-0.686-1.311c0.101-0.619,0.428-1.221,0.429-1.83c0.006-3.4-0.344-6.828-0.015-10.191
			c0.317-3.238-0.134-6.471,0.193-9.641c0.611-5.91,0.442-11.859,1.095-17.793c0.393-3.572-0.249-7.648-0.239-11.543
			c0.016-6.385-0.206-12.809-1.593-19.092c-0.267-1.211-1.045-2.326-1.681-3.434c-1.714-2.984-5.271-2.49-7.817-4.002
			c-3.414-2.027-8.564,0.475-10.563,3.9c-2.293,3.932-1.272,8.209-2.108,12.26C176.332,335.932,176.213,337.217,177.494,338.191z
			 M179.893,279.61c0.09,0.132,0.181,0.265,0.272,0.396c0.909,1.417,2.336,2.213,3.861,1.835c3.002-0.744,5.849-1.864,8.49-3.671
			c3.275-2.241,4.749-5.489,5.179-9.004c0.448-3.66-0.352-7.459-0.091-11.161c0.206-2.927-1.324-6.12,1.057-8.813
			c0.293-0.333-0.086-0.594-0.478-0.473c-0.485,0.15-0.887,0.075-0.913-0.453c-0.023-0.456,0.027-1.04,0.293-1.359
			c0.579-0.696,1.049-1.328,0.712-2.293c-0.884-2.536-0.855-5.264-1.483-7.882c-1.241-5.171-0.365-10.751-1.307-16.161
			c-0.589-3.384-2.091-5.814-4.828-7.439c-3.527-2.096-7.53-1.066-11.354-1.266c-3.389-0.176-7.443,3.888-6.889,7.23
			c0.175,1.054,0.245,2.072-0.295,3.067c-0.949,1.749-0.499,3.357,0.585,4.876c0.038,0.261,0.076,0.524,0.114,0.786
			c-0.026,0.285-0.053,0.57-0.079,0.855c-0.285,0.895-0.831,1.793-0.814,2.682c0.15,8.306,0.435,16.609,0.597,24.915
			c0.066,3.398,0.366,6.884,0.837,10.122c0.415,2.853,0.576,5.985,1.62,8.776c0.824,2.202,2.096,4.278,4.918,4.441L179.893,279.61z"
			/>
		<path fill-rule="evenodd" clip-rule="evenodd" fill="#FFFFFF" d="M464.893,348.998c-1.096,0.387-1.127,0.949-0.805,2.088
			c0.943,3.326,1.092,6.783,0.909,10.23c-0.139,2.643-0.421,5.277-0.643,7.908c-0.518-0.207-1.03-0.406-1.543-0.607
			c-0.069-0.09-0.139-0.18-0.208-0.27c0.072,0.084,0.146,0.17,0.219,0.254c1.704,0.641,1.276,2.422,1.938,3.619
			c-0.344,0.18-0.735,0.57-1.025,0.504c-3.228-0.715-6.472-1.389-9.647-2.297c-5.162-1.477-10.305-3.031-15.395-4.736
			c-2.339-0.783-6.169,0.27-5.94-4.191c0.05-0.971,0.521-1.957,0.418-2.893c-0.925-8.34-0.38-16.699-0.428-25.049
			c-0.07-12.088-0.02-24.178-0.07-36.267c-0.042-10.115-0.094-20.231-0.255-30.346c-0.146-9.167-0.44-18.332-0.688-27.497
			c-0.019-0.663,0.34-0.855,0.833-0.769c1.363,0.237,2.45-0.512,3.646-0.894c0.444-0.142,0.86-0.281,0.604-0.803
			c-0.194-0.397-0.682-1.045-0.871-0.992c-3.426,0.977-3.028-1.633-3.396-3.539c-0.33-1.696,0.707-3.495,0.38-4.878
			c-0.694-2.93-1.853-5.755-1.84-8.832c0.025-6.591,0.092-13.182,0.141-19.772v0.017c0.097-2.619,0.117-5.243,0.317-7.854
			c0.11-1.432,0.087-3.718,1.726-3.663c2.104,0.07,3.965-0.04,5.79-1.019c0.48-0.003,0.963-0.006,1.438-0.01
			c3.441,0.033,6.894,0.19,10.333,0.053c1.832-0.073,3.557,1.679,5.7-0.203c0.656-0.576,3.55,1.399,5.419,2.206
			c-0.44,3.549-0.115,6.996,1.156,10.374c0.455,1.211,0.799,2.569,0.757,3.846c-0.175,5.237,0.429,10.493,1.751,15.422
			c0.946,3.537,0.803,7.482,3.011,10.673c0.101,1.017,0.164,2.042,0.309,3.057c1.018,7.108,1.091,14.396,4.022,21.139
			c0.114,0.261,0.283,0.499,0.426,0.747c0.24-0.24,0.65-0.454,0.692-0.724c0.514-3.331,2.4-6.223,2.781-9.647
			c0.54-4.862,1.693-9.654,2.365-14.505c0.523-3.774,1.915-7.333,2.142-11.213c0.211-3.619,1.612-7.153,2.113-10.776
			c0.4-2.9,1.78-5.717,0.974-8.753c0.021-0.173,0.045-0.346,0.066-0.519c0.088-0.19,0.177-0.38,0.266-0.57
			c0.521-3.072,0.964-6.16,1.608-9.206c0.21-0.991,1.256-1.486,2.272-1.282c6.087,1.224,12.225,0.244,18.254-0.154
			c2.089-0.138,4.746,1.81,6.654-0.637c0.848,0.798,1.563,1.688,1.528,2.923c-0.273,9.683,0.918,19.336,0.883,28.98
			c-0.042,11.169,0.248,22.329,0.259,33.492c0.003,2.553,0.085,5.107,0.027,7.659c-0.012,0.531-0.462,1.062-0.746,1.573
			c-0.213,0.382-0.483,0.731-0.729,1.096c0.316-0.063,0.633-0.184,0.947-0.179c0.883,0.015,0.832,0.68,0.814,1.283
			c-0.198,6.883-0.93,13.804-0.432,20.635c0.383,5.246,0.353,10.388,0.147,15.616c-0.183,4.641-0.441,9.331-0.381,13.922
			c0.086,6.629-0.652,13.4,0.506,19.881c0.78,4.361,0.104,8.471,0.222,12.686c0.232,8.277,0.367,16.557,0.527,24.836
			c0.018,0.941-0.066,1.887-0.104,2.828c0.042,1.488,0.721,3.535,0,4.361c-1.735,1.99-0.167,3.42,0.086,5.09
			c0.154,1.02-0.099,2.242-1.363,1.922c-2.645-0.672-5.204-1.596-7.91-2.146c-4.562-0.926-9.022-2.348-13.543-3.498
			c-3.05-0.775-7.145,0.312-6.785-5.328c0.281-4.4-0.787-8.873-0.668-13.299c0.102-3.801,0.454-7.672,0.501-11.43
			c0.075-6.113-0.685-12.266-0.512-18.424c0.083-2.924,0.011-5.895,0.112-8.766c0.091-2.564-0.7-5.746-0.658-8.564
			c0.068-4.756,0.015-9.459-0.823-14.141c-0.055-0.305-0.264-0.582-0.4-0.872c-0.143,0.192-0.384,0.372-0.416,0.582
			c-0.493,3.324-2.451,6.158-2.522,9.74c-0.138,6.83-1.013,13.645-1.58,20.463c-0.64,5.857-1.279,11.713-1.919,17.57
			c-1.884,1.309-0.879,3.367-1.188,5.043c-0.572,3.104,0.284,6.582-2.782,8.895c-0.241,0.182-0.453,0.406-0.713,0.553
			c-0.038,0.023-0.406-0.377-0.377-0.422c1.801-2.768-1.503-3.553-2.081-5.387c-0.011-0.113-0.023-0.229-0.036-0.342
			c-0.049-0.143-0.099-0.283-0.148-0.426c-0.009-0.182-0.017-0.363-0.026-0.545c-0.082-0.459-0.165-0.918-0.246-1.379
			c-0.034-0.037-0.052-0.08-0.055-0.131c-0.281-3.146-0.226-6.371-0.942-9.414c-0.641-2.717-0.824-4.016,0.743-5.164
			c0.158-0.117,0.065-0.582,0.081-0.887c0.091-1.848-1.938-2.836-2.125-4.246c-1.423-10.688-2.574-21.41-3.812-32.123
			c-0.074-0.641-0.108-1.464-0.989-1.323c-0.812,0.128-0.357,0.878-0.329,1.367c0.361,6.241,0.548,12.499,1.147,18.717
			c0.846,8.785-0.646,17.545-0.009,26.312C464.839,346.57,462.962,347.863,464.893,348.998z"/>
		<path fill-rule="evenodd" clip-rule="evenodd" fill="#FFFFFF" d="M67.17,184.882c0.852,0.203,1.703,0.406,2.555,0.609
			c3.082,0.005,6.164,0.011,9.246,0.016c0.396,0.07,0.793,0.141,1.186,0.211c0.277,0.545,0.587,0.439,0.911,0.042
			c2.336,0.012,4.673,0.023,7.008,0.036c0.058,0.084,0.118,0.167,0.177,0.251c0.1-0.085,0.2-0.17,0.299-0.256
			c7.214,0.546,14.391,2.059,21.673,0.771c1.335-0.236,2.551,2.431,3.999,0.196c0.551,0.524,1.101,1.043,1.651,1.562
			c0.114,7.793,1.901,15.402,2.559,23.135c0.69,8.113,1.271,16.232,1.808,24.357c0.313,4.738,0.708,9.538,1.316,14.292
			c0.434,3.388,0.093,6.972,0.967,10.362c1.433,5.557,1.111,11.292,1.903,16.918c0.8,5.69,1.164,11.457,1.508,17.219
			c0.388,6.512,2.257,12.92,3.014,19.428c0.969,8.334,1.974,16.717,2.043,25.088c0.081,9.633,3.646,18.768,3.352,28.398
			c-0.034,1.092-0.947,2.17-0.131,3.279c0.532,5.646,0.792,11.34,1.686,16.932c0.623,3.896,0.528,7.824,1.256,11.732
			c0.86,4.617,0.801,9.445,0.742,14.176c-0.028,2.221-2.468,2.889-4.07,3.996c-0.152,0.041-0.305,0.08-0.458,0.121
			c-7.455,0.727-14.741,2.777-22.295,2.805c-1.018,0.002-1.61-0.383-1.725-1.072c-0.841-5.033-1.309-10.143-2.431-15.107
			c-0.696-3.08,1.153-6.383-1.053-9.223c0.99-0.674-2.172-3.266,1.309-2.834c0.218,0.027,0.501-0.477,0.754-0.732
			c-0.172-0.143-0.337-0.297-0.519-0.43c-0.692-0.504-2.059-1.145-1.986-1.477c0.971-4.412-2.799-8.709-0.049-13.342
			c0.716-1.205-0.857-3.945-1.688-5.844c-0.895-2.041-2.894-0.9-4.083-0.586c-1.656,0.439-3.621-0.928-4.905,0.707
			c-1.823,2.316-4.247,1.361-6.217,0.934c-2.213-0.482-3.542,0.666-3.704,2.021c-0.435,3.643-0.28,7.361-0.286,11.049
			c-0.002,1.299,0.613,2.701-0.18,3.855c-0.712,1.035-0.302,1.352,0.579,1.67c-0.696,7.773-1.44,15.543-2.056,23.322
			c-0.175,2.209,0.025,4.449,0.052,6.672c0.17,1.312-1.126,2.697-0.902,3.428c1.362,4.438-2.206,2.902-3.974,3.648
			c-0.959,0.402-2.139-1.146-2.838,0.436c-0.195,0-0.39,0.002-0.586,0.004c-0.918-0.668-2.403,0.965-2.982-0.592
			c-0.443-1.189-1.165-2.018-2.205-1.352c-0.945,0.605-3.093,0.645-2.183,2.9c0.262,0.65-0.485,1.072-1.198,1.189
			c-2.201,0.361-4.389,0.832-6.602,1.084c-1.612,0.186-3.178,0.1-3.127-2.275c0.055-2.578,0.25-5.219-0.223-7.715
			c-0.27-1.426,0.868-2.455,0.5-3.451c-0.554-1.5-0.559-2.574,0.273-4.008c0.399-0.689,1.961-1.578,0.988-2.453
			c-1.163-1.045-0.742-2.324-1.152-3.447c-1.295-3.541,1.371-6.85,0.471-10.631c-0.694-2.914,0.459-6.271,0.803-9.43
			c0.163-1.494,0.517-3.299,0.411-4.434c-0.341-3.664,0.344-7.225,0.627-10.75c0.326-4.053,0.867-8.168,1.417-12.229
			c0.662-4.883-0.086-9.943-0.018-14.926c0.064-4.609,0.463-9.211,0.587-13.818c0.045-1.668-0.769-3.479-0.351-4.992
			c1.566-5.676-0.49-11.598,1.43-17.219c1.191-3.488-0.725-6.914-0.021-10.674c1.008-5.391,0.134-11.128,0.134-16.716
			c0-4.096,0.463-8.226,0.066-12.277c-0.324-3.305,0.974-6.313,0.897-9.54c-0.025-1.045-0.906-1.773-0.625-2.623
			c1.065-3.239,0.782-6.641,0.572-9.839c-0.562-8.552,0-17.094-0.305-25.634c-0.104-2.923-0.154-5.783,1.142-8.741
			c0.464-1.061-0.34-3.855-0.389-5.848c-0.141-5.765,0.598-11.536-0.084-17.302c0.012-0.363,0.023-0.727,0.035-1.092
			c0.15-0.268,0.299-0.535,0.449-0.802c0.134-0.202,0.268-0.404,0.403-0.608C64.676,185.903,65.941,185.412,67.17,184.882z
			 M88.062,279.614c-0.222,5.916-0.49,11.833-0.656,17.75c-0.26,9.264-0.321,18.538-0.738,27.795
			c-0.152,3.375-1.117,6.711-1.627,10.078c-0.122,0.805-0.729,1.709,0.689,2.361c3.118,1.434,6.297,0.623,9.457,0.65
			c2.218-0.078,4.492,0.125,6.644-0.295c3.915-0.768,0.364-3.635,1.24-5.354c0.199-0.391-0.249-1.07-0.28-1.623
			c-0.369-6.471-1.788-12.811-2.476-19.252c-0.485-4.537-0.231-9.152-1.47-13.747c-1.519-5.631-0.796-11.666-1.9-17.541
			c-2.016-10.724-1.304-21.794-3.699-32.562c-1.543-6.935-0.009-14.4-3.213-21.125c-0.265-0.555,0.169-1.588-0.763-1.569
			c-0.229,0.004-0.688,1.342-0.612,2.02c1.136,10.292-0.287,20.561-0.229,30.841C88.467,265.233,88.195,272.423,88.062,279.614z
			 M104.227,368.9c-0.102-0.037-0.205-0.1-0.229-0.078c-0.088,0.08-0.151,0.191-0.223,0.289c0.066,0.027,0.164,0.096,0.193,0.074
			C104.063,369.113,104.132,369.01,104.227,368.9z"/>
		<path fill-rule="evenodd" clip-rule="evenodd" fill="#FFFFFF" d="M581.807,194.908c3.578-3.386,7.97-5.221,12.419-7.208
			c4.146-1.852,8.153-1.177,12.283-1.384c2.972-0.148,5.922-0.306,8.905-0.271c6.597,0.078,12.349,2.358,18.175,5.35
			c4.625,2.376,8.804,4.995,11.97,9.021c1.551,1.971,2.813,4.284,3.709,6.631c3.089,8.087,4.038,16.385,3.722,25.142
			c-0.167,4.634,0.376,9.471,0.125,14.22c-0.089,1.675-0.437,3.392-0.999,4.971c-0.53,1.491-1.88,1.867-3.347,1.246
			c-0.968-0.411-1.516,0.413-2.271,0.602c-6.348-0.462-12.695-0.943-19.047-1.373c-2.106-0.143-3.683-0.676-3.388-3.278
			c0.499-4.41-0.479-8.789,0.694-13.336c0.82-3.174-0.574-6.973-1.195-10.455c-1.326-7.432-6.704-11.77-14.139-11.583
			c-6.401,0.162-11.914,6.828-10.319,12.479c-0.32,2.499-0.639,4.996-0.959,7.494c-0.062-0.021-0.125-0.04-0.187-0.06
			c-0.001,0.04-0.001,0.08-0.001,0.119c0.062-0.02,0.124-0.041,0.188-0.061c0.16,2.188,0.321,4.376,0.48,6.562
			c-0.59,1.483,0.069,2.918,0.179,4.375c-0.735,1.234-0.354,2.455,0.048,3.673c0.008,0.208,0.017,0.419,0.025,0.629
			c-1.153,3.088-0.004,6.21-0.125,9.317c-0.257,6.576,2.218,12.328,5.915,17.54c5.096,7.184,11.174,13.359,18.373,18.596
			c4.204,3.058,7.561,7.299,11.206,11.098c3.877,4.039,8.029,7.824,10.875,12.783c2.748,4.783,3.71,10.117,5.464,15.209
			c1.777,5.162,0.494,10.355,1.809,15.404c0.442,1.699-0.291,3.684-0.374,5.543c-0.229,5.176-0.064,10.395-0.672,15.521
			c-0.811,6.846-2.315,13.607-5.45,19.836c-0.972,1.932-2.037,4.018-4.672,4.393c-0.363,0.051-0.604,0.971-0.901,1.488
			c-2.105,2.283-5.096,3.076-7.648,4.604c-6.391,3.824-13.263,6.146-20.677,6.037c-4.945-0.072-9.852-1.248-14.808-1.75
			c-4.091-0.416-7.728-2.953-11.206-5.229c-1.604-1.051-2.99-2.496-4.287-3.934c-0.526-0.582-0.731-2.354-0.778-2.342
			c-2.509,0.615-2.216-1.908-3.264-2.863c-0.106-0.098-0.106-0.316-0.155-0.479c0.156-0.012,0.322-0.062,0.468-0.027
			c0.305,0.074,0.599,0.193,0.897,0.293c-0.15-0.395-0.283-0.799-0.453-1.186c-1.246-2.834-4.525-4.482-4.824-7.797
			c-0.266-2.945,0.343-6.027-0.264-8.871c-0.697-3.264-1.521-6.479-1.239-9.805c0.659-7.76-1.477-15.486-0.197-23.244
			c0.202-1.221,0.837-1.855,2.087-1.342c2.469,1.018,5.055,1.113,7.651,1.021c5.377-0.189,10.753-0.475,16.109,0.301
			c0.215,0.076,0.429,0.15,0.641,0.225c0.252,0.598,0.507,1.195,0.761,1.795c-1.025,3.309-1.242,6.633-0.769,10.102
			c0.431,3.166,2.272,6.418-0.114,9.635c-0.243,0.326,0.603,1.314,0.608,1.998c0.031,4.043,1.564,7.775,2.347,11.658
			c0.282,1.398,2.079,1.314,3.007,2.172c2.761,2.555,6.025,3.498,9.722,2.885c0.442-0.074,1.045-0.393,1.174-0.744
			c0.107-0.295-0.371-0.801-0.584-1.217c2.452-0.371,3.871-2.18,5.328-3.883c0.273-0.32,0.753-1.119-0.21-1.406
			c-0.277-0.084-0.635,0.102-0.955,0.164c0.198-0.447,0.312-0.961,0.608-1.33c0.81-0.998,1.201-2.133,1.348-3.385
			c0.296-2.516,0.689-5.023,0.89-7.547c0.363-4.584,0.551-9.182,0.938-13.764c0.236-2.783-0.533-5.484-0.207-8.314
			c0.415-3.615,0.687-7.475-1.146-10.797c-2.093-3.797-3.971-7.707-8.444-9.793c-3.925-1.83-7.262-4.881-11.032-7.098
			c-3.615-2.125-7.513-3.766-11.182-5.807c-6.132-3.413-10.871-8.556-14.936-14.02c-5.42-7.286-7.701-16.137-9.016-24.975
			c-0.884-5.944-0.585-12.116-0.317-18.164c0.223-5.041,1.111-10.086,1.573-15.092c0.538-5.81,1.321-11.556,2.375-17.256
			c1.009-5.46,3.814-10.232,6.951-14.774c0.178-0.175,0.354-0.35,0.533-0.525C579.29,198.072,580.829,196.759,581.807,194.908z"/>
		<path fill-rule="evenodd" clip-rule="evenodd" fill="#FFFFFF" d="M407.416,364.604c-0.175-0.006-0.352-0.012-0.527-0.018
			c-1.049-0.58-1.715,0.174-2.447,0.697c-0.357,0.004-0.715,0.006-1.072,0.01c-1.184-1.102-2.628-1.145-4.133-1.094
			c-5.654,0.191-11.05,1.637-16.54,2.865c-4.371,0.977-8.561,2.508-12.926,3.424c-3.16,0.66-6.291,1.457-9.438,2.18
			c-5.111,1.176-10.417,1.324-15.444,3.072c-0.899,0.312-3.133,0.844-3.305-1.93c-0.227-3.65,0.005-7.266-0.009-10.896
			c-0.037-9.391-0.573-18.785-0.453-28.17c0.085-6.576-0.451-13.121,0.074-19.748c0.605-7.623-0.415-15.365-0.498-23.057
			c-0.086-7.917,0.39-15.847,0.104-23.752c-0.358-9.923-0.821-19.833-0.705-29.772c0.089-7.523-0.208-15.051-0.297-22.577
			c-0.052-4.354,0.037-8.712-0.078-13.063c-0.057-2.146,0.339-4.388-0.828-6.404c-0.009-0.287-0.017-0.573-0.025-0.86
			c0.14-0.062,0.28-0.122,0.419-0.184c-0.087-0.111-0.175-0.224-0.263-0.336c0.342-2.263-0.715-4.575,0.282-6.822
			c1.382-3.111,4.265-1.497,5.883-1.166c5.262,1.078,10.461,0.161,15.672,0.371c8.372,0.338,16.769,0.204,25.128,0.712
			c7.009,0.426,13.991,0.269,20.991,0.22c4.053-0.029,7.981-0.825,11.967-1.274c2.789-0.315,2.262,2.121,1.877,3.389
			c-1.09,3.579-0.269,7.193-0.657,10.763c-0.235,2.156-0.451,4.314-0.675,6.471c-1.971,1.401-1.996,5.36-5.803,4.364
			c-1.121-0.293-2.287-0.571-3.434-0.578c-12.551-0.081-25.102-0.153-37.653-0.111c-2.65,0.009-5.725-0.336-5.51,4.078
			c0.144,2.951-1.179,5.964,0.403,8.863c-0.086,3.923-0.233,7.847-0.227,11.771c0.002,1.755,1.207,2.394,2.861,2.391
			c10.713-0.025,21.427-0.084,32.139-0.01c2.333,0.016,5.6-0.352,3.693,3.905c-0.05,0.11-0.03,0.373,0.019,0.39
			c3.376,1.188,0.14,3.996,1.382,5.656c2.359,3.151,0.959,7.481,3.381,10.591c-0.327,0.591-0.669,1.193,0.443,1.296
			c0.025,0.531,0.05,1.061,0.074,1.588c-1.939-0.797-2.594,0.7-3.412,1.908c-0.949,0.251-1.899,0.501-2.849,0.753
			c-0.424-0.224-0.823-0.551-1.275-0.654c-5.095-1.158-10.238,0.692-15.44-0.464c-3.45-0.766-7.215-0.019-10.827-0.197
			c-2.969-0.146-5.733-0.021-7.895,2.352c-1.151,0.555-0.749,1.692-0.765,2.516c-0.188,9.197,0.286,18.451-0.59,27.578
			c-0.688,7.159,0.697,14.276-0.392,21.301c-0.551,3.555,0.735,6.781,0.544,10.209c-0.269,4.842-0.216,9.699-0.335,14.551
			c-0.04,1.619,0.308,2.227,2.227,1.883c9.389-1.68,18.818-3.135,28.221-4.738c3.306-0.562,6.575-1.334,9.869-1.965
			c0.305-0.059,0.749,0.131,0.997,0.352c0.58,0.516,1.217,0.666,1.906,0.416c3.082-1.111,2.938-1.119,3.062,2.668
			c0.059,1.711-1.008,3.93,1.418,5.037c0.064,0.029,0.17-0.02,0.252-0.047c0.018-0.004,0.014-0.072,0.02-0.111
			c-0.128,0.01-0.27-0.012-0.385,0.033c-2.148,0.84-0.915,2.754-0.895,3.953c0.032,1.771-0.129,3.52-0.168,5.275
			c-0.088,0.562-0.178,1.129-0.268,1.693c-0.063,0.391-0.127,0.783-0.191,1.172c-0.719,1.26-2.382,2.094-1.771,3.967
			c0.474,1.453-0.576,1.969-1.615,2.357C409.64,364.043,408.516,364.291,407.416,364.604z"/>
		<path fill-rule="evenodd" clip-rule="evenodd" fill="#FFFFFF" d="M298.993,223.122c-0.862,1.838-0.002,3.659,0.012,5.487
			c0.067,8.277-0.077,16.555-0.057,24.833c0.014,5.702,0.207,11.403,0.254,17.105c0.054,6.562-0.232,13.139,0.124,19.684
			c0.356,6.551,0.174,13.108,0.369,19.657c0.191,6.432,0.018,12.916,0.582,19.326c0.606,6.889-0.898,13.641-0.601,20.502
			c0.344,7.951,0.133,15.928,0.233,23.891c0.055,4.398,0.256,8.797,0.372,13.195c0.007,0.275-0.151,0.557-0.232,0.836
			c-0.119-0.199-0.2-0.441-0.362-0.594c-1.102-1.033-2.126,0-3.187,0.143c-0.996-0.723-1.801,0.27-2.692,0.383
			c-5.101,0.65-10.216,1.324-15.236,2.404c-3.699,0.795-6.708-0.309-6.599-3.047c0.077-1.945,0.479-3.939,0.192-5.828
			c-0.99-6.5-0.36-13.041-0.676-19.557c-0.261-5.387,0.64-10.838,0.293-16.213c-0.342-5.291-0.179-10.568-0.43-15.846
			c-0.309-6.494-0.676-12.988-1.003-19.482c-0.015-0.287,0.124-0.582,0.191-0.873c0.157,0.061,0.407,0.078,0.457,0.188
			c0.867,1.898,1.635,0.102,2.194-0.193c1.064-0.559,0.003-1.424-0.202-1.99c-0.408-1.127-1.089,0.084-1.673,0.107
			c-0.412,0.018-0.98,0.752-1.018-0.275c-0.123-3.361-0.061-6.737-0.369-10.08c-0.077-0.835,1.764-0.364,0.618-1.397
			c-0.906-0.816-1.097-1.944-1.057-3.14c0.065-1.907,0.473-3.768,0.724-5.625c0.315-2.334-0.857-4.828-0.883-7.258
			c-0.079-7.376,0.13-14.754,0.138-22.131c0.005-4.991-0.043-9.985-0.251-14.971c-0.129-3.099-0.05-6.225-0.237-9.275
			c-0.422-6.918-1.302-13.807-1.121-20.761c0.035-1.35-0.662-1.901-1.941-1.876c-6.543,0.127-13.086,0.313-19.629,0.357
			c-3.864,0.025-7.101-0.483-6.527-5.904c0.402-3.802,0.082-7.749-0.423-11.563c-0.686-5.183,1.019-7.167,5.974-6.162
			c0.747,0.152,0.49-0.224,0.459-0.557c13.686,0.105,27.372,0.239,41.058,0.306c7.54,0.037,15.08-0.036,22.621-0.059
			c5.526-0.017,11.053-0.098,16.578-0.018c2.313,0.033,1.117,2.243,1.039,2.907c-0.449,3.778-1.192,7.517-0.832,11.354
			c-1.738,1.718-2.092,4.585-2.096,6.241c-0.008,3.537-2.479,3.334-3.978,3.367c-5.37,0.118-10.75-0.409-16.127-0.438
			c-1.247-0.007-2.893-0.795-3.911,0.786c-2.177,2.756-1.521,5.854-1.082,8.927c-0.002,0.484-0.005,0.969-0.008,1.454
			c-0.503,0.211-0.424,0.443-0.024,0.687C299.004,222.464,298.999,222.792,298.993,223.122z"/>
		<path fill-rule="evenodd" clip-rule="evenodd" fill="#FFFFFF" d="M528.2,197.595c0.082-3.136,0.181-6.271,0.237-9.408
			c0.022-1.252,0.428-2.188,1.65-2.721c1.249-0.545,1.961,0.097,3.066,0.655c1.524,0.769,3.602,0.61,5.437,0.565
			c5.625-0.139,11.245-0.483,16.871-0.612c4.094-0.094,3.259,2.998,3.189,5.415c-0.116,3.985-0.444,7.965-0.539,11.951
			c-0.165,6.992-0.245,13.987-0.318,20.981c-0.084,7.953-0.141,15.907-0.17,23.859c-0.027,6.776-0.065,13.552,0.029,20.327
			c0.053,3.673,0.522,7.342,0.532,11.014c0.012,4.159-0.954,8.253-0.666,12.473c0.444,6.519,0.071,13.113,0.827,19.583
			c0.971,8.314,1.55,16.689,1.272,24.959c-0.151,4.484,0.229,9.287-1.4,13.82c-0.558,1.553,0.421,3.641,0.687,5.469
			c0.631,4.344-0.381,8.615-0.057,12.9c0.299,3.939,0.659,7.895,1.354,11.777c0.28,1.564-0.723,2.527-0.84,3.867
			c-0.213,2.447,0.517,4.736,0.682,7.098c0.228,3.262-1.838,4.281-5.035,2.684c-0.425-0.213-0.935-0.258-1.405-0.381
			c-2.096-1.807-4.783-2.357-7.298-3.014c-3.497-0.916-7.199-1.035-10.716-1.891c-3.582-0.873-7.232-2.125-6.636-7.029
			c0.838-6.885,0.131-13.793-0.141-20.631c-0.396-10.016,1.001-19.93,0.717-29.916c-0.121-4.279,0.083-8.602,0.212-12.9
			c0.271-8.836-0.279-17.693-0.351-26.542c-0.03-3.711,0.486-7.43,0.357-11.133c-0.039-1.143,0.483-1,0.958-1.159
			c0.303-0.101,0.718,0.132,1.083,0.215c-0.274-0.692,0.353-1.777-1.095-1.955c-1.298-0.158-0.769-1.477-1.015-2.267
			c-0.271-0.875,0.605-0.699,1.062-0.843c0.873-0.276,1.338-0.831,1.124-1.743c-0.227-0.962-0.828-0.658-1.473-0.398
			c-0.238,0.096-0.806,0.293-0.799-0.493c0.047-6.003,0.112-12.008,0.047-18.01c-0.12-11.249-0.541-22.5-0.402-33.745
			c0.07-5.648-0.533-11.289,0.018-16.961C529.435,201.63,529.969,199.275,528.2,197.595z"/>
		<path fill-rule="evenodd" clip-rule="evenodd" fill="#FFFFFF" d="M145.886,253.252c0.025,0.294,0.051,0.588,0.076,0.882
			c-0.106-0.029-0.273-0.025-0.311-0.093c-0.178-0.317-0.355-0.664,0.193-0.822L145.886,253.252z"/>
	</g>
</g>
</svg>
