<?xml version="1.0" encoding="utf-8"?>
<!-- Generator: Adobe Illustrator 16.0.0, SVG Export Plug-In . SVG Version: 6.00 Build 0)  -->
<!DOCTYPE svg PUBLIC "-//W3C//DTD SVG 1.1//EN" "http://www.w3.org/Graphics/SVG/1.1/DTD/svg11.dtd">
<svg version="1.1" id="Layer_1" xmlns="http://www.w3.org/2000/svg" xmlns:xlink="http://www.w3.org/1999/xlink" x="0px" y="0px"
	 width="800px" height="600px" viewBox="0 0 800 600" enable-background="new 0 0 800 600" xml:space="preserve">
<g>
	<path fill-rule="evenodd" clip-rule="evenodd" fill="#FFFFFF" d="M118.961,247.726c-6.378,0.194-12.756,0.438-19.135,0.559
		c-2.702,0.051-5.008,1.143-7.33,2.287c-1.492,0.735-2.32,1.951-2.449,3.59c-0.348,4.393-0.664,8.789-0.984,13.184
		c-0.022,0.302,0.015,0.608,0.029,0.913c0.203,4.473,0.652,7.565,7.215,6.212c1.319-0.271,2.723-0.142,4.087-0.181
		c4.105-0.115,8.212-0.335,12.316-0.302c4.402,0.036,8.812,0.179,13.197,0.535c2.87,0.232,4.053,1.667,4.124,4.492
		c0.062,2.431-0.096,4.867-0.124,7.3c-0.027,2.44-1.234,4.204-3.488,4.795c-2.617,0.687-5.352,1.208-8.047,1.261
		c-7.435,0.151-14.874-0.447-22.316,0.025c-4.437,0.282-6.978,2.675-7.14,7.191c-0.121,3.335,0.02,6.681,0.033,10.021
		c0.027,6.523,0.086,13.045,0.04,19.568c-0.013,1.859,0.179,3.592,0.941,5.322c0.934,2.119,0.974,4.359,0.788,6.701
		c-0.397,4.996-0.765,10.031-0.584,15.029c0.174,4.814-1.833,8.162-5.536,10.789c-0.736,0.523-1.569,1.121-2.419,1.236
		c-3.724,0.504-7.472,1.168-11.208,1.154c-3.578-0.012-5.874-2.35-6.476-5.922c-0.402-2.391-0.65-4.846-0.603-7.264
		c0.147-7.59,0.501-15.176,0.695-22.764c0.046-1.812-0.267-3.631-0.331-5.449c-0.118-3.338-0.347-6.684-0.217-10.014
		c0.22-5.617,0.811-11.223,1.014-16.84c0.254-6.995,0.204-14,0.432-20.997c0.083-2.571,0.655-5.122,0.876-7.693
		c0.337-3.933,0.496-7.881,0.85-11.812c0.846-9.388,1.765-18.768,2.644-28.152c0.228-2.422,2.651-5.165,5.658-5.785
		c2.958-0.61,5.958-1.151,9.047-0.666c7.709,1.21,15.466,0.937,23.221,0.566c3.038-0.145,6.079-0.234,9.118-0.329
		c3.798-0.119,7.598-0.31,11.396-0.299c4.56,0.013,9.124,0.136,13.679,0.347c2.552,0.117,4.164,1.681,5.004,4.027
		c1.631,4.553,0.816,9.054-0.666,13.412c-0.809,2.38-3.045,3.314-5.463,3.496c-4.549,0.34-9.102,0.67-13.659,0.866
		c-2.733,0.118-5.478-0.027-8.216-0.054C118.969,247.964,118.965,247.845,118.961,247.726z"/>
	<path fill-rule="evenodd" clip-rule="evenodd" fill="#FFFFFF" d="M184.458,229.186c3.953,0.178,7.913,0.26,11.857,0.556
		c5.032,0.376,7.189,2.573,8.075,7.667c0.336,1.929,0.982,3.802,1.437,5.712c0.809,3.404,1.581,6.817,2.366,10.226
		c0.102,0.445,0.142,0.909,0.284,1.339c3.167,9.557,4.236,19.595,6.748,29.299c0.762,2.946,1.869,5.811,2.492,8.781
		c1.309,6.245,2.389,12.537,3.591,18.806c0.257,1.34,0.51,2.705,0.978,3.979c0.837,2.285,1.963,4.475,1.623,7.029
		c-0.039,0.287,0.042,0.615,0.152,0.893c3.159,7.955,3.675,16.607,6.512,24.648c0.714,2.023,1.375,4.08,0.515,6.227
		c-0.624,1.555,1.386,3.529-0.402,4.646c-1.184,0.74-2.912,0.654-4.408,0.846c-2.107,0.271-4.227,0.654-6.338,0.633
		c-4.211-0.039-8.254-3.705-7.779-7.84c0.534-4.639-0.832-8.68-2.109-12.881c-0.438-1.441-0.597-2.98-0.779-4.486
		c-0.822-6.814-2.256-13.461-4.529-19.971c-1.341-3.838-2.742-7.777-2.288-12.016c0.065-0.598,0.044-1.236-0.094-1.816
		c-1.301-5.496-1.295-11.162-2.21-16.694c-0.818-4.945-1.971-9.844-3.172-14.714c-1.128-4.579-2.428-9.089-2.641-13.863
		c-0.1-2.242-0.835-4.482-1.48-6.666c-0.87-2.939-3.004-4.512-6.025-4.771c-2.974-0.254-4.949,1.068-6.37,4.15
		c-1.277,2.769-2.309,5.583-2.659,8.679c-0.447,3.963-1.887,7.632-4.061,11.02c-0.633,0.985-1.196,2.197-1.258,3.334
		c-0.242,4.46-1.435,8.696-2.667,12.937c-0.169,0.585-0.349,1.169-0.466,1.765c-0.367,1.865,0.338,3.32,1.901,4.287
		c1.848,1.146,3.704,1.826,6.023,0.937c3.066-1.172,3.981-0.73,5.444,2.126c1.03,2.012,2.349,3.94,2.413,6.339
		c0.022,0.855-0.735,1.391-1.516,0.932c-3.665-2.16-7.712-2.67-11.842-2.722c-1.192-0.014-2.419,0.247-3.574,0.578
		c-1.221,0.353-2.295,1.214-2.47,2.47c-0.388,2.771-1.874,5.133-2.623,7.73c-1.26,4.377-2.427,8.754-4.502,12.85
		c-0.679,1.338-1.046,2.857-1.422,4.33c-2.526,9.879-6.019,19.422-9.954,28.811c-0.119,0.281-0.229,0.566-0.361,0.84
		c-1.873,3.891-3.877,4.934-8.03,4.164c-0.598-0.109-1.189-0.266-1.779-0.416c-3.833-0.982-4.558-1.889-3.567-5.844
		c1.033-4.121,2.551-8.119,3.759-12.199c1.726-5.832,3.36-11.691,5.038-17.537c0.294-1.023,0.505-2.088,0.935-3.053
		c1.385-3.109,1.867-6.402,2.3-9.736c0.331-2.555,0.919-5.082,1.475-7.602c0.686-3.117,1.805-6.182,2.114-9.331
		c0.558-5.672,2.489-10.97,3.888-16.41c1.552-6.039,3.164-12.069,4.998-18.026c1.426-4.633,3.336-9.115,4.834-13.728
		c1.075-3.309,1.843-6.719,2.706-10.095c0.225-0.878,0.178-1.835,0.458-2.689c0.82-2.509,2.312-4.284,5.228-4.258
		c4.41,0.04,8.82,0.086,13.23,0.13C184.455,229.406,184.457,229.296,184.458,229.186z"/>
	<path fill-rule="evenodd" clip-rule="evenodd" fill="#FFFFFF" d="M530.361,361.605c-1.969-0.131-3.948-0.186-5.906-0.418
		c-1.659-0.195-2.765-1.182-3.171-2.854c-0.217-0.889-0.58-1.773-0.607-2.666c-0.132-3.994-1.371-7.764-2.149-11.629
		c-0.537-2.662-0.463-5.449-0.699-8.176c-0.537-6.203-1.069-12.406-1.671-18.602c-0.115-1.201-0.554-2.367-0.802-3.557
		c-0.25-1.189-0.698-2.402-0.626-3.578c0.334-5.523-1.176-10.875-1.403-16.344c-0.081-1.964-0.595-3.907-0.816-5.87
		c-0.239-2.11-0.37-4.231-0.539-6.349c-0.024-0.302,0.046-0.616-0.002-0.912c-1.412-8.729-1.006-17.612-2.224-26.354
		c-0.354-2.553-1.042-5.062-1.622-7.58c-0.471-2.043-1.81-3.116-3.897-3.188c-1.216-0.043-2.434,0.023-3.65,0.011
		c-2.615-0.025-4.047,1.309-5.167,3.662c-4.963,10.435-10.089,20.792-15.206,31.154c-1.059,2.144-1.316,4.357-1.01,6.66
		c0.241,1.806,1.11,2.706,2.952,2.953c1.502,0.203,3.035,0.17,4.556,0.253c1.366,0.073,2.746,0.071,4.095,0.267
		c1.411,0.205,2.733,0.904,3.257,2.244c1.266,3.245,2.341,6.565,3.46,9.865c0.076,0.227-0.129,0.549-0.204,0.824
		c-0.259-0.129-0.634-0.189-0.759-0.4c-2.338-3.899-6.049-4.69-10.211-4.751c-3.346-0.049-6.645-0.257-9.993,0.429
		c-2.645,0.542-4.538,1.805-5.658,4.111c-1.594,3.273-3.274,6.553-4.396,10c-1.802,5.541-4.36,10.725-7.037,15.836
		c-4.24,8.098-7.91,16.42-11.174,24.951c-0.966,2.527-2.465,4.877-3.94,7.166c-0.51,0.791-1.659,1.566-2.566,1.631
		c-2.869,0.201-5.773,0.205-8.644,0c-1.841-0.131-2.746-1.395-2.394-3.189c0.347-1.77,0.846-3.59,1.695-5.162
		c2.476-4.584,3.931-9.553,5.698-14.398c0.989-2.715,2.092-5.305,3.546-7.848c2.175-3.803,3.672-7.996,5.404-12.045
		c0.775-1.814,1.31-3.738,2.146-5.52c4.083-8.674,8.275-17.295,12.338-25.979c1.998-4.271,3.712-8.675,5.705-12.95
		c2.953-6.335,5.189-12.974,8.559-19.149c2.098-3.845,3.268-8.187,5.022-12.232c1.323-3.056,2.868-6.02,4.401-8.981
		c1.18-2.279,3.174-3.337,5.687-2.873c3.334,0.616,6.622,0.863,9.959,0.069c0.718-0.17,1.526-0.093,2.273,0.016
		c3.157,0.462,6.316,0.937,9.46,1.491c2.572,0.453,3.028,1.04,3.503,3.459c1.669,8.504,3.551,16.97,5.013,25.509
		c0.737,4.327,2.258,8.528,2.162,13.012c-0.028,1.341,0.349,2.722,0.715,4.035c2.034,7.312,2.267,15.007,4.764,22.218
		c0.148,0.428,0.372,0.891,0.333,1.317c-0.528,5.805,1.618,11.398,1.243,17.229c-0.211,3.301,0.47,6.607,1.711,9.807
		c0.865,2.23,0.956,4.752,1.529,7.111c0.498,2.049,1.242,4.039,1.777,6.082c0.459,1.754,0.614,3.596,1.185,5.305
		c1.333,3.986,1.089,8.088,1.135,12.172c0.017,1.531-0.618,2.33-2.109,2.422c-1.666,0.102-3.345-0.006-5.018-0.021
		C530.368,361.402,530.365,361.504,530.361,361.605z"/>
	<path fill-rule="evenodd" clip-rule="evenodd" fill="#FFFFFF" d="M266.221,313.643c0.089,12.629,0.192,25.254,0.25,37.881
		c0.008,1.824-0.075,3.666-0.344,5.463c-0.408,2.732-1.61,3.709-4.266,3.73c-2.431,0.02-4.869,0.09-7.293-0.045
		c-2.35-0.133-3.334-1.027-3.56-3.357c-0.367-3.783-0.758-7.584-0.74-11.375c0.028-6.072,0.461-12.145,0.572-18.219
		c0.081-4.393-0.079-8.791-0.133-13.186c-0.04-3.193-0.138-6.389-0.116-9.58c0.091-12.78,0.159-25.561,0.362-38.338
		c0.077-4.859,0.5-9.712,0.751-14.569c0.062-1.214,0.233-2.453,0.075-3.644c-0.762-5.774,0.118-11.529,0.129-17.292
		c0.005-2.707,1.019-3.828,3.604-3.398c6.369,1.059,12.751,0.521,19.126,0.711c1.451,0.043,2.942,0.675,4.3,1.288
		c1.296,0.586,2.23,1.783,2.26,3.223c0.044,2.107-0.034,4.254-0.405,6.321c-0.319,1.776-1.653,2.895-3.517,3.111
		c-1.963,0.229-3.935,0.385-5.906,0.529c-0.908,0.066-1.832-0.048-2.736,0.049c-2.93,0.312-3.868,1.671-3.681,4.572
		c0.479,7.429,0.884,14.863,1.206,22.299c0.165,3.798,0.156,7.608,0.089,11.411c-0.028,1.649-0.378,3.295-0.621,4.938
		c-0.39,2.65,0.65,4.14,3.271,4.403c1.357,0.137,2.737,0.037,4.106,0.042c3.346,0.011,6.724-0.253,10.03,0.115
		c2.95,0.329,5.746-0.432,8.622-0.458c1.177-0.011,1.986-0.701,2.538-1.686c1.482-2.648,2.949-5.304,4.411-7.963
		c0.438-0.799,0.736-1.695,1.269-2.42c2.839-3.863,4.54-8.301,6-12.76c1.848-5.638,2.984-11.477,2.704-17.487
		c-0.029-0.606-0.094-1.214-0.184-1.815c-0.31-2.069-1.543-3.319-3.578-3.574c-1.648-0.206-3.337-0.278-4.995-0.187
		c-5.348,0.297-6.443-1.067-6.335-6.83c0.063-3.383,1.28-4.644,4.522-5.346c3.601-0.778,7.235-0.949,10.868-0.137
		c0.742,0.166,1.488,0.47,2.228,0.458c3.767-0.058,5.362,2.393,6.375,5.467c0.378,1.147,0.515,2.376,0.749,3.57
		c0.584,2.983,1.427,5.946,1.679,8.958c0.365,4.379,0.35,8.794,0.382,13.195c0.007,0.864-0.346,1.83-0.806,2.583
		c-2.791,4.571-3.312,9.765-3.793,14.86c-0.302,3.197-1.344,6.052-3.097,8.404c-2.154,2.889-5.002,5.295-7.739,7.694
		c-0.809,0.708-2.254,0.946-3.412,0.958c-5.014,0.055-10.03-0.051-15.045-0.105c-0.303-0.003-0.605-0.102-0.907-0.094
		c-4.684,0.112-9.331,1.163-14.047,0.525c-0.429-0.057-0.898,0.138-1.343,0.237c-3.072,0.681-4.154,1.967-4.192,5.012
		c-0.048,3.953-0.08,7.904-0.119,11.855C265.935,313.643,266.078,313.645,266.221,313.643z"/>
	<path fill-rule="evenodd" clip-rule="evenodd" fill="#FFFFFF" d="M724.885,299.587c-0.99,3.549,0.22,6.483,1.457,9.477
		c0.982,2.375,1.842,4.85,2.341,7.361c0.829,4.174,1.479,8.396,1.931,12.627c0.956,8.916,1.76,17.85,2.578,26.779
		c0.306,3.346-1.325,5.08-4.428,4.746c-0.702-0.072-1.532-0.4-2.008-0.898c-1.928-2.006-3.521-4.242-3.442-7.211
		c0.094-3.547-0.916-6.885-1.619-10.311c-0.915-4.449-1.164-9.035-1.7-13.561c-0.554-4.68-1.108-9.359-1.665-14.039
		c-0.036-0.303-0.045-0.631-0.172-0.895c-2.282-4.754-2.196-10.064-3.5-15.052c-0.569-2.183-0.661-4.504-0.819-6.772
		c-0.327-4.707-0.778-9.353-2.007-13.964c-0.885-3.324-0.889-6.884-1.27-10.341c-0.149-1.359-0.078-2.767-0.41-4.076
		c-0.945-3.717-1.178-7.497-1.436-11.297c-0.111-1.631-0.636-3.271-1.199-4.824c-0.684-1.887-2.23-2.884-4.205-3.009
		c-2.427-0.154-4.865-0.251-7.296-0.204c-2.72,0.051-4.614,1.353-5.346,4.094c-0.511,1.911-1.156,3.794-1.538,5.73
		c-1.414,7.193-3.752,14.101-6.255,20.966c-1.196,3.279-2.331,6.58-3.47,9.878c-0.246,0.716-0.464,1.457-0.572,2.204
		c-0.26,1.77,0.451,2.905,2.205,3.471c0.86,0.278,1.774,0.477,2.676,0.542c3.479,0.246,6.965,0.594,10.445,0.577
		c3.213-0.016,5.612,0.941,7.023,3.974c0.511,1.096,1.366,2.034,1.85,3.138c0.263,0.602,0.358,1.594,0.031,2.067
		c-0.58,0.84-1.321,0.205-1.893-0.32c-0.557-0.517-1.089-1.062-1.646-1.579c-1.173-1.088-2.576-1.568-4.163-1.576
		c-4.866-0.021-9.734-0.107-14.601-0.06c-4.392,0.043-4.892,0.496-6.161,4.533c-2.375,7.543-4.885,15.045-7.13,22.627
		c-1.55,5.236-2.611,10.619-4.144,15.863c-1.704,5.836-3.68,11.592-5.566,17.371c-0.781,2.391-2.442,3.805-4.962,4.113
		c-2.104,0.258-4.211,0.488-6.32,0.684c-2.34,0.217-3.433-0.969-2.96-3.309c0.271-1.336,0.728-2.639,1.158-3.938
		c2.009-6.059,3.967-12.137,6.081-18.162c2.112-6.016,4.392-11.971,6.593-17.955c0.156-0.428,0.319-0.861,0.407-1.305
		c2.132-10.766,6.39-20.872,9.679-31.279c1.737-5.494,3.075-11.125,5.021-16.54c3.075-8.562,4.385-17.727,8.94-25.792
		c1.03-1.822,1.427-4.002,2.112-6.019c0.44-1.294,0.902-2.583,1.309-3.888c0.716-2.297,2.339-3.624,4.638-3.816
		c2.707-0.227,5.441-0.189,8.163-0.158c2.565,0.029,5.134,0.151,7.696,0.321c2.409,0.16,4.83,0.324,7.212,0.702
		c1.488,0.236,2.418,1.407,2.476,2.908c0.196,5.169,1.615,10.159,2.137,15.278c0.432,4.228,0.899,8.454,1.468,12.664
		c0.263,1.949,0.577,3.944,1.258,5.773c2.633,7.076,3.364,14.492,4.171,21.899C724.401,293.128,724.62,296.466,724.885,299.587z"/>
	<path fill-rule="evenodd" clip-rule="evenodd" fill="#FFFFFF" d="M371.031,304.498c0.013,0.152,0.047,0.305,0.038,0.455
		c-0.064,1.143,0.534,2.686-1.044,3.098c-1.256,0.33-1.566-1.158-2.27-1.889c-3.049-3.17-6.094-6.346-9.221-9.44
		c-1.768-1.75-3.763-1.445-4.805,0.764c-0.49,1.039-0.623,2.306-0.665,3.477c-0.038,1.043,0.564,2.15,0.385,3.137
		c-1.396,7.709,0.606,15.393,0.022,23.117c-0.363,4.811,0.338,9.697,0.474,14.551c0.118,4.248,0.125,8.5,0.15,12.75
		c0.006,0.908-0.065,1.826-0.196,2.725c-0.197,1.354-1.048,2.27-2.363,2.441c-2.405,0.316-4.831,0.521-7.255,0.635
		c-1.512,0.074-2.593-0.725-3.119-2.189c-0.725-2.018-1.372-3.971-0.356-6.162c1.058-2.283,0.839-4.721,0.404-7.17
		c-0.343-1.932-0.528-3.91-0.566-5.873c-0.145-7.443-0.201-14.885-0.289-22.328c-0.002-0.152-0.023-0.305-0.009-0.457
		c0.85-8.684-0.588-17.252-1.255-25.864c-0.281-3.621,0.224-7.327-0.292-10.898c-1.071-7.423-0.767-14.857-0.623-22.278
		c0.102-5.295-0.09-10.616,0.628-15.901c0.179-1.316-0.151-2.7-0.232-4.054c-0.074-1.209-0.207-2.422-0.168-3.629
		c0.042-1.314,0.737-2.382,1.949-2.847c0.606-0.233,1.523-0.165,2.09,0.148c0.609,0.336,1.147,1.048,1.413,1.718
		c1.055,2.662,2.001,5.368,2.972,8.063c1.643,4.567,2.654,9.502,5.068,13.615c2.952,5.029,4.521,10.605,7.351,15.634
		c1.185,2.107,2.014,4.419,2.955,6.66c2.411,5.741,4.89,11.456,7.134,17.261c0.749,1.938,0.925,4.11,1.258,6.191
		c0.24,1.498,0.307,3.023,0.453,4.537C371.042,304.496,371.036,304.498,371.031,304.498z"/>
	<path fill-rule="evenodd" clip-rule="evenodd" fill="#FFFFFF" d="M377.274,299.172c-1.217-5.701,1.423-10.277,3.999-15.048
		c2.595-4.804,4.553-9.952,6.782-14.954c0.248-0.555,0.396-1.156,0.667-1.698c4.758-9.529,9.538-19.046,14.281-28.582
		c0.604-1.217,0.968-2.551,1.543-3.786c0.441-0.948,0.979-1.866,1.584-2.719c0.408-0.576,1.771-0.241,1.877,0.46
		c0.134,0.885,0.157,1.799,0.115,2.695c-0.165,3.49-0.405,6.976-0.561,10.466c-0.322,7.284-0.631,14.569-0.896,21.855
		c-0.068,1.821-0.119,3.667,0.098,5.469c0.818,6.812,0.608,13.625,0.402,20.458c-0.094,3.161,0.639,6.339,0.923,9.519
		c0.216,2.408,0.399,4.828,0.454,7.248c0.234,10.633-1.092,21.264,0.244,31.912c0.473,3.742,0.076,7.6-0.019,11.402
		c-0.025,1.045-0.292,2.117-0.617,3.121c-0.449,1.377-1.452,2.354-2.847,2.75c-2.58,0.732-5.168,0.498-7.577-0.582
		c-0.667-0.297-1.315-1.389-1.373-2.162c-0.258-3.48-0.6-6.998-0.356-10.463c0.415-5.912,1.315-11.789,1.85-17.695
		c0.146-1.621-0.13-3.334-0.493-4.941c-0.509-2.262-0.806-4.494-0.311-6.779c1.145-5.285,0.5-10.609,0.284-15.916
		c-0.086-2.12-0.464-4.232-0.781-6.339c-0.164-1.087-0.631-2.061-1.771-2.466c-1.338-0.477-2.402,0.093-3.236,1.075
		c-1.083,1.275-2.013,2.686-3.125,3.931c-3.038,3.4-6.118,6.768-9.229,10.102c-0.619,0.664-1.534,0.311-1.673-0.604
		c-0.16-1.045-0.247-2.107-0.271-3.166C377.208,302.215,377.26,300.693,377.274,299.172z"/>
	<path fill-rule="evenodd" clip-rule="evenodd" fill="#FFFFFF" d="M627.412,247.764c0.048,4.547-0.202,9.101,1.228,13.558
		c0.43,1.345,0.342,3.084-0.109,4.442c-1.474,4.439-1.591,8.922-1.203,13.509c0.178,2.1-0.019,4.228-0.008,6.343
		c0.028,4.855,0.074,9.709,0.124,14.563c0.011,1.061,0.258,2.158,0.073,3.18c-0.902,4.996-0.396,10.014-0.352,15.018
		c0.104,11.092,0.254,22.182,0.41,33.271c0.02,1.363,0.215,2.723,0.279,4.084c0.051,1.057,0.185,2.146,0.005,3.172
		c-0.459,2.617-2.643,4.193-5.276,3.914c-0.904-0.096-1.786-0.381-2.688-0.5c-1.724-0.225-2.858-1.234-3.181-2.836
		c-0.385-1.912-0.76-3.92-0.574-5.83c0.4-4.104,0.736-8.172,0.02-12.264c-0.078-0.445-0.127-0.918-0.07-1.361
		c0.931-7.133-0.543-14.264,0.001-21.396c0.058-0.748-0.109-1.512-0.147-2.27c-0.203-4.09-0.399-8.182-0.594-12.273
		c-0.159-3.334-0.31-6.667-0.471-9.998c-0.023-0.455-0.202-0.925-0.131-1.358c0.817-4.847,0.125-9.704,0.117-14.555
		c-0.003-1.741,0.366-3.173,1.732-4.479c1.45-1.387,1.466-1.971,0.271-3.548c-1.075-1.419-1.552-2.9-1.655-4.613
		c-0.1-1.667-0.43-3.328-0.432-4.993c-0.01-6.839-0.254-13.658-1.109-20.457c-0.204-1.625-0.093-3.355,0.226-4.968
		c0.538-2.728,2.153-3.849,4.865-3.752c0.303,0.011,0.606,0.054,0.908,0.086c5.685,0.6,7.773,2.87,7.81,8.557
		C627.496,242.595,627.438,245.18,627.412,247.764z"/>
	<path fill-rule="evenodd" clip-rule="evenodd" fill="#FFFFFF" d="M547.584,330.219c0.057-5.771,0.114-11.543,0.169-17.316
		c0.003-0.307,0.015-0.611-0.009-0.914c-0.88-11.529-0.62-23.116-1.941-34.633c-0.516-4.503-0.184-9.112-0.129-13.67
		c0.044-3.493,0.21-6.986,0.417-10.473c0.134-2.261,0.256-4.548,0.702-6.759c1.412-7.008,6.575-10.648,12.518-13.501
		c1.043-0.501,2.332,0.167,2.373,1.352c0.121,3.337,0.221,6.692-0.02,10.014c-0.072,1.013-1.082,2.227-2,2.856
		c-2.194,1.504-2.684,3.414-2.428,5.918c0.375,3.628,0.444,7.269,0.111,10.935c-0.175,1.918,0.104,3.977,0.644,5.838
		c0.779,2.691,1.062,5.359,0.814,8.116c-0.258,2.88-0.543,5.758-0.771,8.641c-0.084,1.056-0.221,2.159-0.015,3.176
		c1.559,7.669,1.292,15.442,1.297,23.188c0.004,7.15-0.224,14.305-0.501,21.451c-0.073,1.883,0.258,3.439,1.972,4.213
		c2.786,1.258,3.567,3.525,3.708,6.275c0.1,1.979,0.221,3.955,0.421,5.922c0.182,1.799,0.425,3.596,0.744,5.375
		c0.354,1.979,0.92,4.342-0.904,5.49c-2.044,1.287-3.843-0.654-4.951-2.139c-3.356-4.498-7.818-8.113-10.36-13.277
		c-1.384-2.812-2.169-5.652-2.09-8.77c0.062-2.434,0.055-4.869,0.079-7.307C547.485,330.219,547.534,330.221,547.584,330.219z"/>
	<path fill-rule="evenodd" clip-rule="evenodd" fill="#FFFFFF" d="M601.438,255.029c0.121,2.427,0.262,4.853,0.353,7.28
		c0.041,1.058,0.084,2.134-0.054,3.179c-0.267,2.012-1.206,3.016-3.201,3.262c-1.65,0.205-3.342,0.284-5,0.192
		c-3.458-0.192-4.936-1.677-5.101-5.11c-0.103-2.122,0.011-4.252,0.023-6.379c0.007-1.215,0.063-2.434-0.001-3.646
		c-0.21-3.987-2.468-6.485-6.425-6.954c-2.104-0.249-4.238-0.257-6.36-0.353c-0.907-0.041-1.83,0.068-2.724-0.058
		c-1.98-0.275-3.229-1.255-3.265-3.197c-0.062-3.167,0.217-6.349,0.49-9.512c0.098-1.126,0.986-1.883,2.085-2.188
		c0.869-0.24,1.794-0.516,2.671-0.454c4.846,0.344,9.695,0.683,14.521,1.226c5.099,0.574,8.606,3.78,11.093,7.912
		c1.017,1.691,1.089,4.066,1.217,6.152c0.174,2.87-0.007,5.761-0.035,8.644C601.63,255.028,601.532,255.029,601.438,255.029z"/>
	<path fill-rule="evenodd" clip-rule="evenodd" fill="#FFFFFF" d="M603.791,335.625c-0.415,4.227-0.786,8.455-1.284,12.67
		c-0.101,0.852-0.479,1.871-1.086,2.432c-3.673,3.398-7.401,6.738-11.203,9.992c-2.457,2.104-5.365,2.674-8.547,2.014
		c-1.634-0.338-3.295-0.551-4.95-0.762c-1.398-0.178-2.266-0.973-2.472-2.289c-0.233-1.48-0.522-3.047-0.273-4.488
		c0.321-1.854,0.114-3.572-0.099-5.395c-0.263-2.234-0.144-4.541,0.052-6.797c0.163-1.873,1.107-2.596,3.077-2.6
		c1.669-0.006,3.341,0.121,5.002,0.297c1.857,0.191,3.6-0.049,5.347-0.74c3.596-1.424,5.013-2.939,4.336-6.865
		c-0.175-1.025-0.08-2.127,0.062-3.17c0.404-2.938,1.54-4.002,4.395-4.236c0.603-0.051,1.216-0.029,1.818,0.02
		c4.823,0.396,5.661,1.322,5.675,6.258c0.004,1.215-0.021,2.432-0.033,3.646C603.668,335.615,603.729,335.621,603.791,335.625z"/>
	<path fill-rule="evenodd" clip-rule="evenodd" fill="#FFFFFF" d="M291.537,302.584c1.664,0.127,2.726,0.213,3.788,0.289
		c1.771,0.131,3.278,0.855,4.278,2.303c1.723,2.488,3.419,4.955,4.713,7.764c2.743,5.959,4.424,12.26,6.607,18.396
		c0.609,1.705,1.616,3.266,2.345,4.936c0.599,1.373,1.065,2.807,1.574,4.219c0.306,0.85,0.389,1.854,0.904,2.539
		c2.821,3.771,3.047,8.551,5.038,12.658c1.14,2.352-0.17,4.131-2.78,4.559c-1.04,0.172-2.12,0.205-3.174,0.152
		c-2.038-0.102-3.521-1.08-3.917-3.164c-1.624-8.543-6.106-15.883-10.243-23.268c-2.687-4.797-5.292-9.541-7.071-14.738
		c-0.289-0.842-0.762-1.68-1.347-2.348c-2.354-2.686-3.57-5.994-5.126-9.113c-0.335-0.672-0.571-1.418-0.715-2.156
		c-0.306-1.555,0.489-2.621,2.093-2.93c0.298-0.055,0.602-0.111,0.903-0.113C290.317,302.562,291.229,302.58,291.537,302.584z"/>
</g>
</svg>
