<?xml version="1.0" encoding="utf-8"?>
<!-- Generator: Adobe Illustrator 16.0.0, SVG Export Plug-In . SVG Version: 6.00 Build 0)  -->
<!DOCTYPE svg PUBLIC "-//W3C//DTD SVG 1.1//EN" "http://www.w3.org/Graphics/SVG/1.1/DTD/svg11.dtd">
<svg version="1.1" id="Layer_1" xmlns="http://www.w3.org/2000/svg" xmlns:xlink="http://www.w3.org/1999/xlink" x="0px" y="0px"
	 width="800px" height="600px" viewBox="0 0 800 600" enable-background="new 0 0 800 600" xml:space="preserve">
<path fill-rule="evenodd" clip-rule="evenodd" fill="#FFFFFF" d="M169.481,269.837c7.336,0,14.121,0,20.97,0
	c-0.356,7.795,4.748,13.287,8.595,19.276c3.623,5.642,7.457,11.16,11.426,16.565c3.664,4.989,7.596,9.785,11.473,14.615
	c4.196,5.228,8.502,10.368,12.589,15.679c0.186,0.241-1.288,2.562-2.048,2.596c-4.673,0.209-9.363-0.003-14.047,0.012
	c-2.978,0.009-5.953,0.209-8.931,0.224c-0.653,0.003-1.606-0.218-1.916-0.676c-2.816-4.182-5.449-8.488-8.283-12.657
	c-2.217-3.261-4.755-6.305-6.942-9.584c-1.812-2.717-3.081-5.812-5.007-8.433c-6.05-8.231-12.298-16.315-18.463-24.462
	c-1.046-1.382-2.149-2.735-3.043-4.213c-0.399-0.659-0.735-1.802-0.432-2.365C166.688,274.066,168.208,271.854,169.481,269.837z"/>
<g id="_x33_hgrTf_1_">
	<g>
		<path fill-rule="evenodd" clip-rule="evenodd" fill="#FFFFFF" d="M592.699,344.958c-1.15-1.523-1.761-3.125,0.891-4.626
			c3.873-2.191,2.507-6.204,2.592-9.381c0.196-7.161-0.379-14.338-0.453-21.511c-0.09-8.634-0.046-17.271,0.066-25.906
			c0.042-3.204-1.609-4.802-4.35-5.91c-0.8-0.324-1.278-1.446-1.904-2.203c0.867-0.591,1.713-1.659,2.604-1.698
			c7.038-0.312,14.086-0.576,21.129-0.568c8.478,0.009,16.956,0.335,25.434,0.452c4.948,0.069,9.904-0.17,14.844,0.037
			c17.852-0.247,28.089,2.796,33.742,6.542c5,3.314,5.941,11.312,4.401,17.724c-1.018,4.237-5.137,7.042-7.678,10.583
			c-0.291,0.405-0.421,0.929-0.683,1.527c2.339,0.864,15.287,6.344,15.453,18.343c0.165,11.999-24.9,16.809-32.785,16.918
			s-15.776-0.253-23.664-0.414c-10.469-0.215-20.938-0.424-31.403-0.762c-0.894-0.028-1.756-1-2.632-1.534
			c0.701-0.517,1.387-1.444,2.11-1.478c2.559-0.112,5.134,0.202,7.696,0.128c2.984-0.089,5.96-0.489,8.945-0.623
			c6.078-0.271,12.17-0.322,18.24-0.711c6.84-0.439,12.431-3.456,15.754-9.526c0.947-1.729,0.131-4.371,0.325-6.576
			c0.567-6.429-5-7.087-8.769-8.326c-4.875-1.604-10.242-1.833-15.43-2.335c-6.352-0.611-12.731-0.96-19.107-1.275
			c-2.058-0.102-4.139,0.381-6.208,0.364c-0.927-0.006-1.849-0.583-2.774-0.902c0.728-1.234,1.285-2.631,2.248-3.641
			c0.503-0.528,1.715-0.504,2.609-0.516c8.125-0.106,16.257-0.007,24.373-0.302c4.131-0.15,8.693-0.037,12.232-1.754
			c3.855-1.872,7.871-5.157,9.75-8.871c1.861-3.68,1.094-8.539-1.795-12.53c-3.087-4.267-7.384-4.479-11.946-4.573
			c-8.275-0.17-16.547-0.632-24.819-0.666c-5.591-0.021-11.196,0.354-16.765,0.886c-0.861,0.082-2.177,1.92-2.228,2.996
			c-0.533,11.453-0.915,22.915-1.203,34.377c-0.146,5.705,0.039,11.417-0.026,17.124c-0.034,3.015-0.06,6.067-0.583,9.013
			c-0.149,0.837-1.966,1.665-3.148,1.954C596.352,345.158,594.778,344.929,592.699,344.958z"/>
		<path fill-rule="evenodd" clip-rule="evenodd" fill="#FFFFFF" d="M288.162,271.611c5.969-0.083,11.943-0.339,17.902-0.133
			c1.619,0.056,3.735,1.104,4.692,2.389c4.728,6.35,9.218,12.882,13.65,19.445c5.476,8.109,10.72,16.377,16.238,24.456
			c4.089,5.986,8.457,11.783,12.7,17.664c0.106,0.146,0.201,0.308,0.331,0.433c1.333,1.288,4.266,2.285,2.453,4.486
			c-0.978,1.188-3.792,1.134-5.785,1.159c-5.603,0.073-11.209-0.076-16.813-0.191c-2.159-0.046-4.331-0.119-6.461-0.426
			c-0.677-0.099-1.447-0.896-1.765-1.568c-0.155-0.329,0.796-1.06,0.951-1.683c0.277-1.109,0.882-2.668,0.391-3.355
			c-6.017-8.415-12.328-16.621-18.325-25.05c-8.131-11.428-16.065-22.996-24.036-34.537c-0.389-0.562-0.609-1.974-0.398-2.093
			C285.171,271.876,288.105,271.356,288.162,271.611z"/>
		<path fill-rule="evenodd" clip-rule="evenodd" fill="#FFFFFF" d="M506.862,274.614c7.335-0.102,14.119-0.195,20.968-0.291
			c-0.249,7.799,4.932,13.22,8.86,19.155c3.701,5.591,7.611,11.056,11.654,16.406c3.733,4.938,7.73,9.679,11.674,14.455
			c4.269,5.169,8.645,10.25,12.806,15.502c0.188,0.239-1.254,2.579-2.013,2.625c-4.669,0.273-9.362,0.126-14.045,0.206
			c-2.978,0.05-5.949,0.291-8.928,0.347c-0.652,0.013-1.608-0.195-1.925-0.648c-2.873-4.144-5.565-8.412-8.458-12.542
			c-2.262-3.229-4.841-6.238-7.073-9.486c-1.851-2.691-3.161-5.769-5.124-8.363c-6.163-8.147-12.521-16.143-18.8-24.204
			c-1.064-1.367-2.187-2.706-3.101-4.17c-0.408-0.653-0.761-1.792-0.465-2.358C504.128,278.882,505.618,276.649,506.862,274.614z"/>
		<path fill-rule="evenodd" clip-rule="evenodd" fill="#FFFFFF" d="M751.162,339.896c0.708,1.488,4.251,4.032,4.731,4.527
			c-0.591,0.524-30.127,0.296-32.839,0.445c-0.452,0.025-0.905,0.016-1.356,0.022c2.959-3.136,7.079-2.713,8.366-6.294
			c1.399-3.899,0.275-46.843-0.379-56.347c-0.277-4.016-3.821-3.028-7.41-4.592c-1.082-0.472-0.356-3.994,0.729-4.002
			c6.071-0.044,12.143,0.187,18.214,0.376c5.296,0.166,10.604,0.252,15.875,0.714c1.241,0.109,3.066,1.4,3.353,2.483
			c0.325,1.23-6.253,1.29-8.636,2.905c-0.445,0.302-0.65,7.135-0.664,7.732C750.879,300.393,750.192,337.861,751.162,339.896z"/>
		<path fill-rule="evenodd" clip-rule="evenodd" fill="#FFFFFF" d="M68.441,278.842c-0.313-1.077-1.217-2.821-0.894-3.086
			c0.961-0.785,2.388-1.313,3.654-1.36c6.443-0.238,12.919,0.018,19.329-0.54c3.385-0.294,4.323,1.894,4.334,3.795
			c0.027,4.65,34.047,44.4,39.525,51.478c0.621,0.802,1.023,2.23,0.775,3.167c-1.038,3.927-9.322,10.716-13.332,10.64
			c-1.291-0.025-2.77-1.594-3.773-2.785c-1.944-2.309-40.402-51.837-45.238-57.644c-0.937-1.125-2.291-1.905-3.452-2.845
			C69.151,279.85,68.572,279.292,68.441,278.842z"/>
		<path fill-rule="evenodd" clip-rule="evenodd" fill="#FFFFFF" d="M407.009,274.369c5.719-0.079,11.208-0.251,16.697-0.202
			c4.867,0.043,6.606,4.417,9.233,7.325c4.674,5.175,9.016,10.653,13.428,16.061c4.193,5.138,8.268,10.373,12.447,15.521
			c4.649,5.726,9.37,11.393,14.025,17.114c0.418,0.516,0.855,1.261,0.812,1.866c-0.139,1.934-7.996,10.406-9.743,10.113
			c-2.325-0.389-5.163-0.971-6.645-2.542c-4.696-4.982-8.951-10.396-13.216-15.769c-5.818-7.328-11.485-14.774-17.226-22.164
			c-6.239-8.034-12.526-16.033-18.688-24.126C407.367,276.558,407.239,275.062,407.009,274.369z"/>
		<path fill-rule="evenodd" clip-rule="evenodd" fill="#FFFFFF" d="M272.76,312.35c-2.984-0.014-4.18,1.245-5.426,3.335
			c-4.691,7.859-9.436,15.687-14.137,23.54c-1.364,2.28-3.711,2.541-5.106,1.061c-0.626-0.665,0.75-3.64,1.701-5.288
			c2.775-4.808,5.747-9.506,8.733-14.187c2.539-3.982,5.295-7.825,7.786-11.836c2.683-4.317,5.146-8.771,7.749-13.142
			c3.258-5.473,6.56-10.92,9.868-16.419c2.929,0.837,3.15,2.439,1.466,5.103c-3.355,5.307-6.302,10.872-9.415,16.333
			c-0.207,0.363-0.422,0.73-0.559,1.122c-0.461,1.326-1.645,3.266-1.166,3.866c0.899,1.129,2.744,2.013,4.234,2.074
			c6.945,0.288,13.904,0.21,20.855,0.391c1.395,0.036,3.077,0.259,4.063,1.076c0.695,0.575,0.437,2.301,0.604,3.514
			c-0.897,0.119-1.793,0.345-2.69,0.342c-3.186-0.013-6.376-0.031-9.555-0.213C290.992,312.977,278.436,312.377,272.76,312.35z"/>
		<path fill-rule="evenodd" clip-rule="evenodd" fill="#FFFFFF" d="M750.701,264.397c-6.529,0.091-21.078-0.292-21.824-0.574
			c0.333-0.69,0.545-1.479,1.019-2.057c3.398-4.151,5.776-7.324,9.333-11.337c2.012-2.269,3.627-4.663,7.863-3.774
			c4.817,1.01,18.278,0.161,19.422,0.554c-0.711,0.79-1.493,1.527-2.12,2.378c-1.993,2.701-9.456,12.396-11.368,14.386
			C752.536,264.482,750.731,264.521,750.701,264.397z"/>
		<path fill-rule="evenodd" clip-rule="evenodd" fill="#FFFFFF" d="M33.035,341.749c-0.02-1.437,5.71-3.643,6.433-5.089
			c0.722-1.447,22.984-46.344,25.559-49.752c0.511-0.677,3.012-0.077,4.463,0.366c0.312,0.095,0.452,2.269-0.004,3.126
			c-2.955,5.552-6.179,10.961-9.157,16.502c-3.988,7.42-7.866,14.898-11.723,22.387c-1.343,2.606-2.522,5.301-3.666,8.001
			c-0.129,0.305,0.384,0.976,0.725,1.366c0.729,0.835,2.314,2.229,2.331,3.392C48.011,343.209,33.055,343.187,33.035,341.749z"/>
		<path fill-rule="evenodd" clip-rule="evenodd" fill="#FFFFFF" d="M370.796,338.047c4.74,1.48,5.976-0.976,7.391-4.111
			c3.322-7.359,7.08-14.521,10.677-21.757c3.124-6.281,6.244-12.565,9.418-18.821c1.444-2.845,2.868-5.722,4.624-8.372
			c0.453-0.684,2.368-1.056,3.157-0.662c0.675,0.336,1.283,2.263,0.924,2.997c-4.469,9.123-9.073,18.181-13.742,27.206
			c-3.515,6.794-7.18,13.509-10.765,20.268c-1.108,2.091-0.388,3.206,1.907,3.453c0.774,0.083,1.618,0.085,2.29,0.411
			c0.708,0.347,1.25,1.034,1.864,1.572c-0.665,0.693-1.231,1.805-2.016,1.991c-1.724,0.408-3.557,0.409-5.349,0.463
			c-3.306,0.099-6.621,0.242-9.918,0.078c-0.882-0.044-2.521-1.406-2.425-1.692C369.225,339.916,370.16,338.946,370.796,338.047z"/>
		<path fill-rule="evenodd" clip-rule="evenodd" fill="#FFFFFF" d="M503.687,288.73c-0.857,1.165-1.401,1.839-1.877,2.558
			c-3.918,5.923-7.751,11.904-11.757,17.767c-2.732,3.998-5.739,7.806-8.541,11.757c-1.32,1.863-2.313,3.968-3.727,5.746
			c-0.485,0.608-1.801,0.556-2.736,0.806c-0.149-0.945-0.754-2.166-0.375-2.794c2.938-4.881,6.041-9.667,9.146-14.446
			c3.451-5.315,6.973-10.584,10.436-15.891c1.554-2.38,3.001-4.831,4.595-7.183c0.316-0.467,1.315-1.028,1.6-0.861
			C501.55,286.831,502.487,287.75,503.687,288.73z"/>
		<path fill-rule="evenodd" clip-rule="evenodd" fill="#FFFFFF" d="M137.311,323.726c1.823-2.694,23.308-34.045,24.39-34.977
			c0.635-0.546,2.31-0.922,2.629-0.57c0.612,0.675,1.138,2.282,0.747,2.878c-3.685,5.62-19.434,28.103-23.515,33.792
			c-0.368,0.514-1.374,1.099-1.795,0.931C138.938,325.448,138.311,324.61,137.311,323.726z"/>
	</g>
</g>
</svg>
