<?xml version="1.0" encoding="utf-8"?>
<!-- Generator: Adobe Illustrator 16.0.0, SVG Export Plug-In . SVG Version: 6.00 Build 0)  -->
<!DOCTYPE svg PUBLIC "-//W3C//DTD SVG 1.1//EN" "http://www.w3.org/Graphics/SVG/1.1/DTD/svg11.dtd">
<svg version="1.1" id="Layer_1" xmlns="http://www.w3.org/2000/svg" xmlns:xlink="http://www.w3.org/1999/xlink" x="0px" y="0px"
	 width="800px" height="600px" viewBox="0 0 800 600" enable-background="new 0 0 800 600" xml:space="preserve">
<g>
	<path fill-rule="evenodd" clip-rule="evenodd" fill="#FFFFFF" d="M197.729,352.255c-1.054-2.234-2.391-4.38-3.114-6.716
		c-3.989-12.901-1.898-25.068,4.773-36.609c0.187-0.322,0.404-0.627,0.595-0.948c3.069-5.132,3.19-5.34-1.751-8.218
		c-9.99-5.82-20.056-11.517-30.222-17.022c-8.36-4.528-16.821-8.891-25.401-12.982c-7.76-3.7-10.926-2.927-16.573,3.64
		c-2.158,2.509-4.447,3.051-7.436,2.173c-7.213-2.117-11.019-6.584-11.209-14.202c-0.201-7.982,1.625-15.205,6.859-21.852
		c11.305-14.353,22.18-29.062,32.794-43.937c13.003-18.221,25.561-36.76,38.312-55.163c0.105-0.153,0.226-0.297,0.326-0.455
		c4.677-7.257,6.417-8.397-4.914-11.55c-6.083-1.693-12.346-2.734-18.449-4.359c-1.95-0.52-10.703-1.684-13.375-1.986
		c-11.706-1.321-23.412-2.336-35.189-1.533c-5.578,0.38-11.228,0.69-16.672,1.847c-11.562,2.458-21.086,8.296-27.555,18.51
		c-0.699,1.104-1.338,2.265-2.178,3.252c-2.608,3.067-3.021,6.292-0.999,9.811c0.837,1.458,1.903,3,0.365,4.575
		c-1.674,1.713-3.443,0.642-5.164-0.068c-14.352-5.927-18.461-25.418-8.281-37.057c8.763-10.02,19.997-14.104,32.627-14.967
		c9.857-0.673,19.743-0.457,29.544,1.562c15.325,3.158,30.717,5.987,46.07,9.006c1.446,0.285,18.22,5.038,21.614,6.013
		c1.252,0.359,2.482,0.809,3.696,1.286c5.229,2.053,9.175,1.09,13.411-3.206c9.809-9.949,20.202-19.341,30.626-28.656
		c6.329-5.655,14.317-7.969,22.587-8.805c9.601-0.971,21.957,7.877,24.091,17.331c0.558,2.476,0.086,5.834-1.23,7.979
		c-9.678,15.751-23.333,25.981-42.052,28.285c-13.93,1.714-14.013,1.479-21.941,13.053c-10.858,15.851-21.551,31.816-32.435,47.649
		c-9.612,13.984-19.385,27.857-29.096,41.773c-2.383,3.415-2.08,4.372,1.873,6.136c14.002,6.249,27.329,13.656,39.911,22.477
		c7.626,5.346,15.702,10.052,23.577,15.043c3.663,2.322,6.829,2.09,10.827-0.22c10.843-6.266,22.458-10.879,34.57-14.268
		c24.225-6.777,48.943-10.149,74.028-10.693c13.781-0.299,27.598-0.104,41.232,2.508c1.274,0.244,2.597,0.398,3.79,0.868
		c1.755,0.689,3.152,0.631,4.564-0.807c0.693-0.705,1.963-1.498,2.773-1.323c3.319,0.715,5.103-1.138,7.156-3.251
		c4.543-4.678,9.872-8.677,13.934-13.716c6.183-7.674,11.6-15.968,17.271-24.05c2.354-3.355,4.797-6.694,6.7-10.304
		c2.153-4.083,3.713-8.476,5.604-12.701c0.432-0.964,1.157-1.797,2.104-3.231c5.314,3.642,10.104,7.384,13.753,12.31
		c1.97,2.661,0.103,5.393-1.198,7.847c-3.229,6.1-6.65,12.1-9.814,18.233c-2.65,5.139-5.06,10.402-7.543,15.626
		c-0.476,0.999-0.99,2.046-1.141,3.119c-0.279,2.016,1.218,3.34,3.115,2.598c1.512-0.592,2.928-1.631,4.145-2.737
		c10.353-9.408,20.844-18.675,30.886-28.405c5.332-5.167,9.806-11.212,14.763-16.775c3.341-3.748,4.144-8.07,4.056-12.956
		c-0.09-5.002,0.249-10.061,0.95-15.018c1.083-7.667,5.101-13.926,10.479-19.355c5.975-6.029,15.605-4.723,19.873,2.627
		c1.268,2.185,0.156,3.466-1.414,4.726c-2.176,1.746-4.489,3.359-6.466,5.31c-9.656,9.528-14.173,20.797-11.534,34.5
		c0.561,2.915,0.664,5.93,0.819,8.908c0.368,7.009,3.947,11.346,10.573,13.522c2.621,0.861,5.138,2.163,7.542,3.543
		c4.319,2.478,5.234,2.017,6.365-2.707c3.256-13.593,6.119-27.317,10.207-40.662c5.084-16.591,11.56-32.698,21.142-47.366
		c4.588-7.023,8.794-14.296,13.432-21.285c1.938-2.922,4.408-5.537,6.891-8.04c2.232-2.251,4.833-2.253,7.666-0.634
		c7.725,4.413,15.007,13.935,10.976,24.343c-4.235,10.934-8.509,21.863-13.172,32.617c-2.663,6.14-5.837,12.11-9.314,17.832
		c-6.188,10.184-12.414,20.385-19.343,30.065c-4.13,5.771-7.054,11.771-8.559,18.592c-2.09,9.463-4.861,18.824-4.992,28.607
		c-0.078,5.756-0.194,11.578,0.533,17.266c1.131,8.863,5.14,11.881,13.511,11.229c-0.872,3.485-1.954,4.666-4.987,3.839
		c-3.169-0.862-6.602-2.041-9.026-4.122c-12.908-11.077-19.034-25.088-16.822-42.242c0.939-7.287,0.529-8.24-6.372-10.67
		c-2.111-0.744-4.221-1.562-6.396-2.042c-3.758-0.829-5.721,0.52-6.229,4.362c-0.291,2.201-0.146,4.469-0.091,6.705
		c0.314,12.789-2.05,24.969-9.193,35.739c-2.955,4.455-6.432,8.874-10.577,12.172c-13.496,10.741-28.923,9.209-38.501-8.672
		c-2.444-4.562-3.819-9.699-5.662-14.579c-0.659-1.744-1.234-3.52-1.882-5.27c-0.791-2.134-2.45-2.739-4.499-2.268
		c-1.258,0.29-2.469,0.832-3.661,1.348c-4.672,2.023-8.878,1.555-12.936-4.414c-1.807-2.658-2.399-6.159-3.433-9.313
		c-0.497-1.516-0.741-3.114-1.308-5.579c-2.067,1.248-3.587,1.859-4.714,2.897c-5.078,4.68-9.975,9.559-15.084,14.202
		c-2.39,2.171-2.697,4.269-1.927,7.428c1.04,4.271,1.236,8.787,1.404,13.212c0.104,2.756-1.202,5.144-4.068,6.083
		c-2.254,0.74-3.225,2.231-3.571,4.485c-1.108,7.218-4.688,13.141-9.113,18.9c-11.959,15.568-26.614,27.03-45.82,32.181
		c-9.976,2.674-19.945,2.088-29.947,0.242c-18.436-3.401-36.201-9.034-53.268-16.694c-9.344-4.194-18.369-9.115-27.437-13.901
		c-6.106-3.222-7.244-3.171-12.304,1.4c-5.334,4.818-9.958,10.066-12.073,17.158c-1.585,5.316-1.984,10.606-0.381,15.978
		c0.348,1.166,0.582,2.366,0.869,3.552C198.491,351.932,198.11,352.094,197.729,352.255z M241.174,297.828
		c2.255,1.659,3.703,2.954,5.351,3.9c17.493,10.038,35.699,18.454,55.143,24.024c12.439,3.564,25.013,5.817,38.047,4.733
		c13.044-1.085,24.169-6.111,32.657-16.118c6.248-7.368,8.074-16.246,6.746-25.696c-0.621-4.41-2.12-5.635-6.467-6.454
		c-2.376-0.447-4.758-0.93-7.159-1.16c-22.505-2.155-44.996-2.536-67.45,0.677c-17.947,2.568-35.443,6.925-52.416,13.316
		C244.342,295.535,243.246,296.516,241.174,297.828z M497.832,240.759c-0.438-4.225-1.58-5.28-5.504-4.538
		c-1.456,0.275-2.916,0.7-4.278,1.281c-15.276,6.527-26.143,17.609-33.1,32.554c-2.783,5.979,0.841,11.667,7.48,11.438
		c3.202-0.109,6.576-1.312,9.484-2.784c10.87-5.505,17.396-14.9,21.894-25.847C495.42,248.939,496.507,244.8,497.832,240.759z
		 M230.181,130.479c2.196,0.185,3.284,0.429,4.346,0.341c10.058-0.835,18.561-5.408,26.191-11.585
		c4.023-3.258,7.98-6.88,9.415-12.236c0.294-1.098,0.149-2.314,0.228-3.952c-11.151,1.901-19.697,7.52-27.566,14.098
		C238.395,120.821,232.887,123.716,230.181,130.479z M562.993,194.089c0.521,0.168,1.041,0.336,1.562,0.505
		c3.43-3.67,5.776-8.081,8.031-12.527c5.149-10.15,10.201-20.351,15.32-30.517c2.179-4.326,4.524-8.571,6.557-12.962
		c0.414-0.897,0.178-2.833-0.484-3.338c-1.477-1.126-2.738-0.06-3.573,1.405c-1.291,2.263-2.527,4.564-3.925,6.763
		c-9.036,14.229-16.267,29.35-22.24,45.084C563.57,190.268,563.397,192.222,562.993,194.089z M493.32,204.207
		c-3.277,1.859-14.937,15.312-17.149,19.568c-0.427,0.821-0.158,2.004-0.243,3.676c6.2-1.351,11.931-2.455,17.57-3.901
		c2.177-0.558,3.275-2.558,2.861-4.822C495.504,214.051,494.424,209.414,493.32,204.207z"/>
	<path fill-rule="evenodd" clip-rule="evenodd" fill="#FFFFFF" d="M425.107,466.619c1.951-1.343,3.819-2.417,5.445-3.779
		c10.568-8.852,18.52-19.92,26.153-31.229c5.009-7.418,9.82-14.968,14.802-22.403c1.345-2.009,2.944-3.855,4.505-5.71
		c2.018-2.396,4.583-3.12,7.558-2.105c4.871,1.663,9.002,4.473,12.442,8.284c2.223,2.464,2.655,5.29,1.358,8.324
		c-0.656,1.539-1.535,2.982-2.238,4.505c-4.682,10.146-9.515,20.229-13.91,30.499c-1.359,3.178-1.804,6.845-2.137,10.339
		c-0.397,4.174,1.5,5.745,5.35,4.121c5.123-2.162,10.111-4.761,14.869-7.645c10.891-6.599,17.415-16.651,21.021-28.589
		c3.428-11.352,9.447-21.453,14.612-31.973c1.803-3.673,3.758-7.275,5.71-10.873c6.303-11.621,12.612-23.239,18.97-34.832
		c3.943-7.191,7.721-14.492,12.069-21.435c2.536-4.05,5.837-7.693,9.189-11.135c2.679-2.75,4.175-2.423,7.238,0.128
		c4.964,4.135,5.875,9.403,3.896,15.175c-1.264,3.68-2.955,7.261-4.85,10.665c-6.984,12.545-14.046,25.049-21.245,37.471
		c-7.104,12.255-14.426,24.383-21.617,36.587c-2.412,4.094-4.716,8.253-7.069,12.381c0.396,0.328,0.789,0.656,1.184,0.984
		c1.051-1.063,2.179-2.06,3.139-3.198c6.726-7.974,13.071-16.303,20.243-23.849c4.444-4.678,9.853-8.604,15.313-12.114
		c9.454-6.081,17.355-3.339,22.562,6.675c3.68,7.074,3.738,14.604,2.557,21.877c-3.253,20.003-9.199,39.232-19.83,56.679
		c-2.688,4.412-5.967,8.637-9.682,12.21c-5.859,5.635-12.669,6.367-19.444,1.898c-4.258-2.809-7.865-6.738-11.339-10.552
		c-2.487-2.729-4.202-6.149-6.397-9.162c-0.93-1.277-2.208-2.301-3.49-3.604c-1.797,1.569-3.151,2.753-4.46,3.896
		c-7.299-1.959-12.048-6.584-15.116-13.586c-6.171,3.895-11.753,7.557-17.479,10.981c-3.504,2.095-7.068,4.27-10.884,5.626
		c-8.357,2.973-17.457-0.762-21.209-8.812c-1.693-3.634-2.25-7.806-3.242-11.754c-0.515-2.051-0.854-4.146-1.431-7.011
		c-2.033,1.264-3.425,1.819-4.41,2.788c-8.562,8.413-18.724,14.765-28.148,22.064c-7.518,5.821-14.408,3.477-18.918-4.595
		c-1.593-2.853-2.08-6.334-2.989-9.551c-0.432-1.527-0.67-3.107-1.206-5.657c-2.081,1.46-3.405,2.301-4.631,3.265
		c-6.143,4.833-12.019,10.053-18.466,14.434c-4.732,3.216-10.077,5.634-15.365,7.904c-10.707,4.598-23.606,1.844-30.582-8.861
		c-2.436-3.736-5.495-7.062-8.164-10.65c-4.174-5.614-5.526-12.085-5.743-18.949c-0.6-18.931,4.505-36.429,12.511-53.394
		c6.573-13.928,14.479-27.021,24.197-38.845c9.358-11.386,19.644-22.07,33.282-28.585c14.747-7.045,26.355-6.355,41.733,6.489
		c1.142,0.953,2.259,1.939,3.434,2.851c2.086,1.619,4.121,1.492,6.04-0.317c2.851-2.688,5.781-5.3,8.511-8.106
		c1.859-1.911,3.593-2.16,5.96-0.91c3.978,2.1,7.932,4.106,10.734,7.837c3.275,4.361,3.092,7.171-1.144,10.499
		c-2.344,1.843-4.945,3.354-7.3,5.181c-3.677,2.852-7.266,5.819-10.851,8.788c-4.919,4.071-7.661,9.533-9.705,15.425
		c-0.656,1.89-0.888,4.688-3.488,4.282c-1.939-0.302-4.382-1.717-5.319-3.364c-4.201-7.378-4.88-15.17-1.121-23.02
		c0.963-2.011,2.24-3.873,3.387-5.796c2.491-4.177,1.488-7.208-3.333-8.188c-3.007-0.612-6.343-0.479-9.368,0.131
		c-2.859,0.575-5.649,1.956-8.222,3.418c-17.232,9.792-30.782,23.448-41.399,40.078c-11.329,17.745-19.731,36.842-24.714,57.264
		c-1.881,7.706-2.108,15.851-2.661,23.825c-0.186,2.683,0.584,5.596,1.553,8.163c2.56,6.794,8.32,10.218,15.49,9.118
		c11.601-1.778,21.614-7.102,30.048-15.086c6.63-6.278,13.135-12.789,18.9-19.846c3.331-4.074,4.934-9.523,7.586-14.198
		c3.849-6.78,7.621-13.644,12.053-20.036c2.732-3.941,5.442-4.161,9.851-2.26c2.384,1.028,4.644,2.395,6.846,3.788
		c5.291,3.351,6.163,7.236,2.971,12.79c-2.788,4.852-5.762,9.603-8.383,14.542c-4.28,8.066-8.347,16.249-12.495,24.387
		C424.154,461.689,423.47,463.74,425.107,466.619z M552.607,438.96c0.196,1.812,0.77,3.209,0.379,4.24
		c-1.04,2.747-2.396,5.39-3.804,7.976c-2.751,5.051-6.211,9.805-8.301,15.104c-2.937,7.447,2.483,13.979,10.491,13.432
		c4.326-0.296,8.038-2.269,10.628-5.521c4.156-5.221,8.423-10.511,11.559-16.353c7.813-14.555,12.123-30.377,15.15-46.549
		c0.339-1.808,0.486-3.736,0.254-5.549c-0.531-4.134-3.006-5.548-6.682-3.73c-2.82,1.395-5.734,2.892-8.053,4.962
		c-10.02,8.946-19.363,18.554-27.079,29.619c-0.558,0.798-0.723,1.87-1.291,3.415C548.264,439.633,550.019,439.361,552.607,438.96z"
		/>
	<path fill-rule="evenodd" clip-rule="evenodd" fill="#FFFFFF" d="M201.373,427.182c5.013,0.369,8.87,0.633,12.725,0.94
		c6.509,0.521,13.037,0.897,19.514,1.688c2.506,0.306,4.957,1.434,7.3,2.482c0.767,0.343,1.119,1.615,2.217,3.335
		c-2.144-0.205-3.364-0.122-4.456-0.458c-8.998-2.771-18.047-2.101-27.125-0.572c-1.464,0.246-2.929,0.551-4.405,0.656
		c-12.52,0.898-24.808,3.105-36.851,6.607c-9.991,2.906-15.428,12.763-12.421,22.785c1.575,5.252,6.084,7.547,11.009,8.351
		c4.566,0.745,9.296,0.893,13.935,0.736c30.617-1.024,54.742-14.202,72.48-39.139c0.647-0.911,1.159-1.929,1.853-2.802
		c6.769-8.51,7.74-17.892,4.291-27.966c-0.3-0.877-0.782-1.843-0.645-2.678c0.164-0.986,0.705-2.331,1.464-2.674
		c0.681-0.308,2.325,0.231,2.783,0.909c5.624,8.339,11.934,16.354,14.456,26.355c1.615,6.401,0.785,12.598-2.648,18.355
		c-5.684,9.535-13.867,16.438-23.117,22.311c-10.543,6.693-22.109,10.624-34.171,13.439c-9.527,2.226-19.171,2.983-28.888,2.607
		c-5.747-0.224-11.536-0.689-17.188-1.701c-8.666-1.551-14.609-7.228-19.015-14.463c-1.778-2.92-3.942-5.716-3.887-9.68
		c0.041-2.893-3.697-4.012-7.18-2.206c-3.802,1.971-7.4,4.337-11.081,6.542c-1.918,1.151-3.77,2.421-5.741,3.472
		c-8.073,4.305-15.435,1.385-17.775-7.521c-1.558-5.93-2.186-12.104-3.214-18.171c-0.27-1.593-0.48-3.194-0.864-5.772
		c-2.354,1.424-4.225,2.177-5.61,3.457c-7.259,6.705-14.423,13.514-21.562,20.348c-4.15,3.972-6.829,4.163-11.037,0.173
		c-2.43-2.305-4.823-4.744-6.742-7.469c-3.978-5.646-4.173-11.914-1.651-18.161c2.858-7.077,5.904-14.087,9.131-21.005
		c5.212-11.172,11.302-21.896,18.657-31.778c3.975-5.342,8.748-10.137,13.508-14.826c3.123-3.076,7.448-3.613,11.506-2.392
		c3.889,1.171,7.542,3.15,11.26,4.855c1.346,0.618,2.525,1.609,3.884,2.188c3.917,1.664,5.796,1.129,8.06-2.373
		c1.922-2.974,3.615-6.096,5.509-9.088c10.174-16.072,20.284-32.185,30.62-48.153c3.895-6.017,9.475-7.414,15.527-4.588
		c6.167,2.881,8.106,8.26,4.96,14.361c-1.708,3.313-3.788,6.432-5.662,9.658c-13.486,23.226-27.17,46.34-40.352,69.737
		c-6.675,11.847-12.557,24.159-16.62,37.218c-0.827,2.657-1.48,5.419-1.778,8.18c-0.36,3.335,1.053,4.656,4.207,4.112
		c2.377-0.41,4.766-1.042,6.981-1.976c1.026-0.432,2.18-1.731,2.353-2.789c0.466-2.85,2.364-4.468,4.147-6.406
		c2.254-2.453,4.377-5.142,5.998-8.041c5.625-10.065,13.34-18.371,21.474-26.363c1.463-1.438,3.079-2.753,4.365-4.334
		c4.168-5.125,10.201-6.973,17.912-1.412c4.336,3.127,7.938,7.328,11.597,11.299c0.973,1.056,1.409,3.102,1.24,4.597
		c-0.247,2.17-1.226,4.267-1.967,6.369C203.73,420.936,202.743,423.495,201.373,427.182z M79.13,443.71
		c3.473,0.595,4.961-1.162,6.371-2.837c7.666-9.104,16.62-17.021,23.301-27.084c5.309-7.997,9.879-16.191,12.972-25.227
		c0.292-0.854-0.159-1.962-0.286-3.15c-3.397,0.226-5.564,1.967-7.742,3.69c-11.468,9.083-19.367,21.064-26.792,33.367
		c-2.487,4.12-4.408,8.625-6.181,13.113C79.802,438.045,79.679,440.84,79.13,443.71z M194.274,412.783
		c-8.667-0.351-17.569,7.463-18.743,15.676c4.442,1.012,8.798-0.1,13.113-0.748c0.988-0.149,2.232-1.559,2.555-2.63
		C192.369,421.207,193.195,417.23,194.274,412.783z"/>
	<path fill-rule="evenodd" clip-rule="evenodd" fill="#FFFFFF" d="M650.27,447.157c-5.484,1.672-7.427,5.515-9.854,8.671
		c-9.43,12.267-18.655,24.688-28.047,36.985c-2.481,3.247-4.459,3.484-7.57,0.836c-6.283-5.349-9.504-11.982-7.245-20.36
		c2.881-10.687,7.196-20.787,12.974-30.244c3.109-5.088,6.158-10.214,9.368-15.238c5.536-8.667,13.252-15.178,21.782-20.606
		c2.211-1.406,6.029-1.8,8.54-0.958c10.665,3.571,18.632,10.767,24.287,20.419c1.992,3.396,1.583,6.936-1.381,9.725
		c-3.457,3.254-4.448,6.507-1.513,10.76c2.104,3.047,1.143,6.341-0.265,9.601c-3.69,8.549-7.656,17.027-10.571,25.845
		c-1.779,5.384-2.114,11.32-2.543,17.048c-0.338,4.498,2.902,7.083,7.251,5.947c2.232-0.582,4.385-2.026,6.21-3.525
		c17.198-14.117,27.322-32.754,34.048-53.562c3.507-10.851,6.128-21.876,7.371-33.225c0.792-7.221-0.648-14.175-2.781-20.943
		c-1.562-4.955-4.913-8.705-9.796-10.949c-5.133-2.36-10.381-4.177-16.12-4.028c-7.082,0.185-14.163,0.405-21.243,0.642
		c-1.863,0.062-3.723,0.314-5.587,0.344c-6.754,0.111-12.456-2.048-16.393-7.844c-2.828-4.164-5.896-8.193-8.385-12.551
		c-3.233-5.662-1.613-10.354,4.63-13.543c-0.344,1.354-0.51,2.322-0.836,3.233c-1.538,4.297-0.836,8.141,2.606,11.169
		c4.255,3.745,9.122,6.26,14.766,7.532c9.08,2.048,18.062,4.537,27.085,6.836c4.687,1.193,9.405,2.273,14.055,3.597
		c9.318,2.653,16.404,8.225,22.215,16.018c4.881,6.548,8.487,13.518,10.908,21.255c3.323,10.626,2.76,21.025-1.688,31.132
		c-7.651,17.384-17.662,33.275-30.869,47.018c-4.77,4.964-9.676,9.819-14.802,14.409c-2.464,2.205-5.451,3.946-8.439,5.415
		c-3.768,1.852-7.46,0.637-10.388-1.942c-13.066-11.507-18.869-25.559-14.713-43.035c1.295-5.438,2.315-10.949,3.27-16.459
		C650.868,451.072,650.436,449.443,650.27,447.157z M613.066,478.704c4.895-1.92,6.759-4.938,8.68-7.825
		c8.017-12.054,17.938-22.348,28.88-31.751c3.899-3.352,7.556-5.788,13.028-3.167c2.691,1.288,4.57-0.26,5.271-3.253
		c1.611-6.884-4.38-13.842-11.273-11.401c-5.921,2.096-11.19,4.922-15.781,9.222c-12.814,11.998-20.917,27.048-27.957,42.792
		C613.365,474.55,613.458,476.065,613.066,478.704z"/>
	<path fill-rule="evenodd" clip-rule="evenodd" fill="#FFFFFF" d="M350.671,206.734c3.922,3.83,6.401,8.061,7.492,13.069
		c0.815,3.747-0.28,7.243-2.782,9.868c-3.183,3.34-6.52,6.855-10.473,9.082c-12.646,7.123-26.228,9.191-40.496,5.791
		c-5.149-1.228-8.181-5.162-10.871-9.113c-1.017-1.496-0.583-4.311-0.157-6.391c0.857-4.193,2.22-8.281,3.249-12.442
		c0.34-1.372,0.293-2.838,0.426-4.294c-3.127-1.217-4.535,0.962-6.007,2.38c-5.78,5.564-11.389,11.306-17.119,16.924
		c-6.793,6.661-13.587,13.323-20.492,19.869c-5.962,5.653-9.091,5.769-15.577,0.618c-2.327-1.847-4.579-3.897-6.439-6.199
		c-4.514-5.583-5.204-11.91-2.323-18.406c2.947-6.642,5.854-13.357,9.504-19.616c4.963-8.508,10.016-17.091,16.122-24.775
		c8.312-10.462,16.35-21.415,28.098-28.56c3.176-1.931,6.443-3.781,9.853-5.233c1.996-0.85,4.348-1.087,6.556-1.171
		c10.454-0.402,22.363,8.378,24.894,18.329c0.663,2.602,1.459,5.356-1.276,8.686c-0.755-2.231-1.222-3.704-1.75-5.152
		c-1.859-5.104-5.229-7.361-10.427-5.827c-4.222,1.246-8.49,3.11-12.052,5.658c-6.042,4.32-12.121,8.855-17.161,14.255
		c-13.997,14.997-24.585,32.303-32.393,51.278c-0.656,1.596-0.776,3.412-1.12,5.004c3.081,1.504,4.5-0.531,6.064-1.562
		c12.759-8.405,23.386-19.015,32.374-31.353c3.839-5.271,7.956-10.348,12.082-15.402c2.887-3.536,5.364-3.85,9.232-1.178
		c2.908,2.007,5.692,4.22,8.373,6.526c2.313,1.99,2.346,3.854,0.717,7.633c-3.245,7.524-6.55,15.025-9.631,22.616
		c-0.968,2.384-1.601,4.997-1.843,7.557c-0.269,2.847,1.065,4.019,3.941,4.275c0.555,0.05,1.128,0.059,1.677-0.021
		c12.204-1.762,23.58-5.377,32.925-13.987c4.603-4.241,6.926-9.142,6.104-15.419c-0.094-0.729-0.056-1.479-0.039-2.218
		C349.931,207.68,350.122,207.531,350.671,206.734z"/>
	<path fill-rule="evenodd" clip-rule="evenodd" fill="#FFFFFF" d="M612.829,248.583c-1.607,1.404-3.452,2.614-4.779,4.246
		c-5.996,7.379-11.851,14.872-17.744,22.333c-4.391,5.558-8.707,11.177-13.167,16.679c-3.061,3.774-5.409,3.823-8.801,0.408
		c-6.034-6.076-8.534-13.272-5.421-21.45c3.174-8.341,6.909-16.479,10.665-24.584c1.639-3.533,3.794-6.857,5.966-10.107
		c7.376-11.04,16.543-20.145,28.895-25.529c5.389-2.349,10.575-1.336,15.315,1.998c6.501,4.572,11.938,9.999,15.187,17.497
		c1.481,3.421,1.471,6.118-1.481,8.443c-3.754,2.957-4.185,6.215-1.592,10.222c2.144,3.312,1.371,6.662-0.267,10.092
		c-3.368,7.061-6.962,14.077-9.53,21.437c-1.937,5.551-2.497,11.597-3.5,17.45c-0.242,1.42-0.036,3.014,0.347,4.423
		c1.025,3.777,4.022,5.288,7.775,4.137c5.487-1.685,9.155-5.755,12.38-10.08c2.869-3.846,5.534-7.929,5.968-13.043
		c0.234-2.763,2.813-4.527,5.486-4.295c2.523,0.22,4,1.985,3.872,5.164c-0.073,1.827-0.384,3.763-1.106,5.425
		c-4.151,9.56-10.232,17.745-18.275,24.382c-3,2.476-6.294,2.589-9.896,0.743c-5.482-2.812-8.142-8.093-11.598-12.637
		c-6.484-8.521-8.02-18.299-6.348-28.669c1.008-6.257,2.303-12.468,3.329-18.722c0.277-1.695,0.042-3.474,0.042-5.214
		C613.977,249.084,613.403,248.833,612.829,248.583z M577.06,278.082c5.158-1.345,5.224-1.301,7.648-4.949
		c8.979-13.508,20.76-24.322,33.096-34.618c2.204-1.84,4.489-2.508,7.229-1.426c1.034,0.408,2.12,0.778,3.214,0.92
		c3.432,0.445,5.269-1.024,5.779-4.473c0.914-6.159-4.956-11.787-11.191-10.529c-5.382,1.085-10.072,3.583-14.345,7.127
		c-13.857,11.498-22.662,26.497-29.949,42.577C577.903,274.117,577.695,275.717,577.06,278.082z"/>
	<path fill-rule="evenodd" clip-rule="evenodd" fill="#FFFFFF" d="M455.711,178.896c-6.142,0.044-9.23-2.886-8.57-7.313
		c0.597-4.001,1.648-8.016,3.109-11.787c1.627-4.195,4.635-5.167,7.828-2.294c3.396,3.055,6.304,6.771,8.896,10.56
		c1.734,2.538,0.547,6.298-2.294,7.658C461.381,177.299,457.754,178.196,455.711,178.896z"/>
</g>
</svg>
