<?xml version="1.0" encoding="utf-8"?>
<!-- Generator: Adobe Illustrator 16.0.0, SVG Export Plug-In . SVG Version: 6.00 Build 0)  -->
<!DOCTYPE svg PUBLIC "-//W3C//DTD SVG 1.1//EN" "http://www.w3.org/Graphics/SVG/1.1/DTD/svg11.dtd">
<svg version="1.1" id="Layer_1" xmlns="http://www.w3.org/2000/svg" xmlns:xlink="http://www.w3.org/1999/xlink" x="0px" y="0px"
	 width="800px" height="600px" viewBox="0 0 800 600" enable-background="new 0 0 800 600" xml:space="preserve">
<g id="RY534g_1_">
	<g>
		<path fill-rule="evenodd" clip-rule="evenodd" fill="#FFFFFF" d="M514.594,289.317c0.963,0.326,1.975,1.027,2.879,0.909
			c4.128-0.539,6.592,2.19,6.478,6.587c-0.122,4.764,0.46,9.543,0.564,14.318c0.105,4.78-0.036,9.564,0.011,14.347
			c0.021,2.163,0.435,4.334,0.321,6.483c-0.274,5.23-0.935,10.443-1.096,15.674c-0.14,4.478,0.362,8.973,0.284,13.456
			c-0.124,7.081-0.748,14.161-0.698,21.24c0.067,9.812,0.002,19.435-7.289,27.281c-2.457,2.644-15.428,6.91-18.519,6.4
			c-5.094-0.839-10.284-1.106-15.443-1.515c-1.432-0.113-2.892,0.172-4.341,0.199c-5.472,0.103-10.953,0.396-16.412,0.184
			c-4.059-0.158-8.193-0.594-12.104-1.632c-3.995-1.06-8.638-2.081-11.44-4.753c-5.837-5.561-8.905-12.961-8.875-21.232
			c0.031-8.468,0.403-16.934,0.538-25.402c0.147-9.243,0.198-18.487,0.274-27.73c0.01-1.248-0.082-2.498-0.118-3.746
			c-0.147-5.05-0.344-10.1-0.423-15.15c-0.103-6.558-0.183-13.117-0.088-19.673c0.016-1.082,0.879-3.009,1.521-3.084
			c3.787-0.446,7.626-0.463,11.447-0.617c4.313-0.174,8.75,0.235,12.913-0.65c6.087-1.294,5.829-1.689,5.822,4.039
			c-0.01,7.829,0.255,15.66,0.457,23.487c0.032,1.293,0.607,2.606,0.478,3.863c-0.323,3.152-1.31,6.279-1.286,9.412
			c0.029,4.177,1.188,8.36,1.081,12.521c-0.128,4.929-1.481,9.825-1.575,14.75c-0.099,5.06,0.297,10.21,1.239,15.174
			c0.46,2.421,2.96,4.38,3.995,6.78c1.857,4.312,4.094,1.781,6.34,0.687c0.15-0.073,0.363-0.024,0.546-0.022
			c3.77,0.045,7.576-0.228,11.298,0.22c4.226,0.51,5.124-2.053,5.462-5.141c0.415-3.818,0.644-7.674,0.683-11.516
			c0.078-7.757-0.129-15.518-0.014-23.273c0.067-4.425,0.741-8.845,0.775-13.27c0.042-5.439-0.657-10.898-0.378-16.314
			c0.354-6.88,1.278-13.736,2.201-20.572c0.112-0.836,1.71-2.07,2.639-2.088c2.891-0.056,5.547,3.092,8.751,0.438
			c0.946-0.784,2.543-1.163,3.81-1.099 M512.183,407.465c4.053-2.539,6.406-9.119,5.695-13.817
			c-0.338-2.225,1.496-4.699,1.513-7.067c0.078-9.7-0.297-19.406-0.246-29.108c0.037-7.368,0.6-14.735,0.647-22.103
			c0.015-2.518-1.076-5.024-1.219-7.561c-0.217-3.822-0.177-7.668-0.009-11.494c0.271-6.15,0.797-12.291,1.045-18.443
			c0.034-0.837-0.794-1.811-1.424-2.551c-0.859-1.012-10.688-1.196-11.842-0.482c-0.523,0.323-1.336,0.141-1.992,0.292
			c-2.818,0.647-6.312,0.556-8.229,2.245c-1.591,1.403-1.67,4.899-1.798,7.498c-0.212,4.329,0.148,8.683,0.127,13.025
			c-0.031,6.135-0.278,12.27-0.275,18.404c0.003,10.368,0.249,20.737,0.146,31.103c-0.039,3.951-0.176,8.069-1.297,11.804
			c-1.642,5.474-7.264,4.889-11.535,6.471c-4.894,1.812-17.126,1.026-20.339-2.504c-3.081-3.387-5.534-7.132-5.23-12.359
			c0.401-6.895-0.225-13.842-0.101-20.762c0.086-4.832,0.81-9.652,0.988-14.488c0.063-1.711-0.645-3.45-0.893-4.661
			c0-2.137-0.018-3.827,0.003-5.517c0.029-2.328,0.273-4.672,0.075-6.979c-0.181-2.072-0.843-4.1-1.271-6.152
			c-0.071-0.343-0.186-0.906-0.02-1.037c4.216-3.336,0.852-7.646,1.386-11.445c0.346-2.468-0.823-4.052-4.176-3.769
			c-4.966,0.419-10.007-0.092-15.016-0.085c-0.851,0.001-2.037,0.39-2.449,1.01c-0.375,0.564,0.168,1.689,0.165,2.567
			c-0.007,1.914-0.104,3.827-0.16,5.742c-0.204,6.982-0.501,13.965-0.582,20.947c-0.092,7.698,0.044,15.399,0.029,23.099
			c-0.015,8.715-0.112,17.429-0.122,26.144c-0.006,4.969,0.455,9.969,0.028,14.895c-0.375,4.359,2.012,7.127,3.846,10.583
			c4.852,9.146,13.398,8.36,21.481,9.096c4.621,0.419,9.262,0.697,13.901,0.822c4.139,0.111,8.288-0.151,12.431-0.108
			c3.15,0.032,6.296,0.356,9.448,0.423c3.746,0.078,7.494,0.018,11.912,0.018C508.019,410.329,510.044,408.806,512.183,407.465z"/>
		<path fill-rule="evenodd" clip-rule="evenodd" fill="#FFFFFF" d="M36.713,291.43c-0.094-1.11-0.116-2.233-0.302-3.329
			c-0.202-1.188-0.924-2.401-0.771-3.513c0.399-2.902,1.324-5.73,1.72-8.632c0.45-3.305,0.756-5.723,4.875-2.632
			c1.21,0.908,3.684,0.108,5.577,0.137c0.95,0.014,1.948-0.038,2.836,0.232c2.044,0.62,3.983,1.745,6.058,2.075
			c4.167,0.662,8.396,0.931,12.601,1.356c1.116,0.113,2.249,0.369,3.347,0.269c1.426-0.129,2.895-0.977,4.225-0.763
			c4.801,0.774,9.517,2.331,14.333,2.693c4.133,0.312,8.357-0.612,12.544-0.954c0.189-0.015,0.379,0.419,0.615,0.492
			c1.329,0.407,2.652,0.87,4.013,1.12c2.039,0.374,4.209,0.292,6.131,0.959c1.604,0.556,2.976,1.854,4.369,2.93
			c0.811,0.626,1.729,1.342,2.125,2.23c0.803,1.804,1.418,3.72,1.872,5.647c1.14,4.842,2.811,9.682,3.056,14.585
			c0.384,7.682-0.46,15.416-0.369,23.124c0.133,11.222,0.612,22.438,0.995,33.655c0.088,2.57,0.578,5.137,0.544,7.701
			c-0.055,4.316-0.454,8.627-0.567,12.943c-0.083,3.178,0.081,6.362,0.096,9.543c0.015,3.27-0.062,6.541-0.02,9.812
			c0.057,4.422,1.113,9.081,0.054,13.204c-1.296,5.047-3.852,9.975-6.793,14.323c-1.99,2.942-5.276,5.469-8.539,6.979
			c-4.417,2.047-9.321,3.137-14.103,4.277c-4.653,1.109-9.398,1.88-14.136,2.581c-3.258,0.482-6.593,0.44-9.856,0.901
			c-9.796,1.388-19.567,2.964-29.375,4.251c-0.685,0.09-2.296-1.605-2.278-2.442c0.054-2.438,1.162-4.887,1.04-7.289
			c-0.186-3.64-1.396-7.227-1.573-10.864c-0.364-7.45,2.351-15.04-1.069-22.367c-0.147-0.314,0.234-0.847,0.285-1.286
			c0.396-3.379,0.997-6.753,1.083-10.141c0.077-2.975-0.285-5.984-0.712-8.94c-0.526-3.637-1.796-7.224-1.891-10.854
			c-0.153-5.865,0.519-11.746,0.567-17.623c0.016-1.923-1.234-3.862-1.187-5.777c0.1-4.028,1.731-8.32,0.783-12.001
			c-1.139-4.419-1.059-8.438-0.484-12.767c0.206-1.539-1.213-3.23-1.341-4.895c-0.14-1.822,0.589-3.702,0.521-5.541
			c-0.1-2.681-1.738-6.038-0.649-7.885c2.401-4.068,0.268-7.69,0.267-11.456c0-1.944-0.929-3.889-1.439-5.832
			C36.097,291.591,36.405,291.51,36.713,291.43z M44.831,284.436c-2.762,6.766-1.821,13.563-0.687,20.473
			c0.581,3.531,0.437,7.2,0.415,10.805c-0.021,3.588-0.405,7.174-0.44,10.763c-0.047,4.761-0.026,9.529,0.18,14.284
			c0.193,4.476,0.9,8.936,0.964,13.408c0.115,7.944-0.17,15.895-0.128,23.84c0.039,7.4,0.248,14.801,0.452,22.198
			c0.168,6.087,0.522,12.168,0.641,18.255c0.15,7.628,0.016,15.265,0.36,22.882c0.044,0.974,2.33,2.755,3.41,2.637
			c13.595-1.485,27.168-3.187,40.726-4.98c5.239-0.693,10.938-0.705,15.518-2.912c6.335-3.054,12.347-7.859,14.437-14.905
			c1.623-5.471,1.244-11.563,1.547-17.391c0.392-7.529,0.706-15.067,0.799-22.604c0.056-4.529-0.436-9.062-0.567-13.597
			c-0.203-7.009-0.261-14.021-0.466-21.032c-0.258-8.833-0.667-17.663-0.877-26.498c-0.083-3.458,0.512-6.949,0.23-10.378
			c-0.375-4.583-0.88-9.237-2.103-13.647c-1.466-5.288-9.234-10.072-14.807-10.319c-7.976-0.353-15.933-1.092-23.903-1.561
			c-6.855-0.403-13.738-0.451-20.571-1.064c-3.621-0.325-7.164-1.519-10.741-2.323c-1.389-0.312-2.776-0.634-3.648-0.832
			C45.275,281.854,45.315,283.252,44.831,284.436z"/>
		<path fill-rule="evenodd" clip-rule="evenodd" fill="#FFFFFF" d="M679.48,277.355c-0.386-0.951-0.696-1.716-1.008-2.482
			c-0.597,0.341-1.165,0.895-1.797,0.982c-2.037,0.282-4.096,0.402-6.148,0.568c-4.147,0.335-8.32,0.485-12.438,1.04
			c-4.258,0.575-8.441,1.705-12.698,2.288c-4.193,0.574-8.46,0.609-12.655,1.17c-4.404,0.589-8.754,1.568-13.144,2.285
			c-2.437,0.397-5.1,0.147-7.277,1.081c-1.21,0.519-2.266,2.855-2.303,4.399c-0.147,6.101,0.202,12.212,0.242,18.321
			c0.039,5.971,0.065,11.949-0.174,17.914c-0.131,3.267-0.996,6.497-1.217,9.767c-0.201,2.967,0.074,5.961,0.046,8.943
			c-0.054,5.744-0.319,11.49-0.219,17.231c0.076,4.348,0.798,8.685,0.847,13.03c0.062,5.26-0.414,10.523-0.417,15.785
			c-0.001,6.551,0.242,13.101,0.372,19.65c0.006,0.267-0.06,0.536-0.109,0.8c-1.739,9.064-0.756,9.974,8.311,9.089
			c2.533-0.247,5.2,0.877,7.807,1.369c0.689,0.131,1.379,0.333,2.072,0.354c2.125,0.058,4.574-0.642,6.314,0.185
			c5.389,2.56,4.387-1.104,4.612-4.092c0.322-4.269,0.911-8.518,1.377-12.774c0.098-0.872,0.224-1.749,0.216-2.623
			c-0.052-5.758-0.14-11.517-0.2-17.275c-0.001-0.261,0.214-0.521,0.229-0.786c0.15-3.031-0.843-7.749,0.651-8.745
			c3.161-2.109,7.578-2.658,11.562-3.095c2.281-0.25,4.723,0.979,7.062,1.535c0.411,0.783,1.241,1.864,1.564,3.079
			c1.016,3.816,2.292,7.644,2.625,11.539c0.419,4.892-0.008,9.854-0.049,14.786c-0.04,4.921-0.19,9.849-0.042,14.765
			c0.174,5.713,3.02,7.676,8.993,7.614c4.397-0.044,8.803,0.893,13.215,1.272c0.7,0.06,2.055-0.471,2.074-0.792
			c0.06-0.953-0.166-2.612-0.694-2.795c-2.308-0.796-4.746-1.253-7.166-1.67c-3.747-0.646-7.6-0.87-11.227-1.905
			c-1.073-0.307-2.567-3.399-2.12-4.102c3.956-6.2,0.39-12.858,1.519-19.182c0.568-3.184,0.41-6.487,0.733-9.722
			c0.729-7.304-1.58-11.554-8.072-14.597c-0.083-0.039-0.236-0.075-0.237-0.119c-0.276-6.449-4.725-2.858-7.522-3.06
			c-1.387-0.099-2.809,0.233-4.209,0.398c-3.223,0.383-6.512,0.495-9.645,1.254c-3.479,0.843-5.521,6.747-4.716,10.276
			c0.79,3.457,0.735,7.146,0.743,10.733c0.013,6.48,0.105,12.989-0.481,19.428c-0.222,2.444-2.222,4.728-3.413,7.082
			c-0.396-0.715-0.791-1.429-1.185-2.145c-3.126,0-6.257-0.146-9.369,0.032c-5.832,0.336-7.85-2.151-7.576-8.119
			c0.293-6.37-0.325-12.775-0.31-19.165c0.009-4.135,0.556-8.268,0.655-12.405c0.113-4.701-0.077-9.408,0.005-14.111
			c0.063-3.7,0.489-7.397,0.484-11.097c-0.007-5.118-0.445-10.239-0.362-15.354c0.066-4.271,0.673-8.53,0.926-12.802
			c0.113-1.888-0.16-3.798-0.085-5.689c0.222-5.524,0.625-11.041,0.762-16.565c0.063-2.537-0.851-5.192-0.358-7.595
			c0.402-1.963,2.129-3.721,3.486-5.395c0.655-0.808,1.809-1.215,2.099-1.4c4.631-0.766,8.66-1.629,12.732-2.052
			c4.155-0.43,8.362-0.347,12.535-0.645c2.221-0.158,4.418-0.633,6.622-0.991c2.159-0.351,4.302-0.827,6.469-1.084
			c7.354-0.874,14.702-1.815,22.08-2.383c1.451-0.111,3.018,1.338,4.538,2.052c0.521,0.244,1.056,0.464,1.6,0.649
			c0.636,0.217,1.776,0.258,1.865,0.593c0.938,3.584,2.112,7.18,2.414,10.838c0.295,3.584-0.472,7.244-0.547,10.875
			c-0.188,8.907,0.38,17.882-0.561,26.7c-0.662,6.209-3.805,11.871-9.73,15.244c-2.132,1.214-2.654,2.294-0.433,4.291
			c3.231,2.905,7.454,5.809,8.697,9.561c1.712,5.164,1.031,11.119,1.386,16.732c0.184,2.886,0.441,5.768,0.569,8.655
			c0.088,2.013,0.06,4.034-0.003,6.049c-0.191,6.25-0.425,12.499-0.646,18.747c-0.176,5.033-0.555,10.075-0.347,15.092
			c0.036,0.895,2.503,1.687,3.847,2.525c0.387-0.854,1.054-1.688,1.115-2.566c0.443-6.378,0.939-12.761,1.061-19.15
			c0.069-3.729-0.752-7.472-0.77-11.212c-0.056-11.471,0.466-22.963-0.102-34.404c-0.153-3.096-2.782-6.751-5.338-8.859
			c-2.695-2.224-2.462-3.993-1.21-6.277c2.19-4,5-7.714,6.741-11.883c0.992-2.375,0.343-5.42,0.508-8.157
			c0.104-1.732,0.354-3.455,0.527-5.183c0.446-4.433,1.006-8.856,1.265-13.3c0.099-1.689-0.613-3.411-0.762-5.134
			c-0.505-5.826-0.877-11.664-1.388-17.49C694.661,277.683,685.766,274.196,679.48,277.355z"/>
		<path fill-rule="evenodd" clip-rule="evenodd" fill="#FFFFFF" d="M751.289,435.881c-8.008-0.799-16.017-1.583-24.018-2.443
			c-0.396-0.043-0.978-0.714-1.039-1.155c-0.464-3.28-1.091-6.571-1.148-9.869c-0.098-5.549,0.133-11.108,0.331-16.659
			c0.168-4.655,0.55-9.302,0.708-13.956c0.075-2.239-0.073-4.496-0.259-6.732c-0.121-1.442-0.767-2.876-0.705-4.293
			c0.354-8.231,1.127-16.452,1.227-24.683c0.122-10.159-0.28-20.324-0.447-30.486c-0.105-6.51-0.215-13.021-0.277-19.531
			c-0.024-2.401-0.143-4.837,0.18-7.2c0.472-3.454,1.36-6.85,1.925-10.293c0.094-0.579-0.579-1.266-0.84-1.926
			c-0.428-1.087-1.139-2.189-1.153-3.292c-0.054-3.999,0.018-8.008,0.297-11.996c0.085-1.214,0.688-3.01,1.578-3.435
			c2.755-1.314,5.708-2.34,8.688-3.033c6.32-1.469,12.708-2.649,19.064-3.967c1.498-0.311,3.004-0.625,4.46-1.08
			c0.738-0.229,1.378-0.775,2.062-1.177c0.347,0.953,1.076,1.95,0.977,2.853c-0.44,3.946-1.588,7.862-1.605,11.793
			c-0.026,5.836,0.945,11.672,1.01,17.513c0.058,5.349-0.736,10.702-0.763,16.057c-0.023,4.897,0.574,9.796,0.711,14.697
			c0.067,2.397-0.344,4.804-0.427,7.208c-0.048,1.411,0.241,2.834,0.172,4.241c-0.211,4.302-0.703,8.6-0.729,12.9
			c-0.021,3.372,0.741,6.75,0.699,10.12c-0.049,3.865-0.827,7.723-0.874,11.587c-0.056,4.396,0.528,8.797,0.509,13.193
			c-0.029,6.138-0.472,12.272-0.518,18.409c-0.025,3.521,0.462,7.042,0.563,10.567c0.065,2.318-0.007,4.662-0.265,6.966
			c-0.438,3.916-1.789,7.875-1.441,11.695c0.411,4.54,2.425,9.079-4.954,8.959c-1.139-0.019-2.271-0.174-3.408-0.267
			C751.481,436.738,751.384,436.31,751.289,435.881z M738.574,267.767c-3.52-0.727-7.49,3.051-7.312,6.768
			c0.189,3.991-0.057,8.002-0.09,12.004c-0.065,8.28-0.049,16.56-0.198,24.838c-0.099,5.488-0.628,10.973-0.601,16.456
			c0.028,5.547,0.691,11.091,0.73,16.638c0.031,4.444-0.606,8.891-0.66,13.339c-0.037,3.183,0.696,6.383,0.562,9.552
			c-0.243,5.78-1.074,11.536-1.275,17.316c-0.156,4.458,0.36,8.936,0.433,13.406c0.1,6.221,0.1,12.445,0.066,18.666
			c-0.015,2.521-0.633,5.106-0.229,7.539c0.377,2.275,0.363,5.154,4.473,5.009c4.757-0.168,9.554,0.673,14.326,1.138
			c0.483,0.047,0.899,0.589,1.392,0.792c2.404,0.994,5.442,4.114,5.075-2.2c-0.305-5.251,0.473-10.556,0.425-15.834
			c-0.028-3.096-0.991-6.179-1.049-9.278c-0.039-2.002,1.018-4.003,1.205-6.039c0.46-5.035,0.796-10.086,0.999-15.138
			c0.143-3.519,0.07-7.056-0.1-10.574c-0.054-1.076-0.755-2.122-0.762-2.146c0.201-2.82,0.403-4.704,0.46-6.592
			c0.191-6.522,0.479-13.048,0.457-19.569c-0.027-9.239-0.576-18.485-0.377-27.717c0.16-7.318,2.314-14.796,1.289-21.869
			c-0.707-4.871,0.146-9.398-0.14-14.063c-0.242-3.937,0.206-7.98-0.542-11.803c-0.791-4.049-3.008-4.063-6.481-1.989
			c-2.029,1.211-5.089,0.697-7.686,0.959c-0.088,0.123-0.177,0.246-0.266,0.369C741.321,267.768,739.893,268.04,738.574,267.767z"/>
		<path fill-rule="evenodd" clip-rule="evenodd" fill="#FFFFFF" d="M337.308,294.894c-0.791,0.27-2.451,1.106-4.201,1.386
			c-5.842,0.934-8.955,4.688-10.914,9.881c-1.651,4.374-2.21,8.446-1.523,13.433c1.074,7.766-0.365,15.854-0.439,23.807
			c-0.092,9.585,0.035,19.175,0.255,28.759c0.12,5.206,0.849,10.4,0.902,15.604c0.041,4.155-1.41,8.502-0.588,12.428
			c0.99,4.728,3.669,9.104,5.678,13.606c0.099,0.219,1.135,0.292,1.157,0.229c0.23-0.649,0.613-1.426,0.435-2.007
			c-0.696-2.264-2.004-4.414-2.308-6.708c-0.711-5.379-0.98-10.816-1.416-16.229c-0.188-2.348-0.347-4.698-1.402-7.308
			c0.119-0.857,0.212-1.721,0.364-2.573c0.2-1.126,0.538-2.235,0.658-3.369c0.29-2.747,0.624-5.501,0.696-8.258
			c0.168-6.248,0.335-12.503,0.221-18.749c-0.088-4.827-0.755-9.646-0.874-14.474c-0.082-3.284,0.32-6.582,0.539-9.871
			c0.253-3.804,0.422-7.619,0.862-11.402c0.272-2.328,0.846-4.646,1.522-6.896c1.661-5.529,6.013-6.78,11.155-7.104
			c4.338-0.274,8.642-1.494,12.965-1.514c4.582-0.023,9.166,1.207,13.758,1.258c3.155,0.036,6.324-1.47,9.485-1.462
			c5.149,0.012,10.463,0.052,15.394,1.308c3.64,0.928,7.124,3.45,6.073,8.656c-0.212,1.043,1.805,2.398,1.88,3.666
			c0.18,3.01-0.349,6.056-0.296,9.081c0.089,4.989,0.648,9.977,0.57,14.96c-0.082,5.175-0.688,10.343-0.654,15.718
			c0.026,1.095,0.055,2.188,0.078,3.282c0.086,3.829,0.164,7.656,0.255,11.485c0.063,2.741,0.089,5.486,0.236,8.223
			c0.087,1.615,0.579,3.226,0.509,4.821c-0.055,1.167-0.383,2.763-1.189,3.379c-3.689,2.815-4.23,6.409-1.547,10.013
			c2.943,3.953,5.644,8.092,8.365,12.205c1.95,2.947,3.911,5.908,5.6,9.008c2.115,3.884,0.039,8.384-4.166,9.806
			c-1.022,0.347-1.855,1.24-2.791,1.86c-3.247,2.159-6.416,4.466-9.836,6.304c-0.546,0.292-2.549-1.312-3.333-2.422
			c-3.065-4.337-5.727-8.966-8.906-13.21c-2.01-2.68-12.065-2.434-14.248,0.105c-0.301,0.352,0.08,1.435,0.366,2.08
			c0.11,0.251,0.869,0.391,1.277,0.309c7.894-1.598,11.527,3.598,15.093,9.196c2.193,3.442,4.823,6.605,7.978,10.871
			c5.24-3.662,10.423-7.382,15.713-10.942c3.895-2.621,7.986-4.953,11.844-7.62c0.618-0.428,1.013-2.322,0.604-2.906
			c-3.294-4.712-6.805-9.27-10.246-13.878c-2.928-3.924-5.717-7.965-8.86-11.709c-0.89-1.06-2.807-1.256-5.821-2.49
			c8.271,0.663,5.754-4.621,6.395-7.701c0.803-3.848,1.085-7.827,1.292-11.767c0.212-4.048,0.104-8.115,0.062-12.174
			c-0.044-4.209-0.195-8.416-0.266-12.625c-0.073-4.473-0.261-8.95-0.119-13.417c0.182-5.623,0.42-11.262,1.042-16.847
			c0.929-8.355-5.634-18.63-13.845-20.538c-2.447-0.568-5.183,0.083-7.784,0.209c-0.803,0.039-1.602,0.311-2.396,0.276
			c-2.783-0.12-5.561-0.447-8.343-0.477c-5.264-0.055-10.531,0.043-15.796,0.074c-0.358,0.001-0.95-0.165-1.038-0.019
			c-2.789,4.714-6.518,0.791-9.771,1.076C341.835,294.75,339.993,294.771,337.308,294.894z"/>
		<path fill-rule="evenodd" clip-rule="evenodd" fill="#FFFFFF" d="M582.509,296.505c-0.64,6.209-1.199,12.446-1.343,18.683
			c-0.207,8.875,0.008,17.762,0.028,26.642c0.018,7.211,0.065,14.423,0.001,21.634c-0.045,5.107-0.373,10.214-0.346,15.32
			c0.015,2.649,0.779,5.298,0.762,7.944c-0.044,6.363-0.302,12.728-0.569,19.087c-0.142,3.392-0.383,6.787-0.815,10.149
			c-0.09,0.682-1.276,1.782-1.897,1.745c-5.033-0.305-10.049-0.865-15.073-1.288c-5.218-0.438-10.451-0.728-15.652-1.304
			c-0.729-0.082-1.906-1.46-1.876-2.198c0.284-7.248,0.883-14.484,1.185-21.733c0.199-4.804,0.016-9.624,0.1-14.435
			c0.02-1.151,0.628-2.296,0.62-3.441c-0.075-10.853-0.237-21.705-0.345-32.558c-0.036-3.406-0.044-6.818,0.048-10.225
			c0.156-5.779,0.391-11.554,0.62-17.33c0.043-1.084,0.498-2.229,0.271-3.233c-0.756-3.358-3.805-6.55-0.503-10.138
			c0.163-0.176-0.091-0.869-0.302-1.234c-2.478-4.265,0.147-10.226,5.01-10.461c7.031-0.342,14.093-0.087,23.921-0.087
			C581.1,288.192,583.149,290.285,582.509,296.505z M552.267,328.1c-0.021,6.362,0.072,12.734-0.262,19.082
			c-0.166,3.138-1.564,6.212-1.716,9.349c-0.18,3.703,0.582,7.444,0.585,11.169c0.01,9.008-0.234,18.014-0.275,27.022
			c-0.02,4.422-0.148,8.886,0.379,13.257c0.502,4.18,4.287,3.014,6.908,3.122c4.568,0.189,9.172-0.274,13.727,0.039
			c3.737,0.259,5.179-1.097,4.098-4.701c-0.187-0.619-0.34-1.638-0.01-1.957c3.323-3.223,1.016-6.537,0.594-9.988
			c-0.431-3.524,0.488-7.191,0.458-10.794c-0.04-5.103-0.542-10.201-0.592-15.303c-0.044-4.444,0.331-8.89,0.411-13.336
			c0.127-7.107,0.13-14.219,0.249-21.327c0.07-4.044,0.266-8.087,0.412-12.133c0.006-0.174,0.162-0.349,0.156-0.521
			c-0.164-4.597-0.502-9.196-0.466-13.792c0.028-3.68,0.881-7.375,0.694-11.028c-0.267-5.257-2.728-6.282-6.917-3.613
			c-0.94,0.6-2.581,0.192-3.889,0.102c-1.577-0.108-3.167-0.629-4.713-0.507c-2.317,0.182-5.154,0.075-6.766,1.356
			c-2.037,1.62-3.066,4.508-4.529,6.85c0.491,0.208,0.98,0.413,1.472,0.62C552.275,310.078,552.298,319.09,552.267,328.1z"/>
		<path fill-rule="evenodd" clip-rule="evenodd" fill="#FFFFFF" d="M294.992,297.011c-3.088-0.146-4.884-0.436-6.626-0.242
			c-1.176,0.131-2.275,0.946-3.408,1.457c0.533,0.799,1.052,2.283,1.603,2.294c7.979,0.18,5.128,6.173,5.533,10.282
			c0.188,1.913-0.402,3.892-0.357,5.834c0.206,8.906,0.635,17.811,0.728,26.717c0.05,4.74-0.637,9.485-0.605,14.226
			c0.043,6.394,0.533,12.783,0.679,19.177c0.06,2.595-0.436,5.201-0.411,7.801c0.062,6.603,0.27,13.207,0.427,19.81
			c0.068,2.865,0.271,5.733,0.2,8.597c-0.078,3.085-4.638,4.839-8.712,4.212c-2.908-0.446-6.126-0.271-8.959,0.517
			c-4.114,1.144-6.02,0.158-5.813-4.222c0.393-8.352,1.032-16.693,1.378-25.046c0.077-1.862-0.928-3.755-0.935-5.636
			c-0.027-6.196,0.341-12.397,0.243-18.591c-0.103-6.417-0.735-12.825-0.819-19.241c-0.05-3.826,0.755-7.662,0.739-11.492
			c-0.024-5.732-0.628-11.465-0.619-17.197c0.009-4.986,0.448-9.98,0.91-14.952c0.063-0.676,1.287-1.375,2.108-1.811
			c0.714-0.379,1.619-0.4,2.439-0.579c-0.493-0.922-0.775-2.364-1.518-2.664c-2.001-0.807-4.192-1.38-6.322-1.433
			c-0.45-0.011-1.389,2.596-1.384,3.993c0.035,11.68,0.433,23.36,0.299,35.036c-0.059,5.135-1.452,10.25-1.578,15.391
			c-0.102,4.19,0.804,8.401,1.213,12.608c0.097,0.996-0.013,2.011-0.012,3.017c0.006,6.356,0.009,12.713,0.028,19.069
			c0.007,2.487,0.131,4.978,0.061,7.462c-0.131,4.64-0.596,9.283-0.489,13.914c0.097,4.25,0.783,8.487,1.177,12.732
			c0.378,4.088,2.752,4.031,6.021,3.385c3.78-0.747,7.689-0.841,11.542-1.225c3.696-0.367,7.439-0.513,11.052-1.276
			c0.874-0.185,1.773-2.383,1.871-3.713c0.289-3.911,0.28-7.854,0.199-11.779c-0.086-4.271-0.469-8.537-0.571-12.808
			c-0.145-6.088-0.097-12.182-0.247-18.27c-0.054-2.22-0.569-4.429-0.626-6.649c-0.045-1.767,0.368-3.54,0.437-5.316
			c0.275-7.073,0.583-14.147,0.686-21.225c0.037-2.49-0.602-4.981-0.712-7.482c-0.238-5.401-0.519-10.812-0.422-16.215
			c0.068-3.815,1.055-7.627,1.011-11.433C296.395,301.308,295.337,298.583,294.992,297.011z"/>
		<path fill-rule="evenodd" clip-rule="evenodd" fill="#FFFFFF" d="M483.718,225.82c-2.556-3.375-4.529-5.906-6.419-8.497
			c-1.66-2.278-3.236-4.62-4.835-6.942c-0.908-1.316-1.758-2.674-2.689-3.973c-2.98-4.153-6.023-8.262-8.94-12.458
			c-0.406-0.582-0.265-1.554-0.335-2.349c-0.054-0.611,0.125-1.7-0.08-1.772c-6.98-2.434-8.055-9.885-12.455-14.466
			c-0.949-0.987-3.403-2.112-3.827-1.722c-1.276,1.174-2.979,3.471-2.558,4.6c1.291,3.463,0.256,6.036-0.855,9.28
			c-1.043,3.04,0.183,6.845,0.351,10.316c0.224,4.664,0.302,9.336,0.605,13.995c0.268,4.121,0.842,8.222,1.107,12.342
			c0.081,1.252-0.036,2.822-0.726,3.759c-1.855,2.524-1.456,4.642,0.538,6.688c0.972,0.996,2.104,1.833,3.161,2.741
			c0.713-1.762,1.56-3.486,2.089-5.302c0.317-1.09,0.196-2.326,0.177-3.494c-0.106-6.186-0.396-12.374-0.309-18.557
			c0.051-3.531,0.839-7.048,1.012-10.585c0.076-1.568-0.742-3.163-0.789-4.757c-0.041-1.351,0.442-2.717,0.694-4.076
			c1.276,0.275,3.139,0.108,3.732,0.897c3.717,4.938,7.154,10.086,10.672,15.174c2.27,3.282,5.131,6.329,6.599,9.94
			c1.402,3.45,3.795,4.922,6.517,6.959c3.138,2.35,4.975,6.397,7.542,9.572c0.923,1.143,2.333,1.893,3.521,2.823
			c0.416-1.951,1.102-3.889,1.191-5.854c0.225-4.866,0.11-9.747,0.272-14.617c0.069-2.13,0.729-4.252,0.703-6.373
			c-0.104-8.099-0.419-16.193-0.565-24.291c-0.059-3.206,0.238-6.42,0.118-9.621c-0.043-1.156-0.552-2.937-1.346-3.282
			c-1.441-0.625-3.372-0.767-4.859-0.318c-0.584,0.176-0.861,2.522-0.695,3.804c0.375,2.891,1.601,5.734,1.603,8.597
			c0.003,5.968-0.617,11.934-0.868,17.906c-0.097,2.307,0.096,4.627,0.192,6.94C483.182,214.021,483.422,219.196,483.718,225.82z"/>
		<path fill-rule="evenodd" clip-rule="evenodd" fill="#FFFFFF" d="M194.14,291.533c-6.278-0.917-12.563-1.788-18.831-2.771
			c-3.68-0.578-5.314,1.25-5.697,4.59c-0.604,5.27-0.793,10.613-1.779,15.809c-0.797,4.202-2.796,8.17-3.723,12.361
			c-0.696,3.15-0.219,6.552-0.829,9.732c-0.99,5.16-2.569,10.203-3.669,15.345c-1.271,5.943-2.199,11.958-3.451,17.905
			c-1.233,5.862-2.81,11.651-3.992,17.522c-0.738,3.661-0.668,7.507-1.602,11.104c-1.35,5.206-3.485,10.206-4.875,15.404
			c-0.651,2.437-0.163,5.155-0.514,7.703c-0.529,3.838-1.295,7.646-2.046,11.449c-0.557,2.814-1.266,5.312,3.395,4.157
			c2.676-0.663,5.65-0.047,8.39-0.553c3.316-0.612,6.493-1.951,9.795-2.682c1.963-0.434,4.12-0.027,6.061-0.515
			c1.345-0.339,3.256-1.337,3.561-2.42c1.72-6.131,3.031-12.376,4.485-18.58c0.063-0.267,0.203-0.519,0.247-0.786
			c1.312-7.993,3.456-9.502,11.225-8.314c1.762,0.271,3.64-0.329,5.465-0.338c2.447-0.014,4.9,0.278,7.343,0.199
			c1.136-0.038,2.253-0.644,3.38-0.992c-0.98-0.844-1.931-2.37-2.944-2.412c-4.727-0.196-9.469,0.074-14.206,0.06
			c-2.405-0.008-4.89-0.702-7.192-0.286c-2.151,0.39-5.363,1.387-5.912,2.908c-1.431,3.972-1.698,8.37-2.355,12.61
			c-0.575,3.705-0.795,7.485-1.631,11.128c-1.056,4.595-5.135,4.756-8.81,5.139c-3.818,0.397-7.658,0.81-11.488,0.806
			c-2.912-0.003-4.681-1.062-3.211-4.726c0.979-2.442,0.868-5.312,1.311-7.981c1.298-7.825,2.511-15.668,3.99-23.458
			c0.932-4.91,2.288-9.739,3.439-14.608c1.477-6.249,2.915-12.508,4.417-18.749c0.71-2.945,1.646-5.841,2.269-8.802
			c0.452-2.152,0.412-4.406,0.843-6.564c1.684-8.415,3.529-16.798,5.194-25.217c1.191-6.017,1.922-12.142,3.435-18.071
			c0.464-1.818,2.656-4.186,4.372-4.484c3.407-0.591,7.037,0.257,10.566,0.168c2.024-0.051,4.032-0.773,6.047-1.194
			C194.454,292.597,194.296,292.065,194.14,291.533z"/>
		<path fill-rule="evenodd" clip-rule="evenodd" fill="#FFFFFF" d="M319.998,173.817c1.599-0.107,3.288,0.66,4.892,1.161
			c1.795,0.559,3.547,1.253,5.301,1.936c0.493,0.191,1.199,0.45,1.337,0.841c2.009,5.754,4.831,11.356,3.313,17.79
			c-0.412,1.743-0.321,3.616-0.813,5.328c-0.609,2.126-2.531,4.309-2.212,6.182c0.71,4.161,2.659,8.09,3.744,12.209
			c1.604,6.089,3.01,12.239,4.168,18.425c0.136,0.731-1.815,1.854-2.798,2.795c-1.749-3.179-4.233-6.175-5.081-9.579
			c-1.346-5.41-1.514-11.104-2.409-16.642c-0.143-0.878-1.365-1.945-2.309-2.26c-2.769-0.924-6.224-0.771-8.349-2.414
			c-2.845-2.201-4.904-2.806-7.682-0.479c-0.239,0.2-1.137-0.567-1.618-0.447c-3.557,0.89-8.269,0.862-10.273,3.163
			c-1.793,2.062-0.813,6.738-0.661,10.244c0.224,5.179,1.072,10.345,1.016,15.51c-0.011,1.187-2.617,2.347-4.029,3.518
			c-0.502-1.159-1.435-2.32-1.426-3.476c0.028-3.96-0.1-8.023,0.73-11.852c1.421-6.54-4.627-13.347,0.855-19.665
			c0.155-0.18-0.462-1.123-0.825-1.636c-0.591-0.837-1.759-1.577-1.821-2.422c-0.214-2.878-0.042-5.785-0.038-8.682
			c0.008-5.703,0.003-11.407,0.003-17.359C302.096,175.247,311.04,174.417,319.998,173.817z M301.814,179.863
			c-0.902,0.042-2.377,2.002-2.45,3.146c-0.327,5.221-0.139,10.472-0.349,15.704c-0.164,4.119,2.933,6.247,7.009,5.247
			c2.14-0.525,4.61,0.499,6.905,0.364c4.601-0.271,9.704,0.18,13.559-1.748c1.934-0.968,1.596-6.5,2.251-9.975
			c0.116-0.615-0.091-1.313,0.104-1.886c2.271-6.643-2.073-12.255-9.179-11C313.713,179.716,307.754,179.579,301.814,179.863z"/>
		<path fill-rule="evenodd" clip-rule="evenodd" fill="#FFFFFF" d="M369.808,322.491c3.881,7.235,7.484,14.424,5.676,22.171
			c-0.224,0.954,0.017,19.183,0.017,20.979s-18.853,10.255-20.728,11.652c-0.577,0.429-1.39,0.885-2.01,0.789
			c-0.383-0.06-0.861-1.137-0.868-1.761c-0.086-9.356-0.275-18.718-0.061-28.069c0.119-5.226,0.4-10.562,1.593-15.615
			c1.089-4.616,4.988-6.952,9.694-7.882c1.55-0.306,2.95-1.365,4.42-2.08c-0.205-0.669-0.411-1.339-0.618-2.008
			c-4.645,0.695-9.715,0.499-13.774,2.427c-2.352,1.117-4.113,5.572-4.348,8.66c-0.661,8.709-0.378,17.486-0.503,26.238
			c-0.083,5.88-0.576,11.781-0.207,17.631c0.207,3.281,5.861,5.706,5.999,4.312c0.608,1.068,7.942-4.688,14.822-7.78
			c3.248-1.46,5.936-4.216,8.759-6.529c0.353-0.289-0.107-1.475-0.054-2.234c0.467-6.639,1-13.273,1.438-19.913
			c0.187-2.803,1.192-6.1,0.107-8.345C373.744,323.911,373.544,324.009,369.808,322.491z"/>
		<path fill-rule="evenodd" clip-rule="evenodd" fill="#FFFFFF" d="M392.006,172.124c-4.369,0.735-8.473,1.316-12.508,2.21
			c-0.689,0.153-1.083,1.641-1.614,2.512c1.115,0.382,2.206,0.981,3.35,1.109c6.26,0.698,12.684,0.689,18.723,2.223
			c2.111,0.537,4.425,4.669,4.669,7.34c0.7,7.685,0.394,15.463,0.478,23.204c0.061,5.706,0.195,11.414,0.129,17.119
			c-0.038,3.229-4.673,6.65-8.612,6.637c-1.278-0.004-2.628-0.165-3.806,0.198c-0.739,0.228-1.585,1.24-1.704,2.006
			c-0.098,0.628,0.988,2.095,1.239,2.027c5.171-1.372,12.128-1.405,14.938-4.822c3.058-3.721,2.608-10.585,3.039-16.13
			c0.413-5.329,0.05-10.723-0.07-16.087c-0.2-9.038,1.765-18.923-5.999-25.751C401.348,173.362,396.216,173.333,392.006,172.124z"/>
		<path fill-rule="evenodd" clip-rule="evenodd" fill="#FFFFFF" d="M234.691,361.288c-0.479-1.189-0.033-2.743-0.055-4.131
			c-0.012-0.756,0.049-1.598-0.271-2.221c-0.148-0.287-1.372-0.415-1.682-0.138c-0.529,0.469-1.115,1.397-0.995,1.993
			c1.42,7.037,3.062,14.03,4.45,21.073c0.943,4.789,1.322,9.699,2.42,14.447c1.272,5.5,3.105,10.867,4.596,16.32
			c0.689,2.524,1.675,5.16,1.463,7.655c-0.098,1.157-2.632,2.329-4.255,3.071c-1.479,0.677-3.225,0.766-4.845,1.146
			c-0.492,0.115-1.307,0.591-1.384,0.482c-3.289-4.652-7.764,0.199-11.365-1.457c-1.241-0.57-3.058-1.188-3.4-2.195
			c-1.823-5.37-3.08-10.933-4.928-16.292c-0.662-1.919-2.433-3.455-3.698-5.167c-0.026,1.956-0.493,4.034,0.009,5.844
			c1.227,4.431,3.045,8.696,4.338,13.111c0.646,2.211,0.439,4.66,1.008,6.902c1.176,4.628,4.651,1.71,7.026,1.727
			c2.874,0.022,5.742-1.015,8.634-1.161c4.991-0.251,10.008-0.026,14.991-0.364c0.843-0.058,2.31-2.009,2.213-2.954
			c-0.432-4.254-1.14-8.503-2.102-12.673c-1.008-4.362-2.442-8.626-3.65-12.944c-0.693-2.474-1.369-4.955-1.942-7.459
			c-1.198-5.231-2.323-10.479-3.478-15.721C238.157,370.055,235.869,364.214,234.691,361.288z"/>
		<path fill-rule="evenodd" clip-rule="evenodd" fill="#FFFFFF" d="M656.209,304.64c4.077,0.26,9.687,6.074,9.292,9.238
			c-0.562,4.54-1.114,9.13-1.007,13.683c0.097,4.096-6.076,12.688-10.145,13.077c-0.49,0.046-1.033-0.475-1.529-0.437
			c-4.282,0.325-8.556,0.745-12.838,1.061c-0.611,0.046-1.757-0.225-1.801-0.49c-0.837-5.016-1.887-10.037-2.175-15.096
			c-0.253-4.454,0.159-8.985,0.709-13.429c0.271-2.198,1.174-5.867,2.382-6.129c4.847-1.046,9.926-1.019,16.217-1.483
			C654.741,304.635,655.477,304.595,656.209,304.64z M646.34,335.729c6.646,4.694,9.352-1.679,13.185-4.74
			c0.552-0.442,0.905-1.451,0.913-2.203c0.059-5.543,0.125-11.09-0.061-16.626c-0.095-2.778-6.517-5.096-10.034-3.778
			c-1.106,0.414-2.188,1.239-3.292,1.258c-6.403,0.108-6.133,4.068-5.691,8.773c0.359,3.84-0.042,7.785-0.405,11.655
			c-0.321,3.416,1.091,5.206,3.328,5.818C645.639,335.767,646.115,335.57,646.34,335.729z"/>
		<path fill-rule="evenodd" clip-rule="evenodd" fill="#FFFFFF" d="M371.891,206.008c-0.538-3.297-1.371-5.646-1.198-7.92
			c0.36-4.726,1.44-9.395,1.842-14.12c0.183-2.155-0.457-4.405-0.964-6.556c-0.056-0.239-2.066-0.509-2.55-0.074
			c-2.905,2.613-4.46,5.441-2.744,9.749c0.878,2.195-0.203,5.145-0.295,7.757c-0.127,3.599-0.197,7.2-0.216,10.801
			c-0.027,4.516-0.429,9.092,0.16,13.532c0.714,5.393,2.054,10.746,3.666,15.948c0.397,1.282,2.797,2.425,4.446,2.74
			c3.905,0.745,7.905,1.158,11.881,1.258c1.234,0.031,2.505-1.374,3.761-2.122c-0.08-0.477-0.158-0.954-0.236-1.431
			c-2.7-0.187-5.406-0.581-8.1-0.514c-4.501,0.112-8.64-3.071-9.06-7.58c-0.212-2.293,0.143-4.636,0.202-6.958
			c0.016-0.621-0.132-1.244-0.171-1.867c-0.255-4.12-0.527-8.239-0.696-12.362C371.603,205.968,372.343,205.617,371.891,206.008z"/>
		<path fill-rule="evenodd" clip-rule="evenodd" fill="#FFFFFF" d="M225.494,337.311c1.376,4.44,2.804,8.872,4.362,13.252
			c0.417,1.169,1.397,2.136,2.118,3.195c0.259-1.188,0.948-2.472,0.707-3.548c-1.951-8.732-4.178-17.403-6.114-26.142
			c-1.313-5.923-2.095-11.966-3.486-17.868c-0.96-4.077-2.435-8.055-3.982-11.957c-0.26-0.656-2.04-0.893-3.148-0.993
			c-2.892-0.259-5.799-0.331-8.7-0.483c-3.689-0.194-7.377-0.417-11.069-0.532c-0.249-0.007-0.845,1.02-0.726,1.198
			c0.472,0.71,1.106,1.736,1.783,1.821c4.349,0.538,8.753,1.363,13.087,1.132c6.433-0.343,6.271,4.69,7.405,8.395
			c1.907,6.229,3.281,12.624,4.857,18.956c0.104,0.423,0.013,0.894,0.013,1.343C222.392,325.129,224.253,333.303,225.494,337.311z"
			/>
		<path fill-rule="evenodd" clip-rule="evenodd" fill="#FFFFFF" d="M184.291,365.974c-0.172-1.624,0.314-3.296,0.541-4.861
			c0.979-6.767,2.063-13.523,3.325-20.242c1.003-5.349,2.299-10.642,3.522-15.948c0.12-0.521,0.636-0.953,0.969-1.429
			c0.639,0.524,1.663,0.936,1.856,1.591c1.959,6.662,3.844,13.349,5.626,20.062c1.521,5.729,2.911,11.494,4.281,17.263
			c0.222,0.932,0.34,2.111-0.061,2.883L184.291,365.974z M199.598,362.09c-1.452-5.76-4.614-18.089-6.098-23.84
			c-0.056-0.217-5.187,23.797-4.998,23.84H199.598z"/>
		<path fill-rule="evenodd" clip-rule="evenodd" fill="#FFFFFF" d="M329.688,412.91c2.056,5.909,6.762,4.771,11.328,4.661
			c4.358-0.104,8.734,0.681,13.101,0.645c2.818-0.024,5.638-0.774,8.432-1.33c0.381-0.076,0.613-0.913,0.913-1.397
			c-1.131-0.613-2.267-1.762-3.396-1.755c-7.029,0.037-14.058,0.491-21.085,0.469C335.92,414.191,332.862,413.378,329.688,412.91z"
			/>
		<path fill-rule="evenodd" clip-rule="evenodd" fill="#FFFFFF" d="M96.314,363.742c0-9.73,0.109-19.461-0.043-29.188
			c-0.085-5.485-0.073-11.063-1.06-16.424c-1.24-6.732-5.259-9.405-11.977-9.71c-2.315-0.105-4.615-1.291-6.895-1.211
			c-2.575,0.088-5.267,0.73-7.591,1.812c-0.74,0.344-0.631,2.859-0.631,4.382c-0.002,5.673,1.324,25.289,1.307,26.141
			c-0.079,3.824-0.257,7.646-0.401,11.469c-0.108,2.879-0.37,5.762-0.298,8.637c0.172,6.767,0.534,13.528,0.757,20.295
			c0.117,3.524,0.012,7.057,0.168,10.577c0.219,4.932,0.589,9.855,0.891,14.782c0.067,1.092,0.262,2.199,0.153,3.275
			c-0.566,5.615,2.192,8.016,8.021,7.018c1.67-0.285,3.444-0.063,5.072-0.473c1.06-0.266,1.939-1.248,2.899-1.907
			c-0.633-0.902-1.091-2.303-1.936-2.6c-1.645-0.578-3.542-0.869-5.271-0.685c-4.474,0.475-4.682-1.928-4.64-5.472
			c0.098-8.23-0.285-16.466-0.403-24.699c-0.044-3.071,0.248-6.15,0.133-9.218c-0.167-4.423-0.727-8.833-0.815-13.256
			c-0.079-3.888,0.385-7.784,0.38-11.677c-0.005-4.88-0.23-9.76-0.386-14.639c-0.168-5.235-0.468-10.471-0.452-15.706
			c0.002-0.849,1.442-2.489,2.053-2.413c3.977,0.485,8.591,0.331,11.646,2.389c2.616,1.765,4.417,6.089,4.814,9.486
			c0.656,5.585-0.31,11.34-0.236,17.019c0.098,7.517,0.748,15.028,0.771,22.542c0.023,7.317-0.656,14.636-0.603,21.95
			c0.026,3.499,1.496,6.996,1.458,10.484c-0.033,3.142-1.1,6.31-1.966,9.394c-0.494,1.76-1.499,3.376-2.273,5.057
			c0.554,0.229,1.431,0.804,1.611,0.634c1.794-1.683,4.088-3.2,5.08-5.312c4.148-8.825,1.151-18.147,1.336-27.26
			c0.106-5.161,0.02-10.328,0.02-15.493C96.777,363.742,96.546,363.742,96.314,363.742z"/>
	</g>
</g>
</svg>
