<?xml version="1.0" encoding="utf-8"?>
<!-- Generator: Adobe Illustrator 16.0.0, SVG Export Plug-In . SVG Version: 6.00 Build 0)  -->
<!DOCTYPE svg PUBLIC "-//W3C//DTD SVG 1.1//EN" "http://www.w3.org/Graphics/SVG/1.1/DTD/svg11.dtd">
<svg version="1.1" xmlns="http://www.w3.org/2000/svg" xmlns:xlink="http://www.w3.org/1999/xlink" x="0px" y="0px" width="800px"
	 height="600px" viewBox="0 0 800 600" enable-background="new 0 0 800 600" xml:space="preserve">
<g id="Layer_1" display="none">
	<g id="lQuti3_1_" display="inline">
		<g>
			<path fill="#FFFFFF" d="M385.92,56.317c-119.417,0-238.835-0.008-358.253,0.129c-1.04,0.001-2.985,1.947-2.987,2.986
				c-0.134,159.916-0.134,319.832,0,479.748c0.001,1.039,1.948,2.986,2.987,2.987c238.835,0.132,477.671,0.132,716.507,0
				c1.039-0.001,2.986-1.948,2.986-2.987c0.135-159.916,0.135-319.832,0-479.748c0-1.039-1.947-2.985-2.986-2.986
				C624.756,56.309,505.338,56.317,385.92,56.317z M226.184,158.117c-0.07,0.327-0.139,0.653-0.209,0.98
				c-3.201,0.207-6.562-0.103-9.544,0.815c-1.792,0.551-2.995,3.018-4.463,4.623c1.485,0.471,2.945,1.236,4.458,1.365
				c13.854,1.18,27.968,0.999,41.505,3.716c12.611,2.53,25.411,6.614,36.707,12.666c21.659,11.604,41.216,26.441,55.755,46.764
				c1.375,1.922,0.21,5.665,0.224,8.562c-3.439-0.407-8.129,0.47-10.096-1.446c-7.794-7.596-13.832-17.192-22.227-23.919
				c-10.025-8.034-21.084-15.827-32.99-20.202c-15.261-5.607-31.661-8.965-47.855-10.883c-11.38-1.348-23.39,0.447-34.838,2.446
				c-11.751,2.052-24.21,4.114-34.481,9.654c-16.564,8.935-32.841,19.296-46.947,31.669c-17.679,15.508-28.555,36.844-35.208,59.003
				c-6.976,23.231-9.21,47.493-3.63,71.964c5.082,22.283,12.229,43.654,27.362,61.01c10.404,11.932,22.356,22.628,34.356,33.025
				c15.728,13.628,34.638,20.799,54.936,24.849c23.804,4.75,47.09,2.05,70.29-3.688c1.393-0.345,2.983,0.107,4.482,0.188
				c-0.733,3.573-0.958,10.049-2.274,10.279c-17.457,3.049-35.382,8.452-52.558,6.781c-20.8-2.024-41.267-9.409-61.342-16.087
				c-9.774-3.251-20.148-8.447-27.072-15.769c-16.161-17.089-31.609-35.16-44.957-54.484c-7.952-11.513-13.627-25.723-16.25-39.496
				c-3.063-16.086-2.2-33.021-2.099-49.583c0.113-18.489,4.084-36.236,13.76-52.331c8.046-13.383,14.964-27.678,24.609-39.796
				c8.064-10.133,18.521-18.983,29.437-26.062c12.208-7.917,25.815-13.984,39.402-19.37c10.188-4.037,21.325-5.661,31.989-8.542
				c1.153-0.312,1.977-1.844,2.954-2.81c-0.814-0.689-1.646-1.988-2.441-1.965c-4.392,0.123-9.03-0.242-13.113,1.049
				c-14.331,4.534-28.95,8.633-42.533,14.906c-11.571,5.343-22.595,12.558-32.496,20.622c-8.106,6.602-14.893,15.179-21.017,23.771
				c-8.302,11.647-15.967,23.842-22.806,36.4c-3.591,6.593-5.291,14.355-7.049,21.777c-2.806,11.846-7.227,23.918-6.858,35.768
				c0.606,19.517,2.63,39.419,7.548,58.245c4.465,17.095,11.618,34.23,21.119,49.09c13.875,21.697,33.254,38.914,56.159,51.287
				c24.11,13.023,49.665,22.387,77.49,20.79c17.13-0.983,34.09-4.843,51.144-7.288c2.015-0.289,5.738-0.271,5.937,0.404
				c0.809,2.762,1.837,7.229,0.439,8.513c-3.337,3.063-7.886,6.289-12.153,6.6c-18.8,1.37-37.831,3.551-56.475,1.936
				c-17.889-1.55-36.195-5.368-52.916-11.821c-32.282-12.457-58.03-34.382-78.258-62.533c-4.257-5.925-9.004-11.795-11.791-18.42
				c-6.358-15.113-12.723-30.384-17.032-46.151c-3.667-13.423-4.439-27.634-6.549-41.487c-0.508-3.334-2.324-6.871-1.663-9.905
				c1.814-8.327,4.933-16.361,6.967-24.651c2.614-10.652,2.604-22.5,7.435-31.931c8.192-15.991,18.556-31.041,29.344-45.487
				c14.77-19.779,32.676-36.463,55.688-46.522c11.89-5.198,23.841-11.069,36.382-13.762c16.25-3.489,33.077-4.794,49.729-5.714
				c10.245-0.566,20.812,0.407,30.894,2.406c9.773,1.938,19.371,5.466,28.577,9.395c11.238,4.796,23.358,9.043,32.645,16.559
				c16.124,13.047,30.466,28.32,45.253,42.964c1.592,1.576,1.193,5.162,1.717,7.816c-3.541,0.283-8.666,2.211-10.363,0.578
				c-9.791-9.422-18.232-20.269-28.197-29.479c-7.842-7.249-16.493-14.46-26.094-18.776c-14.546-6.54-30.057-11.178-45.49-15.42
				C248.051,160.688,236.99,159.863,226.184,158.117z M307.724,376.709c1.303,37.047-33.297,79.186-83.24,72.251
				c-22.045-3.061-39.745-14.35-52.297-34.177c-11.125-17.571-10.659-35.922-9.73-55.184c1.396-28.962,40.981-60.002,79.012-56.42
				C278.416,306.661,306.265,333.29,307.724,376.709z M492.246,385.146c3.969,0.439,5.3,0.587,6.632,0.734
				c-0.696,1.201-1.492,2.357-2.058,3.616c-0.449,1-0.616,2.126-0.909,3.196c3.045-0.089,6.094-0.12,9.125-0.369
				c0.251-0.021,0.542-1.509,0.532-2.312c-0.015-1.35-0.257-2.697-0.404-4.045c1.68-0.069,3.389-0.375,5.034-0.171
				c12.922,1.602,25.882,3.002,38.708,5.179c3.217,0.546,5.998,3.676,8.967,5.638c0.35,0.231,0.704,0.889,0.903,0.83
				c0.479-0.142,1.277-0.684,1.229-0.903c-1.012-4.541,6.855-13.167-5.881-12.436c-3.808,0.219-7.835-0.778-11.542-1.928
				c-10.957-3.396-21.817-7.107-32.67-10.828c-0.886-0.304-1.424-1.618-2.123-2.463c1.517-0.33,3.089-1.105,4.54-0.921
				c16.335,2.079,32.62,4.646,49.005,6.143c2.624,0.239,5.733-4.07,8.425-6.493c0.27-0.242-0.818-1.993-1.276-3.044
				c-0.612,0.839-1.25,1.66-1.827,2.522c-0.439,0.658-0.803,1.368-1.2,2.056c-0.254-0.708-0.825-1.469-0.716-2.115
				c2.472-14.562,0.237-27.67-9.62-39.513c-8.901-10.694-18.242-19.674-33.074-20.768c-1.801-0.133-3.292-3.357-5.087-4.969
				c-1.764-1.582-3.694-2.993-5.665-4.307c-0.223-0.148-1.664,0.75-1.73,1.267c-0.685,5.316-0.52,10.856-2.02,15.909
				c-0.915,3.081-4.299,5.443-6.652,8.059c-0.228,0.253-1.461,0.054-1.469-0.017c-0.311-2.91-0.996-5.896-0.592-8.723
				c0.233-1.629,2.109-3.168,3.556-4.375c0.356-0.296,1.896,1.047,2.961,1.23c0.281,0.048,1.369-1.748,1.143-2.117
				c-0.656-1.07-2.054-2.774-2.7-2.593c-6.577,1.849-14.746,2.343-19.036,6.642c-3.396,3.401-2.05,11.581-2.632,17.655
				c-0.045,0.469,1.498,0.946,1.995,1.64c1.1,1.531,3.204,4.143,2.794,4.667c-2.911,3.719-8.175,6.922-0.412,11.004
				c0.08,0.041-0.275,0.813-0.348,1.258c-2.339,14.276-5.269,28.492-6.779,42.856c-0.961,9.141,0.371,18.507,0.217,27.765
				c-0.027,1.636-2.039,4.282-3.595,4.685c-12.608,3.264-7.971-7.005-7.548-11.406c1.741-18.136,4.631-36.16,7.029-54.234
				c1.389-10.47,2.832-20.94,3.825-31.45c0.251-2.658-1.131-5.471-1.762-8.212c-1.895,0.648-3.77,1.754-5.688,1.838
				c-2.844,0.125-5.823-0.144-8.511-0.986c-0.712-0.224-1.277-3.473-0.702-4.814c3.708-8.645,16.782-14.248,25.541-11.304
				c0.784,0.264,2.019,0.298,2.559-0.148c0.502-0.416,0.455-1.615,0.469-2.472c0.021-1.418-0.298-4.05-0.138-4.076
				c2.486-0.398,5.026-0.534,7.557-0.573c1.745-0.027,3.494,0.188,5.242,0.294c9.893,0.597,20.573-0.931,29.466,2.365
				c9.636,3.57,18.045,11.123,26.076,18.004c3.062,2.624,3.024,7.525,7.143,11.389c5.521,5.182,7.917,15.858,7.963,24.195
				c0.065,11.858-3.188,23.741-5.097,35.602c-1.051,6.523-2.424,12.998-3.346,19.538c-1.235,8.776-2.099,17.604-3.393,26.371
				c-0.1,0.678-2.438,1.651-3.56,1.458c-12.691-2.185-4.284-10.488-4.427-16.182c-0.127-5.125,2.094-14.191,0.65-14.753
				c-7.914-3.073-16.658-3.972-25.056-5.889c-1.034-0.236-1.544-2.272-2.576-3.142c-1.324-1.114-2.846-2.123-4.452-2.714
				c-0.79-0.29-1.963,0.465-2.963,0.747c0.449,0.556,0.831,1.191,1.366,1.646c0.61,0.518,1.357,0.874,2.046,1.3
				c-0.862,0.464-1.756,1.378-2.581,1.32c-7.822-0.548-15.629-1.336-23.452-1.862c-1.504-0.102-4.369,0.603-4.38,0.993
				c-0.055,2.137-0.17,5.146,1.122,6.286c4.552,4.017,5.749,19.154,0.671,22.277c-2.099,1.291-6.027-0.237-9.065-0.797
				c-0.453-0.083-0.923-1.934-0.818-2.904c1.076-9.977,2.063-19.972,3.567-29.886C489.175,389.447,491.258,387.044,492.246,385.146z
				 M424.299,418.436c-1.496,1.291-4.17,3.598-6.843,5.904c-1.914-3.026-4.717-5.826-5.552-9.126
				c-1.638-6.461,0.035-14.94-3.562-19.518c-14.085-17.917-29.656-34.669-44.809-51.735c-1.012-1.14-3.13-1.297-4.732-1.912
				c-0.242,1.328-0.812,2.69-0.673,3.978c0.999,9.319,2.301,18.608,3.205,27.937c1.672,17.247,3.203,34.508,4.573,51.78
				c0.12,1.521-1.09,4.309-2.162,4.574c-7.358,1.82-12.282,0.682-9.949-8.953c0.69-2.851-0.373-6.152-0.757-9.231
				c-1.678-13.429-3.749-26.818-5.027-40.284c-1.871-19.697-3.213-39.444-4.7-59.176c-0.155-2.062,0.236-4.165,0.374-6.249
				c1.991,0.898,4.599,1.282,5.854,2.792c3.513,4.226,6.512,8.887,9.564,13.476c0.266,0.399-0.925,1.577-0.824,2.31
				c0.401,2.923,1.046,5.812,1.6,8.714c0.778-1.53,1.402-3.176,2.42-4.524c0.34-0.449,2.128-0.535,2.516-0.111
				c7.816,8.549,15.6,17.132,23.228,25.849c5.151,5.886,10.138,11.923,14.978,18.066c0.759,0.963,0.151,2.899,0.514,4.298
				c0.54,2.086,1.38,4.096,2.093,6.138c2.031-0.98,4.062-1.962,6.094-2.943c-5.371-5.599,11.164-8.366,1.436-16.812
				c-4.313-3.744-1.004-16.155-1.339-24.624c-0.69-17.439-1.823-34.87-1.965-52.312c-0.024-3.029,3.352-7.958,6.141-8.818
				c12.889-3.978,8.358,8.223,8.521,12.116c0.827,19.814-0.08,39.695-0.188,59.555C424.208,371.599,424.299,393.606,424.299,418.436
				z M689.75,306.197c9.074,3.714,18.324,7.081,27.039,11.503c1.356,0.688,0.271,6.187,0.315,9.461
				c-1.679-0.265-3.475-0.234-5.017-0.845c-6.171-2.442-12.076-6.468-18.43-7.328c-9.754-1.322-21.012-3.452-29.441,0.044
				c-14.062,5.83-29.009,13.542-38.776,24.679c-11.749,13.396-12.837,28.401-12.039,44.977c0.017,0.343-0.131,0.707-0.062,1.031
				c1.221,5.715,1.697,11.732,3.838,17.081c8.029,20.055,22.955,32.212,44.054,36.964c2.511,0.565,5.653,1.886,6.796,3.85
				c0.937,1.607-0.334,6.628-1.21,6.78c-3.195,0.556-7.259,0.755-9.873-0.799c-10.646-6.327-22.028-12.127-30.915-20.485
				c-8.084-7.603-15.218-17.497-19.311-27.761c-6.104-15.304-6.391-32.52,1.416-47.145c7.251-13.585,16.443-27.414,28.159-37.013
				C650.867,309.251,669.257,302.961,689.75,306.197z M340.792,353.36c0.314,2.32,0.837,5.618,1.195,8.935
				c2.379,22.015,4.777,44.027,6.933,66.063c0.122,1.24-1.571,3.467-2.873,3.912c-13.366,4.58-10.501-7.056-11.508-12.846
				c-2.146-12.341-2.764-24.949-3.983-37.45c-0.745-7.634-1.443-15.272-2.164-22.909c-1.026-10.897-1.923-21.81-3.114-32.688
				c-1.411-12.893-3.12-25.752-4.521-38.646c-0.087-0.798,1.233-2.286,2.169-2.572c6.104-1.869,14.759,6.442,14.934,12.985
				c0.312,11.67,1.93,23.307,2.193,34.976c0.131,5.81-1.449,11.674-2.471,17.476c-0.135,0.764-1.557,1.301-2.382,1.943
				C336.253,352.693,337.305,352.848,340.792,353.36z M683.078,322.65c7.567,2.946,15.399,5.387,22.546,9.137
				c2.223,1.167,3.196,5.824,3.473,8.994c0.098,1.126-4.068,4.083-5.435,3.63c-6.73-2.23-13.015-7.062-19.76-7.686
				c-8.761-0.81-18.043,0.58-26.637,2.811c-4.52,1.173-8.396,5.821-11.937,9.503c-3.704,3.854-6.731,8.375-9.907,12.714
				c-1.77,2.419-3.886,4.886-4.628,7.657c-0.545,2.038-13.511,4.618-0.228,7.07c0.15,0.027-0.023,2.039-0.116,3.118
				c-0.32,3.718-1.977,7.955-0.74,11.041c2.644,6.601,5.46,14.177,10.606,18.491c7.963,6.678,18.141,10.648,26.927,16.452
				c2.639,1.743,4.176,5.63,5.272,8.856c0.236,0.694-3.808,4.171-5.523,3.921c-3.331-0.487-6.285-3.569-9.614-4.049
				c-9.815-1.414-27.843-15.688-30.354-25.458c-2.256-8.773-3.59-17.78-5.528-26.641c-3.892-17.784,7.876-30.562,16.984-41.969
				C648.61,327.558,665.561,323.438,683.078,322.65z M512.4,283.531c-0.588,1.274-1.177,2.548-1.765,3.822
				c-2.352-1.693-4.704-3.386-7.058-5.079c3.697-1.627,7.45-4.765,11.083-4.63c19.786,0.729,36.864,9.315,51.047,22.269
				c16.209,14.806,25.626,33.94,25.369,56.284c-0.149,13.075-2.567,26.153-4.385,39.171c-1.651,11.837-3.64,23.642-5.99,35.357
				c-0.644,3.209-3.123,6.051-4.761,9.061c-2.325-1.29-6.746-2.807-6.635-3.835c0.677-6.296,2.067-12.574,3.857-18.671
				c1.124-3.827,3.89-7.191,4.888-11.03c0.54-2.079-1.649-4.731-1.604-7.105c0.079-4.195,0.865-8.386,1.476-12.561
				c0.323-2.209,0.675-4.471,1.493-6.516c0.266-0.664,2.114-1.104,3.128-0.942c0.972,0.154,1.799,1.22,2.688,1.885
				c0.351-1.362,1.206-2.828,0.952-4.067c-0.677-3.305-2.085-6.46-2.75-9.766c-2.979-14.793-3.52-30.616-9.425-44.103
				c-4.428-10.111-14.479-19.203-24.219-25.163C538.589,291.058,524.97,288.152,512.4,283.531z M430.846,365.495
				c-0.673-0.077-1.346-0.155-2.019-0.232c0.707-1.381,1.413-2.763,2.12-4.144c0.56,1.401,1.31,2.761,1.63,4.214
				c0.418,1.898,0.329,3.911,0.792,5.793c0.228,0.923,1.209,1.66,1.849,2.481c0.339-0.88,0.951-1.755,0.97-2.643
				c0.116-5.474,0.13-10.95,0.083-16.425c-0.007-0.676-0.578-1.347-0.888-2.02c-0.385,0.498-0.743,1.021-1.161,1.49
				c-0.812,0.912-1.659,1.793-2.492,2.687c-0.408-1.105-1.11-2.192-1.18-3.319c-0.517-8.457-1.152-16.922-1.175-25.387
				c-0.006-2.271,1.897-4.594,3.119-6.783c0.251-0.45,1.373-0.415,2.094-0.603c-0.64-0.519-1.339-0.979-1.906-1.566
				c-1.268-1.312-2.469-2.688-3.697-4.036c1.773-0.771,3.541-1.555,5.322-2.306c0.767-0.323,1.561-0.578,2.342-0.863
				c-0.758-1.742-1.471-3.507-2.341-5.19c-0.089-0.171-1.206,0.004-1.704,0.278c-0.639,0.352-1.135,0.965-1.691,1.466
				c-0.172-1.057-0.473-2.111-0.491-3.172c-0.134-7.6-0.233-15.202-0.281-22.803c-0.008-1.258,0.218-3.597,0.468-3.615
				c3.598-0.261,7.223-0.29,10.829-0.118c0.383,0.018,0.983,1.65,0.983,2.534c0.004,7.533-0.192,15.067-0.167,22.6
				c0.056,17.165,0.318,34.33,0.285,51.495c-0.039,21.192-0.147,42.388-0.717,63.568c-0.049,1.798-3.802,4.983-5.841,4.988
				c-10.016,0.025-4.848-7.605-4.966-11.887C430.587,396.495,430.846,380.991,430.846,365.495z M350.442,284.11
				c-0.826-0.562-0.045-0.257,0.406,0.31c5.203,6.553,10.171,13.302,15.562,19.695c11.449,13.58,23.123,26.97,34.649,40.484
				c0.576,0.675,0.658,1.79,0.855,2.724c0.013,0.062-0.982,0.535-1.455,0.462c-1.154-0.178-2.275-0.563-3.41-0.865
				c0.468,1.508,0.71,3.139,1.453,4.497c1.314,2.405,3.072,4.571,4.341,6.997c0.401,0.767-0.165,2.041-0.289,3.083
				c-0.891-0.366-2.08-0.482-2.625-1.136c-5.138-6.147-10.666-12.057-15.043-18.718c-2.743-4.175-5.461-7.63-9.245-11.157
				c-11.289-10.523-21.123-22.621-31.358-34.251c-2.584-2.936-4.542-6.423-6.788-9.656c1.555-0.823,3.032-2.05,4.685-2.369
				C344.321,283.798,346.601,284.11,350.442,284.11z M494.63,288.825c-7.572-0.022-27.665,10.409-29.421,14.123
				c-0.214,0.451-0.885,0.673-1.312,1.038c-2.099,1.803-4.064,3.795-6.332,5.35c-1.039,0.713-3.358,1.251-3.893,0.7
				c-1.812-1.868-4.683-5.845-4.322-6.207c4.499-4.528,8.948-9.63,14.492-12.474c8.712-4.469,18.187-7.504,27.48-10.741
				c2.123-0.739,4.889-0.078,7.21,0.518c0.555,0.143,1.203,3.184,0.611,3.892C497.563,286.917,495.332,288.267,494.63,288.825z
				 M502.274,367.105c-1.244,0.399-3.47,1.225-5.759,1.796c-0.979,0.244-3.003,0.008-3.008-0.09
				c-0.157-3.021-0.258-6.062-0.056-9.08c0.087-1.302,1.17-2.535,1.269-3.84c0.693-9.202,1.203-18.419,1.931-27.619
				c0.065-0.82,1.266-1.552,1.939-2.324c0.504,0.551,0.966,1.147,1.52,1.644c1.342,1.202,2.721,2.363,4.097,3.528
				c0.682,0.576,2.042,1.191,1.991,1.673C505.092,343.32,503.83,353.832,502.274,367.105z M394.744,256.596
				c0.481-1.161,0.961-2.321,1.443-3.481c1.871,2.223,3.743,4.446,5.613,6.669c-2.163,0.693-4.292,1.833-6.495,2.002
				c-10.084,0.775-20.191,1.263-30.286,1.904c-1.021,0.065-2.833,0.814-2.902,0.656c-0.697-1.627-1.51-3.392-1.443-5.086
				c0.037-0.921,1.689-2.532,2.635-2.548C373.785,256.527,384.265,256.596,394.744,256.596z M383.798,273.77
				c-4.763,0.664-11.45,1.876-18.188,2.337c-1.688,0.115-3.588-2.129-5.229-3.486c-0.137-0.113,0.897-2.478,1.51-2.538
				c12.29-1.197,24.589-2.342,36.914-3.026c1.078-0.06,2.336,3.149,3.511,4.841c-1.242,0.624-2.46,1.718-3.732,1.785
				C394.32,273.91,390.035,273.77,383.798,273.77z M500.784,378.094c0.478,0.282-1.686-0.978-3.796-2.319
				c-0.085-0.055,0.383-1.308,0.493-1.292c6.572,0.93,13.138,1.914,19.686,3.009c0.261,0.043,0.668,1.444,0.421,1.774
				c-0.366,0.49-1.289,0.877-1.92,0.807C511.748,379.634,507.843,379.055,500.784,378.094z M234.133,211.276
				c2.649,3.338,3.724,4.692,4.799,6.045c-3.314,2.183-6.625,4.371-9.996,6.464c-0.025,0.015-1.401-1.566-1.222-1.891
				C229.399,218.844,231.285,215.905,234.133,211.276z"/>
			<path fill-rule="evenodd" clip-rule="evenodd" d="M226.184,158.117c10.807,1.746,21.867,2.57,32.36,5.455
				c15.433,4.242,30.944,8.88,45.49,15.42c9.601,4.316,18.251,11.527,26.094,18.776c9.965,9.211,18.407,20.057,28.197,29.479
				c1.697,1.633,6.822-0.295,10.363-0.578c-0.524-2.654-0.125-6.241-1.717-7.816c-14.788-14.644-29.129-29.917-45.253-42.964
				c-9.287-7.515-21.407-11.763-32.645-16.559c-9.206-3.929-18.803-7.457-28.577-9.395c-10.082-1.999-20.649-2.973-30.894-2.406
				c-16.652,0.92-33.479,2.226-49.729,5.714c-12.541,2.692-24.493,8.564-36.382,13.762c-23.012,10.06-40.918,26.743-55.688,46.522
				c-10.789,14.446-21.152,29.497-29.344,45.487c-4.832,9.431-4.821,21.279-7.435,31.931c-2.034,8.29-5.152,16.324-6.967,24.651
				c-0.661,3.034,1.155,6.571,1.663,9.905c2.109,13.854,2.881,28.064,6.549,41.487c4.309,15.768,10.673,31.038,17.032,46.151
				c2.787,6.625,7.533,12.495,11.791,18.42c20.229,28.151,45.977,50.076,78.258,62.533c16.721,6.453,35.027,10.271,52.916,11.821
				c18.644,1.615,37.675-0.565,56.475-1.936c4.267-0.311,8.816-3.536,12.153-6.6c1.398-1.283,0.37-5.751-0.439-8.513
				c-0.199-0.676-3.922-0.693-5.937-0.404c-17.054,2.445-34.014,6.305-51.144,7.288c-27.826,1.597-53.38-7.767-77.49-20.79
				c-22.905-12.373-42.284-29.59-56.159-51.287c-9.501-14.859-16.654-31.995-21.119-49.09c-4.917-18.826-6.941-38.729-7.548-58.245
				c-0.369-11.85,4.053-23.922,6.858-35.768c1.758-7.422,3.458-15.184,7.049-21.777c6.839-12.558,14.504-24.753,22.806-36.4
				c6.124-8.592,12.911-17.17,21.017-23.771c9.901-8.063,20.924-15.278,32.496-20.622c13.583-6.273,28.202-10.372,42.533-14.906
				c4.083-1.291,8.721-0.926,13.113-1.049c0.795-0.023,1.626,1.276,2.441,1.965c-0.977,0.966-1.8,2.498-2.954,2.81
				c-10.665,2.881-21.802,4.505-31.989,8.542c-13.587,5.386-27.194,11.453-39.402,19.37c-10.915,7.079-21.372,15.929-29.437,26.062
				c-9.646,12.118-16.563,26.413-24.609,39.796c-9.676,16.095-13.647,33.842-13.76,52.331c-0.101,16.562-0.964,33.497,2.099,49.583
				c2.623,13.773,8.298,27.983,16.25,39.496c13.347,19.324,28.796,37.396,44.957,54.484c6.923,7.321,17.297,12.518,27.072,15.769
				c20.075,6.678,40.542,14.062,61.342,16.087c17.176,1.671,35.101-3.732,52.558-6.781c1.316-0.23,1.542-6.706,2.274-10.279
				c-1.499-0.081-3.089-0.533-4.482-0.188c-23.2,5.738-46.486,8.438-70.29,3.688c-20.298-4.05-39.208-11.221-54.936-24.849
				c-12-10.397-23.952-21.094-34.356-33.025c-15.133-17.355-22.28-38.727-27.362-61.01c-5.581-24.471-3.346-48.732,3.63-71.964
				c6.654-22.159,17.529-43.495,35.208-59.003c14.106-12.373,30.383-22.735,46.947-31.669c10.271-5.541,22.73-7.603,34.481-9.654
				c11.448-2,23.458-3.794,34.838-2.446c16.194,1.918,32.595,5.276,47.855,10.883c11.905,4.375,22.965,12.167,32.99,20.202
				c8.395,6.727,14.433,16.323,22.227,23.919c1.967,1.917,6.657,1.04,10.096,1.446c-0.014-2.897,1.151-6.639-0.224-8.562
				c-14.539-20.322-34.096-35.159-55.755-46.764c-11.296-6.052-24.096-10.136-36.707-12.666
				c-13.537-2.717-27.651-2.537-41.505-3.716c-1.514-0.129-2.974-0.895-4.458-1.365c1.468-1.605,2.67-4.071,4.463-4.623
				c2.982-0.918,6.343-0.608,9.544-0.815C226.044,158.771,226.114,158.444,226.184,158.117z"/>
			<path fill-rule="evenodd" clip-rule="evenodd" d="M307.724,376.709c-1.458-43.419-29.308-70.048-66.256-73.529
				c-38.031-3.583-77.617,27.458-79.012,56.42c-0.928,19.262-1.394,37.612,9.73,55.184c12.552,19.827,30.252,31.116,52.297,34.177
				C274.427,455.895,309.027,413.756,307.724,376.709z M235.433,424.485c-28.64-0.855-50.994-24.802-47.804-54.563
				c2.484-23.181,21.259-44.775,60.103-40.562c7.612,0.825,15.782,7.825,21.333,14.076c13.31,14.988,13.546,32.712,9.114,51.764
				C275.438,406.981,251.746,424.973,235.433,424.485z M245.414,313.027c12.596,3.037,27.162,8.844,37.198,21.972
				c4.604,6.022,7.727,13.406,10.469,20.576c5.971,15.617,5.343,32.426-2.42,46.136c-6.798,12.007-18.405,21.985-29.612,30.622
				c-13.02,10.032-29.235,8.054-43.962,4.164c-18.613-4.915-30.548-19.092-40.353-34.874c-0.985-1.586,0.336-4.604,0.587-6.957
				c1.211,1.245,2.958,2.277,3.552,3.769c6.581,16.534,18.438,26.146,35.302,32.466c18.531,6.944,34.669,3.219,49.734-6.357
				c12.493-7.94,20.981-19.484,25.118-34.838c4.15-15.404-2.015-43.537-15.022-52.909c-12.258-8.834-23.281-18.945-40.824-18.401
				c-13.535,0.421-37.157,9.217-44.93,20.685c-9.774,14.417-15.685,29.398-11.774,47.102c0.212,0.96-1.232,2.286-1.905,3.441
				c-0.927-0.797-2.429-1.437-2.697-2.413c-4.355-15.908-1.019-30.936,7.848-44.094C195.963,321.98,216.207,311.451,245.414,313.027
				z"/>
			<path fill-rule="evenodd" clip-rule="evenodd" d="M492.246,385.146c-0.988,1.898-3.071,4.302-3.475,6.96
				c-1.504,9.914-2.491,19.909-3.567,29.886c-0.104,0.971,0.365,2.821,0.818,2.904c3.038,0.56,6.967,2.088,9.065,0.797
				c5.078-3.123,3.881-18.261-0.671-22.277c-1.292-1.14-1.177-4.149-1.122-6.286c0.011-0.391,2.876-1.095,4.38-0.993
				c7.823,0.526,15.63,1.314,23.452,1.862c0.825,0.058,1.719-0.856,2.581-1.32c-0.688-0.426-1.436-0.782-2.046-1.3
				c-0.535-0.454-0.917-1.09-1.366-1.646c1-0.282,2.173-1.037,2.963-0.747c1.606,0.591,3.128,1.6,4.452,2.714
				c1.032,0.869,1.542,2.905,2.576,3.142c8.397,1.917,17.142,2.815,25.056,5.889c1.443,0.562-0.777,9.628-0.65,14.753
				c0.143,5.693-8.265,13.997,4.427,16.182c1.121,0.193,3.46-0.78,3.56-1.458c1.294-8.767,2.157-17.595,3.393-26.371
				c0.922-6.54,2.295-13.015,3.346-19.538c1.909-11.86,5.162-23.743,5.097-35.602c-0.046-8.337-2.441-19.014-7.963-24.195
				c-4.118-3.863-4.08-8.765-7.143-11.389c-8.031-6.881-16.44-14.434-26.076-18.004c-8.893-3.295-19.573-1.768-29.466-2.365
				c-1.748-0.105-3.497-0.321-5.242-0.294c-2.53,0.039-5.07,0.175-7.557,0.573c-0.16,0.026,0.159,2.658,0.138,4.076
				c-0.014,0.856,0.033,2.056-0.469,2.472c-0.54,0.446-1.774,0.412-2.559,0.148c-8.759-2.944-21.833,2.659-25.541,11.304
				c-0.575,1.342-0.01,4.591,0.702,4.814c2.688,0.843,5.667,1.111,8.511,0.986c1.919-0.084,3.794-1.189,5.688-1.838
				c0.631,2.741,2.013,5.554,1.762,8.212c-0.993,10.51-2.437,20.98-3.825,31.45c-2.398,18.074-5.288,36.099-7.029,54.234
				c-0.423,4.401-5.061,14.67,7.548,11.406c1.556-0.402,3.567-3.049,3.595-4.685c0.154-9.258-1.178-18.624-0.217-27.765
				c1.511-14.364,4.44-28.58,6.779-42.856c0.072-0.444,0.428-1.217,0.348-1.258c-7.763-4.082-2.499-7.285,0.412-11.004
				c0.41-0.524-1.694-3.136-2.794-4.667c-0.497-0.693-2.04-1.171-1.995-1.64c0.582-6.074-0.764-14.254,2.632-17.655
				c4.29-4.299,12.459-4.793,19.036-6.642c0.646-0.182,2.044,1.522,2.7,2.593c0.227,0.369-0.861,2.165-1.143,2.117
				c-1.065-0.184-2.604-1.526-2.961-1.23c-1.446,1.207-3.322,2.746-3.556,4.375c-0.404,2.827,0.281,5.812,0.592,8.723
				c0.008,0.07,1.241,0.27,1.469,0.017c2.354-2.615,5.737-4.978,6.652-8.059c1.5-5.053,1.335-10.593,2.02-15.909
				c0.066-0.517,1.508-1.415,1.73-1.267c1.971,1.314,3.901,2.725,5.665,4.307c1.795,1.611,3.286,4.836,5.087,4.969
				c14.832,1.094,24.173,10.073,33.074,20.768c9.857,11.843,12.092,24.95,9.62,39.513c-0.109,0.646,0.462,1.407,0.716,2.115
				c0.397-0.688,0.761-1.397,1.2-2.056c0.577-0.862,1.215-1.684,1.827-2.522c0.458,1.051,1.546,2.802,1.276,3.044
				c-2.691,2.423-5.801,6.732-8.425,6.493c-16.385-1.496-32.67-4.063-49.005-6.143c-1.451-0.185-3.023,0.591-4.54,0.921
				c0.699,0.845,1.237,2.159,2.123,2.463c10.853,3.721,21.713,7.433,32.67,10.828c3.707,1.149,7.734,2.146,11.542,1.928
				c12.736-0.731,4.869,7.895,5.881,12.436c0.049,0.22-0.75,0.762-1.229,0.903c-0.199,0.059-0.554-0.599-0.903-0.83
				c-2.969-1.962-5.75-5.092-8.967-5.638c-12.826-2.177-25.786-3.577-38.708-5.179c-1.646-0.204-3.354,0.102-5.034,0.171
				c0.147,1.348,0.39,2.695,0.404,4.045c0.01,0.803-0.281,2.291-0.532,2.312c-3.031,0.249-6.08,0.28-9.125,0.369
				c0.293-1.07,0.46-2.196,0.909-3.196c0.565-1.259,1.361-2.415,2.058-3.616C497.546,385.732,496.215,385.585,492.246,385.146z"/>
			<path fill-rule="evenodd" clip-rule="evenodd" d="M424.299,418.436c0-24.829-0.091-46.837,0.026-68.844
				c0.107-19.859,1.015-39.74,0.188-59.555c-0.163-3.894,4.367-16.094-8.521-12.116c-2.789,0.861-6.165,5.789-6.141,8.818
				c0.142,17.441,1.274,34.872,1.965,52.312c0.335,8.469-2.975,20.88,1.339,24.624c9.729,8.445-6.807,11.213-1.436,16.812
				c-2.031,0.981-4.062,1.963-6.094,2.943c-0.713-2.042-1.553-4.052-2.093-6.138c-0.362-1.398,0.245-3.335-0.514-4.298
				c-4.84-6.144-9.827-12.181-14.978-18.066c-7.627-8.717-15.412-17.3-23.228-25.849c-0.387-0.424-2.176-0.338-2.516,0.111
				c-1.019,1.349-1.643,2.994-2.42,4.524c-0.554-2.902-1.199-5.791-1.6-8.714c-0.101-0.732,1.09-1.91,0.824-2.31
				c-3.052-4.589-6.051-9.25-9.564-13.476c-1.255-1.51-3.863-1.894-5.854-2.792c-0.137,2.084-0.529,4.187-0.374,6.249
				c1.487,19.731,2.829,39.479,4.7,59.176c1.279,13.466,3.35,26.855,5.027,40.284c0.385,3.079,1.448,6.381,0.757,9.231
				c-2.333,9.635,2.591,10.773,9.949,8.953c1.072-0.266,2.282-3.054,2.162-4.574c-1.37-17.272-2.901-34.533-4.573-51.78
				c-0.904-9.328-2.206-18.617-3.205-27.937c-0.139-1.287,0.431-2.649,0.673-3.978c1.603,0.615,3.72,0.772,4.732,1.912
				c15.152,17.066,30.724,33.818,44.809,51.735c3.598,4.577,1.925,13.057,3.562,19.518c0.835,3.3,3.638,6.1,5.552,9.126
				C420.129,422.033,422.803,419.727,424.299,418.436z"/>
			<path fill-rule="evenodd" clip-rule="evenodd" d="M689.75,306.197c-20.493-3.236-38.883,3.054-53.456,14.994
				c-11.716,9.599-20.908,23.428-28.159,37.013c-7.807,14.625-7.52,31.841-1.416,47.145c4.093,10.264,11.227,20.158,19.311,27.761
				c8.887,8.358,20.27,14.158,30.915,20.485c2.614,1.554,6.678,1.354,9.873,0.799c0.876-0.152,2.146-5.173,1.21-6.78
				c-1.143-1.964-4.285-3.284-6.796-3.85c-21.099-4.752-36.024-16.909-44.054-36.964c-2.141-5.349-2.617-11.366-3.838-17.081
				c-0.069-0.324,0.078-0.688,0.062-1.031c-0.798-16.575,0.29-31.581,12.039-44.977c9.768-11.137,24.715-18.849,38.776-24.679
				c8.43-3.496,19.688-1.366,29.441-0.044c6.354,0.86,12.259,4.886,18.43,7.328c1.542,0.61,3.338,0.58,5.017,0.845
				c-0.044-3.274,1.041-8.772-0.315-9.461C708.074,313.278,698.824,309.911,689.75,306.197z"/>
			<path fill-rule="evenodd" clip-rule="evenodd" d="M340.792,353.36c-3.488-0.513-4.54-0.667-5.591-0.821
				c0.825-0.643,2.247-1.18,2.382-1.943c1.022-5.802,2.603-11.666,2.471-17.476c-0.263-11.669-1.881-23.306-2.193-34.976
				c-0.174-6.542-8.83-14.854-14.934-12.985c-0.936,0.286-2.256,1.774-2.169,2.572c1.4,12.894,3.109,25.753,4.521,38.646
				c1.19,10.879,2.088,21.791,3.114,32.688c0.72,7.637,1.418,15.275,2.164,22.909c1.22,12.501,1.838,25.109,3.983,37.45
				c1.007,5.79-1.857,17.426,11.508,12.846c1.301-0.445,2.994-2.672,2.873-3.912c-2.156-22.036-4.554-44.049-6.933-66.063
				C341.629,358.979,341.106,355.681,340.792,353.36z"/>
			<path fill-rule="evenodd" clip-rule="evenodd" d="M683.078,322.65c-17.518,0.787-34.468,4.907-44.599,17.594
				c-9.108,11.406-20.876,24.185-16.984,41.969c1.938,8.86,3.272,17.867,5.528,26.641c2.512,9.771,20.539,24.044,30.354,25.458
				c3.329,0.479,6.283,3.562,9.614,4.049c1.716,0.25,5.76-3.227,5.523-3.921c-1.097-3.227-2.634-7.113-5.272-8.856
				c-8.786-5.804-18.964-9.774-26.927-16.452c-5.146-4.314-7.963-11.891-10.606-18.491c-1.236-3.086,0.42-7.323,0.74-11.041
				c0.093-1.079,0.267-3.091,0.116-3.118c-13.283-2.452-0.317-5.032,0.228-7.07c0.742-2.771,2.858-5.238,4.628-7.657
				c3.176-4.339,6.203-8.86,9.907-12.714c3.54-3.682,7.417-8.33,11.937-9.503c8.594-2.23,17.876-3.62,26.637-2.811
				c6.745,0.624,13.029,5.455,19.76,7.686c1.366,0.453,5.532-2.504,5.435-3.63c-0.276-3.17-1.25-7.827-3.473-8.994
				C698.478,328.037,690.646,325.597,683.078,322.65z"/>
			<path fill-rule="evenodd" clip-rule="evenodd" d="M512.4,283.531c12.569,4.621,26.188,7.526,37.391,14.381
				c9.74,5.96,19.791,15.052,24.219,25.163c5.905,13.486,6.446,29.31,9.425,44.103c0.665,3.306,2.073,6.461,2.75,9.766
				c0.254,1.239-0.602,2.705-0.952,4.067c-0.89-0.665-1.717-1.73-2.688-1.885c-1.014-0.161-2.862,0.278-3.128,0.942
				c-0.818,2.045-1.17,4.307-1.493,6.516c-0.61,4.175-1.396,8.365-1.476,12.561c-0.045,2.374,2.145,5.026,1.604,7.105
				c-0.998,3.839-3.764,7.203-4.888,11.03c-1.79,6.097-3.181,12.375-3.857,18.671c-0.111,1.028,4.31,2.545,6.635,3.835
				c1.638-3.01,4.117-5.852,4.761-9.061c2.351-11.716,4.339-23.521,5.99-35.357c1.817-13.018,4.235-26.096,4.385-39.171
				c0.257-22.344-9.16-41.478-25.369-56.284c-14.183-12.954-31.261-21.54-51.047-22.269c-3.633-0.134-7.386,3.003-11.083,4.63
				c2.354,1.693,4.706,3.386,7.058,5.079C511.224,286.08,511.812,284.805,512.4,283.531z"/>
			<path fill-rule="evenodd" clip-rule="evenodd" d="M430.846,365.495c0,15.496-0.259,31,0.169,46.484
				c0.118,4.281-5.05,11.912,4.966,11.887c2.039-0.005,5.792-3.19,5.841-4.988c0.569-21.181,0.678-42.376,0.717-63.568
				c0.033-17.165-0.229-34.33-0.285-51.495c-0.025-7.533,0.171-15.067,0.167-22.6c0-0.884-0.601-2.516-0.983-2.534
				c-3.606-0.172-7.231-0.144-10.829,0.118c-0.25,0.018-0.476,2.357-0.468,3.615c0.048,7.601,0.147,15.203,0.281,22.803
				c0.019,1.061,0.319,2.115,0.491,3.172c0.557-0.501,1.053-1.114,1.691-1.466c0.498-0.274,1.615-0.449,1.704-0.278
				c0.87,1.684,1.583,3.448,2.341,5.19c-0.781,0.285-1.575,0.54-2.342,0.863c-1.781,0.751-3.549,1.535-5.322,2.306
				c1.229,1.349,2.43,2.725,3.697,4.036c0.567,0.588,1.267,1.048,1.906,1.566c-0.721,0.188-1.843,0.152-2.094,0.603
				c-1.222,2.189-3.125,4.513-3.119,6.783c0.022,8.465,0.658,16.93,1.175,25.387c0.069,1.127,0.771,2.214,1.18,3.319
				c0.833-0.894,1.68-1.774,2.492-2.687c0.418-0.469,0.776-0.992,1.161-1.49c0.31,0.673,0.881,1.344,0.888,2.02
				c0.047,5.475,0.033,10.951-0.083,16.425c-0.019,0.888-0.631,1.763-0.97,2.643c-0.64-0.821-1.621-1.559-1.849-2.481
				c-0.463-1.882-0.374-3.895-0.792-5.793c-0.32-1.453-1.07-2.812-1.63-4.214c-0.707,1.381-1.413,2.763-2.12,4.144
				C429.5,365.34,430.173,365.418,430.846,365.495z"/>
			<path fill-rule="evenodd" clip-rule="evenodd" d="M350.442,284.11c-3.842,0-6.122-0.312-8.262,0.101
				c-1.652,0.319-3.129,1.545-4.685,2.369c2.246,3.233,4.204,6.72,6.788,9.656c10.235,11.63,20.069,23.728,31.358,34.251
				c3.784,3.527,6.502,6.982,9.245,11.157c4.377,6.661,9.905,12.57,15.043,18.718c0.545,0.653,1.734,0.77,2.625,1.136
				c0.124-1.042,0.69-2.316,0.289-3.083c-1.27-2.426-3.027-4.592-4.341-6.997c-0.742-1.358-0.985-2.989-1.453-4.497
				c1.134,0.302,2.256,0.688,3.41,0.865c0.472,0.073,1.467-0.4,1.455-0.462c-0.197-0.934-0.279-2.049-0.855-2.724
				c-11.526-13.515-23.2-26.904-34.649-40.484c-5.39-6.393-10.358-13.142-15.562-19.695
				C350.397,283.853,349.617,283.548,350.442,284.11z"/>
			<path fill-rule="evenodd" clip-rule="evenodd" d="M494.63,288.825c0.702-0.558,2.934-1.908,4.515-3.802
				c0.592-0.708-0.057-3.75-0.611-3.892c-2.321-0.595-5.087-1.257-7.21-0.518c-9.294,3.236-18.769,6.272-27.48,10.741
				c-5.544,2.844-9.993,7.946-14.492,12.474c-0.36,0.362,2.511,4.339,4.322,6.207c0.534,0.551,2.854,0.013,3.893-0.7
				c2.268-1.555,4.233-3.547,6.332-5.35c0.427-0.365,1.098-0.587,1.312-1.038C466.965,299.234,487.058,288.802,494.63,288.825z"/>
			<path fill-rule="evenodd" clip-rule="evenodd" d="M502.274,367.105c1.556-13.273,2.817-23.785,3.924-34.312
				c0.051-0.481-1.31-1.097-1.991-1.673c-1.376-1.165-2.755-2.326-4.097-3.528c-0.554-0.496-1.016-1.093-1.52-1.644
				c-0.674,0.772-1.874,1.504-1.939,2.324c-0.728,9.2-1.237,18.417-1.931,27.619c-0.099,1.305-1.182,2.538-1.269,3.84
				c-0.202,3.018-0.102,6.059,0.056,9.08c0.005,0.098,2.029,0.334,3.008,0.09C498.805,368.33,501.03,367.505,502.274,367.105z"/>
			<path fill-rule="evenodd" clip-rule="evenodd" d="M394.744,256.596c-10.479,0-20.959-0.068-31.436,0.116
				c-0.946,0.016-2.598,1.626-2.635,2.548c-0.067,1.694,0.746,3.459,1.443,5.086c0.068,0.158,1.881-0.591,2.902-0.656
				c10.095-0.641,20.202-1.128,30.286-1.904c2.203-0.169,4.332-1.309,6.495-2.002c-1.87-2.223-3.742-4.446-5.613-6.669
				C395.706,254.275,395.225,255.435,394.744,256.596z"/>
			<path fill-rule="evenodd" clip-rule="evenodd" d="M383.798,273.77c6.237,0,10.522,0.14,14.787-0.086
				c1.272-0.067,2.49-1.162,3.732-1.785c-1.175-1.691-2.434-4.9-3.511-4.841c-12.325,0.684-24.625,1.829-36.914,3.026
				c-0.613,0.06-1.647,2.424-1.51,2.538c1.641,1.356,3.541,3.601,5.229,3.486C372.348,275.646,379.035,274.434,383.798,273.77z"/>
			<path fill-rule="evenodd" clip-rule="evenodd" d="M500.784,378.094c7.059,0.961,10.964,1.54,14.884,1.979
				c0.631,0.07,1.554-0.316,1.92-0.807c0.247-0.33-0.16-1.731-0.421-1.774c-6.548-1.095-13.113-2.079-19.686-3.009
				c-0.11-0.016-0.578,1.237-0.493,1.292C499.099,377.116,501.262,378.376,500.784,378.094z"/>
			<path fill-rule="evenodd" clip-rule="evenodd" d="M234.133,211.276c-2.848,4.629-4.734,7.568-6.419,10.619
				c-0.179,0.325,1.197,1.906,1.222,1.891c3.37-2.093,6.682-4.281,9.996-6.463C237.857,215.968,236.783,214.614,234.133,211.276z"/>
			<path fill-rule="evenodd" clip-rule="evenodd" fill="#FFFFFF" d="M235.433,424.485c16.313,0.487,40.005-17.504,42.746-29.285
				c4.432-19.052,4.196-36.775-9.114-51.764c-5.551-6.251-13.721-13.251-21.333-14.076c-38.844-4.214-57.619,17.381-60.103,40.562
				C184.438,399.684,206.792,423.63,235.433,424.485z"/>
			<path fill-rule="evenodd" clip-rule="evenodd" fill="#FFFFFF" d="M245.414,313.027c-29.208-1.576-49.451,8.953-63.691,30.088
				c-8.867,13.158-12.203,28.186-7.848,44.094c0.268,0.977,1.77,1.616,2.697,2.413c0.673-1.155,2.117-2.481,1.905-3.441
				c-3.911-17.703,2-32.685,11.774-47.102c7.773-11.468,31.395-20.264,44.93-20.685c17.543-0.544,28.565,9.567,40.824,18.401
				c13.007,9.372,19.172,37.505,15.022,52.909c-4.136,15.354-12.625,26.897-25.118,34.838c-15.065,9.576-31.203,13.302-49.734,6.357
				c-16.864-6.319-28.721-15.932-35.302-32.466c-0.593-1.491-2.34-2.523-3.552-3.769c-0.251,2.354-1.572,5.371-0.587,6.957
				c9.805,15.782,21.74,29.959,40.353,34.874c14.727,3.89,30.942,5.868,43.962-4.164c11.208-8.637,22.814-18.615,29.612-30.622
				c7.763-13.71,8.391-30.519,2.42-46.136c-2.742-7.17-5.865-14.554-10.469-20.576C272.576,321.871,258.01,316.064,245.414,313.027z
				"/>
		</g>
	</g>
</g>
<g id="Layer_2">
	<path fill="none" stroke="#FFFFFF" stroke-width="12.0153" stroke-miterlimit="10" d="M359.36,207.731
		c0,0-59.676-92.481-185.263-52.066C48.511,196.08,49.016,349.919,109.288,419.23c60.272,69.312,169.255,49.659,169.255,49.659"/>
	<path fill="none" stroke="#FFFFFF" stroke-width="12.0153" stroke-miterlimit="10" d="M291.074,492.821
		c0,0-144.648,20.347-210.55-65.195s-45.893-187.646,6-248.008s208.735-111.797,291.838,19.141"/>
	<circle fill="none" stroke="#FFFFFF" stroke-width="12.0153" stroke-miterlimit="10" cx="243.022" cy="363.663" r="55.568"/>
	<circle fill="none" stroke="#FFFFFF" stroke-width="12.0153" stroke-miterlimit="10" cx="241.684" cy="365.289" r="77.053"/>
	
		<line fill="none" stroke="#FFFFFF" stroke-width="12.0153" stroke-miterlimit="10" x1="359.36" y1="425.144" x2="345.666" y2="267.825"/>
	<polyline fill="none" stroke="#FFFFFF" stroke-width="12.0153" stroke-miterlimit="10" points="381.718,424.354 365.535,296.069 
		438.788,382.136 	"/>
	
		<line fill="none" stroke="#FFFFFF" stroke-width="12.0153" stroke-miterlimit="10" x1="367.189" y1="264.651" x2="438.788" y2="352.35"/>
	
		<line fill="none" stroke="#FFFFFF" stroke-width="12.0153" stroke-miterlimit="10" x1="438.788" y1="257.891" x2="440.389" y2="417.824"/>
	
		<line fill="none" stroke="#FFFFFF" stroke-width="12.0153" stroke-miterlimit="10" x1="462.145" y1="258.614" x2="460.623" y2="417.307"/>
	
		<line fill="none" stroke="#FFFFFF" stroke-width="8.7384" stroke-miterlimit="10" x1="376.874" y1="235.816" x2="424.38" y2="233.709"/>
	
		<line fill="none" stroke="#FFFFFF" stroke-width="8.7384" stroke-miterlimit="10" x1="376.954" y1="249.917" x2="424.145" y2="247.801"/>
	
		<line fill="none" stroke="#FFFFFF" stroke-width="12.0153" stroke-miterlimit="10" x1="502.533" y1="415.954" x2="517.174" y2="288.745"/>
	<polyline fill="none" stroke="#FFFFFF" stroke-width="12.0153" stroke-miterlimit="10" points="521.838,418.431 528.636,375.012 
		596.095,387.457 	"/>
	<polyline fill="none" stroke="#FFFFFF" stroke-width="12.0153" stroke-miterlimit="10" points="539.239,288.235 532.207,357.269 
		600.458,368.606 	"/>
	<path fill="none" stroke="#FFFFFF" stroke-width="12.0153" stroke-miterlimit="10" d="M490.506,303.674
		c0,0,39.209-32.401,79.368-15.82s38.959,46.22,33.571,72.358c-2.907,14.101-14.593,67.414-14.593,67.414"/>
	<path fill="none" stroke="#FFFFFF" stroke-width="12.0153" stroke-miterlimit="10" d="M613.502,434.696
		c0,0,7.815-29.969,16.865-77.311c9.051-47.342-29.909-89.561-79.655-93.061c-45.82-3.224-70.764,28.644-70.764,28.644"/>
	<path fill="none" stroke="#FFFFFF" stroke-width="12.0153" stroke-miterlimit="10" d="M720.412,455.021
		c0,0-94.145-32.837-61.9-109.114c32.244-76.278,108.084-36.719,108.084-36.719"/>
	<path fill="none" stroke="#FFFFFF" stroke-width="12.0153" stroke-miterlimit="10" d="M726.636,433.225
		c0,0-67.008-24.826-46.439-79.378c20.568-54.552,78.406-19.721,78.406-19.721"/>
</g>
</svg>
