<?xml version="1.0" encoding="utf-8"?>
<!-- Generator: Adobe Illustrator 16.0.0, SVG Export Plug-In . SVG Version: 6.00 Build 0)  -->
<!DOCTYPE svg PUBLIC "-//W3C//DTD SVG 1.1//EN" "http://www.w3.org/Graphics/SVG/1.1/DTD/svg11.dtd">
<svg version="1.1" id="Layer_1" xmlns="http://www.w3.org/2000/svg" xmlns:xlink="http://www.w3.org/1999/xlink" x="0px" y="0px"
	 width="800px" height="600px" viewBox="0 0 800 600" enable-background="new 0 0 800 600" xml:space="preserve">
<g id="O11T6n_1_">
	<g>
		<path fill="#FFFFFF" d="M229.892,285.686c-4.438,11.202-7.268,22.167-6.566,33.69c0.453,7.418,0.188,14.887,0.09,22.331
			c-0.029,2.158-0.6,4.31-1.022,7.131c-5.267,0-10.297,0.191-15.303-0.068c-3.218-0.168-2.614-2.849-2.567-5.052
			c0.275-13.025,0.522-26.052,0.743-39.078c0.028-1.649-0.15-3.304-0.254-5.419c-8.623,0-16.853,0-25.599,0
			c0,16.29,0,32.774,0,49.45c-6.185,0-11.964,0-17.914,0c0-10.784-0.238-21.072,0.063-31.346
			c0.332-11.332-0.676-22.292-6.047-32.533c-0.932-1.776,5.229-12.786,4.789-25.544c-0.076-2.177,0.227-4.392,0.456-6.579
			c1.22-11.684,6.624-17.844,18.338-19.357c10.523-1.359,21.195-2.362,31.673,0.787c7.561,2.273,12.634,8.412,13.223,16.233
			c0.394,5.23,0.34,10.5,0.875,15.712c0.285,2.782,0.855,7.755,1.705,10.454C227.1,278.166,229.892,285.686,229.892,285.686z
			 M237.418,271.242c2.519-6.968,2.803-21.713,2.021-29.065c-0.196-1.838-0.071-3.713-0.072-5.571
			c-0.001-2.471,1.19-3.745,3.719-3.771c13.186-0.136,26.373-0.386,39.559-0.405c6.51-0.009,16.619,7.55,18.217,12.207
			c1.095,3.192,1.367,3.57,1.898,6.907c0.722,4.537,1.542,6.462,5.025,10.808c-2.045,6.056-4.38,15.726-5.809,21.551
			c-2.48,10.115-14.712,15.44-25.376,16.009c-1.661-0.524-3.628-0.074-6.273-0.074c10.718,16.496,21.112,32.49,31.866,49.041
			c-5.947,0-10.963,0.176-15.95-0.131c-1.146-0.071-2.453-1.632-3.24-2.805c-6.4-9.547-12.693-19.167-19.022-28.761
			c-1.567-2.375-3.154-4.736-4.73-7.104c-0.428,0.055-0.857,0.111-1.286,0.166c0,12.498,0,24.998,0,38.055
			c-6.411,0.383-11.867,0.707-17.859,1.063c-0.215-1.94-0.473-3.372-0.515-4.808c-0.339-11.49-0.424-22.992-1.015-34.469
			c-0.453-8.802-0.917-16.68-5.355-24.628C233.22,285.456,235.454,276.677,237.418,271.242z M205.261,280.205
			c0-8.117,0.103-15.697-0.102-23.268c-0.034-1.238-1.135-2.92-2.234-3.581c-5.557-3.337-11.394-4.047-17.383-0.979
			c-3.222,1.649-6.53,3.38-6.583,7.579c-0.084,6.679,0.134,13.365,0.229,20.25C188.299,280.205,196.495,280.205,205.261,280.205z
			 M258.318,281.752c3.593,0,6.963-0.287,10.267,0.065c5.3,0.566,8.69-1.837,11.109-6.189c3.065-5.52,2.928-11.244,1.175-17.117
			c-1.503-5.038-4.976-8.149-10.181-8.284c-3.986-0.104-7.988,0.354-12.368,0.582C258.318,261.231,258.318,271.242,258.318,281.752z
			 M291.655,261.184c-1.207,3.1-2.152,5.526-3.034,7.79c1.319,2.118,2.492,4.001,3.808,6.112c1.137-2.449,2.116-4.558,3.093-6.67
			C294.347,266.217,293.171,264.02,291.655,261.184z M251.584,281.729c-0.99-2.121-1.94-4.157-3.111-6.665
			c-1.521,2.892-2.739,5.203-3.977,7.553c1.394,1.956,2.63,3.686,4.086,5.726C249.681,285.925,250.633,283.828,251.584,281.729z
			 M214.923,288.246c4.007-6.469,3.929-7.178-1.124-12.019C211.191,280.368,211.944,284.256,214.923,288.246z M169.416,286.38
			c4.32-5.1,4.321-5.807,0.006-10.678C165.726,281.101,165.726,281.101,169.416,286.38z"/>
		<path fill="#FFFFFF" d="M387.151,267.515c-1.669,4.656-3.291,8.731-4.588,12.91c-1.809,5.82-5.547,9.52-11.35,11.24
			c-0.426,0.127-0.75,0.589-1.401,1.127c8.478,2.404,12.761,7.977,13.773,16.374c0.319,2.648,2.48,5.186,3.033,7.818
			c0.246,1.171-0.867,2.493-1.132,3.675c-0.924,4.106-2.365,8.132-2.926,12.277c-1.369,10.127-9.063,17.633-19.413,17.665
			c-10.823,0.033-21.648-0.576-32.474-0.849c-3.7-0.094-7.406-0.015-11.693-0.015c-0.285-5.241-0.708-9.893-0.751-14.549
			c-0.072-7.766,0.437-15.55,0.078-23.297c-0.404-8.682-6.901-24.674-6.901-24.674l-1.072-3.002l0.62-3.061
			c0,0,6.715-16.296,6.765-25.333c0.03-5.584-0.024-11.172,0.218-16.749c0.28-6.506,0.802-6.663,7.206-6.629
			c11.343,0.059,22.702,0.161,34.029-0.329c13.918-0.601,22.144,10.362,23.195,21.321
			C382.841,258.403,382.729,263.743,387.151,267.515z M336.86,300.94c0,5.77,0,10.967,0,16.165c0,5.131,0,10.261,0,15.516
			c3.309,0.281,6.171,0.853,8.985,0.677c3.287-0.204,7.108-0.149,9.697-1.789c11.695-7.394,9.589-19.182,2.601-27.81
			c-1.146-1.414-3.438-2.508-5.275-2.635C347.703,300.713,342.496,300.94,336.86,300.94z M336.36,283.354
			c5.176,0,9.531-0.131,13.875,0.036c4.558,0.176,7.5-2.182,10.162-5.501c5.24-6.54,1.865-20.697-3.328-24.664
			c-1.153-0.88-2.631-1.787-3.997-1.851c-4.824-0.224-9.666-0.087-15.035-0.087C337.467,262.162,336.928,272.501,336.36,283.354z
			 M331.595,289.906c-1.359-2.77-2.61-5.321-3.978-8.106c-1.486,2.501-2.756,4.641-4.097,6.899c0.996,2.482,2.021,5.034,3.256,8.111
			C328.497,294.345,329.902,292.331,331.595,289.906z M372.212,261.432c-4.819,3.224-2.436,6.229-0.639,9.901
			c1.174-2.371,2.103-4.242,3.014-6.08C373.755,263.914,373.072,262.813,372.212,261.432z M371.724,315.855
			c-0.46,0.053-0.919,0.105-1.379,0.158c0.193,2.433,0.388,4.865,0.582,7.296C374.505,319.523,374.505,319.523,371.724,315.855z"/>
		<path fill="#FFFFFF" d="M716.599,283.965c-5.058,11.237-10.199,19.818-9.792,32.095c0.31,9.284,0.214,15.533,0.205,24.827
			c-0.002,3.173-0.286,6.347-0.46,9.906c-6.493,0-12.646,0-19.606,0c0-13.531,0-26.973,0-41.214c-9.668,0-18.549,0-28.113,0
			c-0.393,13.312-0.807,27.242-1.234,41.701c-6.633,0-12.73,0-19.371,0c0-8.261-0.67-16.256,0.146-24.096
			c1.524-14.637-8.783-40.646-8.783-40.646l-1.003-4.112l1.206-4.88c0,0,6.252-14.918,8.853-22.564
			c2.996-8.798,10.977-15.448,20.202-15.688c7.942-0.206,15.899-0.228,23.838,0.056c6.715,0.239,13.148,2.045,18.194,6.699
			c2.387,2.202,5.163,5.125,5.625,8.056C707.931,263.188,711.572,276.264,716.599,283.965z M686.318,290.591
			c0.199-7.461,0.509-14.858,0.544-22.259c0.017-3.44-1.61-6.177-4.921-7.622c-6.755-2.949-13.506-2.859-19.903,0.771
			c-1.438,0.814-2.779,3.125-2.843,4.797c-0.293,7.912-0.132,15.842-0.132,24.312C668.063,290.591,676.91,290.591,686.318,290.591z
			 M645.871,300.832c6.78-8.422,6.785-8.499,1.225-16.344c-1.653,2.123-3.281,4.214-4.939,6.342
			C643.417,294.227,644.634,297.496,645.871,300.832z M695.689,302.057c4.445-6.047,4.66-8.971,1.051-14.218
			C691.57,292.127,691.429,294.047,695.689,302.057z"/>
		<path fill="#FFFFFF" d="M151.285,263.767c-1.664,4.451-3.397,8.457-4.659,12.604c-1.786,5.865-5.956,9.228-11.989,11.775
			c8.596,2.886,12.011,8.847,12.742,16.923c0.186,2.052,3.798,11.657,3.798,11.657c0.153,1.219-2.787,5.903-2.787,5.903
			s-1.921,4.942-3.221,10.134c-2.233,8.918-10.573,15.704-21.001,16.22c-3.709,0.184-7.44-0.165-11.16-0.129
			c-7.591,0.072-15.182,0.269-22.773,0.35c-2.14,0.023-4.282-0.177-6.367-0.271c0-5.207-0.142-9.888,0.026-14.557
			c0.553-15.386,0.367-27.796-2.958-35.939C80.132,296.746,76.402,287,76.402,287s7.331-13.726,7.233-32.478
			c-0.027-5.575-0.172-11.162-0.315-16.744c-0.124-4.854,0.208-5.274,5.029-5.203c12.839,0.19,25.677,0.374,38.512,0.672
			c8.46,0.196,16.034,5.811,18.814,13.818C147.667,252.803,149.547,258.581,151.285,263.767z M102.462,297.87
			c0,11.564,0,22.61,0,33.721c9.155,0.883,18.341,1.41,23.807-7.52c3.675-6.008,4.031-12.716-0.073-19.228
			C120.535,295.861,111.905,297.503,102.462,297.87z M103.187,280.086c5.033,0,9.6,0.228,14.124-0.109
			c1.862-0.139,3.931-1.136,5.396-2.355c7.143-5.951,7.755-18.34,1.35-25.105c-0.752-0.794-1.938-1.632-2.942-1.659
			c-5.838-0.157-11.682-0.077-17.926-0.077C103.187,260.64,103.187,270.015,103.187,280.086z M87.901,287.818
			c1.392,2.849,2.819,5.766,4.206,8.604c5.686-5.83,4.505-11.626,0.165-17.785C90.781,281.769,89.373,284.724,87.901,287.818z
			 M139.432,314.409c-0.649-1.279-1.188-2.311-1.697-3.356c-0.484-0.994-0.936-2.003-1.464-3.143
			c-4.463,6.154-4.463,6.156,0.203,12.12C137.435,318.207,138.346,316.474,139.432,314.409z M136.496,259.489
			c-3.191,4.049-2.861,7.651,0.197,11.158C140.374,265.092,140.371,264.705,136.496,259.489z"/>
		<path fill="#FFFFFF" d="M493.558,315.287c0,11.735,0,23.47,0,35.897c-6.034,0-11.963,0-18.508,0
			c-0.116-2.528-0.256-4.983-0.34-7.441c-0.352-10.124,0.109-20.359-1.282-30.339c-1.105-7.914-4.252-15.589-6.935-23.214
			c-1.125-3.204-1.535-5.793-0.177-9.132c5.297-13.037,9.493-26.401,9.068-40.728c-0.11-3.724,1.404-5.042,5.13-4.986
			c13.369,0.201,26.743,0.071,40.111,0.24c7.628,0.097,17.323,8.765,19.067,16.69c1.303,5.917,2.684,11.817,3.917,17.747
			c0.264,1.27,0.329,2.71,0.011,3.951c-1.504,5.868-3.352,11.652-4.74,17.546c-1.992,8.447-9.09,14.369-17.867,14.474
			c-4.228,0.05-8.458,0.008-14.022,0.008c10.722,15.294,20.963,29.894,31.768,45.3c-6.052,0-11.522,0.205-16.957-0.153
			c-1.257-0.081-2.602-1.924-3.547-3.221c-7.954-10.919-15.825-21.896-23.72-32.855
			C494.207,315.142,493.883,315.215,493.558,315.287z M495.449,253.738c-0.439,11.305-0.86,22.15-1.303,33.587
			c8.704-0.213,17.33,2.378,23.056-6.286c4.098-6.202,4.037-12.958,1.037-19.257C513.782,252.418,504.811,253.852,495.449,253.738z
			 M483.211,280.941c-4.615,7.104-4.562,7.924,0.562,12.517C488.345,287.611,488.342,287.529,483.211,280.941z M533.345,271.428
			c-1.398-2.2-2.701-4.244-4.289-6.735c-1.676,2.899-3.001,5.186-4.318,7.466c1.406,2.012,2.696,3.859,4.051,5.8
			C530.338,275.74,531.674,273.824,533.345,271.428z"/>
		<path fill="#FFFFFF" d="M620.64,335.646c0,5.783,0,10.909,0,15.893c-21.708,0-42.757,0-64.521,0c0-5.01-0.048-9.37,0.018-13.73
			c0.037-2.587,1.935-2.836,3.923-2.838c4.375-0.002,8.747,0,13.957,0c0-7.203,0.532-13.961-0.156-20.594
			c-0.626-6.007-2.584-11.874-3.956-17.802c-0.077-0.33-0.283-0.969-0.283-0.969l-2.921-8.337c0,0,2.712-8.212,4.298-12.175
			c2.419-6.039,2.339-12.105,2.614-18.854c-5.874-0.291-11.338-0.561-17.188-0.852c0-6.102,0-11.567,0-17.935
			c5.022,0,9.52-0.079,14.013,0.015c15.06,0.316,30.116,0.687,45.176,1.051c6.433,0.156,6.588,0.335,6.474,6.616
			c-0.047,2.541-0.134,5.082-0.096,7.621c0.048,3.031-1.331,4.2-4.364,4.083c-4.532-0.172-9.076-0.043-14.567-0.043
			c0.267,5.484,0.048,10.508,0.872,15.356c0.844,4.95,4.253,14.529,4.253,14.529l1.083,2.342l-0.915,6.424
			c0,0-4.666,15.721-4.169,24.117c0.219,3.702-0.238,7.441-0.261,11.164c-0.026,4.443,0.391,4.835,4.991,4.904
			C612.732,335.69,616.554,335.646,620.64,335.646z M583.059,291.091c0.877,1.774,1.561,3.284,2.36,4.733
			c0.771,1.393,1.658,2.721,2.585,4.22c4.119-7.408,4.099-7.751-0.812-13.312C585.946,288.05,584.707,289.354,583.059,291.091z"/>
		<path fill="#FFFFFF" d="M422.151,320.272c-1.908,5.798-3.647,8.048-5.767,14.499c6.407,0,11.434-0.014,16.461,0.002
			c7.785,0.023,15.578,0.243,23.355,0.02c3.658-0.105,5.709,0.971,6.489,4.667c0.405,1.918,1.497,1.658,2.331,3.615
			c-1.265,1.897-2.571,5.89-3.932,7.929c-21.008,0-42.062,0-63.211,0c-2.135-9.578,2.123-22.083-5.75-29.689
			c5.5-16.182,6.825-30.456,1.945-46.72c-0.909-3.022-2.382-5.863-2.441-8.69c0,0,2.985-5.458,3.228-9.598
			c0.242-4.139,0.805-14.666,1.694-22.882c5.854,0,11.697-0.071,17.539,0.014c13.189,0.193,26.383,0.782,39.562,0.558
			c5.947-0.101,8.082,4.442,10.055,6.239c1.972,1.797,3.571,3.539,3.571,3.539s-2.716,2.541-3.062,3.068
			c-3.696,5.592-8.944,6.269-16.011,6.221c-10.635-0.073-21.27-0.019-32.469-0.019c1.861,4.584,3.863,9.507,5.624,13.84
			c-2.399,5.509-4.696,10.789-7.421,17.045c4.627,0.414,22.039,1.13,24.397,0.966c7.43-0.519,7.544,2.87,11.348,8.551
			c-1.812,3.01-3.882,6.447-5.941,9.869c-9.099,0-18.185,0-27.819,0C417.172,308.66,418.109,317.051,422.151,320.272z
			 M405.877,285.645c-3.447,4.633-4.151,9.399-1.123,14.523C410.73,294.739,410.887,292.694,405.877,285.645z"/>
	</g>
</g>
</svg>
