<?xml version="1.0" encoding="utf-8"?>
<!-- Generator: Adobe Illustrator 16.0.0, SVG Export Plug-In . SVG Version: 6.00 Build 0)  -->
<!DOCTYPE svg PUBLIC "-//W3C//DTD SVG 1.1//EN" "http://www.w3.org/Graphics/SVG/1.1/DTD/svg11.dtd">
<svg version="1.1" id="Layer_1" xmlns="http://www.w3.org/2000/svg" xmlns:xlink="http://www.w3.org/1999/xlink" x="0px" y="0px"
	 width="800px" height="600px" viewBox="0 0 800 600" enable-background="new 0 0 800 600" xml:space="preserve">
<path fill-rule="evenodd" clip-rule="evenodd" fill="#FFFFFF" d="M310.761,358.678c-0.092,3.386,0.061,6.777-0.029,10.162
	c-0.073,2.734-0.436,3.074-3.191,3.054c-3.607-0.025-7.212-0.228-10.82-0.297c-2.1-0.04-4.209-0.064-6.301,0.084
	c-1.673,0.12-2.036-0.68-1.966-2.091c0.074-1.518,0.118-3.038,0.107-4.556c-0.052-7.599-0.143-132.309-0.373-136.804
	c-0.191-3.72,1.048-4.815,4.806-4.625c3.782,0.19,7.583-0.031,11.375,0.027c4.022,0.062,58.463,0.038,60.414,0.381
	c1.933,0.34,4.1-0.197,5.619,2.37c1.52,2.568,4.273,4.413,6.507,6.551c3.84,3.674,7.697,7.329,11.544,10.993
	c1.558,1.482,1.966,3.398,1.942,5.426c-0.04,3.192-0.19,6.383-0.228,9.576c-0.06,4.786-0.086,9.572-0.086,14.358
	c0,4.202,0.028,8.405,0.104,12.607c0.025,1.314-0.353,2.294-1.318,3.254c-5.515,5.485-10.946,11.053-16.431,16.568
	c-1.399,1.407-2.887,2.729-4.337,4.083c-0.816,0.763-0.979,1.491-0.483,2.633c0.927,2.13,1.542,4.394,2.325,6.588
	c1.687,4.729,3.36,9.462,5.109,14.168c2.074,5.576,12.357,32.727,13.896,36.606c0.566,1.429,0.054,2.325-1.472,2.344
	c-6.786,0.085-13.572,0.193-20.357,0.159c-0.72-0.003-1.796-0.724-2.094-1.389c-1.67-3.72-3.21-7.502-4.685-11.306
	c-2.81-7.245-5.563-14.514-8.306-21.787c-1.955-5.186-3.814-10.408-5.791-15.585c-1.269-3.321-2.687-6.586-4.017-9.884
	c-0.372-0.923-0.916-1.282-1.988-1.287c-3.56-0.017-7.118-0.246-10.677-0.299c-5.251-0.079-10.505-0.054-15.757-0.125
	c-1.336-0.02-2.145,0.407-2.241,1.824C311.363,315.362,310.824,356.351,310.761,358.678z M311.803,273.2c-0.002,0-0.005,0-0.007,0
	c0,4.443,0.023,8.887-0.017,13.33c-0.01,1.091,0.229,1.888,1.449,1.955c1.223,0.067,2.453,0.098,3.677,0.051
	c5.954-0.227,11.904-0.602,17.859-0.703c6.838-0.115,13.678,0.056,20.517-0.037c1.125-0.016,2.517-0.458,3.309-1.208
	c2.586-2.446,4.967-5.112,7.389-7.728c0.378-0.408,0.755-0.981,0.798-1.505c0.18-2.204,0.326-4.417,0.313-6.626
	c-0.023-4.077-0.147-8.155-0.281-12.23c-0.018-0.549-0.188-1.227-0.543-1.61c-2.769-2.998-5.577-5.96-8.437-8.872
	c-0.393-0.399-1.127-0.628-1.712-0.646c-2.793-0.083-5.589-0.026-8.381-0.096c-4.551-0.114-9.099-0.341-13.649-0.42
	c-3.612-0.063-7.228,0.045-10.841,0.035c-2.911-0.008-5.824-0.06-8.734-0.133c-1.585-0.041-2.431,0.683-2.502,2.255
	c-0.09,1.982-0.189,3.966-0.198,5.949C311.787,261.042,311.803,267.121,311.803,273.2z"/>
<path fill-rule="evenodd" clip-rule="evenodd" fill="#FFFFFF" d="M659.362,343.102c0-6.615,0.011-13.229-0.002-19.844
	c-0.022-10.284-0.072-20.568-0.087-30.852c-0.009-7.314,0.03-14.627,0.03-21.941c-0.001-6.953-0.003-13.907-0.049-20.86
	c-0.022-3.148-0.237-6.296-0.215-9.443c0.034-4.437,0.227-8.872,0.312-13.31c0.032-1.669,1.119-2.123,2.448-2.101
	c3.027,0.052,6.055,0.359,9.079,0.322c6.528-0.082,13.054-0.343,19.582-0.471c2.564-0.05,5.135,0.011,7.698,0.112
	c3.255,0.129,6.506,0.458,9.76,0.508c4.906,0.074,9.816-0.056,14.724-0.03c5.068,0.026,10.136,0.16,15.203,0.202
	c4.827,0.04,9.655-0.002,14.482,0.039c2.191,0.019,4.386,0.117,6.574,0.24c1.679,0.094,2.584,1.064,2.576,2.731
	c-0.021,3.802-0.089,7.604-0.171,11.404c-0.048,2.279-0.151,4.557-0.242,6.835c-0.064,1.591-0.87,2.203-2.491,2.209
	c-5.318,0.021-10.636,0.224-15.954,0.249c-7.283,0.035-14.568-0.048-21.854-0.043c-4.426,0.004-8.851,0.096-13.276,0.116
	c-4.905,0.023-9.81,0-14.715,0.013c-2.685,0.007-5.37,0.029-8.056,0.072c-1.362,0.022-1.347,1.072-1.377,2.012
	c-0.16,4.909-0.356,9.818-0.434,14.729c-0.116,7.314-0.174,14.629-0.193,21.943c-0.006,2.183,0.339,2.372,2.479,2.348
	c17.087-0.194,34.177-0.368,51.265-0.551c7.548-0.082,15.095-0.136,22.642-0.284c1.587-0.031,1.857,0.684,1.833,2.026
	c-0.111,5.967-0.179,11.935-0.229,17.902c-0.019,2.279-0.241,2.64-2.583,2.741c-4.08,0.177-8.165,0.249-12.246,0.368
	c-9.475,0.273-18.945,0.623-28.421,0.799c-5.847,0.108-11.697-0.085-17.547-0.064c-2.666,0.009-5.331,0.242-7.998,0.311
	c-2.157,0.056-4.318,0.073-6.475,0.004c-2.061-0.067-2.421,0.13-2.465,2.164c-0.145,6.608-0.252,13.22-0.349,19.829
	c-0.062,4.323-0.061,8.647-0.129,12.971c-0.037,2.394,0.209,2.855,2.637,2.847c4.318-0.015,8.636-0.249,12.954-0.363
	c15.733-0.416,31.466-0.817,47.198-1.232c4.261-0.112,8.521-0.264,12.78-0.383c1.896-0.054,2.247,0.286,2.194,2.236
	c-0.142,5.081-0.331,10.162-0.452,15.245c-0.028,1.164,0.111,2.337,0.232,3.498c0.16,1.556-0.545,2.359-2.063,2.384
	c-1.52,0.025-3.04-0.093-4.561-0.083c-6.482,0.041-12.966,0.094-19.447,0.183c-0.737,0.011-1.466,0.327-2.207,0.425
	c-0.854,0.112-1.727,0.24-2.58,0.187c-2.605-0.168-5.204-0.553-7.812-0.601c-2.741-0.051-5.486,0.271-8.232,0.288
	c-7.31,0.045-14.616,0.031-21.924,0.002c-8.597-0.034-17.194-0.119-25.792-0.156c-1.049-0.006-2.098,0.18-3.149,0.207
	c-2.275,0.061-2.836-0.464-2.849-2.71c-0.036-7.021-0.051-14.039-0.069-21.06c-0.006-2.106-0.001-4.212-0.001-6.318
	C659.354,343.102,659.358,343.102,659.362,343.102z"/>
<path fill-rule="evenodd" clip-rule="evenodd" fill="#FFFFFF" d="M126.48,368.802c-0.912,1.871-1.895,2.662-3.593,1.444
	c-0.263-0.189-0.871,0.066-1.308,0.166c-1.328,0.304-2.091-0.22-2.114-1.565c-0.022-1.343,0.236-2.698,0.12-4.026
	c-0.074-0.847-0.606-1.654-0.933-2.479c-0.661,0.27-1.404,0.421-1.969,0.825c-2.997,2.141-5.925,4.378-8.936,6.497
	c-0.62,0.437-1.49,0.719-2.249,0.726c-6.083,0.061-12.168,0.088-18.251,0.028c-7.597-0.074-15.194-0.186-22.787-0.427
	c-1.088-0.035-2.335-0.667-3.189-1.397c-2.331-1.99-4.928-3.883-6.618-6.361c-2.575-3.772-6.864-5.777-9.204-9.736
	c-0.788-1.333-2.409-2.151-3.537-3.313c-1.228-1.264-1.252-3.324-0.392-4.853c0.245-0.436,0.268-1.376-0.024-1.668
	c-1.157-1.151-0.653-1.838,0.381-2.637c0.847-0.655,1.574-1.465,2.354-2.205c-0.127-0.205-0.254-0.408-0.381-0.612
	c-1.053,0.234-2.106,0.469-3.287,0.731c-0.047-0.473-0.146-0.764-0.091-1.021c1.068-5.131,0.342-10.273,0.165-15.417
	c-0.075-2.189,0.057-4.388,0.007-6.58c-0.083-3.613-0.265-7.227-0.35-10.841c-0.073-3.092-0.098-6.188-0.09-9.281
	c0.017-6.482,0.097-12.965,0.098-19.446c0.001-5.067-0.063-10.133-0.129-15.2c-0.05-3.861-0.111-7.723-0.248-11.582
	c-0.062-1.751,0.47-3.137,1.683-4.425c3.965-4.208,7.786-8.554,11.786-12.728c2.83-2.952,5.86-5.713,8.805-8.555
	c1.772-1.71,4.052-1.272,6.167-1.351c3.481-0.131,6.968-0.157,10.451-0.122c5.895,0.061,11.789,0.17,17.682,0.324
	c3.474,0.091,6.942,0.394,10.416,0.443c3.766,0.053,7.534-0.128,11.3-0.087c0.81,0.009,1.766,0.345,2.392,0.855
	c1.848,1.503,3.645,3.09,5.308,4.794c1.637,1.678,3.044,3.577,4.627,5.312c3.892,4.266,7.84,8.48,11.725,12.752
	c0.427,0.47,0.835,1.177,0.84,1.778c0.05,5.551,0.005,11.102,0,16.653c0,0.819,0.094,1.638,0.096,2.457
	c0.004,1.291-0.656,1.906-1.958,1.934c-3.563,0.073-7.125,0.193-10.688,0.272c-2.953,0.066-5.91,0.046-8.859,0.17
	c-1.503,0.063-1.845-0.436-1.786-1.944c0.117-2.967-0.108-5.946-0.146-8.921c-0.04-3.093-2.505-4.648-4.238-6.617
	c-1.455-1.656-3.133-3.144-4.863-4.518c-0.756-0.601-1.885-1.015-2.85-1.024c-5.368-0.052-10.737,0.031-16.106,0.094
	c-5.179,0.062-10.357,0.187-15.536,0.222c-3.002,0.021-4.939,1.869-6.866,3.78c-0.747,0.742-1.378,1.631-2.215,2.245
	c-2.635,1.935-3.242,4.622-3.269,7.68c-0.064,7.359-0.287,14.718-0.349,22.078c-0.037,4.328,0.185,8.656,0.157,12.984
	c-0.03,4.963-0.229,9.925-0.313,14.887c-0.092,5.497-0.156,10.995-0.193,16.492c-0.022,3.157,0.088,6.316,0.033,9.472
	c-0.039,2.163,0.469,3.987,2.167,5.48c2.358,2.076,4.595,4.291,6.915,6.412c0.311,0.285,0.795,0.509,1.21,0.529
	c3.415,0.162,6.832,0.354,10.248,0.368c2.902,0.013,5.805-0.2,8.708-0.311c0.702-0.026,1.412-0.116,2.105-0.049
	c3.153,0.306,5.671-0.831,8.207-2.73c3.048-2.282,6.531-3.98,9.813-5.954c2.244-1.35,4.487-2.703,6.672-4.143
	c0.322-0.213,0.452-0.921,0.446-1.397c-0.053-4.678-0.23-9.354-0.208-14.033c0.01-2.221-1.828-3.03-2.942-4.353
	c-1.535-1.822-3.289-3.473-5.05-5.085c-0.534-0.489-1.394-0.844-2.117-0.869c-4.541-0.154-9.085-0.2-13.629-0.28
	c-0.175-0.003-0.351,0.016-0.526,0.027c-2.848,0.191-3.219-0.459-2.957-3.375c0.259-2.888,0.07-5.817,0.036-8.727
	c-0.022-1.984-0.098-3.967-0.193-5.949c-0.024-0.513-0.156-1.038-0.33-1.525c-0.713-1.996-0.289-2.853,1.804-2.862
	c2.958-0.013,5.916,0.276,8.875,0.337c0.889,0.019,1.784-0.424,2.677-0.427c4.912-0.011,9.826-0.029,14.733,0.152
	c0.964,0.035,2.098,0.739,2.812,1.469c5.476,5.594,10.852,11.285,16.291,16.916c3.162,3.274,4.676,6.989,3.787,11.628
	c-0.369,1.929-0.228,3.963-0.247,5.948c-0.07,7.657-0.077,15.313-0.174,22.97c-0.093,7.363-0.264,14.724-0.413,22.086
	c-0.05,2.447-0.367,2.615-2.717,2.589c-3.265-0.033-6.531,0.175-9.797,0.16c-0.626-0.003-1.289-0.503-1.86-0.885
	C127.152,369.837,126.941,369.392,126.48,368.802z"/>
<path fill-rule="evenodd" clip-rule="evenodd" fill="#FFFFFF" d="M205.06,223.11c2.17-0.131,4.593-0.316,7.021-0.413
	c2.322-0.093,4.649-0.145,6.974-0.123c2.719,0.025,5.439,0.111,8.153,0.277c0.418,0.025,1.058,0.554,1.162,0.961
	c1.089,4.233,2.08,8.491,3.117,12.738c0.554,2.271,1.156,4.531,1.713,6.802c0.957,3.907,1.879,7.823,2.846,11.728
	c0.996,4.022,2.031,8.035,3.043,12.054c1.626,6.459,3.226,12.925,4.882,19.377c1.423,5.544,2.979,11.054,4.354,16.61
	c2.76,11.154,5.426,22.333,8.152,33.497c1.577,6.458,3.206,12.904,4.792,19.36c1.153,4.696,2.225,9.412,3.44,14.091
	c0.437,1.682-0.445,2.024-1.702,2.023c-4.269-0.003-8.538-0.065-12.807-0.123c-1.97-0.026-3.94-0.146-5.91-0.136
	c-1.806,0.011-2.45-1.21-2.831-2.611c-0.826-3.041-1.535-6.115-2.327-9.166c-0.789-3.042-1.617-6.075-2.438-9.107
	c-0.46-1.7-1.724-2.284-3.333-2.258c-1.984,0.032-3.975,0.054-5.946,0.244c-1.527,0.147-5.41-0.307-6.922-0.314
	c-6.938-0.031-13.876,0.082-20.814,0.118c-1.167,0.005-2.333-0.129-3.5-0.194c-1.293-0.073-2.103,0.525-2.479,1.76
	c-1.177,3.857-2.373,7.71-3.541,11.572c-0.762,2.519-1.487,5.048-2.23,7.571c-0.334,1.14-0.913,1.612-2.276,1.587
	c-5.599-0.102-11.202-0.03-16.802,0.026c-2.569,0.024-3.373-0.819-2.696-3.227c1.704-6.074,3.508-12.119,5.209-18.193
	c1.401-5,2.688-10.031,4.07-15.038c1.176-4.261,2.466-8.491,3.605-12.763c0.661-2.475,1.093-5.01,1.688-7.504
	c0.405-1.699,0.897-3.378,1.382-5.057c1.213-4.204,2.531-8.379,3.644-12.609c1.171-4.448,2.101-8.959,3.237-13.417
	c0.619-2.424,1.524-4.775,2.164-7.195c0.938-3.541,1.706-7.126,2.632-10.671c1.076-4.117,2.214-8.218,3.381-12.31
	c1.36-4.767,6.695-24.927,7.04-26.069C204.566,225.819,204.748,224.575,205.06,223.11z M222.491,326.401
	c0,0.117,3.335,0.31,4.033,0.367c2.757,0.229,2.821-0.507,2.238-2.998c-1.224-5.223-2.471-10.44-3.785-15.641
	c-0.895-3.538-1.938-7.038-2.878-10.565c-0.314-1.18-0.468-2.402-0.771-3.585c-0.694-2.702-1.458-5.387-2.151-8.089
	c-0.78-3.037-1.497-6.09-2.289-9.123c-0.101-0.388-0.491-0.699-0.748-1.046c-0.303,0.317-0.656,0.601-0.893,0.962
	c-0.185,0.282-0.234,0.656-0.33,0.994c-1.499,5.325-3.018,10.645-4.485,15.978c-1.331,4.836-2.588,9.692-3.91,14.531
	c-1.504,5.505-3.027,11.005-4.575,16.499c-0.466,1.653-0.213,2.178,1.535,2.183C204.748,326.872,217.421,326.401,222.491,326.401z"
	/>
<path fill-rule="evenodd" clip-rule="evenodd" fill="#FFFFFF" d="M504.782,340.93c0.339,1.168,4.938,20.802,7.004,29.418
	c0.66,2.753,0.487,3.031-2.355,3.07c-4.552,0.064-9.106-0.065-13.66-0.067c-1.461-0.002-2.927,0.084-4.378,0.24
	c-1.27,0.135-2.025-0.324-2.334-1.556c-0.737-2.945-1.464-5.893-2.227-8.832c-0.92-3.54-1.861-7.076-2.82-10.606
	c-0.368-1.359-1.381-1.698-2.696-1.719c-7.721-0.11-15.443-0.25-23.162-0.421c-4.267-0.094-8.531-0.245-12.795-0.415
	c-1.652-0.064-2.645,0.593-3.066,2.228c-1.139,4.4-2.342,8.783-3.493,13.179c-0.517,1.973-0.97,3.961-1.46,5.939
	c-0.357,1.439-1.603,2.227-3.11,2.209c-6.426-0.079-12.853-0.133-19.279-0.128c-1.785,0.002-2.262-0.409-1.794-2.165
	c1.786-6.708,3.595-13.41,5.421-20.107c2.38-8.725,4.849-17.427,7.161-26.17c1.567-5.924,2.879-11.914,4.403-17.849
	c1.814-7.064,3.741-14.099,5.603-21.151c2.296-8.687,4.539-17.387,6.867-26.065c1.801-6.704,3.727-13.374,5.54-20.074
	c1.083-4.003,2.08-8.031,3.071-12.058c0.457-1.854,2.049-3.116,3.906-3.076c4.656,0.1,9.313,0.133,13.969,0.243
	c1.575,0.038,3.159,0.144,4.713,0.387c0.622,0.098,1.455,0.514,1.705,1.023c0.708,1.45,1.308,2.988,1.695,4.555
	c1.181,4.758,2.229,9.548,3.349,14.321c1.038,4.426,2.089,8.848,3.154,13.267c1.392,5.777,2.764,11.56,4.213,17.323
	c2.052,8.154,4.169,16.29,6.251,24.436c1.339,5.242,2.62,10.5,4.01,15.729c0.776,2.917,1.74,5.784,2.576,8.687
	C500.917,325.268,503.71,337.239,504.782,340.93z M463.337,274.481c-0.544,0.986-0.954,1.536-1.169,2.154
	c-0.614,1.762-1.21,3.534-1.704,5.333c-1.526,5.572-3.052,11.146-4.488,16.74c-2.297,8.94-4.525,17.896-6.773,26.849
	c-0.45,1.793,0.131,2.593,1.936,2.606c4.221,0.034,8.442,0.043,12.663,0.041c3.565-0.001,7.132-0.049,10.697-0.044
	c2.075,0.003,3.433-1.737,2.837-3.765c-1.346-4.582-2.743-9.146-4.075-13.729c-0.827-2.846-1.616-5.703-2.347-8.574
	c-0.675-2.655-1.189-5.352-1.882-8.001c-1.534-5.873-3.128-11.729-4.725-17.584C464.152,275.941,463.8,275.431,463.337,274.481z"/>
<path fill-rule="evenodd" clip-rule="evenodd" fill="#FFFFFF" d="M527.03,336.854c0-4.678-0.031-9.355,0.014-14.033
	c0.021-2.23,0.514-2.634,2.722-2.687c2.864-0.069,16.354-0.502,17.745-0.423c1.474,0.083,2.147,0.863,2.12,2.41
	c-0.088,4.97,0.092,9.953-0.191,14.911c-0.19,3.352,0.64,6.049,3.095,8.321c1.589,1.47,3.024,3.103,4.612,4.572
	c0.468,0.432,1.22,0.778,1.845,0.787c5.784,0.068,11.57,0.083,17.356,0.053c3.497-0.018,6.997-0.103,10.493-0.233
	c2.678-0.1,5.354-0.294,8.026-0.508c0.422-0.033,0.906-0.308,1.212-0.618c2.629-2.658,5.302-5.282,7.783-8.075
	c0.699-0.788,1.128-2.096,1.141-3.171c0.128-10.816,0.135-21.635,0.191-32.452c0.051-9.713,0.061-19.427,0.199-29.14
	c0.128-9.004,0.497-18.004,0.585-27.008c0.064-6.719-0.096-13.442-0.258-20.161c-0.103-4.324-0.041-4.449,4.207-4.496
	c5.024-0.057,10.05-0.196,15.074-0.23c1.278-0.009,2.581,0.138,3.823,0.426c0.46,0.107,0.963,0.766,1.122,1.274
	c0.221,0.705-2.03,95.591-2.316,104.768c-0.202,6.479-0.727,12.953-1.267,19.418c-0.081,0.969-0.888,2.003-1.61,2.767
	c-2.007,2.122-4.162,4.1-6.228,6.165c-1.984,1.984-3.872,4.068-5.907,5.998c-2.416,2.29-4.866,4.555-7.464,6.634
	c-0.825,0.659-2.149,0.901-3.264,0.96c-5.425,0.277-10.854,0.507-16.285,0.604c-7.958,0.144-15.919,0.191-23.879,0.217
	c-2.854,0.009-5.715-0.306-8.564-0.207c-3.27,0.115-5.681-1.337-7.908-3.497c-5.498-5.333-11.054-10.608-16.587-15.904
	c-1.122-1.074-1.927-2.173-1.873-3.93c0.139-4.5,0.046-9.006,0.046-13.51C526.903,336.855,526.967,336.854,527.03,336.854z"/>
</svg>
