<?xml version="1.0" encoding="utf-8"?>
<!-- Generator: Adobe Illustrator 16.0.0, SVG Export Plug-In . SVG Version: 6.00 Build 0)  -->
<!DOCTYPE svg PUBLIC "-//W3C//DTD SVG 1.1//EN" "http://www.w3.org/Graphics/SVG/1.1/DTD/svg11.dtd">
<svg version="1.1" id="Layer_1" xmlns="http://www.w3.org/2000/svg" xmlns:xlink="http://www.w3.org/1999/xlink" x="0px" y="0px"
	 width="800px" height="600px" viewBox="0 0 800 600" enable-background="new 0 0 800 600" xml:space="preserve">
<g id="ANMGt2_1_">
	<g>
		<path fill-rule="evenodd" clip-rule="evenodd" fill="#FFFFFF" d="M380.645,74.775c0.672,2.391,2.432,2.798,4.345,3.292
			c1.132,0.292,2.038,1.455,3.157,2.311c3.084-1.113,3.099-1.122,5.029,2.099c0.926,1.544,2.012,2.636,4.028,2.627
			c2.816-0.013,4.848,1.55,6.196,3.891c0.583,1.014,1.115,1.705,2.361,1.772c2.043,0.108,2.861,1.59,3.431,3.294
			c0.598,1.789,1.21,3.573,1.894,5.588c0.973-0.427,1.691-0.743,2.572-1.129c0.29,0.36,0.791,0.712,0.904,1.162
			c1.12,4.429,3.879,7.977,5.974,11.898c2.103,3.938,5.036,7.698,5.521,12.426c0.043,0.416,0.119,0.931,0.382,1.205
			c2.239,2.332,2.737,5.482,3.878,8.305c2.336,5.775,4.502,11.622,4.411,18.014c-0.011,0.825,0.093,1.772,0.491,2.461
			c2.293,3.968,2.508,8.272,2.367,12.69c-0.094,2.97,0.555,6.058-0.043,8.9c-1.648,7.845-2.389,15.939-6.947,23.027
			c-2.325,3.615-3.437,7.993-5.301,11.929c-0.697,1.473-1.859,2.784-3.011,3.975c-3.659,3.789-7.413,7.486-11.193,11.282
			c1.806,1.833,3.431,3.335,4.887,4.985c4.786,5.423,9.425,10.978,14.288,16.33c3.986,4.387,8.314,8.463,12.29,12.859
			c2.269,2.51,4.112,5.402,6.19,8.088c1.131,1.46,2.424,2.796,3.523,4.279c3.035,4.095,6.004,8.24,9.004,12.361
			c2.791,3.833,5.575,7.674,8.395,11.488c1.012,1.37,2.111,2.676,3.186,4.001c0.469,0.58,1.225,1.058,1.418,1.71
			c1.269,4.274,5.026,6.34,7.949,9.135c3.008,2.878,3.586,10.286,1.174,13.568c-2.727,3.708-6.389,5.911-10.42,8.017
			c-3.234,1.691-5.566,4.985-9.47,5.859c-0.726,0.162-1.098,1.558-1.83,2.133c-1.032,0.811-2.225,1.432-3.395,2.045
			c-0.833,0.438-1.755,0.703-2.615,1.094c-2.09,0.951-4.118,2.064-6.273,2.826c-0.757,0.268-2.048-0.008-2.685-0.532
			c-2.195-1.807-4.654-3.399-5.718-6.302c-0.431-1.178-1.226-2.237-1.943-3.291c-2.03-2.979-4.095-5.935-6.176-8.879
			c-0.485-0.686-1.142-1.252-1.628-1.937c-1.467-2.06-2.874-4.162-4.333-6.229c-1.522-2.157-3.064-4.3-4.622-6.432
			c-1.879-2.57-3.764-5.137-5.683-7.677c-1.14-1.508-2.219-3.094-3.556-4.41c-2.608-2.564-4.954-5.196-6.065-8.834
			c-0.349-1.142-1.698-2.014-2.672-2.92c-1.14-1.061-2.392-1.999-3.551-3.04c-0.788-0.708-1.532-1.471-2.238-2.262
			c-1.413-1.581-3.03-3.05-4.11-4.838c-1.277-2.117-1.906-4.622-4.85-5.228c-0.577-0.119-1.152-0.979-1.449-1.624
			c-2.438-5.32-6.83-8.896-11.096-12.591c-0.239-0.207-0.529-0.36-0.807-0.517c-2.359-1.333-5.318-1.954-5.446-5.641
			c-0.031-0.882-1.519-1.685-2.272-2.579c-1.155-1.37-2.334-2.731-3.356-4.199c-1.185-1.701-2.615-2.974-5.169-3.827
			c0,1.229-0.095,2.112,0.016,2.969c0.609,4.725,1.618,9.43,1.805,14.168c0.166,4.186,0.184,8.387-0.874,12.645
			c-0.751,3.023-0.091,6.602,0.675,9.753c1.501,6.177,1.581,12.381,1.706,18.667c0.083,4.155,1.121,8.189-0.175,12.437
			c-0.595,1.952,0.427,4.394,0.704,6.615c0.196,1.58,0.601,3.174,0.518,4.74c-0.377,7.1,1.134,14.209,0.382,21.224
			c-0.581,5.431,0.943,10.556,0.863,15.854c-0.016,1.04,0.624,2.178,1.203,3.121c1.267,2.065,0.915,3.393-1.368,4.118
			c-1.213,0.386-2.473,0.776-3.73,0.849c-4.546,0.26-9.1,0.405-13.652,0.555c-3.177,0.105-6.359,0.272-9.534,0.189
			c-6.061-0.158-12.118-0.523-18.179-0.697c-2.003-0.057-4.053,0.012-6.017,0.375c-5.134,0.95-9.123-3.073-7.744-8.002
			c0.914-3.27,1.993-6.497,2.813-9.789c0.406-1.631,0.695-3.397,0.519-5.047c-0.53-4.969-1.241-9.922-2.037-14.856
			c-0.29-1.804-0.208-3.394,0.966-4.818c0.961-1.165,1.027-2.39,0.818-3.878c-0.655-4.662-1.216-9.346-1.556-14.039
			c-0.125-1.73,0.574-3.504,0.702-5.273c0.127-1.766,0.115-3.557-0.026-5.321c-0.142-1.788-0.482-3.563-0.797-5.333
			c-1.118-6.274-0.276-12.667-1.614-19.002c-1.219-5.774-1.059-11.838-1.531-17.772c-0.235-2.961-0.41-5.933-0.816-8.871
			c-0.537-3.883-1.299-7.734-1.906-11.608c-0.129-0.823-0.028-1.687,0.008-2.53c0.04-0.956,0.334-1.951,0.156-2.858
			c-1.547-7.933-0.848-16.005-1.57-23.983c-0.508-5.601-0.378-11.425-1.958-16.725c-2.344-7.871-0.874-15.918-2.38-23.767
			c-0.728-3.791-0.656-7.734-0.966-11.606c-0.024-0.298-0.145-0.639-0.335-0.865c-3.27-3.893-3.953-8.53-4.033-13.399
			c-0.018-1.103-0.652-2.194-0.991-3.294c-0.399-1.298-1.12-2.601-1.12-3.901c0-4.997,0.397-9.995,0.32-14.988
			c-0.049-3.171-0.593-6.344-1.054-9.496c-0.862-5.884-1.889-11.745-2.706-17.634c-0.23-1.658,0.062-3.383,0.062-5.078
			c-0.001-3.088-0.122-6.179-0.04-9.264c0.057-2.151,1.467-3.803,3.353-3.371c2.537,0.581,4.781-0.273,6.765-1.132
			c3.467-1.5,7.073-1.662,10.612-1.815c5.614-0.244,11.288,0.579,16.879,0.167c4.78-0.352,9.74-0.161,14.322-1.84
			c2.759-1.011,5.237,0.101,7.842,0.169c1.473,0.038,3.13,0.61,4.382,0.12c4.174-1.637,7.786,0.456,11.428,1.572
			c1.896,0.581,3.566,1.129,5.503,0.702c3.505-0.773,6.21,0.268,8.243,3.344c1.427,2.159,2.479,2.081,4.528,0.143
			C379.566,75.224,379.895,75.145,380.645,74.775z M345.671,171.03c-0.184,0.573-0.506,1.052-0.452,1.483
			c0.716,5.685,1.314,11.394,2.366,17.018c0.256,1.368,1.948,3.348,3.16,3.488c3.432,0.397,6.966,0.103,10.444-0.139
			c2.847-0.198,5.69-0.616,8.501-1.123c1.83-0.33,3.899-0.571,5.332-1.593c2.874-2.051,5.989-3.886,7.763-7.285
			c1.059-2.028,3.006-3.545,2.324-6.278c-0.201-0.807,0.346-1.856,0.697-2.734c1.618-4.033,3.268-8.023,1.926-12.541
			c-0.289-0.974-0.105-2.119-0.001-3.172c0.401-4.048-0.608-7.662-3.515-10.538c-3.768-3.728-7.467-7.575-11.602-10.86
			c-2.51-1.995-5.661-3.445-8.753-4.375c-3.186-0.958-6.646-1.016-9.993-1.412c-2.689-0.318-3.658,0.397-3.603,2.987
			c0.157,7.329,0.419,14.656,0.694,21.982c0.099,2.646,0.478,5.284,0.509,7.929c0.052,4.462-0.319,8.894,0.639,13.366
			c0.566,2.642,0.071,5.52-0.03,8.288c-0.015,0.412-0.485,0.807-1.16,1.854c-0.986-3.142-1.77-5.684-2.583-8.217
			C347.487,176.522,346.611,173.894,345.671,171.03z M345.378,134.535c-0.209-0.155-0.418-0.312-0.628-0.467
			c-1.134,0.898-3.089,1.683-3.234,2.72c-0.327,2.337,0.194,4.805,0.477,7.206c0.083,0.704,0.526,1.365,0.803,2.046
			c0.413-0.252,0.825-0.503,1.238-0.754C344.482,141.703,344.93,138.119,345.378,134.535z"/>
		<path fill-rule="evenodd" clip-rule="evenodd" fill="#FFFFFF" d="M696.014,375.639c-1.979-0.165-3.219-0.267-4.418-0.367
			c-1.909-3.398-1.897-3.213-5.975-2.977c-2.939,0.17-5.913-0.256-8.872-0.384c-2.951-0.127-6.069-0.859-8.815-0.158
			c-3.568,0.908-6.971,0-10.429,0.271c-0.841,0.066-1.804,0.174-2.531-0.146c-4.608-2.033-9.371-1.402-14.131-1.002
			c-0.318,0.027-0.648,0.088-0.956,0.038c-5.239-0.853-10.475-1.724-15.713-2.583c-0.931-0.152-1.873-0.422-2.8-0.384
			c-5.294,0.22-10.588,0.481-15.877,0.815c-1.224,0.077-2.601,0.202-3.607,0.805c-3.144,1.883-6.369,1.258-9.624,0.695
			c-0.383-0.066-0.948-0.35-1.033-0.646c-0.747-2.595-2.512-4.797-2.108-7.847c1.263-9.566,0.55-19.11-0.526-28.674
			c-0.557-4.949-0.306-10.002-0.214-15.004c0.021-1.17,0.881-2.324,0.834-3.422c-0.276-2.123-0.775-4.245-0.781-6.369
			c-0.011-4.361,0.285-8.722,0.367-13.084c0.042-2.204,0.463-4.493-1.014-6.493c-0.226-0.306-0.23-0.819-0.236-1.239
			c-0.104-7.633-0.497-15.287,1.553-22.776c0.137-0.5,0.212-1.067,0.127-1.572c-0.66-3.944-1.532-7.859-2.015-11.823
			c-0.5-4.117-0.514-8.292-0.965-12.417c-0.542-4.961-1.44-9.884-1.966-14.847c-0.735-6.954-1.201-13.936-1.915-20.892
			c-0.388-3.772,0.221-7.643-1.506-11.312c-0.678-1.44-0.745-3.377-0.502-5c0.625-4.16-0.352-7.928-1.561-11.879
			c-1.36-4.442-1.785-9.171-2.605-13.777c-0.094-0.523,0.085-1.218-0.195-1.566c-2.821-3.519-2.146-8.217-4.135-12.015
			c-2.174-4.151-0.156-7.325,4.474-8.219c4.722-0.912,9.61-0.856,14.062-3.58c4.123-2.522,8.843-4.134,13.418-5.829
			c3.57-1.322,7.335-2.115,10.986-3.231c1.196-0.365,2.295-1.041,3.464-1.511c1.075-0.433,2.211-1.169,3.274-1.097
			c4.146,0.282,7.648-1.776,11.389-2.896c3.642-1.091,7.197-2.5,10.725-3.935c5.194-2.115,10.326-4.383,15.489-6.574
			c4.038-1.715,8.305-2.618,12.641-2.736c3.075-0.084,5.846-0.613,8.533-2.129c2.146-1.21,2.75-0.917,3.288,1.539
			c1.819,8.3,3.94,16.549,3.362,25.201c-0.189,2.835,0.509,5.718,0.545,8.582c0.062,4.84,0.99,9.841-1.816,14.291
			c-0.478,0.757-1.531,1.62-2.325,1.626c-3.097,0.021-5.736,1.047-7.533,3.46c-3.13,4.202-7.373,5.899-12.372,6.23
			c-0.523,0.035-1.227,0.225-1.546-0.032c-1.585-1.273-3.253-0.56-4.904-0.388c-4.624,0.479-9.273,0.792-13.861,1.504
			c-2.586,0.401-5.071,1.459-7.663,2.239c-0.045,2.025,0.117,3.708,1.595,5.095c1.203,1.13,1.192,2.498,0.756,4.117
			c-0.539,2.004-0.705,4.129-0.843,6.215c-0.208,3.163-0.268,6.337-0.361,9.507c-0.039,1.335-0.006,2.673-0.006,4.165
			c-2.078-0.052-2.679-1.43-2.9-2.711c-0.488-2.818-0.704-5.684-1.008-8.533c-0.134-1.254-0.184-2.517-0.324-3.77
			c-0.27-2.405-0.699-4.802-0.799-7.213c-0.031-0.758,0.881-1.514,1.181-2.336c0.331-0.909,0.702-1.934,0.561-2.83
			c-0.065-0.41-1.299-0.833-2.033-0.896c-1.375-0.117-1.933,0.962-1.88,2.082c0.176,3.696,0.542,7.383,0.758,11.078
			c0.173,2.958,0.307,5.922,0.327,8.884c0.037,5.291-0.325,10.569,0.235,15.874c0.425,4.013,0.238,8.091,0.328,12.14
			c0.02,0.853-0.008,1.713,0.104,2.555c0.358,2.681,1.096,3.334,3.795,3.041c3.589-0.39,7.268-0.592,10.183-3.184
			c0.157-0.138,0.356-0.243,0.554-0.318c5.421-2.061,10.841-4.122,16.268-6.167c1.085-0.409,2.188-0.769,3.293-1.124
			c2.542-0.817,4.656,0.551,4.699,3.081c0.111,6.487,0.207,12.974,0.272,19.461c0.029,2.879,0.061,5.763-0.085,8.636
			c-0.068,1.347-0.66,2.661-0.825,4.013c-0.302,2.484-0.758,5.005-0.604,7.476c0.164,2.636,0.988,5.228,1.462,7.85
			c0.149,0.827,0.244,1.715,0.108,2.532c-0.226,1.35-1.078,2.317-2.465,1.472c-3.133-1.912-6.565-1.521-9.941-1.565
			c-2.872-0.037-5.767-0.106-8.615,0.187c-3.274,0.336-3.438,0.893-2.852,4.033c1.049,5.609,0.766,11.258,0.077,16.881
			c-0.065,0.531-0.855,1.274-1.396,1.357c-0.494,0.077-1.398-0.478-1.619-0.978c-1.962-4.423-3.087-9.133-3.213-13.916
			c-0.048-1.8,1.639-3.646,2.514-5.43c-1.513-0.49-5.134,0.354-5.816,1.714c-0.296,0.589-0.339,1.478-0.137,2.116
			c1.572,4.966,1.332,10.101,1.546,15.196c0.111,2.647,0.446,5.292,0.436,7.937c-0.02,4.76-0.138,9.522-0.381,14.276
			c-0.172,3.359,0.334,4.275,3.424,5.649c4.299,1.912,8.669,2.464,13.341,1.602c3.773-0.696,7.603-0.852,11.373,0.502
			c2.007,0.721,4.049,0.364,6.196-0.111c3.497-0.773,7.145-0.86,10.722-1.292c1.266-0.152,2.505-0.525,3.771-0.695
			c2.108-0.281,4.095-0.469,6.109,0.93c1.401,0.974,3.434,0.984,5.062,1.703c2.74,1.207,3.108,2.164,2.547,4.991
			c-1.468,7.385-2.992,14.76-4.314,22.17c-0.48,2.694-0.597,5.477-0.634,8.223C695.954,362.272,696.014,368.753,696.014,375.639z"/>
		<path fill-rule="evenodd" clip-rule="evenodd" fill="#FFFFFF" d="M513.479,345.246c-0.198-4.492-0.551-4.591-3.887-2.888
			c-2.139-2.332-1.963-5.056-1.833-8.021c0.32-7.332,0.472-14.693,0.188-22.025c-0.373-9.671-1.295-19.32-1.84-28.986
			c-0.24-4.242-0.084-8.504-0.193-12.755c-0.152-5.956-0.46-11.908-0.555-17.865c-0.064-4.043,0.207-8.09,0.183-12.135
			c-0.048-7.885-0.356-15.751-1.787-23.54c-1.097-5.966-2.007-11.966-3.082-17.936c-0.298-1.655-0.933-3.247-1.339-4.886
			c-0.457-1.851-1.191-3.727-1.169-5.583c0.058-4.637-0.616-9.087-2.08-13.479c-0.739-2.217-1.033-4.578-1.682-6.83
			c-1.968-6.836-4-13.654-6.038-20.47c-0.211-0.703-0.604-1.36-0.969-2.007c-1.745-3.11-1.792-3.009-5.287-2.465
			c-1.844,0.287-3.779-0.08-5.654,0.074c-3.488,0.285-7.057,0.362-10.418,1.215c-3.803,0.965-7.415-0.138-11.102-0.226
			c-0.902-0.021-2.379-1.424-2.545-2.375c-0.729-4.153-1.062-8.374-1.561-12.568c-0.124-1.05-0.345-2.089-0.49-3.138
			c-0.406-2.944-0.797-5.891-1.192-8.837c-0.099-0.734-0.028-1.541-0.312-2.193c-1.66-3.814-1.777-7.864-1.98-11.911
			c-0.09-1.807-0.279-3.608-0.396-5.414c-0.138-2.131,0.832-3.4,2.875-3.922c5.554-1.417,11.047-3.159,16.672-4.181
			c3.58-0.65,7.352-0.228,11.036-0.331c0.774-0.022,1.767,0.023,2.276-0.412c2.674-2.284,5.916-2.227,9.087-2.369
			c4.12-0.184,8.202,0.155,12.026-2.305c1.445-0.93,3.954-0.611,5.885-0.294c3.004,0.494,5.848,0.37,8.832-0.24
			c4.249-0.868,8.449-1.904,12.91-1.888c5.855,0.021,11.631-1.34,17.437-2.182c8.187-1.188,15.458-5.248,23.427-6.928
			c2.977-0.628,6.248-0.241,9.316,0.182c0.859,0.118,2.229,2.142,2.068,3.065c-0.579,3.307-0.215,6.106,1.578,9.08
			c1.263,2.094,1.367,4.871,2.096,7.311c0.392,1.312,1.06,2.539,1.501,3.839c0.34,1,0.88,2.118,0.707,3.07
			c-0.659,3.646,1.209,6.794,1.666,10.184c0.55,4.08,0.468,8.251,0.526,12.385c0.017,1.227-0.836,1.7-2.171,1.749
			c-1.42,0.051-2.947,0.328-4.206,0.953c-2.744,1.363-5.329,3.039-8.018,4.517c-0.62,0.34-1.477,0.704-2.084,0.54
			c-4.363-1.175-8.07,1.439-12.125,2.005c-5.135,0.717-10.184,2.103-15.327,2.686c-4.272,0.484-4.907,1.001-4.198,5.358
			c1.465,8.999,2.816,18.016,4.244,27.021c0.283,1.786,0.495,3.625,1.102,5.31c0.927,2.579,1.412,5.101,0.758,7.819
			c-0.191,0.793-0.262,1.845,0.104,2.508c2.867,5.215,2.377,11.186,3.877,16.704c1.483,5.458,2.026,11.05,2.357,16.715
			c0.363,6.245,1.555,12.438,2.201,18.672c0.307,2.955-0.039,5.979,0.299,8.928c0.813,7.072,1.875,14.114,2.793,21.174
			c0.232,1.792,0.386,3.605,0.424,5.413c0.195,9.481,0.653,18.971,0.426,28.443c-0.26,10.855-1.141,21.695-1.756,32.541
			c-0.229,4.039-0.459,8.076-0.713,12.113c-0.061,0.951-0.089,1.936-0.355,2.839c-0.6,2.026-1.764,2.789-3.828,2.454
			c-2.607-0.424-5.165-1.209-7.836-0.24c-0.518,0.188-1.285-0.062-1.852-0.307c-1.914-0.826-3.82-1.137-5.91-0.682
			c-0.88,0.191-1.879-0.227-2.829-0.289c-1.763-0.115-3.53-0.148-5.293-0.262c-1.897-0.121-3.796-0.258-5.688-0.453
			C519.726,345.981,516.68,345.611,513.479,345.246z"/>
		<path fill-rule="evenodd" clip-rule="evenodd" fill="#FFFFFF" d="M202.219,140.891c-0.829,0.854-2.084,1.572-2.405,2.586
			c-0.889,2.807-1.715,5.711-1.95,8.626c-0.235,2.917-0.339,5.401-3.645,6.687c-1.821,0.708-2.349,2.648-1.984,4.635
			c0.476,2.593-0.126,4.625-1.558,7.09c-4.19,7.22-7.587,14.898-11.384,22.35c-1.244,2.441-2.861,4.69-4.125,7.123
			c-1.039,1.999-1.807,4.138-2.695,6.215c-0.292-0.049-0.583-0.099-0.875-0.148c-0.122-0.966-0.512-1.991-0.316-2.888
			c0.699-3.203,1.453-6.409,2.463-9.524c0.915-2.822,2.29-5.492,3.289-8.29c3.109-8.708,5.959-17.511,9.249-26.149
			c2.795-7.339,6.326-14.402,9.018-21.775c1.685-4.615,4.117-8.71,6.742-12.745c2.07-3.182,2.881-6.62,2.625-10.326
			c-0.142-2.037-0.176-3.951,0.678-5.919c0.662-1.524,0.969-3.275,1.087-4.95c0.38-5.429,3.961-8.432,9.441-7.812
			c3.062,0.348,6.146,0.518,9.204,0.896c5.174,0.641,10.181-0.436,15.206-1.341c4.844-0.873,7.63,1.327,7.16,6.171
			c-0.354,3.645,0.176,6.929,1.741,10.218c0.807,1.696,1.194,3.664,1.414,5.55c0.439,3.768,1.291,7.432,1.34,11.326
			c0.066,5.119,1.579,10.221,2.472,15.329c0.327,1.87,0.704,3.731,0.986,5.607c0.534,3.546,0.979,7.105,1.527,10.648
			c0.795,5.139,1.854,10.196,3.251,15.234c0.66,2.378,0.936,5.08,1.571,7.592c0.378,1.494,1.036,2.917,1.568,4.373
			c0.356,0.171,0.712,0.343,1.068,0.515c0.232-0.567,0.824-1.323,0.641-1.671c-1.467-2.788,1.232-3.562,2.445-5.726
			c3.738,6.015,2.39,12.116,2.323,18.268c-2.145-0.441-2.654-1.919-2.652-3.687c0.001-0.839,0.412-1.694,0.33-2.511
			c-0.049-0.487-0.63-1.186-1.087-1.291c-0.433-0.099-1.412,0.39-1.465,0.729c-0.341,2.146-1.521,4.13-0.611,6.532
			c0.814,2.148,0.949,4.553,1.401,6.841c0.803,4.06,1.747,8.096,2.386,12.181c0.492,3.147,0.604,6.354,0.889,9.534
			c0.388,4.344,0.712,8.696,1.188,13.031c0.44,4.004,1.034,7.992,1.581,11.983c0.78,5.686,1.715,11.354,2.324,17.058
			c0.462,4.329,0.522,8.701,0.755,13.054c0.028,0.531-0.067,1.082,0.036,1.595c1.427,7.07,2.878,14.135,4.324,21.2
			c0.362,1.773,0.677,3.557,1.098,5.314c0.664,2.78,1.549,5.516,2.064,8.321c0.592,3.229,0.766,6.532,1.333,9.767
			c0.914,5.214,2.004,10.396,3.011,15.596c0.121,0.622,0.29,1.262,0.254,1.883c-0.231,4.021,0.549,7.91,2.137,11.527
			c1.382,3.148,0.646,5.812-0.879,8.496c-0.666,1.173-1.5,2.252-2.457,3.67c-0.791-0.678-1.537-1.209-2.152-1.864
			c-2.202-2.343-4.869-3.081-8.035-2.813c-1.983,0.17-4.007-0.193-6.014-0.234c-2.624-0.052-5.25-0.028-7.875-0.022
			c-0.529,0.001-1.124,0.243-1.577,0.075c-4.684-1.744-9.474-0.512-14.216-0.659c-2.5-0.077-5.014-0.713-7.458-1.346
			c-1.683-0.435-2.49-1.866-2.808-3.568c-0.679-3.634-1.441-7.253-2.093-10.892c-0.937-5.231-1.83-10.471-2.698-15.713
			c-0.867-5.23-1.682-10.471-2.521-15.707c-0.017-0.104-0.059-0.207-0.063-0.312c-0.336-8.244-3.311-16.008-4.391-24.113
			c-0.83-6.218-1.533-12.453-2.308-18.678c-0.078-0.629-0.132-1.308-0.407-1.858c-2.384-4.786-1.729-10.199-3.137-15.14
			c-1.744-6.119-0.311-12.262-0.863-18.36c-0.327-3.6-0.881-7.178-1.226-10.776c-0.688-7.195-1.07-14.427-2.021-21.585
			c-0.735-5.526-0.834-11.202-3.022-16.493c-0.472-1.141-0.747-2.523-0.604-3.734c0.967-8.195-0.103-16.018-2.761-23.882
			c-1.959-5.796-2.589-12.041-3.824-18.083c-0.165-0.806-0.405-1.597-0.61-2.396C202.784,141.185,202.501,141.038,202.219,140.891z"
			/>
		<path fill-rule="evenodd" clip-rule="evenodd" fill="#FFFFFF" d="M562.188,445.163c0.246,7.064,0.494,14.131,0.738,21.196
			c0.025,0.743,0.201,1.533,0.016,2.222c-0.969,3.579-0.031,7.113,0.135,10.663c0.02,0.424,0.171,0.87,0.08,1.265
			c-1.455,6.319-0.158,12.477,1.216,18.587c1.118,4.971,0.751,9.959,0.672,14.952c-0.036,2.326-0.255,4.652-0.467,6.972
			c-0.153,1.669-1.122,2.674-2.757,3.128c-0.914,0.254-1.753,0.765-2.659,1.058c-0.899,0.291-2.444,0.903-2.671,0.6
			c-2.146-2.87-5.84,0.136-7.918-2.182c-0.854-0.954-1.473-2.288-1.757-3.549c-0.695-3.088-0.069-6.435-1.834-9.329
			c-0.153-0.252-0.256-0.692-0.14-0.925c1.184-2.38,0.359-4.677-0.012-7.077c-0.484-3.134-0.499-6.345-0.637-9.525
			c-0.041-0.93-0.168-2.207,0.35-2.749c2.41-2.529,1.092-5.14,0.547-7.797c-0.614-2.993-1.281-5.998-1.549-9.03
			c-0.095-1.081,0.912-2.26,1.555-3.704c-0.132-0.241-0.373-0.823-0.734-1.314c-1.673-2.27-2.627-4.541-2.14-7.604
			c0.351-2.202-0.47-4.625-0.936-6.916c-1.547-7.607-0.698-15.273-0.653-22.92c0.003-0.423,0.264-0.906,0.131-1.259
			c-1.618-4.294-0.552-8.644-0.367-12.98c0.049-1.148-0.135-2.349-0.439-3.464c-1.611-5.896-2.232-11.909-2.254-17.994
			c-0.012-2.99,0.582-3.646,3.505-4.282c0.208-0.046,0.472-0.014,0.62-0.131c3.703-2.911,7.673-1.335,11.551-0.632
			c3.648,0.662,6.347,2.693,8.082,6.035c2.539,4.888,5.58,9.456,8.634,14.043c1.765,2.651,3.237,5.709,3.755,9.268
			c0.413,2.838,0.393,6.168,2.556,8.694c0.495,0.578,0.351,1.659,0.691,2.424c0.726,1.631,1.386,3.345,2.423,4.77
			c1.285,1.766,2.037,3.565,2.525,5.73c1,4.441,2.708,8.72,3.769,13.15c0.581,2.425,0.85,5.079,0.521,7.531
			c-0.483,3.617,1.387,6.401,3.439,8.396c3.146,3.056,4.268,7.029,6.209,10.583c2.219,4.061,4.096,8.443,5.245,12.912
			c0.896,3.479,2.821,6.061,4.828,9.132c1.132-2.506,0.4-4.642-0.148-6.771c-0.342-1.322-0.66-2.66-1.132-3.938
			c-0.466-1.261-1.019-2.511-1.702-3.664c-0.804-1.355-2.059-2.492-2.64-3.919c-1.124-2.754-1.854-5.642-4.266-7.716
			c-0.543-0.467-0.627-1.548-0.777-2.372c-0.327-1.781-0.041-3.913-0.936-5.304c-2.236-3.48-1.864-7.387-2.253-11.085
			c-0.379-3.62-0.697-7.446,0.927-10.979c0.606-1.319,0.758-2.465,0.16-3.942c-0.366-0.906,0.333-2.245,0.606-3.652
			c-0.345-0.672-1.207-1.657-1.338-2.73c-0.572-4.734-0.941-9.493-1.369-14.243c-0.271-3.004-0.102-5.965-0.718-9.041
			c-1.002-5.004-2.309-10.225-1.032-15.396c0.581-2.352-1.26-3.754-1.431-5.734c-0.062-0.723-0.54-1.4-0.653-2.126
			c-0.246-1.567-0.596-3.165-0.51-4.728c0.124-2.228,2.362-1.467,3.563-1.914c4.269-1.591,8.581-3.125,13.352-2.475
			c2.034,0.277,3.173,1.004,3.399,3.002c0.152,1.35,0.704,2.95,0.197,4.023c-1.55,3.283-0.85,6.703-1.159,10.053
			c-0.049,0.527,0.164,1.127-0.015,1.59c-1.919,4.973,0.385,9.496,1.404,14.168c0.335,1.54,0.681,3.162,0.549,4.705
			c-0.399,4.667-0.752,9.285,0.402,13.923c0.35,1.403-0.044,2.977,0.066,4.461c0.098,1.335,0.407,2.656,0.647,3.979
			c0.112,0.621,0.344,1.226,0.415,1.849c0.799,6.971,1.667,13.936,2.326,20.92c0.411,4.347,0.412,8.729,0.744,13.085
			c0.56,7.321,1.194,14.638,1.907,21.946c0.104,1.078,0.811,2.098,1.573,3.963c1.004-1.446,1.959-2.227,2.111-3.141
			c0.801-4.806,0.859-9.807,2.237-14.422c1.109-3.719,0.87-7.605,2.146-11.168c2.251-6.282,1.875-12.767,2.087-19.237
			c0.159-4.889,0.544-9.775,1.012-14.645c0.346-3.591,1.003-7.151,1.482-10.73c0.067-0.505,0.105-1.231-0.181-1.531
			c-1.904-1.99-0.666-3.822-0.094-5.896c1.156-4.195,2.477-8.48,2.66-12.773c0.25-5.875,2.271-11.259,3.404-16.879
			c0.146-0.729,0.42-1.434,0.562-2.164c0.937-4.783,1.768-5.754,6.646-6.104c3.16-0.228,6.37,0.083,9.544,0.329
			c0.681,0.053,1.335,0.832,1.935,1.354c0.205,0.178,0.223,0.586,0.301,0.896c1.231,4.88,2.562,9.73,4.346,14.441
			c0.639,1.686,1.469,3.311,1.984,5.031c1.678,5.596,3.245,11.225,4.869,16.836c0.147,0.51,0.288,1.074,0.607,1.471
			c3.729,4.62,2.993,10.439,4.167,15.727c0.547,2.464,0.306,5.099,0.467,7.653c0.175,2.746,0.272,5.43,2.345,7.729
			c0.986,1.096,1.242,2.897,1.688,4.421c1.371,4.681,2.768,9.357,3.965,14.083c0.591,2.33,0.767,4.765,1.132,7.151
			c0.016,0.105,0.021,0.232,0.083,0.307c2.628,3.191,3.306,7.255,4.849,10.928c0.55,1.31,1.107,2.795,1.005,4.15
			c-0.119,1.568,0.227,2.815,0.729,4.259c0.93,2.67,1.417,5.498,2.029,8.273c0.57,2.587,1.084,5.188,1.589,7.789
			c0.483,2.488,1.022,4.971,1.347,7.481c0.252,1.945-0.582,3.288-2.711,3.613c-0.716,0.109-1.443,0.382-2.078,0.736
			c-3.391,1.89-6.476,1.816-9.215-1.001c-1.72-1.768-3.19-4.073-3.963-6.407c-1.9-5.745-3.392-11.631-4.929-17.492
			c-0.803-3.063-0.791-6.401-3.633-9.007c-0.408,1.604-0.964,3.142-1.161,4.724c-0.276,2.222-1.314,3.497-3.556,3.843
			c-2.419,0.373-4.818,0.88-7.24,1.236c-0.712,0.105-1.591,0.121-2.187-0.201c-2.054-1.117-4.122-1.539-6.262-0.552
			c-1.181-0.961-0.704-3.41-2.992-2.876c-2.062,0.48-1.855,2.242-2.252,3.776c-1.271,4.915-0.753,9.944-1.135,14.913
			c-0.594,7.708-7.555,10.119-13.441,7.736c-0.979-0.396-1.93-0.856-2.927-1.303c-0.27,1.61-4.004,0.521-5.766-0.095
			c-1.551-0.541-3.297-0.503-4.389,0.979c-1.628,2.212-3.399,3.077-5.99,1.561c-0.534-0.312-1.482-0.199-2.134,0.025
			c-1.779,0.617-2.82-0.062-3.624-1.607c-2.148-4.13-4.413-8.2-6.5-12.361c-1.131-2.255-1.965-4.579-3.604-6.648
			c-1.384-1.746-1.648-4.331-2.717-6.385c-1.612-3.1-3.165-6.325-5.337-9.017c-3.27-4.052-4.673-8.463-4.35-13.556
			c0.039-0.621,0.143-1.642-0.16-1.814c-2.289-1.3-1.807-3.268-1.574-5.278c0.08-0.69-0.17-1.499-0.49-2.143
			c-1.031-2.071-1.973-4.228-3.31-6.094c-1.63-2.276-1.988-4.833-2.63-7.424C566.04,452.593,565.145,448.532,562.188,445.163z
			 M661.419,492.013c0.195-0.093,0.392-0.185,0.588-0.277c-2.091-18.582-7.629-36.241-14.676-53.583
			c-0.579,1.214-0.896,2.419-1.11,3.643c-0.58,3.334-1.056,6.687-1.688,10.011c-0.456,2.396-0.606,5.047-1.787,7.06
			c-1.326,2.263-1.116,4.432-1.237,6.737c-0.167,3.175-0.447,6.346-0.803,9.505c-0.214,1.902-0.721,3.771-0.995,5.668
			c-0.716,4.928,2.062,7.275,6.761,5.895c1.262-0.371,2.662-0.355,4-0.361c1.539-0.005,3.104,0.377,4.612,0.199
			c1.818-0.214,3.044,0.068,3.88,1.885C659.565,489.698,660.585,490.812,661.419,492.013z"/>
		<path fill-rule="evenodd" clip-rule="evenodd" fill="#FFFFFF" d="M205.13,96.052c-1.214,7.184-2.001,13.952-3.582,20.529
			c-1.329,5.531-2.734,11.084-5.938,16.075c-2.625,4.087-4.387,8.729-6.525,13.128c-0.743,1.527-1.541,3.034-2.183,4.604
			c-0.796,1.945-1.377,3.98-2.202,5.912c-0.615,1.441-1.286,2.927-2.255,4.132c-1.781,2.213-2.868,4.5-3.288,7.425
			c-0.476,3.325-1.945,6.504-2.937,9.76c-1.05,3.448-1.93,6.953-3.108,10.355c-0.687,1.984-1.792,3.826-2.743,5.714
			c-2.631,5.228-4.453,10.591-5.531,16.468c-1.487,8.105-2.248,16.426-5.458,24.215c-2.915,7.07-5.198,14.375-6.896,21.872
			c-1.029,4.545-2.917,8.891-4.091,13.411c-2.301,8.858-4.161,17.835-6.598,26.654c-2.574,9.316-5.865,18.435-8.354,27.771
			c-1.775,6.656-4.452,13.119-4.918,20.1c-0.184,2.752-1.253,4.624-4.274,5.086c-1.669,0.254-3.244,1.111-4.912,1.397
			c-1.416,0.242-2.906,0.079-4.363,0.048c-0.631-0.014-1.304-0.336-1.881-0.197c-3.839,0.926-6.978-0.492-10.127-2.523
			c-1.717-1.105-3.871-1.525-5.805-2.311c-0.58-0.236-1.347-0.541-1.574-1.025c-1.125-2.4-3.444-2.83-5.567-3.286
			c-3.59-0.77-7.158-2.162-11.542-0.816c0.188-2.624-0.053-5.014,0.578-7.146c3.626-12.244,7.404-24.442,11.267-36.612
			c0.799-2.519,2.188-4.849,3.28-7.277c2.182-4.85,4.644-9.603,6.418-14.598c1.266-3.566,1.549-7.475,2.36-11.21
			c1.055-4.86,2.004-9.757,3.356-14.537c1.701-6.015,3.601-11.987,5.723-17.866c1.614-4.472,4.101-8.651,5.457-13.184
			c0.99-3.309,1.298-6.821,3.106-9.884c-1.017-4.932,2.84-8.249,4.177-12.405c1.461-4.542,3.069-9.118,5.316-13.302
			c2.067-3.846,1.829-8.335,4.49-12.096c1.598-2.258,1.5-5.902,1.671-8.95c0.482-8.562,2.78-16.539,6.966-23.999
			c0.36-0.641,0.788-1.294,0.937-1.994c1.236-5.806,4.384-10.792,6.779-16.104c1.923-4.264,3.746-8.579,5.433-12.941
			c1.695-4.383,3.47-8.687,6.612-12.277c1.684-1.923,2.611-2.094,5.02-0.991c0.857,0.393,1.813,0.981,2.668,0.899
			c6.125-0.593,11.771,1.661,17.557,2.929c3.688,0.809,7.101,0.402,10.664-0.483C200.4,96.002,202.664,96.195,205.13,96.052z"/>
		<path fill-rule="evenodd" clip-rule="evenodd" fill="#FFFFFF" d="M374.345,386.3c1.811,3.521,2.157,3.76,5.221,2.713
			c1.875-0.641,3.357-0.615,5.064,0.6c1.139,0.81,2.77,0.971,4.205,1.309c3.691,0.869,7.396,1.682,11.099,2.502
			c0.514,0.114,1.067,0.28,1.565,0.199c4.783-0.786,8.562,1.193,12.234,3.994c2.331,1.778,5.016,3.145,7.671,4.428
			c1.534,0.74,2.313,1.977,3.399,3.107c3.734,3.889,5.01,8.812,6.487,13.682c0.297,0.977,0.216,2.066,0.323,3.103
			c0.158,1.559,0.339,3.114,0.493,4.674c0.124,1.249,0.265,2.498,0.323,3.75c0.053,1.154-0.011,2.313,0.01,3.469
			c0.012,0.636,0.293,1.339,0.106,1.896c-2.058,6.135-2.146,12.933-6.032,18.446c-1.459,2.069-1.594,3.785-0.181,6.099
			c3.372,5.518,6.462,11.215,9.466,16.946c0.67,1.28,0.523,2.993,0.729,4.51c0.042,0.307-0.163,0.736-0.017,0.925
			c2.043,2.637,0.659,5.995,1.873,8.811c0.229,0.53,0.332,1.499,0.027,1.813c-1.803,1.863-0.785,3.89-0.698,5.953
			c0.292,6.933-1.608,13.271-6.074,18.655c-2.284,2.755-3.716,6.3-7.182,8.007c-0.569,0.28-1.04,0.802-1.628,0.995
			c-3.507,1.15-7.204,1.874-10.52,3.42c-6.969,3.248-14.053,1.145-21.078,0.955c-4.225-0.114-8.434-0.855-12.646-1.346
			c-0.512-0.06-1.144-0.163-1.476-0.492c-1.484-1.473-3.251-1.861-5.265-1.786c-1.363,0.051-2.172-0.744-2.291-2.146
			c-0.31-3.665-1.564-7.166-0.954-11.026c0.422-2.67-0.61-5.542-0.735-8.335c-0.194-4.324-0.229-8.659-0.185-12.987
			c0.009-0.894,0.782-1.754,0.977-2.678c0.185-0.875,0.119-1.814,0.075-2.721c-0.035-0.716-0.247-1.423-0.303-2.139
			c-0.131-1.667,0.211-3.521-0.412-4.966c-1.24-2.88-0.477-6.342-2.766-8.902c-0.319-0.357,0.031-1.401,0.205-2.093
			c0.432-1.717,1.298-3.402,1.353-5.12c0.199-6.355,0.154-12.718,0.172-19.078c0.01-3.407-0.024-6.814-0.065-10.222
			c-0.03-2.526,0.489-5.112-0.974-7.487c-0.277-0.448-0.277-1.376,0.01-1.81c1.389-2.105,0.927-4.308,0.529-6.507
			c-0.74-4.085-1.594-8.15-2.277-12.244c-0.224-1.344-0.085-2.752-0.072-4.13c0.008-0.849,0.211-1.708,0.126-2.542
			c-0.508-4.992,0.875-7.604,5.255-10.041c0.888-0.494,1.607-1.299,2.39-1.977C372.646,387.843,373.368,387.178,374.345,386.3z
			 M394.726,473.111c-5.128-0.082-5.655,0.351-5.981,4.018c-0.281,3.162-1.017,6.415-0.557,9.479
			c0.491,3.258,0.042,6.867,2.364,9.771c0.427,0.533,0.388,1.576,0.306,2.356c-0.31,2.947-0.752,5.881-1.093,8.824
			c-0.335,2.896,1.181,5.245,4.229,5.048c1.25-0.081,2.525,0.351,3.798,0.445c5.145,0.38,10.424-0.099,13.842-4.126
			c3.375-3.978,5.176-9.353,5.287-14.481c0.18-8.293-2.79-15.824-8.484-22.123c-1.248-1.381-2.332-1.639-4.168-1.14
			C400.695,472.151,397,472.671,394.726,473.111z M412.294,419.212c-1.768-1.626-3.263-2.746-4.43-4.141
			c-1.34-1.602-2.612-2.936-4.901-3.148c-3.9-0.361-7.765-1.09-11.663-1.475c-2.745-0.271-3.267,0.422-3.333,3.294
			c-0.045,1.902,0.092,3.897-0.428,5.683c-1.394,4.79-1.684,9.627-1.244,14.534c0.415,4.641,1.577,9.177,1.305,13.928
			c-0.227,3.941,1.355,5.015,5.373,4.707c3.872-0.298,7.289-1.356,9.676-4.732c0.853-1.205,2.025-2.187,3.076-3.246
			c2.604-2.631,5.654-4.993,5.42-9.285c-0.01-0.189,0.148-0.396,0.252-0.582c1.98-3.532,1.235-7.351,0.58-10.917
			C411.629,421.939,411.404,420.435,412.294,419.212z"/>
		<path fill-rule="evenodd" clip-rule="evenodd" fill="#FFFFFF" d="M312.743,390.517c5.26,0,10.521-0.033,15.779,0.031
			c0.924,0.012,1.851,0.41,2.763,0.678c1.122,0.328,2.222,0.979,3.343,1.006c2.591,0.062,4.557,0.779,5.518,3.435
			c0.226,0.622,0.921,1.194,1.54,1.536c7.43,4.104,10.543,10.916,12.344,18.793c1.062,4.641-0.366,9.122-0.037,13.669
			c0.283,3.917,0.77,7.821,0.981,11.742c0.106,1.959-0.195,3.941-0.327,5.912c-0.234,3.483-0.667,6.967-0.672,10.45
			c-0.005,3.826,0.585,7.655,0.543,11.479c-0.064,5.957-0.439,11.911-0.69,17.866c-0.095,2.234-0.11,4.479-0.35,6.699
			c-0.19,1.774-0.653,3.521-1.022,5.273c-0.087,0.412-0.457,0.826-0.405,1.197c0.561,3.959-1.769,7.158-2.84,10.67
			c-0.512,1.68-1.585,3.249-2.652,4.686c-1.77,2.384-3.662,4.69-5.666,6.882c-0.723,0.789-1.858,1.311-2.902,1.67
			c-1.494,0.513-3.324,0.386-4.573,1.202c-2.837,1.854-6.053,1.667-9.115,2.248c-3.087,0.586-6.086,0.653-8.688-1.83
			c-0.91-0.867-2.549-0.949-3.83-1.455c-1.37-0.541-2.864-0.945-4.029-1.789c-2.229-1.616-4.326-3.435-6.351-5.307
			c-0.837-0.773-1.985-1.97-1.888-2.854c0.289-2.643-1.035-4.795-1.472-7.181c-0.314-1.713-0.777-2.865-2.243-3.909
			c-0.908-0.647-1.681-2.073-1.757-3.201c-0.393-5.784-0.459-11.59-0.806-17.378c-0.164-2.74-0.74-5.454-1.059-8.188
			c-0.518-4.436-1.211-8.869-1.406-13.321c-0.264-6.062-0.287-12.146-0.097-18.211c0.092-2.94,0.944-5.854,1.368-8.792
			c0.126-0.877,0.244-1.927-0.11-2.672c-1.102-2.319-0.826-4.479,0-6.801c0.511-1.436,0.543-3.048,0.741-4.588
			c0.134-1.049,0.039-2.146,0.295-3.158c0.81-3.194,1.485-6.461,2.706-9.502c0.843-2.099,2.496-3.875,3.802-5.785
			c0.713-1.043,1.764-1.968,2.131-3.115c1.137-3.553,3.854-5.595,6.796-7.327c1.198-0.706,2.85-0.642,4.295-0.929
			C312.715,390.405,312.729,390.46,312.743,390.517z M311.984,431.074c-0.524,0.72-1.356,1.947-1.099,2.386
			c1.733,2.95,1.224,5.686-0.277,8.465c-0.137,0.253-0.106,0.636-0.06,0.943c0.386,2.512,0.918,5.008,1.164,7.532
			c0.299,3.081,1.811,6.252-0.559,9.24c-0.321,0.404-0.168,1.567,0.194,2.069c2.361,3.272,1.583,6.726,0.636,10.135
			c-0.392,1.414-0.425,2.53,0.844,3.366c1.352,0.892,1.528,2.182,1.516,3.63c-0.028,3.271-0.563,6.563,0.479,9.792
			c0.52,1.611,1.109,3.239,1.323,4.903c0.619,4.812,2.857,8.828,5.838,12.499c0.956,1.177,2.588,1.938,3.617,0.79
			c2.092-2.333,4.977-4.216,5.604-7.596c1.188-6.401,4.106-12.443,3.057-19.325c-0.678-4.449-0.301-9.081-0.185-13.627
			c0.107-4.243,0.304-8.504,0.838-12.709c0.272-2.146,0.604-4.002,0.163-6.328c-1.02-5.382-1.548-10.988-1.245-16.447
			c0.228-4.114-1.687-7.836-1.158-11.873c0.063-0.482-0.555-1.083-0.916-1.587c-0.494-0.689-1.31-1.264-1.524-2.02
			c-0.969-3.424-3.611-5.117-6.464-6.674c-2.977-1.624-4.708-1.277-7.066,1.048c-4.192,4.132-3.209,9.833-4.681,14.784
			c-0.027,0.092,0.257,0.277,0.534,0.562C314.33,423.538,313.979,428.335,311.984,431.074z"/>
		<path fill-rule="evenodd" clip-rule="evenodd" fill="#FFFFFF" d="M92.819,408.429c-3.162-3.537-1.872-6.421-0.386-9.384
			c1.179-2.351,2.11-4.825,3.15-7.247c0.083-0.195,0.178-0.39,0.23-0.595c1.342-5.232,2.683-10.466,4.015-15.7
			c0.184-0.724,0.27-1.475,0.496-2.183c1.286-4.019,2.768-4.722,6.664-2.966c2.263,1.02,5.045,0.742,6.864,2.872
			c2.74,3.208,5.907,3.109,9.749,1.878c2.602-0.834,5.667-0.452,8.494-0.229c0.951,0.075,1.809,1.334,2.608,1.971
			c1.236-0.109,2.52-0.386,3.757-0.251c0.472,0.053,0.968,0.996,1.23,1.627c0.55,1.32,0.099,2.113-1.336,2.648
			c-3.712,1.385-4.002,1.887-3.912,5.783c0.117,4.999,0.054,10.018,0.499,14.99c0.339,3.791,1.371,7.52,2.049,11.284
			c0.301,1.675,0.615,3.362,0.71,5.056c0.343,6.056,1.202,12.018,2.301,17.991c0.898,4.88,0.791,9.938,1.233,14.908
			c0.206,2.315,0.591,4.62,1.016,6.907c0.329,1.77,1.158,3.492,1.228,5.258c0.34,8.514,2.379,16.775,3.541,25.164
			c0.626,4.526,0.22,8.992-1.519,13.081c-0.966,2.271-3.055,4.376-5.166,5.735c-1.347,0.868-3.719,0.534-5.521,0.179
			c-1.345-0.267-2.924-1.146-3.681-2.247c-2.105-3.061-3.877-6.365-4.094-10.228c-0.096-1.701-0.145-3.406-0.229-5.108
			c-0.132-2.624-0.267-5.193-1.002-7.806c-0.694-2.466-1.05-5.269,0.634-7.74c0.266-0.392,0.368-1.074,0.233-1.527
			c-1.618-5.426-1.77-11.045-2.415-16.612c-0.77-6.633-2.289-13.18-3.089-19.811c-0.713-5.911-0.916-11.884-1.292-17.833
			c-0.38-6.007-1.414-11.794-5.47-17.115c-0.769,0.759-1.58,1.36-2.135,2.143c-1.884,2.656-2.21,5.736-2.061,8.864
			c0.114,2.391-0.054,4.512-3.134,5.154c1.448,2.807,0.412,5.085-0.709,7.44c-0.724,1.522-1.224,3.201-1.523,4.864
			c-0.671,3.731-2.771,6.781-4.312,10.12c-2.178,4.717-5.495,9.084-5.166,14.794c0.096,1.656-0.997,3.387-1.58,5.071
			c-0.137,0.394-0.618,0.752-0.593,1.103c0.099,1.403-0.156,3.301,0.637,4.072c1.111,1.082,2.286-0.466,3.087-1.382
			c2.078-2.376,4.724-1.943,7.403-1.827c1.522,0.066,3.063-0.278,4.593-0.466c0.499-0.062,1.279-0.459,1.434-0.278
			c1.61,1.887,2.824,0.503,4.082-0.413c1.652-1.201,3.045-1.027,4.515,0.443c1.975,1.978,2.738,5.42,1.717,8.022
			c-0.323,0.823-0.247,1.824-0.244,2.744c0.001,0.399,0.296,0.792,0.427,1.197c1.695,5.246,0.796,6.354-4.569,5.857
			c-1.69-0.156-3.413,0.067-5.111-0.038c-1.578-0.098-3.144-0.396-4.714-0.617c-1.046-0.147-2.171-0.643-3.12-0.408
			c-2.494,0.615-4.707,0.256-7.114-0.608c-1.972-0.707-3.702-1.376-4.547-3.556c-0.218,0.029-0.436,0.058-0.653,0.085
			c-1.401,3.409-3.18,6.723-4.081,10.259c-0.694,2.721-1.415,5.315-2.876,7.703c-0.444,0.726-0.804,1.503-1.208,2.254
			c-2.428,4.526-6.862,6.561-11.882,5.297c-2.941-0.739-6.126-0.853-8.301-3.606c-1.233-1.562-1.807-2.893-1.145-4.919
			c0.851-2.605,1.28-5.35,1.864-7.917c1.221-0.5,2.342-0.828,3.331-1.388c2.713-1.535,2.692-1.573,5.435,0.91
			c-0.157-2.348-0.293-4.378-0.459-6.866c-1.621,0.341-3.199,0.672-4.929,1.035c-0.083-0.343-0.365-0.811-0.235-1.081
			c1.085-2.262,2.315-4.456,3.348-6.74c0.37-0.818,0.636-1.915,0.404-2.729c-0.578-2.031,0.222-3.665,0.806-5.513
			c1.403-4.441,4.244-8.34,4.769-13.116c0.186-1.684,1.493-3.026,2.125-4.648c2.369-6.071,3.327-12.628,7.127-18.289
			c1.956-2.914,3.692-6.642,3.303-10.713C88.18,411.013,88.715,408.729,92.819,408.429z"/>
		<path fill-rule="evenodd" clip-rule="evenodd" fill="#FFFFFF" d="M201.194,475.751c0.39,1.205,0.67,2.072,0.958,2.964
			c2.228-1.178,2.269-1.943,0-3.376c-2.971-1.876-4.463-4.681-4.652-7.951c-0.195-3.375,0.285-6.788,0.437-10.187
			c0.07-1.562,0.065-3.13,0.088-4.694c0.01-0.634-0.25-1.453,0.053-1.869c1.207-1.659,0.633-3.484,0.742-5.248
			c0.232-3.773,0.502-7.544,0.715-11.318c0.041-0.729-0.15-1.466-0.157-2.2c-0.014-1.37-0.256-2.821,0.106-4.095
			c0.847-2.973,2.485-5.773,0.019-8.854c-0.464-0.579,0.138-2.272,0.607-3.286c0.941-2.031,1.127-3.972,0.648-6.192
			c-0.394-1.826-0.057-3.797-0.167-5.697c-0.271-4.67-0.641-9.334-0.907-14.005c-0.072-1.269-0.062-2.577,0.164-3.821
			c0.641-3.529,2.127-4.436,5.763-4.573c3.212-0.122,5.979,0.739,8.779,2.2c2.66,1.389,4.066,3.318,4.124,6.275
			c0.133,6.798,0.214,13.598,0.417,20.393c0.087,2.943,0.719,5.893,0.583,8.814c-0.304,6.563-1.032,13.106-1.392,19.668
			c-0.2,3.656-1.298,7.275-0.457,10.986c0.783,3.459,0.699,6.917,0.399,10.471c-0.464,5.512-0.471,11.073-0.425,16.612
			c0.044,5.453,0.123,10.917-1.568,16.141c-0.656,2.027-1.845,4.246-3.469,5.504c-2.006,1.553-2.835,3.355-3.194,5.598
			c-0.236,1.471-0.45,2.976-0.4,4.455c0.097,2.856-1.692,4.427-3.907,5.253c-3.354,1.25-6.894,2.82-10.336,2.777
			c-3.374-0.043-6.753-0.886-10.166-0.049c-8.36-2.392-16.549-5.293-21.756-12.796c-3.432-4.945-6.429-10.239-6.547-16.637
			c-0.136-7.334-0.562-14.663-0.719-21.997c-0.054-2.54,0.405-5.086,0.486-7.634c0.265-8.403,0.412-16.81,0.714-25.212
			c0.114-3.179,0.745-6.348,0.754-9.521c0.013-5.106-0.573-10.223-0.402-15.318c0.264-7.869,0.953-15.725,1.46-23.586
			c0.055-0.846,0.215-1.701,0.135-2.535c-0.314-3.267-0.322-3.227,2.394-4.711c3.323-1.816,6.973-1.719,10.574-1.908
			c1.558-0.082,3.128,0.039,4.68-0.094c1.864-0.158,2.892,0.448,3.084,2.335c0.139,1.366,0.135,2.796-0.105,4.144
			c-0.745,4.184-1.7,8.33-2.431,12.515c-0.269,1.538-0.236,3.149-0.172,4.72c0.235,5.837,0.662,11.67,0.761,17.508
			c0.042,2.415-0.755,4.835-0.831,7.264c-0.168,5.409-0.055,10.827-0.182,16.238c-0.119,5.07-0.401,10.137-0.609,15.204
			c-0.018,0.423-0.05,0.848-0.026,1.268c0.518,8.914,0.986,17.83,1.593,26.737c0.275,4.036,0.968,7.999,2.922,11.661
			c2.796,5.242,8.526,5.637,12.113,0.902c1.735-2.291,3.55-4.448,4.465-7.262c0.419-1.291,1.15-2.266,0.574-3.856
			C196.945,482.268,199.413,477.228,201.194,475.751z"/>
		<path fill-rule="evenodd" clip-rule="evenodd" fill="#FFFFFF" d="M218.543,280.982c0.644,3.525,1.127,7.09,1.977,10.565
			c0.81,3.309-0.222,6.341-1.07,9.354c-0.497,1.769-4.227,2.802-6.87,2.232c-3.719-0.802-7.375-2.019-11.129-2.493
			c-2.798-0.353-5.708,0.208-8.57,0.325c-1.477,0.06-2.958,0.026-4.436,0.062c-2.117,0.054-4.238,0.076-6.35,0.213
			c-3.173,0.206-6.357,0.815-9.504,0.648c-2.137-0.114-4.246-1.191-6.32-1.963c-4.884-1.819-9.75-3.688-14.603-5.585
			c-3.825-1.496-4.535-2.427-3.881-6.49c0.878-5.457,2.2-10.841,3.151-16.288c1.162-6.657,4.217-12.677,6.195-19.058
			c0.777-2.506,2.408-3.062,5.02-2.732c4.209,0.532,8.446,0.854,12.676,1.208c2.424,0.204,4.856,0.378,7.287,0.425
			c4.235,0.082,8.472,0.091,12.707,0.044c1.047-0.012,2.083-0.417,3.136-0.54c1.463-0.17,2.938-0.239,4.406-0.364
			c1.038-0.089,2.078-0.17,3.11-0.306c1.156-0.153,2.308-0.532,3.457-0.517c4.978,0.07,6.626,1.787,6.945,6.665
			c0.121,1.856,0.763,3.671,1.019,5.526c0.87,6.307,1.674,12.624,2.503,18.937C219.115,280.895,218.829,280.938,218.543,280.982z"/>
		<path fill-rule="evenodd" clip-rule="evenodd" fill="#FFFFFF" d="M249.837,473.124c-2.421-2.092-2.112-4.345-1.585-6.734
			c0.312-1.416,0.237-2.921,0.294-4.387c0.103-2.654,0.207-5.31,0.248-7.966c0.029-1.905-0.135-3.817-0.051-5.719
			c0.175-3.982-0.591-7.897-0.103-11.964c0.523-4.366-0.324-8.887-0.463-13.344c-0.092-2.964,0.047-5.934,0.01-8.9
			c-0.023-1.795,0.07-3.652-0.352-5.367c-0.508-2.062-2.541-2.102-4.212-2.111c-3.954-0.025-7.534-1.279-11.008-2.985
			c-2.494-1.224-4.188-2.929-3.63-6.024c0.09-0.501-0.067-1.056-0.156-1.578c-0.689-4.068,1.456-6.947,5.501-7.144
			c1.798-0.087,3.612,0.185,5.42,0.281c3.282,0.176,6.571,0.544,9.846,0.454c3.261-0.09,6.506-0.664,9.763-0.983
			c0.728-0.071,1.474,0.022,2.209,0.065c0.207,0.013,0.423,0.199,0.611,0.167c4.124-0.714,8.297-0.104,12.415-0.444
			c3.354-0.277,6.646-1.232,9.988-1.734c2.079-0.313,3.494,0.617,3.875,2.814c0.055,0.311,0.06,0.793,0.247,0.891
			c2.833,1.479,2.335,4.441,2.687,6.771c0.506,3.353-0.886,6.694-3.081,9.032c-1.14,1.215-3.947,1.005-6.022,1.162
			c-2.423,0.184-4.871,0.11-7.305,0.061c-1.253-0.025-2.518-0.16-3.751-0.387c-2.289-0.419-3.092,0.209-3.126,2.566
			c-0.077,5.318,0.062,10.653-0.303,15.953c-0.503,7.316-0.274,14.614-0.083,21.921c0.097,3.716,0.142,7.434,0.351,11.144
			c0.235,4.172,0.802,8.332,0.892,12.506c0.059,2.727-0.509,5.462-0.722,8.199c-0.081,1.04,0.015,2.099,0.087,3.144
			c0.08,1.163,0.54,2.398,0.279,3.467c-0.617,2.521-1.071,4.854,0.179,7.41c0.418,0.855-0.328,2.449-0.854,3.558
			c-0.721,1.52-0.895,2.899-0.551,4.597c0.37,1.831,0.108,3.79,0.112,5.693c0.006,3.496-0.08,6.994,0.036,10.485
			c0.083,2.509-0.679,3.487-3.203,3.679c-3.825,0.29-7.613,0.669-11.381-0.674c-1.635-0.583-2.956-1.21-3.39-2.97
			c-0.554-2.247-1.173-4.489-1.529-6.771c-0.377-2.416-0.65-4.876-0.655-7.318c-0.006-2.644,0.435-5.286,0.526-7.934
			c0.158-4.559,0.398-9.128,0.213-13.677C247.982,478.959,246.961,475.884,249.837,473.124z"/>
		<path fill-rule="evenodd" clip-rule="evenodd" fill="#FFFFFF" d="M498.648,405.555c0.142-1.976,0.465-3.739,0.355-5.478
			c-0.342-5.422,2.635-8.203,8.055-7.883c4.457,0.264,8.946,0.02,13.421-0.042c2.222-0.031,4.456-0.345,6.654-0.159
			c0.968,0.081,2.122,0.888,2.736,1.706c2.525,3.36,1.604,6.976,0.468,10.565c-0.539,1.701-1.582,2.616-3.41,2.886
			c-1.979,0.292-3.908,0.899-5.867,1.332c-0.615,0.136-1.373,0.406-1.866,0.181c-2.259-1.033-4.319-0.203-6.497,0.307
			c-3.547,0.832-7.11,1.172-10.734-0.001c-2.287-0.739-2.878,0.083-3.98,2.317c-2.045,4.143,0.377,7.87,0.643,11.787
			c0.089,1.326,0.092,2.664,0.051,3.994c-0.038,1.257-0.451,2.56-0.232,3.757c0.604,3.289,0.5,6.71,0.354,9.891
			c-0.186,4.032,1.836,8.279-0.643,12.178c-0.161,0.253-0.299,0.645-0.222,0.904c1.032,3.438,1.896,6.95,3.269,10.251
			c0.582,1.402,0.738,2.391,0.332,3.831c-0.439,1.558-0.395,3.288-0.355,4.938c0.135,5.825,2.842,11.377,1.864,17.329
			c-0.359,2.191-0.931,4.379-1.004,6.581c-0.123,3.71,0.278,7.441,0.081,11.145c-0.212,4.003-0.854,7.984-1.312,11.975
			c-0.158,1.374-0.367,2.743-0.488,4.12c-0.207,2.334-1.191,3.116-3.507,2.888c-1.647-0.161-3.336-0.025-4.957-0.303
			c-0.763-0.131-1.495-0.84-2.093-1.436c-0.854-0.854-1.416-2.064-2.375-2.732c-2.408-1.679-3.509-3.95-3.574-6.773
			c-0.037-1.597,0.24-3.203,0.156-4.793c-0.171-3.269-0.152-6.601-0.818-9.779c-1.269-6.047-1.146-12.056-0.424-18.113
			c0.062-0.527,0.356-1.085,0.252-1.566c-1.456-6.706-0.37-13.555-1.169-20.294c-0.297-2.503-1.224-5.164-0.692-7.485
			c1.104-4.814-0.148-9.457-0.153-14.169c-0.003-3.16-0.437-6.32-0.669-9.481c-0.031-0.424-0.104-0.878,0-1.275
			c1.563-5.905,0.47-12.042,1.607-18.007c0.405-2.13-0.061-4.454-0.295-6.672c-0.336-3.16-0.789-6.311-1.262-9.456
			c-0.281-1.876,0.258-2.933,1.902-3.429c3.219-0.971,6.393-1.867,9.865-1.778c4.062,0.103,5.865,1.968,5.154,6.029
			c-0.439,2.51-0.787,5.036-1.126,7.562C495.965,404.226,496.43,405.187,498.648,405.555z"/>
		<path fill-rule="evenodd" clip-rule="evenodd" fill="#FFFFFF" d="M467.234,409.378c0.362,6.221-0.092,12.34-1.578,18.413
			c-0.285,1.164,0.14,2.525,0.342,3.779c0.744,4.622,1.052,9.155,0.502,13.923c-0.614,5.323,0.115,10.807,0.316,16.218
			c0.111,2.972,0.493,5.939,0.487,8.907c-0.026,12.091,0.67,24.144,2.013,36.146c0.308,2.746,0.637,5.543,1.332,8.326
			c0.844,3.371-0.27,7.271-0.782,10.908c-0.099,0.696-1.26,1.586-2.075,1.78c-4.445,1.062-8.894,2.28-13.547,1.029
			c-3.641-0.979-4.447-2.192-4.337-6.046c0.05-1.732-0.647-3.472-0.798-5.226c-0.336-3.9-0.565-7.81-0.781-11.719
			c-0.041-0.729,0.438-1.555,0.238-2.199c-0.971-3.123-0.76-6.238-0.574-9.447c0.172-2.941-0.457-5.925-0.672-8.895
			c-0.339-4.658-0.319-9.365-1-13.97c-1.477-9.99-0.66-19.926-0.098-29.908c0.365-6.476-0.031-12.99,0.072-19.484
			c0.087-5.523,0.451-11.041,0.598-16.564c0.078-2.981-0.06-5.968-0.068-8.953c-0.013-4.207,3.248-7.196,7.525-7.002
			c1.466,0.066,2.947,0.043,4.409-0.079c3.802-0.315,7.463,2.519,7.768,6.352C466.889,400.229,467.01,404.808,467.234,409.378z"/>
		<path fill-rule="evenodd" clip-rule="evenodd" fill="#FFFFFF" d="M689.834,385.339c5.337,0.03,7.33,1.513,7.818,6.455
			c0.463,4.693,1.549,9.154,3.262,13.506c0.152,0.388,0.276,0.855,0.207,1.251c-0.977,5.667,1.87,11.003,1.406,16.636
			c-0.207,2.523-0.176,5.073-0.125,7.607c0.02,0.926,0.149,2.039,0.674,2.727c1.484,1.944,0.934,3.447-0.444,5.131
			c-1.166,1.425-1.843,3.127-1.277,5.064c0.06,0.203,0.185,0.452,0.12,0.619c-1.552,4.018-0.498,8.055-0.076,12.076
			c0.241,2.293,0.644,4.568,0.965,6.853c0.339,2.403,0.681,4.807,0.994,7.215c0.109,0.842,0.33,1.73,0.176,2.535
			c-1.033,5.395,1.266,10.453,1.57,15.729c0.271,4.702,1.791,9.32,2.543,14.01c0.368,2.296,0.227,4.672,0.348,7.009
			c0.071,1.376-0.063,2.84,0.366,4.104c1.145,3.371,0.734,6.717,0.347,10.109c-0.214,1.857-1.255,2.675-2.942,3.3
			c-4.005,1.48-7.55,0.143-10.788-1.841c-2.317-1.42-2.849-4.116-2.755-6.794c0.222-6.341,0.583-12.663,0.566-19.028
			c-0.019-6.953-0.435-13.761-1.681-20.576c-0.276-1.509,0.467-3.188,0.286-4.734c-0.431-3.674-1.12-7.318-1.736-10.97
			c-0.123-0.729-0.684-1.504-0.535-2.139c1.018-4.353-0.649-8.426-1.559-12.458c-0.912-4.044,0.013-8.331-1.603-12.097
			c-1.833-4.273-0.878-8.841-2.09-13.129c-0.217-0.77,0.024-1.676,0.093-2.515c0.052-0.634,0.422-1.369,0.211-1.875
			c-1.116-2.668-1.556-5.27-0.025-7.943c0.148-0.26-0.029-0.943-0.285-1.164c-1.791-1.537-1.116-3.236-0.43-4.959
			c0.157-0.395,0.425-0.795,0.43-1.194c0.045-4.081,0.048-8.163,0.061-12.243c0.001-0.426-0.035-0.854-0.018-1.278
			c0.136-3.435,0.821-4.212,4.199-4.764C688.84,385.454,689.579,385.373,689.834,385.339z"/>
		<path fill-rule="evenodd" clip-rule="evenodd" fill="#FFFFFF" d="M562.75,226.335c0.205,4.659,0.402,9.013,0.586,13.366
			c0.027,0.638,0.166,1.34-0.045,1.899c-0.271,0.716-0.844,1.318-1.287,1.97c-0.57-0.5-1.423-0.89-1.667-1.517
			c-2.651-6.801-4.175-13.75-3.692-21.177c0.234-3.62-0.54-7.351-1.191-10.973c-0.768-4.277-2.695-8.501-2.633-12.726
			c0.059-3.88-0.893-6.875-2.941-9.883c-0.492-0.721-0.716-1.83-0.621-2.713c0.723-6.73-1.136-13.083-2.557-19.531
			c-1.762-7.991-3.252-16.042-3.328-24.275c-0.002-0.213-0.024-0.43,0.007-0.639c0.215-1.434-0.004-3.316,1.878-3.621
			c1.888-0.305,3.447,1.014,3.939,2.645c0.789,2.614,1.102,5.384,1.485,8.106c0.25,1.777,0.185,3.598,0.41,5.381
			c0.88,6.953,1.712,13.915,2.787,20.838c0.501,3.223,1.396,6.403,2.346,9.531c0.598,1.967,0.7,3.723-0.429,5.494
			c-0.895,1.403-1.612,2.825,0.004,4.274c0.283,0.255,0.424,0.744,0.496,1.149c0.751,4.176,1.494,8.354,2.195,12.538
			c0.49,2.918,0.902,5.849,1.376,8.77c0.065,0.41,0.173,0.902,0.444,1.176C563.207,219.343,562.875,223.012,562.75,226.335z"/>
		<path fill-rule="evenodd" clip-rule="evenodd" fill="#FFFFFF" d="M528.348,523.95c-5.621,0.392-11.199,0.678-16.755,1.208
			c-3.194,0.305-4.122-0.452-5.324-3.52c-1.616-4.125-1.468-8.068-0.122-12.154c0.601-1.825,1.668-2.928,3.562-3.19
			c1.574-0.218,3.146-0.451,4.727-0.592c3.75-0.333,7.519-0.497,11.253-0.945c5.683-0.683,10.48,3.715,11.085,10.341
			C537.242,520.251,533.449,524.212,528.348,523.95z"/>
		<path fill-rule="evenodd" clip-rule="evenodd" fill="#FFFFFF" d="M725.529,522.761c-1.35,0.212-2.709,0.377-4.049,0.646
			c-5.43,1.093-9.541-2.508-10.28-7.853c-0.802-5.795,2.03-9.938,9.114-11.368c0.824-0.166,1.62-0.486,2.426-0.741
			c3.619-1.148,7.203-2.423,10.866-3.404c2.607-0.699,3.896,0.107,4.337,2.8c0.854,5.219,1.71,10.508-1.267,15.429
			c-0.484,0.8-0.989,1.815-1.749,2.179C731.98,521.853,729.059,523.531,725.529,522.761z"/>
		<path fill-rule="evenodd" clip-rule="evenodd" fill="#FFFFFF" d="M512.637,446.887c3.581-0.452,7.156-0.941,10.743-1.347
			c5.81-0.655,8.612,1.782,8.556,7.619c-0.018,1.964-0.34,3.983-0.899,5.866c-0.554,1.86-2.005,2.904-4.104,2.921
			c-5.923,0.044-11.515,1.714-17.085,3.517c-1.084,0.352-2.367,0.674-3.404,0.409c-0.95-0.243-2-1.143-2.453-2.033
			c-0.709-1.394-1.367-3.041-1.305-4.551c0.129-3.142,0.369-6.386,1.33-9.338c0.433-1.33,2.59-2.338,4.172-2.981
			c1.312-0.533,2.928-0.316,4.41-0.433C512.61,446.653,512.623,446.77,512.637,446.887z"/>
		<path fill-rule="evenodd" clip-rule="evenodd" fill="#FFFFFF" d="M410.383,90.297c0.385-0.618,0.642-1.528,1.162-1.719
			c0.504-0.186,1.471,0.181,1.905,0.626c2.077,2.128,4.12,4.301,6.027,6.582c2.374,2.84,4.698,5.731,6.86,8.733
			c1.73,2.403,3.102,5.063,4.781,7.508c3.83,5.577,6.404,11.783,8.362,18.149c1.575,5.125,2.13,10.565,3.096,15.874
			c0.231,1.274-0.565,1.797-1.701,1.677c-1.506-0.159-2.905-0.917-2.783-2.537c0.286-3.76-1.935-6.7-2.948-10.019
			c-2.271-7.433-4.639-14.856-8.68-21.581c-1.193-1.986-2.616-3.833-3.84-5.803c-1.117-1.799-2.381-3.58-3.082-5.547
			c-0.761-2.139-1.996-3.594-3.778-4.93c-1.659-1.244-3.015-2.925-4.368-4.528C410.885,92.177,410.754,91.249,410.383,90.297z"/>
		<path fill-rule="evenodd" clip-rule="evenodd" fill="#FFFFFF" d="M421.088,225.875c3.345-0.029,9.915,4.76,11.665,7.618
			c1.329,2.17,3.581,3.785,5.468,5.6c2.375,2.285,4.871,4.45,7.156,6.82c0.759,0.787,0.986,2.067,1.534,3.08
			c0.329,0.606,0.702,1.449,1.241,1.627c1.304,0.432,1.981,1.086,1.967,2.499c-0.004,0.284,0.471,0.604,0.768,0.856
			c1.34,1.135,2.836,2.122,4.014,3.403c2.154,2.341,4.172,4.813,6.133,7.321c0.418,0.536,0.352,1.451,0.508,2.192
			c-0.775,0.013-1.757,0.339-2.292-0.013c-4.288-2.821-8.257-6.027-10.88-10.562c-1.084-1.874-2.006-3.637-4.61-3.89
			c-1.091-0.106-2.239-1.216-3.067-2.134c-1.99-2.207-3.811-4.57-5.694-6.873c-0.134-0.164-0.2-0.399-0.357-0.527
			c-4.527-3.661-9.054-7.325-13.608-10.952c-0.658-0.523-1.623-0.715-2.169-1.313c-0.716-0.784-1.671-1.864-1.595-2.735
			c0.118-1.332,1.417-2.018,2.861-2.02C420.447,225.875,420.768,225.875,421.088,225.875z"/>
		<path fill-rule="evenodd" clip-rule="evenodd" fill="#FFFFFF" d="M266.188,167.74c-1.905-1.144-3.029-2.392-3.257-4.362
			c-0.4-3.478-0.836-6.952-1.309-10.42c-0.112-0.824-0.445-1.617-0.645-2.431c-0.883-3.592-2.268-7.152-2.517-10.789
			c-0.418-6.094-1.428-12.012-2.994-17.895c-1.802-6.774-3.484-13.6-2.53-20.72c0.185-1.375-0.344-3.494,1.698-3.562
			c1.878-0.063,1.941,1.997,2.17,3.412c1.284,7.932,2.54,15.868,3.717,23.816c0.46,3.11,0.666,6.257,1.04,9.381
			c0.164,1.372,0.297,2.78,0.719,4.082c2.52,7.781,2.652,15.882,3.34,23.912C265.771,163.926,265.977,165.686,266.188,167.74z"/>
		<path fill-rule="evenodd" clip-rule="evenodd" fill="#FFFFFF" d="M445.455,158.307c0.197,1.574,0.424,2.886,0.514,4.208
			c0.256,3.811,0.504,7.623,0.664,11.439c0.137,3.29,0.068,6.481-2.086,9.38c-1.012,1.362-1.244,3.307-1.81,4.996
			c-0.266,0.795-0.31,1.727-0.767,2.377c-0.44,0.626-1.295,1.347-1.947,1.328c-0.623-0.017-1.623-0.85-1.751-1.471
			c-0.306-1.48-0.757-3.327-0.157-4.532c2.885-5.797,2.621-12.022,2.258-18.061C440.112,163.626,440.906,160.575,445.455,158.307z"
			/>
		<path fill-rule="evenodd" clip-rule="evenodd" fill="#FFFFFF" d="M591.229,98.724c-3.521-0.287-4.334-2.417-4.919-4.796
			c-0.657-2.673-1.386-5.329-2.045-8.001c-0.202-0.822-0.315-1.671-0.406-2.514c-0.295-2.734-0.578-5.47-0.827-8.209
			c-0.087-0.945-0.25-1.944-0.044-2.842c0.38-1.663,1.672-2.141,3.153-1.267c1.517,0.894,2.647,2.024,2.776,3.994
			c0.217,3.285,0.594,6.56,0.954,9.833c0.08,0.724,0.253,1.491,0.594,2.125C592.476,90.79,591.684,94.623,591.229,98.724z"/>
		<path fill-rule="evenodd" clip-rule="evenodd" fill="#FFFFFF" d="M694.454,116.94c0.203,1.354,0.456,2.705,0.591,4.066
			c0.104,1.051,0.307,2.194,0.008,3.154c-0.268,0.864-1.158,1.534-1.773,2.289c-0.748-0.68-2.094-1.335-2.124-2.044
			c-0.069-1.689-0.927-2.627-1.941-3.764c-1.521-1.704-2.414-3.844-2.014-6.177c0.533-3.114,0.277-6.109-0.641-9.102
			c-0.352-1.145-0.589-2.598,0.845-2.984c1.07-0.288,2.51-0.068,3.496,0.461c0.806,0.433,1.453,1.591,1.701,2.548
			c0.767,2.96,1.334,5.974,1.924,8.979c0.161,0.827,0.13,1.691,0.188,2.538C694.627,116.917,694.541,116.928,694.454,116.94z"/>
		<path fill-rule="evenodd" clip-rule="evenodd" fill="#FFFFFF" d="M139.854,320.612c-1.51-5.838,4.449-20.626,9.047-23.15
			c1.391,1.229,1.218,2.771,0.751,4.313c-1.107,3.659-2.264,7.304-3.419,10.947c-0.567,1.79-0.811,3.839-1.877,5.265
			C143.456,319.19,141.579,319.663,139.854,320.612z"/>
		<path fill-rule="evenodd" clip-rule="evenodd" fill="#FFFFFF" d="M366.018,255.287c2.633,3.387,3.829,6.83,3.347,10.871
			c-0.169,1.421,0.246,2.94,0.54,4.385c0.592,2.901,0.202,5.605-1.537,8.914c-0.826-1.331-1.697-2.141-1.843-3.066
			c-0.804-5.11-1.471-10.243-2.101-15.378C364.18,259.018,364.09,256.978,366.018,255.287z"/>
		<path fill-rule="evenodd" clip-rule="evenodd" fill="#FFFFFF" d="M455.91,351.304c0.043-3.621,1.989-5.23,4.277-6.5
			c2.398-1.33,4.848-2.582,7.338-3.725c0.652-0.299,1.547-0.066,2.33-0.078c-0.048,0.893,0.251,2.068-0.206,2.625
			c-1.669,2.028-3.517,3.928-5.44,5.723c-1.305,1.218-2.787,2.281-4.312,3.215c-0.835,0.512-2.115,1.074-2.841,0.77
			C456.348,353.036,456.092,351.663,455.91,351.304z"/>
		<path fill-rule="evenodd" clip-rule="evenodd" fill="#FFFFFF" d="M703.92,345.265c-0.041-0.888-0.186-1.785-0.104-2.66
			c0.382-4.117,0.751-8.238,1.292-12.337c0.176-1.331,0.767-2.64,1.344-3.876c0.454-0.978,0.738-2.533,2.325-2.064
			c1.547,0.457,2.484,1.653,2.275,3.385c-0.178,1.473-0.376,2.963-0.787,4.381c-1.024,3.533-2.099,7.057-3.319,10.524
			c-0.384,1.089-1.3,1.993-1.972,2.981C704.622,345.487,704.271,345.376,703.92,345.265z"/>
		<path fill-rule="evenodd" clip-rule="evenodd" fill="#FFFFFF" d="M564.166,244.502c0.498,1.589,0.935,2.375,0.958,3.172
			c0.058,1.923,0.247,3.521,2.015,4.931c0.775,0.618,0.751,2.791,0.395,4.063c-0.208,0.74-1.76,1.395-2.77,1.503
			c-0.564,0.061-1.666-0.986-1.819-1.688c-0.599-2.752-1.132-5.561-1.223-8.363C561.689,247.15,563.012,246.136,564.166,244.502z"/>
		<path fill-rule="evenodd" clip-rule="evenodd" fill="#FFFFFF" d="M370.003,288.498c3.292,2.667,1.679,6.387,1.897,9.676
			c0.097,1.456-0.39,2.751-2.68,2.883c-0.735-3.163-1.609-6.372-2.179-9.634C366.784,289.954,367.279,289.684,370.003,288.498z"/>
		<path fill-rule="evenodd" clip-rule="evenodd" fill="#FFFFFF" d="M673.202,230.182c-2.122-4.432-0.046-9.34-1.308-13.843
			c0.976-1.289,2.31-1.553,3.38-0.717c0.677,0.529,1.181,1.886,1.037,2.752c-0.65,3.928-1.559,7.812-2.374,11.712
			C673.692,230.119,673.447,230.15,673.202,230.182z"/>
	</g>
</g>
</svg>
