<?xml version="1.0" encoding="utf-8"?>
<!-- Generator: Adobe Illustrator 16.0.0, SVG Export Plug-In . SVG Version: 6.00 Build 0)  -->
<!DOCTYPE svg PUBLIC "-//W3C//DTD SVG 1.1//EN" "http://www.w3.org/Graphics/SVG/1.1/DTD/svg11.dtd">
<svg version="1.1" id="Layer_1" xmlns="http://www.w3.org/2000/svg" xmlns:xlink="http://www.w3.org/1999/xlink" x="0px" y="0px"
	 width="800px" height="600px" viewBox="0 0 800 600" enable-background="new 0 0 800 600" xml:space="preserve">
<g id="rsw5kh_1_">
	<g>
		<path fill="#FFFFFF" d="M470.307,336.983c-0.49,0.16-0.977,0.438-1.471,0.455c-1.469,0.044-2.941-0.027-4.41-0.028
			c-1.387-0.003-2.764,0.101-4.086,0.559c-0.07,0.025-0.174,0.059-0.195,0.113c-0.344,0.985-1.164,1.002-2.018,1.094
			c-1.211,0.131-2.402,0.451-3.613,0.563c-0.326,0.027-0.855-0.326-1.02-0.646c-0.865-1.667-1.6-3.401-2.465-5.068
			c-1.133-2.189-2.377-4.322-3.52-6.507c-1.872-3.591-3.809-7.151-5.516-10.818c-2.164-4.662-4.107-9.424-6.178-14.13
			c-2.408-5.465-4.846-10.917-7.271-16.373c-0.921-2.061-1.736-4.175-2.807-6.152c-0.697-1.29-1.76-2.385-2.68-3.546
			c-0.145-0.183-0.428-0.258-0.852-0.5c0,0.594-0.049,1.002,0.008,1.396c0.25,1.678,0.463,3.367,0.809,5.025
			c0.754,3.617,1.595,7.216,2.373,10.827c1.35,6.24,2.717,12.477,4.011,18.729c1.077,5.203,2.12,10.416,3.067,15.646
			c0.496,2.736,0.771,5.512,1.115,8.275c0.099,0.784-0.131,1.289-1.127,1.202c-2.219-0.2-4.447-0.357-6.674-0.436
			c-1.296-0.047-2.6,0.152-3.899,0.134c-1.558-0.024-3.112-0.187-4.669-0.238c-1.261-0.041-2.52-0.008-3.916-0.008
			c-1.195-2.333-1.48-4.998-1.469-7.746c0.021-3.669,0-7.342-0.074-11.009c-0.021-1.018-0.367-2.022-0.451-3.043
			c-0.109-1.347-0.105-2.703-0.162-4.056c-0.072-1.763-0.205-3.523-0.225-5.286c-0.025-2.719,0.006-5.439,0.044-8.159
			c0.03-2.023,0.126-4.051,0.175-6.075c0.056-2.367,0.174-4.735,0.111-7.098c-0.064-2.454-0.307-4.903-0.481-7.353
			c-0.085-1.226-0.454-2.5-0.229-3.664c0.264-1.374-0.08-2.638-0.113-3.95c-0.049-1.89-0.064-3.78-0.073-5.669
			c-0.005-0.781-0.012-1.568,0.081-2.341c0.233-1.957,1.484-2.833,3.459-2.754c2.096,0.083,4.199,0.033,6.292-0.067
			c3.245-0.155,6.483-0.469,9.729-0.586c1.668-0.059,3.344,0.176,5.02,0.248c0.814,0.035,1.637-0.067,2.443,0.014
			c1.611,0.163,3.211,0.45,4.822,0.601c0.686,0.064,0.799,0.414,0.834,0.971c0.1,1.552,0.098,3.124,0.365,4.648
			c0.912,5.187,0.508,10.441,0.847,15.657c0.184,2.888-0.229,5.811-0.241,8.72c-0.01,2.582,0.154,5.164,0.256,7.75
			c0.08,2.211,0.17,4.423,0.285,6.633c0.018,0.365,0.178,0.722,0.273,1.093c0.793-0.519,1.559-0.81,2.012-1.358
			c0.613-0.744,1.072-1.646,1.436-2.551c0.453-1.119,0.721-2.311,1.102-3.461c0.916-2.77,1.936-5.51,2.756-8.307
			c0.938-3.219,1.846-6.46,2.514-9.742c0.701-3.451,2.031-6.65,3.213-9.933c1.051-2.915,1.561-6.045,2.082-9.119
			c0.275-1.613,2.377-3.354,3.949-2.875c0.236,0.072,0.531,0.065,0.77-0.005c1.594-0.474,3.211-0.863,4.877-0.646
			c1.318,0.171,1.82,1.201,1.582,2.488c-0.314,1.677-0.438,3.391-0.676,5.083c-0.125,0.867-0.432,1.718-0.469,2.582
			c-0.131,3.324-0.158,6.65-0.283,9.974c-0.053,1.37-0.299,2.731-0.371,4.101c-0.064,1.319-0.014,2.643-0.014,4.062
			c-0.299-0.14-0.559-0.26-1.152-0.537c0.221,0.615,0.266,1.077,0.516,1.37c0.578,0.677,0.746,1.368,0.752,2.28
			c0.029,4.161-0.479,8.304-0.086,12.482c0.217,2.255-0.219,4.569-0.346,6.859c-0.061,1.043-0.129,2.087-0.127,3.132
			c0.002,1.89-0.016,3.784,0.1,5.669c0.24,3.814,0.527,7.624,0.875,11.428c0.102,1.097,0.6,2.161,0.688,3.258
			c0.186,2.292,0.223,4.598,0.32,6.898C470.66,337.103,470.482,337.043,470.307,336.983z"/>
		<path fill="#FFFFFF" d="M248.44,309.853c0.045-0.423,0.154-0.846,0.125-1.263c-0.18-2.447-0.089-4.858,0.266-7.308
			c0.311-2.146,0.03-4.378,0.04-6.571c0.003-0.751,0.162-1.505,0.133-2.254c-0.104-2.667-0.222-5.333-0.402-7.994
			c-0.293-4.298-0.713-8.587-0.933-12.888c-0.103-2.02,0.139-4.055,0.211-6.084c0.047-1.336,0.125-2.674,0.083-4.008
			c-0.037-1.249,0.433-1.796,1.458-2.493c1.384-0.942,2.813-0.843,4.346-0.892c1.354-0.043,2.594,0.159,3.891,0.449
			c1.3,0.291,1.683,1.154,1.817,2.245c0.415,3.413,0.947,6.823,1.141,10.25c0.258,4.591,0.24,9.198,0.344,13.797
			c0.107,4.753,0.706,9.443,1.441,14.142c0.601,3.839,0.698,7.758,1.074,11.639c0.188,1.94,0.527,3.865,0.751,5.805
			c0.25,2.166,0.359,4.353,0.687,6.505c0.384,2.515-0.286,4.99-0.091,7.485c0.052,0.673,0.277,1.334,0.327,2.008
			c0.097,1.355,0.129,2.717,0.176,4.077c0.005,0.141-0.039,0.314-0.125,0.42c-0.746,0.922-2.541,1.163-3.727,0.902
			c-1.128-0.246-2.35-0.138-3.527-0.092c-1.67,0.066-3.337,0.208-5.004,0.339c-0.897,0.072-2.67-0.896-3.128-1.907
			c-0.656-1.449-1.555-2.788-2.287-4.207c-0.431-0.836-0.685-1.766-1.116-2.604c-1.359-2.645-2.707-5.3-4.177-7.884
			c-0.579-1.021-1.529-1.821-2.204-2.799c-0.59-0.853-1.052-1.799-1.539-2.719c-0.939-1.784-1.847-3.585-2.786-5.368
			c-1.758-3.334-3.522-6.662-5.293-9.989c-0.782-1.473-1.316-3.22-2.472-4.294c-0.782-0.73-1.197-1.515-1.591-2.344
			c-0.469-0.988-0.606-2.13-1.028-3.15c-0.463-1.123-1.126-2.16-1.628-3.268c-0.578-1.28-0.991-2.641-1.628-3.889
			c-1.022-1.999-2.112-3.972-3.286-5.886c-0.865-1.407-1.909-2.703-3.065-4.318c0,0.586-0.03,0.861,0.005,1.127
			c0.292,2.196,0.517,4.404,0.918,6.579c0.403,2.193,0.923,4.369,1.5,6.524c1.117,4.172,2.285,8.33,3.478,12.478
			c0.684,2.38,1.511,4.717,2.18,7.098c0.525,1.876,0.874,3.8,1.361,5.686c1.298,5.032,2.638,10.054,3.935,15.085
			c0.18,0.698,0.263,1.433,0.297,2.156c0.054,1.135,0.252,2.17,1.012,3.098c0.304,0.374,0.335,0.994,0.424,1.512
			c0.125,0.745,0.19,1.499,0.29,2.317c-1.641-0.014-3.565,0.373-5.462-0.494c-0.557-0.255-1.35,0.062-2.019-0.017
			c-1.068-0.128-2.114-0.463-3.184-0.545c-1.752-0.136-3.516-0.144-5.274-0.197c-0.996-0.029-1.993-0.027-2.989-0.064
			c-1.243-0.042-1.853-1.059-1.691-2.287c0.12-0.925-0.141-1.898-0.23-2.852c-0.121-1.28-0.282-2.561-0.348-3.844
			c-0.059-1.128,0.008-2.265-0.019-3.397c-0.143-5.882-1.508-11.688-0.799-17.639c0.271-2.269-0.367-4.63-0.447-6.952
			c-0.089-2.589,0.02-5.181-0.021-7.771c-0.03-2.04-0.149-4.078-0.234-6.118c-0.032-0.763-0.057-1.527-0.131-2.286
			c-0.229-2.35-0.874-4.742-0.623-7.037c0.299-2.713-0.425-5.278-0.392-7.923c0.014-1.194-0.274-2.387-0.334-3.587
			c-0.054-1.088-0.061-2.192,0.053-3.273c0.161-1.523,1.478-1.805,2.621-1.95c1.616-0.205,3.264-0.167,4.899-0.188
			c0.759-0.011,1.522,0.125,2.279,0.115c2.78-0.039,5.562-0.216,8.337-0.132c1.609,0.049,3.218,0.448,4.807,0.782
			c1.08,0.228,1.771,0.931,2.07,2.047c1.1,4.097,2.209,8.191,3.372,12.27c0.712,2.495,1.542,4.958,2.295,7.44
			c0.298,0.983,0.49,1.998,0.81,2.973c1.245,3.802,2.52,7.594,3.787,11.388c0.973,2.921,1.855,5.877,2.962,8.747
			c0.748,1.939,1.813,3.757,2.737,5.626C248.111,309.91,248.277,309.881,248.44,309.853z"/>
		<path fill="#FFFFFF" d="M670.227,333.438c-0.541,0.078-1.316,0.238-2.096,0.294c-2.295,0.164-4.6,0.224-6.889,0.441
			c-3.193,0.302-6.367,0.894-9.562,1.026c-3.959,0.165-7.932-0.068-11.898-0.023c-2.709,0.032-5.422,0.246-8.129,0.379
			c-2.324,0.116-3.992,0.431-5.432-2.356c-0.945-1.824-2.275-3.445-3.309-5.229c-0.787-1.354-1.35-2.835-2.061-4.234
			c-1.186-2.335-2.512-4.604-3.594-6.983c-1.512-3.332-2.811-6.76-4.275-10.114c-1-2.299-2.135-4.54-3.189-6.816
			c-0.348-0.754-0.605-1.546-0.961-2.297c-1.051-2.234-2.777-4.147-3.154-6.709c-0.051-0.349-0.439-0.637-0.539-0.989
			c-0.115-0.409-0.275-1.015-0.078-1.264c1.076-1.359,2.248-2.644,3.41-3.93c0.383-0.424,0.881-0.745,1.262-1.169
			c2.982-3.337,5.967-6.672,8.912-10.042c1.965-2.245,3.795-4.603,5.809-6.801c2.443-2.672,4.969-5.276,7.564-7.802
			c0.621-0.605,1.623-0.929,2.512-1.136c1.727-0.406,3.486-0.793,5.248-0.899c1.797-0.108,3.611,0.205,5.416,0.198
			c1.918-0.008,3.836-0.233,5.756-0.262c2.381-0.035,4.766,0.021,7.152,0.078c0.23,0.006,0.521,0.242,0.674,0.45
			c2.17,2.889,4.328,5.782,6.455,8.699c0.301,0.414,0.352,1.005,0.633,1.441c2.115,3.267,4.223,6.538,6.416,9.752
			c0.631,0.924,1.428,1.806,2.332,2.457c1.26,0.914,1.559,2.356,2.303,3.546c0.123,0.2-0.082,0.581-0.068,0.874
			c0.191,3.9-1.387,7.495-1.951,11.267c-0.436,2.937-1.064,5.849-1.621,8.768c-0.305,1.561-0.828,3.096-0.936,4.666
			c-0.32,4.51-1.379,8.955-1.123,13.52c0.066,1.171-0.227,2.36-0.221,3.54c0.01,1.643-0.625,3.312,0.223,4.94
			c0.123,0.227-0.166,0.679-0.291,1.02C670.744,332.217,670.539,332.682,670.227,333.438z M657.725,292.213
			c0.043-0.301,0.234-0.699,0.119-0.971c-0.568-1.325-1.164-2.642-1.844-3.914c-0.773-1.445-1.768-2.78-2.449-4.264
			c-1.213-2.662-2.258-5.399-3.391-8.099c-0.156-0.375-0.385-1.005-0.615-1.022c-1.598-0.113-1.105-1.113-0.969-2.012
			c0.041-0.28,0.012-0.621-0.117-0.87c-0.836-1.67-1.73-3.312-2.557-4.986c-0.283-0.58-0.672-0.746-1.193-0.473
			c-2.463,1.288-4.938,2.557-7.357,3.925c-2.111,1.197-4.143,2.537-6.232,3.775c-1.203,0.71-2.123,1.47-2.199,3.074
			c-0.074,1.544-0.51,3.072-0.783,4.609c-0.094,0.52-0.238,1.04-0.266,1.564c-0.131,2.39-0.246,4.782-0.32,7.174
			c-0.012,0.333,0.342,0.675,0.346,1.016c0.006,0.689,0.561,1.511-0.406,2.038c-0.17,0.094-0.291,0.437-0.287,0.664
			c0.029,2.17,0.082,4.337,0.143,6.508c0.037,1.332,0.127,2.661,0.15,3.991c0.037,2.125,0.133,4.227,1.672,5.923
			c0.57,0.629,1.146,1.255,1.711,1.891c1.404,1.578,2.742,3.221,4.219,4.728c1.729,1.766,3.57,3.415,5.369,5.109
			c0.584,0.55,1.186,1.078,1.891,1.722c0.941-1.146,1.988-2.296,2.891-3.55c2.857-3.965,5.652-7.978,8.482-11.959
			c1.191-1.676,2.424-3.323,3.627-4.991c0.133-0.182,0.199-0.411,0.314-0.607c0.49-0.85,0.945-1.723,1.494-2.537
			c0.57-0.85,1.273-1.609,1.82-2.469c0.16-0.246,0.104-0.785-0.066-1.061c-0.738-1.203-1.535-2.373-2.363-3.519
			C658.402,292.401,658.016,292.346,657.725,292.213z"/>
		<path fill="#FFFFFF" d="M187.204,337.134c-3.433,1.64-6.909,0.858-10.299,0.963c-3.377,0.104-6.761-0.052-10.143-0.04
			c-3.283,0.012-6.567,0.078-9.85,0.146c-1.437,0.031-2.66-0.37-3.44-1.632c-0.985-1.598-2.55-2.892-2.637-4.976
			c-0.009-0.189-0.214-0.413-0.386-0.551c-2.69-2.152-4.02-5.244-5.673-8.119c-1.172-2.036-2.312-4.103-3.614-6.055
			c-1.848-2.771-3.881-5.421-5.745-8.185c-1.363-2.019-2.662-4.09-3.844-6.217c-1.143-2.059-1.254-4.215-0.326-6.464
			c0.977-2.363,1.742-4.812,2.635-7.211c0.383-1.027,0.937-1.995,1.271-3.034c1.101-3.407,2.102-6.845,3.213-10.25
			c0.973-2.98,2.045-5.93,3.067-8.895c0.323-0.937,0.646-1.874,0.935-2.82c0.604-1.976,1.745-3.227,3.869-3.82
			c2.025-0.566,4.03-0.535,6.063-0.641c2.74-0.143,5.472-0.467,8.212-0.542c2.416-0.066,4.838,0.102,7.257,0.174
			c0.101,0.002,0.223,0.049,0.297,0.117c2.387,2.204,5.515,2.997,8.33,4.386c4.33,2.137,8.656,4.28,12.98,6.43
			c0.852,0.424,1.672,0.915,2.526,1.34c2.189,1.092,2.891,2.701,2.592,5.179c-0.439,3.638-0.708,7.296-1.037,10.948
			c-0.418,4.607-0.763,9.222-1.251,13.822c-0.404,3.793-0.916,7.576-1.48,11.348c-0.53,3.553-1.287,7.072-1.771,10.63
			c-0.359,2.646-0.36,5.343-0.675,7.996C188.04,333.218,187.555,335.247,187.204,337.134z M153.911,308.635
			c0.479,0.963,0.873,1.916,1.402,2.786c0.89,1.465,1.938,2.835,2.781,4.322c1.045,1.842,1.901,3.792,2.938,5.64
			c0.421,0.75,0.984,1.736,1.686,1.951c1.472,0.449,3.081,0.445,4.631,0.648c0.73,0.095,1.208-0.039,1.472-0.86
			c0.335-1.038,0.775-2.063,1.311-3.014c2.176-3.864,4.309-7.756,6.648-11.521c1.424-2.294,3.185-4.382,4.814-6.546
			c1.546-2.053,1.562-2.05,0.016-4.222c-1.053-1.477-2.045-3.007-3.202-4.399c-1.941-2.333-4.043-4.535-5.977-6.875
			c-1.711-2.067-3.267-4.262-4.925-6.374c-1.031-1.314-2.082-2.618-3.199-3.858c-1.108-1.229-2.309-2.375-3.559-3.651
			c-0.355,0.506-0.594,0.76-0.737,1.061c-0.54,1.133-1.011,2.3-1.583,3.415c-0.572,1.113-1.293,2.15-1.846,3.271
			c-1.229,2.496-2.396,5.021-3.583,7.536c-0.75,1.589-1.545,3.163-2.222,4.782c-0.898,2.149-1.671,4.349-2.562,6.504
			c-0.286,0.689-0.203,1.146,0.238,1.763c1.525,2.125,2.94,4.328,4.421,6.481C153.187,307.926,153.609,308.301,153.911,308.635z"/>
		<path fill="#FFFFFF" d="M90.941,289.082c1.451-1.546,2.613-2.988,3.211-4.864c0.317-1,0.794-1.985,1.376-2.857
			c2.241-3.357,3.49-7.194,5.3-10.757c0.804-1.585,1.429-3.258,2.193-4.865c0.507-1.069,1.133-2.082,1.661-3.142
			c0.121-0.243-0.018-0.608,0.089-0.865c0.256-0.617,0.531-1.239,0.901-1.791c0.497-0.74,1.091-1.415,1.643-2.119
			c0.078,0.009,0.201-0.001,0.215,0.031c0.46,1.124,1.373,1.413,2.489,1.521c0.375,0.036,0.89,0.5,1.02,0.88
			c0.847,2.443,1.571,4.888,1.897,7.506c0.399,3.2,1.46,6.313,2.158,9.481c0.451,2.049,0.713,4.142,1.154,6.194
			c0.787,3.659,1.584,7.318,2.494,10.95c0.799,3.189,1.829,6.323,2.618,9.517c0.553,2.239,0.85,4.542,1.299,6.809
			c0.324,1.642,0.786,3.26,1.05,4.908c0.265,1.646,0.365,3.318,0.53,4.981c0.28,2.805,0.519,5.614,0.859,8.411
			c0.057,0.472,0.54,0.892,0.883,1.425c-1.264,0.903-0.249,2.322-0.317,3.602c-0.023,0.433,0.092,0.885,0.214,1.309
			c0.257,0.896,0.097,1.482-0.942,1.667c-0.241,0.043-0.424,0.4-0.683,0.665c-1.174-1.127-2.115,0.281-3.22,0.308
			c-1.851,0.037-3.698,0.21-5.549,0.281c-0.184,0.008-0.381-0.278-0.569-0.103c-0.893,0.124-1.783,0.297-2.681,0.357
			c-0.76,0.052-1.533,0.021-2.293-0.057c-0.914-0.092-1.822-0.247-2.723-0.426c-0.219-0.043-0.452-0.262-0.582-0.462
			c-0.299-0.463-0.539-0.963-0.879-1.587c0-0.822,0.036-1.88-0.007-2.936c-0.106-2.616-0.341-5.23-0.353-7.848
			c-0.012-2.503,0.217-5.008,0.291-7.511c0.049-1.646-0.019-3.298,0.034-4.944c0.014-0.445,0.409-0.885,0.405-1.325
			c-0.014-2.773-0.093-5.549-0.15-8.324c-0.004-0.152-0.052-0.307-0.035-0.456c0.302-2.839,0.615-5.676,0.912-8.515
			c0.069-0.644,0.072-1.296,0.121-1.942c0.065-0.865,0.151-1.729,0.217-2.596c0.091-1.18,0.173-2.362,0.256-3.542
			c-0.175-0.071-0.35-0.142-0.525-0.212c-0.698,0.855-1.396,1.711-2.095,2.565c-0.332,0.405-0.681,0.797-0.996,1.215
			c-0.344,0.455-0.651,0.937-0.98,1.403c-0.506,0.719-0.997,1.451-1.545,2.136c-0.094,0.119-0.453-0.009-0.665,0.055
			c-0.346,0.106-0.974,0.385-0.965,0.407c0.572,1.619-0.928,2.302-1.566,3.303c-0.997,1.565-2.23,2.981-3.405,4.429
			c-0.477,0.589-0.998,1.176-1.604,1.618c-1.102,0.796-1.964,0.425-3.156-0.354c-1.039-0.68-1.387-1.554-1.75-2.577
			c-0.101-0.287-0.632-0.393-0.835-0.676c-1.036-1.434-2.411-2.627-2.997-4.395c-0.193-0.58-0.792-1.014-1.094-1.573
			c-0.371-0.69-0.571-1.474-0.948-2.161c-0.312-0.571-0.87-1.013-1.15-1.592c-0.758-1.562-2.202-2.544-3.168-3.918
			c-0.716-1.018-1.336-2.104-2.069-3.11c-0.595-0.816-1.239-1.612-1.96-2.317c-1.22-1.192-2.516-2.306-3.779-3.453
			c-0.125,0.047-0.247,0.092-0.37,0.137c0.141,0.901,0.295,1.8,0.423,2.703c0.312,2.227,0.56,4.465,0.937,6.681
			c0.286,1.679,0.753,3.324,1.101,4.994c0.23,1.101,0.33,2.23,0.599,3.32c0.462,1.881,1.012,3.74,1.521,5.612
			c0.562,2.058,1.098,4.125,1.689,6.175c0.325,1.123,0.779,2.21,1.092,3.336c0.223,0.803,0.238,1.665,0.468,2.466
			c0.376,1.317,0.959,2.582,1.263,3.914c0.775,3.389,1.476,6.798,2.145,10.212c0.585,2.992,1.052,6.008,1.64,9
			c0.183,0.93,0.625,1.808,0.88,2.727c0.165,0.595,0.208,1.223,0.347,2.112c-1.472-0.276-2.65-0.508-3.833-0.717
			c-0.333-0.059-0.677-0.052-1.016-0.073c-0.83-0.058-1.659-0.124-2.491-0.172c-2.085-0.124-4.168-0.294-6.256-0.338
			c-1.899-0.04-3.802,0.125-5.698,0.062c-0.629-0.023-1.231-0.516-1.867-0.734c-0.781-0.268-0.821-0.814-0.788-1.523
			c0.055-1.167,0.006-2.34-0.025-3.512c-0.053-1.943-0.055-3.891-0.216-5.825c-0.148-1.781-0.591-3.543-0.687-5.323
			c-0.096-1.748,0.059-3.514,0.149-5.267c0.081-1.618,0.243-3.235,0.324-4.855c0.024-0.485-0.149-0.979-0.155-1.471
			c-0.023-2.063,0.072-4.131-0.043-6.189c-0.125-2.253-0.427-4.495-0.665-6.74c-0.552-5.244-1.168-10.482-1.637-15.734
			c-0.2-2.231-0.095-4.49-0.131-6.737c-0.039-2.473,0.049-4.959-0.169-7.417c-0.16-1.792-0.698-3.556-1.129-5.316
			c-0.195-0.796,0.362-1.749,1.15-1.717c1.625,0.07,3.246,0.21,4.872,0.246c3.425,0.072,6.851,0.109,10.277,0.127
			c1.35,0.006,2.704-0.031,4.052-0.126c2.006-0.14,2.729,0.253,3.482,2.347c0.566,1.572,0.948,3.21,1.423,4.816
			c1.497,5.052,2.456,10.279,4.693,15.088C88.479,285.144,89.745,287.009,90.941,289.082z"/>
		<path fill="#FFFFFF" d="M597.801,331.545c-1.326,0.469-2.471,0.869-3.613,1.277c-0.137,0.051-0.264,0.136-0.396,0.201
			c-2.504,1.21-5.002,2.44-7.52,3.618c-1.238,0.579-2.174,0.305-3.195-0.617c-2.846-2.566-4.682-5.919-7.029-8.872
			c-2.301-2.895-4.795-5.634-7.232-8.42c-0.773-0.887-1.898-1.578-2.365-2.59c-0.445-0.977-1.078-1.679-1.785-2.362
			c-1.941-1.873-3.93-3.698-5.902-5.541c-0.273-0.256-0.555-0.509-0.826-0.756c-1.6,0.375-3.244,0.767-4.889,1.146
			c-0.684,0.158-1.137,0.362-1.143,1.264c-0.006,0.977-0.398,1.944-0.492,2.929c-0.125,1.322-0.125,2.655-0.178,3.984
			c-0.074,1.861-0.178,3.724-0.205,5.585c-0.035,2.165-0.039,4.333,0.01,6.497c0.041,1.882,0.232,3.763,0.246,5.645
			c0.012,1.243-1.143,2.037-2.52,1.982c-2.539-0.104-5.08-0.174-7.619-0.22c-0.48-0.007-0.969,0.165-1.736,0.308
			c-0.18-1.16-0.467-2.252-0.506-3.354c-0.143-4.04-0.23-8.085-0.295-12.132c-0.045-3.026-0.014-6.058-0.021-9.089
			c-0.002-2.002-0.062-4.009,0-6.009c0.104-3.203,0.311-6.404,0.439-9.604c0.105-2.631,0.125-5.264,0.256-7.893
			c0.08-1.641,0.314-3.274,0.441-4.913c0.049-0.667-0.045-1.343-0.01-2.011c0.121-2.4,0.287-4.799,0.404-7.201
			c0.061-1.291,0.025-2.585,0.086-3.877c0.123-2.562,0.307-5.121,0.408-7.685c0.047-1.156-0.072-2.32-0.061-3.479
			c0.006-0.811,0.42-1.229,1.291-1.244c1.375-0.025,2.758-0.07,4.123-0.218c1.604-0.174,3.189-0.499,4.787-0.692
			c1.09-0.13,2.193-0.117,3.283-0.224c2.828-0.276,5.639,0.083,8.455,0.167c2.355,0.07,4.725-0.407,7.092-0.594
			c0.938-0.073,1.879-0.006,2.824-0.008c1.398-0.003,2.799-0.015,4.199-0.015c0.145,0,0.34,0.002,0.432,0.089
			c0.996,0.909,2.145,1.713,2.924,2.781c1.34,1.839,2.469,3.838,3.656,5.786c0.396,0.642,0.734,1.319,1.049,2.003
			c0.742,1.62,1.389,3.287,2.197,4.873c1.004,1.962,1.988,3.892,2.322,6.127c0.148,0.974,0.777,1.879,1.215,2.801
			c0.303,0.631,0.488,1.165,0.027,1.878c-0.902,1.405-1.865,2.704-3.105,3.868c-3.111,2.926-6.088,5.997-9.104,9.023
			c-0.762,0.763-1.213,1.643-0.66,2.736c0.455,0.906,0.771,1.939,1.42,2.68c1.422,1.619,2.418,3.546,3.742,5.172
			c1.512,1.864,2.564,3.961,3.83,5.933c1.297,2.029,2.539,4.038,4.164,5.856c1.086,1.218,1.699,2.869,2.471,4.357
			c0.957,1.851,1.854,3.736,2.795,5.598C596.512,329.145,597.076,330.178,597.801,331.545z M551.311,290.359
			c1.156,0,2.033,0.149,2.838-0.031c1.959-0.438,3.887-1.017,5.82-1.566c2.785-0.791,5.576-1.551,8.328-2.434
			c1.328-0.425,1.547-1.124,1.039-2.349c-0.043-0.105-0.049-0.225-0.076-0.336c-0.785-3.117-1.561-6.236-2.381-9.343
			c-0.053-0.204-0.428-0.441-0.668-0.46c-2.619-0.201-5.246-0.44-7.871-0.503c-1.582-0.038-3.172,0.218-4.984,0.359
			C552.678,279.213,551.99,284.81,551.311,290.359z"/>
		<path fill="#FFFFFF" d="M725.824,329.879c-0.109-0.243-0.197-0.448-0.311-0.705c-0.092,0.113-0.16,0.191-0.221,0.273
			c-0.998,1.298-1.91,2.676-3.029,3.855c-0.463,0.484-1.359,0.614-2.088,0.77c-0.66,0.142-1.404-0.048-1.854,0.694
			c-0.057,0.096-0.414,0.128-0.543,0.046c-1.936-1.252-3.918-0.04-5.869-0.068c-2.895-0.038-5.791,0.335-8.688,0.526
			c-0.725,0.048-1.51-0.093-2.164,0.14c-1.449,0.509-2.336-0.316-3.156-1.182c-1.391-1.468-2.656-3.058-4.021-4.554
			c-0.996-1.093-2.113-2.077-3.1-3.179c-2.416-2.686-4.881-5.304-6.629-8.541c-1.193-2.203-2.85-4.153-4.236-6.256
			c-0.475-0.723-0.777-1.56-1.111-2.363c-0.402-0.972-0.82-1.946-1.107-2.955c-0.213-0.746,0.027-1.344,0.957-1.498
			c0.328-0.055,0.615-0.38,0.729-0.457c0.479,0.069,0.805,0.199,1.094,0.146c2.654-0.482,5.312-0.968,7.951-1.52
			c1.174-0.245,2.297-0.767,3.471-0.957c1.895-0.308,2.318,0.127,3.014,1.914c0.477,1.228,1.258,2.334,1.871,3.513
			c1.115,2.132,2.205,4.273,3.221,6.244c3.947-0.755,7.742-1.429,11.504-2.229c1.426-0.302,2.781-0.908,4.174-1.357
			c0.729-0.232,1.689-0.186,1.652-1.319c-0.016-0.43-0.043-1.028-0.309-1.252c-1.777-1.486-3.674-2.833-5.428-4.345
			c-1.646-1.417-3.189-2.959-4.738-4.486c-2.279-2.253-4.551-4.515-6.77-6.826c-0.926-0.964-1.705-2.064-2.557-3.095
			c-0.961-1.16-1.961-2.287-2.889-3.474c-0.961-1.231-1.814-2.55-2.791-3.769c-0.561-0.698-1.4-1.191-1.883-1.928
			c-0.482-0.738-0.65-1.62,0.076-2.463c2.924-3.388,6.357-6.239,9.666-9.224c1.402-1.266,2.68-2.67,4.012-4.014
			c1.236-1.249,2.504-2.471,3.695-3.762c0.877-0.948,1.68-1.969,2.469-2.993c0.971-1.261,2.264-2.062,3.799-2.054
			c3.184,0.018,6.367,0.182,9.543,0.402c1.955,0.136,3.898,0.468,5.84,0.751c2.182,0.319,3.592,1.718,4.889,3.389
			c1.443,1.854,3.074,3.559,4.609,5.34c0.664,0.772,1.414,1.508,1.908,2.383c1.16,2.059,2.729,3.907,3.16,6.364
			c0.16,0.916-0.266,1.677-1.701,2.682c-1.221,0.856-2.418,1.743-3.656,2.573c-1.17,0.787-2.381,1.51-3.568,2.273
			c-0.738,0.476-1.312,0.336-1.854-0.349c-1.115-1.404-2.199-2.841-3.428-4.137c-1.52-1.599-3.199-3.041-4.75-4.609
			c-0.895-0.906-1.678-1.924-2.5-2.902c-0.137-0.167-0.184-0.411-0.322-0.581c-1.002-1.248-1.039-1.29-2.363-0.347
			c-3.951,2.819-7.875,5.68-11.814,8.521c-0.275,0.199-0.68,0.291-0.85,0.548c-0.287,0.434-0.742,1.119-0.586,1.418
			c0.5,0.966,1.15,1.899,1.914,2.672c1.717,1.73,3.5,3.399,5.324,5.011c0.91,0.8,1.998,1.39,2.973,2.121
			c1.057,0.795,2.07,1.648,3.107,2.468c1.105,0.873,2.189,1.78,3.342,2.591c1.982,1.396,3.965,2.755,5.701,4.507
			c1.479,1.497,3.297,2.674,5.021,3.913c0.818,0.584,1.846,0.89,2.643,1.5c0.525,0.402,0.779,1.146,1.219,1.686
			c0.344,0.421,0.762,1.057,1.18,1.086c1.375,0.101,1.164,1.486,1.869,2.114c0.186,0.166-0.074,1.092-0.365,1.503
			c-2.787,3.959-5.623,7.881-8.443,11.814c-0.135,0.186-0.252,0.386-0.398,0.564c-1.172,1.42-2.359,2.824-3.51,4.26
			c-0.193,0.242-0.217,0.617-0.359,0.911c-0.189,0.396-0.385,0.797-0.645,1.151C726.551,329.141,726.203,329.463,725.824,329.879z"
			/>
		<path fill="#FFFFFF" d="M381.875,337.012c-0.595-1.401-0.178-2.417,0.179-3.584c0.55-1.8,0.616-3.759,0.789-5.658
			c0.21-2.287,0.175-4.603,0.503-6.866c0.458-3.175-0.138-6.267-0.417-9.386c-0.08-0.902-0.34-1.79-0.524-2.683
			c-0.34-1.65-1.749-2.517-2.746-3.676c-0.188-0.219-0.911-0.345-0.994-0.23c-0.78,1.072-1.995,1.104-3.094,1.406
			c-3.012,0.827-6.016,1.685-9.047,2.442c-2.164,0.541-4.362,0.937-6.761,1.442c1.588,3.92,3.145,7.601,4.564,11.331
			c0.675,1.778,1.04,3.671,1.641,5.479c0.329,0.995,0.824,1.938,1.301,2.878c0.834,1.648,1.727,3.266,2.568,4.912
			c0.281,0.556,0.896,0.865,0.778,1.737c-0.151,1.113-0.217,1.387-1.322,1.251c-1.442-0.177-2.877-0.524-4.322-0.56
			c-1.393-0.035-2.793,0.306-4.194,0.347c-1.231,0.034-2.469-0.145-3.704-0.175c-2.039-0.048-4.079-0.047-6.116-0.079
			c-0.688-0.012-1.373-0.103-2.06-0.087c-1.221,0.025-2.442,0.174-3.66,0.141c-0.93-0.025-1.854-0.253-3.073-0.434
			c0.468-1.153,0.925-2.047,1.191-2.994c0.281-1.003,0.369-2.06,0.563-3.09c0.625-3.274,1.265-6.548,1.883-9.824
			c0.147-0.775,0.248-1.563,0.352-2.35c0.448-3.345,0.899-6.689,1.33-10.038c0.582-4.507,1.067-9.026,1.747-13.518
			c0.402-2.658,1.133-5.263,1.655-7.902c0.325-1.646,0.376-3.36,0.831-4.965c0.954-3.381,0.558-6.891,1.16-10.288
			c0.599-3.374,1.393-6.715,2.086-10.073c0.096-0.464,0.113-0.946,0.18-1.544c0.76-0.581,1.606-1.291,2.522-1.897
			c0.391-0.26,0.933-0.444,1.396-0.423c1.127,0.056,2.248,0.297,3.376,0.373c0.832,0.057,1.676-0.085,2.512-0.043
			c3.928,0.196,7.857,0.397,11.782,0.666c0.859,0.059,1.803,0.229,2.513,0.665c0.519,0.318,0.851,1.121,1.032,1.771
			c0.786,2.818,1.49,5.658,2.217,8.492c0.681,2.664,1.398,5.32,2.015,7.998c0.658,2.86,1.183,5.749,1.83,8.612
			c0.459,2.039,0.792,4.147,1.576,6.063c2.639,6.425,4.045,13.21,6.05,19.82c0.365,1.203,0.849,2.372,1.169,3.586
			c0.568,2.158,1.003,4.352,1.587,6.505c0.68,2.506,1.497,4.973,2.189,7.476c0.519,1.874,0.976,3.767,1.374,5.67
			c0.246,1.164-0.905,2.229-2.184,2.06c-1.05-0.139-2.073-0.441-3.12-0.584c-3.439-0.468-6.891-0.303-10.341-0.178
			C383.7,337.039,382.756,337.012,381.875,337.012z M378.7,298.682c-0.054-0.927-0.066-2.047-0.195-3.151
			c-0.307-2.619-0.7-5.224-1.003-7.843c-0.258-2.225-0.43-4.46-0.66-6.689c-0.099-0.941-0.529-1.955-0.297-2.793
			c0.227-0.812,0.11-1.249-0.396-1.773c-0.874-0.911-1.037-2.081-0.891-3.236c0.204-1.61-0.839-2.667-1.408-4.164
			c-0.593,0.658-1.147,1.071-1.432,1.624c-0.819,1.588-1.508,3.244-2.287,4.854c-1.264,2.612-2.569,5.203-3.835,7.812
			c-1.181,2.439-2.329,4.895-3.496,7.34c-0.36,0.757-0.074,1.188,0.641,1.523c3.86,1.803,7.705,3.638,11.567,5.435
			c0.43,0.201,0.942,0.221,1.408,0.354C377.193,298.201,377.964,298.453,378.7,298.682z"/>
		<path fill="#FFFFFF" d="M526.109,314.221c0.18,1.014,0.461,1.834,0.438,2.646c-0.045,1.476-0.473,2.96-0.373,4.415
			c0.162,2.315,0.627,4.612,0.955,6.916c0.115,0.793,0.232,1.586,0.297,2.382c0.137,1.689,0.316,3.381,0.33,5.072
			c0.012,1.09-0.561,1.388-1.658,1.271c-3.07-0.325-6.143-0.655-9.223-0.889c-0.979-0.074-1.982,0.147-2.973,0.238
			c-2.408,0.226-4.811,0.535-7.223,0.658c-2.354,0.119-4.715,0.031-7.076,0.065c-2.02,0.028-4.041,0.124-6.061,0.145
			c-2.27,0.025-4.545,0.082-6.809-0.025c-2.641-0.125-2.717-0.181-3.268-2.923c-0.357-1.775-0.572-3.604-0.627-5.413
			c-0.211-6.964-0.355-13.931-0.473-20.896c-0.064-3.703,0.037-7.412-0.043-11.115c-0.074-3.254-0.324-6.505-0.451-9.758
			c-0.068-1.715-0.049-3.431-0.061-5.146c-0.02-2.935-0.047-5.87-0.039-8.804c0.006-2.912,0.088-5.822,0.062-8.733
			c-0.004-0.537-0.627-1.125-0.523-1.596c0.268-1.243-0.266-2.659,0.795-3.743c0.307-0.309,0.467-0.754,0.693-1.134
			c4.115-0.136,8.266-0.191,12.402-0.462c1.26-0.083,2.457-0.226,3.75-0.077c1.543,0.177,3.146-0.268,4.727-0.297
			c3.266-0.059,6.531-0.04,9.799-0.009c1.24,0.012,2.48,0.195,3.719,0.196c0.551,0,1.139-0.179,1.645-0.415
			c1.467-0.684,2.838-0.103,4.203,0.291c0.266,0.076,0.498,0.692,0.527,1.074c0.166,2.245,0.314,4.495,0.371,6.744
			c0.062,2.455-0.002,4.913,0.021,7.369c0.021,2.324,0.109,4.646,0.125,6.97c0.002,0.678-0.803,1.341-0.049,2.055
			c0.016,0.019-0.125,0.303-0.229,0.333c-0.162,0.046-0.479,0.037-0.52-0.048c-0.604-1.292-1.969-1.116-2.998-1.513
			c-2.186-0.847-4.455-1.479-6.645-2.313c-3.273-1.246-6.527-2.563-9.766-3.903c-1.963-0.812-3.865-1.782-5.838-2.575
			c-1.541-0.618-3.148-1.072-4.787-1.62c-0.105,1.028-0.303,2.118-0.312,3.208c-0.025,3.364,0.088,6.728,0.018,10.09
			c-0.047,2.253-0.314,4.502-0.482,6.755c-0.02,0.26-0.025,0.522-0.053,1.006c2.344-0.601,4.559-1.175,6.777-1.733
			c2.314-0.581,4.629-1.159,6.955-1.709c0.943-0.225,1.908-0.392,2.865-0.559c1.064-0.185,1.623,0.698,1.436,2.312
			c0.279-0.09,0.553-0.178,0.688-0.224c0,3.073-0.002,6.114,0.004,9.153c0.002,0.886,0.023,1.768,0.02,2.649
			c-0.004,1.028,0.018,1.992,0.621,2.952c0.367,0.585,0.25,1.476,0.367,2.333c-3.146,0.731-6.279,0.129-9.381-0.604
			c-1.682-0.397-3.289-1.082-4.949-1.568c-1.375-0.405-1.928,0.023-2.312,1.426c-1.203,4.411-1.969,8.888-2.277,13.448
			c-0.072,1.052-0.371,2.094-0.398,3.144c-0.018,0.698-0.543,1.707,0.719,1.99c-0.129,0.464-0.262,0.927-0.451,1.607
			c0.373,0,0.885,0.099,1.346-0.016c3.143-0.789,6.285-1.586,9.404-2.462c1.225-0.343,2.391-0.896,3.588-1.342
			c1.709-0.633,3.424-1.255,5.135-1.884c2.646-0.973,5.326-1.84,7.748-3.34c0.867-0.54,1.729-1.148,2.682-1.482
			C524.006,314.456,525.109,314.397,526.109,314.221z"/>
		<path fill="#FFFFFF" d="M331.851,282.545c-1.649-1.698-3.558-1.413-5.346-1.609c-0.11-0.012-0.248-0.024-0.321-0.092
			c-1.564-1.465-3.656-1.121-5.498-1.634c-2.342-0.652-4.644-1.45-6.958-2.2c-2.349-0.762-4.691-1.544-7.316-2.407
			c0.079,1.287,0.17,2.384,0.204,3.483c0.029,0.932-0.026,1.866-0.011,2.798c0.016,0.87,0.029,1.746,0.125,2.608
			c0.328,2.961,0.692,5.917,1.042,8.875c0.004,0.038,0.002,0.076,0.016,0.113c0.523,1.518,0.165,3.107,0.379,4.643
			c0.092,0.658,0.608,1.255,0.693,1.912c0.309,2.388,0.481,4.792,0.778,7.183c0.115,0.923,0.423,1.825,0.646,2.737
			c0.351,1.435,0.766,2.857,1.041,4.307c0.354,1.866,0.561,3.762,0.896,5.631c0.304,1.688,0.828,3.347,1.013,5.045
			c0.241,2.197,0.287,4.419,0.333,6.635c0.034,1.657-0.099,3.316-0.095,4.976c0.005,1.645-0.94,2.653-2.588,2.564
			c-1.053-0.057-2.101-0.232-3.152-0.352c-0.111-0.013-0.226-0.001-0.341-0.002c-2.53-0.035-5.063-0.116-7.592-0.091
			c-2.126,0.025-4.25,0.186-6.375,0.258c-1.022,0.035-2.045,0.006-3.392,0.006c0.267-1.438,0.504-2.74,0.753-4.041
			c0.05-0.259,0.243-0.528,0.202-0.766c-0.408-2.424,0.695-4.643,0.91-6.979c0.323-3.493,0.704-6.979,1.089-10.467
			c0.058-0.516,0.352-1.007,0.401-1.521c0.273-2.841,0.429-5.696,0.769-8.528c0.486-4.062,1.058-8.11,1.665-12.154
			c0.628-4.198,1.444-8.368,0.922-12.658c-0.159-1.312-0.024-2.658-0.024-4.207c-2.497,0.976-4.906,1.906-7.304,2.859
			c-0.889,0.353-1.733,0.825-2.636,1.129c-2.499,0.843-5.03,1.586-7.521,2.453c-0.811,0.282-1.501,0.893-2.298,1.229
			c-2.039,0.858-3.26,0.103-3.127-2.122c0.166-2.784-0.127-5.513-0.369-8.271c-0.295-3.373-0.343-6.77-0.518-10.154
			c-0.038-0.719-0.157-1.436-0.242-2.151c-0.22-1.868,0.785-2.811,2.694-2.538c0.175,0.025,0.363-0.047,0.546-0.08
			c3.416-0.626,6.788,0.074,10.177,0.312c1.484,0.103,3.055-0.226,4.45,0.148c1.285,0.345,2.469-0.021,3.7,0.096
			c2.17,0.203,4.379,0.041,6.571-0.019c3.351-0.092,6.701-0.226,10.051-0.344c1.891-0.065,3.781-0.207,5.668-0.184
			c3.285,0.04,6.569,0.207,9.854,0.265c1.169,0.02,2.347-0.225,3.512-0.161c1.045,0.059,2.116,0.274,3.088,0.646
			c0.283,0.109,0.33,0.988,0.378,1.521c0.046,0.503-0.049,1.02-0.086,1.529c-0.12,1.675-0.27,3.347-0.354,5.024
			c-0.097,1.902-0.524,3.899-0.097,5.685c0.477,1.991,0.385,3.873,0.136,5.787C332.855,280.294,332.312,281.267,331.851,282.545z"/>
		<path fill="#FFFFFF" d="M462.197,244.751c-0.197,0.246-0.398,0.747-0.693,0.808c-0.955,0.199-1.607,1.037-2.912,0.653
			c-1.461-0.431-3.172-0.028-4.771,0.034c-0.684,0.026-1.367,0.119-2.051,0.169c-2.482,0.183-4.965,0.381-7.451,0.531
			c-1.558,0.095-3.129,0.061-4.686,0.167c-3.184,0.217-6.361,0.489-9.541,0.741c-1,0.079-1.963,0.039-2.362-1.106
			c-0.331-0.953,0.165-2.12,1.139-2.743c1.284-0.818,2.656-1.518,3.844-2.453c0.722-0.563,1.262-1.422,1.707-2.243
			c0.717-1.321,1.163-1.643,2.62-1.565c0.362,0.021,0.741-0.096,1.102-0.195c1.238-0.344,2.459-0.769,3.713-1.034
			c0.516-0.109,1.1,0.11,1.652,0.182c0.406,0.053,0.824,0.198,1.221,0.149c2.828-0.36,5.658-0.728,8.479-1.159
			c1.412-0.215,2.812-0.539,4.205-0.864c1.525-0.356,3.242,0.493,3.529,1.989C461.432,239.385,461.77,241.986,462.197,244.751z"/>
	</g>
</g>
</svg>
