<?xml version="1.0" encoding="utf-8"?>
<!-- Generator: Adobe Illustrator 16.0.0, SVG Export Plug-In . SVG Version: 6.00 Build 0)  -->
<!DOCTYPE svg PUBLIC "-//W3C//DTD SVG 1.1//EN" "http://www.w3.org/Graphics/SVG/1.1/DTD/svg11.dtd">
<svg version="1.1" id="Layer_1" xmlns="http://www.w3.org/2000/svg" xmlns:xlink="http://www.w3.org/1999/xlink" x="0px" y="0px"
	 width="800px" height="600px" viewBox="0 0 800 600" enable-background="new 0 0 800 600" xml:space="preserve">
<g id="U1DELG_1_">
	<g>
		<path fill="#FFFFFF" d="M147.11,297.607c-5.515,0-10.624-0.318-15.65,0.196c-1.493,0.153-3.833,2.58-3.915,4.068
			c-0.269,4.85-0.086,19.887-0.292,22.526c-0.025,0.314,0.816,0.692,0.116,0.137c1.223,5.673,0.855,11.794,3.736,14.769
			c2.167,2.237,8.502,0.443,12.808,0.443c-3.529,4.783-7.82,10.646-12.165,16.476c-3.678,4.934-8.306,8.949-14.752,7.268
			c-7.664-1.999-11.473-8.929-12.921-15.65c-2.614-12.13-3.57-24.627-5.059-36.987c-0.457-3.789-0.392-7.642-0.57-11.561
			c-1.09-0.146-2.807-0.684-4.463-0.539c-5.273,0.459-6.868-2.063-6.369-6.927c0.479-4.654,0.305-9.396,1.043-13.999
			c0.901-5.622,5.307-6.702,10.222-6.835c0.683-0.019,1.828-1.112,1.926-1.823c1.683-12.283,3.281-24.578,4.794-36.883
			c0.714-5.797,1.364-11.618,1.534-17.442c0.016-0.532-4.271-2.253-5.57-1.562c-4.194,2.232-7.927,5.333-13.403,9.208
			c2.891-4.478,4.448-7.911,6.899-10.5c7.689-8.117,15.52-16.119,23.681-23.757c4.57-4.277,13.359,0.056,14.901,8.045
			c1.427,7.391,1.384,15.125,1.411,22.71c0.033,9.585-0.23,19.194-0.919,28.752c-0.483,6.707-1.916,13.342-2.822,20.022
			c-0.057,0.421,0.794,1.386,1.228,1.388c4.887,0.028,9.806,0.172,14.628-0.422c0.726-0.09,1.229-3.771,1.458-5.833
			c1.451-13.048,2.704-26.12,4.216-39.161c0.743-6.408-0.42-7.482-9.32-6.38c2.701-3.995,4.615-7.625,7.272-10.587
			c5.023-5.601,10.202-11.12,15.831-16.091c4.26-3.764,10.806-1.907,12.119,3.677c1.769,7.52,3.252,15.38,3.03,23.04
			c-0.515,17.732-2.306,35.424-3.243,53.148c-0.776,14.663-0.994,29.353-1.617,44.025c-0.265,6.256-1.358,12.503-1.213,18.733
			c0.062,2.623,1.715,6.298,3.795,7.492c2.274,1.306,5.876,0.297,9.225,0.297c-9.549-19.743-3.601-38.55,1.279-56.883
			c4.137-15.541,15.036-27.004,28.457-35.685c6.021-3.894,15.775-0.429,21.361,5.625c9.664,10.472,10.468,23.573,11.3,36.444
			c0.586,9.08,0.144,18.474-1.616,27.378c-1.34,6.79-5.025,13.276-8.477,19.444c-3.563,6.374-7.847,12.399-12.277,18.226
			c-6.82,8.974-20.404,9.96-28.239,1.777c-4.262-4.45-7.374-9.995-11.094-14.98c-0.316-0.421-1.676-0.7-1.921-0.445
			c-4.222,4.42-8.197,9.085-12.542,13.378c-2.92,2.881-6.31,7.394-9.526,7.425c-6.358,0.062-9.877-5.621-12.339-11.154
			c-7.783-17.507-6.302-36.072-6.055-54.491C147.044,296.858,146.965,296.568,147.11,297.607z M225.393,283.04
			c0.12-0.003,0.24-0.007,0.36-0.009c-0.185-2.779-0.456-5.557-0.539-8.339c-0.179-6.021-4.251-9.302-9.204-9.135
			c-2.48,0.083-6.166,4.488-6.932,7.536c-2.085,8.285-3.801,16.871-3.96,25.37c-0.146,7.814,1.491,15.766,3.202,23.466
			c0.852,3.837,3.087,7.751,5.769,10.632c1.35,1.449,5.772,1.742,7.575,0.606c1.98-1.25,3.51-4.718,3.568-7.26
			C225.564,311.623,225.393,297.33,225.393,283.04z"/>
		<path fill="#FFFFFF" d="M322.146,277.778c4.855-6.093,8.36-11.157,12.549-15.572c4.617-4.864,9.559-9.533,14.915-13.546
			c5.574-4.176,11.435-0.661,11.708,6.477c0.132,3.499,0.359,6.993,0.542,10.479c6.228-4.964,12.318-9.874,18.482-14.689
			c1.602-1.252,3.371-2.333,5.179-3.274c7.677-3.994,15.191,2.495,14.695,13.377c-0.585,12.817-1.771,25.616-2.991,38.395
			c-0.7,7.346-1.593,14.716-3.105,21.927c-1.747,8.335-2.878,17.305-6.973,24.457c-2.568,4.484-9.958,6.426-15.435,8.973
			c-7.188,3.344-14.849,5.716-21.884,9.33c-6.771,3.478-3.292,10.533-4.076,16.016c-0.309,2.163,0.332,4.889,1.504,6.753
			c2.868,4.556,5.549,1.622,8.085-0.76c0.748-0.702,1.625-1.264,4.158-3.204c-4.887,7.144-8.826,12.285-12.074,17.834
			c-2.874,4.903-6.233,8.113-12.315,7.735c-7.383-0.462-10.917-4.329-13.587-11.904c-5.756-16.319-2.133-32.468-0.083-48.62
			c2.243-17.695,5.15-35.307,7.841-52.943c0.579-3.795,1.616-7.52,2.195-11.316C332.718,275.562,331.187,274.26,322.146,277.778z
			 M348.646,354.145c0.462,0.171,0.924,0.342,1.387,0.511c1.884-2.787,4.22-5.37,5.577-8.394
			c8.841-19.711,9.316-41.15,12.276-62.054c0.259-1.826-2.095-4.021-3.236-6.044c-1.567,1.959-4.142,3.734-4.538,5.906
			c-2.58,14.142-4.671,28.372-6.953,42.568C351.683,335.81,350.152,344.975,348.646,354.145z"/>
		<path fill="#FFFFFF" d="M517.571,172.562c1.499,14.402,2.774,28.83,4.546,43.198c2.774,22.477,5.893,44.91,8.843,67.366
			c2.286,17.392-0.492,33.339-11.475,47.801c-8.512,11.206-16.471,22.76-28.618,30.384c-4.88,3.064-12.157,1-15.769-3.619
			c-14.416-18.436-15.104-38.872-8.032-59.979c3.219-9.61,7.553-18.98,12.504-27.832c3.231-5.777,8.455-10.448,12.836-15.573
			c2.712-3.175,5.542-6.248,8.231-9.441c0.343-0.407,0.32-1.307,0.178-1.909c-4.396-18.383-9.302-36.671-12.773-55.226
			c-0.562-2.989,4.754-7.755,8.227-10.651c4.617-3.852,10.021-6.797,15.243-9.869c1.627-0.958,3.757-1.062,5.654-1.558
			c0.312,1.726,0.646,3.447,0.919,5.178c0.087,0.544,0.014,1.112,0.014,1.67C517.923,172.523,517.746,172.543,517.571,172.562z
			 M506.859,250.639c-2.074,2.679-3.05,3.792-3.854,5.02c-0.804,1.231-1.735,2.499-2.09,3.883
			c-3.507,13.659-8.169,27.187-9.923,41.077c-1.358,10.768,0.486,22.053,1.824,32.996c0.749,6.125,4.915,7.799,9.847,3.161
			c5.008-4.713,10.404-11.282,11.278-17.641c1.731-12.587,1.367-25.672,0.147-38.387
			C513.156,271.006,509.578,261.516,506.859,250.639z"/>
		<path fill="#FFFFFF" d="M570.982,352.208c-2.989,2.746-6.291,5.391-9.118,8.473c-3.939,4.295-7.888,4.511-13.271,2.401
			c-18.034-7.077-21.163-23.541-18.973-42.039c1.867-15.756,5.466-31.508,14.83-44.874c4.25-6.065,9.693-11.358,14.99-16.602
			c4.561-4.516,9.242-9.176,14.654-12.499c8.397-5.158,17.601-0.516,22.025,9.879c6.188,14.533,2.666,29.244,1.304,43.966
			c-1.145,12.4-2.165,24.821-2.689,37.257c-0.101,2.362,2.249,4.92,3.811,7.148c0.196,0.28,2.476-0.966,3.823-1.399
			c0.679-0.22,1.434-0.2,2.152-0.289c-0.296,0.764-0.372,1.785-0.921,2.254c-4.732,4.042-9.705,7.814-14.299,12.004
			c-4.479,4.089-9.075,4.54-13.714,0.911C573.761,357.369,572.778,354.86,570.982,352.208z M555.717,316.689
			c-0.489,9.399,0.728,18.194,9.824,23.372c1.058,0.604,5.076-1.173,5.178-2.117c2.317-21.727,4.429-43.481,6.081-65.267
			c0.163-2.15-3.091-6.544-4.392-6.407c-2.681,0.283-6.76,2.458-7.384,4.668C560.801,285.908,555.016,316.526,555.717,316.689z"/>
		<path fill="#FFFFFF" d="M297.09,244.602c11.707,0.636,18.984,5.041,21.917,16.093c1.616,6.09,0.884,12.896,0.528,19.34
			c-0.078,1.407-2.982,3.639-4.736,3.794c-6.385,0.566-12.835,0.539-19.253,0.395c-0.923-0.021-2.599-1.932-2.564-2.922
			c0.125-3.733,1.34-7.482,1.105-11.159c-0.16-2.471-2.076-4.83-3.206-7.238c-2.332,1.815-6.248,3.29-6.723,5.502
			c-1.951,9.104,2.28,16.98,7.165,24.225c5.876,8.711,13.379,16.487,18.218,25.699c7.499,14.274,3.427,25.568-9.568,35.354
			c-10.852,8.173-22.499,11.647-35.844,8.913c-7.787-1.596-17.216-10.834-17.728-18.584c-0.145-2.198,3.218-5.48,5.742-6.831
			c5.744-3.076,11.933-5.344,18.018-7.742c1.196-0.471,2.742-0.052,4.127-0.045c-0.062,1.198-0.269,2.411-0.155,3.594
			c0.48,5.077-0.347,11.01,2.073,14.914c1.711,2.761,7.867,2.768,12.038,4.002c0.528-3.748,1.699-7.538,1.456-11.233
			c-0.628-9.561-7.497-15.835-12.977-22.812c-5.168-6.579-10.902-12.857-15.085-20.028c-5.718-9.801-3.019-19.836,3.458-28.139
			c6.034-7.736,13.179-14.727,20.552-21.235C288.427,246.001,293.216,245.82,297.09,244.602z"/>
		<path fill="#FFFFFF" d="M708.508,335.563c-2.428,1.395-17.124,12.862-22.024,17.47c-9.79,11.253-16.488,8.082-26.224-0.24
			c-13.327-11.391-16.012-26.648-13.249-43.184c4.396-26.319,16.89-47.712,39.041-63.084c9.159-6.355,24.205-0.902,25.716,10.605
			c1.503,11.458,0.127,23.28,0.212,34.94c0.103,14.127-10.853,18.402-20.662,23.988c-4.317,2.457-8.106,5.854-12.064,8.913
			c-0.41,0.319-0.692,1.49-0.44,1.873c2.85,4.288,5.628,8.654,8.882,12.626c0.812,0.992,3.42,1.231,4.92,0.81
			c5.301-1.487,10.479-3.412,15.703-5.172C708.38,335.26,708.441,335.41,708.508,335.563z M674.353,315.4
			c0.512,0.143,1.021,0.281,1.533,0.421c3.948-4.741,9.899-8.923,11.412-14.343c2.745-9.834,3.057-20.392,3.881-30.687
			c0.166-2.063-0.699-5.131-2.951-6.468c-2.252-1.339-5.795,2.127-6.328,3.901c-2.499,8.32-4.598,16.824-5.973,25.399
			C674.778,300.785,674.832,308.135,674.353,315.4z"/>
		<path fill="#FFFFFF" d="M398.825,330.152c0.603-27.045,8.134-48.841,25.504-66.524c5.853-5.958,12.364-11.45,19.258-16.153
			c6.01-4.103,15.379-0.396,17.514,6.599c4.361,14.292,5.057,28.76-4.097,41.455c-6.279,8.708-13.63,16.845-21.545,24.101
			c-5.671,5.197-3.641,10.126-2.336,15.553c0.377,1.575,1.107,3.245,2.16,4.444c4.591,5.233,7.612,4.512,14.126-2.358
			c2.145-2.259,5.13-3.733,7.784-5.482c0.296-0.196,0.947,0.149,1.435,0.244c-0.16,0.671-0.097,1.575-0.516,1.986
			c-5.251,5.159-10.4,10.441-15.922,15.297c-4.846,4.262-9.754,8.676-15.3,11.863c-9.695,5.569-22.66-5.731-24.934-15.296
			C400.532,339.886,399.539,333.792,398.825,330.152z M429.926,311.961c0.455,0.141,0.909,0.281,1.363,0.423
			c3.352-3.629,8.81-6.835,9.639-10.972c2.039-10.178,1.982-20.78,2.63-31.221c0.031-0.517-1.252-1.114-1.924-1.675
			c-1.994,3.269-4.121,6.467-5.919,9.841c-0.695,1.303-0.68,2.997-0.935,4.521C433.155,292.572,431.543,302.268,429.926,311.961z"/>
		<path fill="#FFFFFF" d="M648.105,260.961c-1.537,14.944-3.212,29.078-4.392,43.25c-1.444,17.371-1.197,34.994-4.098,52.098
			c-2.21,13.029-6.972,25.999-20.041,33.519c-7.34,4.223-13.894,9.794-21.154,14.181c-5.54,3.349-11.619,5.813-17.504,8.574
			c-0.328,0.153-1.075-0.585-1.626-0.909c1.238-1.377,2.337-2.921,3.741-4.103c7.058-5.951,18.456-7.378,21.18-17.635
			c2.961-11.149,4.591-22.702,6.08-34.174c1.161-8.941,6.138-52.191,7.94-64.818c0.538-3.773-0.032-7.764-0.616-11.576
			c-0.1-0.651-3.24-1.689-4.275-1.164c-2.133,1.079-3.738,3.156-5.672,4.685c-0.616,0.488-1.577,0.542-2.379,0.796
			c0.017-0.941-0.35-2.183,0.114-2.776c4.927-6.302,9.678-12.783,15.101-18.639c4.612-4.981,9.757-9.584,15.182-13.674
			c6.658-5.019,10.532-3.105,11.757,5.213C647.833,256.439,647.942,259.108,648.105,260.961z"/>
		<path fill="#FFFFFF" d="M592.922,362.314c-0.608,8.178-1.47,14.974-1.47,21.771c0,3.341,1.651,6.495,6.195,3.722
			c0.786-0.481,1.941-0.361,2.925-0.517c-0.5,1.059-0.71,2.608-1.542,3.098c-8.497,5.003-17.014,9.989-25.709,14.635
			c-3.435,1.837-11.898-3.075-13.743-6.594c-3.806-7.251-1.599-12.461,4.367-17.124c7.574-5.917,14.847-12.224,22.533-17.978
			C588.091,362.12,590.948,362.581,592.922,362.314z"/>
		<path fill="#FFFFFF" d="M647.648,177.685c-1.637,8.633-2.852,15.89-4.497,23.045c-0.343,1.489-2.085,3.401-3.52,3.757
			c-5.385,1.336-10.91,2.739-16.38,2.727c-1.753-0.003-4.729-4.189-4.978-6.677c-0.467-4.663,0.19-9.597,1.323-14.187
			c0.483-1.966,3.055-4.09,5.148-4.857c5.896-2.16,11.994-3.829,18.11-5.281C644.279,175.873,646.091,177.167,647.648,177.685z"/>
	</g>
</g>
</svg>
