<?xml version="1.0" encoding="utf-8"?>
<!-- Generator: Adobe Illustrator 16.0.0, SVG Export Plug-In . SVG Version: 6.00 Build 0)  -->
<!DOCTYPE svg PUBLIC "-//W3C//DTD SVG 1.1//EN" "http://www.w3.org/Graphics/SVG/1.1/DTD/svg11.dtd">
<svg version="1.1" id="Layer_1" xmlns="http://www.w3.org/2000/svg" xmlns:xlink="http://www.w3.org/1999/xlink" x="0px" y="0px"
	 width="800px" height="600px" viewBox="0 0 800 600" enable-background="new 0 0 800 600" xml:space="preserve">
<g>
	<path fill="#FFFFFF" d="M375.712,366.351c-0.604,0.401-0.921,0.742-1.304,0.846c-6.304,1.706-12.619,2.264-18.986,0.247
		c-1.749-0.553-2.996-1.604-3.885-3.142c-1.088-1.883-1.585-3.951-1.933-6.086c-0.627-3.857-0.049-7.681,0.21-11.515
		c0.382-5.658,0.822-11.312,1.224-16.971c0.358-5.016,0.745-10.032,1.029-15.055c0.332-5.873,0.606-11.753,0.833-17.63
		c0.286-7.486,0.525-14.976,0.735-22.463c0.242-8.666,0.131-17.334-0.402-25.983c-0.283-4.578-0.554-9.175-1.435-13.711
		c-0.613-3.153-1.945-5.864-4.042-8.241c-0.562-0.636-1.251-1.187-0.98-2.388c0.396-0.158,0.862-0.496,1.336-0.507
		c4.277-0.102,8.556-0.223,12.834-0.177c2.639,0.027,5.041,0.896,6.979,2.816c0.447,0.442,0.995,0.782,1.403,1.095
		c0.47,0,0.825,0.095,1.101-0.015c2.973-1.2,5.864-2.65,8.916-3.59c2.53-0.779,5.237-1.311,7.875-1.357
		c8.821-0.152,17.536,0.587,25.75,4.281c3.264,1.468,6.152,3.443,8.668,5.959c1.666,1.667,3.15,3.48,4.418,5.489
		c1.158,1.833,2,3.754,2.605,5.832c2.232,7.646,2.441,15.402,1.373,23.226c-0.609,4.451-1.244,8.903-2.074,13.315
		c-0.711,3.794-1.977,7.471-3.705,10.909c-1.145,2.271-2.707,4.371-4.342,6.333c-0.923,1.109-2.35,1.81-3.584,2.646
		c-0.715,0.486-1.504,0.869-1.393,2.098c0.219,0.197,0.482,0.561,0.84,0.74c6.17,3.087,8.855,8.372,9.584,14.961
		c0.76,6.829,0.922,13.652,0.352,20.508c-0.293,3.519-0.297,7.061-0.447,10.589c-0.074,1.711-0.215,3.42-0.268,5.13
		c-0.033,1.175-0.029,2.357,0.064,3.528c0.125,1.557,0.705,2.876,2.094,3.789c0.58,0.379,1.008,0.99,1.496,1.493
		c-5.812,6.223-15.1,6.598-20.77,1.985c-0.747-0.608-1.537-1.162-2.314-1.729c-1.786-1.3-2.975-3.047-3.827-5.056
		c-1.579-3.709-2.241-7.58-2.09-11.596c0.184-4.813,0.388-9.628,0.589-14.441c0.168-4.074,0.033-8.131-0.546-12.176
		c-0.932-6.501-3.179-11.162-12.233-13.965c-1.012-0.312-2.093-0.469-3.154-0.54c-2.56-0.169-5.125-0.251-7.689-0.353
		c-1.653-0.066-2.381,0.554-2.443,2.242c-0.294,8.023-0.509,16.048-0.835,24.068c-0.292,7.164-0.718,14.32-1.034,21.484
		c-0.123,2.78-0.101,5.564-0.151,8.349c-0.038,2.056,0.734,3.526,2.853,4.071C375.169,365.739,375.296,365.959,375.712,366.351z
		 M376.832,273.14c-0.105,0-0.211,0-0.315,0c0,3.424,0.011,6.848-0.009,10.272c-0.005,0.854-0.142,1.706-0.149,2.561
		c-0.008,1.278,0.642,1.958,1.931,2.091c0.316,0.032,0.643-0.009,0.96,0.013c5.014,0.362,9.772-0.915,14.479-2.367
		c2.281-0.703,4.244-2.06,5.718-3.974c2.047-2.658,3.449-5.618,4.214-8.918c1.365-5.9,1.65-11.875,1.221-17.867
		c-0.301-4.19-1.4-8.187-3.93-11.722c-1.097-1.533-2.35-2.73-3.982-3.611c-3.384-1.828-7.054-2.448-10.832-2.539
		c-2.468-0.06-4.923,0.172-7.299,0.905c-1.614,0.496-2.043,1.091-2.11,2.783c-0.021,0.535,0.014,1.07,0.028,1.605
		c0.108,3.738,0.121,7.486,0.358,11.215c0.184,2.901-0.144,5.76-0.251,8.638C376.733,265.86,376.832,269.502,376.832,273.14z"/>
	<path fill="#FFFFFF" d="M511.092,305.713c1.307,1.782,2.502,3.412,3.693,5.041c2.727,3.733,4.004,7.983,4.621,12.513
		c0.715,5.218,0.836,10.455,0.756,15.703c-0.1,6.314-0.457,12.628-0.074,18.944c0.02,0.32-0.018,0.643,0,0.964
		c0.162,2.824,1.812,4.3,4.592,4.121c0.824-0.054,1.666-0.556,2.639,0.223c-0.164,0.308-0.264,0.738-0.535,0.964
		c-2.559,2.144-5.391,3.939-8.494,5.077c-3.682,1.348-7.645,1.376-11.402,0.431c-4.58-1.152-7.557-4.28-8.834-8.892
		c-0.256-0.924-0.467-1.884-0.52-2.837c-0.299-5.551-0.564-11.102-0.807-16.654c-0.287-6.752-0.918-13.45-2.805-19.979
		c-1.621-5.609-5.193-9.51-10.453-11.879c-1.148-0.516-2.463-0.86-3.715-0.905c-2.885-0.098-5.783-0.028-8.67,0.096
		c-2.082,0.089-2.602,0.693-2.664,2.782c-0.43,14.767-0.859,29.534-1.254,44.304c-0.049,1.813,0.025,3.643,0.203,5.451
		c0.201,2.084,0.822,3.999,2.994,4.949c0.148,0.065,0.203,0.348,0.352,0.618c-0.662,0.873-1.672,1.217-2.666,1.583
		c-2.881,1.062-5.867,1.188-8.875,0.907c-1.49-0.138-2.977-0.383-4.438-0.707c-2.838-0.64-5.109-2.122-6.6-4.692
		c-1.141-1.969-2.041-4.041-2.07-6.343c-0.053-3.851-0.104-7.708,0.047-11.555c0.4-10.265,0.914-20.525,1.373-30.789
		c0.217-4.812,0.381-9.626,0.629-14.437c0.23-4.489,0.586-8.971,0.801-13.46c0.242-5.13,0.506-10.266,0.555-15.4
		c0.051-5.781-0.02-11.568-0.238-17.343c-0.215-5.665-0.469-11.342-1.795-16.897c-0.199-0.834-0.354-1.678-0.592-2.5
		c-0.809-2.797-1.814-5.487-4.104-7.482c-0.658-0.573-1.213-1.24-0.764-2.422c0.355-0.132,0.82-0.437,1.305-0.468
		c4.307-0.284,8.568,0.253,12.766,1.081c3.404,0.672,6.361,2.435,8.977,4.732c0.314,0.279,0.666,0.519,1.121,0.869
		c0.562-0.169,1.223-0.231,1.734-0.54c2.01-1.214,3.963-2.53,5.969-3.759c1.652-1.014,3.428-1.789,5.354-2.095
		c7.035-1.117,14.037-1.28,21.049,0.368c4.301,1.011,8.52,2.145,12.264,4.561c4.283,2.761,7.889,6.218,10.537,10.607
		c1.605,2.658,3.168,5.321,4.197,8.291c1.068,3.078,1.557,6.227,1.639,9.451c0.133,5.25,0.064,10.497-0.582,15.716
		c-1.051,8.449-3.824,16.228-9.098,23.002c-1.713,2.204-3.682,4.166-5.938,5.836C511.91,303.873,511.932,303.9,511.092,305.713z
		 M469.572,291.411c0.73,1.02,1.574,1.215,2.43,1.289c1.277,0.109,2.572,0.274,3.842,0.179c3.621-0.271,7.246-0.586,10.852-1.028
		c3.207-0.392,6.273-1.383,9.141-2.861c1.221-0.626,2.348-1.475,3.41-2.352c2.344-1.933,3.387-4.693,4.115-7.472
		c1.41-5.397,2.26-10.909,1.727-16.513c-0.533-5.565-1.621-10.986-4.477-15.93c-3.104-5.37-7.67-8.08-13.879-8.31
		c-4.914-0.181-9.242,1.421-13.369,3.81c-0.996,0.577-2.174,0.966-2.98,2.381C471.406,260.101,470.309,275.874,469.572,291.411z"/>
	<path fill="#FFFFFF" d="M623.701,300.77c-1.637,1.709-1.84,3.779-1.896,5.969c-0.158,5.672-0.357,11.347-0.723,17.01
		c-0.416,6.407-1.041,12.802-1.557,19.203c-0.332,4.088-1.381,8.061-2.65,11.892c-1.627,4.909-4.23,9.331-8.891,12.202
		c-2.277,1.402-4.381,3.067-6.99,3.882c-1.84,0.575-3.648,1.21-5.625,1.19c-0.848-0.009-1.701,0.18-2.547,0.312
		c-6.607,1.046-13.256,0.599-19.873,0.274c-4.711-0.23-9.311-1.401-13.676-3.293c-1.562-0.678-3.188-1.143-4.646-2.138
		c-4.475-3.052-7.482-7.268-9.951-11.961c-2.457-4.661-3.311-9.68-3.43-14.882c-0.121-5.251,0.256-10.479,0.51-15.717
		c0.316-6.629,0.24-13.274,0.348-19.912c0.041-2.66-0.473-5.104-2.496-7.032c-0.135-0.13-0.143-0.393-0.213-0.595
		c0.043-0.21,0.023-0.464,0.139-0.619c2.076-2.802,2.617-5.917,2.498-9.383c-0.18-5.236-0.07-10.492,0.15-15.73
		c0.24-5.768,0.717-11.527,1.146-17.285c0.459-6.159,2.689-11.598,6.566-16.431c2.93-3.657,6.35-6.61,10.605-8.62
		c3.543-1.673,7.283-2.626,11.15-2.748c6.521-0.202,13.053-0.625,19.57,0.237c2.861,0.377,5.775,0.412,8.613,0.902
		c9.369,1.616,16.396,6.58,20.602,15.175c1.361,2.78,2.143,5.818,2.557,8.922c1.094,8.218,0.889,16.451,0.326,24.688
		c-0.115,1.708-0.25,3.417-0.342,5.127c-0.234,4.488-0.48,8.976-0.66,13.467C622.199,297.742,622.246,297.743,623.701,300.77z
		 M598.773,299.586c2.064-1.928,2.371-4.312,2.189-6.842c-0.029-0.424,0.018-0.855,0.027-1.283
		c0.207-8.338,0.504-16.675,0.576-25.016c0.045-4.917-0.266-9.837-0.422-14.756c-0.062-1.961-0.697-3.791-1.469-5.556
		c-1.264-2.876-3.344-4.914-6.373-5.95c-1.928-0.661-3.865-1.177-5.902-1.45c-3.021-0.405-5.998-0.03-8.955,0.322
		c-6.463,0.768-12.041,6.855-11.523,13.545c0.455,5.847,0.111,11.763-0.02,17.646c-0.158,7.059-0.496,14.116-0.686,21.175
		c-0.037,1.37,0.105,2.784,0.428,4.113c0.297,1.214,0.236,2.255-0.227,3.413c-0.383,0.962-0.551,2.057-0.594,3.103
		c-0.311,7.27-0.564,14.541-0.832,21.812c-0.068,1.925-0.15,3.85-0.197,5.774c-0.146,5.668-0.277,11.335-0.422,17.003
		c-0.033,1.434,0.277,2.8,1.072,3.971c1.574,2.322,3.383,4.37,6.129,5.452c6.096,2.406,12.316,2.541,18.588,1.043
		c3.068-0.732,5.238-2.808,6.723-5.57c1.135-2.112,1.629-4.383,1.723-6.779c0.195-5.026,0.479-10.05,0.719-15.072
		c0.375-7.802,0.773-15.601,1.1-23.4C600.57,302.736,600.502,302.733,598.773,299.586z"/>
	<path fill="#FFFFFF" d="M196.809,276.93c0.866,1.012,1.714,0.939,2.585,0.964c6.518,0.183,13.036,0.379,19.552,0.632
		c2.048,0.08,2.707-0.364,2.811-2.47c0.089-1.815,0.054-3.638,0.074-5.457c0.055-5.032,0.104-10.065,0.168-15.098
		c0.049-3.742,0.28-7.491,0.131-11.224c-0.149-3.733-0.51-7.477-1.088-11.165c-0.361-2.293-0.948-4.611-2.221-6.655
		c-0.626-1.003-1.205-2.011-2.205-2.719c-0.411-0.292-0.686-0.777-0.951-1.086c0.098-1.253,0.889-1.592,1.771-1.694
		c1.379-0.158,2.785-0.384,4.158-0.28c4.583,0.353,9.171,0.653,13.664,1.783c3.484,0.876,5.938,2.916,7.328,6.152
		c0.71,1.659,1.204,3.435,1.583,5.204c0.358,1.668,0.598,3.395,0.607,5.096c0.027,5.028-0.082,10.055-0.146,15.083
		c-0.009,0.641-0.097,1.279-0.111,1.921c-0.118,5.672-0.085,11.353-0.369,17.017c-0.514,10.258-1.094,20.515-2.073,30.747
		c-0.531,5.536-0.64,11.11-0.971,16.666c-0.318,5.339-0.715,10.673-1.012,16.013c-0.383,6.838-0.717,13.679-1.04,20.518
		c-0.134,2.833,0.402,5.521,2.006,7.719c-0.134,1.103-0.726,1.521-1.494,1.721c-4.01,1.036-8.03,1.207-12.053,0.084
		c-3.247-0.905-5.733-2.976-7.617-5.616c-1.446-2.023-1.832-4.59-1.853-7.048c-0.03-3.417,0.254-6.837,0.417-10.257
		c0.255-5.344,0.652-10.686,0.751-16.034c0.091-4.823,0.678-9.602,0.959-14.406c0.268-4.592,0.386-9.195,0.471-13.794
		c0.032-1.803-0.703-2.408-2.605-2.493c-1.069-0.049-2.141-0.007-3.211-0.03c-5.236-0.113-10.473-0.242-15.708-0.345
		c-0.943-0.019-1.89,0.067-2.604,0.096c-1.218,1.154-0.961,2.384-0.973,3.54c-0.045,4.282,0.042,8.569-0.12,12.846
		c-0.316,8.341-0.76,16.679-1.168,25.013c-0.224,4.593-0.538,9.183-0.699,13.776c-0.06,1.699,0.166,3.416,0.336,5.117
		c0.251,2.5,1.324,4.705,2.615,6.643c-0.073,1.348-0.887,1.837-1.827,2.17c-2.372,0.85-4.828,1.235-7.251,0.466
		c-2.438-0.775-4.902-1.617-7.15-2.812c-4.391-2.335-7.021-6.023-8.042-10.995c-1.119-5.448-0.63-10.865-0.265-16.304
		c0.337-5.018,0.736-10.032,1.111-15.047c0.303-4.051,0.615-8.104,0.921-12.155c0.063-0.854,0.131-1.708,0.168-2.563
		c0.305-6.95,0.507-13.906,0.925-20.851c0.488-8.125,0.641-16.251,0.51-24.385c-0.039-2.345-0.337-4.687-0.521-7.028
		c-0.034-0.426-0.136-0.851-0.129-1.277c0.077-4.818-0.15-9.622-0.642-14.415c-0.523-5.097-1.954-9.822-5.442-13.735
		c-0.499-0.559-1.047-1.074-1.543-1.636c-0.615-0.695-0.891-1.497-0.384-2.352c0.464-0.782,1.175-1.239,2.128-1.184
		c2.239,0.126,4.477,0.282,6.717,0.385c1.817,0.082,3.639,0.16,5.458,0.138c1.868-0.021,3.62,0.395,5.272,1.204
		c1.812,0.888,3.61,1.744,5.194,3.101c2.69,2.308,4.093,5.196,4.452,8.604c0.357,3.399,0.5,6.822,0.74,10.234
		c0.06,0.853,0.122,1.706,0.195,2.558c0.055,0.637,0.269,1.297,0.171,1.907c-0.681,4.261-0.295,8.551-0.401,12.825
		c-0.128,5.137-0.143,10.277-0.196,15.416C196.668,276.09,196.761,276.512,196.809,276.93z"/>
	<path fill="#FFFFFF" d="M304.707,224.483c0.624-0.547,1.031-1.024,1.544-1.314c0.339-0.192,0.834-0.169,1.257-0.151
		c4.59,0.187,9.201,0.192,13.765,0.645c4.515,0.448,7.635,2.945,9.251,7.335c1.102,2.989,1.225,6.086,1.34,9.161
		c0.398,10.602-0.227,21.183-0.948,31.757c-0.299,4.378-0.557,8.759-0.84,13.139c-0.048,0.746-0.076,1.502-0.212,2.236
		c-0.382,2.046-0.43,4.029,0.601,5.943c0.55,1.022,0.479,2.129-0.265,3.026c-1.188,1.431-1.264,3.103-1.365,4.831
		c-0.347,5.984-0.788,11.963-1.135,17.946c-0.348,5.984-0.601,11.974-0.951,17.956c-0.224,3.845-0.476,7.692-0.846,11.523
		c-0.371,3.871-0.058,7.703,0.377,11.531c0.185,1.623,0.9,3.066,2.079,4.256c0.503,0.511,0.933,1.092,1.555,1.83
		c-0.672,0.318-1.106,0.629-1.588,0.738c-4.997,1.146-9.979,1.062-14.923-0.312c-2.971-0.828-5.579-2.188-7.153-5.026
		c-0.144-0.261-0.455-0.435-0.7-0.635c-0.08-0.062-0.198-0.078-0.373-0.142c-0.24,0.065-0.593,0.076-0.836,0.243
		c-1.489,1.031-2.991,2.05-4.416,3.164c-3.456,2.706-7.425,3.058-11.58,2.643c-1.38-0.137-2.766-0.248-4.136-0.452
		c-6.146-0.919-11.846-2.816-16.391-7.347c-2.174-2.169-3.772-4.642-4.594-7.604c-1.176-4.233-2.141-8.506-2.38-12.912
		c-0.017-0.318-0.042-0.644-0.028-0.962c0.219-4.596,0.379-9.197,0.684-13.788c0.327-4.907,0.842-9.803,1.182-14.711
		c0.287-4.161,0.449-8.33,0.645-12.498c0.045-0.95,0.007-1.903,0.007-2.701c-0.76-0.887-1.373-1.603-2.042-2.382
		c0.385-0.731,0.666-1.423,1.082-2.025c1.327-1.922,1.879-4.058,1.916-6.361c0.025-1.499,0.057-2.998,0.111-4.496
		c0.186-5.348,0.561-10.697,0.534-16.044c-0.044-8.881-0.318-17.762-0.562-26.64c-0.048-1.702-0.288-3.423-0.657-5.087
		c-0.487-2.198-1.217-4.324-2.757-6.081c-0.384-0.439-0.561-1.059-0.933-1.79c0.638-0.298,1.077-0.642,1.546-0.694
		c1.06-0.117,2.146-0.2,3.204-0.101c4.255,0.396,8.553,0.598,12.739,1.386c4.125,0.776,7.043,3.347,8.492,7.461
		c1.115,3.168,1.74,6.429,1.743,9.748c0.005,9.101-0.091,18.202-0.261,27.3c-0.049,2.665-0.528,5.32-0.719,7.986
		c-0.276,3.842-0.563,7.688-0.642,11.536c-0.025,1.212,0.605,2.438,0.983,3.831c-1.232,1.826-1.342,4.02-1.493,6.286
		c-0.417,6.296-1.058,12.577-1.609,18.864c-0.029,0.319-0.062,0.642-0.081,0.959c-0.386,6.406-0.931,12.811-1.09,19.223
		c-0.084,3.399,0.379,6.832,0.846,10.215c0.199,1.435,0.956,2.821,1.612,4.156c0.548,1.109,1.566,1.782,2.833,1.851
		c2.255,0.124,4.497,0.035,6.648-0.787c1.551-0.591,2.755-1.632,3.782-2.894c2.174-2.668,4.021-5.56,5.398-8.705
		c0.545-1.245,0.771-2.656,0.973-4.018c0.344-2.324,0.605-4.669,0.812-7.012c0.385-4.367,0.798-8.737,1.027-13.115
		c0.231-4.382,0.251-8.775,0.371-13.164c0.014-0.533,0.018-1.076,0.112-1.6c0.522-2.909,0.632-5.759-1.055-8.119
		c0.034-0.49-0.018-0.737,0.074-0.909c1.136-2.127,1.364-4.398,1.525-6.789c0.612-9.089,0.373-18.192,0.652-27.284
		c0.11-3.528,0.402-7.058,0.372-10.585c-0.036-4.275-0.103-8.573-0.567-12.816C307.856,231.528,306.787,228.018,304.707,224.483z"/>
	<path fill="#FFFFFF" d="M724.879,229.042c0.73,2.369,0.365,4.497-0.354,6.483c-1.301,3.584-3.324,6.586-6.781,8.643
		c-3.914,2.326-8.1,3.826-12.377,5.237c-6.094,2.01-12.312,1.641-18.451,0.845c-4.436-0.574-8.738-2.085-12.969-3.635
		c-0.502-0.185-1.018-0.339-1.506-0.553c-4.85-2.133-9.016-0.21-12.949,2.37c-1.676,1.099-2.34,3.125-2.609,5.022
		c-0.801,5.586-0.598,11.148,1.672,16.41c1.111,2.572,3,4.676,5.146,6.497c4.316,3.663,9.291,6.104,14.676,7.728
		c2.766,0.835,5.578,1.514,8.363,2.279c1.297,0.355,2.525,0.297,3.725-0.371c0.826-0.46,1.65-1.003,2.832-0.808
		c0.16,0.302,0.426,0.642,0.537,1.026c0.391,1.364,1.318,2.155,2.6,2.625c0.502,0.186,0.973,0.458,1.484,0.614
		c4.703,1.445,8.662,4.163,12.318,7.338c7.832,6.808,12.408,15.386,13.9,25.673c1.201,8.287,0.471,16.435-1.314,24.548
		c-0.182,0.833-0.201,1.714-0.447,2.524c-0.494,1.63-0.881,3.348-1.697,4.812c-1.455,2.613-3.084,5.144-4.844,7.563
		c-2.17,2.985-5.004,5.232-8.41,6.754c-2.74,1.221-5.492,2.268-8.439,2.998c-6.666,1.65-13.146,1.007-19.695-0.54
		c-5.434-1.282-10.688-3.095-15.941-4.926c-1.209-0.42-2.361-1.009-3.506-1.584c-5.258-2.633-10.742-2.66-16.293-1.317
		c-2.104,0.51-3.977,1.591-5.244,3.47c-0.961,1.419-1.896,2.852-2.879,4.25c-0.416,0.59-0.93,1.108-1.408,1.674
		c-1.904-0.618-2.709-1.842-2.803-3.625c-0.135-2.521,0.457-4.924,1.426-7.191c1.961-4.603,5.248-8.126,9.73-10.288
		c5.65-2.725,11.705-4.139,17.98-4.36c4.443-0.158,8.693,0.738,12.791,2.578c3.902,1.75,7.902,3.281,11.918,4.76
		c1.588,0.588,3.34,0.717,4.992,1.153c4.105,1.079,9.031-1.506,10.959-5.466c2.592-5.327,3.697-10.883,2.936-16.823
		c-0.877-6.847-3.723-12.67-8.582-17.542c-2.877-2.889-6.469-4.54-10.277-5.707c-1.176-0.359-2.527-0.203-3.797-0.182
		c-1.049,0.018-2.096,0.188-3.076,0.285c-0.355-0.402-0.637-0.609-0.766-0.886c-0.881-1.841-2.48-2.547-4.357-2.901
		c-1.049-0.198-2.074-0.526-3.113-0.785c-6.275-1.557-11.559-4.843-16.48-8.97c-4.719-3.96-8.061-8.808-10.521-14.362
		c-0.303-0.685-0.629-1.362-0.98-2.023c-2.055-3.855-3.039-8.016-3.223-12.335c-0.283-6.57,0.289-13.057,2.586-19.293
		c0.439-1.204,0.812-2.47,1.477-3.546c1.969-3.185,3.908-6.41,6.166-9.385c2.246-2.955,5.336-4.838,8.951-5.945
		c7.037-2.155,14.129-2.212,21.287-0.871c3.791,0.709,7.535,1.631,11.141,3.033c5.961,2.315,12.137,2.419,18.369,1.775
		c4.617-0.477,9.066-1.573,13.1-4.019c0.539-0.329,1.172-0.523,1.781-0.712C723.912,228.968,724.244,229.042,724.879,229.042z"/>
	<path fill="#FFFFFF" d="M138.399,223.368c1.759-1.7,3.728-3.313,6.396-4.07c1.66,0.354,2.541,1.402,2.854,3.235
		c0.989,5.803,2.452,11.488,4.615,16.979c0.232,0.588,0.412,1.211,0.514,1.833c0.243,1.475,0.441,2.959,0.627,4.443
		c0.305,2.409-1.219,4.02-3.616,3.608c-2.208-0.381-4.365-0.95-5.96-2.806c-1.253-1.457-2.741-2.708-4.053-4.119
		c-6.301-6.765-5.179-5.381-12.996-8.284c-5.199-1.933-10.711-1.651-15.728,0.442c-5.125,2.139-9.069,5.809-9,12.066
		c0.039,3.519-0.181,7.027-0.165,10.548c0.039,8.552,0.454,17.101,0.213,25.655c-0.012,0.427-0.012,0.856-0.012,1.285
		c0,1.971,0.273,3.828,1.792,5.312c0.995,0.974,0.952,2.101,0.125,3.186c-1.522,1.993-1.747,4.329-1.773,6.704
		c-0.076,6.851-0.107,13.703-0.193,20.556c-0.025,1.921-0.189,3.844-0.26,5.769c-0.027,0.743,0.028,1.488,0.046,2.23
		c0.029,1.174,0.242,2.38,0.049,3.516c-0.423,2.481-0.006,4.901,0.197,7.349c0.251,3.037,1.794,5.104,4.432,6.605
		c2.867,1.633,6.021,2.129,9.145,2.851c2.692,0.621,5.275,0.315,7.895-0.47c4.859-1.453,9.498-3.383,13.496-6.528
		c5.414-4.256,9.248-9.741,11.815-16.117c0.52-1.29,0.967-2.614,1.55-3.875c0.397-0.863,0.876-1.725,1.487-2.443
		c0.77-0.905,2.107-0.857,2.774,0.146c0.574,0.863,1.143,1.895,1.227,2.893c0.305,3.606,0.508,7.162-0.769,10.763
		c-1.36,3.827-2.47,7.749-4.276,11.404c-1.47,2.972-2.956,5.984-5.495,8.226c-3.939,3.477-8.051,6.722-12.978,8.746
		c-0.594,0.242-1.188,0.489-1.767,0.763c-5.972,2.81-12.284,3.629-18.79,3.089c-2.981-0.249-5.943-0.726-8.912-1.115
		c-6.162-0.808-11.377-3.574-15.864-7.781c-1.402-1.314-2.84-2.635-3.997-4.155c-2.792-3.663-4.273-7.923-4.617-12.47
		c-0.312-4.154-0.986-8.276-0.925-12.47c0.05-3.416-0.249-6.836-0.391-10.254c-0.018-0.429-0.04-0.858-0.018-1.284
		c0.348-6.516-0.275-13.032,0.002-19.547c0.057-1.354-0.257-2.524-1.266-3.496c-0.453-0.435-0.79-0.991-1.107-1.398
		c-0.061-1.652,1.45-2.199,2.151-4.07c0.009-2.38,0.118-5.469-0.21-8.557c-0.09-0.85-0.242-1.7-0.253-2.55
		c-0.046-4.068-0.081-8.137-0.063-12.204c0.005-1.278,0.182-2.556,0.291-3.833c0.037-0.426,0.229-0.878,0.137-1.267
		c-0.613-2.582,0.088-5.108,0.256-7.654c0.155-2.352,0.818-4.6,1.326-6.889c0.585-2.637,1.811-4.97,2.652-7.459
		c0.809-2.39,2.33-4.312,3.3-6.559c0.244-0.562,0.759-1.038,1.232-1.459c4.718-4.204,10.036-7.166,16.345-8.346
		c4.426-0.826,8.856-1.417,13.351-1.561c2.144-0.07,4.271-0.005,6.378,0.503c1.241,0.3,2.526,0.482,3.802,0.568
		c4.354,0.293,8.376,1.635,12.185,3.7C137.78,223.344,138.021,223.316,138.399,223.368z"/>
	<path fill="#FFFFFF" d="M120.951,202.603c-0.173-0.023-0.345-0.047-0.516-0.072c0.02-0.099,0.039-0.282,0.058-0.282
		c0.174,0.001,0.348,0.033,0.522,0.056C120.993,202.404,120.972,202.503,120.951,202.603z"/>
</g>
</svg>
