<?xml version="1.0" encoding="utf-8"?>
<!-- Generator: Adobe Illustrator 16.0.0, SVG Export Plug-In . SVG Version: 6.00 Build 0)  -->
<!DOCTYPE svg PUBLIC "-//W3C//DTD SVG 1.1//EN" "http://www.w3.org/Graphics/SVG/1.1/DTD/svg11.dtd">
<svg version="1.1" xmlns="http://www.w3.org/2000/svg" xmlns:xlink="http://www.w3.org/1999/xlink" x="0px" y="0px"
	 width="116.312px" height="115.5px" viewBox="0 0 116.312 115.5" enable-background="new 0 0 116.312 115.5" xml:space="preserve">
<g id="Layer_1">
	<g>
		<path fill="#1D1D1B" d="M100.7,96.354C90.13,108.108,74.803,115.5,57.75,115.5C25.855,115.5,0,89.645,0,57.75S25.855,0,57.75,0
			c17.053,0,32.38,7.392,42.951,19.146c0,0-0.163,7.465-0.245,7.354C90.828,13.363,75.285,4.834,57.75,4.834
			c-29.225,0-52.917,23.691-52.917,52.917s23.692,52.917,52.917,52.917c17.608,0,33.207-8.601,42.826-21.83L100.7,96.354z"/>
		<g>
			<path fill="#1D1D1B" d="M35.734,70.25L27.232,89H21.75l35.357-77.905L92.354,89h-5.482L78,70.25H35.734z M57.107,23.295
				L37.75,65.75h38.235L57.107,23.295z"/>
		</g>
	</g>
</g>
<g id="Layer_3">
</g>
</svg>
