<?xml version="1.0" encoding="utf-8"?>
<!-- Generator: Adobe Illustrator 16.0.0, SVG Export Plug-In . SVG Version: 6.00 Build 0)  -->
<!DOCTYPE svg PUBLIC "-//W3C//DTD SVG 1.1//EN" "http://www.w3.org/Graphics/SVG/1.1/DTD/svg11.dtd">
<svg version="1.1" id="Layer_1" xmlns="http://www.w3.org/2000/svg" xmlns:xlink="http://www.w3.org/1999/xlink" x="0px" y="0px"
	 width="116.859px" height="119.5px" viewBox="0 0 116.859 119.5" enable-background="new 0 0 116.859 119.5" xml:space="preserve">
<g id="Layer_1_1_">
	<g>
		<g>
			<path fill="#FFFFFF" d="M59.75,118C27.631,118,1.5,91.869,1.5,59.75S27.631,1.5,59.75,1.5c16.494,0,32.285,7.039,43.323,19.311
				l0.132,0.147l-0.004,0.198c-0.172,7.84-0.172,7.84-0.739,7.844l-0.255,0.002l-0.153-0.207C92.203,15.357,76.39,7.334,59.75,7.334
				c-28.903,0-52.417,23.514-52.417,52.417c0,28.903,23.514,52.417,52.417,52.417c16.718,0,32.576-8.084,42.422-21.624l0.88-1.21
				l0.151,9.209l-0.132,0.146C92.035,110.961,76.245,118,59.75,118z"/>
			<path fill="#FFFFFF" d="M59.75,2c17.053,0,32.38,7.392,42.951,19.146c0,0-0.161,7.355-0.243,7.355c-0.001,0-0.001,0-0.002-0.001
				C92.828,15.363,77.285,6.834,59.75,6.834c-29.226,0-52.917,23.691-52.917,52.917c0,29.226,23.691,52.917,52.917,52.917
				c17.607,0,33.207-8.602,42.826-21.83l0.124,7.518C92.13,110.107,76.803,117.5,59.75,117.5C27.855,117.5,2,91.645,2,59.75
				C2,27.855,27.855,2,59.75,2 M59.75,1C27.355,1,1,27.355,1,59.75c0,32.395,26.354,58.75,58.75,58.75
				c16.637,0,32.562-7.1,43.692-19.477l0.264-0.293l-0.006-0.393l-0.124-7.518l-0.051-2.991l-1.759,2.42
				c-9.752,13.411-25.459,21.418-42.018,21.418c-28.627,0-51.917-23.29-51.917-51.917S31.123,7.834,59.75,7.834
				c16.479,0,32.144,7.946,41.898,21.257l0.301,0.409l0.509,0.001c0.99,0,1.021-0.794,1.071-2.111
				c0.026-0.692,0.056-1.616,0.08-2.54c0.052-1.842,0.092-3.683,0.092-3.683l0.009-0.396l-0.267-0.295
				C92.312,8.099,76.386,1,59.75,1L59.75,1z"/>
		</g>
		<g>
			<g>
				<path fill="#FFFFFF" d="M88.555,91.5l-8.871-18.75H38.057L29.555,91.5h-6.581l36.134-79.617L95.129,91.5H88.555z M77.216,67.25
					L59.102,26.513L40.527,67.25H77.216z"/>
				<path fill="#FFFFFF" d="M59.107,13.095L94.354,91h-5.481L80,72.25H37.734L29.232,91H23.75L59.107,13.095 M39.75,67.75h38.234
					L59.107,25.295L39.75,67.75 M59.108,10.672l-0.911,2.01L22.839,90.587L22.198,92h1.552h5.481h0.646l0.266-0.587l8.236-18.163
					h40.988l8.6,18.178L88.238,92h0.634h5.481h1.55l-0.639-1.412L60.019,12.683L59.108,10.672L59.108,10.672z M41.305,66.75
					l17.791-39.019l17.35,39.019H41.305L41.305,66.75z"/>
			</g>
		</g>
	</g>
</g>
<g id="Layer_3">
</g>
</svg>
