<?xml version="1.0" encoding="utf-8"?>
<!-- Generator: Adobe Illustrator 16.0.0, SVG Export Plug-In . SVG Version: 6.00 Build 0)  -->
<!DOCTYPE svg PUBLIC "-//W3C//DTD SVG 1.1//EN" "http://www.w3.org/Graphics/SVG/1.1/DTD/svg11.dtd">
<svg version="1.1" id="Layer_1" xmlns="http://www.w3.org/2000/svg" xmlns:xlink="http://www.w3.org/1999/xlink" x="0px" y="0px"
	 width="116.867px" height="116.868px" viewBox="0 0 116.867 116.868" enable-background="new 0 0 116.867 116.868"
	 xml:space="preserve">
<path fill-rule="evenodd" clip-rule="evenodd" fill="#FFFFFF" d="M62.219,50.541c-0.083,0.094-0.165,0.196-0.221,0.308
	c-0.076,0.149,0.094,3.966,0.245,4.506c0.182,0.647,0.088,1.376,0.096,2.068c0.014,1.125,0.006,2.25,0.022,3.375
	c0.025,1.681,0.102,3.362,0.083,5.043c-0.018,1.538-0.151,3.074-0.2,4.613c-0.067,2.131-0.111,4.264-0.153,6.396
	c-0.044,2.275-0.043,4.547,0.339,6.801c0.147,0.864,0.73,1.445,1.358,1.944c0.38,0.3,0.908,0.413,1.372,0.606
	c0.203,0.083,0.411,0.153,0.617,0.226c0.085,0.03,0.176,0.081,0.261,0.073c0.802-0.062,1.604-0.128,2.405-0.209
	c0.375-0.038,0.536,0.14,0.549,0.482c0.041,1.143,0.054,2.289,0.121,3.433c0.028,0.473,0.182,0.948-0.116,1.383
	c-0.082,0.115-0.237,0.246-0.366,0.256c-1.867,0.138-3.734,0.262-5.602,0.38c-0.731,0.046-1.461,0.098-2.193,0.102
	c-0.233,0.002-0.466-0.145-0.795-0.253c-0.118,0.073-0.35,0.225-0.591,0.36c-0.06,0.033-0.159,0.044-0.222,0.02
	c-1.468-0.58-2.973-0.373-4.479-0.234c-0.674,0.062-1.354,0.06-2.03,0.088c-0.536,0.021-1.075,0.019-1.606,0.077
	c-0.497,0.054-0.809-0.151-1.171-0.482c-0.752-0.69-0.696-1.571-0.756-2.439c-0.043-0.634-0.067-1.269-0.101-1.902
	c-0.026-0.482,0.19-0.8,0.66-0.851c1.076-0.114,2.159-0.168,3.231-0.302c1.182-0.149,2.304-0.572,3.024-1.531
	c0.393-0.52,0.522-1.286,0.624-1.963c0.117-0.791,0.063-1.606,0.105-2.408c0.036-0.672,0.143-1.342,0.15-2.014
	c0.017-1.623-0.01-3.245-0.012-4.867c-0.001-0.946,0.019-1.89,0.019-2.836c0-0.613-0.018-1.225-0.029-1.84
	c-0.02-1.021-0.032-2.043-0.065-3.064c-0.034-1.036-0.138-2.073-0.126-3.108c0.019-1.454,0.13-2.909,0.175-4.362
	c0.025-0.812-0.036-1.626,0.001-2.437c0.03-0.68-0.062-1.384,0.483-1.982c0.165-0.18,0.136-0.715-0.011-0.966
	c-0.395-0.678-0.667-1.372-0.723-2.15c-0.061-0.846-0.702-1.155-1.321-1.542c-1.022-0.642-2.139-0.42-3.229-0.493
	c-0.577-0.038-1.151-0.125-1.728-0.187c-0.232-0.025-0.466-0.046-0.699-0.064c-0.481-0.037-0.775-0.267-0.811-0.739
	c-0.07-0.916-0.108-1.835-0.135-2.754c-0.017-0.525,0.024-1.052,0.02-1.579c-0.006-0.799,0.217-1.041,1.006-1.029
	c1.42,0.021,2.839,0.068,4.259,0.073c1.285,0.004,2.57-0.056,3.855-0.046c1.409,0.011,2.817,0.077,4.226,0.105"/>
<circle fill-rule="evenodd" clip-rule="evenodd" fill="none" stroke="#FFFFFF" stroke-width="5" stroke-miterlimit="10" cx="58.434" cy="58.434" r="55.934"/>
<circle fill-rule="evenodd" clip-rule="evenodd" fill="#FFFFFF" cx="58.445" cy="24.678" r="7.779"/>
</svg>
