<?xml version="1.0" encoding="utf-8"?>
<!-- Generator: Adobe Illustrator 16.0.0, SVG Export Plug-In . SVG Version: 6.00 Build 0)  -->
<!DOCTYPE svg PUBLIC "-//W3C//DTD SVG 1.1//EN" "http://www.w3.org/Graphics/SVG/1.1/DTD/svg11.dtd">
<svg version="1.1" id="Layer_1" xmlns="http://www.w3.org/2000/svg" xmlns:xlink="http://www.w3.org/1999/xlink" x="0px" y="0px"
	 width="116.867px" height="116.868px" viewBox="0 0 116.867 116.868" enable-background="new 0 0 116.867 116.868"
	 xml:space="preserve">
<path d="M62.219,50.541c-0.082,0.094-0.164,0.196-0.221,0.308c-0.076,0.149,0.094,3.966,0.245,4.506
	c0.182,0.647,0.088,1.376,0.096,2.068c0.015,1.125,0.007,2.25,0.022,3.375c0.025,1.682,0.102,3.363,0.082,5.043
	c-0.018,1.539-0.15,3.074-0.199,4.613c-0.067,2.131-0.111,4.264-0.153,6.396c-0.044,2.275-0.043,4.547,0.339,6.801
	c0.147,0.864,0.73,1.445,1.358,1.944c0.38,0.3,0.907,0.413,1.372,0.606c0.203,0.082,0.41,0.152,0.617,0.225
	c0.084,0.031,0.176,0.082,0.261,0.074c0.802-0.062,1.604-0.129,2.405-0.209c0.375-0.039,0.535,0.14,0.549,0.481
	c0.041,1.144,0.054,2.289,0.121,3.433c0.027,0.474,0.182,0.948-0.116,1.383c-0.082,0.115-0.237,0.246-0.366,0.257
	c-1.867,0.138-3.734,0.262-5.602,0.38c-0.731,0.046-1.461,0.098-2.193,0.102c-0.232,0.002-0.466-0.145-0.795-0.252
	c-0.118,0.072-0.35,0.225-0.591,0.359c-0.06,0.033-0.159,0.044-0.222,0.02c-1.468-0.58-2.974-0.373-4.479-0.234
	c-0.674,0.062-1.354,0.061-2.03,0.089c-0.536,0.021-1.075,0.019-1.606,0.077c-0.497,0.054-0.809-0.151-1.171-0.482
	c-0.752-0.689-0.696-1.57-0.756-2.439c-0.043-0.633-0.067-1.269-0.101-1.901c-0.026-0.481,0.19-0.8,0.66-0.851
	c1.076-0.114,2.159-0.168,3.231-0.303c1.182-0.148,2.304-0.572,3.024-1.531c0.393-0.52,0.522-1.285,0.624-1.963
	c0.117-0.791,0.063-1.605,0.105-2.408c0.036-0.672,0.143-1.342,0.15-2.014c0.017-1.623-0.01-3.244-0.012-4.867
	c-0.001-0.945,0.019-1.89,0.019-2.836c0-0.613-0.018-1.225-0.029-1.84c-0.02-1.021-0.032-2.043-0.065-3.064
	c-0.034-1.035-0.138-2.072-0.126-3.107c0.019-1.453,0.13-2.908,0.175-4.362c0.025-0.812-0.036-1.626,0.001-2.437
	c0.03-0.68-0.062-1.384,0.483-1.982c0.165-0.18,0.136-0.715-0.011-0.966c-0.395-0.678-0.667-1.372-0.723-2.15
	c-0.061-0.846-0.702-1.155-1.321-1.542c-1.022-0.642-2.139-0.42-3.229-0.493c-0.577-0.038-1.151-0.125-1.728-0.187
	c-0.232-0.025-0.466-0.046-0.699-0.064c-0.481-0.037-0.775-0.267-0.811-0.739c-0.07-0.916-0.108-1.835-0.135-2.754
	c-0.017-0.525,0.024-1.052,0.02-1.579c-0.006-0.799,0.217-1.041,1.006-1.029c1.42,0.021,2.839,0.068,4.259,0.073
	c1.285,0.004,2.57-0.056,3.855-0.046c1.409,0.011,2.817,0.077,4.226,0.105"/>
<circle fill="none" stroke="#000000" stroke-width="5" stroke-miterlimit="10" cx="58.434" cy="58.434" r="55.934"/>
<circle cx="58.445" cy="24.678" r="7.779"/>
</svg>
