<?xml version="1.0" encoding="utf-8"?>
<!-- Generator: Adobe Illustrator 16.0.0, SVG Export Plug-In . SVG Version: 6.00 Build 0)  -->
<!DOCTYPE svg PUBLIC "-//W3C//DTD SVG 1.1//EN" "http://www.w3.org/Graphics/SVG/1.1/DTD/svg11.dtd">
<svg version="1.1" id="Layer_1" xmlns="http://www.w3.org/2000/svg" xmlns:xlink="http://www.w3.org/1999/xlink" x="0px" y="0px"
	 width="256.176px" height="113.332px" viewBox="0 0 256.176 113.332" enable-background="new 0 0 256.176 113.332"
	 xml:space="preserve">
<g>
	<path d="M214.583,43.794c-0.069,0.225-0.067,0.395,0.155,0.592c0.35,0.312,0.636,0.695,0.938,1.061
		c0.146,0.177,0.275,0.369,0.405,0.561c0.286,0.42,1.934,2.65,2.151,2.77c0.054,0.029,0.584,0.879,0.852,1.23
		c0.485,0.641,0.964,1.289,1.46,1.922c0.304,0.387,0.654,0.733,0.948,1.125c0.403,0.535,0.812,1.074,1.146,1.652
		c0.643,1.111,1.418,2.125,2.169,3.162c0.484,0.666,0.886,1.393,1.354,2.072c0.324,0.47,0.704,0.9,1.047,1.359
		c0.161,0.213,0.272,0.471,0.446,0.672c0.314,0.361,0.905,1.104,0.854,1.117c0.123,0.141,0.235,0.281,0.361,0.409
		c0.046,0.044,0.123,0.058,0.187,0.086c0.029-0.071,0.08-0.142,0.087-0.215c0.021-0.202,0.025-0.406,0.037-0.608
		c0.038-0.675,0.079-1.35,0.11-2.025c0.062-1.276,0.128-2.555,0.176-3.832c0.024-0.676,0.002-1.354,0.028-2.028
		c0.03-0.739,0.104-1.479,0.139-2.219c0.022-0.486,0.014-0.974,0.02-1.459c0.002-0.196-0.016-0.396,0.003-0.589
		c0.059-0.582-0.25-3.867-0.284-4.082c-0.082-0.533-0.148-1.07-0.239-1.604c-0.034-0.199-0.113-0.389-0.177-0.582
		c-0.206-0.625-0.779-0.834-1.27-1.144c-0.081-0.052-0.167-0.173-0.167-0.261c0.005-0.678,0.036-1.354,0.045-2.029
		c0.005-0.456,0.034-0.521,0.503-0.521c0.845-0.002,1.69,0.021,2.535,0.053c1.123,0.043,2.246,0.107,3.371,0.164
		c0.052,0.002,0.104,0.013,0.15,0.017c0,0.94,0,1.667,0,2.655c-0.175-0.086-1.483,0.057-1.549,0.093
		c-0.522,0.293-0.48,1.144-0.526,1.752c-0.033,0.437,0.059,4.524,0.058,5.155c-0.001,0.742,0.004,1.486-0.008,2.228
		c-0.006,0.349-0.064,0.698-0.072,1.048c-0.013,0.487-0.002,0.977-0.003,1.465c-0.001,0.527-0.005,1.055-0.007,1.582
		c-0.004,0.924-0.007,1.846-0.01,2.77c-0.007,1.518-0.025,3.035-0.016,4.552c0.003,0.714,0.067,1.427,0.093,2.14
		c0.019,0.5,0.046,1,0.016,1.496c-0.026,0.424-0.123,0.842-0.203,1.262c-0.009,0.049-0.112,0.113-0.175,0.115
		c-0.825,0.028-1.652,0.045-2.479,0.068c-0.242,0.008-0.479,0.053-0.719,0.043c-0.178-0.004-0.353-0.086-0.53-0.094
		c-0.186-0.008-0.374,0.027-0.56,0.055c-0.212,0.034-0.25-0.068-0.247-0.254c0.011-0.611,0.022-1.22,0.006-1.829
		c-0.012-0.417-0.031-0.843-0.127-1.243c-0.072-0.297-0.247-0.58-0.421-0.836c-0.416-0.613-0.86-1.207-1.293-1.807
		c-0.146-0.204-0.309-0.396-0.448-0.607c-0.191-0.287-0.374-0.584-0.553-0.881c-0.183-0.3-0.357-0.605-0.533-0.908
		c-0.218-0.381-0.415-0.777-0.659-1.142c-0.314-0.476-0.669-0.924-0.999-1.388c-0.372-0.528-0.733-1.064-1.104-1.594
		c-0.543-0.771-1.093-1.539-1.64-2.308c-0.261-0.368-0.527-0.729-0.781-1.101c-0.048-0.073-0.053-0.176-0.058-0.194
		c-0.152-0.155-0.277-0.259-0.376-0.388c-0.655-0.848-1.35-1.676-1.94-2.568c-0.312-0.471-0.753-0.781-1.112-1.189
		c-0.337-0.385-0.696-0.773-1.219-0.947c-0.152-0.051-0.257-0.233-0.406-0.311c-0.133-0.072-0.584-0.562-0.793-0.537
		c0.028,0.586,0.125,1.871,0.053,2.389c-0.177,1.298,0.06,2.584,0.002,3.875c-0.038,0.863-0.05,1.729-0.046,2.591
		c0.005,0.789,0.057,1.578,0.073,2.366c0.018,0.906-0.052,1.824,0.052,2.721c0.103,0.861,0.115,1.727,0.197,2.587
		c0.061,0.626,0.082,1.259,0.127,1.888c0.025,0.348,0.265,0.549,0.543,0.691c0.246,0.128,0.52,0.203,0.77,0.322
		c0.379,0.186,0.774,0.238,1.183,0.179c0.248-0.037,0.358,0.065,0.36,0.292c0.01,0.713,0.015,1.43-0.005,2.143
		c-0.002,0.07-0.175,0.188-0.271,0.193c-0.592,0.033-1.188,0.057-1.783,0.046c-0.707-0.012-1.413-0.067-2.122-0.09
		c-1.411-0.046-2.823-0.083-4.235-0.121c-0.245-0.006-0.331-0.09-0.31-0.358c0.068-0.877,0.109-1.758,0.152-2.64
		c0.008-0.181,0.064-0.278,0.257-0.286c0.332-0.01,0.672,0.008,0.995-0.056c0.988-0.192,1.467-0.802,1.358-1.845
		c-0.083-0.783-0.064-1.577-0.079-2.367c-0.015-0.871-0.027-1.744-0.016-2.614c0.009-0.706,0.059-1.409,0.088-2.114
		c0.034-0.889,0.083-1.777,0.093-2.666c0.006-0.562-0.059-1.125-0.074-1.688c-0.016-0.477,0.001-0.955-0.015-1.432
		c-0.008-0.273-0.078-0.545-0.064-0.814c0.015-0.328,0.097-0.65,0.127-0.979c0.022-0.25,0.014-0.506,0.016-0.76
		c0.001-0.267,0-0.533,0.001-0.801c0-0.01-0.001-0.021,0.003-0.027c0.357-0.44-0.197-0.754-0.165-1.154
		c0.014-0.146-0.051-0.301-0.03-0.444c0.071-0.541,0.113-1.089-0.239-1.538c-0.358-0.453-0.872-0.689-1.443-0.777
		c-0.203-0.031-0.408-0.031-0.61-0.051c-0.157-0.015-0.247-0.078-0.243-0.265c0.014-0.579,0.056-1.162,0.001-1.735
		c-0.033-0.357,0.05-0.695,0.045-1.041c-0.005-0.296,0.138-0.423,0.435-0.42c1.958,0.02,3.917,0.037,5.877,0.062
		c0.755,0.009,1.512,0.033,2.268,0.054c0.121,0.004,0.245-0.003,0.235,0.188c-0.031,0.75-0.048,1.502-0.091,2.252
		c-0.013,0.235-0.134,0.467,0.045,0.692c0.009,0.013-0.096,0.169-0.16,0.179C215.589,43.675,215.094,43.729,214.583,43.794z"/>
	<path d="M158.101,58.761c-0.083-0.388-0.15-0.479-0.542-0.476c-0.479,0.007-5.804-0.078-6.809-0.113
		c-0.638-0.021-0.643-0.024-0.841,0.587c-0.209,0.648-0.42,1.297-0.609,1.951c-0.364,1.268-0.712,2.537-1.07,3.805
		c-0.045,0.162-0.095,0.319-0.154,0.477c-0.184,0.49-0.011,0.777,0.412,1.117c0.17,0.137,0.379,0.231,0.586,0.31
		c0.164,0.062,0.25,0.157,0.253,0.32c0.021,0.755,0.039,1.511,0.047,2.267c0.002,0.174-0.034,0.35-0.056,0.521
		c-0.029,0.234-0.181,0.31-0.394,0.283c-0.365-0.045-0.729-0.133-1.096-0.14c-0.849-0.013-1.697,0.001-2.545,0.022
		c-0.569,0.015-1.141,0.066-1.712,0.086c-0.297,0.01-0.415-0.129-0.416-0.414c0-0.812-0.007-1.624-0.003-2.436
		c0.001-0.193,0.006-0.393,0.056-0.578c0.021-0.076,0.156-0.151,0.25-0.17c0.365-0.074,0.767-0.074,1.021-0.395
		c0.169-0.21,0.29-0.462,0.417-0.702c0.129-0.241,0.544-1.585,0.607-1.735c0.3-0.713,0.65-1.408,0.924-2.134
		c0.413-1.104,0.794-2.221,1.154-3.344c0.177-0.547,0.271-1.122,0.421-1.679c0.067-0.252,0.192-0.486,0.278-0.735
		c0.183-0.528,0.35-1.062,0.534-1.591c0.078-0.219,0.207-0.422,0.276-0.645c0.115-0.373,0.179-0.768,0.311-1.136
		c0.43-1.209,0.741-2.448,1.022-3.7c0.148-0.658,0.402-1.293,0.59-1.945c0.111-0.389,0.186-0.787,0.277-1.185
		c0.016-0.062,0.021-0.128,0.052-0.181c0.055-0.098,0.189-0.201,0.174-0.273c-0.053-0.236-0.093-0.543-0.258-0.673
		c-0.318-0.25-0.473-0.603-0.703-0.901c-0.235-0.303-0.505-0.526-0.845-0.685c-0.057-0.024-0.113-0.116-0.116-0.181
		c-0.027-0.625-0.052-1.25-0.06-1.877c-0.009-0.605,0-0.596,0.599-0.582c0.58,0.014,1.16-0.014,1.738,0.006
		c0.449,0.016,0.896,0.1,1.344,0.107c0.598,0.014,1.196-0.02,1.795-0.021c0.783-0.002,1.568-0.008,2.352,0.016
		c0.365,0.01,0.729,0.077,1.091,0.131c0.188,0.027,0.274,0.137,0.276,0.346c0.007,0.572,0.03,1.146,0.066,1.718
		c0.014,0.233-0.081,0.376-0.259,0.51c-0.407,0.312-0.733,0.276-1.133,0.599c-0.043,0.033-0.968,0.74-0.999,0.843
		c-0.056,0.435,0.129,0.96,0.134,1.001c0.034,0.27,0.055,0.541,0.12,0.8c0.106,0.407,0.242,0.806,0.372,1.205
		c0.047,0.147,0.124,0.284,0.176,0.429c0.131,0.362,0.254,0.727,0.384,1.09c0.102,0.283,1.573,5.275,1.754,5.933
		c0.235,0.86,1.981,7.141,2.259,8.214c0.115,0.443,0.231,0.889,0.387,1.318c0.32,0.888,0.9,1.502,1.751,1.922
		c0.125,0.061,0.245,0.146,0.375,0.178c0.317,0.076,0.379,0.3,0.399,0.579c0.038,0.507,0.093,1.013,0.143,1.519
		c0.025,0.25-0.081,0.403-0.329,0.408c-0.608,0.018-1.217,0.014-1.825,0.027c-0.535,0.016-1.069,0.054-1.605,0.068
		c-1.02,0.029-2.04,0.047-3.06,0.074c-0.147,0.004-0.208-0.049-0.197-0.189c0.032-0.438,0.083-0.873,0.092-1.311
		c0.005-0.216-0.053-0.433-0.094-0.648c-0.036-0.186-0.033-0.301,0.209-0.346c0.304-0.056,0.6-0.168,0.894-0.271
		c0.307-0.108,0.46-0.348,0.454-0.662c-0.014-0.617-0.025-1.237-0.087-1.85C159.039,62.952,158.228,59.353,158.101,58.761z
		 M154.036,46.955c-0.036,0.013-0.071,0.024-0.107,0.036c-0.063,0.181-0.114,0.365-0.192,0.54c-0.586,1.293-0.897,2.675-1.316,4.022
		c-0.248,0.797-0.467,1.604-0.705,2.403c-0.083,0.283-0.201,0.554-0.278,0.837c-0.073,0.27,0.062,0.453,0.32,0.458
		c0.657,0.015,1.316,0.017,1.975,0.037c0.498,0.015,0.995,0.06,1.491,0.069c0.604,0.013,1.207,0.002,1.844,0.002
		c-0.087-0.473-0.677-2.325-0.739-2.516c-0.15-0.463-0.299-0.926-0.466-1.382c-0.122-0.331-0.282-0.647-0.409-0.978
		C155.208,49.869,154.173,47.214,154.036,46.955z"/>
	<path d="M177.138,40.039c0.159-0.028,0.29-0.078,0.417-0.067c0.341,0.026,0.68,0.09,1.021,0.116
		c0.283,0.021,0.569,0.007,0.854,0.003c0.904-0.012,1.811-0.031,2.715-0.033c0.433,0,0.868,0.021,1.301,0.049
		c0.083,0.006,0.162,0.082,0.194,0.101c0.4-0.099,0.755-0.254,1.156-0.137c0.072,0.022,0.159,0.001,0.239-0.009
		c0.264-0.029,0.524-0.094,0.786-0.094c0.405,0.002,0.812,0.045,1.215,0.067c0.219,0.015,0.366,0.099,0.374,0.344
		c0.005,0.181,0.021,0.362-0.001,0.541c0.028,0.11,0.078,0.222,0.078,0.332c-0.005,0.958-0.019,1.918-0.03,2.878
		c-0.001,0.18,0.006,0.362-0.002,0.543c-0.009,0.25-0.142,0.35-0.561,0.385c-0.251,0.021-0.506,0.019-0.757,0.002
		c-0.485-0.032-0.971-0.069-1.452-0.133c-0.103-0.012-0.216-0.127-0.277-0.225c-0.213-0.335-0.34-0.752-0.62-1.01
		c-0.312-0.287-0.729-0.492-1.138-0.631c-0.915-0.307-1.872-0.424-2.828-0.27c-0.564,0.092-1.122,0.23-1.667,0.458
		c-0.464,0.194-0.714,0.575-1.068,0.854c-0.147,0.117-0.145,0.424-0.196,0.647c-0.004,0.019,0.078,2.248,0.09,2.515
		c0.037,0.854,0.081,1.709,0.086,2.563c0.002,0.474-0.079,0.949-0.098,1.424c-0.012,0.272,0.035,0.546,0.042,0.819
		c0.013,0.496,0.027,0.992,0.019,1.49c-0.015,0.912-0.05,1.824-0.07,2.736c-0.025,1.109-0.041,2.217-0.07,3.324
		c-0.014,0.453-0.046,0.904-0.085,1.354c-0.011,0.115-0.076,0.224-0.121,0.346c0.026,0.051,0.09,0.131,0.106,0.218
		c0.063,0.313,0.078,0.642,0.175,0.944c0.208,0.658,0.373,1.341,0.804,1.904c0.202,0.266,0.403,0.537,0.634,0.774
		c0.291,0.3,0.707,0.222,1.07,0.299c0.09,0.021,0.183,0.03,0.273,0.041c0.125,0.013,0.179,0.05,0.178,0.208
		c-0.001,0.672,0.031,1.344,0.039,2.016c0.003,0.416-0.015,0.832-0.029,1.248c-0.012,0.291-0.076,0.314-0.367,0.267
		c-0.271-0.045-0.55-0.038-0.825-0.065c-0.252-0.022-0.503-0.086-0.755-0.092c-0.424-0.005-0.849,0.028-1.273,0.031
		c-0.542,0.005-1.084,0.012-1.625-0.01c-0.271-0.01-0.537-0.088-0.808-0.11c-0.359-0.033-0.722-0.06-1.082-0.058
		c-0.451,0-0.902,0.019-1.354,0.052c-0.231,0.017-0.365-0.048-0.373-0.287c-0.021-0.642-0.035-1.283-0.053-1.924
		c-0.006-0.208,0.007-0.419-0.021-0.624c-0.034-0.256,0.037-0.371,0.3-0.407c0.229-0.028,0.458-0.052,0.687-0.09
		c0.593-0.097,1.113-0.628,1.138-1.237c0.038-0.963,0.024-1.928,0.048-2.892c0.003-0.159,0.092-0.315,0.157-0.522
		c-0.003-0.002-0.062-0.051-0.129-0.105c0-0.206-0.004-0.424,0-0.639c0.012-0.459-0.05-0.938,0.063-1.371
		c0.103-0.387-0.024-0.739,0.021-1.114c0.075-0.611,0-1.239,0.007-1.86c0.008-0.634,0.041-1.268,0.062-1.898
		c0.02-0.521,0.036-1.043,0.06-1.563c0.02-0.415,0.07-0.829,0.063-1.241c-0.01-0.746-0.062-1.49-0.074-2.234
		c-0.01-0.553,0.021-1.105,0.03-1.659c0.005-0.277-0.011-0.554,0.014-0.83c0.02-0.229,0.07-0.458,0.133-0.681
		c0.099-0.355-0.083-0.635-0.22-0.932c-0.059-0.121-0.125-0.238-0.173-0.363c-0.391-1.029-1.538-2.164-2.908-1.91
		c-0.334,0.063-0.681,0.099-0.996,0.216c-0.519,0.192-0.877,0.544-0.961,1.138c-0.079,0.553-0.195,0.525-0.57,0.521
		c-0.497-0.004-0.996,0.023-1.494,0.039c-0.466,0.014-0.529-0.043-0.52-0.504c0.017-0.877,0.049-1.752,0.053-2.629
		c0.002-0.396-0.034-0.795-0.075-1.189c-0.047-0.438,0.037-0.573,0.469-0.566c0.852,0.012,1.702,0.057,2.554,0.074
		c0.627,0.014,1.253,0.004,1.879,0.005c0.101,0.001,0.203,0.007,0.304,0.013c0.599,0.033,1.199,0.08,1.798,0.096
		c0.348,0.011,0.695-0.03,1.043-0.037c0.097-0.001,0.192,0.04,0.287,0.062c0.054,0.014,0.11,0.055,0.158,0.045
		c0.771-0.164,1.532,0.127,2.303,0.055C176.992,39.933,177.084,40.015,177.138,40.039z"/>
	<path d="M129.321,39.554c0,0.717,0.005,1.418-0.008,2.118c-0.002,0.087-0.088,0.197-0.166,0.255
		c-0.265,0.196-0.698,0.762-1.341,0.703c-0.177,0.024-0.1,0.932-0.188,1.454c0.034,0.132,0.028,0.437,0.016,0.877
		c-0.015,0.435-0.057,0.866-0.059,1.3c-0.007,1.154-0.001,2.31,0,3.463c0,0.494,0.059,0.996-0.007,1.48
		c-0.1,0.754,0.044,1.49,0.05,2.234c0.014,1.461-0.01,2.922-0.025,4.383c-0.011,0.855-0.044,1.711-0.049,2.566
		c-0.006,0.828,0.016,1.657,0.022,2.485c0.003,0.409-0.013,0.819,0.008,1.226c0.01,0.178,0.069,0.364,0.147,0.527
		c0.264,0.541,0.301,1.213,0.822,1.604c0.37,0.279,0.793,0.492,1.197,0.725c0.32,0.186,0.664,0.195,1.033,0.18
		c0.421-0.019,0.845,0.104,1.268,0.102c0.619,0,1.239-0.031,1.854-0.102c0.597-0.068,1.19-0.193,1.78-0.309
		c0.593-0.118,1.04-0.465,1.383-0.953c0.147-0.211,0.297-0.424,0.421-0.65c0.232-0.426,0.122-0.889,0.089-1.332
		c-0.049-0.677-0.444-1.084-1.098-1.252c-0.218-0.058-0.35-0.216-0.367-0.438c-0.031-0.396-0.044-0.793-0.063-1.188
		c-0.003-0.084,0.005-0.168,0.001-0.25c-0.006-0.152-0.066-0.406-0.012-0.436c0.181-0.092,0.403-0.139,0.609-0.137
		c0.739,0.004,1.479,0.048,2.22,0.055c0.618,0.005,1.235-0.016,1.854-0.031c0.216-0.005,0.34,0.092,0.354,0.299
		c0.044,0.709,0.09,1.418,0.105,2.127c0.003,0.145-0.082,0.352-0.193,0.426c-0.298,0.195-0.405,0.508-0.503,0.795
		c-0.247,0.727-0.379,1.48-0.354,2.257c0.026,0.836,0.027,1.672,0.062,2.508c0.011,0.224,0.093,0.449,0.162,0.667
		c0.089,0.285,0.025,0.413-0.271,0.436c-0.333,0.023-0.663,0.146-1.004-0.008c-0.093-0.041-0.244,0.067-0.369,0.071
		c-0.458,0.017-0.917,0.011-1.375,0.026c-0.305,0.009-0.605,0.052-0.91,0.06c-0.602,0.017-1.204,0.017-1.806,0.029
		c-0.121,0.002-2.428,0.026-3.02-0.015c-0.453-0.029-0.909-0.019-1.362-0.027c-0.248-0.004-0.497-0.014-0.745-0.01
		c-0.263,0.002-0.528,0.041-0.791,0.027c-0.354-0.021-0.705-0.092-1.057-0.117c-0.372-0.024-0.746-0.035-1.119-0.029
		c-1.021,0.021-2.041,0.06-3.062,0.074c-0.274,0.006-0.553-0.043-0.823-0.092c-0.073-0.014-0.179-0.119-0.185-0.188
		c-0.052-0.617-0.087-1.234-0.121-1.851c-0.014-0.252,0.093-0.4,0.334-0.535c0.454-0.252,0.941-0.443,1.327-0.834
		c0.32-0.324,0.452-0.715,0.587-1.109c0.101-0.292,0.119-0.615,0.156-0.926c0.062-0.52,0.112-1.039,0.158-1.559
		c0.014-0.14-0.008-0.281-0.011-0.421c-0.015-0.678-0.048-1.354-0.035-2.028c0.027-1.479,0.083-2.957,0.119-4.435
		c0.01-0.418-0.021-0.836-0.015-1.253c0.005-0.312,0.029-0.623,0.066-0.934c0.069-0.576-0.033-1.154,0.008-1.734
		c0.044-0.6,0.01-1.203,0.014-1.805c0.007-0.932,0.033-1.863,0.022-2.795c-0.007-0.532-0.091-1.062-0.109-1.594
		c-0.02-0.551-0.004-1.103-0.002-1.654c0-0.017,0.017-0.037,0.015-0.051c-0.016-0.125-0.08-0.269-0.037-0.365
		c0.043-0.098,0.19-0.148,0.293-0.221c-0.206-0.464-0.519-0.728-0.999-0.801c-0.293-0.045-0.578-0.154-0.872-0.213
		c-0.338-0.068-0.765-0.449-0.791-0.831c-0.038-0.55-0.021-1.106,0.003-1.657c0.01-0.234,0.274-0.425,0.523-0.436
		c0.547-0.02,1.092-0.057,1.637-0.049c0.643,0.013,1.283-0.039,1.93,0.043c0.47,0.06,2.375-0.209,2.513,0.043
		C129.185,39.558,129.282,39.547,129.321,39.554z"/>
	<path d="M203.829,43.905c-0.332,0-0.613,0.01-0.896-0.001c-0.563-0.024-1.126-0.062-1.689-0.089
		c-0.259-0.014-0.521-0.002-0.779-0.028c-0.079-0.009-0.149-0.106-0.257-0.19c0.038-0.002,0.006-0.006,0.005,0.002
		c-0.151,0.436-0.563,0.315-0.874,0.408c-0.131,0.038-0.259,0.076-0.39,0.108c-0.065,0.017-0.136,0.021-0.204,0.028
		c-0.045,0.004-0.106-0.015-0.129,0.008c-0.236,0.252-0.469,0.512-0.699,0.771c-0.048,0.056-0.096,0.114-0.128,0.179
		c-0.044,0.086,0.056,2.299,0.144,2.613c0.104,0.375,0.051,0.797,0.055,1.199c0.008,0.65,0.003,1.305,0.014,1.957
		c0.014,0.975,0.059,1.949,0.047,2.924c-0.01,0.893-0.088,1.782-0.114,2.674c-0.04,1.236-0.065,2.473-0.09,3.709
		c-0.025,1.318-0.025,2.635,0.196,3.943c0.085,0.501,0.423,0.839,0.788,1.127c0.221,0.174,0.526,0.24,0.794,0.352
		c0.118,0.049,0.238,0.09,0.358,0.133c0.05,0.017,0.102,0.045,0.152,0.041c0.466-0.037,0.929-0.073,1.393-0.121
		c0.218-0.021,0.312,0.082,0.318,0.279c0.024,0.664,0.03,1.328,0.071,1.989c0.017,0.276,0.105,0.552-0.067,0.804
		c-0.047,0.066-0.139,0.142-0.213,0.147c-1.083,0.081-2.166,0.149-3.248,0.219c-0.424,0.028-0.85,0.058-1.271,0.06
		c-0.136,0-0.271-0.084-0.462-0.146c-0.068,0.043-0.202,0.131-0.342,0.209c-0.036,0.02-0.092,0.025-0.129,0.012
		c-0.854-0.336-1.725-0.215-2.599-0.136c-0.39,0.037-0.783,0.034-1.176,0.052c-0.312,0.012-0.623,0.01-0.933,0.043
		c-0.287,0.031-0.468-0.086-0.678-0.277c-0.437-0.401-0.403-0.912-0.439-1.415c-0.025-0.366-0.039-0.734-0.058-1.103
		c-0.016-0.279,0.109-0.463,0.382-0.494c0.625-0.065,1.251-0.097,1.875-0.174c0.684-0.086,1.335-0.332,1.753-0.888
		c0.227-0.302,0.303-0.746,0.361-1.14c0.068-0.457,0.037-0.93,0.062-1.396c0.021-0.389,0.082-0.778,0.086-1.168
		c0.01-0.94-0.005-1.881-0.006-2.821c-0.001-0.547,0.011-1.097,0.011-1.644c0-0.354-0.01-0.711-0.017-1.067
		c-0.011-0.593-0.019-1.185-0.038-1.777c-0.021-0.602-0.08-1.201-0.073-1.801c0.011-0.844,0.076-1.687,0.103-2.53
		c0.014-0.472-0.021-0.943,0.001-1.414c0.017-0.394-0.037-0.802,0.279-1.149c0.096-0.104,0.079-0.414-0.006-0.561
		c-0.229-0.393-0.387-0.795-0.419-1.247c-0.036-0.49-0.407-0.668-0.766-0.894c-0.592-0.373-1.24-0.244-1.873-0.287
		c-0.334-0.022-0.667-0.071-1-0.108c-0.136-0.015-0.271-0.026-0.405-0.038c-0.28-0.021-0.45-0.154-0.471-0.43
		c-0.04-0.53-0.062-1.061-0.078-1.596c-0.009-0.304,0.014-0.608,0.012-0.916c-0.004-0.463,0.125-0.604,0.583-0.598
		c0.824,0.014,1.646,0.042,2.469,0.044c0.747,0.002,1.491-0.032,2.236-0.026c0.816,0.004,1.634,0.043,2.451,0.06
		c0.635,0.013,1.271,0.002,1.905,0.019c0.781,0.021,1.564,0.051,2.346,0.092c0.486,0.025,0.969,0.078,1.455,0.113
		c0.209,0.016,0.374-0.014,0.328,0.33c-0.048,0.342,0.091,0.705,0.087,1.059C203.925,42.579,203.869,43.213,203.829,43.905z"/>
	<path d="M256.175,52.655c0.006,0.609-0.03,1.22-0.053,1.83c-0.013,0.359,0.059,0.756-0.072,1.068
		c-0.118,0.285,0.089,0.58-0.118,0.828c-0.021,0.025,0.062,0.137,0.104,0.223c-0.058,0.027-0.113,0.054-0.195,0.09
		c0.041,0.064,0.076,0.123,0.113,0.179c-0.049,0.041-0.096,0.083-0.145,0.123c0.031,0.01,0.062,0.021,0.094,0.028
		c0.025,0.438,0.007,0.871-0.306,1.25c0.2,0.166,0.228,0.408,0.067,0.63c-0.015,0.021-0.052,0.04-0.049,0.056
		c0.102,0.656-0.223,1.25-0.273,1.883c-0.008,0.072-0.069,0.139-0.092,0.211c-0.027,0.098-0.045,0.195-0.062,0.293
		c-0.035,0.203,0.007,0.457-0.363,0.428c0.061,0.102,0.092,0.154,0.103,0.172c-0.073,0.171-0.139,0.322-0.204,0.475
		c-0.024-0.004-0.05-0.007-0.076-0.01c0.035,0.098,0.069,0.195,0.104,0.292c-0.022-0.008-0.046-0.017-0.068-0.022
		c-0.111,0.289-0.228,0.582-0.357,0.92c0.104,0.09,0.065,0.189-0.075,0.342c-0.067,0.072-0.146,0.281-0.145,0.369
		c0.014,0.389-0.292,0.595-0.438,0.886c-0.32,0.644-0.709,1.248-1.251,1.735c-0.448,0.403-0.897,0.809-1.37,1.186
		c-0.292,0.232-0.608,0.457-0.947,0.609c-1.387,0.619-2.821,1.06-4.368,0.97c-0.123-0.007-0.254-0.031-0.363-0.087
		c-0.271-0.137-0.551-0.151-0.851-0.139c-0.354,0.019-0.726,0.021-1.063-0.064c-0.278-0.072-0.546-0.258-0.78-0.438
		c-1.098-0.851-2.316-1.562-3.166-2.699c-0.219-0.293-0.409-0.61-0.585-0.932c-0.398-0.727-0.83-1.441-1.157-2.199
		c-0.36-0.832-0.791-1.631-1.025-2.527c-0.409-1.569-0.59-3.16-0.674-4.768c-0.057-1.113-0.099-2.229-0.088-3.344
		c0.007-0.635,0.134-1.27,0.201-1.902c0.037-0.347,0.026-0.699,0.099-1.037c0.134-0.644,0.28-1.287,0.479-1.91
		c0.127-0.402,0.331-0.781,0.577-1.139c0.161-0.233,0.179-0.564,0.309-0.828c0.169-0.338,0.382-0.656,0.587-0.977
		c0.02-0.031,0.113-0.018,0.157-0.021c0.079-0.176,0.165-0.373,0.251-0.569c0.514-1.153,1.484-1.894,2.412-2.673
		c0.348-0.295,0.726-0.529,1.122-0.758c0.406-0.236,0.855-0.33,1.243-0.545c0.656-0.363,1.375-0.412,2.07-0.556
		c0.399-0.081,0.841-0.147,1.269-0.007c0.132,0.043,0.301-0.038,0.443-0.012c0.581,0.102,1.159,0.197,1.665,0.556
		c0.21,0.147,0.514,0.158,0.757,0.269c0.323,0.146,0.661,0.291,0.938,0.508c0.227,0.177,0.408,0.387,0.723,0.371
		c0.429,0.473,0.983,0.817,1.33,1.381c0.215,0.35,0.552,0.621,0.803,0.951c0.209,0.273,0.386,0.576,0.555,0.875
		c0.305,0.545,0.62,1.084,0.884,1.647C255.327,46.968,256.176,50.629,256.175,52.655z M252.967,57.017
		c-0.023-0.176-0.062-0.301-0.056-0.424c0.025-0.478,0.076-0.951,0.097-1.429c0.021-0.481,0.028-0.962,0.023-1.442
		c-0.005-0.47-0.042-0.938-0.047-1.406c-0.004-0.729-0.022-1.455,0.021-2.18c0.029-0.517-0.709-2.709-0.779-3.022
		c-0.021-0.097-0.071-0.188-0.104-0.285c-0.114-0.347-0.193-0.708-0.348-1.034c-0.245-0.52-0.536-1.016-0.814-1.518
		c-0.241-0.438-0.603-0.776-1.016-1.041c-0.41-0.258-0.861-0.455-1.287-0.694c-0.161-0.091-0.299-0.224-0.414-0.313
		c-0.212-0.035-0.415-0.043-0.603-0.101c-0.554-0.171-1.089-0.347-1.692-0.153c-0.636,0.205-1.313,0.272-1.937,0.541
		c-0.097,0.041-1.244,0.592-1.479,0.823c-0.55,0.538-1.027,1.128-1.406,1.791c-0.284,0.505-0.544,1.026-0.762,1.563
		c-0.17,0.418-0.727,2.048-0.784,2.201c-0.152,0.406-0.23,0.853-0.271,1.289c-0.07,0.742-0.06,1.492-0.132,2.234
		c-0.117,1.158,0.02,2.305,0.125,3.449c0.062,0.666,0.234,1.322,0.342,1.982c0.11,0.69,0.188,1.387,0.304,2.074
		c0.077,0.461,0.193,0.916,0.297,1.374c0.034,0.154,0.078,0.304,0.124,0.453c0.031,0.101,0.074,0.198,0.11,0.294
		c0.208,0.475,0.414,0.95,0.648,1.408c0.369,0.725,0.576,1.538,1.097,2.18c0.275,0.34,0.454,0.784,0.897,0.975
		c0.018,0.009,0.032,0.053,0.027,0.072c-0.062,0.207,0.112,0.186,0.217,0.228c0.143,0.056,0.317,0.073,0.43,0.167
		c0.635,0.531,1.386,0.652,2.175,0.668c0.086,0.001,0.174,0.021,0.26,0.016c0.752-0.047,1.45-0.271,2.129-0.59
		c0.551-0.261,1.04-0.602,1.496-0.992c0.112-0.097,0.184-0.246,0.304-0.322c0.599-0.379,0.922-0.983,1.19-1.586
		c0.335-0.752,0.543-1.563,0.813-2.347c0.185-0.526,0.251-1.075,0.34-1.62c0.067-0.418-0.051-0.877,0.244-1.252
		c0.016-0.017-0.025-0.07-0.021-0.105c0.02-0.131,0.044-0.264,0.075-0.43c-0.006-0.316-0.002-0.67,0.158-1.019
		C252.721,57.31,252.799,57.146,252.967,57.017z"/>
</g>
<g>
	<g>
		<path d="M165.909,84.883c0.15-0.438,1.294-0.467,1.482-1.001c0.008,0.348,0.155,0.276,0.292,0.219
			c0.232-0.104,0.471-0.199,0.69-0.326c0.085-0.049,0.181-0.182,0.176-0.27c-0.038-0.751-0.1-1.502-0.147-2.168
			c-0.229-0.021-0.404-0.031-0.577-0.053c-0.09-0.014-0.174-0.066-0.262-0.074c-0.496-0.039-0.991-0.07-1.485-0.102
			c-0.683-0.043-1.363-0.106-2.049-0.114c-0.56-0.004-1.114,0.017-1.665-0.136c-0.086-0.024-0.293,0.1-0.312,0.184
			c-0.073,0.311-0.106,0.635-0.122,0.955c-0.017,0.35-0.009,0.699,0.013,1.048c0.021,0.324-0.083,0.651,0.204,0.957
			c0.165,0.177,0.278,0.364,0.533,0.415c0.107,0.021,0.206,0.085,0.317,0.133c-0.083,0.178-0.129,0.32-0.208,0.441
			c-0.378,0.589-0.764,1.176-1.154,1.758c-0.145,0.213-0.29,0.428-0.466,0.613c-0.488,0.521-1.004,1.018-1.486,1.541
			c-0.228,0.248-0.405,0.543-0.61,0.812c-0.041,0.053-0.107,0.084-0.167,0.121c-0.118,0.075-0.234,0.155-0.359,0.217
			c-0.076,0.038-0.17,0.063-0.253,0.061c-0.099-0.004-0.19-0.057-0.286-0.076c-0.158-0.035-0.313-0.059-0.173-0.28
			c0.024-0.042,0.023-0.141-0.007-0.174c-0.166-0.183-0.342-0.36-0.522-0.526c-0.105-0.1-0.295-0.15-0.336-0.264
			c-0.128-0.35-0.38-0.574-0.654-0.793c-0.067-0.055-0.134-0.119-0.186-0.189c-0.106-0.146-0.195-0.307-0.308-0.449
			c-0.16-0.209-0.342-0.404-0.502-0.612c-0.075-0.099-0.103-0.248-0.195-0.317c-0.646-0.486-1.097-1.134-1.534-1.797
			c-0.103-0.154-0.16-0.369-0.301-0.457c-0.241-0.152-0.4-0.318-0.391-0.603c0.041-0.039,0.12-0.077,0.125-0.122
			c0.022-0.246,0.04-0.493,0.031-0.74c-0.014-0.445-0.042-0.893-0.079-1.339c-0.009-0.101-0.063-0.276-0.118-0.284
			c-0.288-0.037-0.584-0.037-0.878-0.039c-0.093,0-0.187,0.037-0.276,0.027c-0.195-0.021-0.408-0.066-0.524,0.132
			c-0.127,0.214-0.266,0.261-0.376,0.052c-0.104-0.197-0.254-0.224-0.433-0.226c-0.903-0.013-1.808-0.028-2.707-0.029
			c-0.313-0.002-0.681-0.093-0.857,0.288c-0.095,0.203-0.144,0.43-0.208,0.646c-0.003,0.009,0.03,0.033,0.053,0.043
			c0.131,0.054,0.15,0.109,0.027,0.207c-0.047,0.035-0.051,0.125-0.083,0.216c0.115-0.027,0.183-0.042,0.308-0.071
			c-0.067,0.107-0.11,0.163-0.138,0.223c-0.043,0.106-0.126,0.228-0.104,0.324c0.048,0.241,0.144,0.473,0.191,0.618
			c0.271,0.112,1.729,0.172,1.929,0.261c0.574,0.256,2.558,2.119,2.558,2.119c0.256,0.314,1.425,2.032,1.648,2.27
			c0.413,0.438,0.849,0.855,1.271,1.283c0.018,0.02,0.023,0.051,0.041,0.07c0.292,0.369,0.566,0.752,0.884,1.098
			c0.25,0.273,0.556,0.496,0.831,0.748c0.33,0.301,0.652,0.606,0.979,0.908c0.242,0.227,0.49,0.444,0.728,0.676
			c0.199,0.2,0.386,0.412,0.596,0.639c0.058-0.088,0.094-0.18,0.114-0.176c0.276,0.049,0.355-0.199,0.494-0.336
			c0.209-0.209,0.387-0.447,0.58-0.668c0.618-0.713,1.234-1.422,1.852-2.134c0.155-0.18,0.299-0.372,0.46-0.548
			c0.264-0.293,0.529-0.584,0.807-0.863c0.313-0.318,1.516-1.947,1.853-2.242C164.474,86.603,165.688,85.204,165.909,84.883z"/>
		<path d="M159.72,91.254c-0.014,0.263-0.026,1.455-0.023,1.79c0.009,0.464,0.058,0.932,0.067,1.396
			c0.005,0.295-0.043,0.593-0.033,0.889c0.016,0.49,0.071,0.982,0.081,1.477c0.008,0.291-0.043,0.582-0.066,0.873
			c-0.009,0.082-0.032,0.162-0.032,0.245c0.005,0.361,0.013,0.728,0.023,1.091c0.018,0.43-0.014,0.869,0.068,1.291
			c0.132,0.662,0.104,1.323,0.127,1.984c0.023,0.646,0.072,1.296,0.03,1.941c-0.033,0.522,0.144,1.026,0.146,1.545
			c0.002,0.072,0.002,0.148-0.021,0.22c-0.084,0.284,0.021,0.465,0.248,0.721c0.414,0.466,0.955,0.536,1.525,0.63
			c0.478,0.08,0.513,0.149,0.494,0.553c-0.02,0.488,0.021,0.978,0.036,1.466c0.001,0.063,0.031,0.131,0.016,0.19
			c-0.048,0.188,0.014,0.289,0.191,0.256c0.062,0.188,0.106,0.352,0.172,0.512c0.106,0.253,0.031,0.293-0.265,0.402
			c-0.458,0.17-0.929,0.201-1.415,0.238c-0.583,0.045-1.149,0.061-1.733-0.054c-0.462-0.093-0.949-0.099-1.426-0.119
			c-0.867-0.04-1.734-0.063-2.658-0.097c-0.062-1.178-0.12-2.314-0.18-3.459c0.229-0.021,0.452-0.051,0.675-0.059
			c0.751-0.031,1.069-0.441,1.23-0.996c0.108-0.367,0.121-0.727,0.063-1.113c-0.076-0.508,0.013-1.031,0-1.549
			c-0.023-1.123-0.071-2.246-0.105-3.369c-0.011-0.312-0.016-0.625-0.008-0.938c0.001-0.064,0.074-0.125,0.114-0.188
			c-0.182-0.162-0.188-0.312-0.076-0.518c0.07-0.128-0.005-0.312-0.003-0.47c0.007-0.531,0.021-1.06,0.032-1.589
			c0.016-0.643,0.136-1.295,0.025-1.924c-0.147-0.844-0.104-1.685-0.157-2.525C156.857,91.517,159.72,91.254,159.72,91.254z"/>
	</g>
	<path d="M178.595,96.806c0.729-0.064-1.119-0.229-1.4,0.133c-0.038,0.049-0.039,0.14-0.038,0.209c0.021,1.082,0.06,2.16,0.065,3.24
		c0.007,1.236-0.028,2.475-0.014,3.711c0.004,0.383,0.141,0.762,0.167,1.146c0.029,0.448,0.262,0.81,0.486,1.157
		c0.112,0.172,0.38,0.263,0.597,0.347c0.273,0.108,0.566,0.174,0.881,0.269c-0.027,0.062-0.052,0.117-0.073,0.166
		c0.339,0.414,0.339,0.414-0.077,0.5c0.062,0.157,0.116,0.305,0.174,0.451c0.012,0.024,0.055,0.053,0.05,0.062
		c-0.104,0.234-0.013,0.463,0.009,0.693c0.011,0.123-0.03,0.25-0.035,0.375c-0.009,0.188-0.005,0.377-0.006,0.564
		c0,0.062-0.011,0.13,0.003,0.189c0.085,0.351,0.041,0.426-0.303,0.422c-1.47-0.02-2.938-0.049-4.403-0.071
		c-0.36-0.004-0.722,0.028-1.081,0.019c-0.196-0.006-0.395-0.058-0.583-0.113c-0.06-0.017-0.135-0.113-0.136-0.176
		c-0.019-0.578-0.028-1.154-0.022-1.731c0.003-0.329,0.018-0.661,0.069-0.988c0.02-0.112,0.158-0.224,0.263-0.305
		c0.113-0.091,0.252-0.15,0.383-0.22c0.54-0.291,0.641-0.842,0.808-1.354c0.35-1.072,0.271-2.191,0.319-3.295
		c0.031-0.717,0.008-1.436-0.005-2.154c-0.002-0.142-0.083-0.279-0.098-0.422c-0.014-0.117,0.021-0.244,0.021-0.363
		c-0.002-0.108-0.042-0.218-0.036-0.326c0.022-0.637,0.078-1.272,0.076-1.908c-0.001-0.676-0.06-1.352-0.083-2.025
		c-0.016-0.389-0.012-0.777-0.021-1.167c-0.013-0.473-0.027-0.95-0.053-1.426c-0.038-0.677-0.104-1.351-0.128-2.028
		c-0.022-0.641,0.01-1.283-0.008-1.925c-0.012-0.448-0.066-0.896-0.096-1.343c-0.027-0.46-0.038-0.92-0.072-1.381
		c-0.033-0.467-0.059-0.939-0.146-1.395c-0.031-0.148-0.231-0.285-0.384-0.383c-0.196-0.131-0.42-0.227-0.638-0.324
		c-0.061-0.029-0.138-0.029-0.208-0.027c-0.38,0.013-0.566-0.154-0.604-0.529c-0.024-0.247-0.1-0.494-0.088-0.74
		c0.018-0.406,0.074-0.814,0.135-1.218c0.028-0.179,0.177-0.249,0.351-0.251c0.075,0,0.152,0.016,0.225,0.001
		c0.792-0.146,1.584-0.085,2.381-0.046c1.071,0.052,2.144,0.068,3.215,0.1c0.543,0.014,1.086,0.023,1.632,0.038
		c0.391,0.009,0.75,0.093,1.113,0.267c0.325,0.156,0.71,0.19,1.072,0.252c0.527,0.088,0.967,0.35,1.386,0.658
		c0.421,0.31,0.849,0.611,1.26,0.936c0.17,0.132,0.302,0.314,0.46,0.484c-0.023,0.049-0.06,0.119-0.104,0.207
		c0.063,0.024,0.11,0.057,0.159,0.059c0.267,0.014,0.348,0.191,0.396,0.418c0.102,0.465,0.219,0.926,0.319,1.393
		c0.117,0.547,0.226,1.098,0.332,1.647c0.04,0.196,0.124,0.417,0.071,0.593c-0.08,0.275,0.062,0.512,0.038,0.771
		c-0.023,0.265,0.04,0.543-0.011,0.799c-0.076,0.389-0.216,0.765-0.334,1.144c-0.058,0.185-0.132,0.366-0.193,0.55
		c-0.074,0.229-0.134,0.459-0.218,0.682c-0.086,0.229-0.173,0.462-0.296,0.67c-0.155,0.268-0.261,0.556-0.386,0.836
		c-0.008,0.018-0.003,0.045-0.015,0.054c-0.263,0.197-0.3,0.554-0.578,0.761c-0.424,0.312-0.784,0.709-1.198,1.037
		c-0.513,0.406-1.016,0.842-1.7,1.016C180.593,96.702,177.866,96.87,178.595,96.806z M180.26,92.88
		c0.057,0.003,0.105,0.021,0.146,0.01c0.389-0.125,0.786-0.225,1.152-0.395c0.3-0.141,0.572-0.348,0.823-0.564
		c0.16-0.14,0.273-0.338,0.377-0.529c0.231-0.424,0.48-0.846,0.654-1.297s0.271-0.934,0.391-1.404
		c0.131-0.504,0.138-1.016-0.046-1.5c-0.197-0.523-0.417-1.045-0.688-1.536c-0.234-0.427-0.438-0.905-0.896-1.159
		c-0.456-0.253-0.932-0.475-1.401-0.703c-0.14-0.068-0.296-0.107-0.48-0.175c-0.018,0.009-0.102,0.093-0.178,0.084
		c-0.567-0.053-1.136-0.126-1.705-0.183c-0.422-0.043-0.843-0.102-1.265-0.098s-0.511,0.131-0.51,0.547
		c0.001,0.506-0.01,1.016,0.015,1.522c0.062,1.345-0.004,2.694,0.148,4.036c0.026,0.236,0.002,0.48,0.021,0.719
		c0.074,0.852,0.162,1.703,0.235,2.555c0.015,0.149,0.054,0.24,0.215,0.27c0.732,0.132,1.466,0.057,2.197,0.029
		c0.177-0.008,0.419-0.129,0.515-0.053C180.265,93.284,180.206,93.031,180.26,92.88z"/>
	<path d="M209.542,93.5c0.006,0.622-0.032,1.245-0.055,1.868c-0.013,0.37,0.059,0.772-0.074,1.093
		c-0.121,0.291,0.092,0.59-0.12,0.844c-0.021,0.026,0.063,0.139,0.104,0.227c-0.059,0.029-0.118,0.057-0.2,0.095
		c0.041,0.065,0.079,0.124,0.114,0.181c-0.046,0.043-0.097,0.086-0.146,0.127c0.032,0.01,0.062,0.02,0.097,0.028
		c0.026,0.448,0.006,0.89-0.313,1.276c0.204,0.168,0.232,0.416,0.071,0.643c-0.017,0.021-0.054,0.042-0.051,0.059
		c0.104,0.67-0.228,1.275-0.281,1.922c-0.005,0.074-0.067,0.142-0.092,0.217c-0.028,0.098-0.046,0.199-0.063,0.299
		c-0.036,0.208,0.007,0.467-0.371,0.438c0.062,0.103,0.095,0.156,0.104,0.174c-0.075,0.175-0.142,0.33-0.208,0.486
		c-0.026-0.004-0.052-0.009-0.078-0.011c0.034,0.099,0.071,0.198,0.106,0.298c-0.022-0.008-0.048-0.017-0.071-0.023
		c-0.114,0.298-0.229,0.596-0.365,0.939c0.105,0.094,0.066,0.194-0.077,0.35c-0.068,0.074-0.147,0.287-0.146,0.375
		c0.013,0.397-0.299,0.609-0.446,0.906c-0.329,0.656-0.724,1.274-1.275,1.771c-0.459,0.414-0.92,0.826-1.401,1.21
		c-0.299,0.239-0.62,0.467-0.967,0.623c-1.417,0.632-2.881,1.082-4.461,0.991c-0.125-0.008-0.26-0.032-0.37-0.088
		c-0.279-0.141-0.562-0.155-0.868-0.142c-0.362,0.017-0.741,0.021-1.085-0.065c-0.287-0.074-0.557-0.264-0.799-0.449
		c-1.12-0.867-2.364-1.592-3.231-2.754c-0.224-0.301-0.419-0.623-0.598-0.952c-0.408-0.741-0.848-1.472-1.184-2.247
		c-0.367-0.85-0.808-1.664-1.046-2.579c-0.419-1.603-0.604-3.229-0.688-4.87c-0.061-1.137-0.102-2.275-0.09-3.412
		c0.007-0.648,0.138-1.297,0.205-1.945c0.038-0.352,0.026-0.713,0.099-1.057c0.137-0.656,0.286-1.314,0.49-1.951
		c0.131-0.41,0.338-0.797,0.592-1.162c0.165-0.239,0.182-0.578,0.315-0.844c0.172-0.348,0.39-0.672,0.599-0.998
		c0.021-0.033,0.114-0.017,0.159-0.021c0.081-0.183,0.169-0.382,0.258-0.582c0.523-1.179,1.517-1.933,2.462-2.731
		c0.356-0.3,0.741-0.539,1.146-0.775c0.411-0.239,0.872-0.336,1.27-0.555c0.67-0.371,1.406-0.42,2.114-0.565
		c0.406-0.083,0.857-0.151,1.295-0.007c0.134,0.043,0.306-0.039,0.453-0.014c0.593,0.106,1.184,0.202,1.701,0.569
		c0.213,0.151,0.522,0.16,0.771,0.272c0.331,0.149,0.676,0.299,0.959,0.519c0.229,0.181,0.415,0.396,0.736,0.379
		c0.438,0.481,1.004,0.834,1.357,1.411c0.223,0.355,0.563,0.635,0.819,0.971c0.213,0.278,0.393,0.586,0.564,0.895
		c0.312,0.555,0.635,1.107,0.902,1.682C208.677,87.689,209.542,91.429,209.542,93.5z M206.265,97.954
		c-0.024-0.181-0.064-0.308-0.057-0.435c0.025-0.486,0.078-0.972,0.1-1.457c0.021-0.492,0.029-0.983,0.023-1.475
		c-0.004-0.48-0.043-0.958-0.049-1.438c-0.005-0.741-0.022-1.484,0.021-2.225c0.032-0.527-0.723-2.764-0.794-3.087
		c-0.021-0.101-0.074-0.192-0.106-0.291c-0.116-0.353-0.196-0.722-0.354-1.056c-0.251-0.529-0.547-1.036-0.832-1.549
		c-0.247-0.448-0.614-0.793-1.037-1.061c-0.419-0.266-0.879-0.467-1.313-0.711c-0.165-0.093-0.305-0.229-0.425-0.318
		c-0.216-0.035-0.422-0.045-0.613-0.104c-0.565-0.175-1.11-0.354-1.729-0.156c-0.649,0.209-1.342,0.277-1.978,0.553
		c-0.101,0.041-1.271,0.604-1.511,0.84c-0.562,0.551-1.051,1.15-1.436,1.828c-0.292,0.515-0.558,1.049-0.78,1.597
		c-0.175,0.428-0.743,2.092-0.8,2.249c-0.156,0.414-0.236,0.869-0.278,1.314c-0.068,0.758-0.057,1.523-0.134,2.282
		c-0.118,1.183,0.021,2.353,0.13,3.522c0.062,0.681,0.239,1.349,0.349,2.025c0.11,0.704,0.191,1.414,0.311,2.119
		c0.078,0.471,0.196,0.934,0.304,1.4c0.034,0.156,0.08,0.311,0.127,0.463c0.031,0.104,0.074,0.201,0.112,0.301
		c0.213,0.484,0.422,0.971,0.661,1.438c0.378,0.74,0.589,1.57,1.121,2.226c0.281,0.349,0.464,0.8,0.916,0.996
		c0.018,0.008,0.034,0.054,0.026,0.071c-0.063,0.213,0.113,0.191,0.222,0.234c0.146,0.057,0.325,0.072,0.438,0.17
		c0.649,0.541,1.416,0.668,2.223,0.682c0.089,0.002,0.177,0.023,0.265,0.018c0.767-0.048,1.479-0.277,2.175-0.604
		c0.562-0.268,1.062-0.613,1.528-1.014c0.111-0.098,0.186-0.25,0.309-0.328c0.61-0.389,0.941-1.004,1.215-1.619
		c0.345-0.77,0.557-1.598,0.832-2.397c0.188-0.538,0.258-1.097,0.349-1.655c0.066-0.427-0.054-0.895,0.249-1.277
		c0.015-0.018-0.028-0.072-0.022-0.105c0.019-0.136,0.044-0.271,0.074-0.441c-0.005-0.322,0-0.684,0.165-1.039
		C206.013,98.252,206.094,98.083,206.265,97.954z"/>
	<path d="M133.697,81.379c0.157-0.028,0.288-0.077,0.414-0.067c0.344,0.026,0.682,0.092,1.023,0.115
		c0.282,0.021,0.566,0.006,0.852,0.004c0.904-0.012,1.811-0.031,2.714-0.033c0.437,0,0.868,0.021,1.303,0.049
		c0.084,0.005,0.163,0.082,0.194,0.1c0.4-0.098,0.753-0.252,1.154-0.136c0.073,0.022,0.161,0.003,0.241-0.007
		c0.262-0.032,0.522-0.096,0.785-0.096c0.404,0.002,0.811,0.045,1.215,0.067c0.219,0.013,0.367,0.099,0.374,0.345
		c0.008,0.182,0.021,0.36,0,0.541c0.026,0.109,0.077,0.221,0.077,0.33c-0.005,0.958-0.019,1.92-0.028,2.879
		c-0.003,0.18,0.004,0.361-0.003,0.543c-0.01,0.252-0.142,0.35-0.562,0.385c-0.251,0.021-0.507,0.02-0.758,0.002
		c-0.484-0.029-0.971-0.069-1.452-0.131c-0.102-0.014-0.216-0.129-0.276-0.226c-0.213-0.336-0.34-0.753-0.619-1.011
		c-0.312-0.286-0.73-0.491-1.139-0.629c-0.915-0.307-1.871-0.424-2.827-0.27c-0.564,0.092-1.121,0.23-1.667,0.458
		c-0.464,0.194-0.715,0.575-1.069,0.856c-0.146,0.115-0.144,0.423-0.195,0.646c-0.005,0.018,0.077,2.25,0.091,2.514
		c0.034,0.855,0.079,1.709,0.086,2.563c0.002,0.476-0.08,0.95-0.1,1.425c-0.011,0.272,0.035,0.547,0.043,0.819
		c0.014,0.497,0.026,0.995,0.019,1.489c-0.016,0.914-0.049,1.824-0.069,2.738c-0.026,1.107-0.042,2.217-0.072,3.324
		c-0.012,0.451-0.046,0.902-0.084,1.354c-0.011,0.115-0.077,0.225-0.122,0.347c0.027,0.052,0.091,0.129,0.107,0.216
		c0.063,0.315,0.079,0.643,0.175,0.945c0.207,0.658,0.373,1.341,0.804,1.904c0.201,0.267,0.403,0.535,0.636,0.774
		c0.29,0.302,0.706,0.222,1.069,0.3c0.091,0.02,0.182,0.028,0.274,0.039c0.124,0.016,0.176,0.053,0.176,0.209
		c-0.001,0.67,0.031,1.346,0.039,2.016c0.003,0.416-0.015,0.832-0.031,1.248c-0.01,0.291-0.073,0.316-0.364,0.267
		c-0.271-0.044-0.552-0.038-0.826-0.065c-0.253-0.023-0.504-0.086-0.756-0.09c-0.425-0.008-0.85,0.025-1.272,0.029
		c-0.543,0.006-1.085,0.012-1.626-0.009c-0.271-0.011-0.537-0.087-0.808-0.112c-0.359-0.031-0.721-0.059-1.08-0.059
		c-0.452,0-0.903,0.02-1.354,0.053c-0.229,0.016-0.365-0.049-0.373-0.288c-0.021-0.642-0.036-1.282-0.053-1.922
		c-0.005-0.209,0.006-0.42-0.021-0.626c-0.034-0.255,0.036-0.371,0.301-0.405c0.229-0.03,0.458-0.053,0.685-0.09
		c0.596-0.099,1.114-0.629,1.14-1.237c0.036-0.965,0.023-1.929,0.048-2.893c0.004-0.158,0.093-0.314,0.156-0.523
		c-0.002-0.002-0.062-0.051-0.129-0.104c0-0.206-0.004-0.423,0.002-0.64c0.012-0.459-0.052-0.938,0.062-1.371
		c0.102-0.387-0.024-0.739,0.021-1.114c0.073-0.611,0-1.24,0.008-1.861c0.009-0.632,0.038-1.266,0.062-1.897
		c0.019-0.521,0.036-1.043,0.06-1.564c0.019-0.414,0.068-0.826,0.063-1.242c-0.01-0.744-0.063-1.488-0.076-2.232
		c-0.009-0.553,0.021-1.106,0.032-1.66c0.005-0.277-0.011-0.555,0.014-0.829c0.021-0.228,0.07-0.458,0.132-0.681
		c0.101-0.354-0.083-0.635-0.221-0.932c-0.057-0.123-0.124-0.24-0.172-0.365c-0.391-1.029-1.538-2.164-2.907-1.91
		c-0.335,0.063-0.682,0.101-0.997,0.216c-0.519,0.194-0.877,0.544-0.961,1.138c-0.079,0.555-0.192,0.526-0.569,0.523
		c-0.497-0.006-0.995,0.021-1.493,0.037c-0.467,0.015-0.529-0.043-0.521-0.504c0.019-0.875,0.05-1.752,0.055-2.629
		c0.002-0.396-0.035-0.795-0.077-1.188c-0.044-0.438,0.038-0.573,0.47-0.565c0.851,0.01,1.701,0.055,2.553,0.073
		c0.626,0.013,1.253,0.003,1.88,0.007c0.102,0,0.203,0.006,0.303,0.012c0.602,0.031,1.2,0.078,1.8,0.095
		c0.347,0.009,0.696-0.031,1.043-0.039c0.096,0,0.191,0.039,0.287,0.063c0.054,0.014,0.109,0.055,0.157,0.045
		c0.771-0.164,1.532,0.127,2.304,0.053C133.549,81.275,133.644,81.355,133.697,81.379z"/>
</g>
<path d="M113.331,56.665c0,31.295-25.371,56.667-56.667,56.667C25.37,113.332,0,87.96,0,56.665C0.001,25.37,25.371,0,56.665,0
	C87.96,0,113.331,25.37,113.331,56.665z M34.265,17.758c-0.293-0.543-4.354,0.029-5.356-0.098c-1.378-0.174-2.743-0.063-4.113-0.088
	c-1.162-0.021-2.325,0.062-3.487,0.104c-0.531,0.018-1.096,0.422-1.119,0.924c-0.05,1.176-0.086,2.361-0.005,3.531
	c0.056,0.816,0.964,1.624,1.688,1.773c0.625,0.125,1.229,0.358,1.857,0.455c1.024,0.156,1.69,0.715,2.127,1.705
	c-0.217,0.152-0.532,0.264-0.624,0.474c-0.09,0.205,0.046,0.51,0.078,0.772c0.006,0.035-0.029,0.078-0.029,0.114
	c-0.003,1.174-0.039,2.351,0.003,3.523c0.041,1.135,0.219,2.263,0.232,3.396c0.026,1.986-0.031,3.972-0.045,5.959
	c-0.012,1.284,0.062,2.568-0.032,3.846c-0.088,1.238,0.135,2.465-0.016,3.699c-0.083,0.658-0.131,1.321-0.144,1.985
	c-0.015,0.89,0.051,1.781,0.029,2.674c-0.075,3.148-0.192,6.296-0.252,9.451c-0.027,1.441,0.045,2.877,0.074,4.319
	c0.007,0.3,0.051,0.601,0.023,0.898c-0.098,1.109-0.208,2.218-0.338,3.326c-0.079,0.662-0.118,1.347-0.333,1.974
	c-0.287,0.838-0.567,1.675-1.25,2.361c-0.822,0.832-1.862,1.242-2.832,1.779c-0.514,0.285-0.738,0.603-0.71,1.14
	c0.073,1.314,0.147,2.633,0.258,3.944c0.013,0.149,0.236,0.375,0.393,0.404c0.578,0.104,1.17,0.207,1.755,0.197
	c2.176-0.028,4.351-0.114,6.528-0.157c0.793-0.017,1.59,0.008,2.381,0.062c0.753,0.053,1.499,0.203,2.253,0.248
	c0.559,0.032,1.123-0.052,1.686-0.058c0.529-0.011,1.058,0.013,1.585,0.022c0.969,0.016,1.938-0.006,2.903,0.056
	c1.266,0.087,6.181,0.038,6.438,0.032c1.283-0.024,2.565-0.028,3.851-0.062c0.644-0.021,1.29-0.11,1.937-0.129
	c0.979-0.032,1.955-0.022,2.932-0.053c0.266-0.013,0.587-0.242,0.786-0.154c0.727,0.324,1.43,0.069,2.139,0.013
	c0.629-0.045,0.765-0.32,0.575-0.925c-0.146-0.463-0.322-0.941-0.344-1.42c-0.074-1.781-0.075-3.564-0.133-5.345
	c-0.053-1.656,0.229-3.261,0.756-4.81c0.208-0.609,0.437-1.279,1.07-1.695c0.24-0.159,0.42-0.601,0.414-0.908
	c-0.034-1.51-0.131-3.022-0.225-4.534c-0.028-0.44-0.294-0.649-0.752-0.639c-1.318,0.035-2.636,0.08-3.952,0.068
	c-1.577-0.013-3.154-0.107-4.729-0.116c-0.44-0.001-0.917,0.095-1.3,0.291c-0.118,0.06,0.014,0.605,0.026,0.926
	c0.007,0.177-0.009,0.354,0,0.534c0.039,0.844,0.065,1.692,0.132,2.533c0.036,0.475,0.317,0.809,0.783,0.93
	c1.392,0.363,2.23,1.23,2.339,2.673c0.068,0.942,0.304,1.931-0.191,2.838c-0.263,0.481-0.58,0.935-0.898,1.386
	c-0.729,1.039-1.681,1.778-2.946,2.029c-1.259,0.248-2.521,0.514-3.794,0.658c-1.309,0.151-2.632,0.215-3.949,0.219
	c-0.9,0.005-1.806-0.257-2.703-0.222c-0.786,0.035-1.517,0.015-2.199-0.378c-0.863-0.496-1.763-0.949-2.554-1.543
	c-1.108-0.834-1.188-2.265-1.749-3.417c-0.167-0.346-0.295-0.744-0.315-1.125c-0.046-0.869-0.009-1.745-0.018-2.617
	c-0.014-1.762-0.061-3.527-0.052-5.292c0.012-1.824,0.085-3.646,0.105-5.472c0.034-3.113,0.084-6.225,0.056-9.338
	c-0.011-1.588-0.321-3.158-0.108-4.765c0.141-1.035,0.018-2.103,0.016-3.153c-0.003-2.46-0.018-4.921,0-7.382
	c0.006-0.922,0.094-1.845,0.123-2.767c0.028-0.941,0.043-1.595-0.031-1.872c0.189-1.11,0.019-3.049,0.399-3.101
	c1.369,0.125,2.292-1.08,2.856-1.498c0.166-0.123,0.35-0.357,0.354-0.543c0.028-1.492,0.017-2.986,0.017-4.515
	C34.511,17.803,34.302,17.826,34.265,17.758z M77.592,39.132c-1.641,0.176-3.271-0.42-4.91-0.049
	c-0.101,0.02-0.223-0.066-0.337-0.094c-0.203-0.047-0.41-0.127-0.614-0.121c-0.741,0.02-1.479,0.119-2.221,0.106
	c-1.277-0.018-2.557-0.098-3.835-0.15c-0.217-0.01-0.434-0.022-0.648-0.02c-1.333,0.014-5.182,0.086-6.514,0.078
	c-1.815-0.013-3.629-0.086-5.444-0.086c-0.92,0-1.092,0.289-0.982,1.224c0.099,0.838,0.188,1.684,0.196,2.529
	c0.016,1.866-0.026,3.738-0.039,5.605c-0.005,0.982,0.131,1.1,1.125,1.057c1.062-0.045,2.12-0.119,3.181-0.123
	c0.802,0,1.049,0.053,1.2-1.13c0.163-1.266,0.916-2.024,2.016-2.451c0.668-0.26,3.916-0.376,4.627-0.521
	c2.912-0.582,5.393,1.802,6.253,3.984c0.104,0.267,0.252,0.516,0.377,0.775c0.303,0.623,0.698,1.216,0.496,1.978
	c-0.125,0.473-0.227,0.966-0.262,1.454c-0.044,0.586-0.003,1.178-0.006,1.766c-0.006,1.179-0.056,2.361-0.02,3.54
	c0.046,1.586,0.184,3.17,0.227,4.757c0.023,0.881-0.073,1.767-0.103,2.646c-0.035,1.113-0.057,2.224-0.081,3.334
	c-0.028,1.351-0.077,2.701-0.076,4.052c0.001,1.324,0.179,2.659,0.037,3.963c-0.085,0.799,0.194,1.549-0.012,2.377
	c-0.232,0.923-0.087,1.943-0.096,2.922c-0.006,0.461,0.01,0.924,0.016,1.364c0.146,0.112,0.272,0.216,0.277,0.218
	c-0.133,0.446-0.314,0.785-0.32,1.119c-0.022,2.055,0.035,4.111-0.018,6.166c-0.034,1.295-1.127,2.446-2.391,2.672
	c-0.482,0.086-0.974,0.143-1.46,0.213c-0.559,0.08-0.707,0.33-0.627,0.871c0.062,0.436,0.045,0.889,0.062,1.331
	c0.056,1.365,0.104,2.732,0.168,4.097c0.022,0.51,0.312,0.646,0.804,0.604c0.957-0.083,1.92-0.135,2.882-0.15
	c0.768-0.013,1.539,0.032,2.304,0.092c0.577,0.043,1.148,0.203,1.726,0.215c1.153,0.027,2.31-0.002,3.463-0.026
	c0.905-0.024,1.811-0.106,2.714-0.103c0.539,0,1.073,0.127,1.612,0.175c0.586,0.051,1.182,0.024,1.762,0.114
	c0.621,0.094,0.758,0.041,0.773-0.58c0.02-0.885,0.049-1.775,0.026-2.658c-0.033-1.43-0.124-2.865-0.14-4.297
	c-0.005-0.334-0.115-0.41-0.384-0.438c-0.194-0.02-0.393-0.041-0.584-0.074c-0.778-0.158-1.663,0.022-2.289-0.606
	c-0.499-0.507-0.936-1.074-1.373-1.629c-0.938-1.19-1.31-2.644-1.771-4.038c-0.211-0.646-0.25-1.344-0.396-2.01
	c-0.041-0.186-0.178-0.352-0.235-0.465c0.093-0.258,0.23-0.492,0.249-0.736c0.07-0.958,0.127-1.92,0.141-2.887
	c0.032-2.362,0.034-4.726,0.058-7.088c0.019-1.942,0.065-3.887,0.071-5.832c0.003-1.06-0.042-2.12-0.084-3.177
	c-0.021-0.582-0.129-1.167-0.113-1.747c0.025-1.01,0.188-2.024,0.168-3.037c-0.036-1.823-0.155-3.64-0.258-5.458
	c-0.032-0.57-0.271-5.32-0.264-5.358c0.104-0.477,0.092-1.133,0.398-1.385c0.747-0.607,1.271-1.427,2.254-1.853
	c1.156-0.505,2.341-0.813,3.539-1.025c2.035-0.359,4.076-0.137,6.035,0.492c0.871,0.281,1.773,0.707,2.444,1.31
	c0.601,0.542,0.887,1.426,1.348,2.133c0.134,0.207,0.38,0.447,0.597,0.474c1.03,0.121,2.063,0.186,3.098,0.238
	c0.539,0.029,1.081,0.026,1.614-0.027c0.895-0.084,1.171-0.299,1.187-0.834c0.009-0.388-0.012-0.775-0.012-1.16
	c-0.006-2.043-0.004-4.089-0.02-6.134c-0.004-0.234-0.117-0.467-0.177-0.706c0.038-0.38,0.005-0.765-0.014-1.149
	c-0.022-0.522-0.343-0.701-0.81-0.721c-0.863-0.039-1.727-0.119-2.589-0.106c-0.559,0.006-1.115,0.149-1.673,0.221
	c-0.169,0.025-0.355,0.068-0.514,0.025c-0.856-0.24-1.606,0.103-2.458,0.322c-0.069-0.035-0.239-0.195-0.417-0.207
	c-0.924-0.045-1.85-0.08-2.772-0.065c-1.931,0.033-3.855,0.098-5.785,0.147c-0.605,0.017-1.214,0.052-1.816,0.019
	c-0.729-0.043-1.453-0.172-2.182-0.217c-0.271-0.018-0.548,0.092-0.883,0.153C77.974,39.284,77.772,39.113,77.592,39.132z"/>
</svg>
