<?xml version="1.0" encoding="utf-8"?>
<!-- Generator: Adobe Illustrator 16.0.0, SVG Export Plug-In . SVG Version: 6.00 Build 0)  -->
<!DOCTYPE svg PUBLIC "-//W3C//DTD SVG 1.1//EN" "http://www.w3.org/Graphics/SVG/1.1/DTD/svg11.dtd">
<svg version="1.1" id="Layer_1" xmlns="http://www.w3.org/2000/svg" xmlns:xlink="http://www.w3.org/1999/xlink" x="0px" y="0px"
	 width="113.331px" height="113.332px" viewBox="0 0 113.331 113.332" enable-background="new 0 0 113.331 113.332"
	 xml:space="preserve">
<path fill-rule="evenodd" clip-rule="evenodd" fill="#FFFFFF" d="M113.331,56.665c0,31.295-25.371,56.667-56.667,56.667
	C25.37,113.332,0,87.96,0,56.665C0,25.37,25.37,0,56.664,0C87.959,0,113.331,25.37,113.331,56.665z M34.266,17.758
	c-0.293-0.543-4.355,0.029-5.356-0.098c-1.378-0.174-2.744-0.063-4.114-0.088c-1.162-0.021-2.325,0.062-3.487,0.105
	c-0.531,0.018-1.096,0.422-1.119,0.924c-0.05,1.176-0.086,2.361-0.005,3.531c0.056,0.816,0.964,1.624,1.687,1.773
	c0.625,0.125,1.23,0.358,1.858,0.455c1.024,0.156,1.69,0.715,2.127,1.705c-0.217,0.152-0.532,0.264-0.624,0.474
	c-0.09,0.205,0.046,0.51,0.078,0.772c0.006,0.035-0.029,0.078-0.029,0.114c-0.003,1.174-0.039,2.351,0.003,3.523
	c0.041,1.135,0.218,2.263,0.232,3.396c0.026,1.986-0.031,3.972-0.045,5.959c-0.012,1.284,0.062,2.568-0.032,3.846
	c-0.088,1.238,0.135,2.465-0.016,3.699c-0.083,0.658-0.131,1.321-0.143,1.985c-0.015,0.89,0.05,1.781,0.029,2.674
	c-0.075,3.148-0.192,6.296-0.252,9.451c-0.027,1.441,0.045,2.877,0.074,4.319c0.007,0.3,0.051,0.601,0.024,0.898
	c-0.098,1.109-0.208,2.218-0.338,3.326c-0.079,0.662-0.118,1.347-0.333,1.974c-0.287,0.838-0.568,1.675-1.25,2.361
	c-0.823,0.832-1.863,1.242-2.832,1.779c-0.514,0.285-0.739,0.603-0.71,1.14c0.073,1.314,0.147,2.633,0.258,3.944
	c0.012,0.149,0.236,0.374,0.392,0.404c0.578,0.103,1.17,0.207,1.755,0.197c2.176-0.028,4.351-0.114,6.528-0.157
	c0.793-0.017,1.59,0.008,2.381,0.061c0.753,0.054,1.499,0.203,2.253,0.248c0.559,0.033,1.123-0.051,1.686-0.057
	c0.529-0.01,1.057,0.012,1.585,0.023c0.968,0.015,1.938-0.006,2.903,0.055c1.266,0.087,6.181,0.038,6.438,0.033
	c1.284-0.025,2.566-0.029,3.851-0.062c0.644-0.021,1.29-0.11,1.937-0.129c0.978-0.033,1.955-0.022,2.931-0.053
	c0.266-0.012,0.587-0.242,0.786-0.154c0.727,0.324,1.43,0.07,2.139,0.013c0.629-0.046,0.765-0.321,0.575-0.925
	c-0.145-0.463-0.322-0.941-0.344-1.42c-0.074-1.781-0.075-3.564-0.132-5.345c-0.053-1.656,0.228-3.261,0.755-4.81
	c0.208-0.609,0.437-1.279,1.071-1.695c0.24-0.159,0.42-0.601,0.414-0.908c-0.034-1.51-0.131-3.022-0.225-4.534
	c-0.028-0.44-0.294-0.649-0.752-0.639c-1.318,0.035-2.635,0.08-3.952,0.068c-1.577-0.013-3.154-0.107-4.729-0.116
	c-0.441-0.001-0.917,0.095-1.3,0.291c-0.118,0.06,0.014,0.605,0.026,0.926c0.007,0.177-0.009,0.354,0,0.534
	c0.039,0.844,0.066,1.692,0.132,2.533c0.036,0.475,0.317,0.809,0.783,0.93c1.392,0.363,2.231,1.23,2.339,2.673
	c0.068,0.942,0.304,1.931-0.191,2.838c-0.263,0.481-0.58,0.935-0.899,1.386c-0.729,1.039-1.68,1.778-2.946,2.029
	c-1.259,0.248-2.521,0.514-3.794,0.658c-1.309,0.151-2.632,0.215-3.949,0.219c-0.901,0.005-1.806-0.257-2.703-0.222
	c-0.786,0.035-1.517,0.015-2.2-0.378c-0.863-0.496-1.762-0.949-2.553-1.543c-1.109-0.834-1.189-2.265-1.749-3.417
	c-0.167-0.346-0.295-0.744-0.316-1.125c-0.046-0.869-0.008-1.745-0.017-2.617c-0.014-1.762-0.061-3.527-0.052-5.292
	c0.012-1.824,0.085-3.646,0.105-5.472c0.035-3.113,0.084-6.225,0.056-9.338c-0.011-1.588-0.321-3.158-0.108-4.765
	c0.14-1.035,0.017-2.103,0.015-3.153c-0.003-2.46-0.017-4.921,0-7.382c0.006-0.922,0.094-1.845,0.123-2.767
	c0.029-0.941,0.043-1.595-0.031-1.872c0.19-1.11,0.019-3.049,0.4-3.101c1.369,0.125,2.292-1.08,2.856-1.498
	c0.166-0.123,0.35-0.357,0.354-0.543c0.028-1.492,0.016-2.986,0.016-4.515C34.512,17.803,34.302,17.826,34.266,17.758z
	 M77.591,39.132c-1.64,0.176-3.271-0.42-4.91-0.049c-0.101,0.02-0.223-0.066-0.337-0.094c-0.203-0.047-0.41-0.127-0.614-0.121
	c-0.741,0.02-1.479,0.119-2.221,0.106c-1.277-0.018-2.557-0.098-3.835-0.15c-0.217-0.01-0.433-0.022-0.648-0.02
	c-1.333,0.014-5.182,0.086-6.514,0.078c-1.815-0.013-3.629-0.086-5.444-0.086c-0.92,0-1.092,0.289-0.983,1.224
	c0.099,0.838,0.189,1.684,0.197,2.529c0.015,1.866-0.027,3.738-0.039,5.605c-0.005,0.982,0.13,1.1,1.125,1.057
	c1.061-0.045,2.12-0.119,3.18-0.123c0.802,0,1.049,0.053,1.2-1.13c0.163-1.266,0.916-2.024,2.016-2.451
	c0.668-0.26,3.916-0.376,4.627-0.521c2.912-0.582,5.393,1.802,6.253,3.984c0.103,0.267,0.252,0.516,0.377,0.775
	c0.303,0.623,0.698,1.216,0.496,1.978c-0.125,0.473-0.227,0.966-0.262,1.454c-0.044,0.586-0.003,1.178-0.006,1.766
	c-0.006,1.179-0.055,2.361-0.019,3.54c0.046,1.586,0.183,3.17,0.226,4.757c0.024,0.881-0.073,1.767-0.102,2.647
	c-0.035,1.113-0.057,2.224-0.081,3.334c-0.029,1.351-0.077,2.701-0.076,4.052c0.001,1.324,0.178,2.659,0.037,3.963
	c-0.085,0.799,0.194,1.549-0.012,2.377c-0.232,0.923-0.087,1.943-0.096,2.921c-0.006,0.461,0.01,0.924,0.016,1.365
	c0.145,0.113,0.272,0.215,0.277,0.218c-0.133,0.446-0.314,0.785-0.32,1.119c-0.023,2.055,0.035,4.111-0.018,6.166
	c-0.034,1.295-1.127,2.446-2.39,2.671c-0.483,0.086-0.974,0.143-1.46,0.213c-0.559,0.08-0.707,0.33-0.627,0.871
	c0.062,0.437,0.045,0.89,0.062,1.332c0.056,1.365,0.104,2.732,0.168,4.097c0.023,0.509,0.312,0.646,0.804,0.603
	c0.957-0.083,1.92-0.135,2.882-0.151c0.767-0.012,1.539,0.033,2.304,0.092c0.577,0.043,1.148,0.203,1.725,0.215
	c1.153,0.027,2.31-0.001,3.463-0.026c0.905-0.025,1.811-0.106,2.714-0.103c0.539,0,1.073,0.127,1.612,0.175
	c0.586,0.051,1.182,0.024,1.762,0.114c0.621,0.094,0.758,0.042,0.773-0.58c0.02-0.885,0.049-1.775,0.027-2.658
	c-0.033-1.43-0.124-2.865-0.14-4.297c-0.005-0.334-0.115-0.41-0.384-0.438c-0.194-0.019-0.392-0.04-0.584-0.073
	c-0.778-0.159-1.663,0.022-2.289-0.607c-0.499-0.507-0.935-1.074-1.373-1.629c-0.937-1.191-1.309-2.644-1.771-4.038
	c-0.211-0.646-0.25-1.344-0.397-2.01c-0.041-0.185-0.177-0.351-0.235-0.464c0.093-0.259,0.23-0.493,0.249-0.737
	c0.07-0.958,0.127-1.92,0.141-2.886c0.032-2.363,0.034-4.726,0.057-7.089c0.019-1.942,0.066-3.887,0.071-5.832
	c0.003-1.06-0.042-2.12-0.084-3.177c-0.021-0.582-0.128-1.167-0.113-1.747c0.026-1.01,0.188-2.024,0.168-3.037
	c-0.036-1.823-0.155-3.64-0.258-5.458c-0.032-0.57-0.271-5.32-0.263-5.358c0.104-0.477,0.091-1.133,0.398-1.385
	c0.747-0.607,1.272-1.427,2.254-1.853c1.156-0.505,2.341-0.813,3.539-1.025c2.035-0.359,4.076-0.137,6.035,0.492
	c0.871,0.281,1.774,0.707,2.445,1.31c0.6,0.542,0.886,1.426,1.347,2.133c0.134,0.207,0.38,0.447,0.597,0.474
	c1.03,0.121,2.063,0.186,3.098,0.238c0.539,0.029,1.081,0.026,1.614-0.027c0.894-0.084,1.171-0.299,1.186-0.834
	c0.009-0.388-0.011-0.775-0.011-1.16c-0.006-2.043-0.004-4.089-0.02-6.134c-0.004-0.234-0.117-0.467-0.177-0.706
	c0.038-0.38,0.005-0.765-0.013-1.149c-0.023-0.522-0.343-0.701-0.81-0.721c-0.863-0.039-1.726-0.119-2.589-0.106
	c-0.558,0.006-1.115,0.149-1.673,0.221c-0.169,0.025-0.355,0.068-0.513,0.025c-0.857-0.24-1.607,0.103-2.458,0.322
	c-0.07-0.035-0.24-0.195-0.417-0.207c-0.924-0.045-1.85-0.08-2.773-0.065c-1.93,0.033-3.855,0.098-5.785,0.147
	c-0.605,0.017-1.214,0.052-1.816,0.019c-0.73-0.043-1.453-0.172-2.182-0.217c-0.271-0.018-0.548,0.092-0.883,0.153
	C77.974,39.284,77.772,39.113,77.591,39.132z"/>
</svg>
