<?xml version="1.0" encoding="utf-8"?>
<!-- Generator: Adobe Illustrator 16.0.0, SVG Export Plug-In . SVG Version: 6.00 Build 0)  -->
<!DOCTYPE svg PUBLIC "-//W3C//DTD SVG 1.1//EN" "http://www.w3.org/Graphics/SVG/1.1/DTD/svg11.dtd">
<svg version="1.1" id="Layer_1" xmlns="http://www.w3.org/2000/svg" xmlns:xlink="http://www.w3.org/1999/xlink" x="0px" y="0px"
	 width="68.159px" height="70.9px" viewBox="0 0 68.159 70.9" enable-background="new 0 0 68.159 70.9" xml:space="preserve">
<g id="Reload_-_Grey">
	<path fill="#FFFFFF" stroke="#FFFFFF" d="M34.305,59.137c-12.431,0-22.549-10.11-22.549-22.549
		c0-12.431,10.118-22.553,22.549-22.553c5.335,0,10.227,1.873,14.085,4.984l-11.179,9.67l29.446,4.347L66.597,3.276L56.261,12.22
		c-5.812-5.239-13.504-8.447-21.956-8.447c-18.121,0-32.804,14.699-32.804,32.816C1.501,54.71,16.184,69.4,34.305,69.4
		c14.215,0,26.314-9.041,30.867-21.677l-10.481-1.55C51.083,53.818,43.31,59.137,34.305,59.137z"/>
</g>
</svg>
